<svg xmlns="http://www.w3.org/2000/svg" xmlns:xlink="http://www.w3.org/1999/xlink" viewBox="0 0 430 430" width="430" height="430" preserveAspectRatio="xMidYMid meet" style="width: 100%; height: 100%; transform: translate3d(0px, 0px, 0px); content-visibility: visible;"><defs><clipPath id="__lottie_element_4789"><rect width="430" height="430" x="0" y="0"/></clipPath><clipPath id="__lottie_element_4791"><path d="M0,0 L430,0 L430,430 L0,430z"/></clipPath><clipPath id="__lottie_element_4796"><path d="M0,0 L430,0 L430,430 L0,430z"/></clipPath></defs><g clip-path="url(#__lottie_element_4789)"><g clip-path="url(#__lottie_element_4791)" transform="matrix(1,0,0,1,0,0)" opacity="1" style="display: block;"><g clip-path="url(#__lottie_element_4796)" transform="matrix(1,0,0,1,0,0)" opacity="1" style="display: block;"><g transform="matrix(0.9964925646781921,0,0,0.9964925646781921,235.02000427246094,207.8300018310547)" opacity="1" style="display: block;"><g opacity="1" transform="matrix(1,0,0,1,0,0)"><path class="senary" fill="rgb(75,179,253)" fill-opacity="1" d=" M87.88999938964844,-153.4499969482422 C87.88999938964844,-153.4499969482422 -87.88999938964844,-153.4499969482422 -87.88999938964844,-153.4499969482422 C-101.98999786376953,-153.4499969482422 -113.41999816894531,-142.02000427246094 -113.41999816894531,-127.91999816894531 C-113.41999816894531,-127.91999816894531 -113.41999816894531,127.91999816894531 -113.41999816894531,127.91999816894531 C-113.41999816894531,142.02000427246094 -101.98999786376953,153.4499969482422 -87.88999938964844,153.4499969482422 C-87.88999938964844,153.4499969482422 87.88999938964844,153.4499969482422 87.88999938964844,153.4499969482422 C101.98999786376953,153.4499969482422 113.41999816894531,142.02000427246094 113.41999816894531,127.91999816894531 C113.41999816894531,127.91999816894531 113.41999816894531,-127.91999816894531 113.41999816894531,-127.91999816894531 C113.41999816894531,-142.02000427246094 101.98999786376953,-153.4499969482422 87.88999938964844,-153.4499969482422z"/></g><g opacity="0.5" transform="matrix(1,0,0,1,-87.31199645996094,0)" style="mix-blend-mode: multiply;"><path class="senary" fill="rgb(75,179,253)" fill-opacity="1" d=" M-0.5699999928474426,153.4499969482422 C-0.5699999928474426,153.4499969482422 26.110000610351562,153.4499969482422 26.110000610351562,153.4499969482422 C12.069999694824219,153.4499969482422 0.5799999833106995,141.9600067138672 0.5799999833106995,127.91000366210938 C0.5799999833106995,127.91000366210938 0.5799999833106995,-127.91000366210938 0.5799999833106995,-127.91000366210938 C0.5799999833106995,-141.9600067138672 12.069999694824219,-153.4499969482422 26.110000610351562,-153.4499969482422 C26.110000610351562,-153.4499969482422 -0.5699999928474426,-153.4499969482422 -0.5699999928474426,-153.4499969482422 C-14.619999885559082,-153.4499969482422 -26.110000610351562,-141.9600067138672 -26.110000610351562,-127.91000366210938 C-26.110000610351562,-127.91000366210938 -26.110000610351562,127.91000366210938 -26.110000610351562,127.91000366210938 C-26.110000610351562,141.9600067138672 -14.619999885559082,153.4499969482422 -0.5699999928474426,153.4499969482422z"/></g></g><g transform="matrix(0.9964925646781921,0,0,0.9964925646781921,301.4013671875,280.9576110839844)" opacity="1" style="display: block;"><g opacity="1" transform="matrix(1,0,0,1,0,0)"><path class="quaternary" fill="rgb(242,76,0)" fill-opacity="1" d=" M12.015000343322754,-53.375 C12.015000343322754,-53.375 -12.015000343322754,-53.375 -12.015000343322754,-53.375 C-16.433000564575195,-53.375 -20.014999389648438,-49.792999267578125 -20.014999389648438,-45.375 C-20.014999389648438,-45.375 -20.014999389648438,45.375 -20.014999389648438,45.375 C-20.014999389648438,49.792999267578125 -16.433000564575195,53.375 -12.015000343322754,53.375 C-12.015000343322754,53.375 12.015000343322754,53.375 12.015000343322754,53.375 C16.433000564575195,53.375 20.014999389648438,49.792999267578125 20.014999389648438,45.375 C20.014999389648438,45.375 20.014999389648438,-45.375 20.014999389648438,-45.375 C20.014999389648438,-49.792999267578125 16.433000564575195,-53.375 12.015000343322754,-53.375z"/></g><g opacity="0.5" transform="matrix(1,0,0,1,-9.95300006866455,0)" style="mix-blend-mode: multiply;"><path class="quaternary" fill="rgb(242,76,0)" fill-opacity="1" d=" M10.0600004196167,53.375 C10.0600004196167,53.375 10.0600004196167,-53.375 10.0600004196167,-53.375 C10.0600004196167,-53.375 -2.059999942779541,-53.375 -2.059999942779541,-53.375 C-6.480000019073486,-53.375 -10.0600004196167,-49.79499816894531 -10.0600004196167,-45.375 C-10.0600004196167,-45.375 -10.0600004196167,45.375 -10.0600004196167,45.375 C-10.0600004196167,49.79499816894531 -6.480000019073486,53.375 -2.059999942779541,53.375 C-2.059999942779541,53.375 10.0600004196167,53.375 10.0600004196167,53.375z"/></g></g><g transform="matrix(0.9964925646781921,0,0,0.9964925646781921,235.01004028320312,108.10601043701172)" opacity="1" style="display: block;"><g opacity="1" transform="matrix(1,0,0,1,0,0)"><path class="quinary" fill="rgb(235,230,239)" fill-opacity="1" d=" M72.7300033569336,-26.684999465942383 C72.7300033569336,-26.684999465942383 -72.7300033569336,-26.684999465942383 -72.7300033569336,-26.684999465942383 C-80.46199798583984,-26.684999465942383 -86.7300033569336,-20.41699981689453 -86.7300033569336,-12.6850004196167 C-86.7300033569336,-12.6850004196167 -86.7300033569336,12.6850004196167 -86.7300033569336,12.6850004196167 C-86.7300033569336,20.41699981689453 -80.46199798583984,26.684999465942383 -72.7300033569336,26.684999465942383 C-72.7300033569336,26.684999465942383 72.7300033569336,26.684999465942383 72.7300033569336,26.684999465942383 C80.46199798583984,26.684999465942383 86.7300033569336,20.41699981689453 86.7300033569336,12.6850004196167 C86.7300033569336,12.6850004196167 86.7300033569336,-12.6850004196167 86.7300033569336,-12.6850004196167 C86.7300033569336,-20.41699981689453 80.46199798583984,-26.684999465942383 72.7300033569336,-26.684999465942383z"/></g></g><g transform="matrix(0.9964925646781921,0,0,0.9964925646781921,167.9709930419922,108.10601043701172)" opacity="0.5" style="mix-blend-mode: multiply; display: block;"><g opacity="1" transform="matrix(1,0,0,1,0,0)"><path class="quinary" fill="rgb(235,230,239)" fill-opacity="1" d=" M-5.445000171661377,26.684999465942383 C-5.445000171661377,26.684999465942383 19.44499969482422,26.684999465942383 19.44499969482422,26.684999465942383 C11.744999885559082,26.684999465942383 5.445000171661377,20.385000228881836 5.445000171661377,12.6850004196167 C5.445000171661377,12.6850004196167 5.445000171661377,-12.6850004196167 5.445000171661377,-12.6850004196167 C5.445000171661377,-20.385000228881836 11.744999885559082,-26.684999465942383 19.44499969482422,-26.684999465942383 C19.44499969482422,-26.684999465942383 -5.445000171661377,-26.684999465942383 -5.445000171661377,-26.684999465942383 C-13.145000457763672,-26.684999465942383 -19.44499969482422,-20.385000228881836 -19.44499969482422,-12.6850004196167 C-19.44499969482422,-12.6850004196167 -19.44499969482422,12.6850004196167 -19.44499969482422,12.6850004196167 C-19.44499969482422,20.385000228881836 -13.145000457763672,26.684999465942383 -5.445000171661377,26.684999465942383z"/></g></g><g transform="matrix(0.9964925646781921,0,0,0.9964925646781921,168.72833251953125,181.2386016845703)" opacity="1" style="display: block;"><g opacity="1" transform="matrix(1,0,0,1,0,0)"><path class="tertiary" fill="rgb(58,51,71)" fill-opacity="1" d=" M12.015000343322754,-20.014999389648438 C12.015000343322754,-20.014999389648438 -12.015000343322754,-20.014999389648438 -12.015000343322754,-20.014999389648438 C-16.433000564575195,-20.014999389648438 -20.014999389648438,-16.433000564575195 -20.014999389648438,-12.015000343322754 C-20.014999389648438,-12.015000343322754 -20.014999389648438,12.015000343322754 -20.014999389648438,12.015000343322754 C-20.014999389648438,16.433000564575195 -16.433000564575195,20.014999389648438 -12.015000343322754,20.014999389648438 C-12.015000343322754,20.014999389648438 12.015000343322754,20.014999389648438 12.015000343322754,20.014999389648438 C16.433000564575195,20.014999389648438 20.014999389648438,16.433000564575195 20.014999389648438,12.015000343322754 C20.014999389648438,12.015000343322754 20.014999389648438,-12.015000343322754 20.014999389648438,-12.015000343322754 C20.014999389648438,-16.433000564575195 16.433000564575195,-20.014999389648438 12.015000343322754,-20.014999389648438z"/></g><g opacity="0.5" transform="matrix(1,0,0,1,-10,0)" style="mix-blend-mode: multiply;"><path class="tertiary" fill="rgb(58,51,71)" fill-opacity="1" d=" M9.960000038146973,20.014999389648438 C9.960000038146973,20.014999389648438 9.960000038146973,-20.014999389648438 9.960000038146973,-20.014999389648438 C9.960000038146973,-20.014999389648438 -1.9600000381469727,-20.014999389648438 -1.9600000381469727,-20.014999389648438 C-6.369999885559082,-20.014999389648438 -9.960000038146973,-16.434999465942383 -9.960000038146973,-12.015000343322754 C-9.960000038146973,-12.015000343322754 -9.960000038146973,12.015000343322754 -9.960000038146973,12.015000343322754 C-9.960000038146973,16.434999465942383 -6.369999885559082,20.014999389648438 -1.9600000381469727,20.014999389648438 C-1.9600000381469727,20.014999389648438 9.960000038146973,20.014999389648438 9.960000038146973,20.014999389648438z"/></g></g><g transform="matrix(0.9964925646781921,0,0,0.9964925646781921,168.72833251953125,181.2386016845703)" opacity="1" style="display: block;"><g opacity="1" transform="matrix(1,0,0,1,0,0)"><path stroke-linecap="round" stroke-linejoin="round" fill-opacity="0" class="primary" stroke="rgb(18,19,49)" stroke-opacity="1" stroke-width="7" d=" M12.015000343322754,-20.014999389648438 C12.015000343322754,-20.014999389648438 -12.015000343322754,-20.014999389648438 -12.015000343322754,-20.014999389648438 C-16.433000564575195,-20.014999389648438 -20.014999389648438,-16.433000564575195 -20.014999389648438,-12.015000343322754 C-20.014999389648438,-12.015000343322754 -20.014999389648438,12.015000343322754 -20.014999389648438,12.015000343322754 C-20.014999389648438,16.433000564575195 -16.433000564575195,20.014999389648438 -12.015000343322754,20.014999389648438 C-12.015000343322754,20.014999389648438 12.015000343322754,20.014999389648438 12.015000343322754,20.014999389648438 C16.433000564575195,20.014999389648438 20.014999389648438,16.433000564575195 20.014999389648438,12.015000343322754 C20.014999389648438,12.015000343322754 20.014999389648438,-12.015000343322754 20.014999389648438,-12.015000343322754 C20.014999389648438,-16.433000564575195 16.433000564575195,-20.014999389648438 12.015000343322754,-20.014999389648438z"/></g></g><g transform="matrix(0.9964925646781921,0,0,0.9964925646781921,234.98512268066406,181.2386016845703)" opacity="1" style="display: block;"><g opacity="1" transform="matrix(1,0,0,1,0,0)"><path class="tertiary" fill="rgb(58,51,71)" fill-opacity="1" d=" M12.015000343322754,-20.014999389648438 C12.015000343322754,-20.014999389648438 -12.015000343322754,-20.014999389648438 -12.015000343322754,-20.014999389648438 C-16.433000564575195,-20.014999389648438 -20.014999389648438,-16.433000564575195 -20.014999389648438,-12.015000343322754 C-20.014999389648438,-12.015000343322754 -20.014999389648438,12.015000343322754 -20.014999389648438,12.015000343322754 C-20.014999389648438,16.433000564575195 -16.433000564575195,20.014999389648438 -12.015000343322754,20.014999389648438 C-12.015000343322754,20.014999389648438 12.015000343322754,20.014999389648438 12.015000343322754,20.014999389648438 C16.433000564575195,20.014999389648438 20.014999389648438,16.433000564575195 20.014999389648438,12.015000343322754 C20.014999389648438,12.015000343322754 20.014999389648438,-12.015000343322754 20.014999389648438,-12.015000343322754 C20.014999389648438,-16.433000564575195 16.433000564575195,-20.014999389648438 12.015000343322754,-20.014999389648438z"/></g><g opacity="0.5" transform="matrix(1,0,0,1,-10,0)" style="mix-blend-mode: multiply;"><path class="tertiary" fill="rgb(58,51,71)" fill-opacity="1" d=" M9.944999694824219,20.014999389648438 C9.944999694824219,20.014999389648438 9.944999694824219,-20.014999389648438 9.944999694824219,-20.014999389648438 C9.944999694824219,-20.014999389648438 -1.965000033378601,-20.014999389648438 -1.965000033378601,-20.014999389648438 C-6.195000171661377,-20.014999389648438 -9.664999961853027,-16.725000381469727 -9.944999694824219,-12.5649995803833 C-9.944999694824219,-12.5649995803833 -9.944999694824219,12.5649995803833 -9.944999694824219,12.5649995803833 C-9.664999961853027,16.725000381469727 -6.195000171661377,20.014999389648438 -1.965000033378601,20.014999389648438 C-1.965000033378601,20.014999389648438 9.944999694824219,20.014999389648438 9.944999694824219,20.014999389648438z"/></g></g><g transform="matrix(0.9964925646781921,0,0,0.9964925646781921,234.98512268066406,181.2386016845703)" opacity="1" style="display: block;"><g opacity="1" transform="matrix(1,0,0,1,0,0)"><path stroke-linecap="round" stroke-linejoin="round" fill-opacity="0" class="primary" stroke="rgb(18,19,49)" stroke-opacity="1" stroke-width="7" d=" M12.015000343322754,-20.014999389648438 C12.015000343322754,-20.014999389648438 -12.015000343322754,-20.014999389648438 -12.015000343322754,-20.014999389648438 C-16.433000564575195,-20.014999389648438 -20.014999389648438,-16.433000564575195 -20.014999389648438,-12.015000343322754 C-20.014999389648438,-12.015000343322754 -20.014999389648438,12.015000343322754 -20.014999389648438,12.015000343322754 C-20.014999389648438,16.433000564575195 -16.433000564575195,20.014999389648438 -12.015000343322754,20.014999389648438 C-12.015000343322754,20.014999389648438 12.015000343322754,20.014999389648438 12.015000343322754,20.014999389648438 C16.433000564575195,20.014999389648438 20.014999389648438,16.433000564575195 20.014999389648438,12.015000343322754 C20.014999389648438,12.015000343322754 20.014999389648438,-12.015000343322754 20.014999389648438,-12.015000343322754 C20.014999389648438,-16.433000564575195 16.433000564575195,-20.014999389648438 12.015000343322754,-20.014999389648438z"/></g></g><g transform="matrix(0.9964925646781921,0,0,0.9964925646781921,301.5010070800781,181.2386016845703)" opacity="1" style="display: block;"><g opacity="1" transform="matrix(1,0,0,1,0,0)"><path class="tertiary" fill="rgb(58,51,71)" fill-opacity="1" d=" M12.015000343322754,-20.014999389648438 C12.015000343322754,-20.014999389648438 -12.015000343322754,-20.014999389648438 -12.015000343322754,-20.014999389648438 C-16.433000564575195,-20.014999389648438 -20.014999389648438,-16.433000564575195 -20.014999389648438,-12.015000343322754 C-20.014999389648438,-12.015000343322754 -20.014999389648438,12.015000343322754 -20.014999389648438,12.015000343322754 C-20.014999389648438,16.433000564575195 -16.433000564575195,20.014999389648438 -12.015000343322754,20.014999389648438 C-12.015000343322754,20.014999389648438 12.015000343322754,20.014999389648438 12.015000343322754,20.014999389648438 C16.433000564575195,20.014999389648438 20.014999389648438,16.433000564575195 20.014999389648438,12.015000343322754 C20.014999389648438,12.015000343322754 20.014999389648438,-12.015000343322754 20.014999389648438,-12.015000343322754 C20.014999389648438,-16.433000564575195 16.433000564575195,-20.014999389648438 12.015000343322754,-20.014999389648438z"/></g><g opacity="0.5" transform="matrix(1,0,0,1,-10,0)" style="mix-blend-mode: multiply;"><path class="tertiary" fill="rgb(58,51,71)" fill-opacity="1" d=" M9.960000038146973,20.014999389648438 C9.960000038146973,20.014999389648438 9.960000038146973,-20.014999389648438 9.960000038146973,-20.014999389648438 C9.960000038146973,-20.014999389648438 -1.9600000381469727,-20.014999389648438 -1.9600000381469727,-20.014999389648438 C-6.380000114440918,-20.014999389648438 -9.960000038146973,-16.434999465942383 -9.960000038146973,-12.015000343322754 C-9.960000038146973,-12.015000343322754 -9.960000038146973,12.015000343322754 -9.960000038146973,12.015000343322754 C-9.960000038146973,16.434999465942383 -6.380000114440918,20.014999389648438 -1.9600000381469727,20.014999389648438 C-1.9600000381469727,20.014999389648438 9.960000038146973,20.014999389648438 9.960000038146973,20.014999389648438z"/></g></g><g transform="matrix(0.9964925646781921,0,0,0.9964925646781921,301.5010070800781,181.2386016845703)" opacity="1" style="display: block;"><g opacity="1" transform="matrix(1,0,0,1,0,0)"><path stroke-linecap="round" stroke-linejoin="round" fill-opacity="0" class="primary" stroke="rgb(18,19,49)" stroke-opacity="1" stroke-width="7" d=" M12.015000343322754,-20.014999389648438 C12.015000343322754,-20.014999389648438 -12.015000343322754,-20.014999389648438 -12.015000343322754,-20.014999389648438 C-16.433000564575195,-20.014999389648438 -20.014999389648438,-16.433000564575195 -20.014999389648438,-12.015000343322754 C-20.014999389648438,-12.015000343322754 -20.014999389648438,12.015000343322754 -20.014999389648438,12.015000343322754 C-20.014999389648438,16.433000564575195 -16.433000564575195,20.014999389648438 -12.015000343322754,20.014999389648438 C-12.015000343322754,20.014999389648438 12.015000343322754,20.014999389648438 12.015000343322754,20.014999389648438 C16.433000564575195,20.014999389648438 20.014999389648438,16.433000564575195 20.014999389648438,12.015000343322754 C20.014999389648438,12.015000343322754 20.014999389648438,-12.015000343322754 20.014999389648438,-12.015000343322754 C20.014999389648438,-16.433000564575195 16.433000564575195,-20.014999389648438 12.015000343322754,-20.014999389648438z"/></g></g><g transform="matrix(0.9964925646781921,0,0,0.9964925646781921,168.62869262695312,247.71461486816406)" opacity="1" style="display: block;"><g opacity="1" transform="matrix(1,0,0,1,0,0)"><path class="quinary" fill="rgb(235,230,239)" fill-opacity="1" d=" M11.575342178344727,-19.28264617919922 C11.575342178344727,-19.28264617919922 -11.575342178344727,-19.28264617919922 -11.575342178344727,-19.28264617919922 C-15.83182430267334,-19.28264617919922 -19.28264617919922,-15.83182430267334 -19.28264617919922,-11.575342178344727 C-19.28264617919922,-11.575342178344727 -19.28264617919922,11.575342178344727 -19.28264617919922,11.575342178344727 C-19.28264617919922,15.83182430267334 -15.83182430267334,19.28264617919922 -11.575342178344727,19.28264617919922 C-11.575342178344727,19.28264617919922 11.575342178344727,19.28264617919922 11.575342178344727,19.28264617919922 C15.83182430267334,19.28264617919922 19.28264617919922,15.83182430267334 19.28264617919922,11.575342178344727 C19.28264617919922,11.575342178344727 19.28264617919922,-11.575342178344727 19.28264617919922,-11.575342178344727 C19.28264617919922,-15.83182430267334 15.83182430267334,-19.28264617919922 11.575342178344727,-19.28264617919922z"/></g><g opacity="0.5" transform="matrix(1,0,0,1,-10,0)" style="mix-blend-mode: multiply;"><path class="quinary" fill="rgb(235,230,239)" fill-opacity="1" d=" M9.946928977966309,19.28264617919922 C9.946928977966309,19.28264617919922 9.946928977966309,-19.28264617919922 9.946928977966309,-19.28264617919922 C9.946928977966309,-19.28264617919922 -1.527270793914795,-19.28264617919922 -1.527270793914795,-19.28264617919922 C-5.602592468261719,-19.28264617919922 -8.94544792175293,-16.113126754760742 -9.215275764465332,-12.10534954071045 C-9.215275764465332,-12.10534954071045 -9.215275764465332,12.10534954071045 -9.215275764465332,12.10534954071045 C-8.94544792175293,16.113126754760742 -5.602592468261719,19.28264617919922 -1.527270793914795,19.28264617919922 C-1.527270793914795,19.28264617919922 9.946928977966309,19.28264617919922 9.946928977966309,19.28264617919922z"/></g></g><g transform="matrix(0.9964925646781921,0,0,0.9964925646781921,168.62869262695312,247.71461486816406)" opacity="1" style="display: block;"><g opacity="1" transform="matrix(1,0,0,1,0,0)"><path stroke-linecap="round" stroke-linejoin="round" fill-opacity="0" class="primary" stroke="rgb(18,19,49)" stroke-opacity="1" stroke-width="7" d=" M11.575342178344727,-19.28264617919922 C11.575342178344727,-19.28264617919922 -11.575342178344727,-19.28264617919922 -11.575342178344727,-19.28264617919922 C-15.83182430267334,-19.28264617919922 -19.28264617919922,-15.83182430267334 -19.28264617919922,-11.575342178344727 C-19.28264617919922,-11.575342178344727 -19.28264617919922,11.575342178344727 -19.28264617919922,11.575342178344727 C-19.28264617919922,15.83182430267334 -15.83182430267334,19.28264617919922 -11.575342178344727,19.28264617919922 C-11.575342178344727,19.28264617919922 11.575342178344727,19.28264617919922 11.575342178344727,19.28264617919922 C15.83182430267334,19.28264617919922 19.28264617919922,15.83182430267334 19.28264617919922,11.575342178344727 C19.28264617919922,11.575342178344727 19.28264617919922,-11.575342178344727 19.28264617919922,-11.575342178344727 C19.28264617919922,-15.83182430267334 15.83182430267334,-19.28264617919922 11.575342178344727,-19.28264617919922z"/></g></g><g transform="matrix(0.9964925646781921,0,0,0.9964925646781921,234.88548278808594,247.71461486816406)" opacity="1" style="display: block;"><g opacity="1" transform="matrix(1,0,0,1,0,0)"><path class="quinary" fill="rgb(235,230,239)" fill-opacity="1" d=" M12.015000343322754,-20.014999389648438 C12.015000343322754,-20.014999389648438 -12.015000343322754,-20.014999389648438 -12.015000343322754,-20.014999389648438 C-16.433000564575195,-20.014999389648438 -20.014999389648438,-16.433000564575195 -20.014999389648438,-12.015000343322754 C-20.014999389648438,-12.015000343322754 -20.014999389648438,12.015000343322754 -20.014999389648438,12.015000343322754 C-20.014999389648438,16.433000564575195 -16.433000564575195,20.014999389648438 -12.015000343322754,20.014999389648438 C-12.015000343322754,20.014999389648438 12.015000343322754,20.014999389648438 12.015000343322754,20.014999389648438 C16.433000564575195,20.014999389648438 20.014999389648438,16.433000564575195 20.014999389648438,12.015000343322754 C20.014999389648438,12.015000343322754 20.014999389648438,-12.015000343322754 20.014999389648438,-12.015000343322754 C20.014999389648438,-16.433000564575195 16.433000564575195,-20.014999389648438 12.015000343322754,-20.014999389648438z"/></g><g opacity="0.5" transform="matrix(1,0,0,1,-10,0)" style="mix-blend-mode: multiply;"><path class="quinary" fill="rgb(235,230,239)" fill-opacity="1" d=" M9.944999694824219,20.014999389648438 C9.944999694824219,20.014999389648438 9.944999694824219,-20.014999389648438 9.944999694824219,-20.014999389648438 C9.944999694824219,-20.014999389648438 -1.965000033378601,-20.014999389648438 -1.965000033378601,-20.014999389648438 C-6.195000171661377,-20.014999389648438 -9.664999961853027,-16.725000381469727 -9.944999694824219,-12.5649995803833 C-9.944999694824219,-12.5649995803833 -9.944999694824219,12.5649995803833 -9.944999694824219,12.5649995803833 C-9.664999961853027,16.725000381469727 -6.195000171661377,20.014999389648438 -1.965000033378601,20.014999389648438 C-1.965000033378601,20.014999389648438 9.944999694824219,20.014999389648438 9.944999694824219,20.014999389648438z"/></g></g><g transform="matrix(0.9964925646781921,0,0,0.9964925646781921,234.88548278808594,247.71461486816406)" opacity="1" style="display: block;"><g opacity="1" transform="matrix(1,0,0,1,0,0)"><path stroke-linecap="round" stroke-linejoin="round" fill-opacity="0" class="primary" stroke="rgb(18,19,49)" stroke-opacity="1" stroke-width="7" d=" M12.015000343322754,-20.014999389648438 C12.015000343322754,-20.014999389648438 -12.015000343322754,-20.014999389648438 -12.015000343322754,-20.014999389648438 C-16.433000564575195,-20.014999389648438 -20.014999389648438,-16.433000564575195 -20.014999389648438,-12.015000343322754 C-20.014999389648438,-12.015000343322754 -20.014999389648438,12.015000343322754 -20.014999389648438,12.015000343322754 C-20.014999389648438,16.433000564575195 -16.433000564575195,20.014999389648438 -12.015000343322754,20.014999389648438 C-12.015000343322754,20.014999389648438 12.015000343322754,20.014999389648438 12.015000343322754,20.014999389648438 C16.433000564575195,20.014999389648438 20.014999389648438,16.433000564575195 20.014999389648438,12.015000343322754 C20.014999389648438,12.015000343322754 20.014999389648438,-12.015000343322754 20.014999389648438,-12.015000343322754 C20.014999389648438,-16.433000564575195 16.433000564575195,-20.014999389648438 12.015000343322754,-20.014999389648438z"/></g></g><g transform="matrix(0.9964925646781921,0,0,0.9964925646781921,168.62869262695312,314.2005920410156)" opacity="1" style="display: block;"><g opacity="1" transform="matrix(1,0,0,1,0,0)"><path class="quinary" fill="rgb(235,230,239)" fill-opacity="1" d=" M12.015000343322754,-20.014999389648438 C12.015000343322754,-20.014999389648438 -12.015000343322754,-20.014999389648438 -12.015000343322754,-20.014999389648438 C-16.433000564575195,-20.014999389648438 -20.014999389648438,-16.433000564575195 -20.014999389648438,-12.015000343322754 C-20.014999389648438,-12.015000343322754 -20.014999389648438,12.015000343322754 -20.014999389648438,12.015000343322754 C-20.014999389648438,16.433000564575195 -16.433000564575195,20.014999389648438 -12.015000343322754,20.014999389648438 C-12.015000343322754,20.014999389648438 12.015000343322754,20.014999389648438 12.015000343322754,20.014999389648438 C16.433000564575195,20.014999389648438 20.014999389648438,16.433000564575195 20.014999389648438,12.015000343322754 C20.014999389648438,12.015000343322754 20.014999389648438,-12.015000343322754 20.014999389648438,-12.015000343322754 C20.014999389648438,-16.433000564575195 16.433000564575195,-20.014999389648438 12.015000343322754,-20.014999389648438z"/></g></g><g transform="matrix(0.9964925646781921,0,0,0.9964925646781921,168.62869262695312,314.2005920410156)" opacity="1" style="display: block;"><g opacity="1" transform="matrix(1,0,0,1,0,0)"><path stroke-linecap="round" stroke-linejoin="round" fill-opacity="0" class="primary" stroke="rgb(18,19,49)" stroke-opacity="1" stroke-width="7" d=" M12.015000343322754,-20.014999389648438 C12.015000343322754,-20.014999389648438 -12.015000343322754,-20.014999389648438 -12.015000343322754,-20.014999389648438 C-16.433000564575195,-20.014999389648438 -20.014999389648438,-16.433000564575195 -20.014999389648438,-12.015000343322754 C-20.014999389648438,-12.015000343322754 -20.014999389648438,12.015000343322754 -20.014999389648438,12.015000343322754 C-20.014999389648438,16.433000564575195 -16.433000564575195,20.014999389648438 -12.015000343322754,20.014999389648438 C-12.015000343322754,20.014999389648438 12.015000343322754,20.014999389648438 12.015000343322754,20.014999389648438 C16.433000564575195,20.014999389648438 20.014999389648438,16.433000564575195 20.014999389648438,12.015000343322754 C20.014999389648438,12.015000343322754 20.014999389648438,-12.015000343322754 20.014999389648438,-12.015000343322754 C20.014999389648438,-16.433000564575195 16.433000564575195,-20.014999389648438 12.015000343322754,-20.014999389648438z"/></g></g><g transform="matrix(0.9964925646781921,0,0,0.9964925646781921,234.88548278808594,314.2005920410156)" opacity="1" style="display: block;"><g opacity="1" transform="matrix(1,0,0,1,0,0)"><path class="quinary" fill="rgb(235,230,239)" fill-opacity="1" d=" M12.015000343322754,-20.014999389648438 C12.015000343322754,-20.014999389648438 -12.015000343322754,-20.014999389648438 -12.015000343322754,-20.014999389648438 C-16.433000564575195,-20.014999389648438 -20.014999389648438,-16.433000564575195 -20.014999389648438,-12.015000343322754 C-20.014999389648438,-12.015000343322754 -20.014999389648438,12.015000343322754 -20.014999389648438,12.015000343322754 C-20.014999389648438,16.433000564575195 -16.433000564575195,20.014999389648438 -12.015000343322754,20.014999389648438 C-12.015000343322754,20.014999389648438 12.015000343322754,20.014999389648438 12.015000343322754,20.014999389648438 C16.433000564575195,20.014999389648438 20.014999389648438,16.433000564575195 20.014999389648438,12.015000343322754 C20.014999389648438,12.015000343322754 20.014999389648438,-12.015000343322754 20.014999389648438,-12.015000343322754 C20.014999389648438,-16.433000564575195 16.433000564575195,-20.014999389648438 12.015000343322754,-20.014999389648438z"/></g></g><g transform="matrix(0.9964925646781921,0,0,0.9964925646781921,224.85079956054688,314.2005920410156)" opacity="0.5" style="mix-blend-mode: multiply; display: block;"><g opacity="1" transform="matrix(1,0,0,1,0,0)"><path class="quinary" fill="rgb(235,230,239)" fill-opacity="1" d=" M9.944999694824219,20.014999389648438 C9.944999694824219,20.014999389648438 9.944999694824219,-20.014999389648438 9.944999694824219,-20.014999389648438 C9.944999694824219,-20.014999389648438 -1.965000033378601,-20.014999389648438 -1.965000033378601,-20.014999389648438 C-6.195000171661377,-20.014999389648438 -9.664999961853027,-16.725000381469727 -9.944999694824219,-12.5649995803833 C-9.944999694824219,-12.5649995803833 -9.944999694824219,12.5649995803833 -9.944999694824219,12.5649995803833 C-9.664999961853027,16.725000381469727 -6.195000171661377,20.014999389648438 -1.965000033378601,20.014999389648438 C-1.965000033378601,20.014999389648438 9.944999694824219,20.014999389648438 9.944999694824219,20.014999389648438z"/></g></g><g transform="matrix(0.9964925646781921,0,0,0.9964925646781921,234.88548278808594,314.2005920410156)" opacity="1" style="display: block;"><g opacity="1" transform="matrix(1,0,0,1,0,0)"><path stroke-linecap="round" stroke-linejoin="round" fill-opacity="0" class="primary" stroke="rgb(18,19,49)" stroke-opacity="1" stroke-width="7" d=" M12.015000343322754,-20.014999389648438 C12.015000343322754,-20.014999389648438 -12.015000343322754,-20.014999389648438 -12.015000343322754,-20.014999389648438 C-16.433000564575195,-20.014999389648438 -20.014999389648438,-16.433000564575195 -20.014999389648438,-12.015000343322754 C-20.014999389648438,-12.015000343322754 -20.014999389648438,12.015000343322754 -20.014999389648438,12.015000343322754 C-20.014999389648438,16.433000564575195 -16.433000564575195,20.014999389648438 -12.015000343322754,20.014999389648438 C-12.015000343322754,20.014999389648438 12.015000343322754,20.014999389648438 12.015000343322754,20.014999389648438 C16.433000564575195,20.014999389648438 20.014999389648438,16.433000564575195 20.014999389648438,12.015000343322754 C20.014999389648438,12.015000343322754 20.014999389648438,-12.015000343322754 20.014999389648438,-12.015000343322754 C20.014999389648438,-16.433000564575195 16.433000564575195,-20.014999389648438 12.015000343322754,-20.014999389648438z"/></g></g><g transform="matrix(0.9964925646781921,0,0,0.9964925646781921,157.58755493164062,314.2005920410156)" opacity="0.5" style="mix-blend-mode: multiply; display: block;"><g opacity="1" transform="matrix(1,0,0,1,0,0)"><path class="quinary" fill="rgb(235,230,239)" fill-opacity="1" d=" M9.944999694824219,20.014999389648438 C9.944999694824219,20.014999389648438 9.944999694824219,-20.014999389648438 9.944999694824219,-20.014999389648438 C9.944999694824219,-20.014999389648438 -1.965000033378601,-20.014999389648438 -1.965000033378601,-20.014999389648438 C-6.195000171661377,-20.014999389648438 -9.664999961853027,-16.725000381469727 -9.944999694824219,-12.5649995803833 C-9.944999694824219,-12.5649995803833 -9.944999694824219,12.5649995803833 -9.944999694824219,12.5649995803833 C-9.664999961853027,16.725000381469727 -6.195000171661377,20.014999389648438 -1.965000033378601,20.014999389648438 C-1.965000033378601,20.014999389648438 9.944999694824219,20.014999389648438 9.944999694824219,20.014999389648438z"/></g></g><g transform="matrix(0.9964925646781921,0,0,0.9964925646781921,235.02099609375,208.3300018310547)" opacity="1" style="display: block;"><g opacity="1" transform="matrix(1,0,0,1,0,0)"><path stroke-linecap="round" stroke-linejoin="round" fill-opacity="0" class="primary" stroke="rgb(18,19,49)" stroke-opacity="1" stroke-width="7" d=" M87.88999938964844,-153.4499969482422 C87.88999938964844,-153.4499969482422 -87.88999938964844,-153.4499969482422 -87.88999938964844,-153.4499969482422 C-101.98999786376953,-153.4499969482422 -113.41999816894531,-142.02000427246094 -113.41999816894531,-127.91999816894531 C-113.41999816894531,-127.91999816894531 -113.41999816894531,127.91999816894531 -113.41999816894531,127.91999816894531 C-113.41999816894531,142.02000427246094 -101.98999786376953,153.4499969482422 -87.88999938964844,153.4499969482422 C-87.88999938964844,153.4499969482422 87.88999938964844,153.4499969482422 87.88999938964844,153.4499969482422 C101.98999786376953,153.4499969482422 113.41999816894531,142.02000427246094 113.41999816894531,127.91999816894531 C113.41999816894531,127.91999816894531 113.41999816894531,-127.91999816894531 113.41999816894531,-127.91999816894531 C113.41999816894531,-142.02000427246094 101.98999786376953,-153.4499969482422 87.88999938964844,-153.4499969482422z"/></g></g><g transform="matrix(0.9964925646781921,0,0,0.9964925646781921,235.0110321044922,108.60601043701172)" opacity="1" style="display: block;"><g opacity="1" transform="matrix(1,0,0,1,0,0)"><path stroke-linecap="round" stroke-linejoin="round" fill-opacity="0" class="primary" stroke="rgb(18,19,49)" stroke-opacity="1" stroke-width="7" d=" M72.7300033569336,-26.684999465942383 C72.7300033569336,-26.684999465942383 -72.7300033569336,-26.684999465942383 -72.7300033569336,-26.684999465942383 C-80.46199798583984,-26.684999465942383 -86.7300033569336,-20.41699981689453 -86.7300033569336,-12.6850004196167 C-86.7300033569336,-12.6850004196167 -86.7300033569336,12.6850004196167 -86.7300033569336,12.6850004196167 C-86.7300033569336,20.41699981689453 -80.46199798583984,26.684999465942383 -72.7300033569336,26.684999465942383 C-72.7300033569336,26.684999465942383 72.7300033569336,26.684999465942383 72.7300033569336,26.684999465942383 C80.46199798583984,26.684999465942383 86.7300033569336,20.41699981689453 86.7300033569336,12.6850004196167 C86.7300033569336,12.6850004196167 86.7300033569336,-12.6850004196167 86.7300033569336,-12.6850004196167 C86.7300033569336,-20.41699981689453 80.46199798583984,-26.684999465942383 72.7300033569336,-26.684999465942383z"/></g></g><g transform="matrix(0.9964925646781921,0,0,0.9964925646781921,301.40234375,281.4576110839844)" opacity="1" style="display: block;"><g opacity="1" transform="matrix(1,0,0,1,0,0)"><path stroke-linecap="round" stroke-linejoin="round" fill-opacity="0" class="primary" stroke="rgb(18,19,49)" stroke-opacity="1" stroke-width="7" d=" M12.015000343322754,-53.375 C12.015000343322754,-53.375 -12.015000343322754,-53.375 -12.015000343322754,-53.375 C-16.433000564575195,-53.375 -20.014999389648438,-49.792999267578125 -20.014999389648438,-45.375 C-20.014999389648438,-45.375 -20.014999389648438,45.375 -20.014999389648438,45.375 C-20.014999389648438,49.792999267578125 -16.433000564575195,53.375 -12.015000343322754,53.375 C-12.015000343322754,53.375 12.015000343322754,53.375 12.015000343322754,53.375 C16.433000564575195,53.375 20.014999389648438,49.792999267578125 20.014999389648438,45.375 C20.014999389648438,45.375 20.014999389648438,-45.375 20.014999389648438,-45.375 C20.014999389648438,-49.792999267578125 16.433000564575195,-53.375 12.015000343322754,-53.375z"/></g></g></g><g transform="matrix(1,0,0,1,134.9250030517578,368.4822692871094)" opacity="1" style="display: none;"><g opacity="1" transform="matrix(1,0,0,1,0,0)"><path class="secondary" fill="rgb(255,199,56)" fill-opacity="1" d=" M67.49500274658203,3.0179998874664307 C67.49500274658203,3.0179998874664307 -67.49500274658203,3.0179998874664307 -67.49500274658203,3.0179998874664307 C-78.56800079345703,3.0179998874664307 -80.04499816894531,6.830999851226807 -80.04499816894531,11.534000396728516 C-80.04499816894531,16.23699951171875 -78.56800079345703,20.049999237060547 -67.49500274658203,20.049999237060547 C-67.49500274658203,20.049999237060547 67.49500274658203,20.049999237060547 67.49500274658203,20.049999237060547 C78.56800079345703,20.049999237060547 80.04499816894531,16.23699951171875 80.04499816894531,11.534000396728516 C80.04499816894531,6.830999851226807 78.56800079345703,3.0179998874664307 67.49500274658203,3.0179998874664307z"/></g></g><g transform="matrix(1,0,0,1,74.9050064086914,368.4822692871094)" opacity="0.4" style="mix-blend-mode: multiply; display: none;"><g opacity="1" transform="matrix(1,0,0,1,0,0)"><path class="secondary" fill="rgb(255,199,56)" fill-opacity="1" d=" M20.024999618530273,3.5179998874664307 C20.024999618530273,3.5179998874664307 -4.974999904632568,3.5179998874664307 -4.974999904632568,3.5179998874664307 C-16.04800033569336,3.5179998874664307 -20.024999618530273,7.218999862670898 -20.024999618530273,11.784000396728516 C-20.024999618530273,16.349000930786133 -16.04800033569336,20.049999237060547 -4.974999904632568,20.049999237060547 C-4.974999904632568,20.049999237060547 20.024999618530273,20.049999237060547 20.024999618530273,20.049999237060547 C8.95199966430664,20.049999237060547 -0.02500000037252903,16.349000930786133 -0.02500000037252903,11.784000396728516 C-0.02500000037252903,7.218999862670898 8.95199966430664,3.5179998874664307 20.024999618530273,3.5179998874664307z"/></g></g><g transform="matrix(1,0,0,1,134.9250030517578,368.4822692871094)" opacity="1" style="display: none;"><g opacity="1" transform="matrix(1,0,0,1,0,0)"><path stroke-linecap="round" stroke-linejoin="round" fill-opacity="0" class="primary" stroke="rgb(18,19,49)" stroke-opacity="1" stroke-width="7" d=" M67.49500274658203,3.0179998874664307 C67.49500274658203,3.0179998874664307 -67.49500274658203,3.0179998874664307 -67.49500274658203,3.0179998874664307 C-78.56800079345703,3.0179998874664307 -80.04499816894531,6.830999851226807 -80.04499816894531,11.534000396728516 C-80.04499816894531,16.23699951171875 -78.56800079345703,20.049999237060547 -67.49500274658203,20.049999237060547 C-67.49500274658203,20.049999237060547 67.49500274658203,20.049999237060547 67.49500274658203,20.049999237060547 C78.56800079345703,20.049999237060547 80.04499816894531,16.23699951171875 80.04499816894531,11.534000396728516 C80.04499816894531,6.830999851226807 78.56800079345703,3.0179998874664307 67.49500274658203,3.0179998874664307z"/></g></g><g transform="matrix(1,0,0,1,133.85025024414062,368.1602478027344)" opacity="1" style="display: block;"><g opacity="1" transform="matrix(1,0,0,1,0,0)"><path class="secondary" fill="rgb(255,199,56)" fill-opacity="1" d=" M59.994998931884766,-20.049999237060547 C59.994998931884766,-20.049999237060547 -59.994998931884766,-20.049999237060547 -59.994998931884766,-20.049999237060547 C-71.06800079345703,-20.049999237060547 -80.04499816894531,-11.072999954223633 -80.04499816894531,0 C-80.04499816894531,11.072999954223633 -71.06800079345703,20.049999237060547 -59.994998931884766,20.049999237060547 C-59.994998931884766,20.049999237060547 59.994998931884766,20.049999237060547 59.994998931884766,20.049999237060547 C71.06800079345703,20.049999237060547 80.04499816894531,11.072999954223633 80.04499816894531,0 C80.04499816894531,-11.072999954223633 71.06800079345703,-20.049999237060547 59.994998931884766,-20.049999237060547z"/></g></g><g transform="matrix(1,0,0,1,133.85025024414062,368.1602478027344)" opacity="0.5" style="mix-blend-mode: multiply; display: block;"><g opacity="1" transform="matrix(1,0,0,1,0,0)"><path class="secondary" fill="rgb(255,199,56)" fill-opacity="0" d=" M59.994998931884766,-20.049999237060547 C59.994998931884766,-20.049999237060547 -59.994998931884766,-20.049999237060547 -59.994998931884766,-20.049999237060547 C-71.06800079345703,-20.049999237060547 -80.04499816894531,-11.072999954223633 -80.04499816894531,0 C-80.04499816894531,11.072999954223633 -71.06800079345703,20.049999237060547 -59.994998931884766,20.049999237060547 C-59.994998931884766,20.049999237060547 59.994998931884766,20.049999237060547 59.994998931884766,20.049999237060547 C71.06800079345703,20.049999237060547 80.04499816894531,11.072999954223633 80.04499816894531,0 C80.04499816894531,-11.072999954223633 71.06800079345703,-20.049999237060547 59.994998931884766,-20.049999237060547z"/></g></g><g transform="matrix(1,0,0,1,73.83024597167969,368.1602478027344)" opacity="0.4" style="mix-blend-mode: multiply; display: block;"><g opacity="1" transform="matrix(1,0,0,1,0,0)"><path class="secondary" fill="rgb(255,199,56)" fill-opacity="1" d=" M20.024999618530273,-20.049999237060547 C20.024999618530273,-20.049999237060547 0.02500000037252903,-20.049999237060547 0.02500000037252903,-20.049999237060547 C-11.04800033569336,-20.049999237060547 -20.024999618530273,-11.072999954223633 -20.024999618530273,0 C-20.024999618530273,11.072999954223633 -11.04800033569336,20.049999237060547 0.02500000037252903,20.049999237060547 C0.02500000037252903,20.049999237060547 20.024999618530273,20.049999237060547 20.024999618530273,20.049999237060547 C8.95199966430664,20.049999237060547 -0.02500000037252903,11.072999954223633 -0.02500000037252903,0 C-0.02500000037252903,-11.072999954223633 8.95199966430664,-20.049999237060547 20.024999618530273,-20.049999237060547z"/></g></g><g transform="matrix(1,0,0,1,148.29949951171875,329.0472412109375)" opacity="1" style="display: block;"><g opacity="1" transform="matrix(1,0,0,1,0,0)"><path class="secondary" fill="rgb(255,199,56)" fill-opacity="1" d=" M59.994998931884766,-20.049999237060547 C59.994998931884766,-20.049999237060547 -59.994998931884766,-20.049999237060547 -59.994998931884766,-20.049999237060547 C-71.06800079345703,-20.049999237060547 -80.04499816894531,-11.072999954223633 -80.04499816894531,0 C-80.04499816894531,11.072999954223633 -71.06800079345703,20.049999237060547 -59.994998931884766,20.049999237060547 C-59.994998931884766,20.049999237060547 59.994998931884766,20.049999237060547 59.994998931884766,20.049999237060547 C71.06800079345703,20.049999237060547 80.04499816894531,11.072999954223633 80.04499816894531,0 C80.04499816894531,-11.072999954223633 71.06800079345703,-20.049999237060547 59.994998931884766,-20.049999237060547z"/><path class="secondary" fill="rgb(255,199,56)" fill-opacity="0.5" d=" M59.994998931884766,-20.049999237060547 C59.994998931884766,-20.049999237060547 -59.994998931884766,-20.049999237060547 -59.994998931884766,-20.049999237060547 C-71.06800079345703,-20.049999237060547 -80.04499816894531,-11.072999954223633 -80.04499816894531,0 C-80.04499816894531,11.072999954223633 -71.06800079345703,20.049999237060547 -59.994998931884766,20.049999237060547 C-59.994998931884766,20.049999237060547 59.994998931884766,20.049999237060547 59.994998931884766,20.049999237060547 C71.06800079345703,20.049999237060547 80.04499816894531,11.072999954223633 80.04499816894531,0 C80.04499816894531,-11.072999954223633 71.06800079345703,-20.049999237060547 59.994998931884766,-20.049999237060547z" style="mix-blend-mode: multiply;"/></g></g><g transform="matrix(1,0,0,1,88.27949523925781,329.0472412109375)" opacity="0.5" style="mix-blend-mode: multiply; display: block;"><g opacity="1" transform="matrix(1,0,0,1,0,0)"><path class="secondary" fill="rgb(255,199,56)" fill-opacity="1" d=" M20.024999618530273,-20.049999237060547 C20.024999618530273,-20.049999237060547 0.02500000037252903,-20.049999237060547 0.02500000037252903,-20.049999237060547 C-11.04800033569336,-20.049999237060547 -20.024999618530273,-11.072999954223633 -20.024999618530273,0 C-20.024999618530273,11.072999954223633 -11.04800033569336,20.049999237060547 0.02500000037252903,20.049999237060547 C0.02500000037252903,20.049999237060547 20.024999618530273,20.049999237060547 20.024999618530273,20.049999237060547 C8.95199966430664,20.049999237060547 -0.02500000037252903,11.072999954223633 -0.02500000037252903,0 C-0.02500000037252903,-11.072999954223633 8.95199966430664,-20.049999237060547 20.024999618530273,-20.049999237060547z"/></g></g><g transform="matrix(1,0,0,1,148.29949951171875,329.0472412109375)" opacity="1" style="display: block;"><g opacity="1" transform="matrix(1,0,0,1,0,0)"><path stroke-linecap="round" stroke-linejoin="round" fill-opacity="0" class="primary" stroke="rgb(18,19,49)" stroke-opacity="1" stroke-width="7" d=" M59.994998931884766,-20.049999237060547 C59.994998931884766,-20.049999237060547 -59.994998931884766,-20.049999237060547 -59.994998931884766,-20.049999237060547 C-71.06800079345703,-20.049999237060547 -80.04499816894531,-11.072999954223633 -80.04499816894531,0 C-80.04499816894531,11.072999954223633 -71.06800079345703,20.049999237060547 -59.994998931884766,20.049999237060547 C-59.994998931884766,20.049999237060547 59.994998931884766,20.049999237060547 59.994998931884766,20.049999237060547 C71.06800079345703,20.049999237060547 80.04499816894531,11.072999954223633 80.04499816894531,0 C80.04499816894531,-11.072999954223633 71.06800079345703,-20.049999237060547 59.994998931884766,-20.049999237060547z"/><path stroke-linecap="round" stroke-linejoin="round" fill-opacity="0" class="primary" stroke="rgb(18,19,49)" stroke-opacity="1" stroke-width="7" d=" M59.994998931884766,-20.049999237060547 C59.994998931884766,-20.049999237060547 -59.994998931884766,-20.049999237060547 -59.994998931884766,-20.049999237060547 C-71.06800079345703,-20.049999237060547 -80.04499816894531,-11.072999954223633 -80.04499816894531,0 C-80.04499816894531,11.072999954223633 -71.06800079345703,20.049999237060547 -59.994998931884766,20.049999237060547 C-59.994998931884766,20.049999237060547 59.994998931884766,20.049999237060547 59.994998931884766,20.049999237060547 C71.06800079345703,20.049999237060547 80.04499816894531,11.072999954223633 80.04499816894531,0 C80.04499816894531,-11.072999954223633 71.06800079345703,-20.049999237060547 59.994998931884766,-20.049999237060547z"/></g></g><g transform="matrix(0.9970970153808594,0.07614195346832275,-0.07614195346832275,0.9970970153808594,173.1262969970703,234.66517639160156)" opacity="1" style="display: block;"><g opacity="1" transform="matrix(1,0,0,1,0,0)"><path class="secondary" fill="rgb(255,199,56)" fill-opacity="1" d=" M59.994998931884766,-20.049999237060547 C59.994998931884766,-20.049999237060547 -59.994998931884766,-20.049999237060547 -59.994998931884766,-20.049999237060547 C-71.06800079345703,-20.049999237060547 -80.04499816894531,-11.072999954223633 -80.04499816894531,0 C-80.04499816894531,11.072999954223633 -71.06800079345703,20.049999237060547 -59.994998931884766,20.049999237060547 C-59.994998931884766,20.049999237060547 59.994998931884766,20.049999237060547 59.994998931884766,20.049999237060547 C71.06800079345703,20.049999237060547 80.04499816894531,11.072999954223633 80.04499816894531,0 C80.04499816894531,-11.072999954223633 71.06800079345703,-20.049999237060547 59.994998931884766,-20.049999237060547z"/><path class="secondary" fill="rgb(255,199,56)" fill-opacity="0" d=" M59.994998931884766,-20.049999237060547 C59.994998931884766,-20.049999237060547 -59.994998931884766,-20.049999237060547 -59.994998931884766,-20.049999237060547 C-71.06800079345703,-20.049999237060547 -80.04499816894531,-11.072999954223633 -80.04499816894531,0 C-80.04499816894531,11.072999954223633 -71.06800079345703,20.049999237060547 -59.994998931884766,20.049999237060547 C-59.994998931884766,20.049999237060547 59.994998931884766,20.049999237060547 59.994998931884766,20.049999237060547 C71.06800079345703,20.049999237060547 80.04499816894531,11.072999954223633 80.04499816894531,0 C80.04499816894531,-11.072999954223633 71.06800079345703,-20.049999237060547 59.994998931884766,-20.049999237060547z" style="mix-blend-mode: multiply;"/></g></g><g transform="matrix(0.9970970153808594,0.07614195346832275,-0.07614195346832275,0.9970970153808594,113.28053283691406,230.0951385498047)" opacity="0.5" style="mix-blend-mode: multiply; display: block;"><g opacity="1" transform="matrix(1,0,0,1,0,0)"><path class="secondary" fill="rgb(255,199,56)" fill-opacity="1" d=" M20.024999618530273,-20.049999237060547 C20.024999618530273,-20.049999237060547 0.02500000037252903,-20.049999237060547 0.02500000037252903,-20.049999237060547 C-11.04800033569336,-20.049999237060547 -20.024999618530273,-11.072999954223633 -20.024999618530273,0 C-20.024999618530273,11.072999954223633 -11.04800033569336,20.049999237060547 0.02500000037252903,20.049999237060547 C0.02500000037252903,20.049999237060547 20.024999618530273,20.049999237060547 20.024999618530273,20.049999237060547 C8.95199966430664,20.049999237060547 -0.02500000037252903,11.072999954223633 -0.02500000037252903,0 C-0.02500000037252903,-11.072999954223633 8.95199966430664,-20.049999237060547 20.024999618530273,-20.049999237060547z"/></g></g><g transform="matrix(1,0,0,1,133.85025024414062,368.1602478027344)" opacity="1" style="display: block;"><g opacity="1" transform="matrix(1,0,0,1,0,0)"><path stroke-linecap="round" stroke-linejoin="round" fill-opacity="0" class="primary" stroke="rgb(18,19,49)" stroke-opacity="1" stroke-width="7" d=" M59.994998931884766,-20.049999237060547 C59.994998931884766,-20.049999237060547 -59.994998931884766,-20.049999237060547 -59.994998931884766,-20.049999237060547 C-71.06800079345703,-20.049999237060547 -80.04499816894531,-11.072999954223633 -80.04499816894531,0 C-80.04499816894531,11.072999954223633 -71.06800079345703,20.049999237060547 -59.994998931884766,20.049999237060547 C-59.994998931884766,20.049999237060547 59.994998931884766,20.049999237060547 59.994998931884766,20.049999237060547 C71.06800079345703,20.049999237060547 80.04499816894531,11.072999954223633 80.04499816894531,0 C80.04499816894531,-11.072999954223633 71.06800079345703,-20.049999237060547 59.994998931884766,-20.049999237060547z"/></g></g><g transform="matrix(0.9970970153808594,0.07614195346832275,-0.07614195346832275,0.9970970153808594,173.1262969970703,234.66517639160156)" opacity="1" style="display: block;"><g opacity="1" transform="matrix(1,0,0,1,0,0)"><path stroke-linecap="round" stroke-linejoin="round" fill-opacity="0" class="primary" stroke="rgb(18,19,49)" stroke-opacity="1" stroke-width="7" d=" M59.994998931884766,-20.049999237060547 C59.994998931884766,-20.049999237060547 -59.994998931884766,-20.049999237060547 -59.994998931884766,-20.049999237060547 C-71.06800079345703,-20.049999237060547 -80.04499816894531,-11.072999954223633 -80.04499816894531,0 C-80.04499816894531,11.072999954223633 -71.06800079345703,20.049999237060547 -59.994998931884766,20.049999237060547 C-59.994998931884766,20.049999237060547 59.994998931884766,20.049999237060547 59.994998931884766,20.049999237060547 C71.06800079345703,20.049999237060547 80.04499816894531,11.072999954223633 80.04499816894531,0 C80.04499816894531,-11.072999954223633 71.06800079345703,-20.049999237060547 59.994998931884766,-20.049999237060547z"/><path stroke-linecap="round" stroke-linejoin="round" fill-opacity="0" class="primary" stroke="rgb(18,19,49)" stroke-opacity="1" stroke-width="7" d=" M59.994998931884766,-20.049999237060547 C59.994998931884766,-20.049999237060547 -59.994998931884766,-20.049999237060547 -59.994998931884766,-20.049999237060547 C-71.06800079345703,-20.049999237060547 -80.04499816894531,-11.072999954223633 -80.04499816894531,0 C-80.04499816894531,11.072999954223633 -71.06800079345703,20.049999237060547 -59.994998931884766,20.049999237060547 C-59.994998931884766,20.049999237060547 59.994998931884766,20.049999237060547 59.994998931884766,20.049999237060547 C71.06800079345703,20.049999237060547 80.04499816894531,11.072999954223633 80.04499816894531,0 C80.04499816894531,-11.072999954223633 71.06800079345703,-20.049999237060547 59.994998931884766,-20.049999237060547z"/></g></g></g></g></svg>