<svg xmlns="http://www.w3.org/2000/svg" xmlns:xlink="http://www.w3.org/1999/xlink" viewBox="0 0 430 430" width="430" height="430" preserveAspectRatio="xMidYMid meet" style="width: 100%; height: 100%; transform: translate3d(0px, 0px, 0px); content-visibility: visible;"><defs><clipPath id="__lottie_element_165"><rect width="430" height="430" x="0" y="0"/></clipPath><clipPath id="__lottie_element_167"><path d="M0,0 L430,0 L430,430 L0,430z"/></clipPath></defs><g clip-path="url(#__lottie_element_165)"><g clip-path="url(#__lottie_element_167)" transform="matrix(1,0,0,1,0,0)" opacity="1" style="display: block;"><g transform="matrix(1,0,0,1,-35,-35)" opacity="1" style="display: block;"><g opacity="1" transform="matrix(1,0,0,1,250,165.1999969482422)"><path class="secondary" fill="rgb(58,51,71)" fill-opacity="1" d=" M145.23599243164062,48.167999267578125 C145.23599243164062,48.167999267578125 -145.23599243164062,48.167999267578125 -145.23599243164062,48.167999267578125 C-153.45599365234375,48.167999267578125 -160.11900329589844,41.505001068115234 -160.11900329589844,33.28499984741211 C-160.11900329589844,33.28499984741211 -160.11900329589844,-33.28499984741211 -160.11900329589844,-33.28499984741211 C-160.11900329589844,-41.505001068115234 -153.45599365234375,-48.167999267578125 -145.23599243164062,-48.167999267578125 C-145.23599243164062,-48.167999267578125 145.23599243164062,-48.167999267578125 145.23599243164062,-48.167999267578125 C153.45599365234375,-48.167999267578125 160.11900329589844,-41.505001068115234 160.11900329589844,-33.28499984741211 C160.11900329589844,-33.28499984741211 160.11900329589844,33.28499984741211 160.11900329589844,33.28499984741211 C160.11900329589844,41.505001068115234 153.45599365234375,48.167999267578125 145.23599243164062,48.167999267578125z"/></g><g opacity="1" transform="matrix(1,0,0,1,139.17300415039062,165.1999969482422)"><path class="tertiary" fill="rgb(255,199,56)" fill-opacity="1" d=" M-17.461000442504883,0 C-17.461000442504883,9.642999649047852 -9.642999649047852,17.461000442504883 0,17.461000442504883 C9.642999649047852,17.461000442504883 17.461000442504883,9.642999649047852 17.461000442504883,0 C17.461000442504883,-9.642999649047852 9.642999649047852,-17.461000442504883 0,-17.461000442504883 C-9.642999649047852,-17.461000442504883 -17.461000442504883,-9.642999649047852 -17.461000442504883,0z"/></g><g opacity="0.5" transform="matrix(1,0,0,1,103.99400329589844,165.1999969482422)" style="mix-blend-mode: multiply;"><path class="secondary" fill="rgb(58,51,71)" fill-opacity="1" d=" M-0.7699999809265137,33.28499984741211 C-0.7699999809265137,33.28499984741211 -0.7699999809265137,-33.28499984741211 -0.7699999809265137,-33.28499984741211 C-0.7699999809265137,-41.505001068115234 5.894000053405762,-48.167999267578125 14.11299991607666,-48.167999267578125 C14.11299991607666,-48.167999267578125 0.7699999809265137,-48.167999267578125 0.7699999809265137,-48.167999267578125 C-7.448999881744385,-48.167999267578125 -14.11299991607666,-41.505001068115234 -14.11299991607666,-33.28499984741211 C-14.11299991607666,-33.28499984741211 -14.11299991607666,33.28499984741211 -14.11299991607666,33.28499984741211 C-14.11299991607666,41.505001068115234 -7.448999881744385,48.167999267578125 0.7699999809265137,48.167999267578125 C0.7699999809265137,48.167999267578125 14.11299991607666,48.167999267578125 14.11299991607666,48.167999267578125 C5.894000053405762,48.167999267578125 -0.7699999809265137,41.505001068115234 -0.7699999809265137,33.28499984741211z"/></g></g><g transform="matrix(1,0,0,1,-209.50003051757812,-34.499969482421875)" opacity="1" style="display: block;"><g opacity="1" transform="matrix(1,0,0,1,337.37701416015625,352.13299560546875)"><path class="secondary" fill="rgb(58,51,71)" fill-opacity="1" d=" M44.51599884033203,30.834999084472656 C44.51599884033203,30.834999084472656 -44.51599884033203,30.834999084472656 -44.51599884033203,30.834999084472656 C-52.736000061035156,30.834999084472656 -59.39899826049805,24.172000885009766 -59.39899826049805,15.95199966430664 C-59.39899826049805,15.95199966430664 -59.39899826049805,-15.95199966430664 -59.39899826049805,-15.95199966430664 C-59.39899826049805,-24.172000885009766 -52.736000061035156,-30.834999084472656 -44.51599884033203,-30.834999084472656 C-44.51599884033203,-30.834999084472656 44.51599884033203,-30.834999084472656 44.51599884033203,-30.834999084472656 C52.736000061035156,-30.834999084472656 59.39899826049805,-24.172000885009766 59.39899826049805,-15.95199966430664 C59.39899826049805,-15.95199966430664 59.39899826049805,15.95199966430664 59.39899826049805,15.95199966430664 C59.39899826049805,24.172000885009766 52.736000061035156,30.834999084472656 44.51599884033203,30.834999084472656z"/></g><g opacity="0.5" transform="matrix(1,0,0,1,292.09100341796875,352.13299560546875)" style="mix-blend-mode: multiply;"><path class="secondary" fill="rgb(58,51,71)" fill-opacity="1" d=" M-0.7699999809265137,15.95199966430664 C-0.7699999809265137,15.95199966430664 -0.7699999809265137,-15.95199966430664 -0.7699999809265137,-15.95199966430664 C-0.7699999809265137,-24.172000885009766 5.894000053405762,-30.833999633789062 14.11299991607666,-30.833999633789062 C14.11299991607666,-30.833999633789062 0.7699999809265137,-30.833999633789062 0.7699999809265137,-30.833999633789062 C-7.449999809265137,-30.833999633789062 -14.11299991607666,-24.172000885009766 -14.11299991607666,-15.95199966430664 C-14.11299991607666,-15.95199966430664 -14.11299991607666,15.95199966430664 -14.11299991607666,15.95199966430664 C-14.11299991607666,24.17099952697754 -7.449999809265137,30.833999633789062 0.7699999809265137,30.833999633789062 C0.7699999809265137,30.833999633789062 14.11299991607666,30.833999633789062 14.11299991607666,30.833999633789062 C5.894000053405762,30.833999633789062 -0.7699999809265137,24.17099952697754 -0.7699999809265137,15.95199966430664z"/></g></g><g transform="matrix(1,0,0,1,127.86599731445312,317.2560119628906)" opacity="1" style="display: block;"><g opacity="1" transform="matrix(1,0,0,1,0,0)"><path stroke-linecap="round" stroke-linejoin="round" fill-opacity="0" class="primary" stroke="rgb(18,19,49)" stroke-opacity="1" stroke-width="7" d=" M44.75899887084961,30.834999084472656 C44.75899887084961,30.834999084472656 -44.75899887084961,30.834999084472656 -44.75899887084961,30.834999084472656 C-52.979000091552734,30.834999084472656 -59.641998291015625,24.172000885009766 -59.641998291015625,15.95199966430664 C-59.641998291015625,15.95199966430664 -59.641998291015625,-15.95199966430664 -59.641998291015625,-15.95199966430664 C-59.641998291015625,-24.172000885009766 -52.979000091552734,-30.834999084472656 -44.75899887084961,-30.834999084472656 C-44.75899887084961,-30.834999084472656 44.75899887084961,-30.834999084472656 44.75899887084961,-30.834999084472656 C52.979000091552734,-30.834999084472656 59.641998291015625,-24.172000885009766 59.641998291015625,-15.95199966430664 C59.641998291015625,-15.95199966430664 59.641998291015625,15.95199966430664 59.641998291015625,15.95199966430664 C59.641998291015625,24.172000885009766 52.979000091552734,30.834999084472656 44.75899887084961,30.834999084472656z"/></g></g><g transform="matrix(1,0,0,1,-35,-34.999969482421875)" opacity="1" style="display: block;"><g opacity="1" transform="matrix(1,0,0,1,337.37701416015625,352.13299560546875)"><path class="secondary" fill="rgb(58,51,71)" fill-opacity="1" d=" M44.51599884033203,30.834999084472656 C44.51599884033203,30.834999084472656 -44.51599884033203,30.834999084472656 -44.51599884033203,30.834999084472656 C-52.736000061035156,30.834999084472656 -59.39899826049805,24.172000885009766 -59.39899826049805,15.95199966430664 C-59.39899826049805,15.95199966430664 -59.39899826049805,-15.95199966430664 -59.39899826049805,-15.95199966430664 C-59.39899826049805,-24.172000885009766 -52.736000061035156,-30.834999084472656 -44.51599884033203,-30.834999084472656 C-44.51599884033203,-30.834999084472656 44.51599884033203,-30.834999084472656 44.51599884033203,-30.834999084472656 C52.736000061035156,-30.834999084472656 59.39899826049805,-24.172000885009766 59.39899826049805,-15.95199966430664 C59.39899826049805,-15.95199966430664 59.39899826049805,15.95199966430664 59.39899826049805,15.95199966430664 C59.39899826049805,24.172000885009766 52.736000061035156,30.834999084472656 44.51599884033203,30.834999084472656z"/></g><g opacity="0.5" transform="matrix(1,0,0,1,292.09100341796875,352.13299560546875)" style="mix-blend-mode: multiply;"><path class="secondary" fill="rgb(58,51,71)" fill-opacity="1" d=" M-0.7699999809265137,15.95199966430664 C-0.7699999809265137,15.95199966430664 -0.7699999809265137,-15.95199966430664 -0.7699999809265137,-15.95199966430664 C-0.7699999809265137,-24.172000885009766 5.894000053405762,-30.833999633789062 14.11299991607666,-30.833999633789062 C14.11299991607666,-30.833999633789062 0.7699999809265137,-30.833999633789062 0.7699999809265137,-30.833999633789062 C-7.449999809265137,-30.833999633789062 -14.11299991607666,-24.172000885009766 -14.11299991607666,-15.95199966430664 C-14.11299991607666,-15.95199966430664 -14.11299991607666,15.95199966430664 -14.11299991607666,15.95199966430664 C-14.11299991607666,24.17099952697754 -7.449999809265137,30.833999633789062 0.7699999809265137,30.833999633789062 C0.7699999809265137,30.833999633789062 14.11299991607666,30.833999633789062 14.11299991607666,30.833999633789062 C5.894000053405762,30.833999633789062 -0.7699999809265137,24.17099952697754 -0.7699999809265137,15.95199966430664z"/></g></g><g transform="matrix(1,0,0,1,302.37701416015625,317.2560119628906)" opacity="1" style="display: block;"><g opacity="1" transform="matrix(1,0,0,1,0,0)"><path stroke-linecap="round" stroke-linejoin="round" fill-opacity="0" class="primary" stroke="rgb(18,19,49)" stroke-opacity="1" stroke-width="7" d=" M44.51599884033203,30.834999084472656 C44.51599884033203,30.834999084472656 -44.51599884033203,30.834999084472656 -44.51599884033203,30.834999084472656 C-52.736000061035156,30.834999084472656 -59.39899826049805,24.172000885009766 -59.39899826049805,15.95199966430664 C-59.39899826049805,15.95199966430664 -59.39899826049805,-15.95199966430664 -59.39899826049805,-15.95199966430664 C-59.39899826049805,-24.172000885009766 -52.736000061035156,-30.834999084472656 -44.51599884033203,-30.834999084472656 C-44.51599884033203,-30.834999084472656 44.51599884033203,-30.834999084472656 44.51599884033203,-30.834999084472656 C52.736000061035156,-30.834999084472656 59.39899826049805,-24.172000885009766 59.39899826049805,-15.95199966430664 C59.39899826049805,-15.95199966430664 59.39899826049805,15.95199966430664 59.39899826049805,15.95199966430664 C59.39899826049805,24.172000885009766 52.736000061035156,30.834999084472656 44.51599884033203,30.834999084472656z"/></g></g><g transform="matrix(1,0,0,1,-35,-35)" opacity="1" style="display: block;"><g opacity="1" transform="matrix(1,0,0,1,250,165.322998046875)"><path stroke-linecap="round" stroke-linejoin="round" fill-opacity="0" class="primary" stroke="rgb(18,19,49)" stroke-opacity="1" stroke-width="7" d=" M145.23599243164062,48.167999267578125 C145.23599243164062,48.167999267578125 -145.23599243164062,48.167999267578125 -145.23599243164062,48.167999267578125 C-153.45599365234375,48.167999267578125 -160.11900329589844,41.505001068115234 -160.11900329589844,33.28499984741211 C-160.11900329589844,33.28499984741211 -160.11900329589844,-33.28499984741211 -160.11900329589844,-33.28499984741211 C-160.11900329589844,-41.505001068115234 -153.45599365234375,-48.167999267578125 -145.23599243164062,-48.167999267578125 C-145.23599243164062,-48.167999267578125 145.23599243164062,-48.167999267578125 145.23599243164062,-48.167999267578125 C153.45599365234375,-48.167999267578125 160.11900329589844,-41.505001068115234 160.11900329589844,-33.28499984741211 C160.11900329589844,-33.28499984741211 160.11900329589844,33.28499984741211 160.11900329589844,33.28499984741211 C160.11900329589844,41.505001068115234 153.45599365234375,48.167999267578125 145.23599243164062,48.167999267578125z"/></g><g opacity="1" transform="matrix(1,0,0,1,139.17300415039062,165.322998046875)"><path stroke-linecap="round" stroke-linejoin="round" fill-opacity="0" class="primary" stroke="rgb(18,19,49)" stroke-opacity="1" stroke-width="7" d=" M-17.461000442504883,0 C-17.461000442504883,9.642999649047852 -9.642999649047852,17.461000442504883 0,17.461000442504883 C9.642999649047852,17.461000442504883 17.461000442504883,9.642999649047852 17.461000442504883,0 C17.461000442504883,-9.642999649047852 9.642999649047852,-17.461000442504883 0,-17.461000442504883 C-9.642999649047852,-17.461000442504883 -17.461000442504883,-9.642999649047852 -17.461000442504883,0z"/></g></g><g transform="matrix(1,0,0,1,164.34800720214844,234.343994140625)" opacity="1" style="display: block;"><g opacity="1" transform="matrix(1,0,0,1,0,0)"><path stroke-linecap="round" stroke-linejoin="round" fill-opacity="0" class="primary" stroke="rgb(18,19,49)" stroke-opacity="1" stroke-width="7" d="M0 0"/></g><g opacity="1" transform="matrix(1,0,0,1,0,0)"><path stroke-linecap="round" stroke-linejoin="round" fill-opacity="0" class="primary" stroke="rgb(18,19,49)" stroke-opacity="1" stroke-width="7" d=" M115.822998046875,26.815000534057617 C115.822998046875,26.815000534057617 87.45600128173828,-26.558000564575195 87.45600128173828,-26.558000564575195 M14.182999610900879,-26.687000274658203 C14.182999610900879,-26.687000274658203 -14.182999610900879,26.687000274658203 -14.182999610900879,26.687000274658203"/></g></g><g transform="matrix(1,0,0,1,-35,-35)" opacity="1" style="display: block;"><g opacity="0" transform="matrix(1,0,0,1,238.60400390625,151.07400512695312)"><path stroke-linecap="round" stroke-linejoin="round" fill-opacity="0" class="tertiary" stroke-dasharray=" 0.25 25" stroke-dashoffset="0" stroke="rgb(255,199,56)" stroke-opacity="1" stroke-width="12" d=" M-0.08399999886751175,0 C-0.08399999886751175,0 0.08399999886751175,0 0.08399999886751175,0"/></g><g opacity="1" transform="matrix(1,0,0,1,265.88299560546875,151.07400512695312)"><path stroke-linecap="round" stroke-linejoin="round" fill-opacity="0" class="tertiary" stroke-dasharray=" 0.25 25" stroke-dashoffset="0" stroke="rgb(255,199,56)" stroke-opacity="1" stroke-width="12" d=" M-0.08399999886751175,0 C-0.08399999886751175,0 0.08399999886751175,0 0.08399999886751175,0"/></g><g opacity="1" transform="matrix(1,0,0,1,293.1610107421875,151.07400512695312)"><path stroke-linecap="round" stroke-linejoin="round" fill-opacity="0" class="tertiary" stroke-dasharray=" 0.25 25" stroke-dashoffset="0" stroke="rgb(255,199,56)" stroke-opacity="1" stroke-width="12" d=" M-0.08399999886751175,0 C-0.08399999886751175,0 0.08399999886751175,0 0.08399999886751175,0"/></g><g opacity="0" transform="matrix(1,0,0,1,320.44000244140625,151.07400512695312)"><path stroke-linecap="round" stroke-linejoin="round" fill-opacity="0" class="tertiary" stroke-dasharray=" 0.25 25" stroke-dashoffset="0" stroke="rgb(255,199,56)" stroke-opacity="1" stroke-width="12" d=" M-0.08399999886751175,0 C-0.08399999886751175,0 0.08399999886751175,0 0.08399999886751175,0"/></g><g opacity="1" transform="matrix(1,0,0,1,347.718994140625,151.07400512695312)"><path stroke-linecap="round" stroke-linejoin="round" fill-opacity="0" class="tertiary" stroke-dasharray=" 0.25 25" stroke-dashoffset="0" stroke="rgb(255,199,56)" stroke-opacity="1" stroke-width="12" d=" M-0.08399999886751175,0 C-0.08399999886751175,0 0.08399999886751175,0 0.08399999886751175,0"/></g><g opacity="1" transform="matrix(1,0,0,1,374.99798583984375,151.07400512695312)"><path stroke-linecap="round" stroke-linejoin="round" fill-opacity="0" class="tertiary" stroke-dasharray=" 0.25 25" stroke-dashoffset="0" stroke="rgb(255,199,56)" stroke-opacity="1" stroke-width="12" d=" M-0.08399999886751175,0 C-0.08399999886751175,0 0.08399999886751175,0 0.08399999886751175,0"/></g><g opacity="1" transform="matrix(1,0,0,1,238.60400390625,179.6739959716797)"><path stroke-linecap="round" stroke-linejoin="round" fill-opacity="0" class="tertiary" stroke-dasharray=" 0.25 25" stroke-dashoffset="0" stroke="rgb(255,199,56)" stroke-opacity="1" stroke-width="12" d=" M-0.08399999886751175,0 C-0.08399999886751175,0 0.08399999886751175,0 0.08399999886751175,0"/></g><g opacity="1" transform="matrix(1,0,0,1,265.88299560546875,179.6739959716797)"><path stroke-linecap="round" stroke-linejoin="round" fill-opacity="0" class="tertiary" stroke-dasharray=" 0.25 25" stroke-dashoffset="0" stroke="rgb(255,199,56)" stroke-opacity="1" stroke-width="12" d=" M-0.08399999886751175,0 C-0.08399999886751175,0 0.08399999886751175,0 0.08399999886751175,0"/></g><g opacity="1" transform="matrix(1,0,0,1,293.1610107421875,179.6739959716797)"><path stroke-linecap="round" stroke-linejoin="round" fill-opacity="0" class="tertiary" stroke-dasharray=" 0.25 25" stroke-dashoffset="0" stroke="rgb(255,199,56)" stroke-opacity="1" stroke-width="12" d=" M-0.08399999886751175,0 C-0.08399999886751175,0 0.08399999886751175,0 0.08399999886751175,0"/></g><g opacity="1" transform="matrix(1,0,0,1,320.44000244140625,179.6739959716797)"><path stroke-linecap="round" stroke-linejoin="round" fill-opacity="0" class="tertiary" stroke-dasharray=" 0.25 25" stroke-dashoffset="0" stroke="rgb(255,199,56)" stroke-opacity="1" stroke-width="12" d=" M-0.08399999886751175,0 C-0.08399999886751175,0 0.08399999886751175,0 0.08399999886751175,0"/></g><g opacity="1" transform="matrix(1,0,0,1,347.718994140625,179.6739959716797)"><path stroke-linecap="round" stroke-linejoin="round" fill-opacity="0" class="tertiary" stroke-dasharray=" 0.25 25" stroke-dashoffset="0" stroke="rgb(255,199,56)" stroke-opacity="1" stroke-width="12" d=" M-0.08399999886751175,0 C-0.08399999886751175,0 0.08399999886751175,0 0.08399999886751175,0"/></g><g opacity="1" transform="matrix(1,0,0,1,374.99798583984375,179.6739959716797)"><path stroke-linecap="round" stroke-linejoin="round" fill-opacity="0" class="tertiary" stroke-dasharray=" 0.25 25" stroke-dashoffset="0" stroke="rgb(255,199,56)" stroke-opacity="1" stroke-width="12" d=" M-0.08399999886751175,0 C-0.08399999886751175,0 0.08399999886751175,0 0.08399999886751175,0"/></g></g></g></g></svg>