<svg xmlns="http://www.w3.org/2000/svg" xmlns:xlink="http://www.w3.org/1999/xlink" viewBox="0 0 430 430" width="430" height="430" preserveAspectRatio="xMidYMid meet" style="width: 100%; height: 100%; transform: translate3d(0px, 0px, 0px); content-visibility: visible;"><defs><clipPath id="__lottie_element_2843"><rect width="430" height="430" x="0" y="0"/></clipPath><clipPath id="__lottie_element_2845"><path d="M0,0 L430,0 L430,430 L0,430z"/></clipPath><clipPath id="__lottie_element_2853"><path d="M0,0 L430,0 L430,430 L0,430z"/></clipPath><g id="__lottie_element_2856"><g transform="matrix(1,0,0,1,-36,-35)" opacity="1" style="display: block;"><g opacity="1" transform="matrix(1,0,0,1,250,249.75999450683594)"><path fill="rgb(255,0,0)" fill-opacity="1" d=" M26.690000534057617,-186.57000732421875 C26.690000534057617,-186.57000732421875 26.75,-186.57000732421875 26.75,-186.57000732421875 C26.75,-186.57000732421875 26.75,-79.76000213623047 26.75,-79.76000213623047 C26.75,-79.76000213623047 133.42999267578125,-79.76000213623047 133.42999267578125,-79.76000213623047 C133.42999267578125,-79.76000213623047 133.42999267578125,-79.81999969482422 133.42999267578125,-79.81999969482422 C133.42999267578125,-79.81999969482422 26.690000534057617,-186.57000732421875 26.690000534057617,-186.57000732421875z"/></g></g></g><filter id="__lottie_element_2868" filterUnits="objectBoundingBox" x="0%" y="0%" width="100%" height="100%"><feComponentTransfer in="SourceGraphic"><feFuncA type="table" tableValues="1.0 0.0"/></feComponentTransfer></filter><mask id="__lottie_element_2856_2" mask-type="alpha" maskUnits="userSpaceOnUse"><g filter="url(#__lottie_element_2868)"><rect width="430" height="430" x="0" y="0" fill="#ffffff" opacity="0"/><use xmlns:ns1="http://www.w3.org/1999/xlink" ns1:href="#__lottie_element_2856"/></g></mask><g id="__lottie_element_2878"><g transform="matrix(0.9399999976158142,0,0,0.9200000166893005,212.7659149169922,197.549072265625)" opacity="1" style="display: block;"><g opacity="1" transform="matrix(1,0,0,1,0,0)"><path fill="rgb(255,199,56)" fill-opacity="1" d=" M45.893001556396484,10.920000076293945 C47.02899932861328,10.852999687194824 107.5479965209961,6.53000020980835 98.97799682617188,7.033999919891357 C98.97799682617188,7.033999919891357 143.77699279785156,-99.9729995727539 143.77699279785156,-99.9729995727539 C142.24600219726562,-99.88300323486328 140.8939971923828,-100.96199798583984 140.64199829101562,-102.4749984741211 C140.64199829101562,-102.4749984741211 -35.88600158691406,-66.3759994506836 -35.88600158691406,-66.3759994506836 C-36.191001892089844,-68.20500183105469 -32.26599884033203,-29.92300033569336 -32.26599884033203,-29.92300033569336 C-32.26599884033203,-29.92300033569336 -26.982999801635742,1.7769999504089355 -26.982999801635742,1.7769999504089355 C-25.722000122070312,9.34000015258789 -18.959999084472656,14.734999656677246 -11.305999755859375,14.28499984741211 C-11.305999755859375,14.28499984741211 45.893001556396484,10.920000076293945 45.893001556396484,10.920000076293945z"/></g></g></g><filter id="__lottie_element_2899" filterUnits="objectBoundingBox" x="0%" y="0%" width="100%" height="100%"><feComponentTransfer in="SourceGraphic"><feFuncA type="table" tableValues="1.0 0.0"/></feComponentTransfer></filter><mask id="__lottie_element_2878_2" mask-type="alpha" maskUnits="userSpaceOnUse"><g filter="url(#__lottie_element_2899)"><rect width="430" height="430" x="0" y="0" fill="#ffffff" opacity="0"/><use xmlns:ns2="http://www.w3.org/1999/xlink" ns2:href="#__lottie_element_2878"/></g></mask></defs><g clip-path="url(#__lottie_element_2843)"><g clip-path="url(#__lottie_element_2845)" transform="matrix(1,0,0,1,0,0)" opacity="1" style="display: block;"><g transform="matrix(1,0,0,1,-35,-35)" opacity="1" style="display: block;"><path stroke-linecap="round" stroke-linejoin="round" fill-opacity="0" class="quaternary" stroke="rgb(235,230,239)" stroke-opacity="1" stroke-width="10.5" d=" M276.69,63.19 C276.69,63.19 116.57,63.19 116.57,63.19 C116.57,63.19 116.57,436.33 116.57,436.33 C116.57,436.33 383.43,436.33 383.43,436.33 C383.43,436.33 383.43,169.94 383.43,169.94 C383.43,169.94 276.69,63.19 276.69,63.19z M276.69,63.19 C276.69,63.19 276.69,169.94 276.69,169.94 C276.69,169.94 383.43,169.94 383.43,169.94"/><path class="quaternary" fill="rgb(235,230,239)" fill-opacity="1" d=" M276.69,63.19 C276.69,63.19 116.57,63.19 116.57,63.19 C116.57,63.19 116.57,436.33 116.57,436.33 C116.57,436.33 383.43,436.33 383.43,436.33 C383.43,436.33 383.43,169.94 383.43,169.94 C383.43,169.94 276.69,63.19 276.69,63.19z M276.69,63.19 C276.69,63.19 276.69,169.94 276.69,169.94 C276.69,169.94 383.43,169.94 383.43,169.94"/><g opacity="1" transform="matrix(1,0,0,1,250,249.75999450683594)"/><g opacity="1" transform="matrix(1,0,0,1,330.05999755859375,116.56700134277344)"/></g><g mask="url(#__lottie_element_2856_2)" style="display: block;"><g clip-path="url(#__lottie_element_2853)" transform="matrix(1,0,0,1,0,0)" opacity="1"><g transform="matrix(0.9399999976158142,0,0,0.9200000166893005,218.46420288085938,197.549072265625)" opacity="1" style="display: block;"><g opacity="1" transform="matrix(1,0,0,1,0,0)"><path class="tertiary" fill="rgb(255,199,56)" fill-opacity="1" d=" M43.972999572753906,11.217000007629395 C43.972999572753906,11.217000007629395 53.50400161743164,-25.839000701904297 53.50400161743164,-25.839000701904297 C54.02399826049805,-27.746999740600586 52.5880012512207,-29.628000259399414 50.61000061035156,-29.628000259399414 C50.61000061035156,-29.628000259399414 -52.03499984741211,-29.079999923706055 -52.03499984741211,-29.079999923706055 C-53.888999938964844,-29.079999923706055 -55.29999923706055,-27.416000366210938 -54.994998931884766,-25.586999893188477 C-54.994998931884766,-25.586999893188477 -45.29100036621094,26.22800064086914 -45.29100036621094,26.22800064086914 C-45.03900146484375,27.740999221801758 -43.6870002746582,28.81999969482422 -42.15599822998047,28.729999542236328 C-42.15599822998047,28.729999542236328 25.81100082397461,24.73200035095215 25.81100082397461,24.73200035095215 C34.38100051879883,24.22800064086914 41.7140007019043,19.499000549316406 43.972999572753906,11.217000007629395z"/></g></g><g mask="url(#__lottie_element_2878_2)" style="mix-blend-mode: multiply; display: block;"><g transform="matrix(0.9399999976158142,0,0,0.9200000166893005,218.46420288085938,197.549072265625)" opacity="0.5"><g opacity="1" transform="matrix(1,0,0,1,0,0)"><path class="tertiary" fill="rgb(255,199,56)" fill-opacity="1" d=" M43.972999572753906,11.217000007629395 C43.972999572753906,11.217000007629395 53.50400161743164,-25.839000701904297 53.50400161743164,-25.839000701904297 C54.02399826049805,-27.746999740600586 52.5880012512207,-29.628000259399414 50.61000061035156,-29.628000259399414 C50.61000061035156,-29.628000259399414 -52.03499984741211,-29.079999923706055 -52.03499984741211,-29.079999923706055 C-53.888999938964844,-29.079999923706055 -55.29999923706055,-27.416000366210938 -54.994998931884766,-25.586999893188477 C-54.994998931884766,-25.586999893188477 -45.29100036621094,26.22800064086914 -45.29100036621094,26.22800064086914 C-45.03900146484375,27.740999221801758 -43.6870002746582,28.81999969482422 -42.15599822998047,28.729999542236328 C-42.15599822998047,28.729999542236328 25.81100082397461,24.73200035095215 25.81100082397461,24.73200035095215 C34.38100051879883,24.22800064086914 41.7140007019043,19.499000549316406 43.972999572753906,11.217000007629395z"/></g></g></g><g transform="matrix(1,0,0,1,185,265)" opacity="1" style="display: block;"><g opacity="1" transform="matrix(1,0,0,1,0,0)"><path class="secondary" fill="rgb(58,51,71)" fill-opacity="1" d=" M15,0 C15,-8.309000015258789 8.255000114440918,-15 0,-15 C-8.255000114440918,-15 -14.946000099182129,-8.309000015258789 -15,0 C-15,8.309000015258789 -8.309000015258789,15 0,15 C8.309000015258789,15 15,8.255000114440918 15,0z"/></g></g><g transform="matrix(1,0,0,1,183.11099243164062,265.02398681640625)" opacity="0.5" style="mix-blend-mode: multiply; display: block;"><g opacity="1" transform="matrix(1,0,0,1,0,0)"><path class="secondary" fill="rgb(58,51,71)" fill-opacity="1" d=" M-13.111000061035156,-0.024000000208616257 C-13.0600004196167,-7.927000045776367 -7.005000114440918,-14.364999771118164 0.6890000104904175,-14.97599983215332 C-1.6540000438690186,-12.331999778747559 -3.0859999656677246,-8.850000381469727 -3.1110000610351562,-5.02400016784668 C-3.1110000610351562,3.2850000858306885 3.5799999237060547,9.97599983215332 11.888999938964844,9.97599983215332 C12.300999641418457,9.97599983215332 12.708000183105469,9.958999633789062 13.111000061035156,9.927000045776367 C10.366999626159668,13.020999908447266 6.36299991607666,14.97599983215332 1.8890000581741333,14.97599983215332 C-6.420000076293945,14.97599983215332 -13.111000061035156,8.28499984741211 -13.111000061035156,-0.024000000208616257z"/></g></g><g transform="matrix(1,0,0,1,245,265)" opacity="1" style="display: block;"><g opacity="1" transform="matrix(1,0,0,1,0,0)"><path class="secondary" fill="rgb(58,51,71)" fill-opacity="1" d=" M15,0 C15,-8.309000015258789 8.255000114440918,-15 0,-15 C-8.255000114440918,-15 -14.946000099182129,-8.309000015258789 -15,0 C-15,8.309000015258789 -8.255000114440918,15 0,15 C8.309000015258789,15 15,8.255000114440918 15,0z"/></g></g><g transform="matrix(1,0,0,1,243.11099243164062,265.02398681640625)" opacity="0.5" style="mix-blend-mode: multiply; display: block;"><g opacity="1" transform="matrix(1,0,0,1,0,0)"><path class="secondary" fill="rgb(58,51,71)" fill-opacity="1" d=" M-13.111000061035156,-0.024000000208616257 C-13.0600004196167,-7.927000045776367 -7.005000114440918,-14.364999771118164 0.6890000104904175,-14.97599983215332 C-1.6540000438690186,-12.331999778747559 -3.0859999656677246,-8.850000381469727 -3.1110000610351562,-5.02400016784668 C-3.1110000610351562,3.2850000858306885 3.634000062942505,9.97599983215332 11.888999938964844,9.97599983215332 C12.300999641418457,9.97599983215332 12.708000183105469,9.958999633789062 13.111000061035156,9.927000045776367 C10.366999626159668,13.020999908447266 6.36299991607666,14.97599983215332 1.8890000581741333,14.97599983215332 C-6.366000175476074,14.97599983215332 -13.111000061035156,8.28499984741211 -13.111000061035156,-0.024000000208616257z"/></g></g><g transform="matrix(1,0,0,1,207.5,215)" opacity="1" style="display: block;"><g opacity="1" transform="matrix(1,0,0,1,0,0)"><path stroke-linecap="round" stroke-linejoin="round" fill-opacity="0" class="primary" stroke="rgb(18,19,49)" stroke-opacity="1" stroke-width="10.5" d=" M-62.5,-65 C-53.26499938964844,-65 -45.2140007019043,-58.71500015258789 -42.9739990234375,-49.755001068115234 C-42.9739990234375,-49.755001068115234 -41.547000885009766,-44.047000885009766 -41.547000885009766,-44.047000885009766 M-31.070999145507812,9.644000053405762 C-31.070999145507812,9.644000053405762 -41.547000885009766,-44.047000885009766 -41.547000885009766,-44.047000885009766 M-41.547000885009766,-44.047000885009766 C-41.547000885009766,-44.047000885009766 62.5,-44.047000885009766 62.5,-44.047000885009766 C62.5,-44.047000885009766 50.323001861572266,-4.229000091552734 50.323001861572266,-4.229000091552734 C48.625999450683594,1.3209999799728394 43.6609992980957,5.232999801635742 37.86800003051758,5.584000110626221 C37.86800003051758,5.584000110626221 -24.249000549316406,9.348999977111816 -24.249000549316406,9.348999977111816 C-31.024999618530273,9.760000228881836 -36.308998107910156,15.375 -36.308998107910156,22.163000106811523 C-36.308998107910156,29.253000259399414 -30.562000274658203,35 -23.472000122070312,35 C-23.472000122070312,35 37.5,35 37.5,35 M52.5,50 C52.5,41.691001892089844 45.755001068115234,35 37.5,35 C29.2450008392334,35 22.554000854492188,41.691001892089844 22.5,50 C22.5,58.308998107910156 29.2450008392334,65 37.5,65 C45.808998107910156,65 52.5,58.255001068115234 52.5,50z M-7.5,50 C-7.5,41.691001892089844 -14.244999885559082,35 -22.5,35 C-30.7549991607666,35 -37.44599914550781,41.691001892089844 -37.5,50 C-37.5,58.308998107910156 -30.80900001525879,65 -22.5,65 C-14.190999984741211,65 -7.5,58.255001068115234 -7.5,50z"/></g></g><g transform="matrix(1,0,0,1,230,315.5)" opacity="1" style="display: block;"><g opacity="1" transform="matrix(1,0,0,1,0,0)"><path stroke-linecap="round" stroke-linejoin="round" fill-opacity="0" class="primary" stroke="rgb(18,19,49)" stroke-opacity="1" stroke-width="10.5" d=" M55,0 C55,0 -55,0 -55,0"/></g><g opacity="1" transform="matrix(1,0,0,1,0,0)"><path stroke-linecap="round" stroke-linejoin="round" fill-opacity="0" class="primary" stroke="rgb(18,19,49)" stroke-opacity="1" stroke-width="18" d=" M-85.25,0 C-85.25,0 -86.25,0 -86.25,0"/></g></g><g transform="matrix(1,0,0,1,230,355)" opacity="1" style="display: block;"><g opacity="1" transform="matrix(1,0,0,1,0,0)"><path stroke-linecap="round" stroke-linejoin="round" fill-opacity="0" class="primary" stroke="rgb(18,19,49)" stroke-opacity="1" stroke-width="10.5" d=" M55,0 C55,0 -55,0 -55,0"/></g><g opacity="1" transform="matrix(1,0,0,1,0,0)"><path stroke-linecap="round" stroke-linejoin="round" fill-opacity="0" class="primary" stroke="rgb(18,19,49)" stroke-opacity="1" stroke-width="18" d=" M-85.25,0 C-85.25,0 -86.25,0 -86.25,0"/></g></g></g></g><g transform="matrix(1,0,0,1,-36,-35)" opacity="1" style="mix-blend-mode: multiply; display: block;"><g opacity="1" transform="matrix(1,0,0,1,250,249.75999450683594)"><path stroke-linecap="round" stroke-linejoin="round" fill-opacity="0" class="quaternary" stroke="rgb(235,230,239)" stroke-opacity="1" stroke-width="10.5" d=" M26.690000534057617,-186.57000732421875 C26.690000534057617,-186.57000732421875 26.75,-186.57000732421875 26.75,-186.57000732421875 C26.75,-186.57000732421875 26.75,-79.76000213623047 26.75,-79.76000213623047 C26.75,-79.76000213623047 133.42999267578125,-79.76000213623047 133.42999267578125,-79.76000213623047 C133.42999267578125,-79.76000213623047 133.42999267578125,-79.81999969482422 133.42999267578125,-79.81999969482422 C133.42999267578125,-79.81999969482422 26.690000534057617,-186.57000732421875 26.690000534057617,-186.57000732421875z"/><path class="quaternary" fill="rgb(235,230,239)" fill-opacity="1" d=" M26.690000534057617,-186.57000732421875 C26.690000534057617,-186.57000732421875 26.75,-186.57000732421875 26.75,-186.57000732421875 C26.75,-186.57000732421875 26.75,-79.76000213623047 26.75,-79.76000213623047 C26.75,-79.76000213623047 133.42999267578125,-79.76000213623047 133.42999267578125,-79.76000213623047 C133.42999267578125,-79.76000213623047 133.42999267578125,-79.81999969482422 133.42999267578125,-79.81999969482422 C133.42999267578125,-79.81999969482422 26.690000534057617,-186.57000732421875 26.690000534057617,-186.57000732421875z"/></g></g><g transform="matrix(1,0,0,1,-35,-35)" opacity="1" style="display: block;"><g opacity="1" transform="matrix(1,0,0,1,250,249.75999450683594)"><path stroke-linecap="round" stroke-linejoin="round" fill-opacity="0" class="primary" stroke="rgb(18,19,49)" stroke-opacity="1" stroke-width="10.5" d=" M26.690000534057617,-186.57000732421875 C26.690000534057617,-186.57000732421875 -133.42999267578125,-186.57000732421875 -133.42999267578125,-186.57000732421875 C-133.42999267578125,-186.57000732421875 -133.42999267578125,186.57000732421875 -133.42999267578125,186.57000732421875 C-133.42999267578125,186.57000732421875 133.42999267578125,186.57000732421875 133.42999267578125,186.57000732421875 C133.42999267578125,186.57000732421875 133.42999267578125,-79.81999969482422 133.42999267578125,-79.81999969482422 C133.42999267578125,-79.81999969482422 26.690000534057617,-186.57000732421875 26.690000534057617,-186.57000732421875z"/></g><g opacity="1" transform="matrix(1,0,0,1,330.05999755859375,116.56700134277344)"><path stroke-linecap="round" stroke-linejoin="round" fill-opacity="0" class="primary" stroke="rgb(18,19,49)" stroke-opacity="1" stroke-width="10.5" d=" M-53.37300109863281,-53.37300109863281 C-53.37300109863281,-53.37300109863281 -53.37300109863281,53.37300109863281 -53.37300109863281,53.37300109863281 C-53.37300109863281,53.37300109863281 53.37300109863281,53.37300109863281 53.37300109863281,53.37300109863281"/></g></g><g transform="matrix(1,0,0,1,-35,-35)" opacity="1" style="display: block;"><g opacity="1" transform="matrix(1,0,0,1,330.05999755859375,116.56700134277344)"><path stroke-linecap="round" stroke-linejoin="round" fill-opacity="0" class="primary" stroke="rgb(18,19,49)" stroke-opacity="1" stroke-width="10.5" d=" M-53.37300109863281,-53.37300109863281 C-53.37300109863281,-53.37300109863281 -50.06700134277344,-51.05799865722656 -0.37299999594688416,-0.6269999742507935 C49.939998626708984,50.43299865722656 53.37300109863281,53.37300109863281 53.37300109863281,53.37300109863281"/></g></g></g></g></svg>