<svg xmlns="http://www.w3.org/2000/svg" xmlns:xlink="http://www.w3.org/1999/xlink" viewBox="0 0 430 430" width="430" height="430" preserveAspectRatio="xMidYMid meet" style="width: 100%; height: 100%; transform: translate3d(0px, 0px, 0px); content-visibility: visible;"><defs><clipPath id="__lottie_element_3614"><rect width="430" height="430" x="0" y="0"/></clipPath><clipPath id="__lottie_element_3616"><path d="M0,0 L430,0 L430,430 L0,430z"/></clipPath><g id="__lottie_element_3662"><g transform="matrix(1.0002769231796265,-0.0024414551444351673,0.002442822093144059,0.9997171759605408,214.93873596191406,215.25669860839844)" opacity="1" style="display: block;"><path fill="rgb(255,0,0)" fill-opacity="1" d=" M89.87999725341797,-69.27999877929688 C89.87999725341797,-69.27999877929688 110.11000061035156,-21.229999542236328 110.11000061035156,-21.229999542236328 C110.11000061035156,-21.229999542236328 109.7300033569336,5.070000171661377 109.7300033569336,5.070000171661377 C109.7300033569336,5.070000171661377 109.20999908447266,40.900001525878906 109.20999908447266,40.900001525878906 C109.20999908447266,40.900001525878906 132.35000610351562,49.84000015258789 140.80999755859375,27.5 C140.80999755859375,27.5 141.55999755859375,-27.6299991607666 141.55999755859375,-27.6299991607666 C141.55999755859375,-27.6299991607666 119.69999694824219,-79.80999755859375 119.69999694824219,-79.80999755859375 C119.69999694824219,-79.80999755859375 119.69000244140625,-79.83999633789062 119.69000244140625,-79.83999633789062 C119.69000244140625,-79.83999633789062 117.0999984741211,-86.01000213623047 117.0999984741211,-86.01000213623047"/><g opacity="1" transform="matrix(1,0,0,1,0,0)"><path stroke-linecap="round" stroke-linejoin="round" fill-opacity="0" stroke="rgb(8,168,138)" stroke-opacity="1" stroke-width="0" d=" M89.87999725341797,-69.27999877929688 C89.87999725341797,-69.27999877929688 110.11000061035156,-21.229999542236328 110.11000061035156,-21.229999542236328 C110.11000061035156,-21.229999542236328 109.7300033569336,5.070000171661377 109.7300033569336,5.070000171661377 C109.7300033569336,5.070000171661377 109.20999908447266,40.900001525878906 109.20999908447266,40.900001525878906 C109.20999908447266,40.900001525878906 132.35000610351562,49.84000015258789 140.80999755859375,27.5 C140.80999755859375,27.5 141.55999755859375,-27.6299991607666 141.55999755859375,-27.6299991607666 C141.55999755859375,-27.6299991607666 119.69999694824219,-79.80999755859375 119.69999694824219,-79.80999755859375 C119.69999694824219,-79.80999755859375 119.69000244140625,-79.83999633789062 119.69000244140625,-79.83999633789062 C119.69000244140625,-79.83999633789062 117.0999984741211,-86.01000213623047 117.0999984741211,-86.01000213623047"/></g></g></g><g id="__lottie_element_3674"><g transform="matrix(1.0002756118774414,0.0029297450091689825,-0.002931385301053524,0.9997158646583557,215.05545043945312,215.39845275878906)" opacity="1" style="display: block;"><g opacity="1" transform="matrix(1,0,0,1,0,0)"><path fill="rgb(255,255,255)" fill-opacity="1" d=" M-69.6709976196289,-69.66600036621094 C-69.6709976196289,-69.66600036621094 -36.17241287231445,-27.178714752197266 -36.17241287231445,-27.178714752197266 C-36.17241287231445,-27.178714752197266 17.403350830078125,3.4222497940063477 17.403350830078125,3.4222497940063477 C17.403350830078125,3.4222497940063477 13.868191719055176,26.497861862182617 -9.226905822753906,21.93704605102539 C-9.226905822753906,21.93704605102539 -56.86233901977539,-5.138937950134277 -56.86233901977539,-5.138937950134277 C-56.86233901977539,-5.138937950134277 -105.39399719238281,-69.58200073242188 -105.39399719238281,-69.58200073242188"/></g></g></g><g id="__lottie_element_3670"><g transform="matrix(1.0002756118774414,0.0029297450091689825,-0.002931385301053524,0.9997158646583557,215.05545043945312,215.39845275878906)" opacity="1" style="display: block;"><g opacity="1" transform="matrix(1,0,0,1,0,0)"><path fill="rgb(255,255,255)" fill-opacity="1" d=" M-69.6709976196289,-69.66600036621094 C-69.6709976196289,-69.66600036621094 -36.17241287231445,-27.178714752197266 -36.17241287231445,-27.178714752197266 C-36.17241287231445,-27.178714752197266 17.403350830078125,3.4222497940063477 17.403350830078125,3.4222497940063477 C17.403350830078125,3.4222497940063477 13.868191719055176,26.497861862182617 -9.226905822753906,21.93704605102539 C-9.226905822753906,21.93704605102539 -56.86233901977539,-5.138937950134277 -56.86233901977539,-5.138937950134277 C-56.86233901977539,-5.138937950134277 -105.39399719238281,-69.58200073242188 -105.39399719238281,-69.58200073242188"/></g></g></g><filter id="__lottie_element_3688" filterUnits="objectBoundingBox" x="0%" y="0%" width="100%" height="100%"><feComponentTransfer in="SourceGraphic"><feFuncA type="table" tableValues="1.0 0.0"/></feComponentTransfer></filter><mask id="__lottie_element_3670_2" mask-type="alpha" maskUnits="userSpaceOnUse"><g filter="url(#__lottie_element_3688)"><rect width="430" height="430" x="0" y="0" fill="#ffffff" opacity="0"/><use xmlns:ns1="http://www.w3.org/1999/xlink" ns1:href="#__lottie_element_3670"/></g></mask><filter id="__lottie_element_3689" filterUnits="objectBoundingBox" x="0%" y="0%" width="100%" height="100%"><feComponentTransfer in="SourceGraphic"><feFuncA type="table" tableValues="1.0 0.0"/></feComponentTransfer></filter><mask id="__lottie_element_3674_2" mask-type="alpha" maskUnits="userSpaceOnUse"><g filter="url(#__lottie_element_3689)"><rect width="430" height="430" x="0" y="0" fill="#ffffff" opacity="0"/><use xmlns:ns2="http://www.w3.org/1999/xlink" ns2:href="#__lottie_element_3674"/></g></mask><filter id="__lottie_element_3690" filterUnits="objectBoundingBox" x="0%" y="0%" width="100%" height="100%"><feComponentTransfer in="SourceGraphic"><feFuncA type="table" tableValues="1.0 0.0"/></feComponentTransfer></filter><mask id="__lottie_element_3662_2" mask-type="alpha" maskUnits="userSpaceOnUse"><g filter="url(#__lottie_element_3690)"><rect width="430" height="430" x="0" y="0" fill="#ffffff" opacity="0"/><use xmlns:ns3="http://www.w3.org/1999/xlink" ns3:href="#__lottie_element_3662"/></g></mask></defs><g clip-path="url(#__lottie_element_3614)"><g clip-path="url(#__lottie_element_3616)" transform="matrix(1,0,0,1,0,0)" opacity="1" style="display: block;"><g transform="matrix(1.0002702474594116,0.004394609481096268,-0.004397070035338402,0.9997105002403259,-36.73736572265625,-35.503684997558594)" opacity="1" style="display: block;"><g opacity="1" transform="matrix(1,0,0,1,152.343994140625,94.62999725341797)"><path class="octonary" fill="rgb(249,201,192)" fill-opacity="1" d=" M29.663000106811523,-10.645999908447266 C29.663000106811523,-10.645999908447266 29.663000106811523,21.172000885009766 29.663000106811523,21.172000885009766 C29.663000106811523,22.908000946044922 28.951000213623047,24.493999481201172 27.80699920654297,25.63800048828125 C27.777000427246094,25.67799949645996 27.73699951171875,25.70800018310547 27.707000732421875,25.72800064086914 C26.562999725341797,26.82200050354004 25.027999877929688,27.4950008392334 23.341999053955078,27.4950008392334 C23.341999053955078,27.4950008392334 5.070000171661377,27.4950008392334 5.070000171661377,27.4950008392334 C3.11299991607666,27.444000244140625 1.315999984741211,27.31399917602539 -0.3190000057220459,27.10300064086914 C-0.3490000069141388,27.10300064086914 -0.36899998784065247,27.10300064086914 -0.3889999985694885,27.093000411987305 C-10.062000274658203,25.16699981689453 -17.406999588012695,16.586999893188477 -17.406999588012695,6.372000217437744 C-17.406999588012695,6.372000217437744 -17.406999588012695,-10.645999908447266 -17.406999588012695,-10.645999908447266 C-17.406999588012695,-14.218000411987305 -16.503000259399414,-17.599000930786133 -14.918000221252441,-20.55900001525879 C-14.47700023651123,-21.381000518798828 -13.975000381469727,-22.163999557495117 -13.432999610900879,-22.926000595092773 C-13.293000221252441,-23.117000579833984 -13.152000427246094,-23.30900001525879 -13.01200008392334,-23.499000549316406 C-12.66100025177002,-23.951000213623047 -12.300000190734863,-24.39299964904785 -11.907999992370605,-24.823999404907227 C-9.510000228881836,-27.46299934387207 -6.455999851226807,-29.479000091552734 -3.0179998874664307,-30.652999877929688 C-0.9010000228881836,-31.375999450683594 1.3669999837875366,-31.767000198364258 3.7149999141693115,-31.767000198364258 C3.7149999141693115,-31.767000198364258 8.531000137329102,-31.767000198364258 8.531000137329102,-31.767000198364258 C20.149999618530273,-31.767000198364258 29.663000106811523,-22.2549991607666 29.663000106811523,-10.645999908447266z"/></g><g opacity="1" transform="matrix(1,0,0,1,152.343994140625,74.01399993896484)"><path class="senary" fill="rgb(178,104,54)" fill-opacity="1" d=" M27.878999710083008,1.284999966621399 C24.465999603271484,-6.235000133514404 16.350000381469727,-11.10099983215332 7.739999771118164,-10.821000099182129 C7.739999771118164,-10.821000099182129 4.810999870300293,-10.819000244140625 4.810999870300293,-10.819000244140625 C-6.23799991607666,-11.262999534606934 -16.077999114990234,-3.0490000247955322 -17.117000579833984,7.466000080108643 C-17.22800064086914,8.588000297546387 -17.236000061035156,15.229000091552734 -17.20199966430664,16.312999725341797 C-17.183000564575195,16.947999954223633 -16.68600082397461,17.475000381469727 -16.03499984741211,17.552000045776367 C-15.36400032043457,17.634000778198242 -14.770000457763672,17.235000610351562 -14.592000007629395,16.624000549316406 C-13.963000297546387,14.467000007629395 -12.583999633789062,12.850000381469727 -10.604000091552734,11.946000099182129 C-7.728000164031982,10.633999824523926 -3.8919999599456787,10.925999641418457 0.48899999260902405,12.788999557495117 C4.8420000076293945,14.640000343322754 8.718000411987305,12.437000274658203 12.140000343322754,10.494999885559082 C15.741999626159668,8.449999809265137 18.101999282836914,7.310999870300293 20.47800064086914,8.692999839782715 C25.520000457763672,11.62600040435791 26.430999755859375,14.418999671936035 27.033000946044922,16.267000198364258 C27.033000946044922,16.267000198364258 27.170000076293945,16.677000045776367 27.170000076293945,16.677000045776367 C27.351999282836914,17.211999893188477 27.865999221801758,17.562000274658203 28.433000564575195,17.562000274658203 C28.503000259399414,17.562000274658203 28.572999954223633,17.55699920654297 28.643999099731445,17.54599952697754 C29.288999557495117,17.445999145507812 29.763999938964844,16.906999588012695 29.763999938964844,16.274999618530273 C29.763999938964844,12.51200008392334 29.124000549316406,3.8529999256134033 27.878999710083008,1.284999966621399z"/></g></g><g transform="matrix(1.000272274017334,-0.003906322177499533,0.003908509388566017,0.9997125267982483,-33.262596130371094,-33.501956939697266)" opacity="1" style="display: block;"><g opacity="1" transform="matrix(1,0,0,1,328.1499938964844,94.36799621582031)"><path class="senary" fill="rgb(178,104,54)" fill-opacity="1" d=" M24.334999084472656,-10.387999534606934 C24.334999084472656,-10.387999534606934 24.29400062561035,5.770999908447266 24.29400062561035,5.770999908447266 C24.29400062561035,10.357999801635742 22.804000854492188,14.600000381469727 20.28700065612793,18.062999725341797 C16.886999130249023,22.73900032043457 11.623000144958496,25.9689998626709 5.60099983215332,26.62700080871582 C5.560999870300293,26.62700080871582 5.521999835968018,26.63800048828125 5.48199987411499,26.63800048828125 C4.77400016784668,26.716999053955078 4.046000003814697,26.756999969482422 3.308000087738037,26.756999969482422 C3.308000087738037,26.756999969482422 -16.19300079345703,26.756999969482422 -16.19300079345703,26.756999969482422 C-16.472000122070312,26.756999969482422 -16.740999221801758,26.73699951171875 -17.010000228881836,26.69700050354004 C-17.010000228881836,26.69700050354004 -17.020000457763672,26.69700050354004 -17.020000457763672,26.69700050354004 C-20.08099937438965,26.288000106811523 -22.464000701904297,23.64699935913086 -22.464000701904297,20.47599983215332 C-22.464000701904297,20.47599983215332 -22.423999786376953,-10.387999534606934 -22.423999786376953,-10.387999534606934 C-22.423999786376953,-11.215999603271484 -22.374000549316406,-12.032999992370605 -22.27400016784668,-12.831000328063965 C-22.27400016784668,-12.850000381469727 -22.27400016784668,-12.880999565124512 -22.263999938964844,-12.91100025177002 C-21.28700065612793,-21.006000518798828 -15.64900016784668,-27.701000213623047 -8.13700008392334,-30.267000198364258 C-6.0329999923706055,-30.986000061035156 -3.7799999713897705,-31.374000549316406 -1.437000036239624,-31.374000549316406 C-1.437000036239624,-31.374000549316406 3.3480000495910645,-31.374000549316406 3.3480000495910645,-31.374000549316406 C14.892999649047852,-31.374000549316406 24.334999084472656,-21.933000564575195 24.334999084472656,-10.387999534606934z"/></g><g opacity="1" transform="matrix(1,0,0,1,328.1499938964844,74.01399993896484)"><path class="septenary" fill="rgb(58,51,71)" fill-opacity="1" d=" M22.285999298095703,0.949999988079071 C18.92099952697754,-6.519000053405762 10.918000221252441,-11.35200023651123 2.427999973297119,-11.074000358581543 C2.427999973297119,-11.074000358581543 -0.46000000834465027,-11.071999549865723 -0.46000000834465027,-11.071999549865723 C-11.354000091552734,-11.512999534606934 -21.05699920654297,-3.3540000915527344 -22.082000732421875,7.090000152587891 C-22.19099998474121,8.204000473022461 -22.22800064086914,9.269000053405762 -22.19499969482422,10.345999717712402 C-22.176000595092773,10.97700023651123 -21.68600082397461,11.5 -21.04400062561035,11.57699966430664 C-20.382999420166016,11.659000396728516 -19.797000885009766,11.26200008392334 -19.621000289916992,10.654999732971191 C-19.000999450683594,8.512999534606934 -17.642000198364258,6.906000137329102 -15.689000129699707,6.007999897003174 C-12.852999687194824,4.703999996185303 -9.071000099182129,4.994999885559082 -4.750999927520752,6.84499979019165 C-0.45899999141693115,8.682999610900879 3.36299991607666,6.495999813079834 6.73799991607666,4.566999912261963 C10.289999961853027,2.5360000133514404 12.616000175476074,1.4049999713897705 14.958999633789062,2.7780001163482666 C19.930999755859375,5.690999984741211 20.829999923706055,8.46500015258789 21.423999786376953,10.300999641418457 C21.423999786376953,10.300999641418457 21.558000564575195,10.708000183105469 21.558000564575195,10.708000183105469 C21.73699951171875,11.23900032043457 22.243999481201172,11.586999893188477 22.80299949645996,11.586999893188477 C22.871999740600586,11.586999893188477 22.941999435424805,11.581000328063965 23.011999130249023,11.569999694824219 C23.648000717163086,11.470999717712402 24.115999221801758,10.935999870300293 24.115999221801758,10.307999610900879 C24.115999221801758,6.571000099182129 23.513999938964844,3.500999927520752 22.285999298095703,0.949999988079071z"/></g></g><g transform="matrix(1,0,0,1,-32,-35)" opacity="1" style="display: block;"><g opacity="1" transform="matrix(1,0,0,1,144.36000061035156,338.20001220703125)"><path class="tertiary" fill="rgb(100,110,120)" fill-opacity="1" d=" M33.18519592285156,-82.12100219726562 C33.18519592285156,-82.12100219726562 25.934999465942383,73.29000091552734 25.934999465942383,73.29000091552734 C25.934999465942383,73.29000091552734 -10.204999923706055,79.5999984741211 -10.204999923706055,79.5999984741211 C-10.204999923706055,79.5999984741211 -25.415000915527344,82.25 -25.415000915527344,82.25 C-25.415000915527344,82.25 -30.809263229370117,-82.26203918457031 -30.809263229370117,-82.26203918457031 C-30.809263229370117,-82.26203918457031 33.18519592285156,-82.12100219726562 33.18519592285156,-82.12100219726562z"/></g><g opacity="0.5" transform="matrix(1,0,0,1,122.69499969482422,338.20001220703125)" style="mix-blend-mode: multiply;"><path class="tertiary" fill="rgb(100,110,120)" fill-opacity="1" d=" M11.460000038146973,79.5999984741211 C11.460000038146973,79.5999984741211 -3.75,82.25 -3.75,82.25 C-3.75,82.25 -9.14426326751709,-82.26203918457031 -9.14426326751709,-82.26203918457031 C-9.14426326751709,-82.26203918457031 6.174421310424805,-82.22826385498047 6.174421310424805,-82.22826385498047 C6.174421310424805,-82.22826385498047 11.460000038146973,79.5999984741211 11.460000038146973,79.5999984741211z"/></g><g opacity="1" transform="matrix(1,0,0,1,0,0)"><g opacity="1" transform="matrix(1,0,0,1,156.16799926757812,424.3450012207031)"><g opacity="1" transform="matrix(1,0,0,1,0,0)"><path class="quaternary" fill="rgb(235,230,239)" fill-opacity="1" d=" M-0.3580000102519989,-12.854999542236328 C-0.3580000102519989,-12.854999542236328 0.6740000247955322,-12.854999542236328 0.6740000247955322,-12.854999542236328 C0.6740000247955322,-12.854999542236328 14.131999969482422,-12.854999542236328 14.131999969482422,-12.854999542236328 C14.131999969482422,-12.854999542236328 46.9119987487793,-0.22499999403953552 38.61199951171875,12.875 C38.61199951171875,12.875 18.15399932861328,12.875 18.15399932861328,12.875 C18.15399932861328,12.875 17.121999740600586,12.875 17.121999740600586,12.875 C17.121999740600586,12.875 -20.336000442504883,12.875 -20.336000442504883,12.875 C-20.336000442504883,12.875 -34.92300033569336,12.875 -34.92300033569336,12.875 C-36.00199890136719,12.875 -36.88600158691406,12.020000457763672 -36.922000885009766,10.940999984741211 C-36.922000885009766,10.940999984741211 -37.70899963378906,-12.854999542236328 -37.70899963378906,-12.854999542236328 C-37.70899963378906,-12.854999542236328 -0.3580000102519989,-12.854999542236328 -0.3580000102519989,-12.854999542236328z"/></g></g><g opacity="1" transform="matrix(1,0,0,1,125.40799713134766,424.3450012207031)" style="mix-blend-mode: multiply;"><g opacity="1" transform="matrix(1,0,0,1,0,0)"><path class="quaternary" fill="rgb(235,230,239)" fill-opacity="1" d=" M-6.948999881744385,-12.854999542236328 C-6.948999881744385,-12.854999542236328 -6.1620001792907715,10.940999984741211 -6.1620001792907715,10.940999984741211 C-6.1579999923706055,11.074000358581543 -6.139999866485596,11.20199966430664 -6.111000061035156,11.32699966430664 C-5.901000022888184,12.206999778747559 -5.114999771118164,12.857999801635742 -4.176000118255615,12.859999656677246 C-1.718000054359436,12.864999771118164 2.8940000534057617,12.87399959564209 8.404000282287598,12.875 C8.404000282287598,12.875 9.199000358581543,12.875 9.199000358581543,12.875 C9.199000358581543,12.875 8.347999572753906,-12.854999542236328 8.347999572753906,-12.854999542236328 C8.347999572753906,-12.854999542236328 -6.948999881744385,-12.854999542236328 -6.948999881744385,-12.854999542236328z"/></g></g></g></g><g transform="matrix(1,0,0,1,-30.5,-35)" opacity="1" style="display: block;"><g opacity="1" transform="matrix(1,0,0,1,334.5799865722656,337.9049987792969)"><path class="tertiary" fill="rgb(100,110,120)" fill-opacity="1" d=" M26.25,82.53500366210938 C26.25,82.53500366210938 -13.470000267028809,75.03500366210938 -13.470000267028809,75.03500366210938 C-13.470000267028809,75.03500366210938 -24.280000686645508,72.99500274658203 -24.280000686645508,72.99500274658203 C-24.280000686645508,72.99500274658203 -31.4544677734375,-82.40912628173828 -31.4544677734375,-82.40912628173828 C-31.4544677734375,-82.40912628173828 32.734283447265625,-82.6438217163086 32.734283447265625,-82.6438217163086 C32.734283447265625,-82.6438217163086 26.25,82.53500366210938 26.25,82.53500366210938z"/></g><g opacity="0.5" transform="matrix(1,0,0,1,313.9549865722656,334.1549987792969)" style="mix-blend-mode: multiply;"><path class="tertiary" fill="rgb(100,110,120)" fill-opacity="1" d=" M10.835000038146973,76.74500274658203 C10.835000038146973,76.74500274658203 9.324999809265137,77.48500061035156 7.15500020980835,78.78500366210938 C7.15500020980835,78.78500366210938 -3.6549999713897705,76.74500274658203 -3.6549999713897705,76.74500274658203 C-3.6549999713897705,76.74500274658203 -10.81946849822998,-78.65914916992188 -10.81946849822998,-78.65914916992188 C-10.81946849822998,-78.65914916992188 7.637341499328613,-78.7165756225586 7.637341499328613,-78.7165756225586 C7.637341499328613,-78.7165756225586 10.835000038146973,76.74500274658203 10.835000038146973,76.74500274658203z"/></g><g opacity="1" transform="matrix(1,0,0,1,0,0)"><g opacity="1" transform="matrix(1,0,0,1,323.31201171875,423.7650146484375)"><path class="quaternary" fill="rgb(235,230,239)" fill-opacity="1" d=" M1.4830000400543213,-12.864999771118164 C1.4830000400543213,-12.864999771118164 0.45100000500679016,-12.864999771118164 0.45100000500679016,-12.864999771118164 C0.45100000500679016,-12.864999771118164 -13.006999969482422,-12.864999771118164 -13.006999969482422,-12.864999771118164 C-13.006999969482422,-12.864999771118164 -45.7869987487793,-0.23499999940395355 -37.48699951171875,12.864999771118164 C-37.48699951171875,12.864999771118164 -17.02899932861328,12.864999771118164 -17.02899932861328,12.864999771118164 C-17.02899932861328,12.864999771118164 -15.996999740600586,12.864999771118164 -15.996999740600586,12.864999771118164 C-15.996999740600586,12.864999771118164 21.461000442504883,12.864999771118164 21.461000442504883,12.864999771118164 C21.461000442504883,12.864999771118164 36.04800033569336,12.864999771118164 36.04800033569336,12.864999771118164 C37.12699890136719,12.864999771118164 38.01100158691406,12.010000228881836 38.047000885009766,10.930999755859375 C38.047000885009766,10.930999755859375 38.83399963378906,-12.864999771118164 38.83399963378906,-12.864999771118164 C38.83399963378906,-12.864999771118164 1.4830000400543213,-12.864999771118164 1.4830000400543213,-12.864999771118164z"/></g><g opacity="0.5" transform="matrix(1,0,0,1,304.6369934082031,423.7650146484375)" style="mix-blend-mode: multiply;"><path class="quaternary" fill="rgb(235,230,239)" fill-opacity="1" d=" M-18.812000274658203,12.864999771118164 C-18.812000274658203,12.864999771118164 2.677999973297119,12.864999771118164 2.677999973297119,12.864999771118164 C-5.622000217437744,-0.23499999940395355 20.158000946044922,-12.864999771118164 20.158000946044922,-12.864999771118164 C20.158000946044922,-12.864999771118164 5.668000221252441,-12.864999771118164 5.668000221252441,-12.864999771118164 C5.668000221252441,-12.864999771118164 -27.11199951171875,-0.23499999940395355 -18.812000274658203,12.864999771118164z"/></g></g></g><g transform="matrix(1.0002597570419312,-0.006347747053951025,0.006351301446557045,0.9997000098228455,215.1614990234375,215.4745635986328)" opacity="1" style="display: block;"><g opacity="1" transform="matrix(1,0,0,1,0,0)"><path class="secondary" fill="rgb(255,199,56)" fill-opacity="1" d=" M60.47587203979492,-63.68016052246094 C60.47587203979492,-63.68016052246094 29.195392608642578,-25.755910873413086 29.195392608642578,-25.755910873413086 C29.195392608642578,-25.755910873413086 -24.463483810424805,4.688331127166748 -24.463483810424805,4.688331127166748 C-24.463483810424805,4.688331127166748 -21.023921966552734,27.80349349975586 2.116119146347046,23.33721160888672 C2.116119146347046,23.33721160888672 49.8129768371582,-3.602850914001465 49.8129768371582,-3.602850914001465 C49.8129768371582,-3.602850914001465 60.43601989746094,-16.19074249267578 60.43601989746094,-16.19074249267578"/><path class="secondary" fill="rgb(255,199,56)" fill-opacity="1" d=" M60.47587203979492,-63.68016052246094 C60.47587203979492,-63.68016052246094 29.195392608642578,-25.755910873413086 29.195392608642578,-25.755910873413086 C29.195392608642578,-25.755910873413086 -24.463483810424805,4.688331127166748 -24.463483810424805,4.688331127166748 C-24.463483810424805,4.688331127166748 -21.023921966552734,27.80349349975586 2.116119146347046,23.33721160888672 C2.116119146347046,23.33721160888672 49.8129768371582,-3.602850914001465 49.8129768371582,-3.602850914001465 C49.8129768371582,-3.602850914001465 60.43601989746094,-16.19074249267578 60.43601989746094,-16.19074249267578"/></g></g><g transform="matrix(1.0002597570419312,-0.006347747053951025,0.006351301446557045,0.9997000098228455,263.43084716796875,184.4362335205078)" opacity="0.5" style="mix-blend-mode: multiply; display: block;"><g opacity="1" transform="matrix(1,0,0,1,0,0)" style="mix-blend-mode: multiply;"><path class="secondary" fill="rgb(255,199,56)" fill-opacity="1" d=" M-7.555734157562256,-9.486848831176758 C-7.555734157562256,-9.486848831176758 14.911628723144531,-36.95018768310547 14.911628723144531,-36.95018768310547 C14.911628723144531,-36.95018768310547 14.871330261230469,10.831689834594727 14.871330261230469,10.831689834594727 C14.871330261230469,10.831689834594727 0.34055763483047485,28.51204490661621 0.34055763483047485,28.51204490661621 C0.34055763483047485,28.51204490661621 0.34055763483047485,28.51204490661621 0.34055763483047485,28.51204490661621 C-0.1624242067337036,12.883109092712402 -3.241798162460327,-0.226229727268219 -7.555734157562256,-9.486848831176758z"/></g></g><g transform="matrix(1.0002799034118652,0,0,0.9997201561927795,214.97769165039062,215.05215454101562)" opacity="1" style="display: block;"><g opacity="1" transform="matrix(1,0,0,1,0,0)"><path class="secondary" fill="rgb(255,199,56)" fill-opacity="1" d=" M116.8432388305664,-86.088134765625 C116.67228698730469,-86.40757751464844 116.4913330078125,-86.72695922851562 116.29041290283203,-87.03628540039062 C110.69273376464844,-96.39773559570312 100.43527221679688,-102.65544128417969 88.72723388671875,-102.6197280883789 C79.88871765136719,-102.59278106689453 71.90094757080078,-98.9889907836914 66.12958526611328,-93.18228912353516 C60.358219146728516,-87.37557983398438 56.80318069458008,-79.3759765625 56.83013153076172,-70.53746032714844 C56.83013153076172,-70.53746032714844 57.310977935791016,6.882126331329346 57.310977935791016,6.882126331329346 C57.310977935791016,6.882126331329346 110.00218963623047,6.721409320831299 110.00218963623047,6.721409320831299 C110.00218963623047,6.721409320831299 121.3003158569336,6.68693208694458 121.3003158569336,6.68693208694458 C121.3003158569336,6.68693208694458 120.81947326660156,-70.73265838623047 120.81947326660156,-70.73265838623047 C120.80970001220703,-73.93212890625 120.33035278320312,-77.02019500732422 119.45162200927734,-79.92706298828125"/></g></g><g transform="matrix(1.0002799034118652,0,0,0.9997201561927795,316.7581787109375,188.7305145263672)" opacity="0.5" style="mix-blend-mode: multiply; display: block;"><g opacity="1" transform="matrix(1,0,0,1,0,0)" style="mix-blend-mode: multiply;"><path class="secondary" fill="rgb(255,199,56)" fill-opacity="1" d=" M-8.630023002624512,-33.212162017822266 C-8.630023002624512,-33.212162017822266 8.442999839782715,6.807125568389893 8.442999839782715,6.807125568389893 C8.442999839782715,6.807125568389893 8.34914779663086,12.107337951660156 8.34914779663086,12.107337951660156 C8.34914779663086,12.107337951660156 8.062999725341797,33.10615539550781 8.062999725341797,33.10615539550781 C8.062999725341797,33.10615539550781 -6.619442462921143,33.14147186279297 -6.619442462921143,33.14147186279297 C-3.478210210800171,16.872514724731445 -0.41002291440963745,-11.023159980773926 -8.630023002624512,-33.212162017822266z"/></g></g><g transform="matrix(1.0002769231796265,-0.0024414551444351673,0.002442822093144059,0.9997171759605408,214.93873596191406,215.25669860839844)" opacity="1" style="display: block;"><g opacity="1" transform="matrix(1,0,0,1,0,0)"><path class="secondary" fill="rgb(255,199,56)" fill-opacity="1" d=" M89.87999725341797,-69.27999877929688 C89.87999725341797,-69.27999877929688 110.11000061035156,-21.229999542236328 110.11000061035156,-21.229999542236328 C110.11000061035156,-21.229999542236328 109.7300033569336,5.070000171661377 109.7300033569336,5.070000171661377 C109.7300033569336,5.070000171661377 109.20999908447266,40.900001525878906 109.20999908447266,40.900001525878906 C109.20999908447266,40.900001525878906 132.35000610351562,49.84000015258789 140.80999755859375,27.5 C140.80999755859375,27.5 141.55999755859375,-27.6299991607666 141.55999755859375,-27.6299991607666 C141.55999755859375,-27.6299991607666 119.69999694824219,-79.80999755859375 119.69999694824219,-79.80999755859375 C119.69999694824219,-79.80999755859375 119.69000244140625,-79.83999633789062 119.69000244140625,-79.83999633789062 C119.69000244140625,-79.83999633789062 117.0999984741211,-86.01000213623047 117.0999984741211,-86.01000213623047"/></g></g><g transform="matrix(1.0002799034118652,0,0,0.9997201561927795,215.02586364746094,215.0522918701172)" opacity="1" style="display: block;"><g opacity="1" transform="matrix(1,0,0,1,0,0)"><path class="quinary" fill="rgb(75,179,253)" fill-opacity="1" d=" M-69.64140319824219,6.9928202629089355 C-69.64140319824219,6.9928202629089355 -133.63121032714844,6.832383155822754 -133.63121032714844,6.832383155822754 C-133.63121032714844,6.832383155822754 -133.4587860107422,-70.12249755859375 -133.4587860107422,-70.12249755859375 C-133.4144744873047,-87.79251098632812 -119.05416870117188,-102.08098602294922 -101.3841552734375,-102.03668212890625 C-101.3841552734375,-102.03668212890625 -101.3841552734375,-102.03668212890625 -101.3841552734375,-102.03668212890625 C-83.71414184570312,-101.99238586425781 -69.42469787597656,-87.63207244873047 -69.46900177001953,-69.9620590209961 C-69.46900177001953,-69.9620590209961 -69.64140319824219,6.9928202629089355 -69.64140319824219,6.9928202629089355z"/></g></g><g transform="matrix(1.0002756118774414,0.0029297450091689825,-0.002931385301053524,0.9997158646583557,215.05545043945312,215.39845275878906)" opacity="1" style="display: block;"><g opacity="1" transform="matrix(1,0,0,1,0,0)"><path class="quinary" fill="rgb(75,179,253)" fill-opacity="1" d=" M-69.6709976196289,-69.66600036621094 C-69.6709976196289,-69.66600036621094 -36.17241287231445,-27.178714752197266 -36.17241287231445,-27.178714752197266 C-36.17241287231445,-27.178714752197266 17.403350830078125,3.4222497940063477 17.403350830078125,3.4222497940063477 C17.403350830078125,3.4222497940063477 13.868191719055176,26.497861862182617 -9.226905822753906,21.93704605102539 C-9.226905822753906,21.93704605102539 -56.86233901977539,-5.138937950134277 -56.86233901977539,-5.138937950134277 C-56.86233901977539,-5.138937950134277 -105.39399719238281,-69.58200073242188 -105.39399719238281,-69.58200073242188"/></g></g><g transform="matrix(1,0,0,1,129.6020050048828,181.71499633789062)" opacity="0.5" style="mix-blend-mode: multiply; display: block;"><g opacity="1" transform="matrix(1,0,0,1,0,0)" style="mix-blend-mode: multiply;"><path class="quinary" fill="rgb(75,179,253)" fill-opacity="1" d=" M15.369501113891602,11.942788124084473 C15.369501113891602,11.942788124084473 15.356040000915527,29.012592315673828 15.356040000915527,29.012592315673828 C15.356823921203613,28.012592315673828 -6.566628456115723,2.2255210876464844 -10.875435829162598,-6.852781295776367 C-13.78356647491455,-12.979991912841797 -15.03421401977539,-28.620803833007812 -15.03421401977539,-28.620803833007812 C-15.03421401977539,-28.620803833007812 15.369501113891602,11.942788124084473 15.369501113891602,11.942788124084473z"/></g></g><g transform="matrix(1.000272274017334,-0.003906322177499533,0.003908509388566017,0.9997125267982483,215.28192138671875,215.45936584472656)" opacity="1" style="display: block;"><g opacity="1" transform="matrix(1,0,0,1,0,0)"><path stroke-linecap="round" stroke-linejoin="round" fill-opacity="0" class="primary" stroke="rgb(18,19,49)" stroke-opacity="1" stroke-width="10.5" d=" M83.8280029296875,-128.45799255371094 C83.8280029296875,-128.45799255371094 64.27100372314453,-128.45799255371094 64.27100372314453,-128.45799255371094 C60.80799865722656,-128.45799255371094 57.9739990234375,-131.29200744628906 57.9739990234375,-134.7550048828125 C57.9739990234375,-134.7550048828125 57.9739990234375,-166.46400451660156 57.9739990234375,-166.46400451660156 C57.9739990234375,-178.04299926757812 67.4469985961914,-187.51600646972656 79.0260009765625,-187.51600646972656 C79.0260009765625,-187.51600646972656 83.8280029296875,-187.51600646972656 83.8280029296875,-187.51600646972656 C95.40699768066406,-187.51600646972656 104.87999725341797,-178.04299926757812 104.87999725341797,-166.46400451660156 C104.87999725341797,-166.46400451660156 104.87999725341797,-149.51100158691406 104.87999725341797,-149.51100158691406 C104.87999725341797,-137.9320068359375 95.40699768066406,-128.45799255371094 83.8280029296875,-128.45799255371094z"/></g></g><g mask="url(#__lottie_element_3670_2)" style="display: block;"><g transform="matrix(1.0002597570419312,-0.006347747053951025,0.006351301446557045,0.9997000098228455,215.1614990234375,215.4745635986328)" opacity="1"><g opacity="1" transform="matrix(1,0,0,1,0,0)"><path stroke-linecap="round" stroke-linejoin="round" fill-opacity="0" class="primary" stroke="rgb(18,19,49)" stroke-opacity="1" stroke-width="10.5" d=" M56.745826721191406,-60.46094512939453 C56.745826721191406,-60.46094512939453 29.195392608642578,-25.755910873413086 29.195392608642578,-25.755910873413086 C29.195392608642578,-25.755910873413086 -24.463483810424805,4.688331127166748 -24.463483810424805,4.688331127166748 C-24.463483810424805,4.688331127166748 -21.023921966552734,27.80349349975586 2.116119146347046,23.33721160888672 C2.116119146347046,23.33721160888672 49.8129768371582,-3.602850914001465 49.8129768371582,-3.602850914001465 C49.8129768371582,-3.602850914001465 56.70597457885742,-12.971527099609375 56.70597457885742,-12.971527099609375"/></g></g></g><g mask="url(#__lottie_element_3662_2)" style="display: block;"><g transform="matrix(1.0002799034118652,0,0,0.9997201561927795,214.97769165039062,215.05215454101562)" opacity="1"><g opacity="1" transform="matrix(1,0,0,1,0,0)"><path stroke-linecap="round" stroke-linejoin="round" fill-opacity="0" class="primary" stroke="rgb(18,19,49)" stroke-opacity="1" stroke-width="10.5" d=" M57.0510368347168,5.159943580627441 C57.0510368347168,5.159943580627441 64.22000122070312,160.60000610351562 64.22000122070312,160.60000610351562 C64.22000122070312,160.60000610351562 31.440000534057617,173.22999572753906 39.7400016784668,186.3300018310547 C42.88999938964844,186.3300018310547 51.5,186.3300018310547 61.22999954223633,186.3300018310547 C66.62999725341797,186.3300018310547 85.76000213623047,186.3300018310547 99.72000122070312,186.3300018310547"/></g><g opacity="1" transform="matrix(1,0,0,1,0,0)"><path stroke-linecap="round" stroke-linejoin="round" fill-opacity="0" class="primary" stroke="rgb(18,19,49)" stroke-opacity="1" stroke-width="10.5" d=" M121.21737670898438,4.978188991546631 C121.21737670898438,4.978188991546631 115.21299743652344,186.33299255371094 115.21299743652344,186.33299255371094 C115.21299743652344,186.33299255371094 70.02999877929688,186.33299255371094 61.224998474121094,186.33299255371094 C52.92900085449219,173.23300170898438 78.70999908447266,160.5959930419922 78.70999908447266,160.5959930419922 C78.70999908447266,160.5959930419922 75.532958984375,5.104581832885742 75.532958984375,5.104581832885742"/></g><g opacity="1" transform="matrix(1,0,0,1,0,0)"><path stroke-linecap="round" stroke-linejoin="round" fill-opacity="0" class="primary" stroke="rgb(18,19,49)" stroke-opacity="1" stroke-width="10.5" d=" M116.8432388305664,-86.088134765625 C116.67228698730469,-86.40757751464844 116.4913330078125,-86.72695922851562 116.29041290283203,-87.03628540039062 C110.69273376464844,-96.39773559570312 100.43527221679688,-102.65544128417969 88.72723388671875,-102.6197280883789 C79.88871765136719,-102.59278106689453 71.90094757080078,-98.9889907836914 66.12958526611328,-93.18228912353516 C60.358219146728516,-87.37557983398438 56.80318069458008,-79.3759765625 56.83013153076172,-70.53746032714844 C56.83013153076172,-70.53746032714844 57.06103515625,5.159915447235107 57.06103515625,5.159915447235107 C57.06103515625,5.159915447235107 109.75225067138672,4.999170303344727 109.75225067138672,4.999170303344727 C109.75225067138672,4.999170303344727 121.05036926269531,4.964720726013184 121.05036926269531,4.964720726013184 C121.05036926269531,4.964720726013184 120.81947326660156,-70.73265838623047 120.81947326660156,-70.73265838623047 C120.80970001220703,-73.93212890625 120.33035278320312,-77.02019500732422 119.45162200927734,-79.92706298828125"/></g></g></g><g transform="matrix(1.0002769231796265,-0.0024414551444351673,0.002442822093144059,0.9997171759605408,214.93873596191406,215.25669860839844)" opacity="1" style="display: block;"><g opacity="1" transform="matrix(1,0,0,1,0,0)"><path stroke-linecap="round" stroke-linejoin="round" fill-opacity="0" class="primary" stroke="rgb(18,19,49)" stroke-opacity="1" stroke-width="10.5" d=" M89.87999725341797,-69.27999877929688 C89.87999725341797,-69.27999877929688 110.11000061035156,-21.229999542236328 110.11000061035156,-21.229999542236328 C110.11000061035156,-21.229999542236328 109.7300033569336,5.070000171661377 109.7300033569336,5.070000171661377 C109.7300033569336,5.070000171661377 109.20999908447266,40.900001525878906 109.20999908447266,40.900001525878906 C109.20999908447266,40.900001525878906 132.35000610351562,49.84000015258789 140.80999755859375,27.5 C140.80999755859375,27.5 141.55999755859375,-27.6299991607666 141.55999755859375,-27.6299991607666 C141.55999755859375,-27.6299991607666 119.69999694824219,-79.80999755859375 119.69999694824219,-79.80999755859375 C119.69999694824219,-79.80999755859375 119.69000244140625,-79.83999633789062 119.69000244140625,-79.83999633789062 C119.69000244140625,-79.83999633789062 117.0999984741211,-86.01000213623047 117.0999984741211,-86.01000213623047"/></g></g><g transform="matrix(1.0002702474594116,0.004394609481096268,-0.004397070035338402,0.9997105002403259,214.7316131591797,215.5335693359375)" opacity="1" style="display: block;"><g opacity="1" transform="matrix(1,0,0,1,0,0)"><path stroke-linecap="round" stroke-linejoin="round" fill-opacity="0" class="primary" stroke="rgb(18,19,49)" stroke-opacity="1" stroke-width="10.5" d=" M-96.52100372314453,-127.86699676513672 C-96.52100372314453,-127.86699676513672 -76.96399688720703,-127.86699676513672 -76.96399688720703,-127.86699676513672 C-73.5009994506836,-127.86699676513672 -70.66699981689453,-130.7010040283203 -70.66699981689453,-134.16400146484375 C-70.66699981689453,-134.16400146484375 -70.66699981689453,-165.8719940185547 -70.66699981689453,-165.8719940185547 C-70.66699981689453,-177.4510040283203 -80.14099884033203,-186.9250030517578 -91.72000122070312,-186.9250030517578 C-91.72000122070312,-186.9250030517578 -96.52100372314453,-186.9250030517578 -96.52100372314453,-186.9250030517578 C-108.0999984741211,-186.9250030517578 -117.5739974975586,-177.4510040283203 -117.5739974975586,-165.8719940185547 C-117.5739974975586,-165.8719940185547 -117.5739974975586,-148.9199981689453 -117.5739974975586,-148.9199981689453 C-117.5739974975586,-137.34100341796875 -108.0999984741211,-127.86699676513672 -96.52100372314453,-127.86699676513672z"/></g></g><g mask="url(#__lottie_element_3674_2)" style="display: block;"><g transform="matrix(1.0002799034118652,0,0,0.9997201561927795,215.02586364746094,215.0522918701172)" opacity="1"><g opacity="1" transform="matrix(1,0,0,1,0,0)"><path stroke-linecap="round" stroke-linejoin="round" fill-opacity="0" class="primary" stroke="rgb(18,19,49)" stroke-opacity="1" stroke-width="10.5" d=" M-87.92872619628906,5.68759298324585 C-87.92872619628906,5.68759298324585 -87.92864227294922,5.657593250274658 -87.92864227294922,5.657593250274658"/></g><g opacity="1" transform="matrix(1,0,0,1,0,0)"><path stroke-linecap="round" stroke-linejoin="round" fill-opacity="0" class="primary" stroke="rgb(18,19,49)" stroke-opacity="1" stroke-width="10.5" d=" M-112.41999816894531,186.89999389648438 C-121.08999633789062,186.89999389648438 -127.70999908447266,186.89999389648438 -127.70999908447266,186.89999389648438 C-127.70999908447266,186.89999389648438 -133.6135711669922,5.5730509757995605 -133.6135711669922,5.5730509757995605 C-133.6135711669922,5.5730509757995605 -133.61354064941406,5.563051223754883 -133.61354064941406,5.563051223754883"/></g><g opacity="1" transform="matrix(1,0,0,1,0,0)"><path stroke-linecap="round" stroke-linejoin="round" fill-opacity="0" class="primary" stroke="rgb(18,19,49)" stroke-opacity="1" stroke-width="10.5" d=" M-118.32733917236328,5.627362251281738 C-118.32733917236328,5.627362251281738 -112.41799926757812,186.9250030517578 -112.41799926757812,186.9250030517578 C-112.41799926757812,186.9250030517578 -61.23500061035156,186.9250030517578 -52.43000030517578,186.9250030517578 C-44.13399887084961,173.8249969482422 -76.91500091552734,161.18699645996094 -76.91500091552734,161.18699645996094 C-76.91500091552734,161.18699645996094 -69.64076232910156,5.736432075500488 -69.64076232910156,5.736432075500488"/></g><g opacity="1" transform="matrix(1,0,0,1,0,0)"><path stroke-linecap="round" stroke-linejoin="round" fill-opacity="0" class="primary" stroke="rgb(18,19,49)" stroke-opacity="1" stroke-width="10.5" d=" M-69.65876770019531,5.7354044914245605 C-69.65876770019531,5.7354044914245605 -133.64857482910156,5.574966907501221 -133.64857482910156,5.574966907501221 C-133.64857482910156,5.574966907501221 -133.4587860107422,-70.12249755859375 -133.4587860107422,-70.12249755859375 C-133.4144744873047,-87.79251098632812 -119.05416870117188,-102.08098602294922 -101.3841552734375,-102.03668212890625 C-101.3841552734375,-102.03668212890625 -101.3841552734375,-102.03668212890625 -101.3841552734375,-102.03668212890625 C-83.71414184570312,-101.99238586425781 -69.42469787597656,-87.63207244873047 -69.46900177001953,-69.9620590209961 C-69.46900177001953,-69.9620590209961 -69.65876770019531,5.7354044914245605 -69.65876770019531,5.7354044914245605z"/></g></g></g><g transform="matrix(1.0002756118774414,0.0029297450091689825,-0.002931385301053524,0.9997158646583557,215.05545043945312,215.39845275878906)" opacity="1" style="display: block;"><g opacity="1" transform="matrix(1,0,0,1,0,0)"><path stroke-linecap="round" stroke-linejoin="round" fill-opacity="0" class="primary" stroke="rgb(18,19,49)" stroke-opacity="1" stroke-width="10.5" d=" M-69.6709976196289,-69.66600036621094 C-69.6709976196289,-69.66600036621094 -36.17241287231445,-27.178714752197266 -36.17241287231445,-27.178714752197266 C-36.17241287231445,-27.178714752197266 17.403350830078125,3.4222497940063477 17.403350830078125,3.4222497940063477 C17.403350830078125,3.4222497940063477 13.868191719055176,26.497861862182617 -9.226905822753906,21.93704605102539 C-9.226905822753906,21.93704605102539 -56.86233901977539,-5.138937950134277 -56.86233901977539,-5.138937950134277 C-56.86233901977539,-5.138937950134277 -105.39399719238281,-69.58200073242188 -105.39399719238281,-69.58200073242188"/></g></g></g></g></svg>