<svg xmlns="http://www.w3.org/2000/svg" xmlns:xlink="http://www.w3.org/1999/xlink" viewBox="0 0 430 430" width="430" height="430" preserveAspectRatio="xMidYMid meet" style="width: 100%; height: 100%; transform: translate3d(0px, 0px, 0px); content-visibility: visible;"><defs><clipPath id="__lottie_element_4330"><rect width="430" height="430" x="0" y="0"/></clipPath><clipPath id="__lottie_element_4332"><path d="M0,0 L430,0 L430,430 L0,430z"/></clipPath><g id="__lottie_element_4369"><g transform="matrix(1,0,0,1,179.5,162.5)" opacity="1" style="display: block;"><g opacity="1" transform="matrix(1,0,0,1,0,0)"><path fill="rgb(255,199,56)" fill-opacity="1" d=" M-15,13.687999725341797 C-34.33000183105469,13.687999725341797 -50,29.357999801635742 -50,48.6879997253418 C-50,48.6879997253418 -50,63.6879997253418 -50,63.6879997253418 C-50,63.6879997253418 50,63.6879997253418 50,63.6879997253418 C50,63.6879997253418 50,48.6879997253418 50,48.6879997253418 C50,29.357999801635742 34.33000183105469,13.687999725341797 15,13.687999725341797 C15,13.687999725341797 -15,13.687999725341797 -15,13.687999725341797z"/></g></g></g><g id="__lottie_element_4381"><g transform="matrix(1,0,0,1,169.5,152.5)" opacity="1" style="display: block;"><g opacity="1" transform="matrix(1,0,0,1,0,0)"><path fill="rgb(249,201,192)" fill-opacity="1" d=" M25,-25.625 C25,-11.817999839782715 13.807000160217285,-0.625 0,-0.625 C-13.807000160217285,-0.625 -25,-11.817999839782715 -25,-25.625 C-25,-39.43199920654297 -13.807000160217285,-50.625 0,-50.625 C13.807000160217285,-50.625 25,-39.43199920654297 25,-25.625z"/></g></g></g><g id="__lottie_element_4393"><g transform="matrix(1,0,0,1,213,234)" opacity="1" style="display: block;"><g opacity="1" transform="matrix(1,0,0,1,103.56800079345703,-205.85000610351562)"><path stroke-linecap="butt" stroke-linejoin="miter" fill-opacity="0" stroke-miterlimit="4" stroke="rgb(18,19,49)" stroke-opacity="1" stroke-width="0" d=" M74.56849670410156,-46.8494987487793 C74.56849670410156,-46.8494987487793 74.56849670410156,46.8494987487793 74.56849670410156,46.8494987487793 C74.56849670410156,46.8494987487793 -74.56849670410156,46.8494987487793 -74.56849670410156,46.8494987487793 C-74.56849670410156,46.8494987487793 -74.56849670410156,-46.8494987487793 -74.56849670410156,-46.8494987487793 C-74.56849670410156,-46.8494987487793 74.56849670410156,-46.8494987487793 74.56849670410156,-46.8494987487793z"/><path fill="rgb(255,0,0)" fill-opacity="1" d=" M74.56849670410156,-46.8494987487793 C74.56849670410156,-46.8494987487793 74.56849670410156,46.8494987487793 74.56849670410156,46.8494987487793 C74.56849670410156,46.8494987487793 -74.56849670410156,46.8494987487793 -74.56849670410156,46.8494987487793 C-74.56849670410156,46.8494987487793 -74.56849670410156,-46.8494987487793 -74.56849670410156,-46.8494987487793 C-74.56849670410156,-46.8494987487793 74.56849670410156,-46.8494987487793 74.56849670410156,-46.8494987487793z"/></g></g></g><filter id="__lottie_element_4411" filterUnits="objectBoundingBox" x="0%" y="0%" width="100%" height="100%"><feComponentTransfer in="SourceGraphic"><feFuncA type="table" tableValues="1.0 0.0"/></feComponentTransfer></filter><mask id="__lottie_element_4393_2" mask-type="alpha" maskUnits="userSpaceOnUse"><g filter="url(#__lottie_element_4411)"><rect width="430" height="430" x="0" y="0" fill="#ffffff" opacity="0"/><use xmlns:ns1="http://www.w3.org/1999/xlink" ns1:href="#__lottie_element_4393"/></g></mask><filter id="__lottie_element_4412" filterUnits="objectBoundingBox" x="0%" y="0%" width="100%" height="100%"><feComponentTransfer in="SourceGraphic"><feFuncA type="table" tableValues="1.0 0.0"/></feComponentTransfer></filter><mask id="__lottie_element_4381_2" mask-type="alpha" maskUnits="userSpaceOnUse"><g filter="url(#__lottie_element_4412)"><rect width="430" height="430" x="0" y="0" fill="#ffffff" opacity="0"/><use xmlns:ns2="http://www.w3.org/1999/xlink" ns2:href="#__lottie_element_4381"/></g></mask><filter id="__lottie_element_4413" filterUnits="objectBoundingBox" x="0%" y="0%" width="100%" height="100%"><feComponentTransfer in="SourceGraphic"><feFuncA type="table" tableValues="1.0 0.0"/></feComponentTransfer></filter><mask id="__lottie_element_4369_2" mask-type="alpha" maskUnits="userSpaceOnUse"><g filter="url(#__lottie_element_4413)"><rect width="430" height="430" x="0" y="0" fill="#ffffff" opacity="0"/><use xmlns:ns3="http://www.w3.org/1999/xlink" ns3:href="#__lottie_element_4369"/></g></mask></defs><g clip-path="url(#__lottie_element_4330)"><g clip-path="url(#__lottie_element_4332)" transform="matrix(1,0,0,1,0,0)" opacity="1" style="display: block;"><g transform="matrix(1,0,0,1,212,170)" opacity="1" style="display: block;"><g opacity="1" transform="matrix(1,0,0,1,0,0)"><path class="tertiary" fill="rgb(75,179,253)" fill-opacity="1" d=" M155,-100 C155,-100 -155,-100 -155,-100 C-155,-100 -155,100 -155,100 C-155,100 155,100 155,100 C155,100 155,-100 155,-100z"/></g></g><g transform="matrix(1,0,0,1,72,170)" opacity="0.5" style="mix-blend-mode: multiply; display: block;"><g opacity="1" transform="matrix(1,0,0,1,0,0)"><path class="tertiary" fill="rgb(75,179,253)" fill-opacity="1" d=" M10,-95 C10,-95 -10,-95 -10,-95 C-10,-95 -10,95 -10,95 C-10,95 10,95 10,95 C10,95 10,-95 10,-95z"/></g></g><g transform="matrix(1,0,0,1,304.5,170)" opacity="0.7000000000000001" style="mix-blend-mode: multiply; display: block;"><g opacity="1" transform="matrix(1,0,0,1,0,0)"><path class="tertiary" fill="rgb(75,179,253)" fill-opacity="1" d=" M62.5,-100 C62.5,-100 -62.5,-100 -62.5,-100 C-62.5,-100 -62.5,100 -62.5,100 C-62.5,100 62.5,100 62.5,100 C62.5,100 62.5,-100 62.5,-100z"/></g></g><g transform="matrix(1,0,0,1,212,290)" opacity="1" style="display: block;"><g opacity="1" transform="matrix(1,0,0,1,0,0)"><path class="secondary" fill="rgb(235,230,239)" fill-opacity="1" d=" M-170,5 C-170,5 -170,-25 -170,-25 C-170,-25 170,-25 170,-25 C170,-25 170,5 170,5 C170,16.04599952697754 161.04600524902344,25 150,25 C150,25 -150,25 -150,25 C-161.04600524902344,25 -170,16.04599952697754 -170,5z"/></g></g><g transform="matrix(1,0,0,1,212,160)" opacity="1" style="display: block;"><g opacity="1" transform="matrix(1,0,0,1,0,0)"><path class="quinary" fill="rgb(58,51,71)" fill-opacity="1" d=" M150,-85 C150,-85 150,105 150,105 C150,105 0,105 0,105 C0,105 -150,105 -150,105 C-150,105 -150,-85 -150,-85 C-150,-85 150,-85 150,-85z M-170,105 C-170,105 170,105 170,105 C170,105 170,-85 170,-85 C170,-96.0459976196289 161.04600524902344,-105 150,-105 C150,-105 -150,-105 -150,-105 C-161.04600524902344,-105 -170,-96.0459976196289 -170,-85 C-170,-85 -170,105 -170,105z"/></g></g><g transform="matrix(1,0,0,1,62,290)" opacity="0.5" style="mix-blend-mode: multiply; display: block;"><g opacity="1" transform="matrix(1,0,0,1,0,0)"><path class="secondary" fill="rgb(235,230,239)" fill-opacity="1" d=" M-20,-25 C-20,-25 -20,5 -20,5 C-20,16.04599952697754 -11.045999526977539,25 0,25 C0,25 20,25 20,25 C8.954000473022461,25 0,16.04599952697754 0,5 C0,5 0,-25 0,-25 C0,-25 -20,-25 -20,-25z"/></g></g><g transform="matrix(1,0,0,1,62,160)" opacity="0.5" style="mix-blend-mode: multiply; display: block;"><g opacity="1" transform="matrix(1,0,0,1,0,0)"><path class="quinary" fill="rgb(58,51,71)" fill-opacity="1" d=" M-20,-85 C-20,-85 -20,105 -20,105 C-20,105 0,105 0,105 C0,105 0,-85 0,-85 C0,-96.0459976196289 8.954000473022461,-105 20,-105 C20,-105 0,-105 0,-105 C-11.045999526977539,-105 -20,-96.0459976196289 -20,-85z"/></g></g><g transform="matrix(1,0,0,1,212,345)" opacity="1" style="display: block;"><g opacity="1" transform="matrix(1,0,0,1,0,0)"><path class="secondary" fill="rgb(235,230,239)" fill-opacity="1" d=" M36.25,30 C36.25,30 31,-30.25 31,-30.25 C31,-30.25 -30,-30 -30,-30 C-30,-30 -34.25,30 -34.25,30 C-34.25,30 -34.479000091552734,30.00200080871582 -34.479000091552734,30.00200080871582 C-34.49100112915039,30.00200080871582 -34.5,30.000999450683594 -34.5,30.000999450683594 C-34.5,30.000999450683594 -34.5,30 -34.5,30 C-34.5,30 -34.49100112915039,30 -34.479000091552734,30 C-34.479000091552734,30 36.25,30 36.25,30 C36.25,30 36.25,30 36.25,30 C36.25,30 36.25,30 36.25,30 C36.25,30 36.25,30 36.25,30 C36.25,30 36.25,30 36.25,30z"/></g></g><g transform="matrix(1,0,0,1,192.625,345)" opacity="0.6" style="mix-blend-mode: multiply; display: block;"><g opacity="1" transform="matrix(1,0,0,1,0,0)"><path class="secondary" fill="rgb(235,230,239)" fill-opacity="1" d=" M-0.625,30 C-0.625,30 3.125,-15 3.125,-15 C3.125,-15 50.625,-15 50.625,-15 C50.625,-15 49.375,-30 49.375,-30 C49.375,-30 -10.625,-30 -10.625,-30 C-10.625,-30 -15.625,30 -15.625,30 C-15.625,30 -16.538999557495117,30.013999938964844 -16.538999557495117,30.013999938964844 C-16.586000442504883,30.013999938964844 -16.625,30.01300048828125 -16.625,30.01099967956543 C-16.625,30.01099967956543 -16.625,30.003000259399414 -16.625,30.003000259399414 C-16.625,30.000999450683594 -16.586000442504883,30 -16.538999557495117,30 C-16.538999557495117,30 -0.625,30 -0.625,30z"/></g></g><g transform="matrix(1,0,0,1,154.5,162.5)" opacity="1" style="display: block;"><g opacity="1" transform="matrix(1,0,0,1,0,0)"><path class="senary" fill="rgb(255,199,56)" fill-opacity="1" d=" M-15,13.687999725341797 C-34.33000183105469,13.687999725341797 -50,29.357999801635742 -50,48.6879997253418 C-50,48.6879997253418 -50,63.6879997253418 -50,63.6879997253418 C-50,63.6879997253418 50,63.6879997253418 50,63.6879997253418 C50,63.6879997253418 50,48.6879997253418 50,48.6879997253418 C50,29.357999801635742 34.33000183105469,13.687999725341797 15,13.687999725341797 C15,13.687999725341797 -15,13.687999725341797 -15,13.687999725341797z"/></g></g><g mask="url(#__lottie_element_4369_2)" style="mix-blend-mode: multiply; display: block;"><g transform="matrix(1,0,0,1,154.5,162.5)" opacity="0.5"><g opacity="1" transform="matrix(1,0,0,1,0,0)"><path class="senary" fill="rgb(255,199,56)" fill-opacity="1" d=" M-15,13.687999725341797 C-34.33000183105469,13.687999725341797 -50,29.357999801635742 -50,48.6879997253418 C-50,48.6879997253418 -50,63.6879997253418 -50,63.6879997253418 C-50,63.6879997253418 50,63.6879997253418 50,63.6879997253418 C50,63.6879997253418 50,48.6879997253418 50,48.6879997253418 C50,29.357999801635742 34.33000183105469,13.687999725341797 15,13.687999725341797 C15,13.687999725341797 -15,13.687999725341797 -15,13.687999725341797z"/></g></g></g><g transform="matrix(1,0,0,1,154.5,162.5)" opacity="1" style="display: block;"><g opacity="1" transform="matrix(1,0,0,1,0,0)"><path stroke-linecap="butt" stroke-linejoin="round" fill-opacity="0" class="primary" stroke="rgb(18,19,49)" stroke-opacity="1" stroke-width="7" d=" M-15,13.687999725341797 C-34.33000183105469,13.687999725341797 -50,29.357999801635742 -50,48.6879997253418 C-50,48.6879997253418 -50,63.6879997253418 -50,63.6879997253418 C-50,63.6879997253418 50,63.6879997253418 50,63.6879997253418 C50,63.6879997253418 50,48.6879997253418 50,48.6879997253418 C50,29.357999801635742 34.33000183105469,13.687999725341797 15,13.687999725341797 C15,13.687999725341797 -15,13.687999725341797 -15,13.687999725341797z"/></g></g><g transform="matrix(1,0,0,1,154.5,162.5)" opacity="1" style="display: block;"><g opacity="1" transform="matrix(1,0,0,1,0,0)"><path class="quaternary" fill="rgb(249,201,192)" fill-opacity="1" d=" M25,-25.625 C25,-11.817999839782715 13.807000160217285,-0.625 0,-0.625 C-13.807000160217285,-0.625 -25,-11.817999839782715 -25,-25.625 C-25,-39.43199920654297 -13.807000160217285,-50.625 0,-50.625 C13.807000160217285,-50.625 25,-39.43199920654297 25,-25.625z"/></g></g><g mask="url(#__lottie_element_4381_2)" style="mix-blend-mode: multiply; display: block;"><g transform="matrix(1,0,0,1,154.5,162.5)" opacity="0.5"><g opacity="1" transform="matrix(1,0,0,1,0,0)"><path class="quaternary" fill="rgb(249,201,192)" fill-opacity="1" d=" M25,-25.625 C25,-11.817999839782715 13.807000160217285,-0.625 0,-0.625 C-13.807000160217285,-0.625 -25,-11.817999839782715 -25,-25.625 C-25,-39.43199920654297 -13.807000160217285,-50.625 0,-50.625 C13.807000160217285,-50.625 25,-39.43199920654297 25,-25.625z"/></g></g></g><g transform="matrix(1,0,0,1,154.5,162.5)" opacity="1" style="display: block;"><g opacity="1" transform="matrix(1,0,0,1,0,0)"><path stroke-linecap="butt" stroke-linejoin="round" fill-opacity="0" class="primary" stroke="rgb(18,19,49)" stroke-opacity="1" stroke-width="7" d=" M25,-25.625 C25,-11.817999839782715 13.807000160217285,-0.625 0,-0.625 C-13.807000160217285,-0.625 -25,-11.817999839782715 -25,-25.625 C-25,-39.43199920654297 -13.807000160217285,-50.625 0,-50.625 C13.807000160217285,-50.625 25,-39.43199920654297 25,-25.625z"/></g></g><g transform="matrix(1,0,0,1,215,290)" opacity="1" style="display: block;"><g opacity="1" transform="matrix(1,0,0,1,0,0)"><path class="primary" fill="rgb(18,19,49)" fill-opacity="1" d=" M0,-10 C5.519000053405762,-10 10,-5.519000053405762 10,0 C10,5.519000053405762 5.519000053405762,10 0,10 C-5.519000053405762,10 -10,5.519000053405762 -10,0 C-10,-5.519000053405762 -5.519000053405762,-10 0,-10z"/></g></g><g mask="url(#__lottie_element_4393_2)" style="display: block;"><g transform="matrix(1,0,0,1,301.5,119.5)" opacity="1"><g opacity="1" transform="matrix(1,0,0,1,2,0)"><path stroke-linecap="round" stroke-linejoin="round" fill-opacity="0" class="primary" stroke="rgb(18,19,49)" stroke-opacity="1" stroke-width="7" d=" M35,17.5 C35,17.5 -35,17.5 -35,17.5"/></g><g opacity="1" transform="matrix(1,0,0,1,1.5,0)"><path stroke-linecap="round" stroke-linejoin="round" fill-opacity="0" class="primary" stroke="rgb(18,19,49)" stroke-opacity="1" stroke-width="7" d=" M35,-17.5 C35,-17.5 -35,-17.5 -35,-17.5"/></g></g></g><g transform="matrix(1,0,0,1,81.05000305175781,95)" opacity="1" style="display: block;"><g opacity="1" transform="matrix(1,0,0,1,0,0)"><path stroke-linecap="round" stroke-linejoin="round" fill-opacity="0" class="septenary" stroke="rgb(242,76,0)" stroke-opacity="1" stroke-width="12" d=" M0.05000000074505806,0 C0.05000000074505806,0 -0.05000000074505806,0 -0.05000000074505806,0"/></g></g><g transform="matrix(1,0,0,1,243,155)" opacity="1" style="display: block;"><g opacity="1" transform="matrix(1,0,0,1,0,0)"><path stroke-linecap="round" stroke-linejoin="round" fill-opacity="0" class="primary" stroke="rgb(18,19,49)" stroke-opacity="1" stroke-width="7" d=" M0,109.5 C0,109.5 0,-100 0,-100"/></g></g><g transform="matrix(1,0,0,1,303,199.5)" opacity="1" style="display: block;"><g opacity="1" transform="matrix(1,0,0,1,0,0)"><path class="secondary" fill="rgb(235,230,239)" fill-opacity="1" d=" M-32,-27.5 C-32,-27.5 32,-27.5 32,-27.5 C33.65700149536133,-27.5 35,-26.156999588012695 35,-24.5 C35,-24.5 35,24.5 35,24.5 C35,26.156999588012695 33.65700149536133,27.5 32,27.5 C32,27.5 -32,27.5 -32,27.5 C-33.65700149536133,27.5 -35,26.156999588012695 -35,24.5 C-35,24.5 -35,-24.5 -35,-24.5 C-35,-26.156999588012695 -33.65700149536133,-27.5 -32,-27.5z"/></g><g opacity="1" transform="matrix(1,0,0,1,-17.375,0)" style="mix-blend-mode: multiply;"><path class="secondary" fill="rgb(235,230,239)" fill-opacity="0.5" d=" M-17.5,-24.5 C-17.5,-24.5 -17.5,24.5 -17.5,24.5 C-17.5,26.156999588012695 -16.156999588012695,27.5 -14.5,27.5 C-14.5,27.5 17.5,27.5 17.5,27.5 C17.5,27.5 17.5,-27.5 17.5,-27.5 C17.5,-27.5 -14.5,-27.5 -14.5,-27.5 C-16.156999588012695,-27.5 -17.5,-26.156999588012695 -17.5,-24.5z"/></g></g><g transform="matrix(1,0,0,1,303,199.5)" opacity="1" style="display: block;"><g opacity="1" transform="matrix(1,0,0,1,0,0)"><path stroke-linecap="round" stroke-linejoin="round" fill-opacity="0" class="primary" stroke="rgb(18,19,49)" stroke-opacity="1" stroke-width="7" d=" M35,-27.5 C35,-27.5 -35,-27.5 -35,-27.5 C-35,-27.5 -35,27.5 -35,27.5 C-35,27.5 35,27.5 35,27.5 C35,27.5 35,-27.5 35,-27.5z"/></g></g><g transform="matrix(1,0,0,1,213,215)" opacity="1" style="display: block;"><g opacity="1" transform="matrix(1,0,0,1,0,0)"><path stroke-linecap="round" stroke-linejoin="round" fill-opacity="0" class="primary" stroke="rgb(18,19,49)" stroke-opacity="1" stroke-width="7" d=" M-170,50 C-170,50 170,50 170,50 M-70,160 C-70,160 70,160 70,160 M-30,100 C-30,100 -35,160 -35,160 M35,160 C35,160 30,100 30,100 M-150,-160 C-161.04600524902344,-160 -170,-151.04600524902344 -170,-140 C-170,-140 -170,80 -170,80 C-170,91.0459976196289 -161.04600524902344,100 -150,100 C-150,100 150,100 150,100 C161.04600524902344,100 170,91.0459976196289 170,80 C170,80 170,-140 170,-140 C170,-151.04600524902344 161.04600524902344,-160 150,-160 C150,-160 -150,-160 -150,-160z"/></g></g></g></g></svg>