<svg xmlns="http://www.w3.org/2000/svg" xmlns:xlink="http://www.w3.org/1999/xlink" viewBox="0 0 430 430" width="430" height="430" preserveAspectRatio="xMidYMid meet" style="width: 100%; height: 100%; transform: translate3d(0px, 0px, 0px); content-visibility: visible;"><defs><clipPath id="__lottie_element_2594"><rect width="430" height="430" x="0" y="0"/></clipPath><clipPath id="__lottie_element_2596"><path d="M0,0 L430,0 L430,430 L0,430z"/></clipPath></defs><g clip-path="url(#__lottie_element_2594)"><g clip-path="url(#__lottie_element_2596)" transform="matrix(1,0,0,1,0,0)" opacity="1" style="display: block;"><g transform="matrix(1,0,0,1,215,214.9949951171875)" opacity="1" style="display: block;"><g opacity="1" transform="matrix(1,0,0,1,0,0)"><path class="quaternary" fill="rgb(235,230,239)" fill-opacity="1" d=" M-103.75,159.94500732421875 C-103.75,159.94500732421875 103.75,159.94500732421875 103.75,159.94500732421875 C103.75,159.94500732421875 103.75,159.94500732421875 103.75,159.94500732421875 C104.5459976196289,159.94500732421875 105.30799865722656,159.62899780273438 105.87100219726562,159.0659942626953 C106.43399810791016,158.5030059814453 106.75,157.74099731445312 106.75,156.94500732421875 C106.75,156.94500732421875 106.75,-156.94500732421875 106.75,-156.94500732421875 C106.75,-157.74099731445312 106.43399810791016,-158.5030059814453 105.87100219726562,-159.0659942626953 C105.30799865722656,-159.62899780273438 104.5459976196289,-159.94500732421875 103.75,-159.94500732421875 C103.75,-159.94500732421875 -103.75,-159.94500732421875 -103.75,-159.94500732421875 C-104.5459976196289,-159.94500732421875 -105.30799865722656,-159.62899780273438 -105.87100219726562,-159.0659942626953 C-106.43399810791016,-158.5030059814453 -106.75,-157.74099731445312 -106.75,-156.94500732421875 C-106.75,-156.94500732421875 -106.75,156.94500732421875 -106.75,156.94500732421875 C-106.75,157.74099731445312 -106.43399810791016,158.5030059814453 -105.87100219726562,159.0659942626953 C-105.30799865722656,159.62899780273438 -104.5459976196289,159.94500732421875 -103.75,159.94500732421875z"/></g></g><g transform="matrix(1,0,0,1,114.17500305175781,214.9949951171875)" opacity="0.5" style="mix-blend-mode: multiply; display: block;"><g opacity="1" transform="matrix(1,0,0,1,0,0)"><path class="quaternary" fill="rgb(235,230,239)" fill-opacity="1" d=" M-2.924999952316284,159.94500732421875 C-2.924999952316284,159.94500732421875 5.925000190734863,159.94500732421875 5.925000190734863,159.94500732421875 C5.925000190734863,159.94500732421875 5.925000190734863,-159.94500732421875 5.925000190734863,-159.94500732421875 C5.925000190734863,-159.94500732421875 -2.924999952316284,-159.94500732421875 -2.924999952316284,-159.94500732421875 C-3.7209999561309814,-159.94500732421875 -4.482999801635742,-159.62899780273438 -5.046000003814697,-159.0659942626953 C-5.609000205993652,-158.5030059814453 -5.925000190734863,-157.74099731445312 -5.925000190734863,-156.94500732421875 C-5.925000190734863,-156.94500732421875 -5.925000190734863,156.94500732421875 -5.925000190734863,156.94500732421875 C-5.925000190734863,157.74099731445312 -5.609000205993652,158.5030059814453 -5.046000003814697,159.0659942626953 C-4.482999801635742,159.62899780273438 -3.7209999561309814,159.94500732421875 -2.924999952316284,159.94500732421875z"/></g></g><g transform="matrix(1,0,0,1,215,329.6650085449219)" opacity="1" style="display: block;"><g opacity="1" transform="matrix(1,0,0,1,0,0)"><path class="tertiary" fill="rgb(58,51,71)" fill-opacity="1" d=" M-45.58000183105469,45.334999084472656 C-45.58000183105469,45.334999084472656 0.3199999928474426,45.334999084472656 0.3199999928474426,45.334999084472656 C0.3199999928474426,45.334999084472656 45.58000183105469,45.334999084472656 45.58000183105469,45.334999084472656 C45.58000183105469,45.334999084472656 45.58000183105469,-42.334999084472656 45.58000183105469,-42.334999084472656 C45.58000183105469,-43.13100051879883 45.263999938964844,-43.893001556396484 44.70100021362305,-44.45600128173828 C44.13800048828125,-45.01900100708008 43.375999450683594,-45.334999084472656 42.58000183105469,-45.334999084472656 C42.58000183105469,-45.334999084472656 -42.58000183105469,-45.334999084472656 -42.58000183105469,-45.334999084472656 C-43.375999450683594,-45.334999084472656 -44.13800048828125,-45.01900100708008 -44.70100021362305,-44.45600128173828 C-45.263999938964844,-43.893001556396484 -45.58000183105469,-43.13100051879883 -45.58000183105469,-42.334999084472656 C-45.58000183105469,-42.334999084472656 -45.58000183105469,45.334999084472656 -45.58000183105469,45.334999084472656z"/><path class="tertiary" fill="rgb(58,51,71)" fill-opacity="0.5" d=" M-45.58000183105469,45.334999084472656 C-45.58000183105469,45.334999084472656 0.3199999928474426,45.334999084472656 0.3199999928474426,45.334999084472656 C0.3199999928474426,45.334999084472656 45.58000183105469,45.334999084472656 45.58000183105469,45.334999084472656 C45.58000183105469,45.334999084472656 45.58000183105469,-42.334999084472656 45.58000183105469,-42.334999084472656 C45.58000183105469,-43.13100051879883 45.263999938964844,-43.893001556396484 44.70100021362305,-44.45600128173828 C44.13800048828125,-45.01900100708008 43.375999450683594,-45.334999084472656 42.58000183105469,-45.334999084472656 C42.58000183105469,-45.334999084472656 -42.58000183105469,-45.334999084472656 -42.58000183105469,-45.334999084472656 C-43.375999450683594,-45.334999084472656 -44.13800048828125,-45.01900100708008 -44.70100021362305,-44.45600128173828 C-45.263999938964844,-43.893001556396484 -45.58000183105469,-43.13100051879883 -45.58000183105469,-42.334999084472656 C-45.58000183105469,-42.334999084472656 -45.58000183105469,45.334999084472656 -45.58000183105469,45.334999084472656z" style="mix-blend-mode: multiply;"/></g></g><g transform="matrix(1,0,0,1,215,329.6650085449219)" opacity="1" style="display: block;"><g opacity="1" transform="matrix(1,0,0,1,0,0)"><path class="tertiary" fill="rgb(58,51,71)" fill-opacity="1" d=" M-45.58000183105469,44.834999084472656 C-45.58000183105469,44.834999084472656 0.3199999928474426,44.834999084472656 0.3199999928474426,44.834999084472656 C0.3199999928474426,44.834999084472656 0.07999999821186066,44.834999084472656 0.07999999821186066,44.834999084472656 C0.07999999821186066,44.834999084472656 0.07999999821186066,-42.834999084472656 0.07999999821186066,-42.834999084472656 C0.07999999821186066,-43.63100051879883 -0.23600000143051147,-44.393001556396484 -0.7990000247955322,-44.95600128173828 C-1.3619999885559082,-45.51900100708008 -2.124000072479248,-45.834999084472656 -2.9200000762939453,-45.834999084472656 C-2.9200000762939453,-45.834999084472656 -42.58000183105469,-45.834999084472656 -42.58000183105469,-45.834999084472656 C-43.375999450683594,-45.834999084472656 -44.13800048828125,-45.51900100708008 -44.70100021362305,-44.95600128173828 C-45.263999938964844,-44.393001556396484 -45.58000183105469,-43.63100051879883 -45.58000183105469,-42.834999084472656 C-45.58000183105469,-42.834999084472656 -45.58000183105469,44.834999084472656 -45.58000183105469,44.834999084472656z"/></g><g opacity="1" transform="matrix(1,0,0,1,0,0)"><path class="tertiary" fill="rgb(58,51,71)" fill-opacity="1" d=" M0.6700000166893005,44.834999084472656 C0.6700000166893005,44.834999084472656 46.56999969482422,44.834999084472656 46.56999969482422,44.834999084472656 C46.56999969482422,44.834999084472656 46.33000183105469,44.834999084472656 46.33000183105469,44.834999084472656 C46.33000183105469,44.834999084472656 46.33000183105469,-42.834999084472656 46.33000183105469,-42.834999084472656 C46.33000183105469,-43.63100051879883 46.013999938964844,-44.393001556396484 45.45100021362305,-44.95600128173828 C44.88800048828125,-45.51900100708008 44.125999450683594,-45.834999084472656 43.33000183105469,-45.834999084472656 C43.33000183105469,-45.834999084472656 3.6700000762939453,-45.834999084472656 3.6700000762939453,-45.834999084472656 C2.874000072479248,-45.834999084472656 2.111999988555908,-45.51900100708008 1.5490000247955322,-44.95600128173828 C0.9860000014305115,-44.393001556396484 0.6700000166893005,-43.63100051879883 0.6700000166893005,-42.834999084472656 C0.6700000166893005,-42.834999084472656 0.6700000166893005,44.834999084472656 0.6700000166893005,44.834999084472656z"/></g></g><g transform="matrix(1,0,0,1,215,215)" opacity="1" style="display: block;"><g opacity="1" transform="matrix(1,0,0,1,0,0)"><g opacity="1" transform="matrix(1,0,0,1,0,0)"><path stroke-linecap="round" stroke-linejoin="round" fill-opacity="0" class="secondary" stroke="rgb(75,179,253)" stroke-opacity="1" stroke-width="7" d=" M-53.65700149536133,-133.43299865722656 C-53.65700149536133,-133.43299865722656 -53.65700149536133,-108.6520004272461 -53.65700149536133,-108.6520004272461"/></g><g opacity="1" transform="matrix(1,0,0,1,0,0)"><path stroke-linecap="round" stroke-linejoin="round" fill-opacity="0" class="secondary" stroke="rgb(75,179,253)" stroke-opacity="1" stroke-width="7" d=" M-26.97100067138672,-133.43299865722656 C-26.97100067138672,-133.43299865722656 -26.97100067138672,-108.6520004272461 -26.97100067138672,-108.6520004272461"/></g><g opacity="1" transform="matrix(1,0,0,1,0,0)"><path stroke-linecap="round" stroke-linejoin="round" fill-opacity="0" class="secondary" stroke="rgb(75,179,253)" stroke-opacity="1" stroke-width="7" d=" M-0.2840000092983246,-133.43299865722656 C-0.2840000092983246,-133.43299865722656 -0.2840000092983246,-108.6520004272461 -0.2840000092983246,-108.6520004272461"/></g><g opacity="1" transform="matrix(1,0,0,1,0,0)"><path stroke-linecap="round" stroke-linejoin="round" fill-opacity="0" class="secondary" stroke="rgb(75,179,253)" stroke-opacity="1" stroke-width="7" d=" M53.0890007019043,-133.43299865722656 C53.0890007019043,-133.43299865722656 53.0890007019043,-108.6520004272461 53.0890007019043,-108.6520004272461"/></g><g opacity="1" transform="matrix(1,0,0,1,0,0)"><path stroke-linecap="round" stroke-linejoin="round" fill-opacity="0" class="secondary" stroke="rgb(75,179,253)" stroke-opacity="1" stroke-width="7" d=" M-53.65700149536133,-83.87200164794922 C-53.65700149536133,-83.87200164794922 -53.65700149536133,-59.09199905395508 -53.65700149536133,-59.09199905395508"/></g><g opacity="1" transform="matrix(1,0,0,1,0,0)"><path stroke-linecap="round" stroke-linejoin="round" fill-opacity="0" class="secondary" stroke="rgb(75,179,253)" stroke-opacity="1" stroke-width="7" d=" M-26.97100067138672,-83.87200164794922 C-26.97100067138672,-83.87200164794922 -26.97100067138672,-59.09199905395508 -26.97100067138672,-59.09199905395508"/></g><g opacity="1" transform="matrix(1,0,0,1,0,0)"><path stroke-linecap="round" stroke-linejoin="round" fill-opacity="0" class="secondary" stroke="rgb(75,179,253)" stroke-opacity="1" stroke-width="7" d=" M-0.2840000092983246,-83.87200164794922 C-0.2840000092983246,-83.87200164794922 -0.2840000092983246,-59.09199905395508 -0.2840000092983246,-59.09199905395508"/></g><g opacity="1" transform="matrix(1,0,0,1,0,0)"><path stroke-linecap="round" stroke-linejoin="round" fill-opacity="0" class="secondary" stroke="rgb(75,179,253)" stroke-opacity="1" stroke-width="7" d=" M53.0890007019043,-83.87200164794922 C53.0890007019043,-83.87200164794922 53.0890007019043,-59.09199905395508 53.0890007019043,-59.09199905395508"/></g><g opacity="1" transform="matrix(1,0,0,1,0,0)"><path stroke-linecap="round" stroke-linejoin="round" fill-opacity="0" class="secondary" stroke="rgb(75,179,253)" stroke-opacity="1" stroke-width="7" d=" M-53.65700149536133,-34.31100082397461 C-53.65700149536133,-34.31100082397461 -53.65700149536133,-9.531000137329102 -53.65700149536133,-9.531000137329102"/></g><g opacity="1" transform="matrix(1,0,0,1,0,0)"><path stroke-linecap="round" stroke-linejoin="round" fill-opacity="0" class="secondary" stroke="rgb(75,179,253)" stroke-opacity="1" stroke-width="7" d=" M-26.97100067138672,-34.31100082397461 C-26.97100067138672,-34.31100082397461 -26.97100067138672,-9.531000137329102 -26.97100067138672,-9.531000137329102"/></g><g opacity="1" transform="matrix(1,0,0,1,0,0)"><path stroke-linecap="round" stroke-linejoin="round" fill-opacity="0" class="secondary" stroke="rgb(75,179,253)" stroke-opacity="1" stroke-width="7" d=" M-0.2840000092983246,-34.31100082397461 C-0.2840000092983246,-34.31100082397461 -0.2840000092983246,-9.531000137329102 -0.2840000092983246,-9.531000137329102"/></g><g opacity="1" transform="matrix(1,0,0,1,0,0)"><path stroke-linecap="round" stroke-linejoin="round" fill-opacity="0" class="secondary" stroke="rgb(75,179,253)" stroke-opacity="1" stroke-width="7" d=" M53.0890007019043,-34.31100082397461 C53.0890007019043,-34.31100082397461 53.0890007019043,-9.531000137329102 53.0890007019043,-9.531000137329102"/></g><g opacity="1" transform="matrix(1,0,0,1,0,0)"><path stroke-linecap="round" stroke-linejoin="round" fill-opacity="0" class="secondary" stroke="rgb(75,179,253)" stroke-opacity="1" stroke-width="7" d=" M-53.65700149536133,15.24899959564209 C-53.65700149536133,15.24899959564209 -53.65700149536133,40.029998779296875 -53.65700149536133,40.029998779296875"/></g><g opacity="1" transform="matrix(1,0,0,1,0,0)"><path stroke-linecap="round" stroke-linejoin="round" fill-opacity="0" class="secondary" stroke="rgb(75,179,253)" stroke-opacity="1" stroke-width="7" d=" M-26.97100067138672,15.24899959564209 C-26.97100067138672,15.24899959564209 -26.97100067138672,40.029998779296875 -26.97100067138672,40.029998779296875"/></g><g opacity="1" transform="matrix(1,0,0,1,0,0)"><path stroke-linecap="round" stroke-linejoin="round" fill-opacity="0" class="secondary" stroke="rgb(75,179,253)" stroke-opacity="1" stroke-width="7" d=" M-0.2840000092983246,15.24899959564209 C-0.2840000092983246,15.24899959564209 -0.2840000092983246,40.029998779296875 -0.2840000092983246,40.029998779296875"/></g><g opacity="1" transform="matrix(1,0,0,1,0,0)"><path stroke-linecap="round" stroke-linejoin="round" fill-opacity="0" class="secondary" stroke="rgb(75,179,253)" stroke-opacity="1" stroke-width="7" d=" M26.402000427246094,-133.43299865722656 C26.402000427246094,-133.43299865722656 26.402000427246094,-108.6520004272461 26.402000427246094,-108.6520004272461"/></g><g opacity="1" transform="matrix(1,0,0,1,0,0)"><path stroke-linecap="round" stroke-linejoin="round" fill-opacity="0" class="secondary" stroke="rgb(75,179,253)" stroke-opacity="1" stroke-width="7" d=" M26.402000427246094,-83.87200164794922 C26.402000427246094,-83.87200164794922 26.402000427246094,-59.09199905395508 26.402000427246094,-59.09199905395508"/></g><g opacity="1" transform="matrix(1,0,0,1,0,0)"><path stroke-linecap="round" stroke-linejoin="round" fill-opacity="0" class="secondary" stroke="rgb(75,179,253)" stroke-opacity="1" stroke-width="7" d=" M26.402000427246094,-34.31100082397461 C26.402000427246094,-34.31100082397461 26.402000427246094,-9.531000137329102 26.402000427246094,-9.531000137329102"/></g><g opacity="1" transform="matrix(1,0,0,1,0,0)"><path stroke-linecap="round" stroke-linejoin="round" fill-opacity="0" class="secondary" stroke="rgb(75,179,253)" stroke-opacity="1" stroke-width="7" d=" M26.402000427246094,15.24899959564209 C26.402000427246094,15.24899959564209 26.402000427246094,40.029998779296875 26.402000427246094,40.029998779296875"/></g><g opacity="1" transform="matrix(1,0,0,1,0,0)"><path stroke-linecap="round" stroke-linejoin="round" fill-opacity="0" class="secondary" stroke="rgb(75,179,253)" stroke-opacity="1" stroke-width="7" d=" M79.7760009765625,-133.43299865722656 C79.7760009765625,-133.43299865722656 79.7760009765625,-108.6520004272461 79.7760009765625,-108.6520004272461"/></g><g opacity="1" transform="matrix(1,0,0,1,0,0)"><path stroke-linecap="round" stroke-linejoin="round" fill-opacity="0" class="secondary" stroke="rgb(75,179,253)" stroke-opacity="1" stroke-width="7" d=" M79.7760009765625,-83.87200164794922 C79.7760009765625,-83.87200164794922 79.7760009765625,-59.09199905395508 79.7760009765625,-59.09199905395508"/></g><g opacity="1" transform="matrix(1,0,0,1,0,0)"><path stroke-linecap="round" stroke-linejoin="round" fill-opacity="0" class="secondary" stroke="rgb(75,179,253)" stroke-opacity="1" stroke-width="7" d=" M79.7760009765625,-34.31100082397461 C79.7760009765625,-34.31100082397461 79.7760009765625,-9.531000137329102 79.7760009765625,-9.531000137329102"/></g><g opacity="1" transform="matrix(1,0,0,1,0,0)"><path stroke-linecap="round" stroke-linejoin="round" fill-opacity="0" class="secondary" stroke="rgb(75,179,253)" stroke-opacity="1" stroke-width="7" d=" M79.7760009765625,15.24899959564209 C79.7760009765625,15.24899959564209 79.7760009765625,40.029998779296875 79.7760009765625,40.029998779296875"/></g><g opacity="1" transform="matrix(1,0,0,1,0,0)"><path stroke-linecap="round" stroke-linejoin="round" fill-opacity="0" class="secondary" stroke="rgb(75,179,253)" stroke-opacity="1" stroke-width="7" d=" M-80.34400177001953,-133.43299865722656 C-80.34400177001953,-133.43299865722656 -80.34400177001953,-108.6520004272461 -80.34400177001953,-108.6520004272461"/></g><g opacity="1" transform="matrix(1,0,0,1,0,0)"><path stroke-linecap="round" stroke-linejoin="round" fill-opacity="0" class="secondary" stroke="rgb(75,179,253)" stroke-opacity="1" stroke-width="7" d=" M-80.34400177001953,-83.87200164794922 C-80.34400177001953,-83.87200164794922 -80.34400177001953,-59.09199905395508 -80.34400177001953,-59.09199905395508"/></g><g opacity="1" transform="matrix(1,0,0,1,0,0)"><path stroke-linecap="round" stroke-linejoin="round" fill-opacity="0" class="secondary" stroke="rgb(75,179,253)" stroke-opacity="1" stroke-width="7" d=" M-80.34400177001953,-34.31100082397461 C-80.34400177001953,-34.31100082397461 -80.34400177001953,-9.531000137329102 -80.34400177001953,-9.531000137329102"/></g><g opacity="1" transform="matrix(1,0,0,1,0,0)"><path stroke-linecap="round" stroke-linejoin="round" fill-opacity="0" class="secondary" stroke="rgb(75,179,253)" stroke-opacity="1" stroke-width="7" d=" M-80.34400177001953,15.24899959564209 C-80.34400177001953,15.24899959564209 -80.34400177001953,40.029998779296875 -80.34400177001953,40.029998779296875"/></g><g opacity="1" transform="matrix(1,0,0,1,0,0)"><path stroke-linecap="round" stroke-linejoin="round" fill-opacity="0" class="secondary" stroke="rgb(75,179,253)" stroke-opacity="1" stroke-width="7" d=" M53.0890007019043,15.24899959564209 C53.0890007019043,15.24899959564209 53.0890007019043,40.029998779296875 53.0890007019043,40.029998779296875"/></g></g></g><g transform="matrix(1,0,0,1,215,215)" opacity="1" style="display: block;"><g opacity="1" transform="matrix(1,0,0,1,0,0)"><path stroke-linecap="round" stroke-linejoin="round" fill-opacity="0" class="primary" stroke="rgb(18,19,49)" stroke-opacity="1" stroke-width="7" d=" M-0.16300000250339508,71.46199798583984 C-0.16300000250339508,71.46199798583984 -0.19300000369548798,159.1320037841797 -0.19300000369548798,159.1320037841797 M0.18199999630451202,70.31199645996094 C0.18199999630451202,70.31199645996094 0.18199999630451202,159.875 0.18199999630451202,159.875"/></g></g><g transform="matrix(1,0,0,1,215,329.6650085449219)" opacity="1" style="display: block;"><g opacity="1" transform="matrix(1,0,0,1,0,0)"><path stroke-linecap="round" stroke-linejoin="round" fill-opacity="0" class="primary" stroke="rgb(18,19,49)" stroke-opacity="1" stroke-width="7" d=" M-45.58000183105469,45.334999084472656 C-45.58000183105469,45.334999084472656 0.3199999928474426,45.334999084472656 0.3199999928474426,45.334999084472656 C0.3199999928474426,45.334999084472656 45.58000183105469,45.334999084472656 45.58000183105469,45.334999084472656 C45.58000183105469,45.334999084472656 45.58000183105469,-42.334999084472656 45.58000183105469,-42.334999084472656 C45.58000183105469,-43.13100051879883 45.263999938964844,-43.893001556396484 44.70100021362305,-44.45600128173828 C44.13800048828125,-45.01900100708008 43.375999450683594,-45.334999084472656 42.58000183105469,-45.334999084472656 C42.58000183105469,-45.334999084472656 -42.58000183105469,-45.334999084472656 -42.58000183105469,-45.334999084472656 C-43.375999450683594,-45.334999084472656 -44.13800048828125,-45.01900100708008 -44.70100021362305,-44.45600128173828 C-45.263999938964844,-43.893001556396484 -45.58000183105469,-43.13100051879883 -45.58000183105469,-42.334999084472656 C-45.58000183105469,-42.334999084472656 -45.58000183105469,45.334999084472656 -45.58000183105469,45.334999084472656z"/></g></g><g transform="matrix(1,0,0,1,215,214.9949951171875)" opacity="1" style="display: block;"><g opacity="1" transform="matrix(1,0,0,1,0,0)"><path stroke-linecap="round" stroke-linejoin="round" fill-opacity="0" class="primary" stroke="rgb(18,19,49)" stroke-opacity="1" stroke-width="7" d=" M-103.75,159.94500732421875 C-103.75,159.94500732421875 103.75,159.94500732421875 103.75,159.94500732421875 C103.75,159.94500732421875 103.75,159.94500732421875 103.75,159.94500732421875 C104.5459976196289,159.94500732421875 105.30799865722656,159.62899780273438 105.87100219726562,159.0659942626953 C106.43399810791016,158.5030059814453 106.75,157.74099731445312 106.75,156.94500732421875 C106.75,156.94500732421875 106.75,-156.94500732421875 106.75,-156.94500732421875 C106.75,-157.74099731445312 106.43399810791016,-158.5030059814453 105.87100219726562,-159.0659942626953 C105.30799865722656,-159.62899780273438 104.5459976196289,-159.94500732421875 103.75,-159.94500732421875 C103.75,-159.94500732421875 -103.75,-159.94500732421875 -103.75,-159.94500732421875 C-104.5459976196289,-159.94500732421875 -105.30799865722656,-159.62899780273438 -105.87100219726562,-159.0659942626953 C-106.43399810791016,-158.5030059814453 -106.75,-157.74099731445312 -106.75,-156.94500732421875 C-106.75,-156.94500732421875 -106.75,156.94500732421875 -106.75,156.94500732421875 C-106.75,157.74099731445312 -106.43399810791016,158.5030059814453 -105.87100219726562,159.0659942626953 C-105.30799865722656,159.62899780273438 -104.5459976196289,159.94500732421875 -103.75,159.94500732421875z"/></g></g></g></g></svg>