<svg xmlns="http://www.w3.org/2000/svg" xmlns:xlink="http://www.w3.org/1999/xlink" viewBox="0 0 430 430" width="430" height="430" preserveAspectRatio="xMidYMid meet" style="width: 100%; height: 100%; transform: translate3d(0px, 0px, 0px); content-visibility: visible;"><defs><clipPath id="__lottie_element_6060"><rect width="430" height="430" x="0" y="0"/></clipPath><clipPath id="__lottie_element_6062"><path d="M0,0 L430,0 L430,430 L0,430z"/></clipPath></defs><g clip-path="url(#__lottie_element_6060)"><g clip-path="url(#__lottie_element_6062)" transform="matrix(1,0,0,1,0,0)" opacity="1" style="display: block;"><g transform="matrix(1,0,0,1,83.49300384521484,303.8370056152344)" opacity="1" style="display: block;"><g opacity="1" transform="matrix(0.9659258127212524,-0.258819043636322,0.258819043636322,0.9659258127212524,0,0)"><path class="secondary" fill="rgb(255,199,56)" fill-opacity="1" d=" M-21.29199981689453,-30.5939998626709 C-34.45800018310547,-27.06599998474121 -42.27199935913086,-13.531999588012695 -38.74399948120117,-0.3659999966621399 C-38.74399948120117,-0.3659999966621399 -32.35599899291992,23.472999572753906 -32.35599899291992,23.472999572753906 C-28.827999114990234,36.638999938964844 -15.295000076293945,44.452999114990234 -2.128999948501587,40.92499923706055 C-2.128999948501587,40.92499923706055 39.590999603271484,29.746999740600586 39.590999603271484,29.746999740600586 C39.590999603271484,29.746999740600586 20.427000045776367,-41.77199935913086 20.427000045776367,-41.77199935913086 C20.427000045776367,-41.77199935913086 -21.29199981689453,-30.5939998626709 -21.29199981689453,-30.5939998626709z"/></g></g><g transform="matrix(1,0,0,1,82.27400207519531,308.510009765625)" opacity="0.5" style="mix-blend-mode: multiply; display: block;"><g opacity="1" transform="matrix(0.8660253882408142,-0.5,0.5,0.8660253882408142,0,0)"><path class="secondary" fill="rgb(255,199,56)" fill-opacity="1" d=" M-23.93600082397461,-23.819000244140625 C-23.93600082397461,-28.062000274658203 -22.864999771118164,-32.05500030517578 -20.979000091552734,-35.542999267578125 C-28.69499969482422,-31.3700008392334 -33.93600082397461,-23.207000732421875 -33.93600082397461,-13.819000244140625 C-33.93600082397461,-13.819000244140625 -33.93600082397461,10.862000465393066 -33.93600082397461,10.862000465393066 C-33.93600082397461,24.493000030517578 -22.88599967956543,35.542999267578125 -9.255000114440918,35.542999267578125 C-9.255000114440918,35.542999267578125 33.93600082397461,35.542999267578125 33.93600082397461,35.542999267578125 C33.93600082397461,35.542999267578125 33.93600082397461,25.542999267578125 33.93600082397461,25.542999267578125 C33.93600082397461,25.542999267578125 0.7450000047683716,25.542999267578125 0.7450000047683716,25.542999267578125 C-12.88599967956543,25.542999267578125 -23.93600082397461,14.493000030517578 -23.93600082397461,0.8619999885559082 C-23.93600082397461,0.8619999885559082 -23.93600082397461,-23.819000244140625 -23.93600082397461,-23.819000244140625z"/></g></g><g transform="matrix(1,0,0,1,77.71099853515625,293.8219909667969)" opacity="1" style="mix-blend-mode: multiply; display: block;"><g opacity="1" transform="matrix(0.8660253882408142,-0.5,0.5,0.8660253882408142,0,0)"><path class="secondary" fill="rgb(255,199,56)" fill-opacity="1" d=" M15,0 C15,0 15,0 15,0 C15,1.3797500133514404 13.87975025177002,2.5 12.5,2.5 C12.5,2.5 -12.5,2.5 -12.5,2.5 C-13.87975025177002,2.5 -15,1.3797500133514404 -15,0 C-15,0 -15,0 -15,0 C-15,-1.3797500133514404 -13.87975025177002,-2.5 -12.5,-2.5 C-12.5,-2.5 12.5,-2.5 12.5,-2.5 C13.87975025177002,-2.5 15,-1.3797500133514404 15,0z"/></g></g><g transform="matrix(1,0,0,1,84.47200012207031,305.5329895019531)" opacity="1" style="mix-blend-mode: multiply; display: block;"><g opacity="1" transform="matrix(0.8660253882408142,-0.5,0.5,0.8660253882408142,0,0)"><path class="secondary" fill="rgb(255,199,56)" fill-opacity="1" d=" M15,0 C15,0 15,0 15,0 C15,1.3797500133514404 13.87975025177002,2.5 12.5,2.5 C12.5,2.5 -12.5,2.5 -12.5,2.5 C-13.87975025177002,2.5 -15,1.3797500133514404 -15,0 C-15,0 -15,0 -15,0 C-15,-1.3797500133514404 -13.87975025177002,-2.5 -12.5,-2.5 C-12.5,-2.5 12.5,-2.5 12.5,-2.5 C13.87975025177002,-2.5 15,-1.3797500133514404 15,0z"/></g></g><g transform="matrix(1,0,0,1,91.23400115966797,317.2449951171875)" opacity="1" style="mix-blend-mode: multiply; display: block;"><g opacity="1" transform="matrix(0.8660253882408142,-0.5,0.5,0.8660253882408142,0,0)"><path class="secondary" fill="rgb(255,199,56)" fill-opacity="1" d=" M15,0 C15,0 15,0 15,0 C15,1.3797500133514404 13.87975025177002,2.5 12.5,2.5 C12.5,2.5 -12.5,2.5 -12.5,2.5 C-13.87975025177002,2.5 -15,1.3797500133514404 -15,0 C-15,0 -15,0 -15,0 C-15,-1.3797500133514404 -13.87975025177002,-2.5 -12.5,-2.5 C-12.5,-2.5 12.5,-2.5 12.5,-2.5 C13.87975025177002,-2.5 15,-1.3797500133514404 15,0z"/></g></g><g transform="matrix(1,0,0,1,199.8040008544922,241.20899963378906)" opacity="1" style="display: block;"><g opacity="1" transform="matrix(0.9659258127212524,-0.258819043636322,0.258819043636322,0.9659258127212524,0,0)"><path class="secondary" fill="rgb(255,199,56)" fill-opacity="1" d=" M-9.57699966430664,-25.01300048828125 C-9.57699966430664,-25.01300048828125 -21.496999740600586,-21.819000244140625 -21.496999740600586,-21.819000244140625 C-21.496999740600586,-21.819000244140625 -8.722000122070312,25.860000610351562 -8.722000122070312,25.860000610351562 C-8.722000122070312,25.860000610351562 3.197999954223633,22.666000366210938 3.197999954223633,22.666000366210938 C16.36400032043457,19.13800048828125 24.17799949645996,5.605000019073486 20.649999618530273,-7.560999870300293 C17.121999740600586,-20.726999282836914 3.5889999866485596,-28.541000366210938 -9.57699966430664,-25.01300048828125z"/></g></g><g transform="matrix(1,0,0,1,192.22799682617188,243.3209991455078)" opacity="0.5" style="mix-blend-mode: multiply; display: block;"><g opacity="1" transform="matrix(0.8660253882408142,-0.5,0.5,0.8660253882408142,0,0)"><path class="secondary" fill="rgb(255,199,56)" fill-opacity="1" d=" M-7.5,-24.680999755859375 C-7.5,-24.680999755859375 4.840000152587891,-24.680999755859375 4.840000152587891,-24.680999755859375 C5.738999843597412,-24.680999755859375 6.625999927520752,-24.632999420166016 7.5,-24.538999557495117 C7.5,-24.538999557495117 7.5,24.538999557495117 7.5,24.538999557495117 C6.625999927520752,24.632999420166016 5.738999843597412,24.680999755859375 4.840000152587891,24.680999755859375 C4.840000152587891,24.680999755859375 -7.5,24.680999755859375 -7.5,24.680999755859375 C-7.5,24.680999755859375 -7.5,-24.680999755859375 -7.5,-24.680999755859375z"/></g></g><g transform="matrix(1,0,0,1,122.16900634765625,362.0260009765625)" opacity="1" style="display: block;"><g opacity="1" transform="matrix(1,0,0,1,0,0)"><path class="octonary" fill="rgb(58,51,71)" fill-opacity="1" d=" M1.9210000038146973,-36.61800003051758 C1.9210000038146973,-36.61800003051758 25.624000549316406,-3.009999990463257 25.624000549316406,-3.009999990463257 C33.98899841308594,8.850000381469727 30.36400032043457,25.33099937438965 17.795000076293945,32.5880012512207 C17.795000076293945,32.5880012512207 11.51200008392334,36.215999603271484 11.51200008392334,36.215999603271484 C10.168000221252441,36.992000579833984 8.454999923706055,36.6150016784668 7.560999870300293,35.34700012207031 C7.560999870300293,35.34700012207031 -30.139999389648438,-18.107999801635742 -30.139999389648438,-18.107999801635742 C-30.139999389648438,-18.107999801635742 1.9210000038146973,-36.61800003051758 1.9210000038146973,-36.61800003051758z"/></g></g><g transform="matrix(1,0,0,1,117.67400360107422,362.0260009765625)" opacity="0.5" style="mix-blend-mode: multiply; display: block;"><g opacity="1" transform="matrix(1,0,0,1,0,0)"><path class="octonary" fill="rgb(58,51,71)" fill-opacity="1" d=" M-7.65500020980835,-16.94700050354004 C-7.65500020980835,-16.94700050354004 25.645000457763672,30.26799964904785 25.645000457763672,30.26799964904785 C24.610000610351562,31.118000030517578 23.490999221801758,31.895000457763672 22.290000915527344,32.5880012512207 C22.290000915527344,32.5880012512207 16.006999969482422,36.215999603271484 16.006999969482422,36.215999603271484 C14.663000106811523,36.992000579833984 12.949000358581543,36.6150016784668 12.055000305175781,35.34700012207031 C12.055000305175781,35.34700012207031 -25.645000457763672,-18.107999801635742 -25.645000457763672,-18.107999801635742 C-25.645000457763672,-18.107999801635742 6.415999889373779,-36.61800003051758 6.415999889373779,-36.61800003051758 C6.415999889373779,-36.61800003051758 12.20300006866455,-28.413000106811523 12.20300006866455,-28.413000106811523 C12.20300006866455,-28.413000106811523 -7.65500020980835,-16.94700050354004 -7.65500020980835,-16.94700050354004z"/></g></g><g transform="matrix(1,0,0,1,155.17800903320312,256.4010009765625)" opacity="1" style="display: block;"><g opacity="1" transform="matrix(1,0,0,1,0,0)"><path class="quaternary" fill="rgb(235,230,239)" fill-opacity="1" d=" M-62.76599884033203,1.7999999523162842 C-62.76599884033203,1.7999999523162842 -6.138000011444092,-64.86399841308594 -6.138000011444092,-64.86399841308594 C-4.795000076293945,-66.44499969482422 -2.2899999618530273,-66.21900177001953 -1.253000020980835,-64.4219970703125 C-1.253000020980835,-64.4219970703125 62.361000061035156,45.762001037597656 62.361000061035156,45.762001037597656 C63.39799880981445,47.558998107910156 62.34299850463867,49.84000015258789 60.301998138427734,50.2130012512207 C60.301998138427734,50.2130012512207 -25.7450008392334,65.9219970703125 -25.7450008392334,65.9219970703125 C-25.7450008392334,65.9219970703125 -62.76599884033203,1.7999999523162842 -62.76599884033203,1.7999999523162842z"/></g></g><g transform="matrix(1,0,0,1,155.1790008544922,282.16900634765625)" opacity="0.5" style="mix-blend-mode: multiply; display: block;"><g opacity="1" transform="matrix(1,0,0,1,0,0)"><path class="quaternary" fill="rgb(235,230,239)" fill-opacity="1" d=" M-15.923999786376953,17.163999557495117 C-15.923999786376953,17.163999557495117 -49.016998291015625,-40.15399932861328 -49.016998291015625,-40.15399932861328 C-49.016998291015625,-40.15399932861328 -62.76599884033203,-23.968000411987305 -62.76599884033203,-23.968000411987305 C-62.76599884033203,-23.968000411987305 -25.7450008392334,40.15399932861328 -25.7450008392334,40.15399932861328 C-25.7450008392334,40.15399932861328 60.301998138427734,24.44499969482422 60.301998138427734,24.44499969482422 C62.34299850463867,24.07200050354004 63.39799880981445,21.791000366210938 62.361000061035156,19.993999481201172 C62.361000061035156,19.993999481201172 53.417999267578125,4.504000186920166 53.417999267578125,4.504000186920166 C53.417999267578125,4.504000186920166 -15.923999786376953,17.163999557495117 -15.923999786376953,17.163999557495117z"/></g></g><g transform="matrix(1,0,0,1,131.88400268554688,293.9519958496094)" opacity="1" style="display: block;"><g opacity="1" transform="matrix(1,0,0,1,0,0)"><path stroke-linecap="round" stroke-linejoin="round" fill-opacity="0" class="primary" stroke="rgb(18,19,49)" stroke-opacity="1" stroke-width="7" d=" M66.18900299072266,-25.506999969482422 C66.18900299072266,-25.506999969482422 76.8759994506836,-31.677000045776367 76.8759994506836,-31.677000045776367 C88.68099975585938,-38.492000579833984 92.7239990234375,-53.58599853515625 85.90899658203125,-65.39099884033203 C79.09400177001953,-77.19599914550781 64,-81.23999786376953 52.19499969482422,-74.42500305175781 C52.19499969482422,-74.42500305175781 41.507999420166016,-68.25499725341797 41.507999420166016,-68.25499725341797 M-7.794000148773193,31.45599937438965 C-7.794000148773193,31.45599937438965 15.909000396728516,65.06400299072266 15.909000396728516,65.06400299072266 C24.27400016784668,76.92400360107422 20.64900016784668,93.40499877929688 8.079999923706055,100.66200256347656 C8.079999923706055,100.66200256347656 -0.5759999752044678,105.66000366210938 -0.5759999752044678,105.66000366210938 C-0.5759999752044678,105.66000366210938 -39.85499954223633,49.96699905395508 -39.85499954223633,49.96699905395508 M-2.450000047683716,28.371000289916992 C-2.450000047683716,28.371000289916992 87.78399658203125,11.897000312805176 87.78399658203125,11.897000312805176 C87.78399658203125,11.897000312805176 19.913000106811523,-105.66000366210938 19.913000106811523,-105.66000366210938 C19.913000106811523,-105.66000366210938 -39.47100067138672,-35.750999450683594 -39.47100067138672,-35.750999450683594 M-76.8759994506836,-14.156000137329102 C-88.68099975585938,-7.341000080108643 -92.7239990234375,7.754000186920166 -85.90899658203125,19.55900001525879 C-85.90899658203125,19.55900001525879 -73.56900024414062,40.93299865722656 -73.56900024414062,40.93299865722656 C-66.75399780273438,52.737998962402344 -51.65999984741211,56.78200149536133 -39.85499954223633,49.96699905395508 C-39.85499954223633,49.96699905395508 -2.450000047683716,28.371000289916992 -2.450000047683716,28.371000289916992 C-2.450000047683716,28.371000289916992 -39.47100067138672,-35.750999450683594 -39.47100067138672,-35.750999450683594 C-39.47100067138672,-35.750999450683594 -76.8759994506836,-14.156000137329102 -76.8759994506836,-14.156000137329102z"/></g></g><g transform="matrix(1,0,0,1,300,135)" opacity="1" style="display: block;"><g opacity="1" transform="matrix(1,0,0,1,0,0)"><path class="septenary" fill="rgb(242,76,0)" fill-opacity="1" d=" M0,60 C33.137001037597656,60 60,33.137001037597656 60,0 C60,-33.137001037597656 33.137001037597656,-60 0,-60 C-33.137001037597656,-60 -60,-33.137001037597656 -60,0 C-60,33.137001037597656 -33.137001037597656,60 0,60z"/></g></g><g transform="matrix(1,0,0,1,290.18499755859375,137.80599975585938)" opacity="0.5" style="mix-blend-mode: multiply; display: block;"><g opacity="1" transform="matrix(1,0,0,1,0,0)"><path class="septenary" fill="rgb(242,76,0)" fill-opacity="1" d=" M24.815000534057617,47.194000244140625 C33.88199996948242,47.194000244140625 42.479000091552734,45.18299865722656 50.185001373291016,41.582000732421875 C39.527000427246094,51.28099822998047 25.361000061035156,57.194000244140625 9.8149995803833,57.194000244140625 C-23.32200050354004,57.194000244140625 -50.185001373291016,30.33099937438965 -50.185001373291016,-2.805999994277954 C-50.185001373291016,-26.875999450683594 -36.01100158691406,-47.63600158691406 -15.555000305175781,-57.194000244140625 C-27.614999771118164,-46.21900177001953 -35.185001373291016,-30.39699935913086 -35.185001373291016,-12.805999755859375 C-35.185001373291016,20.33099937438965 -8.321999549865723,47.194000244140625 24.815000534057617,47.194000244140625z"/></g></g><g transform="matrix(1,0,0,1,304.6700134277344,134.0070037841797)" opacity="1" style="display: block;"><g opacity="1" transform="matrix(1,0,0,1,0,0)"><path class="quaternary" fill="rgb(235,230,239)" fill-opacity="1" d=" M-14.07699966430664,-22.128999710083008 C-16.075000762939453,-23.381000518798828 -18.670000076293945,-21.94499969482422 -18.670000076293945,-19.586999893188477 C-18.670000076293945,-19.586999893188477 -18.670000076293945,19.586999893188477 -18.670000076293945,19.586999893188477 C-18.670000076293945,21.941999435424805 -16.08099937438965,23.378999710083008 -14.083000183105469,22.132999420166016 C-14.083000183105469,22.132999420166016 17.256999969482422,2.5969998836517334 17.256999969482422,2.5969998836517334 C19.13800048828125,1.4240000247955322 19.142000198364258,-1.3140000104904175 17.26300048828125,-2.490999937057495 C17.26300048828125,-2.490999937057495 -14.07699966430664,-22.128999710083008 -14.07699966430664,-22.128999710083008z"/></g></g><g transform="matrix(1,0,0,1,304.6700134277344,142.8260040283203)" opacity="0.5" style="mix-blend-mode: multiply; display: block;"><g opacity="1" transform="matrix(1,0,0,1,0,0)"><path class="quaternary" fill="rgb(235,230,239)" fill-opacity="1" d=" M-18.670000076293945,10.769000053405762 C-18.670000076293945,10.769000053405762 -18.670000076293945,6.173999786376953 -18.670000076293945,6.173999786376953 C-18.670000076293945,6.173999786376953 13.329999923706055,-13.77400016784668 13.329999923706055,-13.77400016784668 C13.329999923706055,-13.77400016784668 17.26300048828125,-11.3100004196167 17.26300048828125,-11.3100004196167 C19.142000198364258,-10.133000373840332 19.13800048828125,-7.394999980926514 17.256999969482422,-6.2220001220703125 C17.256999969482422,-6.2220001220703125 -14.083000183105469,13.3149995803833 -14.083000183105469,13.3149995803833 C-16.08099937438965,14.560999870300293 -18.670000076293945,13.12399959564209 -18.670000076293945,10.769000053405762z"/></g></g><g transform="matrix(1,0,0,1,300,135)" opacity="1" style="display: block;"><g opacity="1" transform="matrix(1,0,0,1,0,0)"><path stroke-linecap="round" stroke-linejoin="round" fill-opacity="0" class="primary" stroke="rgb(18,19,49)" stroke-opacity="1" stroke-width="7" d=" M26,-0.9350000023841858 C26,-0.9350000023841858 -14,-26 -14,-26 C-14,-26 -14,24 -14,24 C-14,24 26,-0.9350000023841858 26,-0.9350000023841858z"/></g><g opacity="1" transform="matrix(1,0,0,1,0,0)"><path stroke-linecap="round" stroke-linejoin="round" fill-opacity="0" class="primary" stroke="rgb(18,19,49)" stroke-opacity="1" stroke-width="7" d=" M60,0 C60,33.137001037597656 33.137001037597656,60 0,60 C-33.137001037597656,60 -60,33.137001037597656 -60,0 C-60,-33.137001037597656 -33.137001037597656,-60 0,-60 C33.137001037597656,-60 60,-33.137001037597656 60,0z"/></g></g><g transform="matrix(1,0,0,1,130,100)" opacity="1" style="display: block;"><g opacity="1" transform="matrix(1,0,0,1,0,0)"><path class="senary" fill="rgb(75,179,253)" fill-opacity="1" d=" M-39.880001068115234,55 C-39.880001068115234,55 39.880001068115234,55 39.880001068115234,55 C48.19599914550781,55 55,48.19599914550781 55,39.880001068115234 C55,39.880001068115234 55,-39.880001068115234 55,-39.880001068115234 C55,-48.19599914550781 48.19599914550781,-55 39.880001068115234,-55 C39.880001068115234,-55 -39.880001068115234,-55 -39.880001068115234,-55 C-48.19599914550781,-55 -55,-48.19599914550781 -55,-39.880001068115234 C-55,-39.880001068115234 -55,39.880001068115234 -55,39.880001068115234 C-55,48.19599914550781 -48.19599914550781,55 -39.880001068115234,55z"/></g></g><g transform="matrix(1,0,0,1,90.05999755859375,100)" opacity="0.5" style="mix-blend-mode: multiply; display: block;"><g opacity="1" transform="matrix(1,0,0,1,0,0)"><path class="senary" fill="rgb(75,179,253)" fill-opacity="1" d=" M15.0600004196167,55 C15.0600004196167,55 0.05999999865889549,55 0.05999999865889549,55 C-8.255999565124512,55 -15.0600004196167,48.19599914550781 -15.0600004196167,39.880001068115234 C-15.0600004196167,39.880001068115234 -15.0600004196167,-39.880001068115234 -15.0600004196167,-39.880001068115234 C-15.0600004196167,-48.19599914550781 -8.255999565124512,-55 0.05999999865889549,-55 C0.05999999865889549,-55 15.0600004196167,-55 15.0600004196167,-55 C6.74399995803833,-55 -0.05999999865889549,-48.19599914550781 -0.05999999865889549,-39.880001068115234 C-0.05999999865889549,-39.880001068115234 -0.05999999865889549,39.880001068115234 -0.05999999865889549,39.880001068115234 C-0.05999999865889549,48.19599914550781 6.74399995803833,55 15.0600004196167,55z"/></g></g><g transform="matrix(1,0,0,1,130,100)" opacity="1" style="display: block;"><g opacity="1" transform="matrix(1,0,0,1,0,0)"><path stroke-linecap="round" stroke-linejoin="round" fill-opacity="0" class="primary" stroke="rgb(18,19,49)" stroke-opacity="1" stroke-width="7" d=" M-25,15 C-25,15 0,15 0,15 M-25,-15 C-25,-15 25,-15 25,-15"/></g><g opacity="1" transform="matrix(1,0,0,1,0,0)"><path stroke-linecap="round" stroke-linejoin="round" fill-opacity="0" class="primary" stroke="rgb(18,19,49)" stroke-opacity="1" stroke-width="7" d=" M-39.880001068115234,55 C-39.880001068115234,55 39.880001068115234,55 39.880001068115234,55 C48.19599914550781,55 55,48.19599914550781 55,39.880001068115234 C55,39.880001068115234 55,-39.880001068115234 55,-39.880001068115234 C55,-48.19599914550781 48.19599914550781,-55 39.880001068115234,-55 C39.880001068115234,-55 -39.880001068115234,-55 -39.880001068115234,-55 C-48.19599914550781,-55 -55,-48.19599914550781 -55,-39.880001068115234 C-55,-39.880001068115234 -55,39.880001068115234 -55,39.880001068115234 C-55,48.19599914550781 -48.19599914550781,55 -39.880001068115234,55z"/></g></g><g transform="matrix(1,0,0,1,325,305)" opacity="1" style="display: block;"><g opacity="1" transform="matrix(1,0,0,1,0,0)"><path class="quinary" fill="rgb(249,201,192)" fill-opacity="1" d=" M-39.880001068115234,55 C-39.880001068115234,55 39.880001068115234,55 39.880001068115234,55 C48.19599914550781,55 55,48.19599914550781 55,39.880001068115234 C55,39.880001068115234 55,-39.880001068115234 55,-39.880001068115234 C55,-48.19599914550781 48.19599914550781,-55 39.880001068115234,-55 C39.880001068115234,-55 -39.880001068115234,-55 -39.880001068115234,-55 C-48.19599914550781,-55 -55,-48.19599914550781 -55,-39.880001068115234 C-55,-39.880001068115234 -55,39.880001068115234 -55,39.880001068115234 C-55,48.19599914550781 -48.19599914550781,55 -39.880001068115234,55z"/></g></g><g transform="matrix(1,0,0,1,285.05999755859375,305)" opacity="0.5" style="mix-blend-mode: multiply; display: block;"><g opacity="1" transform="matrix(1,0,0,1,0,0)"><path class="quinary" fill="rgb(249,201,192)" fill-opacity="1" d=" M15.0600004196167,55 C15.0600004196167,55 0.05999999865889549,55 0.05999999865889549,55 C-8.255999565124512,55 -15.0600004196167,48.19599914550781 -15.0600004196167,39.880001068115234 C-15.0600004196167,39.880001068115234 -15.0600004196167,-39.880001068115234 -15.0600004196167,-39.880001068115234 C-15.0600004196167,-48.19599914550781 -8.255999565124512,-55 0.05999999865889549,-55 C0.05999999865889549,-55 15.0600004196167,-55 15.0600004196167,-55 C6.74399995803833,-55 -0.05999999865889549,-48.19599914550781 -0.05999999865889549,-39.880001068115234 C-0.05999999865889549,-39.880001068115234 -0.05999999865889549,39.880001068115234 -0.05999999865889549,39.880001068115234 C-0.05999999865889549,48.19599914550781 6.74399995803833,55 15.0600004196167,55z"/></g></g><g transform="matrix(1,0,0,1,325,323.8789978027344)" opacity="1" style="display: block;"><g opacity="1" transform="matrix(1,0,0,1,0,0)"><path class="tertiary" fill="rgb(44,165,141)" fill-opacity="1" d=" M39.880001068115234,36.12099838256836 C39.880001068115234,36.12099838256836 -39.880001068115234,36.12099838256836 -39.880001068115234,36.12099838256836 C-48.19599914550781,36.12099838256836 -55,29.316999435424805 -55,21.000999450683594 C-55,21.000999450683594 -55,14.156000137329102 -55,14.156000137329102 C-55,14.156000137329102 -27.163000106811523,-20.016000747680664 -27.163000106811523,-20.016000747680664 C-25.961000442504883,-21.492000579833984 -23.704999923706055,-21.48900032043457 -22.506000518798828,-20.010000228881836 C-22.506000518798828,-20.010000228881836 -5.989999771118164,0.3709999918937683 -5.989999771118164,0.3709999918937683 C-5.989999771118164,0.3709999918937683 22.836999893188477,-35.01599884033203 22.836999893188477,-35.01599884033203 C24.038999557495117,-36.492000579833984 26.295000076293945,-36.48899841308594 27.493999481201172,-35.0099983215332 C27.493999481201172,-35.0099983215332 55,-1.0679999589920044 55,-1.0679999589920044 C55,-1.0679999589920044 55,21.000999450683594 55,21.000999450683594 C55,29.316999435424805 48.19599914550781,36.12099838256836 39.880001068115234,36.12099838256836z"/></g></g><g transform="matrix(1,0,0,1,285.05999755859375,339.8110046386719)" opacity="0.5" style="mix-blend-mode: multiply; display: block;"><g opacity="1" transform="matrix(1,0,0,1,0,0)"><path class="tertiary" fill="rgb(44,165,141)" fill-opacity="1" d=" M15.0600004196167,20.18899917602539 C6.74399995803833,20.18899917602539 -0.05999999865889549,13.385000228881836 -0.05999999865889549,5.068999767303467 C-0.05999999865889549,5.068999767303467 -0.05999999865889549,-20.18899917602539 -0.05999999865889549,-20.18899917602539 C-0.05999999865889549,-20.18899917602539 -15.0600004196167,-1.7760000228881836 -15.0600004196167,-1.7760000228881836 C-15.0600004196167,-1.7760000228881836 -15.0600004196167,5.068999767303467 -15.0600004196167,5.068999767303467 C-15.0600004196167,13.385000228881836 -8.255999565124512,20.18899917602539 0.05999999865889549,20.18899917602539 C0.05999999865889549,20.18899917602539 15.0600004196167,20.18899917602539 15.0600004196167,20.18899917602539z"/></g></g><g transform="matrix(1,0,0,1,297.14898681640625,337.5090026855469)" opacity="0.4" style="mix-blend-mode: multiply; display: block;"><g opacity="1" transform="matrix(1,0,0,1,0,0)"><path class="tertiary" fill="rgb(44,165,141)" fill-opacity="1" d=" M21.861000061035156,-13.260000228881836 C21.861000061035156,-13.260000228881836 -10.135000228881836,22.490999221801758 -10.135000228881836,22.490999221801758 C-10.135000228881836,22.490999221801758 -12.029000282287598,22.490999221801758 -12.029000282287598,22.490999221801758 C-15.774999618530273,22.490999221801758 -19.211999893188477,21.110000610351562 -21.861000061035156,18.83300018310547 C-21.861000061035156,18.83300018310547 6.861000061035156,-13.260000228881836 6.861000061035156,-13.260000228881836 C6.861000061035156,-13.260000228881836 14.380999565124512,-22.490999221801758 14.380999565124512,-22.490999221801758 C14.380999565124512,-22.490999221801758 21.861000061035156,-13.260000228881836 21.861000061035156,-13.260000228881836z"/></g></g><g transform="matrix(1,0,0,1,317.5,277.5)" opacity="1" style="display: block;"><g opacity="1" transform="matrix(1,0,0,1,7.5,34.5)"><path stroke-linecap="round" stroke-linejoin="round" fill-opacity="0" class="primary" stroke="rgb(18,19,49)" stroke-opacity="1" stroke-width="7" d=" M-55,26.017000198364258 C-55,26.017000198364258 -24.83099937438965,-11.017000198364258 -24.83099937438965,-11.017000198364258 C-24.83099937438965,-11.017000198364258 -5.989999771118164,12.232000350952148 -5.989999771118164,12.232000350952148 C-5.989999771118164,12.232000350952148 25.16900062561035,-26.017000198364258 25.16900062561035,-26.017000198364258 C25.16900062561035,-26.017000198364258 55,10.793999671936035 55,10.793999671936035"/></g><g opacity="1" transform="matrix(1,0,0,1,7.5,34.5)"><path stroke-linecap="round" stroke-linejoin="round" fill-opacity="0" class="primary" stroke="rgb(18,19,49)" stroke-opacity="1" stroke-width="12" d=" M-7.295000076293945,-34.641998291015625 C-7.295000076293945,-34.641998291015625 -7.214000225067139,-34.53799819946289 -7.214000225067139,-34.53799819946289"/></g><g opacity="1" transform="matrix(1,0,0,1,7.5,27.5)"><path stroke-linecap="round" stroke-linejoin="round" fill-opacity="0" class="primary" stroke="rgb(18,19,49)" stroke-opacity="1" stroke-width="7" d=" M-39.880001068115234,55 C-39.880001068115234,55 39.880001068115234,55 39.880001068115234,55 C48.19599914550781,55 55,48.19599914550781 55,39.880001068115234 C55,39.880001068115234 55,-39.880001068115234 55,-39.880001068115234 C55,-48.19599914550781 48.19599914550781,-55 39.880001068115234,-55 C39.880001068115234,-55 -39.880001068115234,-55 -39.880001068115234,-55 C-48.19599914550781,-55 -55,-48.19599914550781 -55,-39.880001068115234 C-55,-39.880001068115234 -55,39.880001068115234 -55,39.880001068115234 C-55,48.19599914550781 -48.19599914550781,55 -39.880001068115234,55z"/></g></g></g></g></svg>