<svg xmlns="http://www.w3.org/2000/svg" xmlns:xlink="http://www.w3.org/1999/xlink" viewBox="0 0 430 430" width="430" height="430" preserveAspectRatio="xMidYMid meet" style="width: 100%; height: 100%; transform: translate3d(0px, 0px, 0px); content-visibility: visible;"><defs><clipPath id="__lottie_element_4908"><rect width="430" height="430" x="0" y="0"/></clipPath><clipPath id="__lottie_element_4910"><path d="M0,0 L430,0 L430,430 L0,430z"/></clipPath><g id="__lottie_element_4932"><g transform="matrix(1,0,0,1,211.14100646972656,89.68699645996094)" opacity="1" style="display: block;"><g opacity="1" transform="matrix(1,0,0,1,0,0)"><path stroke-linecap="round" stroke-linejoin="round" fill-opacity="0" stroke="rgb(8,168,138)" stroke-opacity="1" stroke-width="0" d=" M-57.090999603271484,46.053001403808594 C-18.01099967956543,44.42300033569336 13.189000129699707,20.113000869750977 27.73900032043457,-14.04699993133545 C60.5260009765625,9.312999725341797 58.76499938964844,29.77400016784668 64.69499969482422,49.48400115966797 C79.07499694824219,29.83799934387207 76.25599670410156,-9.26200008392334 66.19200134277344,-24.687000274658203 C57.816001892089844,-37.525001525878906 42.5260009765625,-41.6870002746582 42.5260009765625,-41.6870002746582 C20.733999252319336,-46.97100067138672 -1.555999994277954,-39.14400100708008 -12.609000205993652,-34.185001373291016 C-17.201000213623047,-32.125 -22.533000946044922,-32.63199996948242 -26.628999710083008,-35.55500030517578 C-26.628999710083008,-35.55500030517578 -42.507999420166016,-46.88600158691406 -42.507999420166016,-46.88600158691406 C-48.441001892089844,-51.31399917602539 -56.856998443603516,-49.9379997253418 -61.071998596191406,-43.85300064086914 C-66.46600341796875,-36.06700134277344 -71.79399871826172,-24.406999588012695 -73.89099884033203,-10.437000274658203 C-78.82599639892578,22.43899917602539 -56.98400115966797,45.941001892089844 -56.98400115966797,45.941001892089844"/><path fill="rgb(255,0,0)" fill-opacity="1" d=" M-57.090999603271484,46.053001403808594 C-18.01099967956543,44.42300033569336 13.189000129699707,20.113000869750977 27.73900032043457,-14.04699993133545 C60.5260009765625,9.312999725341797 58.76499938964844,29.77400016784668 64.69499969482422,49.48400115966797 C79.07499694824219,29.83799934387207 76.25599670410156,-9.26200008392334 66.19200134277344,-24.687000274658203 C57.816001892089844,-37.525001525878906 42.5260009765625,-41.6870002746582 42.5260009765625,-41.6870002746582 C20.733999252319336,-46.97100067138672 -1.555999994277954,-39.14400100708008 -12.609000205993652,-34.185001373291016 C-17.201000213623047,-32.125 -22.533000946044922,-32.63199996948242 -26.628999710083008,-35.55500030517578 C-26.628999710083008,-35.55500030517578 -42.507999420166016,-46.88600158691406 -42.507999420166016,-46.88600158691406 C-48.441001892089844,-51.31399917602539 -56.856998443603516,-49.9379997253418 -61.071998596191406,-43.85300064086914 C-66.46600341796875,-36.06700134277344 -71.79399871826172,-24.406999588012695 -73.89099884033203,-10.437000274658203 C-78.82599639892578,22.43899917602539 -56.98400115966797,45.941001892089844 -56.98400115966797,45.941001892089844"/></g></g></g><g id="__lottie_element_4947"><g transform="matrix(1,0,0,1,216.14100646972656,104.68699645996094)" opacity="1" style="display: block;"><g opacity="1" transform="matrix(1,0,0,1,0,0)"><path fill="rgb(58,51,71)" fill-opacity="1" d=" M-57.090999603271484,46.053001403808594 C-18.01099967956543,44.42300033569336 13.189000129699707,20.113000869750977 27.73900032043457,-14.04699993133545 C60.5260009765625,9.312999725341797 58.76499938964844,29.77400016784668 64.69499969482422,49.48400115966797 C79.07499694824219,29.83799934387207 76.25599670410156,-9.26200008392334 66.19200134277344,-24.687000274658203 C57.816001892089844,-37.525001525878906 42.5260009765625,-41.6870002746582 42.5260009765625,-41.6870002746582 C20.733999252319336,-46.97100067138672 -1.555999994277954,-39.14400100708008 -12.609000205993652,-34.185001373291016 C-17.201000213623047,-32.125 -22.533000946044922,-32.63199996948242 -26.628999710083008,-35.55500030517578 C-26.628999710083008,-35.55500030517578 -42.507999420166016,-46.88600158691406 -42.507999420166016,-46.88600158691406 C-48.441001892089844,-51.31399917602539 -56.856998443603516,-49.9379997253418 -61.071998596191406,-43.85300064086914 C-66.46600341796875,-36.06700134277344 -71.79399871826172,-24.406999588012695 -73.89099884033203,-10.437000274658203 C-78.82599639892578,22.43899917602539 -56.98400115966797,45.941001892089844 -56.98400115966797,45.941001892089844"/></g></g></g><filter id="__lottie_element_4974" filterUnits="objectBoundingBox" x="0%" y="0%" width="100%" height="100%"><feComponentTransfer in="SourceGraphic"><feFuncA type="table" tableValues="1.0 0.0"/></feComponentTransfer></filter><mask id="__lottie_element_4947_2" mask-type="alpha" maskUnits="userSpaceOnUse"><g filter="url(#__lottie_element_4974)"><rect width="430" height="430" x="0" y="0" fill="#ffffff" opacity="0"/><use xmlns:ns1="http://www.w3.org/1999/xlink" ns1:href="#__lottie_element_4947"/></g></mask><filter id="__lottie_element_4975" filterUnits="objectBoundingBox" x="0%" y="0%" width="100%" height="100%"><feComponentTransfer in="SourceGraphic"><feFuncA type="table" tableValues="1.0 0.0"/></feComponentTransfer></filter><mask id="__lottie_element_4932_2" mask-type="alpha" maskUnits="userSpaceOnUse"><g filter="url(#__lottie_element_4975)"><rect width="430" height="430" x="0" y="0" fill="#ffffff" opacity="0"/><use xmlns:ns2="http://www.w3.org/1999/xlink" ns2:href="#__lottie_element_4932"/></g></mask></defs><g clip-path="url(#__lottie_element_4908)"><g clip-path="url(#__lottie_element_4910)" transform="matrix(1,0,0,1,0,0)" opacity="1" style="display: block;"><g transform="matrix(1,0,0,1,215,215)" opacity="1" style="display: block;"><g opacity="1" transform="matrix(1,0,0,1,0,0)"><path stroke-linecap="round" stroke-linejoin="round" fill-opacity="0" class="quinary" stroke="rgb(100,110,120)" stroke-opacity="1" stroke-width="0" d=" M33.880001068115234,26.690000534057617 C33.880001068115234,26.690000534057617 41.5,26.690000534057617 41.5,26.690000534057617 C87.33999633789062,26.690000534057617 124.5,63.849998474121094 124.5,109.69000244140625 C124.5,109.69000244140625 124.5,137.4499969482422 124.5,137.4499969482422 C124.5,145.07000732421875 118.79000091552734,151.47999572753906 111.22000122070312,152.35000610351562 C111.22000122070312,152.35000610351562 82.18000030517578,155.7100067138672 82.18000030517578,155.7100067138672 C74.23999786376953,156.6300048828125 66.4800033569336,158.66000366210938 59.11000061035156,161.74000549316406 C40.20000076293945,169.64999389648438 20.110000610351562,173.6199951171875 0,173.66000366210938 C-0.10000000149011612,173.66000366210938 -0.20000000298023224,173.66000366210938 -0.30000001192092896,173.66000366210938 C-20.399999618530273,173.66000366210938 -40.5,169.72999572753906 -59.41999816894531,161.86000061035156 C-59.41999816894531,161.86000061035156 -59.619998931884766,161.77999877929688 -59.619998931884766,161.77999877929688 C-67.30999755859375,158.5800018310547 -75.41000366210938,156.47999572753906 -83.69000244140625,155.52000427246094 C-83.69000244140625,155.52000427246094 -111.22000122070312,152.35000610351562 -111.22000122070312,152.35000610351562 C-118.79000091552734,151.47999572753906 -124.5,145.07000732421875 -124.5,137.4499969482422 C-124.5,137.4499969482422 -124.5,109.69000244140625 -124.5,109.69000244140625 C-124.5,63.849998474121094 -87.33999633789062,26.690000534057617 -41.5,26.690000534057617 C-41.5,26.690000534057617 -33.869998931884766,26.690000534057617 -33.869998931884766,26.690000534057617"/><path class="quaternary" fill="rgb(242,139,168)" fill-opacity="1" d=" M33.880001068115234,26.690000534057617 C33.880001068115234,26.690000534057617 41.5,26.690000534057617 41.5,26.690000534057617 C87.33999633789062,26.690000534057617 124.5,63.849998474121094 124.5,109.69000244140625 C124.5,109.69000244140625 124.5,137.4499969482422 124.5,137.4499969482422 C124.5,145.07000732421875 118.79000091552734,151.47999572753906 111.22000122070312,152.35000610351562 C111.22000122070312,152.35000610351562 82.18000030517578,155.7100067138672 82.18000030517578,155.7100067138672 C74.23999786376953,156.6300048828125 66.4800033569336,158.66000366210938 59.11000061035156,161.74000549316406 C40.20000076293945,169.64999389648438 20.110000610351562,173.6199951171875 0,173.66000366210938 C-0.10000000149011612,173.66000366210938 -0.20000000298023224,173.66000366210938 -0.30000001192092896,173.66000366210938 C-20.399999618530273,173.66000366210938 -40.5,169.72999572753906 -59.41999816894531,161.86000061035156 C-59.41999816894531,161.86000061035156 -59.619998931884766,161.77999877929688 -59.619998931884766,161.77999877929688 C-67.30999755859375,158.5800018310547 -75.41000366210938,156.47999572753906 -83.69000244140625,155.52000427246094 C-83.69000244140625,155.52000427246094 -111.22000122070312,152.35000610351562 -111.22000122070312,152.35000610351562 C-118.79000091552734,151.47999572753906 -124.5,145.07000732421875 -124.5,137.4499969482422 C-124.5,137.4499969482422 -124.5,109.69000244140625 -124.5,109.69000244140625 C-124.5,63.849998474121094 -87.33999633789062,26.690000534057617 -41.5,26.690000534057617 C-41.5,26.690000534057617 -33.869998931884766,26.690000534057617 -33.869998931884766,26.690000534057617"/></g></g><g transform="matrix(1,0,0,1,136.13800048828125,305.54901123046875)" opacity="0.5" style="mix-blend-mode: multiply; display: block;"><g opacity="1" transform="matrix(1,0,0,1,0,0)" style="mix-blend-mode: multiply;"><path class="quaternary" fill="rgb(242,139,168)" fill-opacity="1" d=" M45.66999816894531,-56.72999954223633 C17.510000228881836,-49.61000061035156 -9.25,-31.020000457763672 -16.969999313354492,-17.920000076293945 C-26.450000762939453,-1.8300000429153442 -24.399999618530273,63.290000915527344 -24.399999618530273,63.290000915527344 C-24.399999618530273,63.290000915527344 -32.38999938964844,62.369998931884766 -32.38999938964844,62.369998931884766 C-39.959999084472656,61.5 -45.66999816894531,55.09000015258789 -45.66999816894531,47.470001220703125 C-45.66999816894531,47.470001220703125 -45.66999816894531,19.709999084472656 -45.66999816894531,19.709999084472656 C-45.66999816894531,-14.600000381469727 -24.860000610351562,-44.040000915527344 4.829999923706055,-56.689998626708984 C14.8100004196167,-60.939998626708984 25.799999237060547,-63.290000915527344 37.33000183105469,-63.290000915527344 C37.33000183105469,-63.290000915527344 44.959999084472656,-63.290000915527344 44.959999084472656,-63.290000915527344 C44.970001220703125,-62.02000045776367 45.04999923706055,-60.77000045776367 45.209999084472656,-59.540000915527344 C45.2400016784668,-59.22999954223633 45.279998779296875,-58.93000030517578 45.33000183105469,-58.630001068115234 C45.36000061035156,-58.43000030517578 45.38999938964844,-58.22999954223633 45.41999816894531,-58.040000915527344 C45.4900016784668,-57.599998474121094 45.58000183105469,-57.15999984741211 45.66999816894531,-56.72999954223633z"/></g></g><g transform="matrix(1,0,0,1,215,215)" opacity="1" style="display: block;"><g opacity="1" transform="matrix(1,0,0,1,0,0)"><path class="tertiary" fill="rgb(178,104,54)" fill-opacity="1" d=" M33.869998931884766,7.84499979019165 C33.869998931884766,7.84499979019165 33.869998931884766,26.78499984741211 33.869998931884766,26.78499984741211 C33.869998931884766,45.415000915527344 18.6200008392334,60.654998779296875 -0.009999999776482582,60.654998779296875 C-18.639999389648438,60.654998779296875 -33.880001068115234,45.415000915527344 -33.880001068115234,26.78499984741211 C-33.880001068115234,26.78499984741211 -33.880001068115234,7.855000019073486 -33.880001068115234,7.855000019073486"/></g></g><g transform="matrix(1,0,0,1,214.97300720214844,235.91400146484375)" opacity="0.5" style="mix-blend-mode: multiply; display: block;"><g opacity="1" transform="matrix(1,0,0,1,0,0)" style="mix-blend-mode: multiply;"><path class="tertiary" fill="rgb(178,104,54)" fill-opacity="1" d=" M33.875,-12.904999732971191 C33.875,-12.904999732971191 20.375,8.795000076293945 -13.864999771118164,10.024999618530273 C-20.225000381469727,10.255000114440918 -26.735000610351562,11.274999618530273 -33.165000915527344,12.904999732971191 C-33.255001068115234,12.475000381469727 -33.345001220703125,12.03499984741211 -33.415000915527344,11.595000267028809 C-33.44499969482422,11.404999732971191 -33.474998474121094,11.204999923706055 -33.505001068115234,11.005000114440918 C-33.55500030517578,10.704999923706055 -33.595001220703125,10.404999732971191 -33.625,10.095000267028809 C-33.78499984741211,8.864999771118164 -33.8650016784668,7.614999771118164 -33.875,6.34499979019165 C-33.875,6.34499979019165 -33.777000427246094,-41.14500045776367 -33.777000427246094,-41.14500045776367 C-24.14699935913086,-34.48500061035156 21.533000946044922,-47.345001220703125 34.09299850463867,-47.345001220703125 C33.77799987792969,-37.88199996948242 34.027000427246094,-28.131999969482422 33.875,-12.904999732971191z"/></g></g><g mask="url(#__lottie_element_4932_2)" style="display: block;"><g transform="matrix(1,0,0,1,215,103.25)" opacity="1"><g opacity="1" transform="matrix(1,0,0,1,0,0)"><path class="quinary" fill="rgb(100,110,120)" fill-opacity="1" d=" M-75.52400207519531,95.93000030517578 C-75.52400207519531,95.93000030517578 -75.52400207519531,95.93000030517578 -75.52400207519531,95.93000030517578 C-66.73699951171875,95.93000030517578 -59.54800033569336,88.73999786376953 -59.54800033569336,79.9530029296875 C-59.54800033569336,79.9530029296875 -59.54800033569336,49.047000885009766 -59.54800033569336,49.047000885009766 C-59.54800033569336,40.2599983215332 -66.73699951171875,33.06999969482422 -75.52400207519531,33.06999969482422 C-75.52400207519531,33.06999969482422 -75.52400207519531,33.06999969482422 -75.52400207519531,33.06999969482422 C-84.31099700927734,33.06999969482422 -91.5,40.2599983215332 -91.5,49.047000885009766 C-91.5,49.047000885009766 -91.5,79.9530029296875 -91.5,79.9530029296875 C-91.5,88.73999786376953 -84.31099700927734,95.93000030517578 -75.52400207519531,95.93000030517578z M75.72599792480469,95.97599792480469 C75.72599792480469,95.97599792480469 75.72599792480469,95.97599792480469 75.72599792480469,95.97599792480469 C84.51300048828125,95.97599792480469 91.7020034790039,88.78700256347656 91.7020034790039,80 C91.7020034790039,80 91.7020034790039,49.09299850463867 91.7020034790039,49.09299850463867 C91.7020034790039,40.305999755859375 84.51300048828125,33.117000579833984 75.72599792480469,33.117000579833984 C75.72599792480469,33.117000579833984 75.72599792480469,33.117000579833984 75.72599792480469,33.117000579833984 C66.93900299072266,33.117000579833984 59.75,40.305999755859375 59.75,49.09299850463867 C59.75,49.09299850463867 59.75,80 59.75,80 C59.75,88.78700256347656 66.93900299072266,95.97599792480469 75.72599792480469,95.97599792480469z"/><path stroke-linecap="round" stroke-linejoin="round" fill-opacity="0" class="primary" stroke="rgb(18,19,49)" stroke-opacity="1" stroke-width="7" d=" M-75.52400207519531,95.93000030517578 C-75.52400207519531,95.93000030517578 -75.52400207519531,95.93000030517578 -75.52400207519531,95.93000030517578 C-66.73699951171875,95.93000030517578 -59.54800033569336,88.73999786376953 -59.54800033569336,79.9530029296875 C-59.54800033569336,79.9530029296875 -59.54800033569336,49.047000885009766 -59.54800033569336,49.047000885009766 C-59.54800033569336,40.2599983215332 -66.73699951171875,33.06999969482422 -75.52400207519531,33.06999969482422 C-75.52400207519531,33.06999969482422 -75.52400207519531,33.06999969482422 -75.52400207519531,33.06999969482422 C-84.31099700927734,33.06999969482422 -91.5,40.2599983215332 -91.5,49.047000885009766 C-91.5,49.047000885009766 -91.5,79.9530029296875 -91.5,79.9530029296875 C-91.5,88.73999786376953 -84.31099700927734,95.93000030517578 -75.52400207519531,95.93000030517578z M75.72599792480469,95.97599792480469 C75.72599792480469,95.97599792480469 75.72599792480469,95.97599792480469 75.72599792480469,95.97599792480469 C84.51300048828125,95.97599792480469 91.7020034790039,88.78700256347656 91.7020034790039,80 C91.7020034790039,80 91.7020034790039,49.09299850463867 91.7020034790039,49.09299850463867 C91.7020034790039,40.305999755859375 84.51300048828125,33.117000579833984 75.72599792480469,33.117000579833984 C75.72599792480469,33.117000579833984 75.72599792480469,33.117000579833984 75.72599792480469,33.117000579833984 C66.93900299072266,33.117000579833984 59.75,40.305999755859375 59.75,49.09299850463867 C59.75,49.09299850463867 59.75,80 59.75,80 C59.75,88.78700256347656 66.93900299072266,95.97599792480469 75.72599792480469,95.97599792480469z"/></g><g opacity="1" transform="matrix(1,0,0,1,0,0)"><path stroke-linecap="round" stroke-linejoin="round" fill-opacity="0" class="primary" stroke="rgb(18,19,49)" stroke-opacity="1" stroke-width="7" d=" M-91.54499816894531,49.095001220703125 C-91.54499816894531,49.095001220703125 -91.52200317382812,13.942000389099121 -91.52200317382812,13.942000389099121 C-91.52200317382812,-11.236000061035156 -81.23100280761719,-34.11600112915039 -64.63700103759766,-50.709999084472656 C-48.05799865722656,-67.30400085449219 -25.17799949645996,-77.59500122070312 0,-77.59500122070312 C50.34000015258789,-77.59500122070312 91.52200317382812,-36.39799880981445 91.52200317382812,13.942000389099121 C91.52200317382812,13.942000389099121 91.54499816894531,49.345001220703125 91.54499816894531,49.345001220703125"/></g></g></g><g transform="matrix(1,0,0,1,215,215)" opacity="1" style="display: block;"><g opacity="1" transform="matrix(1,0,0,1,0,0)"><path stroke-linecap="round" stroke-linejoin="round" fill-opacity="0" class="primary" stroke="rgb(18,19,49)" stroke-opacity="1" stroke-width="7" d=" M33.869998931884766,7.84499979019165 C33.869998931884766,7.84499979019165 33.869998931884766,26.78499984741211 33.869998931884766,26.78499984741211 C33.869998931884766,45.415000915527344 18.6200008392334,60.654998779296875 -0.009999999776482582,60.654998779296875 C-18.639999389648438,60.654998779296875 -33.880001068115234,45.415000915527344 -33.880001068115234,26.78499984741211 C-33.880001068115234,26.78499984741211 -33.880001068115234,7.855000019073486 -33.880001068115234,7.855000019073486"/></g></g><g transform="matrix(1,0,0,1,215,215)" opacity="1" style="display: block;"><g opacity="1" transform="matrix(1,0,0,1,0,0)"><path stroke-linecap="round" stroke-linejoin="round" fill-opacity="0" class="quinary" stroke="rgb(100,110,120)" stroke-opacity="1" stroke-width="0" d=" M19,-152 C19,-152 61.89799880981445,-127.13200378417969 61.89799880981445,-127.13200378417969 C61.89799880981445,-127.13200378417969 59.57400131225586,-39.5369987487793 59.57400131225586,-39.5369987487793 C58.45800018310547,-7.441999912261963 32.1150016784668,18 0,18 C0,18 0,18 0,18 C-32.1150016784668,18 -58.45800018310547,-7.441999912261963 -59.57400131225586,-39.5369987487793 C-59.57400131225586,-39.5369987487793 -60.64400100708008,-79.66200256347656 -60.64400100708008,-79.66200256347656"/><path class="tertiary" fill="rgb(178,104,54)" fill-opacity="1" d=" M19,-152 C19,-152 61.89799880981445,-127.13200378417969 61.89799880981445,-127.13200378417969 C61.89799880981445,-127.13200378417969 59.57400131225586,-39.5369987487793 59.57400131225586,-39.5369987487793 C58.45800018310547,-7.441999912261963 32.1150016784668,18 0,18 C0,18 0,18 0,18 C-32.1150016784668,18 -58.45800018310547,-7.441999912261963 -59.57400131225586,-39.5369987487793 C-59.57400131225586,-39.5369987487793 -60.64400100708008,-79.66200256347656 -60.64400100708008,-79.66200256347656"/></g></g><g transform="matrix(1,0,0,1,211.14100646972656,89.68699645996094)" opacity="1" style="display: block;"><g opacity="1" transform="matrix(1,0,0,1,0,0)"><path class="secondary" fill="rgb(255,199,56)" fill-opacity="1" d=" M-57.090999603271484,46.053001403808594 C-18.01099967956543,44.42300033569336 13.189000129699707,20.113000869750977 27.73900032043457,-14.04699993133545 C60.5260009765625,9.312999725341797 58.76499938964844,29.77400016784668 64.69499969482422,49.48400115966797 C79.07499694824219,29.83799934387207 76.25599670410156,-9.26200008392334 66.19200134277344,-24.687000274658203 C57.816001892089844,-37.525001525878906 42.5260009765625,-41.6870002746582 42.5260009765625,-41.6870002746582 C20.733999252319336,-46.97100067138672 -1.555999994277954,-39.14400100708008 -12.609000205993652,-34.185001373291016 C-17.201000213623047,-32.125 -22.533000946044922,-32.63199996948242 -26.628999710083008,-35.55500030517578 C-26.628999710083008,-35.55500030517578 -42.507999420166016,-46.88600158691406 -42.507999420166016,-46.88600158691406 C-48.441001892089844,-51.31399917602539 -56.856998443603516,-49.9379997253418 -61.071998596191406,-43.85300064086914 C-66.46600341796875,-36.06700134277344 -71.79399871826172,-24.406999588012695 -73.89099884033203,-10.437000274658203 C-78.82599639892578,22.43899917602539 -56.98400115966797,45.941001892089844 -56.98400115966797,45.941001892089844"/></g></g><g mask="url(#__lottie_element_4947_2)" style="mix-blend-mode: multiply; display: block;"><g transform="matrix(1,0,0,1,211.14100646972656,89.68699645996094)" opacity="0.5"><g opacity="1" transform="matrix(1,0,0,1,0,0)"><path class="secondary" fill="rgb(255,199,56)" fill-opacity="1" d=" M-57.090999603271484,46.053001403808594 C-18.01099967956543,44.42300033569336 13.189000129699707,20.113000869750977 27.73900032043457,-14.04699993133545 C60.5260009765625,9.312999725341797 58.76499938964844,29.77400016784668 64.69499969482422,49.48400115966797 C79.07499694824219,29.83799934387207 76.25599670410156,-9.26200008392334 66.19200134277344,-24.687000274658203 C57.816001892089844,-37.525001525878906 42.5260009765625,-41.6870002746582 42.5260009765625,-41.6870002746582 C20.733999252319336,-46.97100067138672 -1.555999994277954,-39.14400100708008 -12.609000205993652,-34.185001373291016 C-17.201000213623047,-32.125 -22.533000946044922,-32.63199996948242 -26.628999710083008,-35.55500030517578 C-26.628999710083008,-35.55500030517578 -42.507999420166016,-46.88600158691406 -42.507999420166016,-46.88600158691406 C-48.441001892089844,-51.31399917602539 -56.856998443603516,-49.9379997253418 -61.071998596191406,-43.85300064086914 C-66.46600341796875,-36.06700134277344 -71.79399871826172,-24.406999588012695 -73.89099884033203,-10.437000274658203 C-78.82599639892578,22.43899917602539 -56.98400115966797,45.941001892089844 -56.98400115966797,45.941001892089844"/></g></g></g><g transform="matrix(1,0,0,1,-35,-42.665008544921875)" opacity="1" style="display: block;"><g opacity="1" transform="matrix(1,0,0,1,302.42999267578125,364.9360046386719)"><path class="senary" fill="rgb(249,201,192)" fill-opacity="1" d=" M18.375,-21.375 C20.031999588012695,-21.375 21.375,-20.031999588012695 21.375,-18.375 C21.375,-18.375 21.375,-0.004999999888241291 21.375,-0.004999999888241291 C21.375,12.067999839782715 11.37399959564209,21.799999237060547 -0.7860000133514404,21.361000061035156 C-12.368000030517578,20.94300079345703 -21.375,11.069000244140625 -21.375,-0.5199999809265137 C-21.375,-0.5199999809265137 -21.375,-18.375 -21.375,-18.375 C-21.375,-20.031999588012695 -20.031999588012695,-21.375 -18.375,-21.375 C-18.375,-21.375 18.375,-21.375 18.375,-21.375z"/></g><g opacity="0.5" transform="matrix(1,0,0,1,295.9469909667969,364.9360046386719)" style="mix-blend-mode: multiply;"><path class="senary" fill="rgb(249,201,192)" fill-opacity="1" d=" M14.890000343322754,19.655000686645508 C14.569999694824219,19.795000076293945 14.239999771118164,19.924999237060547 13.90999984741211,20.045000076293945 C13.25,20.295000076293945 12.569999694824219,20.5049991607666 11.880000114440918,20.684999465942383 C11.539999961853027,20.774999618530273 11.1899995803833,20.854999542236328 10.84000015258789,20.934999465942383 C10.729999542236328,20.954999923706055 10.609999656677246,20.975000381469727 10.5,20.9950008392334 C10.25,21.045000076293945 10,21.084999084472656 9.739999771118164,21.125 C8.680000305175781,21.295000076293945 7.590000152587891,21.375 6.489999771118164,21.375 C6.119999885559082,21.375 5.75,21.364999771118164 5.389999866485596,21.344999313354492 C5.389999866485596,21.344999313354492 5.380000114440918,21.344999313354492 5.380000114440918,21.344999313354492 C5.070000171661377,21.334999084472656 4.760000228881836,21.30500030517578 4.460000038146973,21.274999618530273 C4.289999961853027,21.264999389648438 4.119999885559082,21.2450008392334 3.950000047683716,21.21500015258789 C3.75,21.204999923706055 3.549999952316284,21.174999237060547 3.3499999046325684,21.145000457763672 C3.059999942779541,21.104999542236328 2.7799999713897705,21.05500030517578 2.490000009536743,20.9950008392334 C-7.409999847412109,19.125 -14.890000343322754,10.4350004196167 -14.890000343322754,-0.004999999888241291 C-14.890000343322754,-0.004999999888241291 -14.890000343322754,-18.375 -14.890000343322754,-18.375 C-14.890000343322754,-20.024999618530273 -13.550000190734863,-21.375 -11.890000343322754,-21.375 C-11.890000343322754,-21.375 -10.420000076293945,-21.375 -10.420000076293945,-21.375 C-10.420000076293945,-21.375 -10.420000076293945,-5.385000228881836 -10.420000076293945,-5.385000228881836 C-10.420000076293945,8.454999923706055 0.800000011920929,19.665000915527344 14.640000343322754,19.665000915527344 C14.720000267028809,19.665000915527344 14.8100004196167,19.665000915527344 14.890000343322754,19.655000686645508z"/></g></g><g style="display: none;"><path class="senary"/><g><path class="senary"/><path stroke-linecap="round" stroke-linejoin="round" fill-opacity="0" class="quinary"/></g></g><g transform="matrix(1,0,0,1,270.4949951171875,178.99099731445312)" opacity="1" style="display: block;"><g opacity="1" transform="matrix(1,0,0,1,0,0)"><g opacity="1" transform="matrix(1,0,0,1,-45.15700149536133,17.033000946044922)"><path class="quinary" fill="rgb(100,110,120)" fill-opacity="1" d=" M-3.756999969482422,5.639999866485596 C-3.756999969482422,5.639999866485596 3.756999969482422,5.639999866485596 3.756999969482422,5.639999866485596 C6.859000205993652,5.639999866485596 9.395999908447266,3.1019999980926514 9.395999908447266,0 C9.395999908447266,0 9.395999908447266,0 9.395999908447266,0 C9.395999908447266,-3.1019999980926514 6.859000205993652,-5.639999866485596 3.756999969482422,-5.639999866485596 C3.756999969482422,-5.639999866485596 -3.756999969482422,-5.639999866485596 -3.756999969482422,-5.639999866485596 C-6.859000205993652,-5.639999866485596 -9.395999908447266,-3.1019999980926514 -9.395999908447266,0 C-9.395999908447266,0 -9.395999908447266,0 -9.395999908447266,0 C-9.395999908447266,3.1019999980926514 -6.859000205993652,5.639999866485596 -3.756999969482422,5.639999866485596z"/></g></g><g opacity="0.5" transform="matrix(1,0,0,1,0,0)" style="mix-blend-mode: multiply;"><g opacity="1" transform="matrix(1,0,0,1,-45.15700149536133,17.033000946044922)"><path class="quinary" fill="rgb(100,110,120)" fill-opacity="1" d=" M-3.756999969482422,5.639999866485596 C-3.756999969482422,5.639999866485596 3.756999969482422,5.639999866485596 3.756999969482422,5.639999866485596 C6.859000205993652,5.639999866485596 9.395999908447266,3.1019999980926514 9.395999908447266,0 C9.395999908447266,0 9.395999908447266,0 9.395999908447266,0 C9.395999908447266,-3.1019999980926514 6.859000205993652,-5.639999866485596 3.756999969482422,-5.639999866485596 C3.756999969482422,-5.639999866485596 -3.756999969482422,-5.639999866485596 -3.756999969482422,-5.639999866485596 C-6.859000205993652,-5.639999866485596 -9.395999908447266,-3.1019999980926514 -9.395999908447266,0 C-9.395999908447266,0 -9.395999908447266,0 -9.395999908447266,0 C-9.395999908447266,3.1019999980926514 -6.859000205993652,5.639999866485596 -3.756999969482422,5.639999866485596z"/></g></g></g><g transform="matrix(1,0,0,1,267.4949951171875,322.0889892578125)" opacity="1" style="display: block;"><g opacity="1" transform="matrix(1,0,0,1,0,0)"><path stroke-linecap="round" stroke-linejoin="round" fill-opacity="0" class="primary" stroke="rgb(18,19,49)" stroke-opacity="1" stroke-width="7" d=" M0,21.375 C0,21.375 0,21.375 0,21.375 C11.805000305175781,21.375 21.375,11.805000305175781 21.375,0 C21.375,0 21.375,-21.375 21.375,-21.375 C21.375,-21.375 -21.375,-21.375 -21.375,-21.375 C-21.375,-21.375 -21.375,0 -21.375,0 C-21.375,11.805000305175781 -11.805000305175781,21.375 0,21.375z"/></g></g><g transform="matrix(1,0,0,1,215,215)" opacity="1" style="display: block;"><g opacity="1" transform="matrix(1,0,0,1,0,0)"><path stroke-linecap="round" stroke-linejoin="round" fill-opacity="0" class="primary" stroke="rgb(18,19,49)" stroke-opacity="1" stroke-width="7" d=" M33.880001068115234,26.690000534057617 C33.880001068115234,26.690000534057617 41.5,26.690000534057617 41.5,26.690000534057617 C87.33999633789062,26.690000534057617 124.5,63.849998474121094 124.5,109.69000244140625 C124.5,109.69000244140625 124.5,137.4499969482422 124.5,137.4499969482422 C124.5,145.07000732421875 118.79000091552734,151.47999572753906 111.22000122070312,152.35000610351562 C111.22000122070312,152.35000610351562 82.18000030517578,155.7100067138672 82.18000030517578,155.7100067138672 C74.23999786376953,156.6300048828125 66.4800033569336,158.66000366210938 59.11000061035156,161.74000549316406 C40.20000076293945,169.64999389648438 20.110000610351562,173.6199951171875 0,173.66000366210938 C-0.10000000149011612,173.66000366210938 -0.20000000298023224,173.66000366210938 -0.30000001192092896,173.66000366210938 C-20.399999618530273,173.66000366210938 -40.5,169.72999572753906 -59.41999816894531,161.86000061035156 C-59.41999816894531,161.86000061035156 -59.619998931884766,161.77999877929688 -59.619998931884766,161.77999877929688 C-67.30999755859375,158.5800018310547 -75.41000366210938,156.47999572753906 -83.69000244140625,155.52000427246094 C-83.69000244140625,155.52000427246094 -111.22000122070312,152.35000610351562 -111.22000122070312,152.35000610351562 C-118.79000091552734,151.47999572753906 -124.5,145.07000732421875 -124.5,137.4499969482422 C-124.5,137.4499969482422 -124.5,109.69000244140625 -124.5,109.69000244140625 C-124.5,63.849998474121094 -87.33999633789062,26.690000534057617 -41.5,26.690000534057617 C-41.5,26.690000534057617 -33.869998931884766,26.690000534057617 -33.869998931884766,26.690000534057617"/></g></g><g transform="matrix(1,0,0,1,215,215)" opacity="1" style="display: block;"><g opacity="1" transform="matrix(1,0,0,1,0,0)"><path stroke-linecap="round" stroke-linejoin="round" fill-opacity="0" class="primary" stroke="rgb(18,19,49)" stroke-opacity="1" stroke-width="7" d=" M60.89799880981445,-76.63200378417969 C60.89799880981445,-76.63200378417969 59.57400131225586,-39.5369987487793 59.57400131225586,-39.5369987487793 C58.45800018310547,-7.441999912261963 32.1150016784668,18 0,18 C0,18 0,18 0,18 C-32.1150016784668,18 -58.45800018310547,-7.441999912261963 -59.57400131225586,-39.5369987487793 C-59.57400131225586,-39.5369987487793 -60.64400100708008,-79.66200256347656 -60.64400100708008,-79.66200256347656"/></g></g><g transform="matrix(1,0,0,1,211.14100646972656,89.68699645996094)" opacity="1" style="display: block;"><g opacity="1" transform="matrix(1,0,0,1,0,0)"><path stroke-linecap="round" stroke-linejoin="round" fill-opacity="0" class="primary" stroke="rgb(18,19,49)" stroke-opacity="1" stroke-width="7" d=" M-57.090999603271484,46.053001403808594 C-18.01099967956543,44.42300033569336 13.189000129699707,20.113000869750977 27.73900032043457,-14.04699993133545 C60.5260009765625,9.312999725341797 58.76499938964844,29.77400016784668 64.69499969482422,49.48400115966797 C79.07499694824219,29.83799934387207 76.25599670410156,-9.26200008392334 66.19200134277344,-24.687000274658203 C57.816001892089844,-37.525001525878906 42.5260009765625,-41.6870002746582 42.5260009765625,-41.6870002746582 C20.733999252319336,-46.97100067138672 -1.555999994277954,-39.14400100708008 -12.609000205993652,-34.185001373291016 C-17.201000213623047,-32.125 -22.533000946044922,-32.63199996948242 -26.628999710083008,-35.55500030517578 C-26.628999710083008,-35.55500030517578 -42.507999420166016,-46.88600158691406 -42.507999420166016,-46.88600158691406 C-48.441001892089844,-51.31399917602539 -56.856998443603516,-49.9379997253418 -61.071998596191406,-43.85300064086914 C-66.46600341796875,-36.06700134277344 -71.79399871826172,-24.406999588012695 -73.89099884033203,-10.437000274658203 C-78.82599639892578,22.43899917602539 -56.98400115966797,45.941001892089844 -56.98400115966797,45.941001892089844"/></g></g><g transform="matrix(1,0,0,1,225.5050048828125,195.68099975585938)" opacity="1" style="display: block;"><g opacity="1" transform="matrix(1,0,0,1,0,0)"><path stroke-linecap="round" stroke-linejoin="round" fill-opacity="0" class="primary" stroke="rgb(18,19,49)" stroke-opacity="1" stroke-width="7" d=" M-3.756999969482422,5.639999866485596 C-3.756999969482422,5.639999866485596 3.756999969482422,5.639999866485596 3.756999969482422,5.639999866485596 C6.859000205993652,5.639999866485596 9.395999908447266,3.1019999980926514 9.395999908447266,0 C9.395999908447266,0 9.395999908447266,0 9.395999908447266,0 C9.395999908447266,-3.1019999980926514 6.859000205993652,-5.639999866485596 3.756999969482422,-5.639999866485596 C3.756999969482422,-5.639999866485596 -3.756999969482422,-5.639999866485596 -3.756999969482422,-5.639999866485596 C-6.859000205993652,-5.639999866485596 -9.395999908447266,-3.1019999980926514 -9.395999908447266,0 C-9.395999908447266,0 -9.395999908447266,0 -9.395999908447266,0 C-9.395999908447266,3.1019999980926514 -6.859000205993652,5.639999866485596 -3.756999969482422,5.639999866485596z"/></g></g><g transform="matrix(1,0,0,1,270.4949951171875,178.99099731445312)" opacity="1" style="display: block;"><g opacity="1" transform="matrix(1,0,0,1,0,0)"><path stroke-linecap="round" stroke-linejoin="round" fill-opacity="0" class="primary" stroke="rgb(18,19,49)" stroke-opacity="1" stroke-width="7" d=" M-36.185001373291016,16.690000534057617 C-36.185001373291016,16.690000534057617 -20.645999908447266,14.427000045776367 -20.645999908447266,14.427000045776367 C-14.246000289916992,13.494999885559082 -8.128000259399414,11.196999549865723 -2.687000036239624,7.699999809265137 C10.972999572753906,-1.0800000429153442 36.185001373291016,-16.690000534057617 36.185001373291016,-16.690000534057617"/></g></g></g></g></svg>