<svg xmlns="http://www.w3.org/2000/svg" xmlns:xlink="http://www.w3.org/1999/xlink" viewBox="0 0 430 430" width="430" height="430" preserveAspectRatio="xMidYMid meet" style="width: 100%; height: 100%; transform: translate3d(0px, 0px, 0px); content-visibility: visible;"><defs><clipPath id="__lottie_element_7243"><rect width="430" height="430" x="0" y="0"/></clipPath><clipPath id="__lottie_element_7245"><path d="M0,0 L430,0 L430,430 L0,430z"/></clipPath></defs><g clip-path="url(#__lottie_element_7243)"><g clip-path="url(#__lottie_element_7245)" transform="matrix(1,0,0,1,0,0)" opacity="1" style="display: block;"><g transform="matrix(1,0,0,1,215,215)" opacity="1" style="display: block;"><g opacity="1" transform="matrix(1,0,0,1,0,0)"><path class="senary" fill="rgb(235,230,239)" fill-opacity="1" d=" M137.7100067138672,-160.1199951171875 C137.7100067138672,-160.1199951171875 -137.7100067138672,-160.1199951171875 -137.7100067138672,-160.1199951171875 C-150.08700561523438,-160.1199951171875 -160.1199951171875,-150.08700561523438 -160.1199951171875,-137.7100067138672 C-160.1199951171875,-137.7100067138672 -160.1199951171875,137.7100067138672 -160.1199951171875,137.7100067138672 C-160.1199951171875,150.08700561523438 -150.08700561523438,160.1199951171875 -137.7100067138672,160.1199951171875 C-137.7100067138672,160.1199951171875 137.7100067138672,160.1199951171875 137.7100067138672,160.1199951171875 C150.08700561523438,160.1199951171875 160.1199951171875,150.08700561523438 160.1199951171875,137.7100067138672 C160.1199951171875,137.7100067138672 160.1199951171875,-137.7100067138672 160.1199951171875,-137.7100067138672 C160.1199951171875,-150.08700561523438 150.08700561523438,-160.1199951171875 137.7100067138672,-160.1199951171875z"/></g><g opacity="1" transform="matrix(1,0,0,1,0,-134.75)"><path class="quinary" fill="rgb(58,51,71)" fill-opacity="1" d=" M160.11000061035156,25.704999923706055 C160.11000061035156,25.704999923706055 160.11000061035156,-3.2950000762939453 160.11000061035156,-3.2950000762939453 C160.11000061035156,-3.2950000762939453 160.11000061035156,-3.2950000762939453 160.11000061035156,-3.2950000762939453 C160.11099243164062,-6.236999988555908 159.5330047607422,-9.149999618530273 158.40899658203125,-11.868000030517578 C157.28500366210938,-14.586000442504883 155.63499450683594,-17.055999755859375 153.55599975585938,-19.136999130249023 C151.4770050048828,-21.218000411987305 149.00799560546875,-22.868999481201172 146.29100036621094,-23.996000289916992 C143.57400512695312,-25.12299919128418 140.66200256347656,-25.70400047302246 137.72000122070312,-25.704999923706055 C137.72000122070312,-25.704999923706055 -137.7100067138672,-25.704999923706055 -137.7100067138672,-25.704999923706055 C-140.65199279785156,-25.704999923706055 -143.5659942626953,-25.125 -146.28399658203125,-23.999000549316406 C-149.0019989013672,-22.87299919128418 -151.47300720214844,-21.222000122070312 -153.55299377441406,-19.141000747680664 C-155.63299560546875,-17.059999465942383 -157.2830047607422,-14.58899974822998 -158.4080047607422,-11.869999885559082 C-159.5330047607422,-9.151000022888184 -160.11099243164062,-6.236999988555908 -160.11000061035156,-3.2950000762939453 C-160.11000061035156,-3.2950000762939453 -160.11000061035156,25.704999923706055 -160.11000061035156,25.704999923706055 C-160.11000061035156,25.704999923706055 160.11000061035156,25.704999923706055 160.11000061035156,25.704999923706055z"/></g><g opacity="1" transform="matrix(1,0,0,1,-72.06199645996094,-134.43800354003906)"><path stroke-linecap="round" stroke-linejoin="round" fill-opacity="0" class="quaternary" stroke="rgb(44,165,141)" stroke-opacity="1" stroke-width="15" d=" M0.06499999761581421,0 C0.06499999761581421,0 -0.06499999761581421,0 -0.06499999761581421,0"/></g><g opacity="1" transform="matrix(1,0,0,1,-100.18800354003906,-134.43800354003906)"><path stroke-linecap="round" stroke-linejoin="round" fill-opacity="0" class="tertiary" stroke="rgb(255,199,56)" stroke-opacity="1" stroke-width="15" d=" M0.06499999761581421,0 C0.06499999761581421,0 -0.06499999761581421,0 -0.06499999761581421,0"/></g><g opacity="1" transform="matrix(1,0,0,1,-128.18800354003906,-134.43800354003906)"><path stroke-linecap="round" stroke-linejoin="round" fill-opacity="0" class="septenary" stroke="rgb(242,76,0)" stroke-opacity="1" stroke-width="15" d=" M0.06499999761581421,0 C0.06499999761581421,0 -0.06499999761581421,0 -0.06499999761581421,0"/></g></g><g transform="matrix(0.75,0,0,0.75,148.6999969482422,182.02000427246094)" opacity="1" style="display: block;"><g opacity="1" transform="matrix(1,0,0,1,0,0)"><path stroke-linecap="round" stroke-linejoin="round" fill-opacity="0" class="primary" stroke="rgb(18,19,49)" stroke-opacity="1" stroke-width="9" d=" M28.940000534057617,50.867000579833984 C28.940000534057617,50.867000579833984 -25.023000717163086,4 -25.023000717163086,4 C-25.023000717163086,4 28.35700035095215,-42.617000579833984 28.35700035095215,-42.617000579833984"/></g></g><g transform="matrix(0.75,0,0,0.75,281.29998779296875,182.02000427246094)" opacity="1" style="display: block;"><g opacity="1" transform="matrix(1,0,0,1,0,0)"><path stroke-linecap="round" stroke-linejoin="round" fill-opacity="0" class="primary" stroke="rgb(18,19,49)" stroke-opacity="1" stroke-width="9" d=" M-28.690000534057617,50.367000579833984 C-28.690000534057617,50.367000579833984 25.190000534057617,3.6670000553131104 25.190000534057617,3.6670000553131104 C25.190000534057617,3.6670000553131104 -28.523000717163086,-42.70000076293945 -28.523000717163086,-42.70000076293945"/></g></g><g transform="matrix(0.7471460103988647,0.06536680459976196,-0.06536680459976196,0.7471460103988647,215.0001220703125,182.01986694335938)" opacity="1" style="display: block;"><g opacity="1" transform="matrix(1,0,0,1,0,0)"><path stroke-linecap="round" stroke-linejoin="round" fill-opacity="0" class="primary" stroke="rgb(18,19,49)" stroke-opacity="1" stroke-width="9" d=" M-15.631999969482422,52.43199920654297 C-15.631999969482422,52.43199920654297 16.358999252319336,-44.13100051879883 16.358999252319336,-44.13100051879883"/></g></g><g transform="matrix(1,0,0,1,-35,-35)" opacity="1" style="display: block;"><g opacity="1" transform="matrix(1,0,0,1,249,141.25399780273438)"><path stroke-linecap="round" stroke-linejoin="round" fill-opacity="0" class="primary" stroke="rgb(18,19,49)" stroke-opacity="1" stroke-width="7" d=" M138.71200561523438,268.8659973144531 C138.71200561523438,268.8659973144531 -136.71200561523438,268.8659973144531 -136.71200561523438,268.8659973144531 C-149.08700561523438,268.8659973144531 -159.11900329589844,258.8330078125 -159.11900329589844,246.45799255371094 C-159.11900329589844,246.45799255371094 -159.11900329589844,-28.965999603271484 -159.11900329589844,-28.965999603271484 C-159.11900329589844,-41.340999603271484 -149.08700561523438,-51.37300109863281 -136.71200561523438,-51.37300109863281 C-136.71200561523438,-51.37300109863281 138.71200561523438,-51.37300109863281 138.71200561523438,-51.37300109863281 C151.08700561523438,-51.37300109863281 161.11900329589844,-41.340999603271484 161.11900329589844,-28.965999603271484 C161.11900329589844,-28.965999603271484 161.11900329589844,246.45799255371094 161.11900329589844,246.45799255371094 C161.11900329589844,258.8330078125 151.08700561523438,268.8659973144531 138.71200561523438,268.8659973144531z M159.11900329589844,0 C159.11900329589844,0 -159.11900329589844,0 -159.11900329589844,0"/></g></g><g transform="matrix(0,0.6000000238418579,-0.6000000238418579,0,214.75,325)" opacity="1" style="display: block;"><g opacity="1" transform="matrix(1,0,0,1,0,0)"><path stroke-linecap="round" stroke-linejoin="round" fill-opacity="0" class="primary" stroke="rgb(18,19,49)" stroke-opacity="1" stroke-width="11" d=" M0,142.08299255371094 C0,142.08299255371094 0,54.75699996948242 0,-23.218000411987305"/></g><g opacity="1" transform="matrix(1,0,0,1,0,0)"><path stroke-linecap="round" stroke-linejoin="round" fill-opacity="0" class="primary" stroke="rgb(18,19,49)" stroke-opacity="1" stroke-width="11" d=" M0,-77.37000274658203 C0,-115.35299682617188 0,-142.91700744628906 0,-142.91700744628906"/></g></g><g transform="matrix(1.0000020265579224,0,0,1.0000020265579224,-0.00048828125,-0.00064849853515625)" opacity="1" style="display: block;"><g opacity="1" transform="matrix(-1,0,0,1,245,325)"><g opacity="1" transform="matrix(1,0,0,1,0,0)"><path class="secondary" fill="rgb(75,179,253)" fill-opacity="1" d=" M0,15 C8.284000396728516,15 15,8.284000396728516 15,0 C15,-8.284000396728516 8.284000396728516,-15 0,-15 C-8.284000396728516,-15 -15,-8.284000396728516 -15,0 C-15,8.284000396728516 -8.284000396728516,15 0,15z"/></g></g><g opacity="0.5" transform="matrix(1,0,0,1,243.11199951171875,325.0249938964844)" style="mix-blend-mode: multiply;"><g opacity="1" transform="matrix(1,0,0,1,0,0)"><path class="secondary" fill="rgb(75,179,253)" fill-opacity="1" d=" M11.887999534606934,9.975000381469727 C3.6040000915527344,9.975000381469727 -3.111999988555908,3.259000062942505 -3.111999988555908,-5.025000095367432 C-3.111999988555908,-8.843000411987305 -1.6859999895095825,-12.32699966430664 0.6629999876022339,-14.975000381469727 C-7.048999786376953,-14.35200023651123 -13.112000465393066,-7.896999835968018 -13.112000465393066,-0.02500000037252903 C-13.112000465393066,8.258999824523926 -6.395999908447266,14.975000381469727 1.8880000114440918,14.975000381469727 C6.354000091552734,14.975000381469727 10.36400032043457,13.02299976348877 13.112000465393066,9.925999641418457 C12.708000183105469,9.958999633789062 12.300000190734863,9.975000381469727 11.887999534606934,9.975000381469727z"/></g></g></g><g transform="matrix(0,-0.6000000238418579,0.6000000238418579,0,173,325)" opacity="1" style="display: block;"><g opacity="1" transform="matrix(1,0,0,1,0,0)"><path stroke-linecap="butt" stroke-linejoin="miter" fill-opacity="0" stroke-miterlimit="4" class="primary" stroke="rgb(18,19,49)" stroke-opacity="1" stroke-width="10" d=" M0,145 C13.807000160217285,145 25,133.8070068359375 25,120 C25,106.19300079345703 13.807000160217285,95 0,95 C-13.807000160217285,95 -25,106.19300079345703 -25,120 C-25,133.8070068359375 -13.807000160217285,145 0,145z"/></g></g><g transform="matrix(0,0.6000000238418579,0.6000000238418579,0,214.75,269.79998779296875)" opacity="1" style="display: block;"><g opacity="1" transform="matrix(1,0,0,1,0,0)"><path stroke-linecap="round" stroke-linejoin="round" fill-opacity="0" class="primary" stroke="rgb(18,19,49)" stroke-opacity="1" stroke-width="11" d=" M0,142.08299255371094 C0,142.08299255371094 0,54.75699996948242 0,-23.218000411987305"/></g><g opacity="1" transform="matrix(1,0,0,1,0,0)"><path stroke-linecap="round" stroke-linejoin="round" fill-opacity="0" class="primary" stroke="rgb(18,19,49)" stroke-opacity="1" stroke-width="11" d=" M0,-74.5199966430664 C0,-113.96700286865234 0,-142.91700744628906 0,-142.91700744628906"/></g></g><g transform="matrix(1.0000020265579224,0,0,1.0000020265579224,-0.0001983642578125,-0.00054168701171875)" opacity="1" style="display: block;"><g opacity="1" transform="matrix(-1,0,0,1,185,270)"><g opacity="1" transform="matrix(1,0,0,1,0,0)"><path class="secondary" fill="rgb(75,179,253)" fill-opacity="1" d=" M0,15 C8.284000396728516,15 15,8.284000396728516 15,0 C15,-8.284000396728516 8.284000396728516,-15 0,-15 C-8.284000396728516,-15 -15,-8.284000396728516 -15,0 C-15,8.284000396728516 -8.284000396728516,15 0,15z"/></g></g><g opacity="0.5" transform="matrix(1,0,0,1,183.11199951171875,270.0249938964844)" style="mix-blend-mode: multiply;"><g opacity="1" transform="matrix(1,0,0,1,0,0)"><path class="secondary" fill="rgb(75,179,253)" fill-opacity="1" d=" M11.887999534606934,9.975000381469727 C3.6040000915527344,9.975000381469727 -3.111999988555908,3.259000062942505 -3.111999988555908,-5.025000095367432 C-3.111999988555908,-8.843000411987305 -1.6859999895095825,-12.32699966430664 0.6629999876022339,-14.975000381469727 C-7.048999786376953,-14.35200023651123 -13.112000465393066,-7.896999835968018 -13.112000465393066,-0.02500000037252903 C-13.112000465393066,8.258999824523926 -6.395999908447266,14.975000381469727 1.8880000114440918,14.975000381469727 C6.354000091552734,14.975000381469727 10.36400032043457,13.02299976348877 13.112000465393066,9.925999641418457 C12.708000183105469,9.958999633789062 12.300000190734863,9.975000381469727 11.887999534606934,9.975000381469727z"/></g></g></g><g transform="matrix(0,0.6000000238418579,-0.6000000238418579,0,257.04998779296875,270)" opacity="1" style="display: block;"><g opacity="1" transform="matrix(1,0,0,1,0,0)"><path stroke-linecap="butt" stroke-linejoin="miter" fill-opacity="0" stroke-miterlimit="4" class="primary" stroke="rgb(18,19,49)" stroke-opacity="1" stroke-width="10" d=" M0,145 C13.807000160217285,145 25,133.8070068359375 25,120 C25,106.19300079345703 13.807000160217285,95 0,95 C-13.807000160217285,95 -25,106.19300079345703 -25,120 C-25,133.8070068359375 -13.807000160217285,145 0,145z"/></g></g></g></g></svg>