<svg xmlns="http://www.w3.org/2000/svg" xmlns:xlink="http://www.w3.org/1999/xlink" viewBox="0 0 430 430" width="430" height="430" preserveAspectRatio="xMidYMid meet" style="width: 100%; height: 100%; transform: translate3d(0px, 0px, 0px); content-visibility: visible;"><defs><clipPath id="__lottie_element_1064"><rect width="430" height="430" x="0" y="0"/></clipPath><clipPath id="__lottie_element_1066"><path d="M0,0 L430,0 L430,430 L0,430z"/></clipPath><clipPath id="__lottie_element_1071"><path d="M0,0 L430,0 L430,430 L0,430z"/></clipPath><g id="__lottie_element_1074"><g transform="matrix(1,0,0,1,215,215)" opacity="1" style="display: block;"><g opacity="1" transform="matrix(1,0,0,1,116,115.5)"><path class="quaternary" fill="rgb(58,51,71)" fill-opacity="1" d=" M0,-37 C20.972200393676758,-37 38,-20.420299530029297 38,0 C38,20.420299530029297 20.972200393676758,37 0,37 C-20.972200393676758,37 -38,20.420299530029297 -38,0 C-38,-20.420299530029297 -20.972200393676758,-37 0,-37z"/><path stroke-linecap="butt" stroke-linejoin="miter" fill-opacity="0" stroke-miterlimit="4" class="primary" stroke="rgb(18,19,49)" stroke-opacity="1" stroke-width="7" d=" M0,-37 C20.972200393676758,-37 38,-20.420299530029297 38,0 C38,20.420299530029297 20.972200393676758,37 0,37 C-20.972200393676758,37 -38,20.420299530029297 -38,0 C-38,-20.420299530029297 -20.972200393676758,-37 0,-37z"/></g></g></g><g id="__lottie_element_1083"><g transform="matrix(-0.33669570088386536,0.780471682548523,-0.780471682548523,-0.33669570088386536,272.0174865722656,305.329345703125)" opacity="1" style="display: block;"><path fill="rgb(58,51,71)" fill-opacity="1" d=" M0,-109.81600189208984 C16.08099937438965,-109.81600189208984 29.118000030517578,-96.77899932861328 29.118000030517578,-80.697998046875 C29.118000030517578,-64.61699676513672 16.08099937438965,-51.58100128173828 0,-51.58100128173828 C-16.08099937438965,-51.58100128173828 -29.118000030517578,-64.61699676513672 -29.118000030517578,-80.697998046875 C-29.118000030517578,-96.77899932861328 -16.08099937438965,-109.81600189208984 0,-109.81600189208984z M71.19400024414062,-66.33100128173828 C71.19400024414062,-66.33100128173828 61.165000915527344,-72.12100219726562 61.165000915527344,-72.12100219726562 C61.55500030517578,-74.9260025024414 61.77199935913086,-77.78600311279297 61.77199935913086,-80.697998046875 C61.77199935913086,-83.61000061035156 61.55500030517578,-86.47100067138672 61.165000915527344,-89.2760009765625 C61.165000915527344,-89.2760009765625 71.19400024414062,-95.06600189208984 71.19400024414062,-95.06600189208984 C76.25499725341797,-97.98799896240234 77.98899841308594,-104.45999908447266 75.06700134277344,-109.52100372314453 C75.06700134277344,-109.52100372314453 62.49399948120117,-131.2969970703125 62.49399948120117,-131.2969970703125 C59.571998596191406,-136.35800170898438 53.099998474121094,-138.0919952392578 48.03900146484375,-135.1699981689453 C48.03900146484375,-135.1699981689453 38.005001068115234,-129.3769989013672 38.005001068115234,-129.3769989013672 C33.51100158691406,-132.88999938964844 28.52199935913086,-135.7949981689453 23.15399932861328,-137.9669952392578 C23.15399932861328,-137.9669952392578 23.15399932861328,-149.53799438476562 23.15399932861328,-149.53799438476562 C23.15399932861328,-155.3820037841797 18.41699981689453,-160.11900329589844 12.572999954223633,-160.11900329589844 C12.572999954223633,-160.11900329589844 -12.572999954223633,-160.11900329589844 -12.572999954223633,-160.11900329589844 C-18.41699981689453,-160.11900329589844 -23.15399932861328,-155.3820037841797 -23.15399932861328,-149.53799438476562 C-23.15399932861328,-149.53799438476562 -23.15399932861328,-137.9669952392578 -23.15399932861328,-137.9669952392578 C-28.52199935913086,-135.7949981689453 -33.51100158691406,-132.89100646972656 -38.005001068115234,-129.3769989013672 C-38.005001068115234,-129.3769989013672 -48.040000915527344,-135.1699981689453 -48.040000915527344,-135.1699981689453 C-53.10100173950195,-138.0919952392578 -59.571998596191406,-136.35800170898438 -62.49399948120117,-131.2969970703125 C-62.49399948120117,-131.2969970703125 -75.06700134277344,-109.52100372314453 -75.06700134277344,-109.52100372314453 C-77.98899841308594,-104.45999908447266 -76.25499725341797,-97.98799896240234 -71.19400024414062,-95.06600189208984 C-71.19400024414062,-95.06600189208984 -61.165000915527344,-89.2760009765625 -61.165000915527344,-89.2760009765625 C-61.55500030517578,-86.47100067138672 -61.77199935913086,-83.61000061035156 -61.77199935913086,-80.697998046875 C-61.77199935913086,-77.78600311279297 -61.55500030517578,-74.9260025024414 -61.165000915527344,-72.12100219726562 C-61.165000915527344,-72.12100219726562 -71.19400024414062,-66.33100128173828 -71.19400024414062,-66.33100128173828 C-76.25499725341797,-63.409000396728516 -77.98899841308594,-56.9370002746582 -75.06700134277344,-51.875999450683594 C-75.06700134277344,-51.875999450683594 -62.49399948120117,-30.100000381469727 -62.49399948120117,-30.100000381469727 C-59.571998596191406,-25.038999557495117 -53.10100173950195,-23.30500030517578 -48.040000915527344,-26.226999282836914 C-48.040000915527344,-26.226999282836914 -38.005001068115234,-32.02000045776367 -38.005001068115234,-32.02000045776367 C-33.51100158691406,-28.506000518798828 -28.52199935913086,-25.60300064086914 -23.15399932861328,-23.43000030517578 C-23.15399932861328,-23.43000030517578 -23.15399932861328,-11.859000205993652 -23.15399932861328,-11.859000205993652 C-23.15399932861328,-6.014999866485596 -18.41699981689453,-1.277999997138977 -12.572999954223633,-1.277999997138977 C-12.572999954223633,-1.277999997138977 12.572999954223633,-1.277999997138977 12.572999954223633,-1.277999997138977 C18.41699981689453,-1.277999997138977 23.15399932861328,-6.014999866485596 23.15399932861328,-11.859000205993652 C23.15399932861328,-11.859000205993652 23.15399932861328,-23.43000030517578 23.15399932861328,-23.43000030517578 C28.52199935913086,-25.60300064086914 33.51100158691406,-28.506000518798828 38.005001068115234,-32.02000045776367 C38.005001068115234,-32.02000045776367 48.03900146484375,-26.226999282836914 48.03900146484375,-26.226999282836914 C53.099998474121094,-23.30500030517578 59.571998596191406,-25.038999557495117 62.49399948120117,-30.100000381469727 C62.49399948120117,-30.100000381469727 75.06700134277344,-51.875999450683594 75.06700134277344,-51.875999450683594 C77.98899841308594,-56.9370002746582 76.25499725341797,-63.409000396728516 71.19400024414062,-66.33100128173828z"/><g opacity="1" transform="matrix(1,0,0,1,0,0)"/></g></g><mask id="__lottie_element_1083_1" mask-type="alpha"><use xmlns:ns1="http://www.w3.org/1999/xlink" ns1:href="#__lottie_element_1083"/></mask><filter id="__lottie_element_1089" filterUnits="objectBoundingBox" x="0%" y="0%" width="100%" height="100%"><feComponentTransfer in="SourceGraphic"><feFuncA type="table" tableValues="1.0 0.0"/></feComponentTransfer></filter><mask id="__lottie_element_1074_2" mask-type="alpha" maskUnits="userSpaceOnUse"><g filter="url(#__lottie_element_1089)"><rect width="430" height="430" x="0" y="0" fill="#ffffff" opacity="0"/><use xmlns:ns2="http://www.w3.org/1999/xlink" ns2:href="#__lottie_element_1074"/></g></mask><g id="__lottie_element_1108"><g transform="matrix(1,0,0,1,252.5,200)" opacity="1" style="display: block;"><path fill="rgb(75,179,253)" fill-opacity="1" d=" M-41.32400131225586,34.826881408691406 C-94.44100189208984,34.826881408691406 -137.5,77.88587951660156 -137.5,131.0028839111328 C-137.5,131.0028839111328 -137.5,150 -137.5,150 C-137.5,150 137.5,150 137.5,150 C137.5,150 137.5,131.0028839111328 137.5,131.0028839111328 C137.5,77.88587951660156 94.44100189208984,34.826881408691406 41.32400131225586,34.826881408691406 C41.32400131225586,34.826881408691406 -41.32400131225586,34.826881408691406 -41.32400131225586,34.826881408691406z"/><g opacity="1" transform="matrix(1,0,0,1,0,0)"/></g></g><g id="__lottie_element_1117"><g transform="matrix(1,0,0,1,193.75,190)" opacity="1" style="display: block;"><path fill="rgb(255,199,56)" fill-opacity="1" d=" M116.25,-36.8 C116.25,1.86 84.91,33.2 46.25,33.2 C7.59,33.2 -23.75,1.86 -23.75,-36.8 C-23.75,-75.46 7.59,-106.8 46.25,-106.8 C84.91,-106.8 116.25,-75.46 116.25,-36.8z"/><g opacity="1" transform="matrix(1,0,0,1,43.75,43.198280334472656)"/></g></g><filter id="__lottie_element_1123" filterUnits="objectBoundingBox" x="0%" y="0%" width="100%" height="100%"><feComponentTransfer in="SourceGraphic"><feFuncA type="table" tableValues="1.0 0.0"/></feComponentTransfer></filter><mask id="__lottie_element_1117_2" mask-type="alpha" maskUnits="userSpaceOnUse"><g filter="url(#__lottie_element_1123)"><rect width="430" height="430" x="0" y="0" fill="#ffffff" opacity="0"/><use xmlns:ns3="http://www.w3.org/1999/xlink" ns3:href="#__lottie_element_1117"/></g></mask><filter id="__lottie_element_1124" filterUnits="objectBoundingBox" x="0%" y="0%" width="100%" height="100%"><feComponentTransfer in="SourceGraphic"><feFuncA type="table" tableValues="1.0 0.0"/></feComponentTransfer></filter><mask id="__lottie_element_1108_2" mask-type="alpha" maskUnits="userSpaceOnUse"><g filter="url(#__lottie_element_1124)"><rect width="430" height="430" x="0" y="0" fill="#ffffff" opacity="0"/><use xmlns:ns4="http://www.w3.org/1999/xlink" ns4:href="#__lottie_element_1108"/></g></mask></defs><g clip-path="url(#__lottie_element_1064)"><g clip-path="url(#__lottie_element_1066)" transform="matrix(1,0,0,1,0,0)" opacity="1" style="display: block;"><g mask="url(#__lottie_element_1074_2)" style="display: block;"><g clip-path="url(#__lottie_element_1071)" transform="matrix(1,0,0,1,0,0)" opacity="1"><g transform="matrix(0.949999988079071,0,0,0.949999988079071,136.5,206.25)" opacity="1" style="display: block;"><g opacity="1" transform="matrix(1,0,0,1,0,0)"><path class="tertiary" fill="rgb(75,179,253)" fill-opacity="1" d=" M-33.902000427246094,29.93637466430664 C-82.83300018310547,29.93637466430664 -122.5,69.6033706665039 -122.5,118.53437805175781 C-122.5,118.53437805175781 -122.5,119.51456451416016 -122.5,119.51456451416016 C-122.5,119.51456451416016 -122.79708862304688,122.57850646972656 -121.57230377197266,123.93569946289062 C-120.4666519165039,125.16049194335938 -117.54899597167969,125 -117.54899597167969,125 C-117.54899597167969,125 122.5,125 122.5,125 C122.5,125 122.5,118.53437805175781 122.5,118.53437805175781 C122.5,69.6033706665039 82.83300018310547,29.93637466430664 33.902000427246094,29.93637466430664 C33.902000427246094,29.93637466430664 -33.902000427246094,29.93637466430664 -33.902000427246094,29.93637466430664z"/><path class="tertiary" fill="rgb(75,179,253)" fill-opacity="0.5" d=" M-33.902000427246094,29.93637466430664 C-82.83300018310547,29.93637466430664 -122.5,69.6033706665039 -122.5,118.53437805175781 C-122.5,118.53437805175781 -122.5,119.51456451416016 -122.5,119.51456451416016 C-122.5,119.51456451416016 -122.79708862304688,122.57850646972656 -121.57230377197266,123.93569946289062 C-120.4666519165039,125.16049194335938 -117.54899597167969,125 -117.54899597167969,125 C-117.54899597167969,125 122.5,125 122.5,125 C122.5,125 122.5,118.53437805175781 122.5,118.53437805175781 C122.5,69.6033706665039 82.83300018310547,29.93637466430664 33.902000427246094,29.93637466430664 C33.902000427246094,29.93637466430664 -33.902000427246094,29.93637466430664 -33.902000427246094,29.93637466430664z" style="mix-blend-mode: multiply;"/></g><g opacity="1" transform="matrix(1,0,0,1,-7,37.74549865722656)"><path class="secondary" fill="rgb(255,199,56)" fill-opacity="1" d=" M62.5,-67.5 C62.5,-35.74399948120117 36.75600051879883,-10 5,-10 C-26.756000518798828,-10 -52.5,-35.74399948120117 -52.5,-67.5 C-52.5,-99.25599670410156 -26.756000518798828,-125 5,-125 C36.75600051879883,-125 62.5,-99.25599670410156 62.5,-67.5z"/><path class="secondary" fill="rgb(255,199,56)" fill-opacity="0.5" d=" M62.5,-67.5 C62.5,-35.74399948120117 36.75600051879883,-10 5,-10 C-26.756000518798828,-10 -52.5,-35.74399948120117 -52.5,-67.5 C-52.5,-99.25599670410156 -26.756000518798828,-125 5,-125 C36.75600051879883,-125 62.5,-99.25599670410156 62.5,-67.5z" style="mix-blend-mode: multiply;"/></g></g><g transform="matrix(0.949999988079071,0,0,0.949999988079071,288.5,206.25)" opacity="1" style="display: block;"><g opacity="1" transform="matrix(1,0,0,1,0,0)"><path class="tertiary" fill="rgb(75,179,253)" fill-opacity="1" d=" M-33.902000427246094,29.93637466430664 C-82.83300018310547,29.93637466430664 -122.5,69.6033706665039 -122.5,118.53437805175781 C-122.5,118.53437805175781 -122.5,125 -122.5,125 C-122.5,125 116.02091979980469,125 116.02091979980469,125 C116.02091979980469,125 119.42415618896484,124.83855438232422 121.0479736328125,123.4151382446289 C122.47138977050781,122.16664123535156 122.5,119.31912994384766 122.5,119.31912994384766 C122.5,119.31912994384766 122.5,118.53437805175781 122.5,118.53437805175781 C122.5,69.6033706665039 82.83300018310547,29.93637466430664 33.902000427246094,29.93637466430664 C33.902000427246094,29.93637466430664 -33.902000427246094,29.93637466430664 -33.902000427246094,29.93637466430664z"/><path class="tertiary" fill="rgb(75,179,253)" fill-opacity="0.5" d=" M-33.902000427246094,29.93637466430664 C-82.83300018310547,29.93637466430664 -122.5,69.6033706665039 -122.5,118.53437805175781 C-122.5,118.53437805175781 -122.5,125 -122.5,125 C-122.5,125 116.02091979980469,125 116.02091979980469,125 C116.02091979980469,125 119.42415618896484,124.83855438232422 121.0479736328125,123.4151382446289 C122.47138977050781,122.16664123535156 122.5,119.31912994384766 122.5,119.31912994384766 C122.5,119.31912994384766 122.5,118.53437805175781 122.5,118.53437805175781 C122.5,69.6033706665039 82.83300018310547,29.93637466430664 33.902000427246094,29.93637466430664 C33.902000427246094,29.93637466430664 -33.902000427246094,29.93637466430664 -33.902000427246094,29.93637466430664z" style="mix-blend-mode: multiply;"/></g><g opacity="1" transform="matrix(1,0,0,1,-3,37.74549865722656)"><path class="secondary" fill="rgb(255,199,56)" fill-opacity="1" d=" M62.5,-67.5 C62.5,-35.74399948120117 36.75600051879883,-10 5,-10 C-26.756000518798828,-10 -52.5,-35.74399948120117 -52.5,-67.5 C-52.5,-99.25599670410156 -26.756000518798828,-125 5,-125 C36.75600051879883,-125 62.5,-99.25599670410156 62.5,-67.5z"/><path class="secondary" fill="rgb(255,199,56)" fill-opacity="0.5" d=" M62.5,-67.5 C62.5,-35.74399948120117 36.75600051879883,-10 5,-10 C-26.756000518798828,-10 -52.5,-35.74399948120117 -52.5,-67.5 C-52.5,-99.25599670410156 -26.756000518798828,-125 5,-125 C36.75600051879883,-125 62.5,-99.25599670410156 62.5,-67.5z" style="mix-blend-mode: multiply;"/></g></g><g transform="matrix(0.949999988079071,0,0,0.949999988079071,136.5,206.25)" opacity="1" style="display: block;"><g opacity="1" transform="matrix(1,0,0,1,0,0)"><path stroke-linecap="butt" stroke-linejoin="round" fill-opacity="0" class="primary" stroke="rgb(18,19,49)" stroke-opacity="1" stroke-width="7" d=" M-33.902000427246094,29.93637466430664 C-82.83300018310547,29.93637466430664 -122.5,69.6033706665039 -122.5,118.53437805175781 C-122.5,118.53437805175781 -122.5,125 -122.5,125 C-122.5,125 122.5,125 122.5,125 C122.5,125 122.5,118.53437805175781 122.5,118.53437805175781 C122.5,69.6033706665039 82.83300018310547,29.93637466430664 33.902000427246094,29.93637466430664 C33.902000427246094,29.93637466430664 -33.902000427246094,29.93637466430664 -33.902000427246094,29.93637466430664z"/></g><g opacity="1" transform="matrix(1,0,0,1,-7,37.74549865722656)"><path stroke-linecap="butt" stroke-linejoin="round" fill-opacity="0" class="primary" stroke="rgb(18,19,49)" stroke-opacity="1" stroke-width="7" d=" M62.5,-67.5 C62.5,-35.74399948120117 36.75600051879883,-10 5,-10 C-26.756000518798828,-10 -52.5,-35.74399948120117 -52.5,-67.5 C-52.5,-99.25599670410156 -26.756000518798828,-125 5,-125 C36.75600051879883,-125 62.5,-99.25599670410156 62.5,-67.5z"/></g></g><g transform="matrix(0.949999988079071,0,0,0.949999988079071,288.5,206.25)" opacity="1" style="display: block;"><g opacity="1" transform="matrix(1,0,0,1,0,0)"><path stroke-linecap="butt" stroke-linejoin="round" fill-opacity="0" class="primary" stroke="rgb(18,19,49)" stroke-opacity="1" stroke-width="7" d=" M-33.902000427246094,29.93637466430664 C-82.83300018310547,29.93637466430664 -122.5,69.6033706665039 -122.5,118.53437805175781 C-122.5,118.53437805175781 -122.5,125 -122.5,125 C-122.5,125 122.5,125 122.5,125 C122.5,125 122.5,118.53437805175781 122.5,118.53437805175781 C122.5,69.6033706665039 82.83300018310547,29.93637466430664 33.902000427246094,29.93637466430664 C33.902000427246094,29.93637466430664 -33.902000427246094,29.93637466430664 -33.902000427246094,29.93637466430664z"/></g><g opacity="1" transform="matrix(1,0,0,1,-3,37.74549865722656)"><path stroke-linecap="butt" stroke-linejoin="round" fill-opacity="0" class="primary" stroke="rgb(18,19,49)" stroke-opacity="1" stroke-width="7" d=" M62.5,-67.5 C62.5,-35.74399948120117 36.75600051879883,-10 5,-10 C-26.756000518798828,-10 -52.5,-35.74399948120117 -52.5,-67.5 C-52.5,-99.25599670410156 -26.756000518798828,-125 5,-125 C36.75600051879883,-125 62.5,-99.25599670410156 62.5,-67.5z"/></g></g><g transform="matrix(1,0,0,1,212.5,200)" opacity="1" style="display: block;"><path class="tertiary" fill="rgb(75,179,253)" fill-opacity="1" d=" M-41.32400131225586,34.826881408691406 C-94.44100189208984,34.826881408691406 -137.5,77.88587951660156 -137.5,131.0028839111328 C-137.5,131.0028839111328 -137.5,142.135498046875 -137.5,142.135498046875 C-137.5,142.135498046875 -138.28013610839844,146.60598754882812 -136.22836303710938,148.2370147705078 C-133.64479064941406,150.28878784179688 -127.60163879394531,150 -127.60163879394531,150 C-127.60163879394531,150 130.0977020263672,150 130.0977020263672,150 C130.0977020263672,150 134.207763671875,149.67739868164062 135.7629852294922,147.7629852294922 C137.67739868164062,145.4038543701172 137.5,140.8845977783203 137.5,140.8845977783203 C137.5,140.8845977783203 137.5,131.0028839111328 137.5,131.0028839111328 C137.5,77.88587951660156 94.44100189208984,34.826881408691406 41.32400131225586,34.826881408691406 C41.32400131225586,34.826881408691406 -41.32400131225586,34.826881408691406 -41.32400131225586,34.826881408691406z"/><g opacity="1" transform="matrix(1,0,0,1,0,0)"/></g><g mask="url(#__lottie_element_1108_2)" style="display: block;"><g transform="matrix(1,0,0,1,212.25,200)" opacity="1"><path class="tertiary" fill="rgb(75,179,253)" fill-opacity="1" d=" M-41.32400131225586,34.826881408691406 C-94.44100189208984,34.826881408691406 -137.5,77.88587951660156 -137.5,131.0028839111328 C-137.5,131.0028839111328 -137.5,142.135498046875 -137.5,142.135498046875 C-137.5,142.135498046875 -138.28013610839844,146.60598754882812 -136.22836303710938,148.2370147705078 C-133.64479064941406,150.28878784179688 -127.60163879394531,150 -127.60163879394531,150 C-127.60163879394531,150 130.0977020263672,150 130.0977020263672,150 C130.0977020263672,150 134.207763671875,149.67739868164062 135.7629852294922,147.7629852294922 C137.67739868164062,145.4038543701172 137.5,140.8845977783203 137.5,140.8845977783203 C137.5,140.8845977783203 137.5,131.0028839111328 137.5,131.0028839111328 C137.5,77.88587951660156 94.44100189208984,34.826881408691406 41.32400131225586,34.826881408691406 C41.32400131225586,34.826881408691406 -41.32400131225586,34.826881408691406 -41.32400131225586,34.826881408691406z"/><path class="tertiary" fill="rgb(75,179,253)" fill-opacity="0.5" d=" M-41.32400131225586,34.826881408691406 C-94.44100189208984,34.826881408691406 -137.5,77.88587951660156 -137.5,131.0028839111328 C-137.5,131.0028839111328 -137.5,142.135498046875 -137.5,142.135498046875 C-137.5,142.135498046875 -138.28013610839844,146.60598754882812 -136.22836303710938,148.2370147705078 C-133.64479064941406,150.28878784179688 -127.60163879394531,150 -127.60163879394531,150 C-127.60163879394531,150 130.0977020263672,150 130.0977020263672,150 C130.0977020263672,150 134.207763671875,149.67739868164062 135.7629852294922,147.7629852294922 C137.67739868164062,145.4038543701172 137.5,140.8845977783203 137.5,140.8845977783203 C137.5,140.8845977783203 137.5,131.0028839111328 137.5,131.0028839111328 C137.5,77.88587951660156 94.44100189208984,34.826881408691406 41.32400131225586,34.826881408691406 C41.32400131225586,34.826881408691406 -41.32400131225586,34.826881408691406 -41.32400131225586,34.826881408691406z" style="mix-blend-mode: multiply;"/><g opacity="1" transform="matrix(1,0,0,1,0,0)"/></g></g><g transform="matrix(1,0,0,1,167.5,200)" opacity="1" style="display: block;"><path class="secondary" fill="rgb(255,199,56)" fill-opacity="1" d=" M117.5,-36.8 C117.5,1.86 86.16,33.2 47.5,33.2 C8.84,33.2 -22.5,1.86 -22.5,-36.8 C-22.5,-75.46 8.84,-106.8 47.5,-106.8 C86.16,-106.8 117.5,-75.46 117.5,-36.8z"/><g opacity="1" transform="matrix(1,0,0,1,45,43.198280334472656)"/></g><g mask="url(#__lottie_element_1117_2)" style="display: block;"><g transform="matrix(1,0,0,1,167.5,200)" opacity="1"><path class="secondary" fill="rgb(255,199,56)" fill-opacity="1" d=" M117.5,-36.8 C117.5,1.86 86.16,33.2 47.5,33.2 C8.84,33.2 -22.5,1.86 -22.5,-36.8 C-22.5,-75.46 8.84,-106.8 47.5,-106.8 C86.16,-106.8 117.5,-75.46 117.5,-36.8z"/><path class="secondary" fill="rgb(255,199,56)" fill-opacity="0.5" d=" M117.5,-36.8 C117.5,1.86 86.16,33.2 47.5,33.2 C8.84,33.2 -22.5,1.86 -22.5,-36.8 C-22.5,-75.46 8.84,-106.8 47.5,-106.8 C86.16,-106.8 117.5,-75.46 117.5,-36.8z" style="mix-blend-mode: multiply;"/><g opacity="1" transform="matrix(1,0,0,1,45,43.198280334472656)"/></g></g><g transform="matrix(1,0,0,1,212.5,200)" opacity="1" style="display: block;"><g opacity="1" transform="matrix(1,0,0,1,0,0)"><path stroke-linecap="butt" stroke-linejoin="round" fill-opacity="0" class="primary" stroke="rgb(18,19,49)" stroke-opacity="1" stroke-width="7" d=" M-41.32400131225586,34.80796432495117 C-94.44100189208984,34.80796432495117 -137.5,77.8669662475586 -137.5,130.9839630126953 C-137.5,130.9839630126953 -137.5,150 -137.5,150 C-137.5,150 137.5,150 137.5,150 C137.5,150 137.5,130.9839630126953 137.5,130.9839630126953 C137.5,77.8669662475586 94.44100189208984,34.80796432495117 41.32400131225586,34.80796432495117 C41.32400131225586,34.80796432495117 -41.32400131225586,34.80796432495117 -41.32400131225586,34.80796432495117z"/></g><g opacity="1" transform="matrix(1,0,0,1,0,43.15504837036133)"><path stroke-linecap="butt" stroke-linejoin="round" fill-opacity="0" class="primary" stroke="rgb(18,19,49)" stroke-opacity="1" stroke-width="7" d=" M72.5,-80 C72.5,-41.34000015258789 41.15999984741211,-10 2.5,-10 C-36.15999984741211,-10 -67.5,-41.34000015258789 -67.5,-80 C-67.5,-118.66000366210938 -36.15999984741211,-150 2.5,-150 C41.15999984741211,-150 72.5,-118.66000366210938 72.5,-80z"/></g></g></g></g><g transform="matrix(-0.33669570088386536,0.780471682548523,-0.780471682548523,-0.33669570088386536,272.0174865722656,305.329345703125)" opacity="1" style="display: block;"><path class="quaternary" fill="rgb(58,51,71)" fill-opacity="1" d=" M0,-109.81600189208984 C16.08099937438965,-109.81600189208984 29.118000030517578,-96.77899932861328 29.118000030517578,-80.697998046875 C29.118000030517578,-64.61699676513672 16.08099937438965,-51.58100128173828 0,-51.58100128173828 C-16.08099937438965,-51.58100128173828 -29.118000030517578,-64.61699676513672 -29.118000030517578,-80.697998046875 C-29.118000030517578,-96.77899932861328 -16.08099937438965,-109.81600189208984 0,-109.81600189208984z M71.19400024414062,-66.33100128173828 C71.19400024414062,-66.33100128173828 61.165000915527344,-72.12100219726562 61.165000915527344,-72.12100219726562 C61.55500030517578,-74.9260025024414 61.77199935913086,-77.78600311279297 61.77199935913086,-80.697998046875 C61.77199935913086,-83.61000061035156 61.55500030517578,-86.47100067138672 61.165000915527344,-89.2760009765625 C61.165000915527344,-89.2760009765625 71.19400024414062,-95.06600189208984 71.19400024414062,-95.06600189208984 C76.25499725341797,-97.98799896240234 77.98899841308594,-104.45999908447266 75.06700134277344,-109.52100372314453 C75.06700134277344,-109.52100372314453 62.49399948120117,-131.2969970703125 62.49399948120117,-131.2969970703125 C59.571998596191406,-136.35800170898438 53.099998474121094,-138.0919952392578 48.03900146484375,-135.1699981689453 C48.03900146484375,-135.1699981689453 38.005001068115234,-129.3769989013672 38.005001068115234,-129.3769989013672 C33.51100158691406,-132.88999938964844 28.52199935913086,-135.7949981689453 23.15399932861328,-137.9669952392578 C23.15399932861328,-137.9669952392578 23.15399932861328,-149.53799438476562 23.15399932861328,-149.53799438476562 C23.15399932861328,-155.3820037841797 18.41699981689453,-160.11900329589844 12.572999954223633,-160.11900329589844 C12.572999954223633,-160.11900329589844 -12.572999954223633,-160.11900329589844 -12.572999954223633,-160.11900329589844 C-18.41699981689453,-160.11900329589844 -23.15399932861328,-155.3820037841797 -23.15399932861328,-149.53799438476562 C-23.15399932861328,-149.53799438476562 -23.15399932861328,-137.9669952392578 -23.15399932861328,-137.9669952392578 C-28.52199935913086,-135.7949981689453 -33.51100158691406,-132.89100646972656 -38.005001068115234,-129.3769989013672 C-38.005001068115234,-129.3769989013672 -48.040000915527344,-135.1699981689453 -48.040000915527344,-135.1699981689453 C-53.10100173950195,-138.0919952392578 -59.571998596191406,-136.35800170898438 -62.49399948120117,-131.2969970703125 C-62.49399948120117,-131.2969970703125 -75.06700134277344,-109.52100372314453 -75.06700134277344,-109.52100372314453 C-77.98899841308594,-104.45999908447266 -76.25499725341797,-97.98799896240234 -71.19400024414062,-95.06600189208984 C-71.19400024414062,-95.06600189208984 -61.165000915527344,-89.2760009765625 -61.165000915527344,-89.2760009765625 C-61.55500030517578,-86.47100067138672 -61.77199935913086,-83.61000061035156 -61.77199935913086,-80.697998046875 C-61.77199935913086,-77.78600311279297 -61.55500030517578,-74.9260025024414 -61.165000915527344,-72.12100219726562 C-61.165000915527344,-72.12100219726562 -71.19400024414062,-66.33100128173828 -71.19400024414062,-66.33100128173828 C-76.25499725341797,-63.409000396728516 -77.98899841308594,-56.9370002746582 -75.06700134277344,-51.875999450683594 C-75.06700134277344,-51.875999450683594 -62.49399948120117,-30.100000381469727 -62.49399948120117,-30.100000381469727 C-59.571998596191406,-25.038999557495117 -53.10100173950195,-23.30500030517578 -48.040000915527344,-26.226999282836914 C-48.040000915527344,-26.226999282836914 -38.005001068115234,-32.02000045776367 -38.005001068115234,-32.02000045776367 C-33.51100158691406,-28.506000518798828 -28.52199935913086,-25.60300064086914 -23.15399932861328,-23.43000030517578 C-23.15399932861328,-23.43000030517578 -23.15399932861328,-11.859000205993652 -23.15399932861328,-11.859000205993652 C-23.15399932861328,-6.014999866485596 -18.41699981689453,-1.277999997138977 -12.572999954223633,-1.277999997138977 C-12.572999954223633,-1.277999997138977 12.572999954223633,-1.277999997138977 12.572999954223633,-1.277999997138977 C18.41699981689453,-1.277999997138977 23.15399932861328,-6.014999866485596 23.15399932861328,-11.859000205993652 C23.15399932861328,-11.859000205993652 23.15399932861328,-23.43000030517578 23.15399932861328,-23.43000030517578 C28.52199935913086,-25.60300064086914 33.51100158691406,-28.506000518798828 38.005001068115234,-32.02000045776367 C38.005001068115234,-32.02000045776367 48.03900146484375,-26.226999282836914 48.03900146484375,-26.226999282836914 C53.099998474121094,-23.30500030517578 59.571998596191406,-25.038999557495117 62.49399948120117,-30.100000381469727 C62.49399948120117,-30.100000381469727 75.06700134277344,-51.875999450683594 75.06700134277344,-51.875999450683594 C77.98899841308594,-56.9370002746582 76.25499725341797,-63.409000396728516 71.19400024414062,-66.33100128173828z"/><g opacity="1" transform="matrix(1,0,0,1,0,0)"/></g><g mask="url(#__lottie_element_1083_1)" style="display: block;"><g transform="matrix(1,0,0,1,215,215)" opacity="1"><g opacity="1" transform="matrix(1,0,0,1,67.75,116.25)"><path class="quaternary" fill="rgb(58,51,71)" fill-opacity="1" d=" M51.75,-99.75 C51.75,-99.75 51.75,99.75 51.75,99.75 C51.75,99.75 -51.75,99.75 -51.75,99.75 C-51.75,99.75 -51.75,-99.75 -51.75,-99.75 C-51.75,-99.75 51.75,-99.75 51.75,-99.75z"/><path class="quaternary" fill="rgb(58,51,71)" fill-opacity="0.5" d=" M51.75,-99.75 C51.75,-99.75 51.75,99.75 51.75,99.75 C51.75,99.75 -51.75,99.75 -51.75,99.75 C-51.75,99.75 -51.75,-99.75 -51.75,-99.75 C-51.75,-99.75 51.75,-99.75 51.75,-99.75z" style="mix-blend-mode: multiply;"/></g></g></g><g transform="matrix(-0.33669570088386536,0.780471682548523,-0.780471682548523,-0.33669570088386536,272.0174865722656,305.329345703125)" opacity="1" style="display: block;"><g opacity="1" transform="matrix(1,0,0,1,0,0)"><path stroke-linecap="round" stroke-linejoin="round" fill-opacity="0" class="primary" stroke="rgb(18,19,49)" stroke-opacity="1" stroke-width="10" d=" M0,-109.81600189208984 C16.08099937438965,-109.81600189208984 29.118000030517578,-96.77899932861328 29.118000030517578,-80.697998046875 C29.118000030517578,-64.61699676513672 16.08099937438965,-51.58100128173828 0,-51.58100128173828 C-16.08099937438965,-51.58100128173828 -29.118000030517578,-64.61699676513672 -29.118000030517578,-80.697998046875 C-29.118000030517578,-96.77899932861328 -16.08099937438965,-109.81600189208984 0,-109.81600189208984z M71.19400024414062,-66.33100128173828 C71.19400024414062,-66.33100128173828 61.165000915527344,-72.12100219726562 61.165000915527344,-72.12100219726562 C61.55500030517578,-74.9260025024414 61.77199935913086,-77.78600311279297 61.77199935913086,-80.697998046875 C61.77199935913086,-83.61000061035156 61.55500030517578,-86.47100067138672 61.165000915527344,-89.2760009765625 C61.165000915527344,-89.2760009765625 71.19400024414062,-95.06600189208984 71.19400024414062,-95.06600189208984 C76.25499725341797,-97.98799896240234 77.98899841308594,-104.45999908447266 75.06700134277344,-109.52100372314453 C75.06700134277344,-109.52100372314453 62.49399948120117,-131.2969970703125 62.49399948120117,-131.2969970703125 C59.571998596191406,-136.35800170898438 53.099998474121094,-138.0919952392578 48.03900146484375,-135.1699981689453 C48.03900146484375,-135.1699981689453 38.005001068115234,-129.3769989013672 38.005001068115234,-129.3769989013672 C33.51100158691406,-132.88999938964844 28.52199935913086,-135.7949981689453 23.15399932861328,-137.9669952392578 C23.15399932861328,-137.9669952392578 23.15399932861328,-149.53799438476562 23.15399932861328,-149.53799438476562 C23.15399932861328,-155.3820037841797 18.41699981689453,-160.11900329589844 12.572999954223633,-160.11900329589844 C12.572999954223633,-160.11900329589844 -12.572999954223633,-160.11900329589844 -12.572999954223633,-160.11900329589844 C-18.41699981689453,-160.11900329589844 -23.15399932861328,-155.3820037841797 -23.15399932861328,-149.53799438476562 C-23.15399932861328,-149.53799438476562 -23.15399932861328,-137.9669952392578 -23.15399932861328,-137.9669952392578 C-28.52199935913086,-135.7949981689453 -33.51100158691406,-132.89100646972656 -38.005001068115234,-129.3769989013672 C-38.005001068115234,-129.3769989013672 -48.040000915527344,-135.1699981689453 -48.040000915527344,-135.1699981689453 C-53.10100173950195,-138.0919952392578 -59.571998596191406,-136.35800170898438 -62.49399948120117,-131.2969970703125 C-62.49399948120117,-131.2969970703125 -75.06700134277344,-109.52100372314453 -75.06700134277344,-109.52100372314453 C-77.98899841308594,-104.45999908447266 -76.25499725341797,-97.98799896240234 -71.19400024414062,-95.06600189208984 C-71.19400024414062,-95.06600189208984 -61.165000915527344,-89.2760009765625 -61.165000915527344,-89.2760009765625 C-61.55500030517578,-86.47100067138672 -61.77199935913086,-83.61000061035156 -61.77199935913086,-80.697998046875 C-61.77199935913086,-77.78600311279297 -61.55500030517578,-74.9260025024414 -61.165000915527344,-72.12100219726562 C-61.165000915527344,-72.12100219726562 -71.19400024414062,-66.33100128173828 -71.19400024414062,-66.33100128173828 C-76.25499725341797,-63.409000396728516 -77.98899841308594,-56.9370002746582 -75.06700134277344,-51.875999450683594 C-75.06700134277344,-51.875999450683594 -62.49399948120117,-30.100000381469727 -62.49399948120117,-30.100000381469727 C-59.571998596191406,-25.038999557495117 -53.10100173950195,-23.30500030517578 -48.040000915527344,-26.226999282836914 C-48.040000915527344,-26.226999282836914 -38.005001068115234,-32.02000045776367 -38.005001068115234,-32.02000045776367 C-33.51100158691406,-28.506000518798828 -28.52199935913086,-25.60300064086914 -23.15399932861328,-23.43000030517578 C-23.15399932861328,-23.43000030517578 -23.15399932861328,-11.859000205993652 -23.15399932861328,-11.859000205993652 C-23.15399932861328,-6.014999866485596 -18.41699981689453,-1.277999997138977 -12.572999954223633,-1.277999997138977 C-12.572999954223633,-1.277999997138977 12.572999954223633,-1.277999997138977 12.572999954223633,-1.277999997138977 C18.41699981689453,-1.277999997138977 23.15399932861328,-6.014999866485596 23.15399932861328,-11.859000205993652 C23.15399932861328,-11.859000205993652 23.15399932861328,-23.43000030517578 23.15399932861328,-23.43000030517578 C28.52199935913086,-25.60300064086914 33.51100158691406,-28.506000518798828 38.005001068115234,-32.02000045776367 C38.005001068115234,-32.02000045776367 48.03900146484375,-26.226999282836914 48.03900146484375,-26.226999282836914 C53.099998474121094,-23.30500030517578 59.571998596191406,-25.038999557495117 62.49399948120117,-30.100000381469727 C62.49399948120117,-30.100000381469727 75.06700134277344,-51.875999450683594 75.06700134277344,-51.875999450683594 C77.98899841308594,-56.9370002746582 76.25499725341797,-63.409000396728516 71.19400024414062,-66.33100128173828z"/></g></g></g></g></svg>