<svg xmlns="http://www.w3.org/2000/svg" xmlns:xlink="http://www.w3.org/1999/xlink" viewBox="0 0 430 430" width="430" height="430" preserveAspectRatio="xMidYMid meet" style="width: 100%; height: 100%; transform: translate3d(0px, 0px, 0px); content-visibility: visible;"><defs><clipPath id="__lottie_element_701"><rect width="430" height="430" x="0" y="0"/></clipPath><clipPath id="__lottie_element_703"><path d="M0,0 L430,0 L430,430 L0,430z"/></clipPath><clipPath id="__lottie_element_714"><path d="M0,0 L430,0 L430,430 L0,430z"/></clipPath><clipPath id="__lottie_element_718"><path d="M0,0 L430,0 L430,430 L0,430z"/></clipPath></defs><g clip-path="url(#__lottie_element_701)"><g clip-path="url(#__lottie_element_703)" transform="matrix(1,0,0,1,0,0)" opacity="1" style="display: block;"><g transform="matrix(1,0,0,1,215.31500244140625,214.58599853515625)" opacity="1" style="display: block;"><g opacity="1" transform="matrix(1,0,0,1,0,0)"><path class="secondary" fill="rgb(75,179,253)" fill-opacity="1" d=" M166.0500030517578,0 C166.0500030517578,91.70600128173828 91.70600128173828,166.0500030517578 0,166.0500030517578 C-91.70600128173828,166.0500030517578 -166.0500030517578,91.70600128173828 -166.0500030517578,0 C-166.0500030517578,-91.70600128173828 -91.70600128173828,-166.0500030517578 0,-166.0500030517578 C91.70600128173828,-166.0500030517578 166.0500030517578,-91.70600128173828 166.0500030517578,0z"/></g></g><g transform="matrix(1,0,0,1,131.77099609375,214.58599853515625)" opacity="0.5" style="mix-blend-mode: multiply; display: block;"><g opacity="1" transform="matrix(1,0,0,1,0,0)" style="mix-blend-mode: multiply;"><path class="secondary" fill="rgb(75,179,253)" fill-opacity="1" d=" M82.36499786376953,166.0399932861328 C-8.725000381469727,165.33999633789062 -82.36499786376953,91.2699966430664 -82.36499786376953,0 C-82.36499786376953,-91.26000213623047 -8.725000381469727,-165.33999633789062 82.36499786376953,-166.0399932861328 C26.415000915527344,-164.88999938964844 -18.71500015258789,-90.9800033569336 -18.71500015258789,0 C-18.71500015258789,90.98999786376953 26.415000915527344,164.88999938964844 82.36499786376953,166.0399932861328z"/></g></g><g clip-path="url(#__lottie_element_714)" transform="matrix(1,0,0,1,0,0)" opacity="1" style="display: block;"><g clip-path="url(#__lottie_element_718)" transform="matrix(1,0,0,1,0,0)" opacity="1" style="display: block;"><g transform="matrix(1,0,0,1,350.7720031738281,214.99899291992188)" opacity="1" style="display: block;"><g opacity="1" transform="matrix(1,0,0,1,0,0)"><path stroke-linecap="round" stroke-linejoin="round" fill-opacity="0" class="primary" stroke="rgb(18,19,49)" stroke-opacity="1" stroke-width="7" d=" M-301.2770080566406,-0.00800000037997961 C-301.2770080566406,-0.00800000037997961 -274.9630126953125,-0.008999999612569809 -243.31199645996094,-0.010999999940395355 M30.277000427246094,0 C30.277000427246094,0 3.9030001163482666,-0.0010000000474974513 -27.819000244140625,-0.0010000000474974513"/></g></g><g transform="matrix(1,0,0,1,215.0050048828125,100.48100280761719)" opacity="1" style="display: block;"><g opacity="1" transform="matrix(1,0,0,1,0,0)"><path stroke-linecap="round" stroke-linejoin="round" fill-opacity="0" class="primary" stroke="rgb(18,19,49)" stroke-opacity="1" stroke-width="7" d=" M107.35099792480469,-12.137999534606934 C78.42500305175781,3.00600004196167 40.96500015258789,12.137999534606934 0.017000000923871994,12.137999534606934 C-40.930999755859375,12.137999534606934 -78.39199829101562,3.00600004196167 -107.35099792480469,-12.137999534606934"/></g></g><g transform="matrix(1,0,0,1,215.0050048828125,329.52301025390625)" opacity="1" style="display: block;"><g opacity="1" transform="matrix(1,0,0,1,0,0)"><path stroke-linecap="round" stroke-linejoin="round" fill-opacity="0" class="primary" stroke="rgb(18,19,49)" stroke-opacity="1" stroke-width="7" d=" M-107.35099792480469,12.137999534606934 C-78.42500305175781,-3.00600004196167 -40.96500015258789,-12.137999534606934 -0.017000000923871994,-12.137999534606934 C40.930999755859375,-12.137999534606934 78.39199829101562,-3.00600004196167 107.35099792480469,12.137999534606934"/></g></g><g transform="matrix(1,0,0,1,267.85699462890625,214.99899291992188)" opacity="1" style="display: block;"><g opacity="1" transform="matrix(1,0,0,1,0,0)"><path stroke-linecap="round" stroke-linejoin="round" fill-opacity="0" class="primary" stroke="rgb(18,19,49)" stroke-opacity="1" stroke-width="7" d=" M-154.85699462890625,0 C-154.85699462890625,0 -154.85699462890625,0 -154.85699462890625,0 C-154.85699462890625,-91.70600128173828 -109.19200134277344,-166.0500030517578 -52.85900115966797,-166.0500030517578 M-52.85900115966797,166.0500030517578 C-109.19200134277344,166.0500030517578 -154.85699462890625,91.70600128173828 -154.85699462890625,0"/></g></g><g transform="matrix(1,0,0,1,267.85699462890625,214.99899291992188)" opacity="1" style="display: block;"><g opacity="1" transform="matrix(1,0,0,1,0,0)"><path stroke-linecap="round" stroke-linejoin="round" fill-opacity="0" class="primary" stroke="rgb(18,19,49)" stroke-opacity="1" stroke-width="7" d=" M-52.856998443603516,-53.36899948120117 C-52.856998443603516,-118.8949966430664 -52.858001708984375,-166.0500030517578 -52.85900115966797,-166.0500030517578 M-52.85900115966797,166.0500030517578 C-52.858001708984375,166.0500030517578 -52.856998443603516,119.94400024414062 -52.856998443603516,55.56100082397461"/></g></g><g transform="matrix(1,0,0,1,267.85699462890625,214.99899291992188)" opacity="1" style="display: block;"><g opacity="1" transform="matrix(1,0,0,1,0,0)"><path stroke-linecap="round" stroke-linejoin="round" fill-opacity="0" class="primary" stroke="rgb(18,19,49)" stroke-opacity="1" stroke-width="7" d=" M52.85900115966797,0 C52.85900115966797,-91.70600128173828 5.5279998779296875,-166.0500030517578 -52.85900115966797,-166.0500030517578 M-52.85900115966797,166.0500030517578 C5.5279998779296875,166.0500030517578 52.85900115966797,91.70600128173828 52.85900115966797,0 C52.85900115966797,0 52.85900115966797,0 52.85900115966797,0"/></g></g><g transform="matrix(1,0,0,1,215.0019989013672,215.00100708007812)" opacity="1" style="display: block;"><g opacity="1" transform="matrix(1,0,0,1,0,0)"><path stroke-linecap="round" stroke-linejoin="round" fill-opacity="0" class="primary" stroke="rgb(18,19,49)" stroke-opacity="1" stroke-width="7" d=" M166.0500030517578,0 C166.0500030517578,91.70600128173828 91.70600128173828,166.0500030517578 0,166.0500030517578 C-91.70600128173828,166.0500030517578 -166.0500030517578,91.70600128173828 -166.0500030517578,0 C-166.0500030517578,-91.70600128173828 -91.70600128173828,-166.0500030517578 0,-166.0500030517578 C91.70600128173828,-166.0500030517578 166.0500030517578,-91.70600128173828 166.0500030517578,0z"/></g></g><g transform="matrix(1,0,0,1,-35,-35)" opacity="1" style="display: block;"><g opacity="1" transform="matrix(1,0,0,1,250.843994140625,250)"><path stroke-linecap="round" stroke-linejoin="round" fill-opacity="0" class="primary" stroke="rgb(18,19,49)" stroke-opacity="1" stroke-width="7" d=" M16.211999893188477,-24.898000717163086 C16.211999893188477,-24.898000717163086 16.211999893188477,24.898000717163086 16.211999893188477,24.898000717163086 C16.211999893188477,24.898000717163086 -16.211999893188477,-24.898000717163086 -16.211999893188477,-24.898000717163086 C-16.211999893188477,-24.898000717163086 -16.211999893188477,24.898000717163086 -16.211999893188477,24.898000717163086"/></g><g opacity="1" transform="matrix(1,0,0,1,309.5039978027344,250)"><g opacity="1" transform="matrix(1,0,0,1,0,0)"><path stroke-linecap="round" stroke-linejoin="round" fill-opacity="0" class="primary" stroke="rgb(18,19,49)" stroke-opacity="1" stroke-width="7" d=" M17.10099983215332,-15.788000106811523 C12.680000305175781,-23.35099983215332 2.98799991607666,-27.969999313354492 -5.619999885559082,-25.179000854492188 C-10.33899974822998,-23.64900016784668 -14.305000305175781,-19.47100067138672 -14.829000473022461,-14.536999702453613 C-16.81800079345703,4.198999881744385 17.968000411987305,-5.460000038146973 17.50200080871582,13.678000450134277 C17.422000885009766,16.964000701904297 15.647000312805176,20.08099937438965 13.11400032043457,22.174999237060547 C10.581000328063965,24.268999099731445 7.354000091552734,25.408000946044922 4.0929999351501465,25.82200050354004 C-4.083000183105469,26.860000610351562 -12.413999557495117,23.297000885009766 -17.506999969482422,16.87299919128418"/></g></g><g opacity="1" transform="matrix(1,0,0,1,192.1840057373047,250)"><path stroke-linecap="round" stroke-linejoin="round" fill-opacity="0" class="primary" stroke="rgb(18,19,49)" stroke-opacity="1" stroke-width="7" d=" M-5.703000068664551,-24.898000717163086 C-5.703000068664551,-24.898000717163086 -19.19499969482422,-24.898000717163086 -19.19499969482422,-24.898000717163086 C-19.19499969482422,-24.898000717163086 -19.19499969482422,24.898000717163086 -19.19499969482422,24.898000717163086 C-19.19499969482422,24.898000717163086 -5.703000068664551,24.898000717163086 -5.703000068664551,24.898000717163086 C8.04800033569336,24.898000717163086 19.19499969482422,13.75100040435791 19.19499969482422,0 C19.19499969482422,0 19.19499969482422,0 19.19499969482422,0 C19.19499969482422,-13.75100040435791 8.04800033569336,-24.898000717163086 -5.703000068664551,-24.898000717163086z"/></g></g></g></g></g></g></svg>