<svg xmlns="http://www.w3.org/2000/svg" xmlns:xlink="http://www.w3.org/1999/xlink" viewBox="0 0 430 430" width="430" height="430" preserveAspectRatio="xMidYMid meet" style="width: 100%; height: 100%; transform: translate3d(0px, 0px, 0px); content-visibility: visible;"><defs><clipPath id="__lottie_element_3634"><rect width="430" height="430" x="0" y="0"/></clipPath><clipPath id="__lottie_element_3636"><path d="M0,0 L430,0 L430,430 L0,430z"/></clipPath><g id="__lottie_element_3647"><g transform="matrix(1,0,0,1,-37.5,-37.5)" opacity="1" style="display: block;"><g opacity="1" transform="matrix(1,0,0,1,11,0.5)"><g opacity="1" transform="matrix(1,0,0,1,311.260986328125,158.5749969482422)"><path class="quaternary" fill="rgb(249,201,192)" fill-opacity="1" d=" M21.863000869750977,5.566999912261963 C21.863000869750977,5.566999912261963 4.807000160217285,28.00200080871582 4.807000160217285,28.00200080871582 C4.7220001220703125,28.107999801635742 4.6479997634887695,28.214000701904297 4.541999816894531,28.30900001525879 C3.0199999809265137,30.115999221801758 0.675000011920929,30.898000717163086 -1.5549999475479126,30.538999557495117 C-1.7239999771118164,30.517000198364258 -1.9040000438690186,30.475000381469727 -2.072999954223633,30.43400001525879 C-2.940000057220459,30.232999801635742 -3.7639999389648438,29.851999282836914 -4.513999938964844,29.2810001373291 C-4.513999938964844,29.2810001373291 -7.789999961853027,26.79800033569336 -7.789999961853027,26.79800033569336 C-7.789999961853027,26.79800033569336 -17.607999801635742,19.336999893188477 -17.607999801635742,19.336999893188477 C-18.68600082397461,18.523000717163086 -19.66900062561035,17.625 -20.54599952697754,16.663000106811523 C-20.841999053955078,16.334999084472656 -21.115999221801758,16.018999099731445 -21.391000747680664,15.680000305175781 C-21.41200065612793,15.670000076293945 -21.42300033569336,15.64900016784668 -21.43400001525879,15.626999855041504 C-21.677000045776367,15.331999778747559 -21.909000396728516,15.026000022888184 -22.131000518798828,14.708000183105469 C-22.35300064086914,14.390999794006348 -22.575000762939453,14.074000358581543 -22.775999069213867,13.756999969482422 C-23.018999099731445,13.38700008392334 -23.240999221801758,13.006999969482422 -23.46299934387207,12.62600040435791 C-24.75200080871582,10.354999542236328 -25.618999481201172,7.892000198364258 -26.052000045776367,5.34499979019165 C-26.052000045776367,5.313000202178955 -26.051000595092773,5.293000221252441 -26.062000274658203,5.261000156402588 C-26.13599967956543,4.828000068664551 -26.18899917602539,4.4039998054504395 -26.242000579833984,3.9719998836517334 C-26.242000579833984,3.9609999656677246 -26.242000579833984,3.9600000381469727 -26.242000579833984,3.950000047683716 C-26.822999954223633,-1.4930000305175781 -25.41699981689453,-7.1570000648498535 -21.856000900268555,-11.838000297546387 C-21.856000900268555,-11.838000297546387 -14.246999740600586,-21.867000579833984 -14.246999740600586,-21.867000579833984 C-8.645999908447266,-29.233999252319336 0.7279999852180481,-32.11800003051758 9.182000160217285,-29.88800048828125 C11.907999992370605,-29.18000030517578 14.550000190734863,-27.92300033569336 16.92799949645996,-26.115999221801758 C16.92799949645996,-26.115999221801758 17.604000091552734,-25.607999801635742 17.604000091552734,-25.607999801635742 C27.347999572753906,-18.209999084472656 29.26099967956543,-4.176000118255615 21.863000869750977,5.566999912261963z"/></g><g opacity="1" transform="matrix(1,0,0,1,318.4849853515625,145.61099243164062)"><path class="quinary" fill="rgb(178,104,54)" fill-opacity="1" d=" M20.625,10.269000053405762 C22.9060001373291,1.9780000448226929 19.738000869750977,-7.158999919891357 12.78499984741211,-12.427000045776367 C12.78499984741211,-12.427000045776367 10.480999946594238,-14.295000076293945 10.480999946594238,-14.295000076293945 C2.0889999866485596,-21.708999633789062 -11.07699966430664,-21.31999969482422 -18.82699966430664,-13.428000450134277 C-19.655000686645508,-12.586999893188477 -20.391000747680664,-11.73900032043457 -21.079999923706055,-10.836000442504883 C-21.483999252319336,-10.307000160217285 -21.441999435424805,-9.562999725341797 -20.981000900268555,-9.083999633789062 C-20.507999420166016,-8.58899974822998 -19.777000427246094,-8.532999992370605 -19.233999252319336,-8.916999816894531 C-17.31599998474121,-10.269000053405762 -15.163999557495117,-10.704999923706055 -13.01099967956543,-10.175000190734863 C-9.883999824523926,-9.406000137329102 -7.059999942779541,-6.71999979019165 -4.8470001220703125,-2.4089999198913574 C-2.6470000743865967,1.8739999532699585 1.8539999723434448,2.559000015258789 5.827000141143799,3.1640000343322754 C10.008000373840332,3.8010001182556152 12.614999771118164,4.381999969482422 13.569999694824219,7.021999835968018 C15.597999572753906,12.625 14.470999717712402,15.47599983215332 13.723999977111816,17.363000869750977 C13.723999977111816,17.363000869750977 13.560999870300293,17.784000396728516 13.560999870300293,17.784000396728516 C13.35099983215332,18.334999084472656 13.524999618530273,18.94700050354004 13.970000267028809,19.30900001525879 C14.024999618530273,19.354000091552734 14.083000183105469,19.395000457763672 14.145999908447266,19.430999755859375 C14.718999862670898,19.761999130249023 15.449000358581543,19.62700080871582 15.866000175476074,19.113000869750977 C18.350000381469727,16.054000854492188 19.909000396728516,13.151000022888184 20.625,10.269000053405762z"/></g></g></g></g><g id="__lottie_element_3656"><g transform="matrix(1,0,0,1,-35,-35)" opacity="1" style="display: block;"><g opacity="1" transform="matrix(1,0,0,1,15,0)"><g opacity="1" transform="matrix(1,0,0,1,240.51300048828125,349.74798583984375)"><path class="secondary" fill="rgb(100,110,120)" fill-opacity="1" d=" M27.947999954223633,72.19200134277344 C27.947999954223633,72.19200134277344 -1.5,-41.79999923706055 -1.5,-41.79999923706055 C-1.5,-41.79999923706055 -31.350000381469727,73.76000213623047 -31.350000381469727,73.76000213623047 C-31.350000381469727,73.76000213623047 -68.08999633789062,65.11900329589844 -68.3499984741211,64.92900085449219 C-68.36000061035156,64.90899658203125 -68.41000366210938,64.92900085449219 -68.47000122070312,64.98999786376953 C-64.20999908447266,45.20000076293945 -42.79999923706055,-51.380001068115234 -36.84000015258789,-79.01000213623047 C-36.84000015258789,-79.01000213623047 33.83000183105469,-79.01000213623047 33.83000183105469,-79.01000213623047 C34.880001068115234,-74.13999938964844 61.209999084472656,45.209999084472656 65.47000122070312,64.98999786376953 C65.4000015258789,64.92900085449219 65.36000061035156,64.90899658203125 65.33999633789062,64.92900085449219 C65.08999633789062,65.12899780273438 27.947999954223633,72.19200134277344 27.947999954223633,72.19200134277344z"/></g><g opacity="1" transform="matrix(1,0,0,1,0,0)"><g opacity="1" transform="matrix(1,0,0,1,296.7650146484375,428.25799560546875)"><path class="tertiary" fill="rgb(235,230,239)" fill-opacity="1" d=" M-22.56100082397461,10.020000457763672 C-22.56100082397461,10.020000457763672 25.617000579833984,10.020000457763672 25.617000579833984,10.020000457763672 C33.17399978637695,-1.4789999723434448 10.461999893188477,-12.602999687194824 9.14900016784668,-13.520000457763672 C9.14900016784668,-13.520000457763672 -30.152999877929688,-13.520000457763672 -30.152999877929688,-13.520000457763672 C-30.152999877929688,-13.520000457763672 -24.49799919128418,8.517999649047852 -24.49799919128418,8.517999649047852 C-24.270999908447266,9.402000427246094 -23.474000930786133,10.020000457763672 -22.56100082397461,10.020000457763672z"/></g><g opacity="1" transform="matrix(1,0,0,1,184.25799560546875,428.25799560546875)"><path class="tertiary" fill="rgb(235,230,239)" fill-opacity="1" d=" M-28.615999221801758,10.020000457763672 C-28.615999221801758,10.020000457763672 19.562999725341797,10.020000457763672 19.562999725341797,10.020000457763672 C20.47599983215332,10.020000457763672 21.273000717163086,9.402000427246094 21.5,8.517999649047852 C21.5,8.517999649047852 27.155000686645508,-13.520000457763672 27.155000686645508,-13.520000457763672 C27.155000686645508,-13.520000457763672 -12.157999992370605,-13.520000457763672 -12.157999992370605,-13.520000457763672 C-13.473999977111816,-12.605999946594238 -36.18000030517578,-1.4859999418258667 -28.615999221801758,10.020000457763672z"/></g></g></g></g></g><g id="__lottie_element_3665"><g transform="matrix(1,0,0,1,232.5,215)" opacity="1" style="display: block;"><g opacity="1" transform="matrix(1,0,0,1,0,0)"><path class="primary" fill="rgb(75,179,253)" fill-opacity="1" d=" M-30.246000289916992,-87.60199737548828 C-30.246000289916992,-87.60199737548828 -47.534000396728516,22.815000534057617 -47.534000396728516,22.815000534057617 C-47.534000396728516,22.815000534057617 25.138999938964844,22.815000534057617 25.138999938964844,22.815000534057617 C25.138999938964844,22.815000534057617 33.3390007019043,-18.18600082397461 33.3390007019043,-18.18600082397461 M-30.100000381469727,-87.88300323486328 C-30.100000381469727,-87.88300323486328 2.99399995803833,-140.58799743652344 2.99399995803833,-140.58799743652344 C3.8949999809265137,-142.0229949951172 5.072999954223633,-143.26400756835938 6.460000038146973,-144.23899841308594 C6.460000038146973,-144.23899841308594 68.05799865722656,-192 68.05799865722656,-192 C68.05799865722656,-192 91.21900177001953,-174.88400268554688 73.1989974975586,-155.14500427246094 C73.1989974975586,-155.14500427246094 29.148000717163086,-120.27400207519531 29.148000717163086,-120.27400207519531 C27.663000106811523,-119.25299835205078 26.410999298095703,-117.92900085449219 25.475000381469727,-116.38800048828125 C25.475000381469727,-116.38800048828125 1.8259999752044678,-77.45500183105469 1.8259999752044678,-77.45500183105469 M1.875,-77.4260025024414 C4.7769999504089355,-76.05799865722656 22.64699935913086,-62.869998931884766 36.249000549316406,-52.92300033569336 C53.922000885009766,-40 69.20899963378906,-28.76300048828125 84.62699890136719,-17.125999450683594 C94.37899780273438,-9.765000343322754 95.45500183105469,4.47599983215332 86.9280014038086,13.22599983215332 C86.9280014038086,13.22599983215332 44.40599822998047,57.643001556396484 44.40599822998047,57.643001556396484 C44.40599822998047,57.643001556396484 21.257999420166016,49.90599822998047 32.66400146484375,25.735000610351562 C32.66400146484375,25.735000610351562 57.124000549316406,-0.8600000143051147 57.124000549316406,-0.8600000143051147 C57.124000549316406,-0.8600000143051147 33.340999603271484,-18.190000534057617 33.340999603271484,-18.190000534057617 M-14.75,-92.25 C-14.75,-92.25 -30,-87.75 -30,-87.75 C-30,-87.75 -25.75,-49.25 -25.75,-49.25 C-25.75,-49.25 28.75,-14.25 28.75,-14.25 C28.75,-14.25 41.75,-27.25 41.75,-27.25 C41.75,-27.25 2.25,-78 2.25,-78 C2.25,-78 -14.75,-92.25 -14.75,-92.25z"/><g opacity="1" transform="matrix(1,0,0,1,0,0)"><path stroke-linecap="round" stroke-linejoin="round" fill-opacity="0" class="primary" stroke="rgb(75,179,253)" stroke-opacity="1" stroke-width="3" d=" M-30.246000289916992,-87.60199737548828 C-30.246000289916992,-87.60199737548828 -47.534000396728516,22.815000534057617 -47.534000396728516,22.815000534057617 C-47.534000396728516,22.815000534057617 25.138999938964844,22.815000534057617 25.138999938964844,22.815000534057617 C25.138999938964844,22.815000534057617 33.3390007019043,-18.18600082397461 33.3390007019043,-18.18600082397461"/></g><g opacity="1" transform="matrix(1,0,0,1,0,0)"><path stroke-linecap="round" stroke-linejoin="round" fill-opacity="0" class="primary" stroke="rgb(75,179,253)" stroke-opacity="1" stroke-width="3" d=" M-30.100000381469727,-87.88300323486328 C-30.100000381469727,-87.88300323486328 2.99399995803833,-140.58799743652344 2.99399995803833,-140.58799743652344 C3.8949999809265137,-142.0229949951172 5.072999954223633,-143.26400756835938 6.460000038146973,-144.23899841308594 C6.460000038146973,-144.23899841308594 68.05799865722656,-192 68.05799865722656,-192 C68.05799865722656,-192 91.21900177001953,-174.88400268554688 73.1989974975586,-155.14500427246094 C73.1989974975586,-155.14500427246094 29.148000717163086,-120.27400207519531 29.148000717163086,-120.27400207519531 C27.663000106811523,-119.25299835205078 26.410999298095703,-117.92900085449219 25.475000381469727,-116.38800048828125 C25.475000381469727,-116.38800048828125 1.8259999752044678,-77.45500183105469 1.8259999752044678,-77.45500183105469"/></g><g opacity="1" transform="matrix(1,0,0,1,0,0)"><path stroke-linecap="round" stroke-linejoin="round" fill-opacity="0" class="primary" stroke="rgb(75,179,253)" stroke-opacity="1" stroke-width="3" d=" M1.875,-77.4260025024414 C4.7769999504089355,-76.05799865722656 22.64699935913086,-62.869998931884766 36.249000549316406,-52.92300033569336 C53.922000885009766,-40 69.20899963378906,-28.76300048828125 84.62699890136719,-17.125999450683594 C94.37899780273438,-9.765000343322754 95.45500183105469,4.47599983215332 86.9280014038086,13.22599983215332 C86.9280014038086,13.22599983215332 44.40599822998047,57.643001556396484 44.40599822998047,57.643001556396484 C44.40599822998047,57.643001556396484 21.257999420166016,49.90599822998047 32.66400146484375,25.735000610351562 C32.66400146484375,25.735000610351562 57.124000549316406,-0.8600000143051147 57.124000549316406,-0.8600000143051147 C57.124000549316406,-0.8600000143051147 33.340999603271484,-18.190000534057617 33.340999603271484,-18.190000534057617"/></g><g opacity="1" transform="matrix(1,0,0,1,0,0)"><path class="primary" fill="rgb(75,179,253)" fill-opacity="1" d=" M-14.75,-92.25 C-14.75,-92.25 -30,-87.75 -30,-87.75 C-30,-87.75 -25.75,-49.25 -25.75,-49.25 C-25.75,-49.25 28.75,-14.25 28.75,-14.25 C28.75,-14.25 41.75,-27.25 41.75,-27.25 C41.75,-27.25 2.25,-78 2.25,-78 C2.25,-78 -14.75,-92.25 -14.75,-92.25z"/><path stroke-linecap="butt" stroke-linejoin="miter" fill-opacity="0" stroke-miterlimit="4" class="primary" stroke="rgb(75,179,253)" stroke-opacity="1" stroke-width="3" d=" M-14.75,-92.25 C-14.75,-92.25 -30,-87.75 -30,-87.75 C-30,-87.75 -25.75,-49.25 -25.75,-49.25 C-25.75,-49.25 28.75,-14.25 28.75,-14.25 C28.75,-14.25 41.75,-27.25 41.75,-27.25 C41.75,-27.25 2.25,-78 2.25,-78 C2.25,-78 -14.75,-92.25 -14.75,-92.25z"/></g></g></g></g><filter id="__lottie_element_3686" filterUnits="objectBoundingBox" x="0%" y="0%" width="100%" height="100%"><feComponentTransfer in="SourceGraphic"><feFuncA type="table" tableValues="1.0 0.0"/></feComponentTransfer></filter><mask id="__lottie_element_3665_2" mask-type="alpha" maskUnits="userSpaceOnUse"><g filter="url(#__lottie_element_3686)"><rect width="430" height="430" x="0" y="0" fill="#ffffff" opacity="0"/><use xmlns:ns1="http://www.w3.org/1999/xlink" ns1:href="#__lottie_element_3665"/></g></mask><filter id="__lottie_element_3687" filterUnits="objectBoundingBox" x="0%" y="0%" width="100%" height="100%"><feComponentTransfer in="SourceGraphic"><feFuncA type="table" tableValues="1.0 0.0"/></feComponentTransfer></filter><mask id="__lottie_element_3656_2" mask-type="alpha" maskUnits="userSpaceOnUse"><g filter="url(#__lottie_element_3687)"><rect width="430" height="430" x="0" y="0" fill="#ffffff" opacity="0"/><use xmlns:ns2="http://www.w3.org/1999/xlink" ns2:href="#__lottie_element_3656"/></g></mask><filter id="__lottie_element_3688" filterUnits="objectBoundingBox" x="0%" y="0%" width="100%" height="100%"><feComponentTransfer in="SourceGraphic"><feFuncA type="table" tableValues="1.0 0.0"/></feComponentTransfer></filter><mask id="__lottie_element_3647_2" mask-type="alpha" maskUnits="userSpaceOnUse"><g filter="url(#__lottie_element_3688)"><rect width="430" height="430" x="0" y="0" fill="#ffffff" opacity="0"/><use xmlns:ns3="http://www.w3.org/1999/xlink" ns3:href="#__lottie_element_3647"/></g></mask></defs><g clip-path="url(#__lottie_element_3634)"><g clip-path="url(#__lottie_element_3636)" transform="matrix(1,0,0,1,0,0)" opacity="1" style="display: block;"><g transform="matrix(1,0,0,1,-37.5,-37.5)" opacity="1" style="display: block;"><g opacity="1" transform="matrix(1,0,0,1,311.260986328125,158.5749969482422)"><path class="quinary" fill="rgb(249,201,192)" fill-opacity="1" d=" M21.863000869750977,5.566999912261963 C21.863000869750977,5.566999912261963 4.807000160217285,28.00200080871582 4.807000160217285,28.00200080871582 C4.7220001220703125,28.107999801635742 4.6479997634887695,28.214000701904297 4.541999816894531,28.30900001525879 C3.0199999809265137,30.115999221801758 0.675000011920929,30.898000717163086 -1.5549999475479126,30.538999557495117 C-1.7239999771118164,30.517000198364258 -1.9040000438690186,30.475000381469727 -2.072999954223633,30.43400001525879 C-2.940000057220459,30.232999801635742 -3.7639999389648438,29.851999282836914 -4.513999938964844,29.2810001373291 C-4.513999938964844,29.2810001373291 -7.789999961853027,26.79800033569336 -7.789999961853027,26.79800033569336 C-7.789999961853027,26.79800033569336 -17.607999801635742,19.336999893188477 -17.607999801635742,19.336999893188477 C-18.68600082397461,18.523000717163086 -19.66900062561035,17.625 -20.54599952697754,16.663000106811523 C-20.841999053955078,16.334999084472656 -21.115999221801758,16.018999099731445 -21.391000747680664,15.680000305175781 C-21.41200065612793,15.670000076293945 -21.42300033569336,15.64900016784668 -21.43400001525879,15.626999855041504 C-21.677000045776367,15.331999778747559 -21.909000396728516,15.026000022888184 -22.131000518798828,14.708000183105469 C-22.35300064086914,14.390999794006348 -22.575000762939453,14.074000358581543 -22.775999069213867,13.756999969482422 C-23.018999099731445,13.38700008392334 -23.240999221801758,13.006999969482422 -23.46299934387207,12.62600040435791 C-24.75200080871582,10.354999542236328 -25.618999481201172,7.892000198364258 -26.052000045776367,5.34499979019165 C-26.052000045776367,5.313000202178955 -26.051000595092773,5.293000221252441 -26.062000274658203,5.261000156402588 C-26.13599967956543,4.828000068664551 -26.18899917602539,4.4039998054504395 -26.242000579833984,3.9719998836517334 C-26.242000579833984,3.9609999656677246 -26.242000579833984,3.9600000381469727 -26.242000579833984,3.950000047683716 C-26.822999954223633,-1.4930000305175781 -25.41699981689453,-7.1570000648498535 -21.856000900268555,-11.838000297546387 C-21.856000900268555,-11.838000297546387 -14.246999740600586,-21.867000579833984 -14.246999740600586,-21.867000579833984 C-8.645999908447266,-29.233999252319336 0.7279999852180481,-32.11800003051758 9.182000160217285,-29.88800048828125 C11.907999992370605,-29.18000030517578 14.550000190734863,-27.92300033569336 16.92799949645996,-26.115999221801758 C16.92799949645996,-26.115999221801758 17.604000091552734,-25.607999801635742 17.604000091552734,-25.607999801635742 C27.347999572753906,-18.209999084472656 29.26099967956543,-4.176000118255615 21.863000869750977,5.566999912261963z"/></g><g opacity="1" transform="matrix(1,0,0,1,318.4849853515625,145.61099243164062)"><path class="senary" fill="rgb(178,104,54)" fill-opacity="1" d=" M20.625,10.269000053405762 C22.9060001373291,1.9780000448226929 19.738000869750977,-7.158999919891357 12.78499984741211,-12.427000045776367 C12.78499984741211,-12.427000045776367 10.480999946594238,-14.295000076293945 10.480999946594238,-14.295000076293945 C2.0889999866485596,-21.708999633789062 -11.07699966430664,-21.31999969482422 -18.82699966430664,-13.428000450134277 C-19.655000686645508,-12.586999893188477 -20.391000747680664,-11.73900032043457 -21.079999923706055,-10.836000442504883 C-21.483999252319336,-10.307000160217285 -21.441999435424805,-9.562999725341797 -20.981000900268555,-9.083999633789062 C-20.507999420166016,-8.58899974822998 -19.777000427246094,-8.532999992370605 -19.233999252319336,-8.916999816894531 C-17.31599998474121,-10.269000053405762 -15.163999557495117,-10.704999923706055 -13.01099967956543,-10.175000190734863 C-9.883999824523926,-9.406000137329102 -7.059999942779541,-6.71999979019165 -4.8470001220703125,-2.4089999198913574 C-2.6470000743865967,1.8739999532699585 1.8539999723434448,2.559000015258789 5.827000141143799,3.1640000343322754 C10.008000373840332,3.8010001182556152 12.614999771118164,4.381999969482422 13.569999694824219,7.021999835968018 C15.597999572753906,12.625 14.470999717712402,15.47599983215332 13.723999977111816,17.363000869750977 C13.723999977111816,17.363000869750977 13.560999870300293,17.784000396728516 13.560999870300293,17.784000396728516 C13.35099983215332,18.334999084472656 13.524999618530273,18.94700050354004 13.970000267028809,19.30900001525879 C14.024999618530273,19.354000091552734 14.083000183105469,19.395000457763672 14.145999908447266,19.430999755859375 C14.718999862670898,19.761999130249023 15.449000358581543,19.62700080871582 15.866000175476074,19.113000869750977 C18.350000381469727,16.054000854492188 19.909000396728516,13.151000022888184 20.625,10.269000053405762z"/></g></g><g mask="url(#__lottie_element_3647_2)" style="mix-blend-mode: multiply; display: block;"><g transform="matrix(1,0,0,1,-37.5,-37.5)" opacity="0.5"><g opacity="1" transform="matrix(1,0,0,1,311.260986328125,158.5749969482422)"><path class="quinary" fill="rgb(249,201,192)" fill-opacity="1" d=" M21.863000869750977,5.566999912261963 C21.863000869750977,5.566999912261963 4.807000160217285,28.00200080871582 4.807000160217285,28.00200080871582 C4.7220001220703125,28.107999801635742 4.6479997634887695,28.214000701904297 4.541999816894531,28.30900001525879 C3.0199999809265137,30.115999221801758 0.675000011920929,30.898000717163086 -1.5549999475479126,30.538999557495117 C-1.7239999771118164,30.517000198364258 -1.9040000438690186,30.475000381469727 -2.072999954223633,30.43400001525879 C-2.940000057220459,30.232999801635742 -3.7639999389648438,29.851999282836914 -4.513999938964844,29.2810001373291 C-4.513999938964844,29.2810001373291 -7.789999961853027,26.79800033569336 -7.789999961853027,26.79800033569336 C-7.789999961853027,26.79800033569336 -17.607999801635742,19.336999893188477 -17.607999801635742,19.336999893188477 C-18.68600082397461,18.523000717163086 -19.66900062561035,17.625 -20.54599952697754,16.663000106811523 C-20.841999053955078,16.334999084472656 -21.115999221801758,16.018999099731445 -21.391000747680664,15.680000305175781 C-21.41200065612793,15.670000076293945 -21.42300033569336,15.64900016784668 -21.43400001525879,15.626999855041504 C-21.677000045776367,15.331999778747559 -21.909000396728516,15.026000022888184 -22.131000518798828,14.708000183105469 C-22.35300064086914,14.390999794006348 -22.575000762939453,14.074000358581543 -22.775999069213867,13.756999969482422 C-23.018999099731445,13.38700008392334 -23.240999221801758,13.006999969482422 -23.46299934387207,12.62600040435791 C-24.75200080871582,10.354999542236328 -25.618999481201172,7.892000198364258 -26.052000045776367,5.34499979019165 C-26.052000045776367,5.313000202178955 -26.051000595092773,5.293000221252441 -26.062000274658203,5.261000156402588 C-26.13599967956543,4.828000068664551 -26.18899917602539,4.4039998054504395 -26.242000579833984,3.9719998836517334 C-26.242000579833984,3.9609999656677246 -26.242000579833984,3.9600000381469727 -26.242000579833984,3.950000047683716 C-26.822999954223633,-1.4930000305175781 -25.41699981689453,-7.1570000648498535 -21.856000900268555,-11.838000297546387 C-21.856000900268555,-11.838000297546387 -14.246999740600586,-21.867000579833984 -14.246999740600586,-21.867000579833984 C-8.645999908447266,-29.233999252319336 0.7279999852180481,-32.11800003051758 9.182000160217285,-29.88800048828125 C11.907999992370605,-29.18000030517578 14.550000190734863,-27.92300033569336 16.92799949645996,-26.115999221801758 C16.92799949645996,-26.115999221801758 17.604000091552734,-25.607999801635742 17.604000091552734,-25.607999801635742 C27.347999572753906,-18.209999084472656 29.26099967956543,-4.176000118255615 21.863000869750977,5.566999912261963z"/></g><g opacity="1" transform="matrix(1,0,0,1,318.4849853515625,145.61099243164062)"><path class="senary" fill="rgb(178,104,54)" fill-opacity="1" d=" M20.625,10.269000053405762 C22.9060001373291,1.9780000448226929 19.738000869750977,-7.158999919891357 12.78499984741211,-12.427000045776367 C12.78499984741211,-12.427000045776367 10.480999946594238,-14.295000076293945 10.480999946594238,-14.295000076293945 C2.0889999866485596,-21.708999633789062 -11.07699966430664,-21.31999969482422 -18.82699966430664,-13.428000450134277 C-19.655000686645508,-12.586999893188477 -20.391000747680664,-11.73900032043457 -21.079999923706055,-10.836000442504883 C-21.483999252319336,-10.307000160217285 -21.441999435424805,-9.562999725341797 -20.981000900268555,-9.083999633789062 C-20.507999420166016,-8.58899974822998 -19.777000427246094,-8.532999992370605 -19.233999252319336,-8.916999816894531 C-17.31599998474121,-10.269000053405762 -15.163999557495117,-10.704999923706055 -13.01099967956543,-10.175000190734863 C-9.883999824523926,-9.406000137329102 -7.059999942779541,-6.71999979019165 -4.8470001220703125,-2.4089999198913574 C-2.6470000743865967,1.8739999532699585 1.8539999723434448,2.559000015258789 5.827000141143799,3.1640000343322754 C10.008000373840332,3.8010001182556152 12.614999771118164,4.381999969482422 13.569999694824219,7.021999835968018 C15.597999572753906,12.625 14.470999717712402,15.47599983215332 13.723999977111816,17.363000869750977 C13.723999977111816,17.363000869750977 13.560999870300293,17.784000396728516 13.560999870300293,17.784000396728516 C13.35099983215332,18.334999084472656 13.524999618530273,18.94700050354004 13.970000267028809,19.30900001525879 C14.024999618530273,19.354000091552734 14.083000183105469,19.395000457763672 14.145999908447266,19.430999755859375 C14.718999862670898,19.761999130249023 15.449000358581543,19.62700080871582 15.866000175476074,19.113000869750977 C18.350000381469727,16.054000854492188 19.909000396728516,13.151000022888184 20.625,10.269000053405762z"/></g></g></g><g transform="matrix(1,0,0,1,-35,-35)" opacity="1" style="display: block;"><g opacity="1" transform="matrix(1,0,0,1,240.51300048828125,349.74798583984375)"><path class="quaternary" fill="rgb(58,51,71)" fill-opacity="1" d=" M27.947999954223633,72.19200134277344 C27.947999954223633,72.19200134277344 -1.5,-41.79999923706055 -1.5,-41.79999923706055 C-1.5,-41.79999923706055 -31.350000381469727,73.76000213623047 -31.350000381469727,73.76000213623047 C-31.350000381469727,73.76000213623047 -68.08999633789062,65.11900329589844 -68.3499984741211,64.92900085449219 C-68.36000061035156,64.90899658203125 -68.41000366210938,64.92900085449219 -68.47000122070312,64.98999786376953 C-64.20999908447266,45.20000076293945 -42.79999923706055,-51.380001068115234 -36.84000015258789,-79.01000213623047 C-36.84000015258789,-79.01000213623047 33.83000183105469,-79.01000213623047 33.83000183105469,-79.01000213623047 C34.880001068115234,-74.13999938964844 61.209999084472656,45.209999084472656 65.47000122070312,64.98999786376953 C65.4000015258789,64.92900085449219 65.36000061035156,64.90899658203125 65.33999633789062,64.92900085449219 C65.08999633789062,65.12899780273438 27.947999954223633,72.19200134277344 27.947999954223633,72.19200134277344z"/></g><g opacity="1" transform="matrix(1,0,0,1,0,0)"><g opacity="1" transform="matrix(1,0,0,1,296.7650146484375,428.25799560546875)"><path class="tertiary" fill="rgb(100,110,120)" fill-opacity="1" d=" M-22.56100082397461,10.020000457763672 C-22.56100082397461,10.020000457763672 25.617000579833984,10.020000457763672 25.617000579833984,10.020000457763672 C33.17399978637695,-1.4789999723434448 10.461999893188477,-12.602999687194824 9.14900016784668,-13.520000457763672 C9.14900016784668,-13.520000457763672 -30.152999877929688,-13.520000457763672 -30.152999877929688,-13.520000457763672 C-30.152999877929688,-13.520000457763672 -24.49799919128418,8.517999649047852 -24.49799919128418,8.517999649047852 C-24.270999908447266,9.402000427246094 -23.474000930786133,10.020000457763672 -22.56100082397461,10.020000457763672z"/></g><g opacity="1" transform="matrix(1,0,0,1,184.25799560546875,428.25799560546875)"><path class="tertiary" fill="rgb(100,110,120)" fill-opacity="1" d=" M-28.615999221801758,10.020000457763672 C-28.615999221801758,10.020000457763672 19.562999725341797,10.020000457763672 19.562999725341797,10.020000457763672 C20.47599983215332,10.020000457763672 21.273000717163086,9.402000427246094 21.5,8.517999649047852 C21.5,8.517999649047852 27.155000686645508,-13.520000457763672 27.155000686645508,-13.520000457763672 C27.155000686645508,-13.520000457763672 -12.157999992370605,-13.520000457763672 -12.157999992370605,-13.520000457763672 C-13.473999977111816,-12.605999946594238 -36.18000030517578,-1.4859999418258667 -28.615999221801758,10.020000457763672z"/></g></g></g><g mask="url(#__lottie_element_3656_2)" style="mix-blend-mode: multiply; display: block;"><g transform="matrix(1,0,0,1,-35,-35)" opacity="0.5"><g opacity="1" transform="matrix(1,0,0,1,240.51300048828125,349.74798583984375)"><path class="quaternary" fill="rgb(58,51,71)" fill-opacity="1" d=" M-1.5,-41.79999923706055 C-1.5,-41.79999923706055 -31.350000381469727,73.76000213623047 -31.350000381469727,73.76000213623047 C-31.350000381469727,73.76000213623047 -68.08999633789062,65.11900329589844 -68.3499984741211,64.92900085449219 C-68.36000061035156,64.90899658203125 -68.41000366210938,64.92900085449219 -68.47000122070312,64.98999786376953 C-64.20999908447266,45.20000076293945 -42.79999923706055,-51.380001068115234 -36.84000015258789,-79.01000213623047 C-36.84000015258789,-79.01000213623047 33.83000183105469,-79.01000213623047 33.83000183105469,-79.01000213623047 C34.880001068115234,-74.13999938964844 -1.5,-41.79999923706055 -1.5,-41.79999923706055z"/></g><g opacity="1" transform="matrix(1,0,0,1,0,0)"><g opacity="1" transform="matrix(1,0,0,1,296.7650146484375,428.25799560546875)"><path class="tertiary" fill="rgb(100,110,120)" fill-opacity="1" d="M0 0"/></g><g opacity="1" transform="matrix(1,0,0,1,184.25799560546875,428.25799560546875)"><path class="tertiary" fill="rgb(100,110,120)" fill-opacity="1" d=" M-28.615999221801758,10.020000457763672 C-28.615999221801758,10.020000457763672 19.562999725341797,10.020000457763672 19.562999725341797,10.020000457763672 C20.47599983215332,10.020000457763672 21.273000717163086,9.402000427246094 21.5,8.517999649047852 C21.5,8.517999649047852 27.155000686645508,-13.520000457763672 27.155000686645508,-13.520000457763672 C27.155000686645508,-13.520000457763672 -12.157999992370605,-13.520000457763672 -12.157999992370605,-13.520000457763672 C-13.473999977111816,-12.605999946594238 -36.18000030517578,-1.4859999418258667 -28.615999221801758,10.020000457763672z"/></g></g></g></g><g transform="matrix(1,0,0,1,215,215)" opacity="1" style="display: block;"><path class="secondary" fill="rgb(75,179,253)" fill-opacity="1" d=" M-30.246000289916992,-87.60199737548828 C-30.246000289916992,-87.60199737548828 -47.534000396728516,22.815000534057617 -47.534000396728516,22.815000534057617 C-47.534000396728516,22.815000534057617 25.138999938964844,22.815000534057617 25.138999938964844,22.815000534057617 C25.138999938964844,22.815000534057617 33.3390007019043,-18.18600082397461 33.3390007019043,-18.18600082397461 M-30.100000381469727,-87.88300323486328 C-30.100000381469727,-87.88300323486328 2.99399995803833,-140.58799743652344 2.99399995803833,-140.58799743652344 C3.8949999809265137,-142.0229949951172 5.072999954223633,-143.26400756835938 6.460000038146973,-144.23899841308594 C6.460000038146973,-144.23899841308594 68.05799865722656,-192 68.05799865722656,-192 C68.05799865722656,-192 91.21900177001953,-174.88400268554688 73.1989974975586,-155.14500427246094 C73.1989974975586,-155.14500427246094 29.148000717163086,-120.27400207519531 29.148000717163086,-120.27400207519531 C27.663000106811523,-119.25299835205078 26.410999298095703,-117.92900085449219 25.475000381469727,-116.38800048828125 C25.475000381469727,-116.38800048828125 1.8259999752044678,-77.45500183105469 1.8259999752044678,-77.45500183105469 M1.875,-77.4260025024414 C4.7769999504089355,-76.05799865722656 22.64699935913086,-62.869998931884766 36.249000549316406,-52.92300033569336 C53.922000885009766,-40 69.20899963378906,-28.76300048828125 84.62699890136719,-17.125999450683594 C94.37899780273438,-9.765000343322754 95.45500183105469,4.47599983215332 86.9280014038086,13.22599983215332 C86.9280014038086,13.22599983215332 44.40599822998047,57.643001556396484 44.40599822998047,57.643001556396484 C44.40599822998047,57.643001556396484 21.257999420166016,49.90599822998047 32.66400146484375,25.735000610351562 C32.66400146484375,25.735000610351562 57.124000549316406,-0.8600000143051147 57.124000549316406,-0.8600000143051147 C57.124000549316406,-0.8600000143051147 33.340999603271484,-18.190000534057617 33.340999603271484,-18.190000534057617 M-14.75,-92.25 C-14.75,-92.25 -30,-87.75 -30,-87.75 C-30,-87.75 -25.75,-49.25 -25.75,-49.25 C-25.75,-49.25 28.75,-14.25 28.75,-14.25 C28.75,-14.25 41.75,-27.25 41.75,-27.25 C41.75,-27.25 2.25,-78 2.25,-78 C2.25,-78 -14.75,-92.25 -14.75,-92.25z"/><g opacity="1" transform="matrix(1,0,0,1,0,0)"><path stroke-linecap="round" stroke-linejoin="round" fill-opacity="0" class="secondary" stroke="rgb(75,179,253)" stroke-opacity="1" stroke-width="3" d=" M-30.246000289916992,-87.60199737548828 C-30.246000289916992,-87.60199737548828 -47.534000396728516,22.815000534057617 -47.534000396728516,22.815000534057617 C-47.534000396728516,22.815000534057617 25.138999938964844,22.815000534057617 25.138999938964844,22.815000534057617 C25.138999938964844,22.815000534057617 33.3390007019043,-18.18600082397461 33.3390007019043,-18.18600082397461"/></g><g opacity="1" transform="matrix(1,0,0,1,0,0)"><path stroke-linecap="round" stroke-linejoin="round" fill-opacity="0" class="secondary" stroke="rgb(75,179,253)" stroke-opacity="1" stroke-width="3" d=" M-30.100000381469727,-87.88300323486328 C-30.100000381469727,-87.88300323486328 2.99399995803833,-140.58799743652344 2.99399995803833,-140.58799743652344 C3.8949999809265137,-142.0229949951172 5.072999954223633,-143.26400756835938 6.460000038146973,-144.23899841308594 C6.460000038146973,-144.23899841308594 68.05799865722656,-192 68.05799865722656,-192 C68.05799865722656,-192 91.21900177001953,-174.88400268554688 73.1989974975586,-155.14500427246094 C73.1989974975586,-155.14500427246094 29.148000717163086,-120.27400207519531 29.148000717163086,-120.27400207519531 C27.663000106811523,-119.25299835205078 26.410999298095703,-117.92900085449219 25.475000381469727,-116.38800048828125 C25.475000381469727,-116.38800048828125 1.8259999752044678,-77.45500183105469 1.8259999752044678,-77.45500183105469"/></g><g opacity="1" transform="matrix(1,0,0,1,0,0)"><path stroke-linecap="round" stroke-linejoin="round" fill-opacity="0" class="secondary" stroke="rgb(75,179,253)" stroke-opacity="1" stroke-width="3" d=" M1.875,-77.4260025024414 C4.7769999504089355,-76.05799865722656 22.64699935913086,-62.869998931884766 36.249000549316406,-52.92300033569336 C53.922000885009766,-40 69.20899963378906,-28.76300048828125 84.62699890136719,-17.125999450683594 C94.37899780273438,-9.765000343322754 95.45500183105469,4.47599983215332 86.9280014038086,13.22599983215332 C86.9280014038086,13.22599983215332 44.40599822998047,57.643001556396484 44.40599822998047,57.643001556396484 C44.40599822998047,57.643001556396484 21.257999420166016,49.90599822998047 32.66400146484375,25.735000610351562 C32.66400146484375,25.735000610351562 57.124000549316406,-0.8600000143051147 57.124000549316406,-0.8600000143051147 C57.124000549316406,-0.8600000143051147 33.340999603271484,-18.190000534057617 33.340999603271484,-18.190000534057617"/></g><g opacity="1" transform="matrix(1,0,0,1,0,0)"><path class="secondary" fill="rgb(75,179,253)" fill-opacity="1" d=" M-14.75,-92.25 C-14.75,-92.25 -30,-87.75 -30,-87.75 C-30,-87.75 -25.75,-49.25 -25.75,-49.25 C-25.75,-49.25 28.75,-14.25 28.75,-14.25 C28.75,-14.25 41.75,-27.25 41.75,-27.25 C41.75,-27.25 2.25,-78 2.25,-78 C2.25,-78 -14.75,-92.25 -14.75,-92.25z"/><path stroke-linecap="butt" stroke-linejoin="miter" fill-opacity="0" stroke-miterlimit="4" class="secondary" stroke="rgb(75,179,253)" stroke-opacity="1" stroke-width="3" d=" M-14.75,-92.25 C-14.75,-92.25 -30,-87.75 -30,-87.75 C-30,-87.75 -25.75,-49.25 -25.75,-49.25 C-25.75,-49.25 28.75,-14.25 28.75,-14.25 C28.75,-14.25 41.75,-27.25 41.75,-27.25 C41.75,-27.25 2.25,-78 2.25,-78 C2.25,-78 -14.75,-92.25 -14.75,-92.25z"/></g></g><g mask="url(#__lottie_element_3665_2)" style="mix-blend-mode: multiply; display: block;"><g transform="matrix(1,0,0,1,215,215)" opacity="0.5"><path class="secondary" fill="rgb(75,179,253)" fill-opacity="1" d=" M-30.246000289916992,-87.60199737548828 C-30.246000289916992,-87.60199737548828 -47.534000396728516,22.815000534057617 -47.534000396728516,22.815000534057617 C-47.534000396728516,22.815000534057617 25.138999938964844,22.815000534057617 25.138999938964844,22.815000534057617 C25.138999938964844,22.815000534057617 33.3390007019043,-18.18600082397461 33.3390007019043,-18.18600082397461 M-30.100000381469727,-87.88300323486328 C-30.100000381469727,-87.88300323486328 2.99399995803833,-140.58799743652344 2.99399995803833,-140.58799743652344 C3.8949999809265137,-142.0229949951172 5.072999954223633,-143.26400756835938 6.460000038146973,-144.23899841308594 C6.460000038146973,-144.23899841308594 68.05799865722656,-192 68.05799865722656,-192 C68.05799865722656,-192 91.21900177001953,-174.88400268554688 73.1989974975586,-155.14500427246094 C73.1989974975586,-155.14500427246094 29.148000717163086,-120.27400207519531 29.148000717163086,-120.27400207519531 C27.663000106811523,-119.25299835205078 26.410999298095703,-117.92900085449219 25.475000381469727,-116.38800048828125 C25.475000381469727,-116.38800048828125 1.8259999752044678,-77.45500183105469 1.8259999752044678,-77.45500183105469 M1.875,-77.4260025024414 C4.7769999504089355,-76.05799865722656 22.64699935913086,-62.869998931884766 36.249000549316406,-52.92300033569336 C53.922000885009766,-40 33.340999603271484,-18.190000534057617 33.340999603271484,-18.190000534057617 M-14.75,-92.25 C-14.75,-92.25 -30,-87.75 -30,-87.75 C-30,-87.75 -25.75,-49.25 -25.75,-49.25 C-25.75,-49.25 28.75,-14.25 28.75,-14.25 C28.75,-14.25 41.75,-27.25 41.75,-27.25 C41.75,-27.25 2.25,-78 2.25,-78 C2.25,-78 -14.75,-92.25 -14.75,-92.25z"/><g opacity="1" transform="matrix(1,0,0,1,0,0)"><path stroke-linecap="round" stroke-linejoin="round" fill-opacity="0" class="secondary" stroke="rgb(75,179,253)" stroke-opacity="1" stroke-width="3" d=" M-30.246000289916992,-87.60199737548828 C-30.246000289916992,-87.60199737548828 -47.534000396728516,22.815000534057617 -47.534000396728516,22.815000534057617 C-47.534000396728516,22.815000534057617 25.138999938964844,22.815000534057617 25.138999938964844,22.815000534057617 C25.138999938964844,22.815000534057617 33.3390007019043,-18.18600082397461 33.3390007019043,-18.18600082397461"/></g><g opacity="1" transform="matrix(1,0,0,1,0,0)"><path stroke-linecap="round" stroke-linejoin="round" fill-opacity="0" class="secondary" stroke="rgb(75,179,253)" stroke-opacity="1" stroke-width="3" d=" M-30.100000381469727,-87.88300323486328 C-30.100000381469727,-87.88300323486328 2.99399995803833,-140.58799743652344 2.99399995803833,-140.58799743652344 C3.8949999809265137,-142.0229949951172 5.072999954223633,-143.26400756835938 6.460000038146973,-144.23899841308594 C6.460000038146973,-144.23899841308594 68.05799865722656,-192 68.05799865722656,-192 C68.05799865722656,-192 91.21900177001953,-174.88400268554688 73.1989974975586,-155.14500427246094 C73.1989974975586,-155.14500427246094 29.148000717163086,-120.27400207519531 29.148000717163086,-120.27400207519531 C27.663000106811523,-119.25299835205078 26.410999298095703,-117.92900085449219 25.475000381469727,-116.38800048828125 C25.475000381469727,-116.38800048828125 1.8259999752044678,-77.45500183105469 1.8259999752044678,-77.45500183105469"/></g><g opacity="1" transform="matrix(1,0,0,1,0,0)"><path stroke-linecap="round" stroke-linejoin="round" fill-opacity="0" class="secondary" stroke="rgb(75,179,253)" stroke-opacity="1" stroke-width="3" d=" M1.875,-77.4260025024414 C4.7769999504089355,-76.05799865722656 22.64699935913086,-62.869998931884766 36.249000549316406,-52.92300033569336 C53.922000885009766,-40 33.340999603271484,-18.190000534057617 33.340999603271484,-18.190000534057617"/></g><g opacity="1" transform="matrix(1,0,0,1,0,0)"><path class="secondary" fill="rgb(75,179,253)" fill-opacity="1" d=" M-14.75,-92.25 C-14.75,-92.25 -30,-87.75 -30,-87.75 C-30,-87.75 -25.75,-49.25 -25.75,-49.25 C-25.75,-49.25 28.75,-14.25 28.75,-14.25 C28.75,-14.25 41.75,-27.25 41.75,-27.25 C41.75,-27.25 2.25,-78 2.25,-78 C2.25,-78 -14.75,-92.25 -14.75,-92.25z"/><path stroke-linecap="butt" stroke-linejoin="miter" fill-opacity="0" stroke-miterlimit="4" class="secondary" stroke="rgb(75,179,253)" stroke-opacity="1" stroke-width="3" d=" M-14.75,-92.25 C-14.75,-92.25 -30,-87.75 -30,-87.75 C-30,-87.75 -25.75,-49.25 -25.75,-49.25 C-25.75,-49.25 28.75,-14.25 28.75,-14.25 C28.75,-14.25 41.75,-27.25 41.75,-27.25 C41.75,-27.25 2.25,-78 2.25,-78 C2.25,-78 -14.75,-92.25 -14.75,-92.25z"/></g></g></g><g transform="matrix(1,0,0,1,215,215)" opacity="0.5" style="mix-blend-mode: multiply; display: block;"><g opacity="1" transform="matrix(1,0,0,1,0,0)"><path class="quaternary" fill="rgb(58,51,71)" fill-opacity="1" d=" M-11.375,58.375 C-11.375,58.375 16.343000411987305,164.43899536132812 16.343000411987305,164.43899536132812 C16.343000411987305,164.43899536132812 30.18199920654297,164.7270050048828 30.18199920654297,164.7270050048828 C30.18199920654297,164.7270050048828 8.07800006866455,74.58999633789062 5.25,65.5 C1.75,54.25 -11.375,58.375 -11.375,58.375z"/></g></g><g transform="matrix(1,0,0,1,215,215)" opacity="0.5" style="mix-blend-mode: multiply; display: block;"><g opacity="1" transform="matrix(1,0,0,1,0,0)"><path class="tertiary" fill="rgb(100,110,120)" fill-opacity="1" d=" M15.315999984741211,163.9759979248047 C15.315999984741211,163.9759979248047 19.08099937438965,179.12600708007812 21.062999725341797,186.43800354003906 C21.381000518798828,187.61300659179688 22.72100067138672,188.7050018310547 23.937999725341797,188.68800354003906 C28.437999725341797,188.62600708007812 36.09400177001953,188.593994140625 36.09400177001953,188.593994140625 C36.09400177001953,188.593994140625 30.194000244140625,164.15199279785156 30.194000244140625,164.15199279785156 C30.194000244140625,164.15199279785156 15.315999984741211,163.9759979248047 15.315999984741211,163.9759979248047z"/></g><g opacity="1" transform="matrix(1,0,0,1,0,0)"><path class="tertiary" fill="rgb(100,110,120)" fill-opacity="1" d="M0 0"/></g></g><g transform="matrix(1,0,0,1,215,215)" opacity="0.5" style="mix-blend-mode: multiply; display: block;"><g opacity="1" transform="matrix(1,0,0,1,0,0)"><path class="secondary" fill="rgb(75,179,253)" fill-opacity="1" d=" M46,-20.562000274658203 C38.125,-25.75 32.375,-17.437999725341797 32.375,-17.437999725341797 C32.375,-17.437999725341797 55,-0.375 55,-0.375 C55,-0.375 32.625,21.5 30.75,26.625 C28.875,31.75 22.375,42.25 37.625,55.625 C29,32.875 42.5,27.75 64.625,3.5 C68.92900085449219,-1.218000054359436 69.5,-2.125 64.25,-6.375 C59.02899932861328,-10.60200023651123 53.44499969482422,-15.657999992370605 46,-20.562000274658203z"/></g></g><g transform="matrix(1,0,0,1,215,215)" opacity="1" style="display: block;"><g opacity="1" transform="matrix(1,0,0,1,0,0)"><path stroke-linecap="round" stroke-linejoin="round" fill-opacity="0" class="primary" stroke="rgb(18,19,49)" stroke-opacity="1" stroke-width="7" d=" M25.139999389648438,22.809999465942383 C35.349998474121094,70.2300033569336 45.56999969482422,117.6500015258789 55.779998779296875,165.07000732421875 C55.709999084472656,165.00999450683594 55.66999816894531,164.99000549316406 55.650001525878906,165.00999450683594 C55.400001525878906,165.1999969482422 80,176.6999969482422 72.18000030517578,188.61000061035156 C55.599998474121094,188.61000061035156 39.029998779296875,188.61000061035156 22.450000762939453,188.61000061035156 C22.450000762939453,188.61000061035156 -11.1899995803833,57.52000045776367 -11.1899995803833,57.52000045776367"/></g><g opacity="1" transform="matrix(1,0,0,1,0,0)"><path stroke-linecap="round" stroke-linejoin="round" fill-opacity="0" class="primary" stroke="rgb(18,19,49)" stroke-opacity="1" stroke-width="7" d=" M-47.52000045776367,22.809999465942383 C-57.7400016784668,70.2300033569336 -67.94999694824219,117.6500015258789 -78.16000366210938,165.07000732421875 C-78.0999984741211,165.00999450683594 -78.05000305175781,164.99000549316406 -78.04000091552734,165.00999450683594 C-77.77999877929688,165.1999969482422 -102.38999938964844,176.6999969482422 -94.55999755859375,188.61000061035156 C-77.98999786376953,188.61000061035156 -61.40999984741211,188.61000061035156 -44.83000183105469,188.61000061035156 C-44.83000183105469,188.61000061035156 -11.1899995803833,57.52000045776367 -11.1899995803833,57.52000045776367"/></g></g><g transform="matrix(1,0,0,1,215,215)" opacity="1" style="display: block;"><g opacity="1" transform="matrix(1,0,0,1,0,0)"><path stroke-linecap="round" stroke-linejoin="round" fill-opacity="0" class="primary" stroke="rgb(18,19,49)" stroke-opacity="1" stroke-width="7" d=" M41.47999954223633,-76.19300079345703 C41.47999954223633,-76.19300079345703 53.86600112915039,-66.78399658203125 53.86600112915039,-66.78399658203125 C56.624000549316406,-64.68900299072266 60.59400177001953,-65.23100280761719 62.68899917602539,-67.98899841308594 C62.68899917602539,-67.98899841308594 78.8219985961914,-89.2239990234375 78.8219985961914,-89.2239990234375 C85.8270034790039,-98.44400024414062 84.01399993896484,-111.71800231933594 74.79399871826172,-118.7229995727539 C74.79399871826172,-118.7229995727539 74.15799713134766,-119.20600128173828 74.15799713134766,-119.20600128173828 C64.93800354003906,-126.21099853515625 51.66400146484375,-124.39800262451172 44.659000396728516,-115.1780014038086 C44.659000396728516,-115.1780014038086 37.452999114990234,-105.69300079345703 37.452999114990234,-105.69300079345703 C30.447999954223633,-96.4729995727539 32.2599983215332,-83.197998046875 41.47999954223633,-76.19300079345703z"/></g></g><g transform="matrix(1,0,0,1,215,215)" opacity="1" style="display: block;"><g opacity="1" transform="matrix(1,0,0,1,0,0)"><path stroke-linecap="round" stroke-linejoin="round" fill-opacity="0" class="primary" stroke="rgb(18,19,49)" stroke-opacity="1" stroke-width="7" d=" M11.819000244140625,-6.500999927520752"/></g><g opacity="1" transform="matrix(1,0,0,1,0,0)"><path stroke-linecap="round" stroke-linejoin="round" fill-opacity="0" class="primary" stroke="rgb(18,19,49)" stroke-opacity="1" stroke-width="7" d=" M-30.246000289916992,-87.60199737548828 C-30.246000289916992,-87.60199737548828 -47.534000396728516,22.815000534057617 -47.534000396728516,22.815000534057617 C-47.534000396728516,22.815000534057617 25.138999938964844,22.815000534057617 25.138999938964844,22.815000534057617 C25.138999938964844,22.815000534057617 33.3390007019043,-18.18600082397461 33.3390007019043,-18.18600082397461"/></g><g opacity="1" transform="matrix(1,0,0,1,0,0)"><path stroke-linecap="round" stroke-linejoin="round" fill-opacity="0" class="primary" stroke="rgb(18,19,49)" stroke-opacity="1" stroke-width="7" d=" M-30.100000381469727,-87.88300323486328 C-30.100000381469727,-87.88300323486328 2.99399995803833,-140.58799743652344 2.99399995803833,-140.58799743652344 C3.8949999809265137,-142.0229949951172 5.072999954223633,-143.26400756835938 6.460000038146973,-144.23899841308594 C6.460000038146973,-144.23899841308594 68.05799865722656,-192 68.05799865722656,-192 C68.05799865722656,-192 91.21900177001953,-174.88400268554688 73.1989974975586,-155.14500427246094 C73.1989974975586,-155.14500427246094 29.148000717163086,-120.27400207519531 29.148000717163086,-120.27400207519531 C27.663000106811523,-119.25299835205078 26.410999298095703,-117.92900085449219 25.475000381469727,-116.38800048828125 C25.475000381469727,-116.38800048828125 1.8259999752044678,-77.45500183105469 1.8259999752044678,-77.45500183105469"/></g><g opacity="1" transform="matrix(1,0,0,1,0,0)"><path stroke-linecap="round" stroke-linejoin="round" fill-opacity="0" class="primary" stroke="rgb(18,19,49)" stroke-opacity="1" stroke-width="7" d=" M1.875,-77.4260025024414 C4.7769999504089355,-76.05799865722656 22.64699935913086,-62.869998931884766 36.249000549316406,-52.92300033569336 C53.922000885009766,-40 69.20899963378906,-28.76300048828125 84.62699890136719,-17.125999450683594 C94.37899780273438,-9.765000343322754 95.45500183105469,4.47599983215332 86.9280014038086,13.22599983215332 C86.9280014038086,13.22599983215332 44.40599822998047,57.643001556396484 44.40599822998047,57.643001556396484 C44.40599822998047,57.643001556396484 21.257999420166016,49.90599822998047 32.66400146484375,25.735000610351562 C32.66400146484375,25.735000610351562 57.124000549316406,-0.8600000143051147 57.124000549316406,-0.8600000143051147 C57.124000549316406,-0.8600000143051147 33.340999603271484,-18.190000534057617 33.340999603271484,-18.190000534057617"/></g></g></g></g></svg>