<svg xmlns="http://www.w3.org/2000/svg" xmlns:xlink="http://www.w3.org/1999/xlink" viewBox="0 0 430 430" width="430" height="430" preserveAspectRatio="xMidYMid meet" style="width: 100%; height: 100%; transform: translate3d(0px, 0px, 0px); content-visibility: visible;"><defs><clipPath id="__lottie_element_3594"><rect width="430" height="430" x="0" y="0"/></clipPath><clipPath id="__lottie_element_3596"><path d="M0,0 L430,0 L430,430 L0,430z"/></clipPath><clipPath id="__lottie_element_3601"><path d="M0,0 L430,0 L430,430 L0,430z"/></clipPath><clipPath id="__lottie_element_3605"><path d="M0,0 L430,0 L430,430 L0,430z"/></clipPath></defs><g clip-path="url(#__lottie_element_3594)"><g clip-path="url(#__lottie_element_3596)" transform="matrix(1,0,0,1,0,0)" opacity="1" style="display: block;"><g clip-path="url(#__lottie_element_3601)" transform="matrix(1,0,0,1,0,0)" opacity="1" style="display: block;"><g transform="matrix(1,0,0,1,151.53599548339844,300.19000244140625)" opacity="1" style="display: block;"><g opacity="1" transform="matrix(1,0,0,1,0,0)"><path class="quaternary" fill="rgb(58,51,71)" fill-opacity="1" d=" M-37.9630012512207,-78.24099731445312 C-37.9630012512207,-78.24099731445312 -34.92599868774414,70.38500213623047 -34.92599868774414,70.38500213623047 C-34.92599868774414,70.38500213623047 -34.92599868774414,80.47200012207031 -34.92599868774414,80.47200012207031 C-34.92599868774414,80.47200012207031 34.92599868774414,80.47200012207031 34.92599868774414,80.47200012207031 C34.92599868774414,80.47200012207031 34.92599868774414,70.38500213623047 34.92599868774414,70.38500213623047 C34.92599868774414,70.38500213623047 37.9630012512207,-78.24099731445312 37.9630012512207,-78.24099731445312 C37.9630012512207,-78.24099731445312 36.81700134277344,-80.47200012207031 36.81700134277344,-80.47200012207031 C36.81700134277344,-80.47200012207031 -37.005001068115234,-80.47200012207031 -37.005001068115234,-80.47200012207031 C-37.005001068115234,-80.47200012207031 -37.9630012512207,-78.24099731445312 -37.9630012512207,-78.24099731445312z"/></g></g><g transform="matrix(1,0,0,1,151.53599548339844,382.864990234375)" opacity="1" style="display: block;"><g opacity="1" transform="matrix(1,0,0,1,0,0)"><path class="senary" fill="rgb(255,199,56)" fill-opacity="1" d=" M-52.41299819946289,10.835000038146973 C-57.7239990234375,-1.1549999713897705 -34.92599868774414,-12.291000366210938 -34.92599868774414,-12.291000366210938 C-34.92599868774414,-12.291000366210938 34.92599868774414,-12.291000366210938 34.92599868774414,-12.291000366210938 C34.92599868774414,-12.291000366210938 57.7239990234375,-1.1549999713897705 52.41299819946289,10.835000038146973 C51.99800109863281,11.77299976348877 51.00899887084961,12.291000366210938 49.983001708984375,12.291000366210938 C49.983001708984375,12.291000366210938 -49.983001708984375,12.291000366210938 -49.983001708984375,12.291000366210938 C-51.00899887084961,12.291000366210938 -51.99800109863281,11.77299976348877 -52.41299819946289,10.835000038146973z"/></g></g><g transform="matrix(1,0,0,1,151.48899841308594,68.14999389648438)" opacity="1" style="display: block;"><g opacity="1" transform="matrix(1,0,0,1,0,0)"><path class="tertiary" fill="rgb(249,201,192)" fill-opacity="1" d=" M16.086999893188477,28.235000610351562 C16.086999893188477,28.235000610351562 -0.9020000100135803,28.235000610351562 -0.9020000100135803,28.235000610351562 C-12.670999526977539,28.235000610351562 -22.256000518798828,18.55500030517578 -22.445999145507812,6.785999774932861 C-22.445999145507812,6.785999774932861 -22.445999145507812,-6.785999774932861 -22.445999145507812,-6.785999774932861 C-22.445999145507812,-18.55500030517578 -12.765999794006348,-28.235000610351562 -0.996999979019165,-28.235000610351562 C-0.996999979019165,-28.235000610351562 0.996999979019165,-28.235000610351562 0.996999979019165,-28.235000610351562 C12.765999794006348,-28.235000610351562 22.445999145507812,-18.55500030517578 22.445999145507812,-6.785999774932861 C22.445999145507812,-6.785999774932861 22.445999145507812,21.875999450683594 22.445999145507812,21.875999450683594 C22.445999145507812,25.38800048828125 19.599000930786133,28.235000610351562 16.086999893188477,28.235000610351562z"/></g></g><g transform="matrix(1,0,0,1,144.8159942626953,78.87399291992188)" opacity="0.5" style="mix-blend-mode: multiply; display: block;"><g opacity="1" transform="matrix(1,0,0,1,0,0)"><path class="tertiary" fill="rgb(249,201,192)" fill-opacity="1" d=" M15.772000312805176,17.510000228881836 C15.772000312805176,17.510000228881836 5.771999835968018,17.510000228881836 5.771999835968018,17.510000228881836 C-5.997000217437744,17.510000228881836 -15.581999778747559,7.829999923706055 -15.772000312805176,-3.938999891281128 C-15.772000312805176,-3.938999891281128 -15.772000312805176,-17.510000228881836 -15.772000312805176,-17.510000228881836 C-15.772000312805176,-17.510000228881836 -5.771999835968018,-17.510000228881836 -5.771999835968018,-17.510000228881836 C-5.771999835968018,-17.510000228881836 -5.771999835968018,-3.938999891281128 -5.771999835968018,-3.938999891281128 C-5.581999778747559,7.829999923706055 4.002999782562256,17.510000228881836 15.772000312805176,17.510000228881836z"/></g></g><g transform="matrix(1,0,0,1,120.83799743652344,143.6929931640625)" opacity="1" style="display: block;"><g opacity="1" transform="matrix(1,0,0,1,0,0)"><path class="quinary" fill="rgb(75,179,253)" fill-opacity="1" d=" M-7.392000198364258,2.0510001182556152 C-7.392000198364258,2.0510001182556152 -6.918000221252441,-27.559999465942383 -6.918000221252441,-27.559999465942383 C-6.918000221252441,-27.559999465942383 30.666000366210938,-27.655000686645508 30.666000366210938,-27.655000686645508 C29.64299964904785,-27.66200065612793 46.3650016784668,-27.707000732421875 62.933998107910156,-25.757999420166016 C80.68199920654297,-23.670000076293945 87.23100280761719,-11.805999755859375 93.96900177001953,7.554999828338623 C93.96900177001953,7.554999828338623 105.31099700927734,41.32699966430664 105.31099700927734,41.32699966430664 C105.31099700927734,41.32699966430664 89.2239990234375,71.99700164794922 89.2239990234375,71.99700164794922 C89.2239990234375,71.99700164794922 68.62899780273438,11.730999946594238 68.62899780273438,11.730999946594238 C68.62899780273438,11.730999946594238 68.53399658203125,78.0719985961914 68.53399658203125,78.0719985961914 C68.53399658203125,78.0719985961914 -7.39300012588501,78.0719985961914 -7.39300012588501,78.0719985961914 C-7.39300012588501,78.0719985961914 -7.392000198364258,2.0510001182556152 -7.392000198364258,2.0510001182556152z"/></g></g><g transform="matrix(1,0,0,1,0,0)" opacity="1" style="display: block;"><g opacity="1" transform="matrix(1,0,0,1,82.01899719238281,105.89299774169922)"><g opacity="1" transform="matrix(1,0,0,1,0,0)"><path class="quinary" fill="rgb(75,179,253)" fill-opacity="1" d=" M36.06100082397461,11.949999809265137 C36.06100082397461,11.949999809265137 -3.938999891281128,-3.9760000705718994 -3.938999891281128,-3.9760000705718994 C-5.36299991607666,-4.545000076293945 -6.500999927520752,-5.303999900817871 -7.545000076293945,-6.3480000495910645 C-7.545000076293945,-6.3480000495910645 -41.04800033569336,-36.52899932861328 -41.04800033569336,-36.52899932861328 C-59.08000183105469,-48.108001708984375 -69.5199966430664,-27.51300048828125 -69.5199966430664,-27.51300048828125 C-69.5199966430664,-27.51300048828125 -23.395000457763672,14.815999984741211 -23.395000457763672,14.815999984741211 C-22.445999145507812,15.765000343322754 -21.30699920654297,16.618999481201172 -20.072999954223633,17.0939998626709 C-20.072999954223633,17.0939998626709 37.33700180053711,42.81100082397461 37.33700180053711,42.81100082397461"/></g></g></g><g transform="matrix(1,0,0,1,150.197998046875,55.07499694824219)" opacity="1" style="display: block;"><g opacity="1" transform="matrix(1,0,0,1,0,0)"><path class="secondary" fill="rgb(178,104,54)" fill-opacity="1" d=" M20.499000549316406,-3.5139999389648438 C20.520999908447266,-3.742000102996826 20.488000869750977,-3.9730000495910645 20.399999618530273,-4.184999942779541 C20.399999618530273,-4.184999942779541 20.399999618530273,-4.184999942779541 20.399999618530273,-4.184999942779541 C19.17799949645996,-7.281000137329102 17.054000854492188,-9.937999725341797 14.303999900817871,-11.812999725341797 C11.553999900817871,-13.687999725341797 8.305000305175781,-14.694000244140625 4.9770002365112305,-14.701000213623047 C4.9770002365112305,-14.701000213623047 -3.943000078201294,-14.701000213623047 -3.943000078201294,-14.701000213623047 C-8.340999603271484,-14.67300033569336 -12.548999786376953,-12.906999588012695 -15.651000022888184,-9.789999961853027 C-18.753000259399414,-6.672999858856201 -20.496999740600586,-2.4560000896453857 -20.503000259399414,1.9420000314712524 C-20.503000259399414,1.9420000314712524 -20.503000259399414,13.036999702453613 -20.503000259399414,13.036999702453613 C-20.503999710083008,13.255000114440918 -20.461999893188477,13.470999717712402 -20.378999710083008,13.67300033569336 C-20.29599952697754,13.875 -20.173999786376953,14.057999610900879 -20.020000457763672,14.213000297546387 C-19.865999221801758,14.368000030517578 -19.683000564575195,14.489999771118164 -19.48200035095215,14.574000358581543 C-19.2810001373291,14.657999992370605 -19.065000534057617,14.701000213623047 -18.847000122070312,14.701000213623047 C-18.847000122070312,14.701000213623047 -17.176000595092773,14.701000213623047 -17.176000595092773,14.701000213623047 C-17.176000595092773,13.319999694824219 -16.62700080871582,11.994000434875488 -15.649999618530273,11.017000198364258 C-14.67300033569336,10.039999961853027 -13.347999572753906,9.491999626159668 -11.967000007629395,9.491999626159668 C-11.967000007629395,9.491999626159668 -6.638000011444092,9.491999626159668 -6.638000011444092,9.491999626159668 C-5.86899995803833,9.493000030517578 -5.107999801635742,9.342000007629395 -4.3979997634887695,9.045999526977539 C-3.687999963760376,8.75 -3.0490000247955322,8.310999870300293 -2.505000114440918,7.76800012588501 C-1.402999997138977,6.669000148773193 -0.7829999923706055,5.177000045776367 -0.781000018119812,3.621000051498413 C-0.7829999923706055,2.8510000705718994 -0.6340000033378601,2.0889999866485596 -0.3409999907016754,1.3769999742507935 C-0.04800000041723251,0.6650000214576721 0.382999986410141,0.017999999225139618 0.9259999990463257,-0.5270000100135803 C1.468999981880188,-1.0720000267028809 2.114000082015991,-1.5049999952316284 2.825000047683716,-1.8009999990463257 C3.5360000133514404,-2.0969998836517334 4.296999931335449,-2.25 5.066999912261963,-2.250999927520752 C5.066999912261963,-2.250999927520752 19.113000869750977,-2.250999927520752 19.113000869750977,-2.250999927520752 C19.343000411987305,-2.252000093460083 19.56800079345703,-2.309000015258789 19.770000457763672,-2.4179999828338623 C19.972000122070312,-2.5269999504089355 20.145000457763672,-2.684000015258789 20.27199935913086,-2.875 C20.39900016784668,-3.065999984741211 20.476999282836914,-3.2860000133514404 20.499000549316406,-3.5139999389648438z"/></g></g><g transform="matrix(1,0,0,1,141.4709930419922,55.07499694824219)" opacity="0.5" style="mix-blend-mode: multiply; display: block;"><g opacity="1" transform="matrix(1,0,0,1,0,0)"><path class="secondary" fill="rgb(178,104,54)" fill-opacity="1" d=" M2.388000011444092,-10.548999786376953 C4.993000030517578,-13.166999816894531 8.442000389099121,-14.753000259399414 12.098999977111816,-15.043000221252441 C11.708000183105469,-15.074000358581543 11.3149995803833,-15.09000015258789 10.920000076293945,-15.090999603271484 C10.920000076293945,-15.090999603271484 4.793000221252441,-14.965999603271484 4.793000221252441,-14.965999603271484 C0.7250000238418579,-14.9399995803833 -3.4179999828338623,-12.432999610900879 -6.2870001792907715,-9.548999786376953 C-9.156000137329102,-6.664999961853027 -12.59000015258789,-1.3890000581741333 -12.595000267028809,2.678999900817871 C-12.595000267028809,2.678999900817871 -12.595000267028809,12.942999839782715 -12.595000267028809,12.942999839782715 C-12.595999717712402,13.145000457763672 -12.557000160217285,13.343999862670898 -12.479999542236328,13.531000137329102 C-12.402999877929688,13.718000411987305 -12.291000366210938,13.887999534606934 -12.14900016784668,14.031000137329102 C-12.006999969482422,14.173999786376953 -11.836999893188477,14.288000106811523 -11.651000022888184,14.364999771118164 C-11.46500015258789,14.442000389099121 -11.265000343322754,14.482000350952148 -11.062999725341797,14.482000350952148 C-11.062999725341797,14.482000350952148 -9.517000198364258,14.482000350952148 -9.517000198364258,14.482000350952148 C-9.517000198364258,13.204000473022461 -9.010000228881836,11.979000091552734 -8.105999946594238,11.074999809265137 C-7.202000141143799,10.170999526977539 -5.9770002365112305,9.663000106811523 -4.698999881744385,9.663000106811523 C-4.698999881744385,9.663000106811523 -2.0450000762939453,9.663000106811523 -2.0450000762939453,9.663000106811523 C-2.0450000762939453,9.663000106811523 -2.0450000762939453,2.678999900817871 -2.0450000762939453,2.678999900817871 C-2.0399999618530273,-1.3890000581741333 -0.48100000619888306,-7.664999961853027 2.388000011444092,-10.548999786376953z"/></g></g><g transform="matrix(1,0,0,1,151.53599548339844,382.864990234375)" opacity="0.5" style="mix-blend-mode: multiply; display: block;"><g opacity="1" transform="matrix(1,0,0,1,0,0)"><path class="senary" fill="rgb(255,199,56)" fill-opacity="1" d=" M3.5,-12.291000366210938 C3.5,-12.291000366210938 -3.5,-12.291000366210938 -3.5,-12.291000366210938 C-3.5,-12.291000366210938 -3.5,12.291000366210938 -3.5,12.291000366210938 C-3.5,12.291000366210938 3.5,12.291000366210938 3.5,12.291000366210938 C3.5,12.291000366210938 3.5,-12.291000366210938 3.5,-12.291000366210938z"/></g></g><g transform="matrix(1,0,0,1,151.53599548339844,311.1610107421875)" opacity="0.5" style="mix-blend-mode: multiply; display: block;"><g opacity="1" transform="matrix(1,0,0,1,0,0)"><path class="quaternary" fill="rgb(58,51,71)" fill-opacity="1" d=" M0,-59.41299819946289 C-1.9329999685287476,-59.41299819946289 -3.5,-57.84600067138672 -3.5,-55.91299819946289 C-3.5,-55.91299819946289 -3.5,59.41299819946289 -3.5,59.41299819946289 C-3.5,59.41299819946289 3.5,59.41299819946289 3.5,59.41299819946289 C3.5,59.41299819946289 3.5,-55.91299819946289 3.5,-55.91299819946289 C3.5,-57.84600067138672 1.9329999685287476,-59.41299819946289 0,-59.41299819946289z"/></g></g><g transform="matrix(1,0,0,1,0,0)" opacity="1" style="display: block;"><g opacity="1" transform="matrix(1,0,0,1,124.83699798583984,308.67401123046875)"><g opacity="1" transform="matrix(1,0,0,1,0,0)"><path stroke-linecap="round" stroke-linejoin="round" fill-opacity="0" class="primary" stroke="rgb(18,19,49)" stroke-opacity="1" stroke-width="7" d=" M-11.354999542236328,-86.60299682617188 C-11.354999542236328,-86.60299682617188 -8.317999839782715,62.02199935913086 -8.317999839782715,62.02199935913086 C-8.317999839782715,62.02199935913086 -32.99399948120117,74.07499694824219 -25.02199935913086,86.60299682617188 C-16.575000762939453,86.60299682617188 26.607999801635742,86.60299682617188 26.607999801635742,86.60299682617188 C26.607999801635742,86.60299682617188 26.607999801635742,-50.44300079345703 26.607999801635742,-50.44300079345703"/></g></g><g opacity="1" transform="matrix(1,0,0,1,178.052001953125,308.67401123046875)"><g opacity="1" transform="matrix(1,0,0,1,0,0)"><path stroke-linecap="round" stroke-linejoin="round" fill-opacity="0" class="primary" stroke="rgb(18,19,49)" stroke-opacity="1" stroke-width="7" d=" M11.354999542236328,-86.60299682617188 C11.354999542236328,-86.60299682617188 8.317999839782715,62.02199935913086 8.317999839782715,62.02199935913086 C8.317999839782715,62.02199935913086 32.99399948120117,74.07499694824219 25.02199935913086,86.60299682617188 C16.575000762939453,86.60299682617188 -26.607999801635742,86.60299682617188 -26.607999801635742,86.60299682617188"/></g></g></g><g transform="matrix(1,0,0,1,151.39700317382812,68.27300262451172)" opacity="1" style="display: block;"><g opacity="1" transform="matrix(1,0,0,1,0,0)"><path stroke-linecap="round" stroke-linejoin="round" fill-opacity="0" class="primary" stroke="rgb(18,19,49)" stroke-opacity="1" stroke-width="7" d=" M16.086999893188477,28.235000610351562 C16.086999893188477,28.235000610351562 -0.9020000100135803,28.235000610351562 -0.9020000100135803,28.235000610351562 C-12.670999526977539,28.235000610351562 -22.256000518798828,18.55500030517578 -22.445999145507812,6.785999774932861 C-22.445999145507812,6.785999774932861 -22.445999145507812,-6.785999774932861 -22.445999145507812,-6.785999774932861 C-22.445999145507812,-18.55500030517578 -12.765999794006348,-28.235000610351562 -0.996999979019165,-28.235000610351562 C-0.996999979019165,-28.235000610351562 0.996999979019165,-28.235000610351562 0.996999979019165,-28.235000610351562 C12.765999794006348,-28.235000610351562 22.445999145507812,-18.55500030517578 22.445999145507812,-6.785999774932861 C22.445999145507812,-6.785999774932861 22.445999145507812,21.875999450683594 22.445999145507812,21.875999450683594 C22.445999145507812,25.38800048828125 19.599000930786133,28.235000610351562 16.086999893188477,28.235000610351562z"/></g></g><g transform="matrix(1,0,0,1,0,0)" opacity="1" style="display: block;"><g opacity="1" transform="matrix(1,0,0,1,151.44400024414062,183.96499633789062)"><g opacity="1" transform="matrix(1,0,0,1,0,0)"><path stroke-linecap="round" stroke-linejoin="round" fill-opacity="0" class="primary" stroke="rgb(18,19,49)" stroke-opacity="1" stroke-width="7" d=" M37.9630012512207,-28.329999923706055 C37.9630012512207,-28.329999923706055 37.9630012512207,38.01100158691406 37.9630012512207,38.01100158691406 C37.9630012512207,38.01100158691406 -37.9630012512207,38.01100158691406 -37.9630012512207,38.01100158691406 C-37.9630012512207,38.01100158691406 -37.9630012512207,-38.01100158691406 -37.9630012512207,-38.01100158691406"/></g></g><g opacity="1" transform="matrix(1,0,0,1,196.80999755859375,174.9010009765625)"><g opacity="1" transform="matrix(1,0,0,1,0,0)"><path stroke-linecap="round" stroke-linejoin="round" fill-opacity="0" class="primary" stroke="rgb(18,19,49)" stroke-opacity="1" stroke-width="7" d=" M-7.308000087738037,-19.266000747680664 C-7.308000087738037,-19.266000747680664 13.286999702453613,41 13.286999702453613,41 C25.190000534057617,19.599000930786133 29.35700035095215,9.626999855041504 29.35700035095215,9.626999855041504 C29.35700035095215,9.626999855041504 18.031999588012695,-23.441999435424805 18.031999588012695,-23.441999435424805 C11.293999671936035,-42.803001403808594 4.745999813079834,-54.66699981689453 -13.001999855041504,-56.755001068115234 C-23.820999145507812,-57.98899841308594 -34.547000885009766,-58.65299987792969 -45.36600112915039,-58.65299987792969 C-45.36600112915039,-58.65299987792969 -73.18499755859375,-58.777000427246094 -82.88300323486328,-58.55799865722656"/></g></g></g><g transform="matrix(1,0,0,1,0,0)" opacity="1" style="display: block;"><g opacity="1" transform="matrix(1,0,0,1,82.01899719238281,105.89299774169922)"><g opacity="1" transform="matrix(1,0,0,1,0,0)"><path stroke-linecap="round" stroke-linejoin="round" fill-opacity="0" class="primary" stroke="rgb(18,19,49)" stroke-opacity="1" stroke-width="7" d=" M31.93600082397461,10.449999809265137 C31.93600082397461,10.449999809265137 -3.938999891281128,-3.9760000705718994 -3.938999891281128,-3.9760000705718994 C-5.36299991607666,-4.545000076293945 -6.500999927520752,-5.303999900817871 -7.545000076293945,-6.3480000495910645 C-7.545000076293945,-6.3480000495910645 -41.04800033569336,-36.52899932861328 -41.04800033569336,-36.52899932861328 C-59.08000183105469,-48.108001708984375 -69.5199966430664,-27.51300048828125 -69.5199966430664,-27.51300048828125 C-69.5199966430664,-27.51300048828125 -23.395000457763672,14.815999984741211 -23.395000457763672,14.815999984741211 C-22.445999145507812,15.765000343322754 -21.30699920654297,16.618999481201172 -20.072999954223633,17.0939998626709 C-20.072999954223633,17.0939998626709 31.461999893188477,40.06100082397461 31.461999893188477,40.06100082397461"/></g></g></g></g><g clip-path="url(#__lottie_element_3605)" transform="matrix(1,0,0,1,0,0)" opacity="1" style="display: block;"><g transform="matrix(1,0,0,1,279.0849914550781,289.4020080566406)" opacity="1" style="display: block;"><g opacity="1" transform="matrix(1,0,0,1,0,0)"><path class="quaternary" fill="rgb(58,51,71)" fill-opacity="1" d=" M-42.11199951171875,-9.277000427246094 C-47.516998291015625,-38.58000183105469 -42.45399856567383,-79.50399780273438 -29.17799949645996,-96.5739974975586 C-29.17799949645996,-96.5739974975586 29.243000030517578,-96.5739974975586 29.243000030517578,-96.5739974975586 C42.51900100708008,-79.50399780273438 47.50299835205078,-38.58000183105469 42.097999572753906,-9.277000427246094 C42.097999572753906,-9.277000427246094 24.458999633789062,86.12300109863281 24.458999633789062,86.12300109863281 C24.458999633789062,86.12300109863281 24.458999633789062,96.5739974975586 24.458999633789062,96.5739974975586 C24.458999633789062,96.5739974975586 -24.472999572753906,96.5739974975586 -24.472999572753906,96.5739974975586 C-24.472999572753906,96.5739974975586 -24.472999572753906,86.12300109863281 -24.472999572753906,86.12300109863281 C-24.472999572753906,86.12300109863281 -42.11199951171875,-9.277000427246094 -42.11199951171875,-9.277000427246094z"/></g></g><g transform="matrix(1,0,0,1,279.0780029296875,385.34100341796875)" opacity="1" style="display: block;"><g opacity="1" transform="matrix(1,0,0,1,0,0)"><path class="octonary" fill="rgb(242,76,0)" fill-opacity="1" d=" M-24.465999603271484,-9.8149995803833 C-24.465999603271484,-9.8149995803833 -29.426000595092773,-4.0279998779296875 -36.88100051879883,4.9039998054504395 C-38.50899887084961,6.854000091552734 -37.12200164794922,9.8149995803833 -34.582000732421875,9.8149995803833 C-34.582000732421875,9.8149995803833 34.582000732421875,9.8149995803833 34.582000732421875,9.8149995803833 C37.12200164794922,9.8149995803833 38.50899887084961,6.854000091552734 36.88100051879883,4.9039998054504395 C29.426000595092773,-4.0279998779296875 24.465999603271484,-9.8149995803833 24.465999603271484,-9.8149995803833 C24.465999603271484,-9.8149995803833 -24.465999603271484,-9.8149995803833 -24.465999603271484,-9.8149995803833z"/></g></g><g transform="matrix(1,0,0,1,278.3739929199219,70.7550048828125)" opacity="1" style="display: block;"><g opacity="1" transform="matrix(1,0,0,1,0,0)"><path class="tertiary" fill="rgb(249,201,192)" fill-opacity="1" d=" M13.220000267028809,29.570999145507812 C13.220000267028809,29.570999145507812 -4.322999954223633,27.104999542236328 -4.322999954223633,27.104999542236328 C-4.322999954223633,27.104999542236328 -23.952999114990234,23.500999450683594 -22.90999984741211,-9.595000267028809 C-22.340999603271484,-28.94099998474121 -2.617000102996826,-29.415000915527344 -2.617000102996826,-29.415000915527344 C-2.617000102996826,-29.415000915527344 26.402000427246094,-34.34600067138672 22.608999252319336,6.432000160217285 C21.94499969482422,14.493000030517578 20.80699920654297,21.31999969482422 19.479000091552734,25.493000030517578 C18.625999450683594,28.148000717163086 15.970000267028809,29.856000900268555 13.220000267028809,29.570999145507812z"/></g></g><g transform="matrix(1,0,0,1,272.14501953125,69.9590072631836)" opacity="0.5" style="mix-blend-mode: multiply; display: block;"><g opacity="1" transform="matrix(1,0,0,1,0,0)"><path class="tertiary" fill="rgb(249,201,192)" fill-opacity="1" d=" M1.906000018119812,27.900999069213867 C1.906000018119812,27.900999069213867 8.336000442504883,28.80500030517578 8.336000442504883,28.80500030517578 C2.694999933242798,25.88800048828125 -7.263999938964844,17.34600067138672 -6.513000011444092,-6.47599983215332 C-5.943999767303467,-25.82200050354004 13.781000137329102,-26.29599952697754 13.781000137329102,-26.29599952697754 C13.781000137329102,-26.29599952697754 14.920999526977539,-26.489999771118164 16.72100067138672,-26.482999801635742 C10.222999572753906,-29.742000579833984 3.61299991607666,-28.618000030517578 3.61299991607666,-28.618000030517578 C3.61299991607666,-28.618000030517578 -16.11199951171875,-28.143999099731445 -16.680999755859375,-8.79800033569336 C-17.724000930786133,24.29800033569336 1.906000018119812,27.900999069213867 1.906000018119812,27.900999069213867z"/></g></g><g transform="matrix(1,0,0,1,304.2120056152344,152.19000244140625)" opacity="1" style="display: block;"><g opacity="1" transform="matrix(1,0,0,1,0,0)"><path class="septenary" fill="rgb(242,139,168)" fill-opacity="1" d=" M9.79800033569336,-1.7170000076293945 C9.79800033569336,-1.7170000076293945 12.927000045776367,-32.53300094604492 12.927000045776367,-32.53300094604492 C-1.2300000190734863,-32.56999969482422 -15.387999534606934,-32.5620002746582 -29.545000076293945,-32.6510009765625 C-29.545000076293945,-32.6510009765625 -29.54599952697754,-32.6510009765625 -29.54599952697754,-32.6510009765625 C-38.83000183105469,-32.70899963378906 -48.143001556396484,-32.766998291015625 -57.24800109863281,-30.735000610351562 C-73.18000030517578,-27.131000518798828 -81.5250015258789,-16.795000076293945 -88.25800323486328,2.5510001182556152 C-88.25800323486328,2.5510001182556152 -114.16200256347656,78.33499908447266 -114.16200256347656,78.33499908447266 C-114.64299774169922,79.74299621582031 -114.0199966430664,81.2760009765625 -112.61599731445312,81.7699966430664 C-106.59300231933594,83.88800048828125 -90.73300170898438,87.11299896240234 -83.51599884033203,65.99299621582031 C-83.51599884033203,65.99299621582031 -58.66999816894531,6.629000186920166 -58.66999816894531,6.629000186920166 C-58.66999816894531,6.629000186920166 -54.2130012512207,40.577999114990234 -54.2130012512207,40.577999114990234 C-54.2130012512207,40.577999114990234 4.203000068664551,40.577999114990234 4.203000068664551,40.577999114990234 C4.203000068664551,40.577999114990234 9.79800033569336,-1.7170000076293945 9.79800033569336,-1.7170000076293945z"/></g></g><g transform="matrix(1,0,0,1,304.15399169921875,152.25)" opacity="1" style="display: block;"><path class="septenary" fill="rgb(242,139,168)" fill-opacity="1" d=" M11.022000312805176,-31.908000946044922 C11.022000312805176,-31.908000946044922 49.02799987792969,-47.04199981689453 49.02799987792969,-47.04199981689453 C50.35599899291992,-47.51599884033203 51.5890007019043,-48.369998931884766 52.63199996948242,-49.41299819946289 C52.63199996948242,-49.41299819946289 86.39199829101562,-79.75900268554688 86.39199829101562,-79.75900268554688 C104.50499725341797,-91.4229965209961 115.03099822998047,-70.65499877929688 115.03099822998047,-70.65499877929688 C115.03099822998047,-70.65499877929688 68.75299835205078,-28.17099952697754 68.75299835205078,-28.17099952697754 C67.70999908447266,-27.222999572753906 66.5719985961914,-26.464000701904297 65.33899688720703,-25.895000457763672 C65.33899688720703,-25.895000457763672 8.392999649047852,-1.4670000076293945 8.392999649047852,-1.4670000076293945"/><g opacity="1" transform="matrix(1,0,0,1,0,0)"/></g><g transform="matrix(1,0,0,1,266.8580017089844,54.267005920410156)" opacity="1" style="display: block;"><g opacity="1" transform="matrix(1,0,0,1,0,0)"><path class="secondary" fill="rgb(178,104,54)" fill-opacity="1" d=" M21.222999572753906,-12.710000038146973 C26.641000747680664,-10.366000175476074 30.19300079345703,-6.804999828338623 32.80699920654297,-1.1260000467300415 C32.80699920654297,-1.1260000467300415 32.779998779296875,-1.1260000467300415 32.779998779296875,-1.1260000467300415 C32.88800048828125,-0.8960000276565552 32.928001403808594,-0.6399999856948853 32.89699935913086,-0.3880000114440918 C32.86600112915039,-0.13600000739097595 32.76300048828125,0.10300000011920929 32.60200119018555,0.29899999499320984 C32.441001892089844,0.4950000047683716 32.22600173950195,0.640999972820282 31.985000610351562,0.7210000157356262 C31.743999481201172,0.8009999990463257 31.485000610351562,0.8109999895095825 31.238000869750977,0.7490000128746033 C28.57900047302246,0.10899999737739563 20.106000900268555,-2.0820000171661377 14.49899959564209,-5.255000114440918 C13.218999862670898,-1.180999994277954 8.269000053405762,8.473999977111816 -10.218999862670898,18.785999298095703 C-10.420000076293945,18.89900016784668 -10.645999908447266,18.958999633789062 -10.876999855041504,18.95800018310547 C-11.086999893188477,18.958999633789062 -11.293999671936035,18.909000396728516 -11.480999946594238,18.812999725341797 C-11.678999900817871,18.71500015258789 -11.848999977111816,18.56999969482422 -11.977999687194824,18.391000747680664 C-12.107000350952148,18.211999893188477 -12.1899995803833,18.0049991607666 -12.220000267028809,17.785999298095703 C-12.463000297546387,15.96500015258789 -12.616000175476074,14 -12.687999725341797,11.972000122070312 C-14.130000114440918,12.39900016784668 -15.628000259399414,12.609000205993652 -17.131999969482422,12.593999862670898 C-21.31599998474121,12.593999862670898 -25.32900047302246,10.930999755859375 -28.28700065612793,7.9730000495910645 C-31.2450008392334,5.014999866485596 -32.90700149536133,1.003000020980835 -32.90700149536133,-3.180999994277954 C-32.90700149536133,-7.364999771118164 -31.2450008392334,-11.378000259399414 -28.28700065612793,-14.336000442504883 C-25.32900047302246,-17.29400062561035 -21.31599998474121,-18.95599937438965 -17.131999969482422,-18.95599937438965 C-14.263999938964844,-18.993000030517578 -11.442999839782715,-18.23900032043457 -8.97599983215332,-16.775999069213867 C-6.508999824523926,-15.312999725341797 -4.49399995803833,-13.196999549865723 -3.1510000228881836,-10.663000106811523 C-1.6069999933242798,-11.60200023651123 0.03700000047683716,-12.36400032043457 1.7519999742507935,-12.9350004196167 C1.7519999742507935,-12.9350004196167 1.8519999980926514,-12.9350004196167 1.8519999980926514,-12.9350004196167 C4.114999771118164,-13.690999984741211 6.466000080108643,-14.14900016784668 8.847000122070312,-14.295999526977539 C13.017000198364258,-14.812999725341797 17.249000549316406,-14.267999649047852 21.150999069213867,-12.710000038146973 C21.150999069213867,-12.710000038146973 21.222999572753906,-12.710000038146973 21.222999572753906,-12.710000038146973z"/></g></g><g transform="matrix(1,0,0,1,248.5590057373047,49.88300323486328)" opacity="0.5" style="mix-blend-mode: multiply; display: block;"><g opacity="1" transform="matrix(1,0,0,1,0,0)"><path class="secondary" fill="rgb(178,104,54)" fill-opacity="1" d=" M-9.987000465393066,12.357000350952148 C-9.138999938964844,13.204999923706055 -8.204999923706055,13.947999954223633 -7.203999996185303,14.574000358581543 C-8.762999534606934,12.083999633789062 -9.607999801635742,9.187000274658203 -9.607999801635742,6.203000068664551 C-9.607999801635742,2.0190000534057617 -7.945000171661377,-1.99399995803833 -4.986999988555908,-4.952000141143799 C-2.0290000438690186,-7.909999847412109 1.9830000400543213,-9.571999549865723 6.166999816894531,-9.571999549865723 C9.03499984741211,-9.609000205993652 11.857000350952148,-8.854000091552734 14.324000358581543,-7.390999794006348 C14.418999671936035,-7.334000110626221 14.513999938964844,-7.2779998779296875 14.607999801635742,-7.218999862670898 C13.289999961853027,-9.336999893188477 11.479000091552734,-11.11299991607666 9.324000358581543,-12.390999794006348 C6.85699987411499,-13.854000091552734 4.034999847412109,-14.609000205993652 1.1670000553131104,-14.571999549865723 C-3.0169999599456787,-14.571999549865723 -7.0289998054504395,-12.90999984741211 -9.987000465393066,-9.95199966430664 C-12.944999694824219,-6.99399995803833 -14.607999801635742,-2.9809999465942383 -14.607999801635742,1.2029999494552612 C-14.607999801635742,5.38700008392334 -12.944999694824219,9.39900016784668 -9.987000465393066,12.357000350952148z"/></g></g><g transform="matrix(1,0,0,1,0,0)" opacity="1" style="display: block;"><g opacity="1" transform="matrix(1,0,0,1,301.2510070800781,293.99200439453125)"><g opacity="1" transform="matrix(1,0,0,1,0,0)"><path stroke-linecap="round" stroke-linejoin="round" fill-opacity="0" class="primary" stroke="rgb(18,19,49)" stroke-opacity="1" stroke-width="7" d=" M-22.07900047302246,101.16400146484375 C-22.07900047302246,101.16400146484375 18.792999267578125,101.16400146484375 18.792999267578125,101.16400146484375 C9.119999885559082,89.5 2.2929999828338623,81.53399658203125 2.2929999828338623,81.53399658203125 C2.2929999828338623,81.53399658203125 19.930999755859375,-13.866999626159668 19.930999755859375,-13.866999626159668 C25.336000442504883,-43.16999816894531 20.35300064086914,-84.09400177001953 7.077000141143799,-101.16400146484375"/></g></g><g opacity="1" transform="matrix(1,0,0,1,256.9110107421875,293.99200439453125)"><g opacity="1" transform="matrix(1,0,0,1,0,0)"><path stroke-linecap="round" stroke-linejoin="round" fill-opacity="0" class="primary" stroke="rgb(18,19,49)" stroke-opacity="1" stroke-width="7" d=" M22.07200050354004,-50.37699890136719 C22.07200050354004,-50.37699890136719 22.07200050354004,101.16400146484375 22.07200050354004,101.16400146484375 C22.07200050354004,101.16400146484375 -18.799999237060547,101.16400146484375 -18.799999237060547,101.16400146484375 C-9.126999855041504,89.5 -2.299999952316284,81.53399658203125 -2.299999952316284,81.53399658203125 C-2.299999952316284,81.53399658203125 -19.937999725341797,-13.866999626159668 -19.937999725341797,-13.866999626159668 C-25.343000411987305,-43.16999816894531 -20.2810001373291,-84.09400177001953 -7.005000114440918,-101.16400146484375"/></g></g></g><g transform="matrix(1,0,0,1,0,0)" opacity="1" style="display: block;"><g opacity="1" transform="matrix(1,0,0,1,278.375,70.75399780273438)"><g opacity="1" transform="matrix(1,0,0,1,0,0)"><path stroke-linecap="round" stroke-linejoin="round" fill-opacity="0" class="primary" stroke="rgb(18,19,49)" stroke-opacity="1" stroke-width="7" d=" M13.220000267028809,29.570999145507812 C13.220000267028809,29.570999145507812 -4.322999954223633,27.104999542236328 -4.322999954223633,27.104999542236328 C-4.322999954223633,27.104999542236328 -23.952999114990234,23.500999450683594 -22.90999984741211,-9.595000267028809 C-22.340999603271484,-28.94099998474121 -2.617000102996826,-29.415000915527344 -2.617000102996826,-29.415000915527344 C-2.617000102996826,-29.415000915527344 26.402000427246094,-34.34600067138672 22.608999252319336,6.432000160217285 C21.94499969482422,14.493000030517578 20.80699920654297,21.31999969482422 19.479000091552734,25.493000030517578 C18.625999450683594,28.148000717163086 15.970000267028809,29.856000900268555 13.220000267028809,29.570999145507812z"/></g></g><g opacity="1" transform="matrix(1,0,0,1,249.06300354003906,51.106998443603516)"><g opacity="1" transform="matrix(1,0,0,1,0,0)"><path stroke-linecap="round" stroke-linejoin="round" fill-opacity="0" class="primary" stroke="rgb(18,19,49)" stroke-opacity="1" stroke-width="7" d=" M6.306000232696533,14.699000358581543 C4.504000186920166,15.36299991607666 2.7019999027252197,15.741999626159668 0.6159999966621399,15.741999626159668 C-8.109000205993652,15.741999626159668 -15.12600040435791,8.725000381469727 -15.12600040435791,0 C-15.12600040435791,-8.725000381469727 -8.109000205993652,-15.741999626159668 0.6159999966621399,-15.741999626159668 C7.158999919891357,-15.741999626159668 12.755000114440918,-11.949000358581543 15.12600040435791,-6.258999824523926"/></g></g></g><g transform="matrix(1,0,0,1,304.15399169921875,152.25)" opacity="1" style="display: block;"><g opacity="1" transform="matrix(1,0,0,1,0,0)"><path stroke-linecap="round" stroke-linejoin="round" fill-opacity="0" class="primary" stroke="rgb(18,19,49)" stroke-opacity="1" stroke-width="7" d=" M9.767999649047852,-1.7170000076293945 C9.767999649047852,-1.7170000076293945 4.172999858856201,40.577999114990234 4.172999858856201,40.577999114990234 C4.172999858856201,40.577999114990234 -54.24300003051758,40.577999114990234 -54.24300003051758,40.577999114990234 C-54.24300003051758,40.577999114990234 -58.70100021362305,6.629000186920166 -58.70100021362305,6.629000186920166 M-58.70100021362305,6.629000186920166 C-58.70100021362305,6.629000186920166 -83.5469970703125,65.99299621582031 -83.5469970703125,65.99299621582031 C-92.55599975585938,92.35600280761719 -115.03099822998047,80.78700256347656 -115.03099822998047,80.78700256347656 C-115.03099822998047,80.78700256347656 -88.28800201416016,2.5510001182556152 -88.28800201416016,2.5510001182556152 C-81.55500030517578,-16.795000076293945 -73.20999908447266,-27.131000518798828 -57.27799987792969,-30.735000610351562 C-46.65700149536133,-33.10599899291992 -35.75199890136719,-32.63199996948242 -24.94099998474121,-32.63199996948242 C-24.94099998474121,-32.63199996948242 12.878000259399414,-32.53099822998047 12.878000259399414,-32.53099822998047"/></g></g><g transform="matrix(1,0,0,1,304.15399169921875,152.25)" opacity="1" style="display: block;"><g opacity="1" transform="matrix(1,0,0,1,0,0)"><path stroke-linecap="round" stroke-linejoin="round" fill-opacity="0" class="primary" stroke="rgb(18,19,49)" stroke-opacity="1" stroke-width="7" d=" M12.897000312805176,-32.53300094604492 C12.897000312805176,-32.53300094604492 49.02799987792969,-47.04199981689453 49.02799987792969,-47.04199981689453 C50.35599899291992,-47.51599884033203 51.5890007019043,-48.369998931884766 52.63199996948242,-49.41299819946289 C52.63199996948242,-49.41299819946289 86.39199829101562,-79.75900268554688 86.39199829101562,-79.75900268554688 C104.50499725341797,-91.4229965209961 115.03099822998047,-70.65499877929688 115.03099822998047,-70.65499877929688 C115.03099822998047,-70.65499877929688 68.75299835205078,-28.17099952697754 68.75299835205078,-28.17099952697754 C67.70999908447266,-27.222999572753906 66.5719985961914,-26.464000701904297 65.33899688720703,-25.895000457763672 C65.33899688720703,-25.895000457763672 9.767999649047852,-1.7170000076293945 9.767999649047852,-1.7170000076293945"/></g></g></g></g></g></svg>