<svg xmlns="http://www.w3.org/2000/svg" xmlns:xlink="http://www.w3.org/1999/xlink" viewBox="0 0 430 430" width="430" height="430" preserveAspectRatio="xMidYMid meet" style="width: 100%; height: 100%; transform: translate3d(0px, 0px, 0px); content-visibility: visible;"><defs><clipPath id="__lottie_element_249"><rect width="430" height="430" x="0" y="0"/></clipPath><clipPath id="__lottie_element_251"><path d="M0,0 L430,0 L430,430 L0,430z"/></clipPath></defs><g clip-path="url(#__lottie_element_249)"><g clip-path="url(#__lottie_element_251)" transform="matrix(1,0,0,1,0,0)" opacity="1" style="display: block;"><g transform="matrix(1,0,0,1,337.80999755859375,260.9909973144531)" opacity="1" style="display: block;"><g opacity="1" transform="matrix(1,0,0,1,0,0)"><path class="secondary" fill="rgb(235,230,239)" fill-opacity="1" d=" M-36.856998443603516,-113.76300048828125 C-36.856998443603516,-113.76300048828125 33.85200119018555,-113.9020004272461 33.85200119018555,-113.9020004272461 C35.51100158691406,-113.90499877929688 36.856998443603516,-112.56099700927734 36.856998443603516,-110.9020004272461 C36.856998443603516,-110.9020004272461 36.856998443603516,110.76300048828125 36.856998443603516,110.76300048828125 C36.856998443603516,112.41799926757812 35.518001556396484,113.76000213623047 33.862998962402344,113.76300048828125 C33.862998962402344,113.76300048828125 -36.856998443603516,113.9020004272461 -36.856998443603516,113.9020004272461"/></g></g><g transform="matrix(1,0,0,1,94.19000244140625,260.9909973144531)" opacity="1" style="display: block;"><g opacity="1" transform="matrix(1,0,0,1,0,0)"><path class="secondary" fill="rgb(235,230,239)" fill-opacity="1" d=" M36.856998443603516,-113.76300048828125 C36.856998443603516,-113.76300048828125 -33.85200119018555,-113.9020004272461 -33.85200119018555,-113.9020004272461 C-35.51100158691406,-113.90499877929688 -36.856998443603516,-112.56099700927734 -36.856998443603516,-110.9020004272461 C-36.856998443603516,-110.9020004272461 -36.856998443603516,110.76300048828125 -36.856998443603516,110.76300048828125 C-36.856998443603516,112.41799926757812 -35.518001556396484,113.76000213623047 -33.862998962402344,113.76300048828125 C-33.862998962402344,113.76300048828125 36.856998443603516,113.9020004272461 36.856998443603516,113.9020004272461"/></g></g><g transform="matrix(1,0,0,1,337.80999755859375,260.9909973144531)" opacity="0.2" style="mix-blend-mode: multiply; display: block;"><g opacity="1" transform="matrix(1,0,0,1,0,0)" style="mix-blend-mode: multiply;"><path class="secondary" fill="rgb(235,230,239)" fill-opacity="1" d=" M-36.856998443603516,-113.76300048828125 C-36.856998443603516,-113.76300048828125 33.85200119018555,-113.9020004272461 33.85200119018555,-113.9020004272461 C35.51100158691406,-113.90499877929688 36.856998443603516,-112.56099700927734 36.856998443603516,-110.9020004272461 C36.856998443603516,-110.9020004272461 36.856998443603516,110.76300048828125 36.856998443603516,110.76300048828125 C36.856998443603516,112.41799926757812 35.518001556396484,113.76000213623047 33.862998962402344,113.76300048828125 C33.862998962402344,113.76300048828125 -36.856998443603516,113.9020004272461 -36.856998443603516,113.9020004272461"/></g></g><g transform="matrix(1,0,0,1,94.19000244140625,260.9909973144531)" opacity="0.2" style="mix-blend-mode: multiply; display: block;"><g opacity="1" transform="matrix(1,0,0,1,0,0)" style="mix-blend-mode: multiply;"><path class="secondary" fill="rgb(235,230,239)" fill-opacity="1" d=" M36.856998443603516,-113.76300048828125 C36.856998443603516,-113.76300048828125 -33.85200119018555,-113.9020004272461 -33.85200119018555,-113.9020004272461 C-35.51100158691406,-113.90499877929688 -36.856998443603516,-112.56099700927734 -36.856998443603516,-110.9020004272461 C-36.856998443603516,-110.9020004272461 -36.856998443603516,110.76300048828125 -36.856998443603516,110.76300048828125 C-36.856998443603516,112.41799926757812 -35.518001556396484,113.76000213623047 -33.862998962402344,113.76300048828125 C-33.862998962402344,113.76300048828125 36.856998443603516,113.9020004272461 36.856998443603516,113.9020004272461"/></g></g><g transform="matrix(1,0,0,1,216.05299377441406,215)" opacity="1" style="display: block;"><g opacity="1" transform="matrix(1,0,0,1,0,0)"><path class="secondary" fill="rgb(235,230,239)" fill-opacity="1" d=" M85.68199920654297,159.89300537109375 C85.68199920654297,159.89300537109375 -85.68199920654297,159.89300537109375 -85.68199920654297,159.89300537109375 C-85.68199920654297,159.89300537109375 -85.68199920654297,-156.89100646972656 -85.68199920654297,-156.89100646972656 C-85.68199920654297,-158.5489959716797 -84.33899688720703,-159.89300537109375 -82.68199920654297,-159.89300537109375 C-82.68199920654297,-159.89300537109375 82.68199920654297,-159.89300537109375 82.68199920654297,-159.89300537109375 C84.33899688720703,-159.89300537109375 85.68199920654297,-158.5489959716797 85.68199920654297,-156.89100646972656 C85.68199920654297,-156.89100646972656 85.68199920654297,159.89300537109375 85.68199920654297,159.89300537109375z"/></g></g><g transform="matrix(1,0,0,1,111.875,260.8500061035156)" opacity="0.5" style="mix-blend-mode: multiply; display: block;"><g opacity="1" transform="matrix(1,0,0,1,0,0)"><path class="secondary" fill="rgb(235,230,239)" fill-opacity="1" d=" M-18.625,113.8499984741211 C-18.625,113.8499984741211 -18.625,-113.8499984741211 -18.625,-113.8499984741211 C-18.625,-113.8499984741211 18.625,-113.8499984741211 18.625,-113.8499984741211 C18.625,-113.8499984741211 18.625,113.8499984741211 18.625,113.8499984741211 C18.625,113.8499984741211 -18.625,113.8499984741211 -18.625,113.8499984741211z"/></g></g><g transform="matrix(1,0,0,1,317.57501220703125,260.7749938964844)" opacity="0.5" style="mix-blend-mode: multiply; display: block;"><g opacity="1" transform="matrix(1,0,0,1,0,0)"><path class="secondary" fill="rgb(235,230,239)" fill-opacity="1" d=" M-18.575000762939453,113.82499694824219 C-18.575000762939453,113.82499694824219 -18.575000762939453,-113.7750015258789 -18.575000762939453,-113.7750015258789 C-18.575000762939453,-113.7750015258789 18.575000762939453,-113.82499694824219 18.575000762939453,-113.82499694824219 C18.575000762939453,-113.82499694824219 18.575000762939453,113.82499694824219 18.575000762939453,113.82499694824219 C18.575000762939453,113.82499694824219 -18.575000762939453,113.82499694824219 -18.575000762939453,113.82499694824219z"/></g></g><g transform="matrix(1,0,0,1,142.6999969482422,214.8000030517578)" opacity="0.3" style="mix-blend-mode: multiply; display: block;"><g opacity="1" transform="matrix(1,0,0,1,0,0)"><path class="secondary" fill="rgb(235,230,239)" fill-opacity="1" d=" M-12.199999809265137,159.8000030517578 C-12.199999809265137,159.8000030517578 12.1850004196167,159.8000030517578 12.1850004196167,159.8000030517578 C12.1850004196167,159.8000030517578 12.199999809265137,-159.8000030517578 12.199999809265137,-159.8000030517578 C12.199999809265137,-159.8000030517578 -9.199999809265137,-159.8000030517578 -9.199999809265137,-159.8000030517578 C-10.857000350952148,-159.8000030517578 -12.199999809265137,-158.45700073242188 -12.199999809265137,-156.8000030517578 C-12.199999809265137,-156.8000030517578 -12.199999809265137,159.8000030517578 -12.199999809265137,159.8000030517578z"/></g></g><g transform="matrix(1,0,0,1,215,215)" opacity="1" style="display: block;"><g opacity="1" transform="matrix(1,0,0,1,0,0)" style="mix-blend-mode: multiply;"><path class="tertiary" fill="rgb(58,51,71)" fill-opacity="1" d=" M35.6870002746582,159.8000030517578 C35.6870002746582,159.8000030517578 -33.582000732421875,159.8000030517578 -33.582000732421875,159.8000030517578 C-33.582000732421875,159.8000030517578 -33.582000732421875,77.85299682617188 -33.582000732421875,77.85299682617188 C-33.582000732421875,77.85299682617188 35.6870002746582,77.85299682617188 35.6870002746582,77.85299682617188 C35.6870002746582,77.85299682617188 35.6870002746582,159.8000030517578 35.6870002746582,159.8000030517578z"/></g><g opacity="0.5" transform="matrix(1,0,0,1,0,0)" style="mix-blend-mode: multiply;"><path class="tertiary" fill="rgb(58,51,71)" fill-opacity="1" d=" M35.6870002746582,159.8000030517578 C35.6870002746582,159.8000030517578 -33.582000732421875,159.8000030517578 -33.582000732421875,159.8000030517578 C-33.582000732421875,159.8000030517578 -33.582000732421875,77.85299682617188 -33.582000732421875,77.85299682617188 C-33.582000732421875,77.85299682617188 35.6870002746582,77.85299682617188 35.6870002746582,77.85299682617188 C35.6870002746582,77.85299682617188 35.6870002746582,159.8000030517578 35.6870002746582,159.8000030517578z"/></g></g><g transform="matrix(0.8999999761581421,0,0,0.8999999761581421,202.93800354003906,333.6400146484375)" opacity="1" style="display: block;"><g opacity="1" transform="matrix(1,0,0,1,0,0)"><path class="tertiary" fill="rgb(58,51,71)" fill-opacity="1" d=" M15.170000076293945,45.220001220703125 C15.170000076293945,45.220001220703125 -22.947999954223633,45.310001373291016 -22.947999954223633,45.310001373291016 C-22.947999954223633,45.310001373291016 -22.947999954223633,-42.310001373291016 -22.947999954223633,-42.310001373291016 C-22.947999954223633,-43.96699905395508 -21.604999542236328,-45.310001373291016 -19.947999954223633,-45.310001373291016 C-19.947999954223633,-45.310001373291016 15.170000076293945,-45.400001525878906 15.170000076293945,-45.400001525878906 C15.170000076293945,-45.400001525878906 15.170000076293945,45.220001220703125 15.170000076293945,45.220001220703125z"/></g></g><g transform="matrix(1,0,0,1,214.64999389648438,114.4000015258789)" opacity="1" style="display: block;"><g opacity="1" transform="matrix(1,0,0,1,0,0)"><path class="quaternary" fill="rgb(242,76,0)" fill-opacity="1" d=" M-12.5,-33.900001525878906 C-12.5,-33.900001525878906 -12.5,-12.5 -12.5,-12.5 C-12.5,-12.5 -33.900001525878906,-12.5 -33.900001525878906,-12.5 C-33.900001525878906,-12.5 -33.900001525878906,12.5 -33.900001525878906,12.5 C-33.900001525878906,12.5 -12.5,12.5 -12.5,12.5 C-12.5,12.5 -12.5,33.900001525878906 -12.5,33.900001525878906 C-12.5,33.900001525878906 12.5,33.900001525878906 12.5,33.900001525878906 C12.5,33.900001525878906 12.5,12.5 12.5,12.5 C12.5,12.5 33.900001525878906,12.5 33.900001525878906,12.5 C33.900001525878906,12.5 33.900001525878906,-12.5 33.900001525878906,-12.5 C33.900001525878906,-12.5 12.5,-12.5 12.5,-12.5 C12.5,-12.5 12.5,-33.900001525878906 12.5,-33.900001525878906 C12.5,-33.900001525878906 -12.5,-33.900001525878906 -12.5,-33.900001525878906z"/></g></g><g transform="matrix(1,0,0,1,197.6999969482422,114.4000015258789)" opacity="0.5" style="mix-blend-mode: multiply; display: block;"><g opacity="1" transform="matrix(1,0,0,1,0,0)"><path class="quaternary" fill="rgb(242,76,0)" fill-opacity="1" d=" M4.449999809265137,-12.5 C4.449999809265137,-12.5 4.449999809265137,-33.900001525878906 4.449999809265137,-33.900001525878906 C4.449999809265137,-33.900001525878906 16.950000762939453,-33.900001525878906 16.950000762939453,-33.900001525878906 C16.950000762939453,-33.900001525878906 16.950000762939453,33.900001525878906 16.950000762939453,33.900001525878906 C16.950000762939453,33.900001525878906 4.449999809265137,33.900001525878906 4.449999809265137,33.900001525878906 C4.449999809265137,33.900001525878906 4.449999809265137,12.5 4.449999809265137,12.5 C4.449999809265137,12.5 -16.950000762939453,12.5 -16.950000762939453,12.5 C-16.950000762939453,12.5 -16.950000762939453,-12.5 -16.950000762939453,-12.5 C-16.950000762939453,-12.5 4.449999809265137,-12.5 4.449999809265137,-12.5z"/></g></g><g transform="matrix(1,0,0,1,214.64999389648438,114.4000015258789)" opacity="1" style="display: block;"><g opacity="1" transform="matrix(1,0,0,1,0,0)"><path stroke-linecap="butt" stroke-linejoin="round" fill-opacity="0" class="primary" stroke="rgb(18,19,49)" stroke-opacity="1" stroke-width="10.5" d=" M-12.5,-33.900001525878906 C-12.5,-33.900001525878906 -12.5,-12.5 -12.5,-12.5 C-12.5,-12.5 -33.900001525878906,-12.5 -33.900001525878906,-12.5 C-33.900001525878906,-12.5 -33.900001525878906,12.5 -33.900001525878906,12.5 C-33.900001525878906,12.5 -12.5,12.5 -12.5,12.5 C-12.5,12.5 -12.5,33.900001525878906 -12.5,33.900001525878906 C-12.5,33.900001525878906 12.5,33.900001525878906 12.5,33.900001525878906 C12.5,33.900001525878906 12.5,12.5 12.5,12.5 C12.5,12.5 33.900001525878906,12.5 33.900001525878906,12.5 C33.900001525878906,12.5 33.900001525878906,-12.5 33.900001525878906,-12.5 C33.900001525878906,-12.5 12.5,-12.5 12.5,-12.5 C12.5,-12.5 12.5,-33.900001525878906 12.5,-33.900001525878906 C12.5,-33.900001525878906 -12.5,-33.900001525878906 -12.5,-33.900001525878906z"/></g></g><g transform="matrix(-0.8999999761581421,0,0,0.8999999761581421,230.43800354003906,333.6400146484375)" opacity="1" style="display: block;"><g opacity="1" transform="matrix(1,0,0,1,0,0)"><path class="tertiary" fill="rgb(58,51,71)" fill-opacity="1" d=" M15.725000381469727,45.15599822998047 C15.725000381469727,45.15599822998047 -22.947999954223633,45.310001373291016 -22.947999954223633,45.310001373291016 C-22.947999954223633,45.310001373291016 -22.947999954223633,-42.310001373291016 -22.947999954223633,-42.310001373291016 C-22.947999954223633,-43.96699905395508 -21.604999542236328,-45.310001373291016 -19.947999954223633,-45.310001373291016 C-19.947999954223633,-45.310001373291016 15.725000381469727,-45.46500015258789 15.725000381469727,-45.46500015258789 C15.725000381469727,-45.46500015258789 15.725000381469727,45.15599822998047 15.725000381469727,45.15599822998047z"/></g></g><g transform="matrix(1,0,0,1,237.5,216)" opacity="1" style="display: block;"><g opacity="1" transform="matrix(1,0,0,1,0,0)"><path stroke-linecap="round" stroke-linejoin="round" fill-opacity="0" class="primary" stroke="rgb(18,19,49)" stroke-opacity="1" stroke-width="10.5" d=" M63.45199966430664,-68.67900085449219 C63.45199966430664,-68.67900085449219 137.16700744628906,-68.822998046875 137.16700744628906,-68.822998046875 C137.16700744628906,-68.822998046875 137.16700744628906,158.8419952392578 137.16700744628906,158.8419952392578 C137.16700744628906,158.8419952392578 63.45199966430664,158.98599243164062 63.45199966430664,158.98599243164062"/></g><g opacity="1" transform="matrix(1,0,0,1,0,0)"><path stroke-linecap="round" stroke-linejoin="round" fill-opacity="0" class="primary" stroke="rgb(18,19,49)" stroke-opacity="1" stroke-width="10.5" d=" M87.93900299072266,-34.23899841308594 C87.93900299072266,-34.23899841308594 112.59200286865234,-34.382999420166016 112.59200286865234,-34.382999420166016"/></g><g opacity="1" transform="matrix(1,0,0,1,0,0)"><path stroke-linecap="round" stroke-linejoin="round" fill-opacity="0" class="primary" stroke="rgb(18,19,49)" stroke-opacity="1" stroke-width="10.5" d=" M87.93900299072266,5.933000087738037 C87.93900299072266,5.933000087738037 112.59200286865234,5.788000106811523 112.59200286865234,5.788000106811523"/></g><g opacity="1" transform="matrix(1,0,0,1,0,0)"><path stroke-linecap="round" stroke-linejoin="round" fill-opacity="0" class="primary" stroke="rgb(18,19,49)" stroke-opacity="1" stroke-width="10.5" d=" M87.93900299072266,45.775001525878906 C87.93900299072266,45.775001525878906 112.59200286865234,45.63100051879883 112.59200286865234,45.63100051879883"/></g><g opacity="1" transform="matrix(1,0,0,1,0,0)"><path stroke-linecap="round" stroke-linejoin="round" fill-opacity="0" class="primary" stroke="rgb(18,19,49)" stroke-opacity="1" stroke-width="10.5" d=" M87.93900299072266,85.69599914550781 C87.93900299072266,85.69599914550781 112.59200286865234,85.552001953125 112.59200286865234,85.552001953125"/></g><g opacity="1" transform="matrix(1,0,0,1,0,0)"><path stroke-linecap="round" stroke-linejoin="round" fill-opacity="0" class="primary" stroke="rgb(18,19,49)" stroke-opacity="1" stroke-width="10.5" d=" M87.93900299072266,125.78900146484375 C87.93900299072266,125.78900146484375 112.59200286865234,125.64399719238281 112.59200286865234,125.64399719238281"/></g></g><g transform="matrix(-1,0,0,1,194.5,216)" opacity="1" style="display: block;"><g opacity="1" transform="matrix(1,0,0,1,0,0)"><path stroke-linecap="round" stroke-linejoin="round" fill-opacity="0" class="primary" stroke="rgb(18,19,49)" stroke-opacity="1" stroke-width="10.5" d=" M63.45199966430664,-68.67900085449219 C63.45199966430664,-68.67900085449219 137.16700744628906,-68.822998046875 137.16700744628906,-68.822998046875 C137.16700744628906,-68.822998046875 137.16700744628906,158.8419952392578 137.16700744628906,158.8419952392578 C137.16700744628906,158.8419952392578 63.45199966430664,158.98599243164062 63.45199966430664,158.98599243164062"/></g><g opacity="1" transform="matrix(1,0,0,1,0,0)"><path stroke-linecap="round" stroke-linejoin="round" fill-opacity="0" class="primary" stroke="rgb(18,19,49)" stroke-opacity="1" stroke-width="10.5" d=" M87.93900299072266,-34.23899841308594 C87.93900299072266,-34.23899841308594 112.59200286865234,-34.382999420166016 112.59200286865234,-34.382999420166016"/></g><g opacity="1" transform="matrix(1,0,0,1,0,0)"><path stroke-linecap="round" stroke-linejoin="round" fill-opacity="0" class="primary" stroke="rgb(18,19,49)" stroke-opacity="1" stroke-width="10.5" d=" M87.93900299072266,5.432000160217285 C87.93900299072266,5.432000160217285 112.59200286865234,5.288000106811523 112.59200286865234,5.288000106811523"/></g><g opacity="1" transform="matrix(1,0,0,1,0,0)"><path stroke-linecap="round" stroke-linejoin="round" fill-opacity="0" class="primary" stroke="rgb(18,19,49)" stroke-opacity="1" stroke-width="10.5" d=" M87.93900299072266,45.775001525878906 C87.93900299072266,45.775001525878906 112.59200286865234,45.63100051879883 112.59200286865234,45.63100051879883"/></g><g opacity="1" transform="matrix(1,0,0,1,0,0)"><path stroke-linecap="round" stroke-linejoin="round" fill-opacity="0" class="primary" stroke="rgb(18,19,49)" stroke-opacity="1" stroke-width="10.5" d=" M87.93900299072266,85.44599914550781 C87.93900299072266,85.44599914550781 112.59200286865234,85.302001953125 112.59200286865234,85.302001953125"/></g><g opacity="1" transform="matrix(1,0,0,1,0,0)"><path stroke-linecap="round" stroke-linejoin="round" fill-opacity="0" class="primary" stroke="rgb(18,19,49)" stroke-opacity="1" stroke-width="10.5" d=" M87.93900299072266,125.78900146484375 C87.93900299072266,125.78900146484375 112.59200286865234,125.64399719238281 112.59200286865234,125.64399719238281"/></g></g><g transform="matrix(1,0,0,1,215,215)" opacity="1" style="display: block;"><g opacity="1" transform="matrix(1,0,0,1,0,0)"><path stroke-linecap="round" stroke-linejoin="round" fill-opacity="0" class="primary" stroke="rgb(18,19,49)" stroke-opacity="1" stroke-width="10.5" d=" M35.6870002746582,159.8000030517578 C35.6870002746582,159.8000030517578 -33.582000732421875,159.8000030517578 -33.582000732421875,159.8000030517578 C-33.582000732421875,159.8000030517578 -33.582000732421875,77.85299682617188 -33.582000732421875,77.85299682617188 C-33.582000732421875,77.85299682617188 35.6870002746582,77.85299682617188 35.6870002746582,77.85299682617188 C35.6870002746582,77.85299682617188 35.6870002746582,159.8000030517578 35.6870002746582,159.8000030517578z"/></g><g opacity="1" transform="matrix(1,0,0,1,0,0)"><path stroke-linecap="round" stroke-linejoin="round" fill-opacity="0" class="primary" stroke="rgb(18,19,49)" stroke-opacity="1" stroke-width="10.5" d=" M85.27999877929688,159.8000030517578 C85.27999877929688,159.8000030517578 -83.17500305175781,159.8000030517578 -83.17500305175781,159.8000030517578 C-83.17500305175781,159.8000030517578 -83.17500305175781,-159.8000030517578 -83.17500305175781,-159.8000030517578 C-83.17500305175781,-159.8000030517578 85.27999877929688,-159.8000030517578 85.27999877929688,-159.8000030517578 C85.27999877929688,-159.8000030517578 85.27999877929688,159.8000030517578 85.27999877929688,159.8000030517578z"/></g><g opacity="1" transform="matrix(1,0,0,1,0,0)"><path stroke-linecap="round" stroke-linejoin="round" fill-opacity="0" class="primary" stroke="rgb(18,19,49)" stroke-opacity="1" stroke-width="10.5" d=" M1.0520000457763672,79.75 C1.0520000457763672,79.75 1.0520000457763672,159.8000030517578 1.0520000457763672,159.8000030517578 M1.0520000457763672,79.75 C1.0520000457763672,79.75 1.0520000457763672,159.8000030517578 1.0520000457763672,159.8000030517578"/></g><g opacity="1" transform="matrix(1,0,0,1,0,0)"><path stroke-linecap="round" stroke-linejoin="round" fill-opacity="0" class="primary" stroke="rgb(18,19,49)" stroke-opacity="1" stroke-width="10.5" d="M0 0"/></g><g opacity="1" transform="matrix(1,0,0,1,0,0)"><path stroke-linecap="round" stroke-linejoin="round" fill-opacity="0" class="primary" stroke="rgb(18,19,49)" stroke-opacity="1" stroke-width="10.5" d="M0 0"/></g><g opacity="1" transform="matrix(1,0,0,1,0,0)"><path stroke-linecap="round" stroke-linejoin="round" fill-opacity="0" class="primary" stroke="rgb(18,19,49)" stroke-opacity="1" stroke-width="10.5" d=" M60.46900177001953,-33.8120002746582 C60.46900177001953,-33.8120002746582 -59.172000885009766,-33.8120002746582 -59.172000885009766,-33.8120002746582"/></g><g opacity="1" transform="matrix(1,0,0,1,0,0)"><path stroke-linecap="round" stroke-linejoin="round" fill-opacity="0" class="primary" stroke="rgb(18,19,49)" stroke-opacity="1" stroke-width="10.5" d=" M60.46900177001953,5.413000106811523 C60.46900177001953,5.413000106811523 -59.172000885009766,5.413000106811523 -59.172000885009766,5.413000106811523"/></g><g opacity="1" transform="matrix(1,0,0,1,0,0)"><path stroke-linecap="round" stroke-linejoin="round" fill-opacity="0" class="primary" stroke="rgb(18,19,49)" stroke-opacity="1" stroke-width="10.5" d=" M60.46900177001953,46.36199951171875 C60.46900177001953,46.36199951171875 -59.172000885009766,46.36199951171875 -59.172000885009766,46.36199951171875"/></g></g></g></g></svg>