<svg version="1.1" xmlns="http://www.w3.org/2000/svg" viewBox="0 0 1712 1244" width="428" height="311" display="block"><path fill="#77a4f2" d="M 684.129 33.5829 C 687.664 33.1089 691.266 33.0068 694.829 32.8941 C 812.201 29.1826 933.095 56.5752 1032.63 120.332 C 1069.74 144.103 1102.9 172.311 1134.99 202.407 C 1128.27 212.814 1117.79 221.435 1109 230.125 C 1088.14 250.738 1066.03 270.635 1045.85 291.84 C 988.846 235.691 939.782 195.131 863.599 166.962 C 761.095 129.06 631.586 131.645 532.295 177.46 C 432.666 223.43 364.836 312.154 327.598 413.182 C 292.46 508.512 288.149 638.181 313.287 736.299 C 320.169 763.161 330.629 788.795 342.243 813.923 C 377.708 890.655 437.356 961.835 511.795 1003.22 C 539.699 1018.74 569.011 1029.52 598.857 1040.51 C 601.79 1037.83 604.634 1035.06 607.384 1032.19 C 638.852 999.011 652.234 958.438 656.477 913.533 C 657.379 903.985 658.708 894.171 658.385 884.57 C 657.429 856.178 632.39 830.195 612.074 812.755 C 603.816 805.666 594.948 799.446 587.014 791.962 C 556.616 806.493 523.78 812.967 490.483 805.257 C 454.019 796.814 406.898 763.61 387.169 731.848 C 422.309 710.188 458.265 698.986 499.881 704.014 C 529.364 707.577 559.418 723.906 578.36 746.792 C 585.818 755.803 592.041 767.119 600.884 774.76 C 607.264 780.274 615.494 784.291 622.449 789.16 C 638.746 800.568 653.048 814.963 665.315 830.57 C 651.957 769.639 607.198 715.978 562.325 674.482 C 551.637 673.492 540.857 673.524 530.178 672.268 C 506.161 669.444 481.555 659.898 460.751 647.788 C 424.122 626.466 399.8 590.604 388.273 550.344 C 384.826 538.308 383.29 525.922 380.082 513.832 C 393.267 514.743 406.483 514.464 419.706 515.55 C 450.446 518.073 483.176 527.857 509.046 544.927 C 549.938 571.906 568.982 611.588 578.678 658.388 C 586.725 666.531 595.724 673.77 604.165 681.5 C 626.85 702.275 662.769 736.065 680.347 760.481 C 679.082 742.365 679.95 723.915 680.145 705.752 C 680.238 697.148 681.054 687.496 679.477 679.022 C 677.252 667.069 614.833 575.527 604.079 562.867 C 572.91 552.603 543.905 537.885 522.394 512.441 C 497.334 482.8 486.042 441.035 486.285 402.744 C 486.394 385.531 488.739 368.193 490.222 351.049 C 532.854 367.088 583.289 395.851 608.508 435.039 C 631.361 470.55 632.292 510.376 623.509 550.439 C 643.533 578.352 662.915 606.641 682.577 634.802 C 679.472 614.809 680.91 593.441 680.914 573.2 L 681.119 474.978 C 673.764 465.404 665.291 456.521 658.706 446.366 C 643.341 422.667 633.843 389.689 634.186 361.45 C 634.713 318.056 662.005 272.624 692.212 243.161 C 716.39 265.784 734.918 292.031 746.361 323.261 C 761.517 364.623 752.108 409.966 728.57 446.403 C 722.328 456.067 711.758 465.374 707.211 475.679 C 707.113 475.9 707.027 476.125 706.935 476.349 C 706.665 510.529 706.635 544.711 706.846 578.892 C 706.833 596.856 708.45 616.702 705.133 634.313 C 713.877 623.923 721.161 611.454 728.878 600.21 C 740.383 583.447 752.362 567.012 763.71 550.141 C 763.368 549.333 763.058 548.528 762.74 547.71 C 762.311 546.607 761.883 545.517 761.519 544.39 C 752.221 515.608 758.705 470.169 772.234 443.392 C 795.826 396.7 848.416 367.336 896.298 351.683 C 898.647 378.678 903.421 403.394 899.885 430.663 C 893.615 479.019 865.966 522.128 822.735 545.677 C 811.501 551.796 796.022 554.656 786.222 562.383 C 776.343 570.173 711.848 668.041 708.882 680.951 C 704.752 698.934 709.047 733.239 706.517 755.1 C 728.836 731.954 750.839 708.496 773.804 685.984 C 783.222 676.752 796.876 667.949 804.392 657.354 C 809.635 649.964 810.579 638.575 812.884 629.908 C 820.145 602.605 836.048 574.65 857.359 555.824 C 893.118 524.234 958.377 509.95 1004.8 512.873 C 1002.7 547.669 987.446 584.693 965.395 611.544 C 939.292 642.744 903.096 663.829 863.081 671.146 C 849.434 673.662 835.057 674.17 821.229 675.495 C 784.471 706.288 748.997 752.634 729.942 796.561 C 724.238 809.71 720.441 823.497 715.988 837.093 C 727.15 824.159 736.105 811.01 749.142 799.68 C 754.101 795.37 759.243 790.935 764.784 787.399 C 772.329 782.584 781.18 778.557 787.851 772.58 C 794.126 766.957 799.244 758.806 804.44 752.126 C 826.83 723.346 856.587 707.139 892.709 702.69 C 928.669 698.26 970.768 710.587 999.271 732.787 C 978.274 762.116 949.49 784.986 916.174 798.811 C 875.069 816.092 838.775 808.125 799.149 792.038 L 786.679 802.066 C 762.236 821.934 729.322 851.893 726.168 885.624 C 725.056 897.524 727.642 909.94 729.567 921.661 C 735.475 957.637 743.703 992.878 767.844 1021.38 C 781.194 1037.15 803.959 1054.01 824.982 1055.56 C 835.147 1056.31 846.8 1053.4 856.718 1051.44 C 907.356 1041.4 953.442 1024.09 997.985 997.911 C 1007.37 992.398 1017.89 986.911 1026.11 979.777 C 1028.4 977.79 1029.99 976.096 1030.84 973.077 C 1033.87 962.303 1031.59 946.094 1031.46 934.835 C 1031.24 917.127 1030.97 899.261 1032.05 881.578 C 1049.35 884.494 1068.44 882.909 1085.99 882.766 C 1109.81 882.572 1134.02 883.117 1157.75 880.967 C 1158.86 902.133 1157.07 924.306 1157.08 945.591 L 1157.14 998.559 C 1157.15 1009.8 1158.05 1022.04 1155.97 1033.1 C 1143.3 1047.23 1119.18 1062.12 1103.1 1072.73 C 1003.85 1138.23 904.652 1167.21 786.24 1175.73 C 628.755 1187.05 465.108 1142.55 344.74 1038.14 C 229.294 938.009 164.831 797.998 154.162 646.485 C 143.551 495.786 187.218 331.832 287.804 216.558 C 380.518 110.306 495.032 54.2521 634.257 36.8903 C 650.649 34.8461 667.62 34.6705 684.129 33.5829 z" data-c-fill="8bc6dd" fill-opacity="1"/><path fill="#77a4f2" d="M1239.47 548.545C1252 548.021 1264.55 547.949 1277.08 548.331 1276.98 582.353 1274.75 622.317 1278.46 655.52 1250.56 657.095 1222.22 656.552 1194.28 656.682 1151.59 656.77 1108.89 657.161 1066.2 657.857 1054.99 657.956 1043.8 658.059 1032.6 658.662 1030.51 636.464 1031.89 613.702 1031.96 591.43 1032 578.035 1030.58 564.245 1032.01 550.927 1101.17 551.288 1170.33 550.494 1239.47 548.545zM1188.07 712.197C1198.3 711.568 1208.1 711.947 1217.21 717.249 1226.84 722.853 1232.22 732.323 1234.82 742.908 1239.2 760.698 1238.86 798.179 1229.21 813.636 1223.81 822.285 1216.22 826.388 1206.52 828.666 1196.44 831 1184.79 830.235 1175.62 825.149 1167.38 820.575 1162.22 813.03 1159.66 804.073 1154.74 786.829 1154.29 742.6 1163.29 727.308 1168.78 717.972 1178.15 714.745 1188.07 712.197zM1179.09 809.125C1186.8 814.607 1192.37 815.615 1201.71 815.197 1205.22 813.944 1208.88 812.814 1212.28 811.299 1221.85 795.857 1222.69 761.568 1218.78 744.165 1217.49 738.382 1214.92 731.984 1209.54 728.872 1204.4 725.906 1197.78 725.928 1192.03 726.239 1186.28 727.16 1182.37 728.057 1178.81 733.095 1168.76 747.337 1170.93 780.086 1174.18 796.611 1175.05 801.057 1176.71 804.595 1178.79 808.567 1178.89 808.754 1178.99 808.939 1179.09 809.125zM1611.61 712.411C1623.7 711.333 1635.59 711.346 1646.08 718.376 1654.42 723.962 1658.83 732.721 1660.7 742.379 1664.44 761.653 1665.41 799.675 1653.96 816.021 1649.11 822.94 1641.98 826.813 1633.78 828.303 1623.19 830.354 1611.87 830.7 1602.21 825.13 1593.49 820.099 1588.49 811.13 1586 801.629 1581.28 783.596 1581.26 742.679 1590.83 726.849 1595.7 718.788 1602.65 714.651 1611.61 712.411zM1609.52 728.921C1597.53 742.479 1598.89 766.867 1599.94 784.039 1600.46 792.372 1601.77 804.538 1608.35 810.508 1613.25 814.958 1619.33 815.301 1625.62 815.583 1630.78 815.008 1636.57 814.444 1639.89 809.854 1647.5 799.336 1647.64 757.431 1644.85 744.382 1643.56 738.353 1640.48 731.991 1634.95 728.771 1630.88 726.396 1625.66 726.292 1621.08 726.153L1609.52 728.921zM1406.52 712.193C1416.58 712.005 1425.88 712.47 1434.69 718.038 1443.82 723.818 1448.24 733.276 1450.53 743.532 1454.57 761.655 1455.02 798.312 1444.87 813.994 1439.38 822.466 1431.69 826.487 1422.04 828.472 1411.07 830.145 1400.27 830.167 1390.6 823.915 1381.43 817.989 1376.58 808.049 1374.44 797.635 1370.46 778.303 1370.85 741.796 1382.02 725.254 1387.88 716.57 1396.68 714.019 1406.52 712.193zM1397.01 811.201C1402.43 813.441 1407.36 815.116 1413.21 815.671 1419.45 814.904 1424.57 813.963 1428.64 808.639 1438.17 796.161 1436.57 762.208 1434.3 746.624 1433.21 739.153 1431.71 734.311 1426.37 728.903 1421.32 727.121 1417.19 725.782 1411.78 726.139 1405.73 727.426 1399.76 727.984 1396.03 733.546 1386.12 748.325 1388.1 780.873 1391.86 797.951 1392.9 802.708 1394.47 807.039 1397.01 811.201zM1313.81 714.253C1314.99 714.304 1315.67 714.765 1316.72 715.289 1317.2 716.166 1317.64 716.942 1317.81 717.948 1319.37 727.108 1317.52 745.257 1317.46 755.228 1317.32 776.826 1318.52 798.725 1317.47 820.265 1317.32 823.289 1317.64 826.504 1315.79 828.949 1311.3 830.61 1306.06 829.988 1301.34 829.843 1300.66 825.953 1300.44 821.981 1300.11 818.049 1301.55 790.066 1300.79 761.694 1300.93 733.658 1296.78 734.678 1290.57 736.849 1286.49 735.044 1285.64 734.665 1285.03 733.358 1284.75 732.473 1284.14 730.529 1284.04 728.023 1285.03 726.19 1288.86 719.113 1306.22 716.526 1313.81 714.253zM1523.54 715.098C1524.89 714.638 1525.98 714.966 1527.34 715.203 1529.58 718.358 1528.22 817.154 1528.42 829.76 1523.98 829.982 1517.25 831.247 1513.54 828.494 1511.43 825.823 1511.9 822.703 1512.01 819.5 1511.9 790.863 1511.99 762.226 1512.3 733.591 1508.15 734.58 1504.24 735.586 1499.95 735.501 1498.49 734.764 1497.61 734.746 1497.04 733.11 1496.14 730.521 1496.23 726.766 1497.57 724.337 1501.06 718.017 1516.77 717.215 1523.54 715.098zM1095.8 714.337C1096.71 714.816 1097.58 715.58 1098.42 716.182 1097.91 730.521 1099.23 823.021 1096.43 828.041 1094.42 829.768 1092.69 830.953 1089.94 830.955 1087.28 830.956 1084.69 829.558 1083.02 827.52 1081.16 825.261 1081.86 820.06 1081.93 817.25 1081.9 789.466 1081.21 761.47 1082.21 733.714 1078.38 734.494 1071.83 736.533 1068.02 735.428 1066 734.843 1065.98 734.165 1065.13 732.4 1065.19 729.766 1065.32 727.398 1066.71 725.083 1071.21 717.611 1087.88 716.151 1095.8 714.337z" data-c-fill="8bc6dd" fill-opacity="1"/></svg>