<svg xmlns="http://www.w3.org/2000/svg" xmlns:xlink="http://www.w3.org/1999/xlink" viewBox="0 0 430 430" width="430" height="430" preserveAspectRatio="xMidYMid meet" style="width: 100%; height: 100%; transform: translate3d(0px, 0px, 0px); content-visibility: visible;"><defs><clipPath id="__lottie_element_11931"><rect width="430" height="430" x="0" y="0"/></clipPath><clipPath id="__lottie_element_11933"><path d="M0,0 L430,0 L430,430 L0,430z"/></clipPath><g id="__lottie_element_11943"><g transform="matrix(1,0,0,1,0,0)" opacity="1" style="display: block;"><g opacity="1" transform="matrix(1,0,0,1,215,215)"><g opacity="1" transform="matrix(1,0,0,1,0,0)"><path class="secondary" fill="rgb(75,179,253)" fill-opacity="1" d=" M-90,-185 C-101.0459976196289,-185 -110,-176.04600524902344 -110,-165 C-110,-165 -110,165 -110,165 C-110,176.04600524902344 -101.0459976196289,185 -90,185 C-90,185 90,185 90,185 C101.0459976196289,185 110,176.04600524902344 110,165 C110,165 110,-165 110,-165 C110,-176.04600524902344 101.0459976196289,-185 90,-185 C90,-185 -90,-185 -90,-185z"/></g></g><g opacity="1" transform="matrix(1,0,0,1,215,215)" style="mix-blend-mode: multiply;"><g opacity="1" transform="matrix(1,0,0,1,0,0)"><path class="secondary" fill="rgb(75,179,253)" fill-opacity="0.5" d=" M-90,-185 C-101.0459976196289,-185 -110,-176.04600524902344 -110,-165 C-110,-165 -110,165 -110,165 C-110,176.04600524902344 -101.0459976196289,185 -90,185 C-90,185 90,185 90,185 C101.0459976196289,185 110,176.04600524902344 110,165 C110,165 110,-165 110,-165 C110,-176.04600524902344 101.0459976196289,-185 90,-185 C90,-185 -90,-185 -90,-185z"/></g></g></g></g><mask id="__lottie_element_11943_1" mask-type="alpha"><use xmlns:ns1="http://www.w3.org/1999/xlink" ns1:href="#__lottie_element_11943"/></mask></defs><g clip-path="url(#__lottie_element_11931)"><g clip-path="url(#__lottie_element_11933)" transform="matrix(1,0,0,1,0,0)" opacity="1" style="display: block;"><g transform="matrix(1,0,0,1,0,0)" opacity="1" style="display: block;"><g opacity="1" transform="matrix(1,0,0,1,0,0)"><g opacity="1" transform="matrix(1,0,0,1,215,215)"><g opacity="1" transform="matrix(1,0,0,1,0,0)"><path class="tertiary" fill="rgb(75,179,253)" fill-opacity="1" d=" M-90,-185 C-101.0459976196289,-185 -110,-176.04600524902344 -110,-165 C-110,-165 -110,165 -110,165 C-110,176.04600524902344 -101.0459976196289,185 -90,185 C-90,185 90,185 90,185 C101.0459976196289,185 110,176.04600524902344 110,165 C110,165 110,-165 110,-165 C110,-176.04600524902344 101.0459976196289,-185 90,-185 C90,-185 -90,-185 -90,-185z"/></g></g></g><g opacity="0.5" transform="matrix(1,0,0,1,0,0)" style="mix-blend-mode: multiply;"><g opacity="1" transform="matrix(1,0,0,1,215,215)"><g opacity="1" transform="matrix(1,0,0,1,0,0)"><path class="tertiary" fill="rgb(75,179,253)" fill-opacity="1" d=" M-90,-185 C-101.0459976196289,-185 -110,-176.04600524902344 -110,-165 C-110,-165 -110,165 -110,165 C-110,176.04600524902344 -101.0459976196289,185 -90,185 C-90,185 90,185 90,185 C101.0459976196289,185 110,176.04600524902344 110,165 C110,165 110,-165 110,-165 C110,-176.04600524902344 101.0459976196289,-185 90,-185 C90,-185 -90,-185 -90,-185z"/></g></g></g></g><g mask="url(#__lottie_element_11943_1)" style="display: block;"><g transform="matrix(1,0,0,1,215,215)" opacity="1"><g opacity="1" transform="matrix(1,0,0,1,0,0)"><path stroke-linecap="butt" stroke-linejoin="miter" fill-opacity="0" stroke-miterlimit="4" class="tertiary" stroke="rgb(75,179,253)" stroke-opacity="1" stroke-width="120" d=" M-188.125,-188.625 C-188.125,-188.625 206.25,205.75 206.25,205.75"/></g></g></g><g transform="matrix(1,0,0,1,0,0)" opacity="1" style="display: block;"><g opacity="1" transform="matrix(1,0,0,1,0,0)"><g opacity="1" transform="matrix(1,0,0,1,215,365)"><g opacity="1" transform="matrix(1,0,0,1,0,0)"><path stroke-linecap="round" stroke-linejoin="round" fill-opacity="0" class="primary" stroke="rgb(18,19,49)" stroke-opacity="1" stroke-width="7" d=" M-45,0 C-45,0 45,0 45,0"/></g></g></g><g opacity="1" transform="matrix(1,0,0,1,215,47.5)"><g opacity="1" transform="matrix(1,0,0,1,0,0)"><path class="secondary" fill="rgb(58,51,71)" fill-opacity="1" d=" M-35,17.5 C-35,17.5 35,17.5 35,17.5 C40.52299880981445,17.5 45,13.02299976348877 45,7.5 C45,7.5 45,-17.5 45,-17.5 C45,-17.5 -45,-17.5 -45,-17.5 C-45,-17.5 -45,7.5 -45,7.5 C-45,13.02299976348877 -40.52299880981445,17.5 -35,17.5z"/></g></g><g opacity="0.5" transform="matrix(1,0,0,1,185,47.5)" style="mix-blend-mode: multiply;"><g opacity="1" transform="matrix(1,0,0,1,0,0)"><path class="secondary" fill="rgb(58,51,71)" fill-opacity="1" d=" M5,7.5 C5,13.02299976348877 9.47700023651123,17.5 15,17.5 C15,17.5 -5,17.5 -5,17.5 C-10.52299976348877,17.5 -15,13.02299976348877 -15,7.5 C-15,7.5 -15,-17.5 -15,-17.5 C-15,-17.5 5,-17.5 5,-17.5 C5,-17.5 5,7.5 5,7.5z"/></g></g><g opacity="1" transform="matrix(1,0,0,1,215,47.5)"><path stroke-linecap="butt" stroke-linejoin="miter" fill-opacity="0" stroke-miterlimit="4" class="primary" stroke="rgb(18,19,49)" stroke-opacity="1" stroke-width="7" d=" M-35,17.5 C-35,17.5 35,17.5 35,17.5 C40.52299880981445,17.5 45,13.02299976348877 45,7.5 C45,7.5 45,-17.5 45,-17.5 C45,-17.5 -45,-17.5 -45,-17.5 C-45,-17.5 -45,7.5 -45,7.5 C-45,13.02299976348877 -40.52299880981445,17.5 -35,17.5z"/><g opacity="1" transform="matrix(1,0,0,1,0,0)"/></g><g opacity="1" transform="matrix(1,0,0,1,0,0)"><g opacity="1" transform="matrix(1,0,0,1,214.99899291992188,215)"><g opacity="1" transform="matrix(1,0,0,1,0,0)"><path stroke-linecap="round" stroke-linejoin="round" fill-opacity="0" class="primary" stroke="rgb(18,19,49)" stroke-opacity="1" stroke-width="7" d=" M-90,-185 C-101.0459976196289,-185 -110,-176.04600524902344 -110,-165 C-110,-165 -110,165 -110,165 C-110,176.04600524902344 -101.0459976196289,185 -90,185 C-90,185 90,185 90,185 C101.0459976196289,185 110,176.04600524902344 110,165 C110,165 110,-165 110,-165 C110,-176.04600524902344 101.0459976196289,-185 90,-185 C90,-185 -90,-185 -90,-185z"/></g></g></g></g></g></g></svg>