<svg xmlns="http://www.w3.org/2000/svg" xmlns:xlink="http://www.w3.org/1999/xlink" viewBox="0 0 430 430" width="430" height="430" preserveAspectRatio="xMidYMid meet" style="width: 100%; height: 100%; transform: translate3d(0px, 0px, 0px); content-visibility: visible;"><defs><clipPath id="__lottie_element_4297"><rect width="430" height="430" x="0" y="0"/></clipPath><clipPath id="__lottie_element_4299"><path d="M0,0 L430,0 L430,430 L0,430z"/></clipPath></defs><g clip-path="url(#__lottie_element_4297)"><g clip-path="url(#__lottie_element_4299)" transform="matrix(1,0,0,1,0,0)" opacity="1" style="display: block;"><g transform="matrix(1,0,0,1,160.66600036621094,215)" opacity="1" style="display: block;"><g opacity="1" transform="matrix(1,0,0,1,0,0)"><path class="secondary" fill="rgb(249,201,192)" fill-opacity="1" d=" M94.33399963378906,-52.5 C94.33399963378906,-51.4109992980957 94.31800079345703,-50.32699966430664 94.28500366210938,-49.24599838256836 C96.15699768066406,-46.98699951171875 97.9209976196289,-44.619998931884766 99.56800079345703,-42.150001525878906 C99.56800079345703,-42.150001525878906 123.97000122070312,-5.546999931335449 123.97000122070312,-5.546999931335449 C128.39999389648438,1.0989999771118164 123.63600158691406,10 115.64900207519531,10 C115.64900207519531,10 99.33399963378906,10 99.33399963378906,10 C99.33399963378906,10 99.33399963378906,27.829999923706055 99.33399963378906,27.829999923706055 C99.33399963378906,29.125 98.50299835205078,30.27400016784668 97.27300262451172,30.679000854492188 C97.27300262451172,30.679000854492188 91.48999786376953,32.58599853515625 91.48999786376953,32.58599853515625 C78.36799621582031,36.9119987487793 77.5780029296875,55.17599868774414 90.27799987792969,60.61899948120117 C90.27799987792969,60.61899948120117 97.51599884033203,63.72100067138672 97.51599884033203,63.72100067138672 C98.61900329589844,64.19400024414062 99.33399963378906,65.27799987792969 99.33399963378906,66.47799682617188 C99.33399963378906,66.47799682617188 99.33399963378906,75 99.33399963378906,75 C99.33399963378906,86.0459976196289 90.37999725341797,95 79.33399963378906,95 C79.33399963378906,95 54.33399963378906,95 54.33399963378906,95 C46.04999923706055,95 39.33399963378906,101.71600341796875 39.33399963378906,110 C39.33399963378906,110 39.33399963378906,157 39.33399963378906,157 C39.33399963378906,158.65699768066406 37.99100112915039,160 36.33399963378906,160 C36.33399963378906,160 -82.66600036621094,160 -82.66600036621094,160 C-84.322998046875,160 -85.66600036621094,158.65699768066406 -85.66600036621094,157 C-85.66600036621094,157 -85.66600036621094,61.49700164794922 -85.66600036621094,61.49700164794922 C-85.66600036621094,41.8489990234375 -95.56500244140625,23.908000946044922 -106.76699829101562,7.767000198364258 C-118.6969985961914,-9.42199993133545 -125.66600036621094,-30.166000366210938 -125.66600036621094,-52.5 C-125.66600036621094,-111.87100219726562 -76.41699981689453,-160 -15.666000366210938,-160 C45.084999084472656,-160 94.33399963378906,-111.87100219726562 94.33399963378906,-52.5z"/></g></g><g transform="matrix(1,0,0,1,96.25,215)" opacity="0.5" style="mix-blend-mode: multiply; display: block;"><g opacity="1" transform="matrix(1,0,0,1,0,0)"><path class="secondary" fill="rgb(249,201,192)" fill-opacity="1" d=" M48.75,-160 C52.97700119018555,-160 57.14699935913086,-159.76699829101562 61.25,-159.31399536132812 C6.383999824523926,-153.24899291992188 -36.25,-107.73999786376953 -36.25,-52.5 C-36.25,-30.166000366210938 -29.2810001373291,-9.42199993133545 -17.35099983215332,7.767000198364258 C-6.14900016784668,23.908000946044922 3.75,41.8489990234375 3.75,61.49700164794922 C3.75,61.49700164794922 3.75,160 3.75,160 C3.75,160 -18.25,160 -18.25,160 C-19.906999588012695,160 -21.25,158.65699768066406 -21.25,157 C-21.25,157 -21.25,61.49700164794922 -21.25,61.49700164794922 C-21.25,41.8489990234375 -31.14900016784668,23.908000946044922 -42.35100173950195,7.767000198364258 C-54.28099822998047,-9.42199993133545 -61.25,-30.166000366210938 -61.25,-52.5 C-61.25,-111.87100219726562 -12.00100040435791,-160 48.75,-160z"/></g></g><g transform="matrix(1,0,0,1,160.66600036621094,215)" opacity="1" style="display: block;"><g opacity="1" transform="matrix(1,0,0,1,0,0)"><path stroke-linecap="round" stroke-linejoin="round" fill-opacity="0" class="primary" stroke="rgb(18,19,49)" stroke-opacity="1" stroke-width="7" d=" M39.33399963378906,160 C39.33399963378906,160 -85.66600036621094,160 -85.66600036621094,160"/></g><g opacity="1" transform="matrix(1,0,0,1,0,0)"><path stroke-linecap="round" stroke-linejoin="round" fill-opacity="0" class="primary" stroke="rgb(18,19,49)" stroke-opacity="1" stroke-width="7" d=" M-85.66600036621094,156.96299743652344 C-85.66600036621094,124.94100189208984 -85.66600036621094,61.49700164794922 -85.66600036621094,61.49700164794922 C-85.66600036621094,41.8489990234375 -95.56500244140625,23.908000946044922 -106.76699829101562,7.767000198364258 C-118.6969985961914,-9.42199993133545 -125.66600036621094,-30.166000366210938 -125.66600036621094,-52.5 C-125.66600036621094,-111.87100219726562 -76.41699981689453,-160 -15.666000366210938,-160 C45.084999084472656,-160 94.33399963378906,-111.87100219726562 94.33399963378906,-52.5 C94.33399963378906,-51.4109992980957 94.31800079345703,-50.32699966430664 94.28500366210938,-49.24599838256836 C96.15699768066406,-46.98699951171875 123.97000122070312,-5.546999931335449 123.97000122070312,-5.546999931335449 C128.39999389648438,1.0989999771118164 123.63600158691406,10 115.64900207519531,10 C115.64900207519531,10 99.33399963378906,10 99.33399963378906,10 C99.33399963378906,10 99.33399963378906,30 99.33399963378906,30 C99.33399963378906,30 91.48999786376953,32.58599853515625 91.48999786376953,32.58599853515625 C78.36799621582031,36.9119987487793 77.5780029296875,55.17599868774414 90.27799987792969,60.61899948120117 C90.27799987792969,60.61899948120117 99.33399963378906,64.5 99.33399963378906,64.5 C99.33399963378906,64.5 99.33399963378906,75 99.33399963378906,75 C99.33399963378906,86.0459976196289 90.37999725341797,95 79.33399963378906,95 C79.33399963378906,95 54.33399963378906,95 54.33399963378906,95 C46.04999923706055,95 39.33399963378906,101.71600341796875 39.33399963378906,110 C39.33399963378906,110 39.33399963378906,137.7259979248047 39.33399963378906,156.96200561523438"/></g></g><g transform="matrix(1,0,0,1,357.6000061035156,265)" opacity="1" style="display: block;"><g opacity="1" transform="matrix(1,0,0,1,0,0)"><path stroke-linecap="round" stroke-linejoin="miter" fill-opacity="0" stroke-miterlimit="4" class="primary" stroke="rgb(18,19,49)" stroke-opacity="1" stroke-width="7" d=" M12.392000198364258,85 C59.33599853515625,38.055999755859375 59.33599853515625,-38.055999755859375 12.392000198364258,-85"/></g><g opacity="1" transform="matrix(1,0,0,1,0,0)"><path stroke-linecap="round" stroke-linejoin="miter" fill-opacity="0" stroke-miterlimit="4" class="primary" stroke="rgb(18,19,49)" stroke-opacity="1" stroke-width="7" d=" M-17.472999572753906,55.1349983215332 C12.97700023651123,24.684999465942383 12.97700023651123,-24.684999465942383 -17.472999572753906,-55.1349983215332"/></g><g opacity="1" transform="matrix(1,0,0,1,0,0)"><path stroke-linecap="round" stroke-linejoin="miter" fill-opacity="0" stroke-miterlimit="4" class="primary" stroke="rgb(18,19,49)" stroke-opacity="1" stroke-width="7" d=" M-47.07899856567383,25.007999420166016 C-33.266998291015625,10.909000396728516 -33.500999450683594,-11.718000411987305 -47.599998474121094,-25.530000686645508"/></g></g></g></g></svg>