<svg xmlns="http://www.w3.org/2000/svg" xmlns:xlink="http://www.w3.org/1999/xlink" viewBox="0 0 430 430" width="430" height="430" preserveAspectRatio="xMidYMid meet" style="width: 100%; height: 100%; transform: translate3d(0px, 0px, 0px); content-visibility: visible;"><defs><clipPath id="__lottie_element_5574"><rect width="430" height="430" x="0" y="0"/></clipPath><clipPath id="__lottie_element_5576"><path d="M0,0 L430,0 L430,430 L0,430z"/></clipPath><g id="__lottie_element_5586"><g transform="matrix(4.239999771118164,0,0,4.239999771118164,215,215.18699645996094)" opacity="1" style="display: block;"><g opacity="1" transform="matrix(1,0,0,1,0,0)"><path fill="rgb(44,165,141)" fill-opacity="1" d=" M12.52299976348877,20.66200065612793 C21.795000076293945,22.15399932861328 28.16699981689453,25.253999710083008 28.16699981689453,28.836000442504883 C28.16699981689453,28.836000442504883 28.16699981689453,28.836000442504883 28.16699981689453,28.836000442504883 C28.16699981689453,33.87300109863281 15.567999839782715,37.95600128173828 0.026000000536441803,37.95600128173828 C-15.515999794006348,37.95600128173828 -28.114999771118164,33.87300109863281 -28.114999771118164,28.836000442504883 C-28.114999771118164,25.253999710083008 -21.743000030517578,22.15399932861328 -12.470999717712402,20.66200065612793"/><path fill="rgb(44,165,141)" fill-opacity="0.5" d=" M12.52299976348877,20.66200065612793 C21.795000076293945,22.15399932861328 28.16699981689453,25.253999710083008 28.16699981689453,28.836000442504883 C28.16699981689453,28.836000442504883 28.16699981689453,28.836000442504883 28.16699981689453,28.836000442504883 C28.16699981689453,33.87300109863281 15.567999839782715,37.95600128173828 0.026000000536441803,37.95600128173828 C-15.515999794006348,37.95600128173828 -28.114999771118164,33.87300109863281 -28.114999771118164,28.836000442504883 C-28.114999771118164,25.253999710083008 -21.743000030517578,22.15399932861328 -12.470999717712402,20.66200065612793" style="mix-blend-mode: multiply;"/></g></g></g><clipPath id="__lottie_element_5593"><path d="M0,0 L430,0 L430,430 L0,430z"/></clipPath><clipPath id="__lottie_element_5597"><path d="M0,0 L430,0 L430,430 L0,430z"/></clipPath><g id="__lottie_element_5600"><g clip-path="url(#__lottie_element_5601)" transform="matrix(1,0,0,1,0,0)" opacity="1" style="display: block;"><g transform="matrix(4.239999771118164,0,0,4.1975998878479,214.99884033203125,214.41464233398438)" opacity="1" style="display: block;"><g opacity="1" transform="matrix(1,0,0,1,0,0)"/></g><g mask="url(#__lottie_element_5627_2)" style="display: block;"><g transform="matrix(1.0000039339065552,0,0,0.9900039434432983,214.74868774414062,210.02395629882812)" opacity="1"><g opacity="1" transform="matrix(1,0,0,1,0,0)"><path class="secondary" fill="rgb(75,179,253)" fill-opacity="1" d=" M95.64900207519531,-68.2490005493164 C92.1449966430664,-116.88300323486328 57.5620002746582,-153.9199981689453 8.906999588012695,-157.0540008544922 C-18.61199951171875,-158.82899475097656 -42.676998138427734,-152.08700561523438 -62.69900131225586,-133.31199645996094 C-82.43699645996094,-114.80400085449219 -94.38300323486328,-90.302001953125 -94.38300323486328,-63.25600051879883 C-94.38300323486328,-52.597999572753906 -92.69000244140625,-42.124000549316406 -89.35099792480469,-32.12699890136719 C-87.48699951171875,-26.548999786376953 -84.80599975585938,-20.743999481201172 -81.15499877929688,-14.381999969482422 C-81.15499877929688,-14.381999969482422 -2.632999897003174,124.98100280761719 -2.632999897003174,124.98100280761719 C-2.009000062942505,126.06900024414062 -0.8500000238418579,126.73899841308594 0.40299999713897705,126.73899841308594 C1.656000018119812,126.73899841308594 2.813999891281128,126.06900024414062 3.437999963760376,124.98100280761719 C3.437999963760376,124.98100280761719 84.1050033569336,-16.952999114990234 84.1050033569336,-16.952999114990234 C88.14600372314453,-23.993000030517578 91.08100128173828,-30.57699966430664 93.0770034790039,-37.07699966430664 C96.66600036621094,-48.74399948120117 95.64900207519531,-68.2490005493164 95.64900207519531,-68.2490005493164z"/></g></g></g></g></g><clipPath id="__lottie_element_5601"><path d="M0,0 L430,0 L430,430 L0,430z"/></clipPath><mask id="__lottie_element_5600_1" mask-type="alpha"><use xmlns:ns1="http://www.w3.org/1999/xlink" ns1:href="#__lottie_element_5600"/></mask><mask id="__lottie_element_5586_1" mask-type="alpha"><use xmlns:ns2="http://www.w3.org/1999/xlink" ns2:href="#__lottie_element_5586"/></mask><g id="__lottie_element_5614"><g transform="matrix(4.239999771118164,0,0,4.1975998878479,214.99884033203125,217.5238037109375)" opacity="1" style="display: block;"><g opacity="1" transform="matrix(1,0,0,1,0,0)"><path fill="rgb(255,255,255)" fill-opacity="1" d=" M10.527000427246094,-15.788999557495117 C10.527000427246094,-9.980999946594238 5.817999839782715,-5.271999835968018 0.009999999776482582,-5.271999835968018 C-5.797999858856201,-5.271999835968018 -10.506999969482422,-9.980999946594238 -10.506999969482422,-15.788999557495117 C-10.506999969482422,-21.597000122070312 -5.797999858856201,-26.305999755859375 0.009999999776482582,-26.305999755859375 C5.817999839782715,-26.305999755859375 10.527000427246094,-21.597000122070312 10.527000427246094,-15.788999557495117z"/></g></g></g><filter id="__lottie_element_5617" filterUnits="objectBoundingBox" x="0%" y="0%" width="100%" height="100%"><feComponentTransfer in="SourceGraphic"><feFuncA type="table" tableValues="1.0 0.0"/></feComponentTransfer></filter><mask id="__lottie_element_5614_2" mask-type="alpha" maskUnits="userSpaceOnUse"><g filter="url(#__lottie_element_5617)"><rect width="430" height="430" x="0" y="0" fill="#ffffff" opacity="0"/><use xmlns:ns3="http://www.w3.org/1999/xlink" ns3:href="#__lottie_element_5614"/></g></mask><g id="__lottie_element_5627"><g transform="matrix(4.239999771118164,0,0,4.1975998878479,214.99884033203125,217.5238037109375)" opacity="1" style="display: block;"><g opacity="1" transform="matrix(1,0,0,1,0,0)"><path fill="rgb(255,255,255)" fill-opacity="1" d=" M10.527000427246094,-15.788999557495117 C10.527000427246094,-9.980999946594238 5.817999839782715,-5.271999835968018 0.009999999776482582,-5.271999835968018 C-5.797999858856201,-5.271999835968018 -10.506999969482422,-9.980999946594238 -10.506999969482422,-15.788999557495117 C-10.506999969482422,-21.597000122070312 -5.797999858856201,-26.305999755859375 0.009999999776482582,-26.305999755859375 C5.817999839782715,-26.305999755859375 10.527000427246094,-21.597000122070312 10.527000427246094,-15.788999557495117z"/></g></g></g><filter id="__lottie_element_5630" filterUnits="objectBoundingBox" x="0%" y="0%" width="100%" height="100%"><feComponentTransfer in="SourceGraphic"><feFuncA type="table" tableValues="1.0 0.0"/></feComponentTransfer></filter><mask id="__lottie_element_5627_2" mask-type="alpha" maskUnits="userSpaceOnUse"><g filter="url(#__lottie_element_5630)"><rect width="430" height="430" x="0" y="0" fill="#ffffff" opacity="0"/><use xmlns:ns4="http://www.w3.org/1999/xlink" ns4:href="#__lottie_element_5627"/></g></mask></defs><g clip-path="url(#__lottie_element_5574)"><g clip-path="url(#__lottie_element_5576)" transform="matrix(1,0,0,1,0,0)" opacity="1" style="display: block;"><g transform="matrix(4.239999771118164,0,0,4.239999771118164,215,215.18699645996094)" opacity="1" style="display: block;"><g opacity="1" transform="matrix(1,0,0,1,0,0)"><path class="tertiary" fill="rgb(44,165,141)" fill-opacity="1" d=" M28.16699981689453,28.836000442504883 C28.16699981689453,33.87300109863281 15.567999839782715,37.95600128173828 0.026000000536441803,37.95600128173828 C-15.515999794006348,37.95600128173828 -28.114999771118164,33.87300109863281 -28.114999771118164,28.836000442504883 C-28.114999771118164,23.798999786376953 -15.515999794006348,19.715999603271484 0.026000000536441803,19.715999603271484 C15.567999839782715,19.715999603271484 28.16699981689453,23.798999786376953 28.16699981689453,28.836000442504883z"/></g></g><g mask="url(#__lottie_element_5586_1)" style="display: block;"><g transform="matrix(1,0,0,1,215,215)" opacity="1"><g opacity="1" transform="matrix(1,0,0,1,0,0)"><path class="tertiary" fill="rgb(44,165,141)" fill-opacity="1" d=" M1,123 C1,123 -111.78508758544922,159.77569580078125 -111.78508758544922,159.77569580078125 C-111.78508758544922,159.77569580078125 1.6448949575424194,185.5888214111328 1.6448949575424194,185.5888214111328 C1.6448949575424194,185.5888214111328 1,123 1,123z"/><path class="tertiary" fill="rgb(44,165,141)" fill-opacity="0.5" d=" M1,123 C1,123 -111.78508758544922,159.77569580078125 -111.78508758544922,159.77569580078125 C-111.78508758544922,159.77569580078125 1.6448949575424194,185.5888214111328 1.6448949575424194,185.5888214111328 C1.6448949575424194,185.5888214111328 1,123 1,123z" style="mix-blend-mode: multiply;"/></g></g></g><g transform="matrix(4.239999771118164,0,0,4.239999771118164,215,215.18699645996094)" opacity="1" style="display: block;"><g opacity="1" transform="matrix(1,0,0,1,0,0)"><path stroke-linecap="round" stroke-linejoin="round" fill-opacity="0" class="primary" stroke="rgb(18,19,49)" stroke-opacity="1" stroke-width="1.8" d=" M28.16699981689453,28.836000442504883 C28.16699981689453,33.87300109863281 15.567999839782715,37.95600128173828 0.026000000536441803,37.95600128173828 C-15.515999794006348,37.95600128173828 -28.114999771118164,33.87300109863281 -28.114999771118164,28.836000442504883 C-28.114999771118164,23.798999786376953 -15.515999794006348,19.715999603271484 0.026000000536441803,19.715999603271484 C15.567999839782715,19.715999603271484 28.16699981689453,23.798999786376953 28.16699981689453,28.836000442504883z"/></g></g><g clip-path="url(#__lottie_element_5593)" transform="matrix(1,0,0,1,0,0)" opacity="1" style="display: block;"><g mask="url(#__lottie_element_5614_2)" style="display: block;"><g transform="matrix(1.0000039339065552,0,0,0.9900039434432983,214.74868774414062,210.02395629882812)" opacity="1"><g opacity="1" transform="matrix(1,0,0,1,0,0)"><path class="secondary" fill="rgb(75,179,253)" fill-opacity="1" d=" M95.64900207519531,-68.2490005493164 C92.1449966430664,-116.88300323486328 57.5620002746582,-153.9199981689453 8.906999588012695,-157.0540008544922 C-18.61199951171875,-158.82899475097656 -42.676998138427734,-152.08700561523438 -62.69900131225586,-133.31199645996094 C-82.43699645996094,-114.80400085449219 -94.38300323486328,-90.302001953125 -94.38300323486328,-63.25600051879883 C-94.38300323486328,-52.597999572753906 -92.69000244140625,-42.124000549316406 -89.35099792480469,-32.12699890136719 C-87.48699951171875,-26.548999786376953 -84.80599975585938,-20.743999481201172 -81.15499877929688,-14.381999969482422 C-81.15499877929688,-14.381999969482422 -2.632999897003174,124.98100280761719 -2.632999897003174,124.98100280761719 C-2.009000062942505,126.06900024414062 -0.8500000238418579,126.73899841308594 0.40299999713897705,126.73899841308594 C1.656000018119812,126.73899841308594 2.813999891281128,126.06900024414062 3.437999963760376,124.98100280761719 C3.437999963760376,124.98100280761719 84.1050033569336,-16.952999114990234 84.1050033569336,-16.952999114990234 C88.14600372314453,-23.993000030517578 91.08100128173828,-30.57699966430664 93.0770034790039,-37.07699966430664 C96.66600036621094,-48.74399948120117 95.64900207519531,-68.2490005493164 95.64900207519531,-68.2490005493164z"/><path class="secondary" fill="rgb(75,179,253)" fill-opacity="0.5" d=" M95.64900207519531,-68.2490005493164 C92.1449966430664,-116.88300323486328 57.5620002746582,-153.9199981689453 8.906999588012695,-157.0540008544922 C-18.61199951171875,-158.82899475097656 -42.676998138427734,-152.08700561523438 -62.69900131225586,-133.31199645996094 C-82.43699645996094,-114.80400085449219 -94.38300323486328,-90.302001953125 -94.38300323486328,-63.25600051879883 C-94.38300323486328,-52.597999572753906 -92.69000244140625,-42.124000549316406 -89.35099792480469,-32.12699890136719 C-87.48699951171875,-26.548999786376953 -84.80599975585938,-20.743999481201172 -81.15499877929688,-14.381999969482422 C-81.15499877929688,-14.381999969482422 -2.632999897003174,124.98100280761719 -2.632999897003174,124.98100280761719 C-2.009000062942505,126.06900024414062 -0.8500000238418579,126.73899841308594 0.40299999713897705,126.73899841308594 C1.656000018119812,126.73899841308594 2.813999891281128,126.06900024414062 3.437999963760376,124.98100280761719 C3.437999963760376,124.98100280761719 84.1050033569336,-16.952999114990234 84.1050033569336,-16.952999114990234 C88.14600372314453,-23.993000030517578 91.08100128173828,-30.57699966430664 93.0770034790039,-37.07699966430664 C96.66600036621094,-48.74399948120117 95.64900207519531,-68.2490005493164 95.64900207519531,-68.2490005493164z" style="mix-blend-mode: multiply;"/></g></g></g></g><g mask="url(#__lottie_element_5600_1)" style="display: block;"><g clip-path="url(#__lottie_element_5597)" transform="matrix(1,0,0,1,21.5,-1)" opacity="1"><g transform="matrix(4.239999771118164,0,0,4.1975998878479,214.99884033203125,214.41464233398438)" opacity="1" style="display: block;"><g opacity="1" transform="matrix(1,0,0,1,0,0)"><path class="secondary" fill="rgb(75,179,253)" fill-opacity="1" d=" M-19.33300018310547,-4.673999786376953 C-20.07200050354004,-5.961999893188477 -20.72800064086914,-7.301000118255615 -21.198999404907227,-8.710000038146973 C-21.941999435424805,-10.9350004196167 -22.343000411987305,-13.3149995803833 -22.343000411987305,-15.789999961853027 C-22.343000411987305,-28.621999740600586 -11.527000427246094,-38.92900085449219 1.4930000305175781,-38.090999603271484 C12.531000137329102,-37.380001068115234 21.506000518798828,-28.472000122070312 22.301000595092773,-17.43899917602539 C22.507999420166016,-14.559000015258789 22.16699981689453,-11.78499984741211 21.375,-9.210000038146973 C20.882999420166016,-7.607999801635742 20.166000366210938,-6.085000038146973 19.332000732421875,-4.631999969482422 C19.332000732421875,-4.631999969482422 -4.232999801635742,32.13999938964844 -4.232999801635742,32.13999938964844 C-4.232999801635742,32.13999938964844 -19.33300018310547,-4.673999786376953 -19.33300018310547,-4.673999786376953z"/></g></g></g></g><g transform="matrix(4.239999771118164,0,0,4.1975998878479,215,216.4174346923828)" opacity="1" style="display: block;"><g opacity="1" transform="matrix(1,0,0,1,0,0)"><path stroke-linecap="round" stroke-linejoin="round" fill-opacity="0" class="primary" stroke="rgb(18,19,49)" stroke-opacity="1" stroke-width="1.8" d=" M-19.33300018310547,-4.673999786376953 C-20.07200050354004,-5.961999893188477 -20.72800064086914,-7.301000118255615 -21.198999404907227,-8.710000038146973 C-21.941999435424805,-10.9350004196167 -22.343000411987305,-13.3149995803833 -22.343000411987305,-15.789999961853027 C-22.343000411987305,-28.621999740600586 -11.527000427246094,-38.92900085449219 1.4930000305175781,-38.090999603271484 C12.531000137329102,-37.380001068115234 21.506000518798828,-28.472000122070312 22.301000595092773,-17.43899917602539 C22.507999420166016,-14.559000015258789 22.16699981689453,-11.78499984741211 21.375,-9.210000038146973 C20.882999420166016,-7.607999801635742 20.166000366210938,-6.085000038146973 19.332000732421875,-4.631999969482422 C19.332000732421875,-4.631999969482422 0.012000000104308128,29.020000457763672 0.012000000104308128,29.020000457763672 C0.012000000104308128,29.020000457763672 -19.33300018310547,-4.673999786376953 -19.33300018310547,-4.673999786376953z"/></g></g><g transform="matrix(4.239999771118164,0,0,4.1975998878479,215,219.52659606933594)" opacity="1" style="display: block;"><g opacity="1" transform="matrix(1,0,0,1,0,0)"><path stroke-linecap="round" stroke-linejoin="round" fill-opacity="0" class="primary" stroke="rgb(18,19,49)" stroke-opacity="1" stroke-width="1.8" d=" M10.527000427246094,-15.788999557495117 C10.527000427246094,-9.980999946594238 5.817999839782715,-5.271999835968018 0.009999999776482582,-5.271999835968018 C-5.797999858856201,-5.271999835968018 -10.506999969482422,-9.980999946594238 -10.506999969482422,-15.788999557495117 C-10.506999969482422,-21.597000122070312 -5.797999858856201,-26.305999755859375 0.009999999776482582,-26.305999755859375 C5.817999839782715,-26.305999755859375 10.527000427246094,-21.597000122070312 10.527000427246094,-15.788999557495117z"/></g></g></g></g></svg>