<svg xmlns="http://www.w3.org/2000/svg" xmlns:xlink="http://www.w3.org/1999/xlink" viewBox="0 0 430 430" width="430" height="430" preserveAspectRatio="xMidYMid meet" style="width: 100%; height: 100%; transform: translate3d(0px, 0px, 0px); content-visibility: visible;"><defs><clipPath id="__lottie_element_8537"><rect width="430" height="430" x="0" y="0"/></clipPath><clipPath id="__lottie_element_8539"><path d="M0,0 L430,0 L430,430 L0,430z"/></clipPath><g id="__lottie_element_8561"><g transform="matrix(1.2699999809265137,0,0,1.2699999809265137,215,236.7884521484375)" opacity="1" style="display: block;"><g opacity="1" transform="matrix(1,0,0,1,0,0)"><path fill="rgb(58,51,71)" fill-opacity="1" d=" M0,-112.3030014038086 C17.454999923706055,-112.3030014038086 31.604999542236328,-98.15299987792969 31.604999542236328,-80.697998046875 C31.604999542236328,-63.24300003051758 17.454999923706055,-49.09400177001953 0,-49.09400177001953 C-17.454999923706055,-49.09400177001953 -31.604999542236328,-63.24300003051758 -31.604999542236328,-80.697998046875 C-31.604999542236328,-98.15299987792969 -17.454999923706055,-112.3030014038086 0,-112.3030014038086z M71.19400024414062,-66.33100128173828 C71.19400024414062,-66.33100128173828 61.165000915527344,-72.12100219726562 61.165000915527344,-72.12100219726562 C61.55500030517578,-74.9260025024414 61.77199935913086,-77.78600311279297 61.77199935913086,-80.697998046875 C61.77199935913086,-83.61000061035156 61.55500030517578,-86.47100067138672 61.165000915527344,-89.2760009765625 C61.165000915527344,-89.2760009765625 71.19400024414062,-95.06600189208984 71.19400024414062,-95.06600189208984 C76.25499725341797,-97.98799896240234 77.98899841308594,-104.45999908447266 75.06700134277344,-109.52100372314453 C75.06700134277344,-109.52100372314453 62.49399948120117,-131.2969970703125 62.49399948120117,-131.2969970703125 C59.571998596191406,-136.35800170898438 53.099998474121094,-138.0919952392578 48.03900146484375,-135.1699981689453 C48.03900146484375,-135.1699981689453 38.005001068115234,-129.3769989013672 38.005001068115234,-129.3769989013672 C33.51100158691406,-132.88999938964844 28.52199935913086,-135.7949981689453 23.15399932861328,-137.9669952392578 C23.15399932861328,-137.9669952392578 23.15399932861328,-149.53799438476562 23.15399932861328,-149.53799438476562 C23.15399932861328,-155.3820037841797 18.41699981689453,-160.11900329589844 12.572999954223633,-160.11900329589844 C12.572999954223633,-160.11900329589844 -12.572999954223633,-160.11900329589844 -12.572999954223633,-160.11900329589844 C-18.41699981689453,-160.11900329589844 -23.15399932861328,-155.3820037841797 -23.15399932861328,-149.53799438476562 C-23.15399932861328,-149.53799438476562 -23.15399932861328,-137.9669952392578 -23.15399932861328,-137.9669952392578 C-28.52199935913086,-135.7949981689453 -33.51100158691406,-132.89100646972656 -38.005001068115234,-129.3769989013672 C-38.005001068115234,-129.3769989013672 -48.040000915527344,-135.1699981689453 -48.040000915527344,-135.1699981689453 C-53.10100173950195,-138.0919952392578 -59.571998596191406,-136.35800170898438 -62.49399948120117,-131.2969970703125 C-62.49399948120117,-131.2969970703125 -75.06700134277344,-109.52100372314453 -75.06700134277344,-109.52100372314453 C-77.98899841308594,-104.45999908447266 -76.25499725341797,-97.98799896240234 -71.19400024414062,-95.06600189208984 C-71.19400024414062,-95.06600189208984 -61.165000915527344,-89.2760009765625 -61.165000915527344,-89.2760009765625 C-61.55500030517578,-86.47100067138672 -61.77199935913086,-83.61000061035156 -61.77199935913086,-80.697998046875 C-61.77199935913086,-77.78600311279297 -61.55500030517578,-74.9260025024414 -61.165000915527344,-72.12100219726562 C-61.165000915527344,-72.12100219726562 -71.19400024414062,-66.33100128173828 -71.19400024414062,-66.33100128173828 C-76.25499725341797,-63.409000396728516 -77.98899841308594,-56.9370002746582 -75.06700134277344,-51.875999450683594 C-75.06700134277344,-51.875999450683594 -62.49399948120117,-30.100000381469727 -62.49399948120117,-30.100000381469727 C-59.571998596191406,-25.038999557495117 -53.10100173950195,-23.30500030517578 -48.040000915527344,-26.226999282836914 C-48.040000915527344,-26.226999282836914 -38.005001068115234,-32.02000045776367 -38.005001068115234,-32.02000045776367 C-33.51100158691406,-28.506000518798828 -28.52199935913086,-25.60300064086914 -23.15399932861328,-23.43000030517578 C-23.15399932861328,-23.43000030517578 -23.15399932861328,-11.859000205993652 -23.15399932861328,-11.859000205993652 C-23.15399932861328,-6.014999866485596 -18.41699981689453,-1.277999997138977 -12.572999954223633,-1.277999997138977 C-12.572999954223633,-1.277999997138977 12.572999954223633,-1.277999997138977 12.572999954223633,-1.277999997138977 C18.41699981689453,-1.277999997138977 23.15399932861328,-6.014999866485596 23.15399932861328,-11.859000205993652 C23.15399932861328,-11.859000205993652 23.15399932861328,-23.43000030517578 23.15399932861328,-23.43000030517578 C28.52199935913086,-25.60300064086914 33.51100158691406,-28.506000518798828 38.005001068115234,-32.02000045776367 C38.005001068115234,-32.02000045776367 48.03900146484375,-26.226999282836914 48.03900146484375,-26.226999282836914 C53.099998474121094,-23.30500030517578 59.571998596191406,-25.038999557495117 62.49399948120117,-30.100000381469727 C62.49399948120117,-30.100000381469727 75.06700134277344,-51.875999450683594 75.06700134277344,-51.875999450683594 C77.98899841308594,-56.9370002746582 76.25499725341797,-63.409000396728516 71.19400024414062,-66.33100128173828z"/></g></g></g><mask id="__lottie_element_8561_1" mask-type="alpha"><use xmlns:ns1="http://www.w3.org/1999/xlink" ns1:href="#__lottie_element_8561"/></mask></defs><g clip-path="url(#__lottie_element_8537)"><g clip-path="url(#__lottie_element_8539)" transform="matrix(1,0,0,1,0,0)" opacity="1" style="display: block;"><g transform="matrix(1.059999942779541,0,0,1.059999942779541,-43.14276123046875,-42.9541015625)" opacity="1" style="display: block;"><g opacity="1" transform="matrix(1,0,0,1,0,0)"><path stroke-linecap="round" stroke-linejoin="round" fill-opacity="0" class="secondary" stroke="rgb(249,201,192)" stroke-opacity="1" stroke-width="1" d=" M348.0559997558594,300.1910095214844 C348.0559997558594,300.1910095214844 299.5580139160156,328.9809875488281 299.5580139160156,328.9809875488281 C299.5580139160156,328.9809875488281 299.5190124511719,369.89300537109375 299.5190124511719,369.89300537109375 C299.5190124511719,369.89300537109375 361.8080139160156,377.6289978027344 361.8080139160156,377.6289978027344 C361.8080139160156,377.6289978027344 361.8070068359375,339.6570129394531 361.8070068359375,339.6570129394531 C361.8070068359375,339.6570129394531 348.0559997558594,300.1910095214844 348.0559997558594,300.1910095214844z"/><path class="secondary" fill="rgb(249,201,192)" fill-opacity="1" d=" M348.0559997558594,300.1910095214844 C348.0559997558594,300.1910095214844 299.5580139160156,328.9809875488281 299.5580139160156,328.9809875488281 C299.5580139160156,328.9809875488281 299.5190124511719,369.89300537109375 299.5190124511719,369.89300537109375 C299.5190124511719,369.89300537109375 361.8080139160156,377.6289978027344 361.8080139160156,377.6289978027344 C361.8080139160156,377.6289978027344 361.8070068359375,339.6570129394531 361.8070068359375,339.6570129394531 C361.8070068359375,339.6570129394531 348.0559997558594,300.1910095214844 348.0559997558594,300.1910095214844z"/></g><g opacity="1" transform="matrix(1,0,0,1,380.1789855957031,268.0679931640625)"><path stroke-linecap="round" stroke-linejoin="round" fill-opacity="0" class="secondary" stroke="rgb(249,201,192)" stroke-opacity="1" stroke-width="1" d=" M-32.49399948120117,37.14699935913086 C-32.49399948120117,37.14699935913086 -0.625,-0.6240000128746033 -0.625,-0.6240000128746033 C-0.625,-0.6240000128746033 -0.625,-65.39399719238281 -0.625,-65.39399719238281 C-0.625,-65.39399719238281 -0.625,-82.2699966430664 -0.625,-82.2699966430664 C-0.625,-91.25299835205078 6.6579999923706055,-98.53600311279297 15.640999794006348,-98.53600311279297 C15.640999794006348,-98.53600311279297 15.640999794006348,-98.53600311279297 15.640999794006348,-98.53600311279297 C24.624000549316406,-98.53600311279297 33.32099914550781,-91.25299835205078 33.32099914550781,-82.2699966430664 C33.32099914550781,-82.2699966430664 33.32099914550781,-77.80899810791016 33.32099914550781,-77.80899810791016 C33.32099914550781,-77.80899810791016 33.32099914550781,-65.88500213623047 33.32099914550781,-65.88500213623047 C33.32099914550781,-65.88500213623047 33.32099914550781,-52.07899856567383 33.32099914550781,-52.07899856567383 C33.32099914550781,-52.07899856567383 33.32099914550781,-35.63100051879883 33.32099914550781,-35.63100051879883 C33.32099914550781,-35.63100051879883 33.32099914550781,-21.357999801635742 33.32099914550781,-21.357999801635742 C33.32099914550781,-21.357999801635742 33.32099914550781,-9.795000076293945 33.32099914550781,-9.795000076293945 C33.32099914550781,-9.795000076293945 33.32099914550781,12.503000259399414 33.32099914550781,12.503000259399414 C33.32099914550781,12.503000259399414 31.075000762939453,15.121000289916992 31.075000762939453,15.121000289916992 C31.075000762939453,15.121000289916992 -18.704999923706055,71.49600219726562 -18.704999923706055,71.49600219726562 C-18.704999923706055,71.49600219726562 -18.60099983215332,93.93499755859375 -18.60099983215332,93.93499755859375"/><path class="secondary" fill="rgb(249,201,192)" fill-opacity="1" d=" M-32.49399948120117,37.14699935913086 C-32.49399948120117,37.14699935913086 -0.625,-0.6240000128746033 -0.625,-0.6240000128746033 C-0.625,-0.6240000128746033 -0.625,-65.39399719238281 -0.625,-65.39399719238281 C-0.625,-65.39399719238281 -0.625,-82.2699966430664 -0.625,-82.2699966430664 C-0.625,-91.25299835205078 6.6579999923706055,-98.53600311279297 15.640999794006348,-98.53600311279297 C15.640999794006348,-98.53600311279297 15.640999794006348,-98.53600311279297 15.640999794006348,-98.53600311279297 C24.624000549316406,-98.53600311279297 33.32099914550781,-91.25299835205078 33.32099914550781,-82.2699966430664 C33.32099914550781,-82.2699966430664 33.32099914550781,-77.80899810791016 33.32099914550781,-77.80899810791016 C33.32099914550781,-77.80899810791016 33.32099914550781,-65.88500213623047 33.32099914550781,-65.88500213623047 C33.32099914550781,-65.88500213623047 33.32099914550781,-52.07899856567383 33.32099914550781,-52.07899856567383 C33.32099914550781,-52.07899856567383 33.32099914550781,-35.63100051879883 33.32099914550781,-35.63100051879883 C33.32099914550781,-35.63100051879883 33.32099914550781,-21.357999801635742 33.32099914550781,-21.357999801635742 C33.32099914550781,-21.357999801635742 33.32099914550781,-9.795000076293945 33.32099914550781,-9.795000076293945 C33.32099914550781,-9.795000076293945 33.32099914550781,12.503000259399414 33.32099914550781,12.503000259399414 C33.32099914550781,12.503000259399414 31.075000762939453,15.121000289916992 31.075000762939453,15.121000289916992 C31.075000762939453,15.121000289916992 -18.704999923706055,71.49600219726562 -18.704999923706055,71.49600219726562 C-18.704999923706055,71.49600219726562 -18.60099983215332,93.93499755859375 -18.60099983215332,93.93499755859375"/></g><g opacity="1" transform="matrix(1,0,0,1,341.6600036621094,307.7040100097656)"><path stroke-linecap="round" stroke-linejoin="round" fill-opacity="0" class="secondary" stroke="rgb(249,201,192)" stroke-opacity="1" stroke-width="1" d=" M-41.96200180053711,53.89099884033203 C-41.96200180053711,53.89099884033203 -41.90399932861328,1.690999984741211 -41.90399932861328,1.690999984741211 C-41.90399932861328,1.690999984741211 6.245999813079834,-49.930999755859375 6.245999813079834,-49.930999755859375 C9.265000343322754,-53.67900085449219 37.8380012512207,-63.525001525878906 37.89400100708008,-40.2599983215332 C37.89400100708008,-40.2599983215332 6.046999931335449,-2.558000087738037 6.046999931335449,-2.558000087738037"/><path class="secondary" fill="rgb(249,201,192)" fill-opacity="1" d=" M-41.96200180053711,53.89099884033203 C-41.96200180053711,53.89099884033203 -41.90399932861328,1.690999984741211 -41.90399932861328,1.690999984741211 C-41.90399932861328,1.690999984741211 6.245999813079834,-49.930999755859375 6.245999813079834,-49.930999755859375 C9.265000343322754,-53.67900085449219 37.8380012512207,-63.525001525878906 37.89400100708008,-40.2599983215332 C37.89400100708008,-40.2599983215332 6.046999931335449,-2.558000087738037 6.046999931335449,-2.558000087738037"/></g><g opacity="1" transform="matrix(1,0,0,1,330.6570129394531,385.5)"><path class="tertiary" fill="rgb(255,199,56)" fill-opacity="1" d=" M-27.360000610351562,23.472000122070312 C-27.360000610351562,23.472000122070312 39.31700134277344,23.43400001525879 39.31700134277344,23.43400001525879 C42.077999114990234,23.43400001525879 44.31700134277344,21.19499969482422 44.31700134277344,18.43400001525879 C44.31700134277344,18.43400001525879 44.31700134277344,-18.43400001525879 44.31700134277344,-18.43400001525879 C44.31700134277344,-21.19499969482422 42.077999114990234,-23.43400001525879 39.31700134277344,-23.43400001525879 C39.31700134277344,-23.43400001525879 -36.5989990234375,-23.472000122070312 -36.5989990234375,-23.472000122070312 C-40.185001373291016,-23.472000122070312 -42.60499954223633,-19.808000564575195 -41.198001861572266,-16.510000228881836 C-41.198001861572266,-16.510000228881836 -31.958999633789062,20.433000564575195 -31.958999633789062,20.433000564575195 C-31.17300033569336,22.275999069213867 -29.363000869750977,23.472000122070312 -27.360000610351562,23.472000122070312z"/><path stroke-linecap="round" stroke-linejoin="round" fill-opacity="0" class="tertiary" stroke="rgb(255,199,56)" stroke-opacity="1" stroke-width="3" d=" M-27.360000610351562,23.472000122070312 C-27.360000610351562,23.472000122070312 39.31700134277344,23.43400001525879 39.31700134277344,23.43400001525879 C42.077999114990234,23.43400001525879 44.31700134277344,21.19499969482422 44.31700134277344,18.43400001525879 C44.31700134277344,18.43400001525879 44.31700134277344,-18.43400001525879 44.31700134277344,-18.43400001525879 C44.31700134277344,-21.19499969482422 42.077999114990234,-23.43400001525879 39.31700134277344,-23.43400001525879 C39.31700134277344,-23.43400001525879 -36.5989990234375,-23.472000122070312 -36.5989990234375,-23.472000122070312 C-40.185001373291016,-23.472000122070312 -42.60499954223633,-19.808000564575195 -41.198001861572266,-16.510000228881836 C-41.198001861572266,-16.510000228881836 -31.958999633789062,20.433000564575195 -31.958999633789062,20.433000564575195 C-31.17300033569336,22.275999069213867 -29.363000869750977,23.472000122070312 -27.360000610351562,23.472000122070312z"/></g><g opacity="0.5" transform="matrix(1,0,0,1,0,0)" style="mix-blend-mode: multiply;"><path class="secondary" fill="rgb(249,201,192)" fill-opacity="1" d=" M413.8139953613281,186.5229949951172 C413.8139953613281,178.16200256347656 407.60198974609375,171.25 399.531005859375,170.1269989013672 C402.52301025390625,173.12100219726562 404.37298583984375,177.2519989013672 404.37298583984375,181.81399536132812 C404.37298583984375,181.81399536132812 404.37298583984375,266.32501220703125 404.37298583984375,266.32501220703125 C404.37298583984375,272.4930114746094 402.10699462890625,278.4460144042969 398.010009765625,283.05999755859375 C398.010009765625,283.05999755859375 352.25799560546875,334.5539855957031 352.25799560546875,334.5539855957031 C352.25799560546875,334.5539855957031 352.25799560546875,360.75299072265625 352.25799560546875,360.75299072265625 C352.25799560546875,360.75299072265625 361.6990051269531,360.75299072265625 361.6990051269531,360.75299072265625 C361.6990051269531,360.75299072265625 361.6990051269531,339.26300048828125 361.6990051269531,339.26300048828125 C361.6990051269531,339.26300048828125 407.45098876953125,287.76800537109375 407.45098876953125,287.76800537109375 C411.54901123046875,283.15301513671875 413.8139953613281,277.2019958496094 413.8139953613281,271.03399658203125 C413.8139953613281,271.03399658203125 413.8139953613281,186.5229949951172 413.8139953613281,186.5229949951172z M344.8429870605469,307.85400390625 C349.8299865722656,302.3290100097656 365.8190002441406,283.8009948730469 379.5379943847656,266.8630065917969 C379.7340087890625,257.62200927734375 376.0870056152344,254.24600219726562 370.09100341796875,252.60000610351562 C365.5539855957031,251.35400390625 359.56201171875,252.53799438476562 355.1919860839844,253.82200622558594 C362.1629943847656,254.6739959716797 367.6759948730469,259.2439880371094 367.1449890136719,267.2170104980469 C355.8489990234375,279.875 344.45098876953125,292.57501220703125 337.0249938964844,300.8179931640625 C333.9800109863281,304.197998046875 336.39300537109375,309.57598876953125 340.947998046875,309.57598876953125 C342.43798828125,309.57598876953125 343.84600830078125,308.9580078125 344.8429870605469,307.85400390625z"/></g><g opacity="0.5" transform="matrix(1,0,0,1,0,0)" style="mix-blend-mode: multiply;"><path class="tertiary" fill="rgb(255,199,56)" fill-opacity="1" d=" M360.0409851074219,360.7820129394531 C360.0409851074219,360.7820129394531 369.8380126953125,360.7820129394531 369.8380126953125,360.7820129394531 C373.4530029296875,360.7820129394531 376.3819885253906,363.7120056152344 376.3819885253906,367.3269958496094 C376.3819885253906,367.3269958496094 376.3819885253906,403.58599853515625 376.3819885253906,403.58599853515625 C376.3819885253906,407.20098876953125 373.4530029296875,410.1310119628906 369.8380126953125,410.1310119628906 C369.8380126953125,410.1310119628906 360.0409851074219,410.1310119628906 360.0409851074219,410.1310119628906 C363.656005859375,410.1310119628906 366.5849914550781,407.20098876953125 366.5849914550781,403.58599853515625 C366.5849914550781,403.58599853515625 366.5849914550781,367.3269958496094 366.5849914550781,367.3269958496094 C366.5849914550781,363.7120056152344 363.656005859375,360.7820129394531 360.0409851074219,360.7820129394531z"/></g></g><g transform="matrix(1.059999942779541,0,0,1.059999942779541,-43.14276123046875,-42.9541015625)" opacity="1" style="display: block;"><g opacity="1" transform="matrix(1,0,0,1,330.6570129394531,385.5)"><path stroke-linecap="round" stroke-linejoin="round" fill-opacity="0" class="primary" stroke="rgb(18,19,49)" stroke-opacity="1" stroke-width="6.7" d=" M-27.360000610351562,23.472000122070312 C-27.360000610351562,23.472000122070312 39.31700134277344,23.43400001525879 39.31700134277344,23.43400001525879 C42.077999114990234,23.43400001525879 44.31700134277344,21.19499969482422 44.31700134277344,18.43400001525879 C44.31700134277344,18.43400001525879 44.31700134277344,-18.43400001525879 44.31700134277344,-18.43400001525879 C44.31700134277344,-21.19499969482422 42.077999114990234,-23.43400001525879 39.31700134277344,-23.43400001525879 C39.31700134277344,-23.43400001525879 -36.5989990234375,-23.472000122070312 -36.5989990234375,-23.472000122070312 C-40.185001373291016,-23.472000122070312 -42.60499954223633,-19.808000564575195 -41.198001861572266,-16.510000228881836 C-41.198001861572266,-16.510000228881836 -31.958999633789062,20.433000564575195 -31.958999633789062,20.433000564575195 C-31.17300033569336,22.275999069213867 -29.363000869750977,23.472000122070312 -27.360000610351562,23.472000122070312z"/></g><g opacity="1" transform="matrix(1,0,0,1,380.1789855957031,268.0679931640625)"><path stroke-linecap="round" stroke-linejoin="round" fill-opacity="0" class="primary" stroke="rgb(18,19,49)" stroke-opacity="1" stroke-width="6.7" d=" M-32.49399948120117,37.14699935913086 C-32.49399948120117,37.14699935913086 -0.625,-0.6240000128746033 -0.625,-0.6240000128746033 C-0.625,-0.6240000128746033 -0.625,-65.39399719238281 -0.625,-65.39399719238281 C-0.625,-65.39399719238281 -0.625,-82.2699966430664 -0.625,-82.2699966430664 C-0.625,-91.25299835205078 6.6579999923706055,-98.53600311279297 15.640999794006348,-98.53600311279297 C15.640999794006348,-98.53600311279297 15.640999794006348,-98.53600311279297 15.640999794006348,-98.53600311279297 C24.624000549316406,-98.53600311279297 33.32099914550781,-91.25299835205078 33.32099914550781,-82.2699966430664 C33.32099914550781,-82.2699966430664 33.32099914550781,-77.80899810791016 33.32099914550781,-77.80899810791016 C33.32099914550781,-77.80899810791016 33.32099914550781,-65.88500213623047 33.32099914550781,-65.88500213623047 C33.32099914550781,-65.88500213623047 33.32099914550781,-52.07899856567383 33.32099914550781,-52.07899856567383 C33.32099914550781,-52.07899856567383 33.32099914550781,-35.63100051879883 33.32099914550781,-35.63100051879883 C33.32099914550781,-35.63100051879883 33.32099914550781,-21.357999801635742 33.32099914550781,-21.357999801635742 C33.32099914550781,-21.357999801635742 33.32099914550781,-9.795000076293945 33.32099914550781,-9.795000076293945 C33.32099914550781,-9.795000076293945 33.32099914550781,12.503000259399414 33.32099914550781,12.503000259399414 C33.32099914550781,12.503000259399414 31.075000762939453,15.121000289916992 31.075000762939453,15.121000289916992 C31.075000762939453,15.121000289916992 -18.704999923706055,71.49600219726562 -18.704999923706055,71.49600219726562 C-18.704999923706055,71.49600219726562 -18.60099983215332,93.93499755859375 -18.60099983215332,93.93499755859375"/></g><g opacity="1" transform="matrix(1,0,0,1,341.6600036621094,307.7040100097656)"><path stroke-linecap="round" stroke-linejoin="round" fill-opacity="0" class="primary" stroke="rgb(18,19,49)" stroke-opacity="1" stroke-width="6.7" d=" M-41.96200180053711,53.89099884033203 C-41.96200180053711,53.89099884033203 -41.90399932861328,1.690999984741211 -41.90399932861328,1.690999984741211 C-41.90399932861328,1.690999984741211 6.245999813079834,-49.930999755859375 6.245999813079834,-49.930999755859375 C9.265000343322754,-53.67900085449219 37.8380012512207,-63.525001525878906 37.89400100708008,-40.2599983215332 C37.89400100708008,-40.2599983215332 6.046999931335449,-2.558000087738037 6.046999931335449,-2.558000087738037"/></g></g><g transform="matrix(-1.059999942779541,0,0,1.059999942779541,473.14276123046875,-42.9541015625)" opacity="1" style="display: block;"><g opacity="1" transform="matrix(1,0,0,1,0,0)"><path stroke-linecap="round" stroke-linejoin="round" fill-opacity="0" class="secondary" stroke="rgb(249,201,192)" stroke-opacity="1" stroke-width="1" d=" M348.0559997558594,300.1910095214844 C348.0559997558594,300.1910095214844 299.5580139160156,330.39599609375 299.5580139160156,330.39599609375 C299.5580139160156,330.39599609375 299.9909973144531,370.60101318359375 299.9909973144531,370.60101318359375 C299.9909973144531,370.60101318359375 361.5719909667969,377.39300537109375 361.5719909667969,377.39300537109375 C361.5719909667969,377.39300537109375 361.5719909667969,339.4209899902344 361.5719909667969,339.4209899902344 C361.5719909667969,339.4209899902344 348.0559997558594,300.1910095214844 348.0559997558594,300.1910095214844z"/><path class="secondary" fill="rgb(249,201,192)" fill-opacity="1" d=" M348.0559997558594,300.1910095214844 C348.0559997558594,300.1910095214844 299.5580139160156,330.39599609375 299.5580139160156,330.39599609375 C299.5580139160156,330.39599609375 299.9909973144531,370.60101318359375 299.9909973144531,370.60101318359375 C299.9909973144531,370.60101318359375 361.5719909667969,377.39300537109375 361.5719909667969,377.39300537109375 C361.5719909667969,377.39300537109375 361.5719909667969,339.4209899902344 361.5719909667969,339.4209899902344 C361.5719909667969,339.4209899902344 348.0559997558594,300.1910095214844 348.0559997558594,300.1910095214844z"/></g><g opacity="1" transform="matrix(1,0,0,1,380.1789855957031,268.0679931640625)"><path stroke-linecap="round" stroke-linejoin="round" fill-opacity="0" class="secondary" stroke="rgb(249,201,192)" stroke-opacity="1" stroke-width="1" d=" M-32.49399948120117,37.14699935913086 C-32.49399948120117,37.14699935913086 -0.625,-0.6240000128746033 -0.625,-0.6240000128746033 C-0.625,-0.6240000128746033 -0.625,-65.39399719238281 -0.625,-65.39399719238281 C-0.625,-65.39399719238281 -0.625,-82.2699966430664 -0.625,-82.2699966430664 C-0.625,-91.25299835205078 6.6579999923706055,-98.53600311279297 15.640999794006348,-98.53600311279297 C15.640999794006348,-98.53600311279297 15.640999794006348,-98.53600311279297 15.640999794006348,-98.53600311279297 C24.624000549316406,-98.53600311279297 33.32099914550781,-91.25299835205078 33.32099914550781,-82.2699966430664 C33.32099914550781,-82.2699966430664 33.32099914550781,-77.80899810791016 33.32099914550781,-77.80899810791016 C33.32099914550781,-77.80899810791016 33.32099914550781,-65.88500213623047 33.32099914550781,-65.88500213623047 C33.32099914550781,-65.88500213623047 33.32099914550781,-52.07899856567383 33.32099914550781,-52.07899856567383 C33.32099914550781,-52.07899856567383 33.32099914550781,-35.63100051879883 33.32099914550781,-35.63100051879883 C33.32099914550781,-35.63100051879883 33.32099914550781,-21.357999801635742 33.32099914550781,-21.357999801635742 C33.32099914550781,-21.357999801635742 33.32099914550781,-9.795000076293945 33.32099914550781,-9.795000076293945 C33.32099914550781,-9.795000076293945 33.32099914550781,12.503000259399414 33.32099914550781,12.503000259399414 C33.32099914550781,12.503000259399414 31.075000762939453,15.121000289916992 31.075000762939453,15.121000289916992 C31.075000762939453,15.121000289916992 -18.704999923706055,71.49600219726562 -18.704999923706055,71.49600219726562 C-18.704999923706055,71.49600219726562 -18.60099983215332,93.93499755859375 -18.60099983215332,93.93499755859375"/><path class="secondary" fill="rgb(249,201,192)" fill-opacity="1" d=" M-32.49399948120117,37.14699935913086 C-32.49399948120117,37.14699935913086 -0.625,-0.6240000128746033 -0.625,-0.6240000128746033 C-0.625,-0.6240000128746033 -0.625,-65.39399719238281 -0.625,-65.39399719238281 C-0.625,-65.39399719238281 -0.625,-82.2699966430664 -0.625,-82.2699966430664 C-0.625,-91.25299835205078 6.6579999923706055,-98.53600311279297 15.640999794006348,-98.53600311279297 C15.640999794006348,-98.53600311279297 15.640999794006348,-98.53600311279297 15.640999794006348,-98.53600311279297 C24.624000549316406,-98.53600311279297 33.32099914550781,-91.25299835205078 33.32099914550781,-82.2699966430664 C33.32099914550781,-82.2699966430664 33.32099914550781,-77.80899810791016 33.32099914550781,-77.80899810791016 C33.32099914550781,-77.80899810791016 33.32099914550781,-65.88500213623047 33.32099914550781,-65.88500213623047 C33.32099914550781,-65.88500213623047 33.32099914550781,-52.07899856567383 33.32099914550781,-52.07899856567383 C33.32099914550781,-52.07899856567383 33.32099914550781,-35.63100051879883 33.32099914550781,-35.63100051879883 C33.32099914550781,-35.63100051879883 33.32099914550781,-21.357999801635742 33.32099914550781,-21.357999801635742 C33.32099914550781,-21.357999801635742 33.32099914550781,-9.795000076293945 33.32099914550781,-9.795000076293945 C33.32099914550781,-9.795000076293945 33.32099914550781,12.503000259399414 33.32099914550781,12.503000259399414 C33.32099914550781,12.503000259399414 31.075000762939453,15.121000289916992 31.075000762939453,15.121000289916992 C31.075000762939453,15.121000289916992 -18.704999923706055,71.49600219726562 -18.704999923706055,71.49600219726562 C-18.704999923706055,71.49600219726562 -18.60099983215332,93.93499755859375 -18.60099983215332,93.93499755859375"/></g><g opacity="1" transform="matrix(1,0,0,1,341.6600036621094,307.7040100097656)"><path stroke-linecap="round" stroke-linejoin="round" fill-opacity="0" class="secondary" stroke="rgb(249,201,192)" stroke-opacity="1" stroke-width="1" d=" M-41.96200180053711,53.89099884033203 C-41.96200180053711,53.89099884033203 -41.90399932861328,1.690999984741211 -41.90399932861328,1.690999984741211 C-41.90399932861328,1.690999984741211 6.245999813079834,-49.930999755859375 6.245999813079834,-49.930999755859375 C9.265000343322754,-53.67900085449219 37.8380012512207,-63.525001525878906 37.89400100708008,-40.2599983215332 C37.89400100708008,-40.2599983215332 6.046999931335449,-2.558000087738037 6.046999931335449,-2.558000087738037"/><path class="secondary" fill="rgb(249,201,192)" fill-opacity="1" d=" M-41.96200180053711,53.89099884033203 C-41.96200180053711,53.89099884033203 -41.90399932861328,1.690999984741211 -41.90399932861328,1.690999984741211 C-41.90399932861328,1.690999984741211 6.245999813079834,-49.930999755859375 6.245999813079834,-49.930999755859375 C9.265000343322754,-53.67900085449219 37.8380012512207,-63.525001525878906 37.89400100708008,-40.2599983215332 C37.89400100708008,-40.2599983215332 6.046999931335449,-2.558000087738037 6.046999931335449,-2.558000087738037"/></g><g opacity="0.5" transform="matrix(1,0,0,1,0,0)" style="mix-blend-mode: multiply;"><path class="secondary" fill="rgb(249,201,192)" fill-opacity="1" d=" M413.8139953613281,186.5229949951172 C413.8139953613281,178.16200256347656 407.60198974609375,171.25 399.531005859375,170.1269989013672 C402.52301025390625,173.12100219726562 404.37298583984375,177.2519989013672 404.37298583984375,181.81399536132812 C404.37298583984375,181.81399536132812 404.37298583984375,266.32501220703125 404.37298583984375,266.32501220703125 C404.37298583984375,272.4930114746094 402.10699462890625,278.4460144042969 398.010009765625,283.05999755859375 C398.010009765625,283.05999755859375 352.25799560546875,334.5539855957031 352.25799560546875,334.5539855957031 C352.25799560546875,334.5539855957031 352.25799560546875,360.75299072265625 352.25799560546875,360.75299072265625 C352.25799560546875,360.75299072265625 361.6990051269531,360.75299072265625 361.6990051269531,360.75299072265625 C361.6990051269531,360.75299072265625 361.6990051269531,339.26300048828125 361.6990051269531,339.26300048828125 C361.6990051269531,339.26300048828125 407.45098876953125,287.76800537109375 407.45098876953125,287.76800537109375 C411.54901123046875,283.15301513671875 413.8139953613281,277.2019958496094 413.8139953613281,271.03399658203125 C413.8139953613281,271.03399658203125 413.8139953613281,186.5229949951172 413.8139953613281,186.5229949951172z M344.8429870605469,307.85400390625 C349.8299865722656,302.3290100097656 365.8190002441406,283.8009948730469 379.5379943847656,266.8630065917969 C379.7340087890625,257.62200927734375 376.0870056152344,254.24600219726562 370.09100341796875,252.60000610351562 C365.5539855957031,251.35400390625 359.56201171875,252.53799438476562 355.1919860839844,253.82200622558594 C362.1629943847656,254.6739959716797 367.6759948730469,259.2439880371094 367.1449890136719,267.2170104980469 C355.8489990234375,279.875 344.45098876953125,292.57501220703125 337.0249938964844,300.8179931640625 C333.9800109863281,304.197998046875 336.39300537109375,309.57598876953125 340.947998046875,309.57598876953125 C342.43798828125,309.57598876953125 343.84600830078125,308.9580078125 344.8429870605469,307.85400390625z"/></g><g opacity="1" transform="matrix(1,0,0,1,330.6570129394531,385.5)"><path class="tertiary" fill="rgb(255,199,56)" fill-opacity="1" d=" M-27.360000610351562,23.472000122070312 C-27.360000610351562,23.472000122070312 39.31700134277344,23.43400001525879 39.31700134277344,23.43400001525879 C42.077999114990234,23.43400001525879 44.31700134277344,21.19499969482422 44.31700134277344,18.43400001525879 C44.31700134277344,18.43400001525879 44.31700134277344,-18.43400001525879 44.31700134277344,-18.43400001525879 C44.31700134277344,-21.19499969482422 42.077999114990234,-23.43400001525879 39.31700134277344,-23.43400001525879 C39.31700134277344,-23.43400001525879 -36.5989990234375,-23.472000122070312 -36.5989990234375,-23.472000122070312 C-40.185001373291016,-23.472000122070312 -42.60499954223633,-19.808000564575195 -41.198001861572266,-16.510000228881836 C-41.198001861572266,-16.510000228881836 -31.958999633789062,20.433000564575195 -31.958999633789062,20.433000564575195 C-31.17300033569336,22.275999069213867 -29.363000869750977,23.472000122070312 -27.360000610351562,23.472000122070312z"/><path stroke-linecap="round" stroke-linejoin="round" fill-opacity="0" class="tertiary" stroke="rgb(255,199,56)" stroke-opacity="1" stroke-width="3" d=" M-27.360000610351562,23.472000122070312 C-27.360000610351562,23.472000122070312 39.31700134277344,23.43400001525879 39.31700134277344,23.43400001525879 C42.077999114990234,23.43400001525879 44.31700134277344,21.19499969482422 44.31700134277344,18.43400001525879 C44.31700134277344,18.43400001525879 44.31700134277344,-18.43400001525879 44.31700134277344,-18.43400001525879 C44.31700134277344,-21.19499969482422 42.077999114990234,-23.43400001525879 39.31700134277344,-23.43400001525879 C39.31700134277344,-23.43400001525879 -36.5989990234375,-23.472000122070312 -36.5989990234375,-23.472000122070312 C-40.185001373291016,-23.472000122070312 -42.60499954223633,-19.808000564575195 -41.198001861572266,-16.510000228881836 C-41.198001861572266,-16.510000228881836 -31.958999633789062,20.433000564575195 -31.958999633789062,20.433000564575195 C-31.17300033569336,22.275999069213867 -29.363000869750977,23.472000122070312 -27.360000610351562,23.472000122070312z"/></g><g opacity="0.5" transform="matrix(1,0,0,1,0,0)" style="mix-blend-mode: multiply;"><path class="tertiary" fill="rgb(255,199,56)" fill-opacity="1" d=" M360.0409851074219,360.7820129394531 C360.0409851074219,360.7820129394531 369.8380126953125,360.7820129394531 369.8380126953125,360.7820129394531 C373.4530029296875,360.7820129394531 376.3819885253906,363.7120056152344 376.3819885253906,367.3269958496094 C376.3819885253906,367.3269958496094 376.3819885253906,403.58599853515625 376.3819885253906,403.58599853515625 C376.3819885253906,407.20098876953125 373.4530029296875,410.1310119628906 369.8380126953125,410.1310119628906 C369.8380126953125,410.1310119628906 360.0409851074219,410.1310119628906 360.0409851074219,410.1310119628906 C363.656005859375,410.1310119628906 366.5849914550781,407.20098876953125 366.5849914550781,403.58599853515625 C366.5849914550781,403.58599853515625 366.5849914550781,367.3269958496094 366.5849914550781,367.3269958496094 C366.5849914550781,363.7120056152344 363.656005859375,360.7820129394531 360.0409851074219,360.7820129394531z"/></g></g><g transform="matrix(-1.059999942779541,0,0,1.059999942779541,473.14276123046875,-42.9541015625)" opacity="1" style="display: block;"><g opacity="1" transform="matrix(1,0,0,1,330.6570129394531,385.5)"><path stroke-linecap="round" stroke-linejoin="round" fill-opacity="0" class="primary" stroke="rgb(18,19,49)" stroke-opacity="1" stroke-width="6.7" d=" M-27.360000610351562,23.472000122070312 C-27.360000610351562,23.472000122070312 39.31700134277344,23.43400001525879 39.31700134277344,23.43400001525879 C42.077999114990234,23.43400001525879 44.31700134277344,21.19499969482422 44.31700134277344,18.43400001525879 C44.31700134277344,18.43400001525879 44.31700134277344,-18.43400001525879 44.31700134277344,-18.43400001525879 C44.31700134277344,-21.19499969482422 42.077999114990234,-23.43400001525879 39.31700134277344,-23.43400001525879 C39.31700134277344,-23.43400001525879 -36.5989990234375,-23.472000122070312 -36.5989990234375,-23.472000122070312 C-40.185001373291016,-23.472000122070312 -42.60499954223633,-19.808000564575195 -41.198001861572266,-16.510000228881836 C-41.198001861572266,-16.510000228881836 -31.958999633789062,20.433000564575195 -31.958999633789062,20.433000564575195 C-31.17300033569336,22.275999069213867 -29.363000869750977,23.472000122070312 -27.360000610351562,23.472000122070312z"/></g><g opacity="1" transform="matrix(1,0,0,1,380.1789855957031,268.0679931640625)"><path stroke-linecap="round" stroke-linejoin="round" fill-opacity="0" class="primary" stroke="rgb(18,19,49)" stroke-opacity="1" stroke-width="6.7" d=" M-32.49399948120117,37.14699935913086 C-32.49399948120117,37.14699935913086 -0.625,-0.6240000128746033 -0.625,-0.6240000128746033 C-0.625,-0.6240000128746033 -0.625,-65.39399719238281 -0.625,-65.39399719238281 C-0.625,-65.39399719238281 -0.625,-82.2699966430664 -0.625,-82.2699966430664 C-0.625,-91.25299835205078 6.6579999923706055,-98.53600311279297 15.640999794006348,-98.53600311279297 C15.640999794006348,-98.53600311279297 15.640999794006348,-98.53600311279297 15.640999794006348,-98.53600311279297 C24.624000549316406,-98.53600311279297 33.32099914550781,-91.25299835205078 33.32099914550781,-82.2699966430664 C33.32099914550781,-82.2699966430664 33.32099914550781,-77.80899810791016 33.32099914550781,-77.80899810791016 C33.32099914550781,-77.80899810791016 33.32099914550781,-65.88500213623047 33.32099914550781,-65.88500213623047 C33.32099914550781,-65.88500213623047 33.32099914550781,-52.07899856567383 33.32099914550781,-52.07899856567383 C33.32099914550781,-52.07899856567383 33.32099914550781,-35.63100051879883 33.32099914550781,-35.63100051879883 C33.32099914550781,-35.63100051879883 33.32099914550781,-21.357999801635742 33.32099914550781,-21.357999801635742 C33.32099914550781,-21.357999801635742 33.32099914550781,-9.795000076293945 33.32099914550781,-9.795000076293945 C33.32099914550781,-9.795000076293945 33.32099914550781,12.503000259399414 33.32099914550781,12.503000259399414 C33.32099914550781,12.503000259399414 31.075000762939453,15.121000289916992 31.075000762939453,15.121000289916992 C31.075000762939453,15.121000289916992 -18.704999923706055,71.49600219726562 -18.704999923706055,71.49600219726562 C-18.704999923706055,71.49600219726562 -18.60099983215332,93.93499755859375 -18.60099983215332,93.93499755859375"/></g><g opacity="1" transform="matrix(1,0,0,1,341.6600036621094,307.7040100097656)"><path stroke-linecap="round" stroke-linejoin="round" fill-opacity="0" class="primary" stroke="rgb(18,19,49)" stroke-opacity="1" stroke-width="6.7" d=" M-41.96200180053711,53.89099884033203 C-41.96200180053711,53.89099884033203 -41.90399932861328,1.690999984741211 -41.90399932861328,1.690999984741211 C-41.90399932861328,1.690999984741211 6.245999813079834,-49.930999755859375 6.245999813079834,-49.930999755859375 C9.265000343322754,-53.67900085449219 37.8380012512207,-63.525001525878906 37.89400100708008,-40.2599983215332 C37.89400100708008,-40.2599983215332 6.046999931335449,-2.558000087738037 6.046999931335449,-2.558000087738037"/></g></g><g transform="matrix(1.2699999809265137,0,0,1.2699999809265137,215,236.7884521484375)" opacity="1" style="display: block;"><g opacity="1" transform="matrix(1,0,0,1,0,0)"><path class="quaternary" fill="rgb(58,51,71)" fill-opacity="1" d=" M0,-112.3030014038086 C17.454999923706055,-112.3030014038086 31.604999542236328,-98.15299987792969 31.604999542236328,-80.697998046875 C31.604999542236328,-63.24300003051758 17.454999923706055,-49.09400177001953 0,-49.09400177001953 C-17.454999923706055,-49.09400177001953 -31.604999542236328,-63.24300003051758 -31.604999542236328,-80.697998046875 C-31.604999542236328,-98.15299987792969 -17.454999923706055,-112.3030014038086 0,-112.3030014038086z M71.19400024414062,-66.33100128173828 C71.19400024414062,-66.33100128173828 61.165000915527344,-72.12100219726562 61.165000915527344,-72.12100219726562 C61.55500030517578,-74.9260025024414 61.77199935913086,-77.78600311279297 61.77199935913086,-80.697998046875 C61.77199935913086,-83.61000061035156 61.55500030517578,-86.47100067138672 61.165000915527344,-89.2760009765625 C61.165000915527344,-89.2760009765625 71.19400024414062,-95.06600189208984 71.19400024414062,-95.06600189208984 C76.25499725341797,-97.98799896240234 77.98899841308594,-104.45999908447266 75.06700134277344,-109.52100372314453 C75.06700134277344,-109.52100372314453 62.49399948120117,-131.2969970703125 62.49399948120117,-131.2969970703125 C59.571998596191406,-136.35800170898438 53.099998474121094,-138.0919952392578 48.03900146484375,-135.1699981689453 C48.03900146484375,-135.1699981689453 38.005001068115234,-129.3769989013672 38.005001068115234,-129.3769989013672 C33.51100158691406,-132.88999938964844 28.52199935913086,-135.7949981689453 23.15399932861328,-137.9669952392578 C23.15399932861328,-137.9669952392578 23.15399932861328,-149.53799438476562 23.15399932861328,-149.53799438476562 C23.15399932861328,-155.3820037841797 18.41699981689453,-160.11900329589844 12.572999954223633,-160.11900329589844 C12.572999954223633,-160.11900329589844 -12.572999954223633,-160.11900329589844 -12.572999954223633,-160.11900329589844 C-18.41699981689453,-160.11900329589844 -23.15399932861328,-155.3820037841797 -23.15399932861328,-149.53799438476562 C-23.15399932861328,-149.53799438476562 -23.15399932861328,-137.9669952392578 -23.15399932861328,-137.9669952392578 C-28.52199935913086,-135.7949981689453 -33.51100158691406,-132.89100646972656 -38.005001068115234,-129.3769989013672 C-38.005001068115234,-129.3769989013672 -48.040000915527344,-135.1699981689453 -48.040000915527344,-135.1699981689453 C-53.10100173950195,-138.0919952392578 -59.571998596191406,-136.35800170898438 -62.49399948120117,-131.2969970703125 C-62.49399948120117,-131.2969970703125 -75.06700134277344,-109.52100372314453 -75.06700134277344,-109.52100372314453 C-77.98899841308594,-104.45999908447266 -76.25499725341797,-97.98799896240234 -71.19400024414062,-95.06600189208984 C-71.19400024414062,-95.06600189208984 -61.165000915527344,-89.2760009765625 -61.165000915527344,-89.2760009765625 C-61.55500030517578,-86.47100067138672 -61.77199935913086,-83.61000061035156 -61.77199935913086,-80.697998046875 C-61.77199935913086,-77.78600311279297 -61.55500030517578,-74.9260025024414 -61.165000915527344,-72.12100219726562 C-61.165000915527344,-72.12100219726562 -71.19400024414062,-66.33100128173828 -71.19400024414062,-66.33100128173828 C-76.25499725341797,-63.409000396728516 -77.98899841308594,-56.9370002746582 -75.06700134277344,-51.875999450683594 C-75.06700134277344,-51.875999450683594 -62.49399948120117,-30.100000381469727 -62.49399948120117,-30.100000381469727 C-59.571998596191406,-25.038999557495117 -53.10100173950195,-23.30500030517578 -48.040000915527344,-26.226999282836914 C-48.040000915527344,-26.226999282836914 -38.005001068115234,-32.02000045776367 -38.005001068115234,-32.02000045776367 C-33.51100158691406,-28.506000518798828 -28.52199935913086,-25.60300064086914 -23.15399932861328,-23.43000030517578 C-23.15399932861328,-23.43000030517578 -23.15399932861328,-11.859000205993652 -23.15399932861328,-11.859000205993652 C-23.15399932861328,-6.014999866485596 -18.41699981689453,-1.277999997138977 -12.572999954223633,-1.277999997138977 C-12.572999954223633,-1.277999997138977 12.572999954223633,-1.277999997138977 12.572999954223633,-1.277999997138977 C18.41699981689453,-1.277999997138977 23.15399932861328,-6.014999866485596 23.15399932861328,-11.859000205993652 C23.15399932861328,-11.859000205993652 23.15399932861328,-23.43000030517578 23.15399932861328,-23.43000030517578 C28.52199935913086,-25.60300064086914 33.51100158691406,-28.506000518798828 38.005001068115234,-32.02000045776367 C38.005001068115234,-32.02000045776367 48.03900146484375,-26.226999282836914 48.03900146484375,-26.226999282836914 C53.099998474121094,-23.30500030517578 59.571998596191406,-25.038999557495117 62.49399948120117,-30.100000381469727 C62.49399948120117,-30.100000381469727 75.06700134277344,-51.875999450683594 75.06700134277344,-51.875999450683594 C77.98899841308594,-56.9370002746582 76.25499725341797,-63.409000396728516 71.19400024414062,-66.33100128173828z"/></g></g><g mask="url(#__lottie_element_8561_1)" style="mix-blend-mode: multiply; display: block;"><g transform="matrix(1,0,0,1,217.5,243)" opacity="0.5"><g opacity="1" transform="matrix(1,0,0,1,-66.81500244140625,-89.5469970703125)"><path class="quaternary" fill="rgb(58,51,71)" fill-opacity="1" d=" M65.31549835205078,-127.5469970703125 C65.31549835205078,-127.5469970703125 65.31549835205078,127.5469970703125 65.31549835205078,127.5469970703125 C65.31549835205078,127.5469970703125 -65.31549835205078,127.5469970703125 -65.31549835205078,127.5469970703125 C-65.31549835205078,127.5469970703125 -65.31549835205078,-127.5469970703125 -65.31549835205078,-127.5469970703125 C-65.31549835205078,-127.5469970703125 65.31549835205078,-127.5469970703125 65.31549835205078,-127.5469970703125z"/><path stroke-linecap="butt" stroke-linejoin="miter" fill-opacity="0" stroke-miterlimit="4" class="primary" stroke="rgb(18,19,49)" stroke-opacity="1" stroke-width="0" d=" M65.31549835205078,-127.5469970703125 C65.31549835205078,-127.5469970703125 65.31549835205078,127.5469970703125 65.31549835205078,127.5469970703125 C65.31549835205078,127.5469970703125 -65.31549835205078,127.5469970703125 -65.31549835205078,127.5469970703125 C-65.31549835205078,127.5469970703125 -65.31549835205078,-127.5469970703125 -65.31549835205078,-127.5469970703125 C-65.31549835205078,-127.5469970703125 65.31549835205078,-127.5469970703125 65.31549835205078,-127.5469970703125z"/></g></g></g><g transform="matrix(1.2699999809265137,0,0,1.2699999809265137,215,236.7884521484375)" opacity="1" style="display: block;"><g opacity="1" transform="matrix(1,0,0,1,0,0)"><path stroke-linecap="round" stroke-linejoin="round" fill-opacity="0" class="primary" stroke="rgb(18,19,49)" stroke-opacity="1" stroke-width="7" d=" M0,-112.3030014038086 C17.454999923706055,-112.3030014038086 31.604999542236328,-98.15299987792969 31.604999542236328,-80.697998046875 C31.604999542236328,-63.24300003051758 17.454999923706055,-49.09400177001953 0,-49.09400177001953 C-17.454999923706055,-49.09400177001953 -31.604999542236328,-63.24300003051758 -31.604999542236328,-80.697998046875 C-31.604999542236328,-98.15299987792969 -17.454999923706055,-112.3030014038086 0,-112.3030014038086z M71.19400024414062,-66.33100128173828 C71.19400024414062,-66.33100128173828 61.165000915527344,-72.12100219726562 61.165000915527344,-72.12100219726562 C61.55500030517578,-74.9260025024414 61.77199935913086,-77.78600311279297 61.77199935913086,-80.697998046875 C61.77199935913086,-83.61000061035156 61.55500030517578,-86.47100067138672 61.165000915527344,-89.2760009765625 C61.165000915527344,-89.2760009765625 71.19400024414062,-95.06600189208984 71.19400024414062,-95.06600189208984 C76.25499725341797,-97.98799896240234 77.98899841308594,-104.45999908447266 75.06700134277344,-109.52100372314453 C75.06700134277344,-109.52100372314453 62.49399948120117,-131.2969970703125 62.49399948120117,-131.2969970703125 C59.571998596191406,-136.35800170898438 53.099998474121094,-138.0919952392578 48.03900146484375,-135.1699981689453 C48.03900146484375,-135.1699981689453 38.005001068115234,-129.3769989013672 38.005001068115234,-129.3769989013672 C33.51100158691406,-132.88999938964844 28.52199935913086,-135.7949981689453 23.15399932861328,-137.9669952392578 C23.15399932861328,-137.9669952392578 23.15399932861328,-149.53799438476562 23.15399932861328,-149.53799438476562 C23.15399932861328,-155.3820037841797 18.41699981689453,-160.11900329589844 12.572999954223633,-160.11900329589844 C12.572999954223633,-160.11900329589844 -12.572999954223633,-160.11900329589844 -12.572999954223633,-160.11900329589844 C-18.41699981689453,-160.11900329589844 -23.15399932861328,-155.3820037841797 -23.15399932861328,-149.53799438476562 C-23.15399932861328,-149.53799438476562 -23.15399932861328,-137.9669952392578 -23.15399932861328,-137.9669952392578 C-28.52199935913086,-135.7949981689453 -33.51100158691406,-132.89100646972656 -38.005001068115234,-129.3769989013672 C-38.005001068115234,-129.3769989013672 -48.040000915527344,-135.1699981689453 -48.040000915527344,-135.1699981689453 C-53.10100173950195,-138.0919952392578 -59.571998596191406,-136.35800170898438 -62.49399948120117,-131.2969970703125 C-62.49399948120117,-131.2969970703125 -75.06700134277344,-109.52100372314453 -75.06700134277344,-109.52100372314453 C-77.98899841308594,-104.45999908447266 -76.25499725341797,-97.98799896240234 -71.19400024414062,-95.06600189208984 C-71.19400024414062,-95.06600189208984 -61.165000915527344,-89.2760009765625 -61.165000915527344,-89.2760009765625 C-61.55500030517578,-86.47100067138672 -61.77199935913086,-83.61000061035156 -61.77199935913086,-80.697998046875 C-61.77199935913086,-77.78600311279297 -61.55500030517578,-74.9260025024414 -61.165000915527344,-72.12100219726562 C-61.165000915527344,-72.12100219726562 -71.19400024414062,-66.33100128173828 -71.19400024414062,-66.33100128173828 C-76.25499725341797,-63.409000396728516 -77.98899841308594,-56.9370002746582 -75.06700134277344,-51.875999450683594 C-75.06700134277344,-51.875999450683594 -62.49399948120117,-30.100000381469727 -62.49399948120117,-30.100000381469727 C-59.571998596191406,-25.038999557495117 -53.10100173950195,-23.30500030517578 -48.040000915527344,-26.226999282836914 C-48.040000915527344,-26.226999282836914 -38.005001068115234,-32.02000045776367 -38.005001068115234,-32.02000045776367 C-33.51100158691406,-28.506000518798828 -28.52199935913086,-25.60300064086914 -23.15399932861328,-23.43000030517578 C-23.15399932861328,-23.43000030517578 -23.15399932861328,-11.859000205993652 -23.15399932861328,-11.859000205993652 C-23.15399932861328,-6.014999866485596 -18.41699981689453,-1.277999997138977 -12.572999954223633,-1.277999997138977 C-12.572999954223633,-1.277999997138977 12.572999954223633,-1.277999997138977 12.572999954223633,-1.277999997138977 C18.41699981689453,-1.277999997138977 23.15399932861328,-6.014999866485596 23.15399932861328,-11.859000205993652 C23.15399932861328,-11.859000205993652 23.15399932861328,-23.43000030517578 23.15399932861328,-23.43000030517578 C28.52199935913086,-25.60300064086914 33.51100158691406,-28.506000518798828 38.005001068115234,-32.02000045776367 C38.005001068115234,-32.02000045776367 48.03900146484375,-26.226999282836914 48.03900146484375,-26.226999282836914 C53.099998474121094,-23.30500030517578 59.571998596191406,-25.038999557495117 62.49399948120117,-30.100000381469727 C62.49399948120117,-30.100000381469727 75.06700134277344,-51.875999450683594 75.06700134277344,-51.875999450683594 C77.98899841308594,-56.9370002746582 76.25499725341797,-63.409000396728516 71.19400024414062,-66.33100128173828z"/></g></g></g></g></svg>