<svg xmlns="http://www.w3.org/2000/svg" xmlns:xlink="http://www.w3.org/1999/xlink" viewBox="0 0 430 430" width="430" height="430" preserveAspectRatio="xMidYMid meet" style="width: 100%; height: 100%; transform: translate3d(0px, 0px, 0px); content-visibility: visible;"><defs><clipPath id="__lottie_element_863"><rect width="430" height="430" x="0" y="0"/></clipPath><clipPath id="__lottie_element_865"><path d="M0,0 L430,0 L430,430 L0,430z"/></clipPath></defs><g clip-path="url(#__lottie_element_863)"><g clip-path="url(#__lottie_element_865)" transform="matrix(1,0,0,1,0,0)" opacity="1" style="display: block;"><g transform="matrix(1,0,0,1,-35,-35)" opacity="1" style="display: block;"><g opacity="1" transform="matrix(1,0,0,1,0,0)"><path class="primary" fill="rgb(235,230,239)" fill-opacity="1" d=" M312,96 C312,96 187,139 187,139 C187,139 76,98 76,98 C76,98 76,362 76,362 C76,362 189,404 189,404 C189,404 311,362 311,362 C311,362 426,403 426,403 C426,403 426,135 426,135 C426,135 312,96 312,96z"/></g><g opacity="1" transform="matrix(1,0,0,1,0,0)"><g opacity="1" transform="matrix(1,0,0,1,0,0)"><g opacity="1" transform="matrix(1,0,0,1,129.7550048828125,250.5399932861328)"><path class="primary" fill="rgb(235,230,239)" fill-opacity="1" d=" M-55.04999923706055,119.38099670410156 C-55.04999923706055,119.38099670410156 58.244998931884766,157.9600067138672 58.244998931884766,157.9600067138672 C58.244998931884766,157.9600067138672 58.244998931884766,4.960000038146973 58.244998931884766,4.960000038146973 C58.244998931884766,4.960000038146973 58.244998931884766,-120.04000091552734 58.244998931884766,-120.04000091552734 C58.244998931884766,-120.04000091552734 -52.96099853515625,-157.7449951171875 -52.96099853515625,-157.7449951171875 C-55.55799865722656,-158.625 -58.25,-156.69200134277344 -58.244998931884766,-153.9499969482422 C-58.244998931884766,-153.9499969482422 -57.7599983215332,115.60199737548828 -57.7599983215332,115.60199737548828 C-57.75699996948242,117.31199645996094 -56.667999267578125,118.83000183105469 -55.04999923706055,119.38099670410156z"/></g><g opacity="1" transform="matrix(1,0,0,1,250,249.75)"><path class="primary" fill="rgb(235,230,239)" fill-opacity="1" d=" M-62,158.75 C-62,158.75 62,119.25 62,119.25 C62,119.25 62,-158.75 62,-158.75 C62,-158.75 -62,-119.25 -62,-119.25 C-62,-119.25 -62,158.75 -62,158.75z"/></g><g opacity="1" transform="matrix(1,0,0,1,370.4949951171875,249.20199584960938)"><path class="primary" fill="rgb(235,230,239)" fill-opacity="1" d=" M58.494998931884766,154.19200134277344 C58.494998931884766,154.19200134277344 58.0099983215332,-115.35199737548828 58.0099983215332,-115.35199737548828 C58.00699996948242,-117.05799865722656 56.922000885009766,-118.5739974975586 55.308998107910156,-119.12799835205078 C55.308998107910156,-119.12799835205078 -58.494998931884766,-158.20199584960938 -58.494998931884766,-158.20199584960938 C-58.494998931884766,-158.20199584960938 -58.494998931884766,119.7979965209961 -58.494998931884766,119.7979965209961 C-58.494998931884766,119.7979965209961 53.20100021362305,157.98399353027344 53.20100021362305,157.98399353027344 C55.79999923706055,158.8719940185547 58.5,156.93800354003906 58.494998931884766,154.19200134277344z"/></g></g><g opacity="0.5" transform="matrix(1,0,0,1,129.7550048828125,250.5399932861328)" style="mix-blend-mode: multiply;"><path class="primary" fill="rgb(235,230,239)" fill-opacity="1" d=" M-55.04999923706055,119.38099670410156 C-55.04999923706055,119.38099670410156 58.244998931884766,157.9600067138672 58.244998931884766,157.9600067138672 C58.244998931884766,157.9600067138672 58.244998931884766,-120.04000091552734 58.244998931884766,-120.04000091552734 C58.244998931884766,-120.04000091552734 -52.96099853515625,-157.7449951171875 -52.96099853515625,-157.7449951171875 C-55.55799865722656,-158.625 -58.25,-156.69200134277344 -58.244998931884766,-153.9499969482422 C-58.244998931884766,-153.9499969482422 -57.7599983215332,115.60199737548828 -57.7599983215332,115.60199737548828 C-57.75699996948242,117.31199645996094 -56.667999267578125,118.83000183105469 -55.04999923706055,119.38099670410156z"/></g><g opacity="0.5" transform="matrix(1,0,0,1,370.4949951171875,249.20199584960938)" style="mix-blend-mode: multiply;"><path class="primary" fill="rgb(235,230,239)" fill-opacity="1" d=" M58.494998931884766,154.19200134277344 C58.494998931884766,154.19200134277344 58.0099983215332,-115.35199737548828 58.0099983215332,-115.35199737548828 C58.00699996948242,-117.05799865722656 56.922000885009766,-118.5739974975586 55.308998107910156,-119.12799835205078 C55.308998107910156,-119.12799835205078 -58.494998931884766,-158.20199584960938 -58.494998931884766,-158.20199584960938 C-58.494998931884766,-158.20199584960938 -58.494998931884766,119.7979965209961 -58.494998931884766,119.7979965209961 C-58.494998931884766,119.7979965209961 53.20100021362305,157.98399353027344 53.20100021362305,157.98399353027344 C55.79999923706055,158.8719940185547 58.5,156.93800354003906 58.494998931884766,154.19200134277344z"/></g></g><g opacity="1" transform="matrix(1,0,0,1,0,0)"><g opacity="1" transform="matrix(1,0,0,1,293.364990234375,250)"><path class="quaternary" fill="rgb(44,165,141)" fill-opacity="1" d=" M-105.37000274658203,126.91999816894531 C-105.37000274658203,126.91999816894531 -105.37000274658203,-87.44999694824219 -105.37000274658203,-87.44999694824219 C-105.37000274658203,-87.44999694824219 18.6299991607666,-126.93000030517578 18.6299991607666,-126.93000030517578 C18.6299991607666,-126.93000030517578 102.6709976196289,-98.01799774169922 102.6709976196289,-98.01799774169922 C104.28600311279297,-97.46299743652344 105.37000274658203,-95.94400024414062 105.37000274658203,-94.23600006103516 C105.37000274658203,-94.23600006103516 105.37000274658203,111.27300262451172 105.37000274658203,111.27300262451172 C105.37000274658203,114.00199890136719 102.6969985961914,115.93000030517578 100.10700225830078,115.06800079345703 C100.10700225830078,115.06800079345703 18.6299991607666,87.94999694824219 18.6299991607666,87.94999694824219 C18.6299991607666,87.94999694824219 -105.37000274658203,126.93000030517578 -105.37000274658203,126.93000030517578"/></g><g opacity="0.5" transform="matrix(1,0,0,1,355.36700439453125,244.17799377441406)" style="mix-blend-mode: multiply;"><path class="quaternary" fill="rgb(44,165,141)" fill-opacity="1" d=" M-43.36800003051758,93.76699829101562 C-43.36800003051758,93.76699829101562 38.104000091552734,120.8949966430664 38.104000091552734,120.8949966430664 C40.694000244140625,121.75700378417969 43.367000579833984,119.83000183105469 43.367000579833984,117.0999984741211 C43.367000579833984,117.0999984741211 43.36800003051758,-88.41799926757812 43.36800003051758,-88.41799926757812 C43.36800003051758,-90.1259994506836 42.28300094604492,-91.64600372314453 40.667999267578125,-92.20099639892578 C40.667999267578125,-92.20099639892578 -43.36800003051758,-121.10299682617188 -43.36800003051758,-121.10299682617188 C-43.36800003051758,-121.10299682617188 -43.36800003051758,-1.6779999732971191 -43.36800003051758,-1.6779999732971191 C-43.36800003051758,-1.6779999732971191 -43.36800003051758,93.76699829101562 -43.36800003051758,93.76699829101562z"/></g><g opacity="1" transform="matrix(1,0,0,1,144.8800048828125,255.91799926757812)"><path class="tertiary" fill="rgb(75,179,253)" fill-opacity="1" d=" M43.1150016784668,-93.36799621582031 C43.1150016784668,-93.36799621582031 43.1150016784668,121.00199890136719 43.1150016784668,121.00199890136719 C43.1150016784668,121.00199890136719 -40.39099884033203,92.88899993896484 -40.39099884033203,92.88899993896484 C-42.01900100708008,92.34100341796875 -43.1150016784668,90.81500244140625 -43.1150016784668,89.0979995727539 C-43.1150016784668,89.0979995727539 -43.1150016784668,-116.9990005493164 -43.1150016784668,-116.9990005493164 C-43.1150016784668,-119.73699951171875 -40.42599868774414,-121.66699981689453 -37.832000732421875,-120.78800201416016 C-37.832000732421875,-120.78800201416016 43.1150016784668,-93.36799621582031 43.1150016784668,-93.36799621582031z"/></g></g><g opacity="1" transform="matrix(1,0,0,1,250,250)"><path class="tertiary" fill="rgb(75,179,253)" fill-opacity="1" d=" M-62,126.92500305175781 C-14.241999626159668,111.74400329589844 16.990999221801758,46.84400177001953 -3.4010000228881836,-8.225000381469727 C-25.534000396728516,-67.99700164794922 62,-126.92500305175781 62,-126.92500305175781 C62,-126.92500305175781 -62,-87.44499969482422 -62,-87.44499969482422 C-62,-87.44499969482422 -62,126.92500305175781 -62,126.92500305175781z"/></g><g opacity="0.5" transform="matrix(1,0,0,1,144.88299560546875,255.91799926757812)" style="mix-blend-mode: multiply;"><path class="tertiary" fill="rgb(75,179,253)" fill-opacity="1" d=" M43.117000579833984,121.00299835205078 C43.117000579833984,121.00299835205078 -40.39400100708008,92.88899993896484 -40.39400100708008,92.88899993896484 C-42.02199935913086,92.34100341796875 -43.117000579833984,90.81500244140625 -43.117000579833984,89.0979995727539 C-43.117000579833984,89.0979995727539 -43.117000579833984,-116.9990005493164 -43.117000579833984,-116.9990005493164 C-43.117000579833984,-119.73699951171875 -40.428001403808594,-121.66699981689453 -37.83399963378906,-120.78800201416016 C-37.83399963378906,-120.78800201416016 43.117000579833984,-93.36799621582031 43.117000579833984,-93.36799621582031 C43.117000579833984,-93.36799621582031 43.117000579833984,121.00299835205078 43.117000579833984,121.00299835205078z"/></g></g><g transform="matrix(1,0,0,1,215,215)" opacity="1" style="display: block;"><g opacity="1" transform="matrix(1,0,0,1,0,0)"><path stroke-linecap="round" stroke-linejoin="round" fill-opacity="0" class="primary" stroke-dasharray=" 33 28" stroke-dashoffset="0" stroke="rgb(235,230,239)" stroke-opacity="1" stroke-width="7" d=" M-124,-85 C-121.6449966430664,21.58300018310547 -92.51699829101562,54.96699905395508 -60.85599899291992,56.37300109863281 C-38.75,57.354000091552734 -14,45 1,-2 C13.354999542236328,-40.71200180053711 35,-54 64.08799743652344,-51.41400146484375 C104.43000030517578,-47.82699966430664 127.9990005493164,-24.27400016784668 126,73"/></g><g opacity="1" transform="matrix(1,0,0,1,-126,-85)"><path class="quinary" fill="rgb(255,199,56)" fill-opacity="1" d=" M0,-13 C-7.179999828338623,-13 -13,-11.180000305175781 -13,-4 C-13,3.180000066757202 -7.179999828338623,13 0,13 C7.179999828338623,13 13,10.180000305175781 13,3 C13,-4.179999828338623 7.179999828338623,-13 0,-13z M252,149 C244.82000732421875,149 239,151.57000732421875 239,158.75 C239,165.92999267578125 244.82000732421875,175 252,175 C259.17999267578125,175 265,172.42999267578125 265,165.25 C265,158.07000732421875 259.17999267578125,149 252,149z"/></g></g><g transform="matrix(1,0,0,1,216.5,215)" opacity="1" style="display: block;"><g opacity="1" transform="matrix(1,0,0,1,-115.5,-2.5)"><path stroke-linecap="round" stroke-linejoin="round" fill-opacity="0" class="secondary" stroke="rgb(18,19,49)" stroke-opacity="1" stroke-width="7" d=" M52.5,-117 C52.5,-117 -64.5,-156 -64.5,-156 C-64.5,-156 -64,122 -64,122 C-64,122 53,161 53,161 C53,161 52.5,-117 52.5,-117z"/></g><g opacity="1" transform="matrix(1,0,0,1,-115.5,-2.5)"><path stroke-linecap="round" stroke-linejoin="round" fill-opacity="0" class="secondary" stroke="rgb(18,19,49)" stroke-opacity="1" stroke-width="7" d=" M293,-116.5 C293,-116.5 176.5,-156.531005859375 176.5,-156.531005859375 C176.5,-156.531005859375 177,121.51599884033203 177,121.51599884033203 C177,121.51599884033203 293.5,161.5 293.5,161.5 C293.5,161.5 293,-116.5 293,-116.5z"/></g><g opacity="1" transform="matrix(1,0,0,1,-115.5,-2.5)"><path stroke-linecap="round" stroke-linejoin="round" fill-opacity="0" class="secondary" stroke="rgb(18,19,49)" stroke-opacity="1" stroke-width="7" d=" M52.5,-117 C52.5,-117 176.5,-156.5 176.5,-156.5 C176.5,-156.5 177,121.5 177,121.5 C177,121.5 53,161 53,161 C53,161 52.5,-117 52.5,-117z"/></g></g></g></g></svg>