<svg xmlns="http://www.w3.org/2000/svg" xmlns:xlink="http://www.w3.org/1999/xlink" viewBox="0 0 430 430" width="430" height="430" preserveAspectRatio="xMidYMid meet" style="width: 100%; height: 100%; transform: translate3d(0px, 0px, 0px); content-visibility: visible;"><defs><clipPath id="__lottie_element_1541"><rect width="430" height="430" x="0" y="0"/></clipPath><clipPath id="__lottie_element_1543"><path d="M0,0 L430,0 L430,430 L0,430z"/></clipPath><g id="__lottie_element_1556"><g transform="matrix(1,0,0,1,215,215)" opacity="1" style="display: block;"><g opacity="1" transform="matrix(1,0,0,1,0,0)"><path fill="rgb(235,230,239)" fill-opacity="1" d=" M0,-175 C96.5824966430664,-175 175,-96.5824966430664 175,0 C175,96.5824966430664 96.5824966430664,175 0,175 C-96.5824966430664,175 -175,96.5824966430664 -175,0 C-175,-96.5824966430664 -96.5824966430664,-175 0,-175z"/></g></g></g><g id="__lottie_element_1574"><g transform="matrix(1,0,0,1,215,215)" opacity="1" style="display: block;"><g opacity="1" transform="matrix(1,0,0,1,0,0)"><path fill="rgb(242,76,0)" fill-opacity="1" d=" M0,0 C16.569000244140625,0 30,-13.430999755859375 30,-30 C30,-46.569000244140625 16.569000244140625,-60 0,-60 C-16.569000244140625,-60 -30,-46.569000244140625 -30,-30 C-30,-13.430999755859375 -16.569000244140625,0 0,0z M0,95 C-35.89899826049805,45 -65,5.89900016784668 -65,-30 C-65,-65.89900207519531 -35.89899826049805,-95 0,-95 C35.89899826049805,-95 65,-65.89900207519531 65,-30 C65,5.89900016784668 35.89899826049805,45 0,95z"/></g></g></g><mask id="__lottie_element_1574_1" mask-type="alpha"><use xmlns:ns1="http://www.w3.org/1999/xlink" ns1:href="#__lottie_element_1574"/></mask><mask id="__lottie_element_1556_1" mask-type="alpha"><use xmlns:ns2="http://www.w3.org/1999/xlink" ns2:href="#__lottie_element_1556"/></mask></defs><g clip-path="url(#__lottie_element_1541)"><g clip-path="url(#__lottie_element_1543)" transform="matrix(1,0,0,1,0,0)" opacity="1" style="display: block;"><g transform="matrix(1,0,0,1,215,215)" opacity="1" style="display: block;"><g opacity="1" transform="matrix(1,0,0,1,0,0)"><path class="secondary" fill="rgb(235,230,239)" fill-opacity="1" d=" M0,-175 C96.5824966430664,-175 175,-96.5824966430664 175,0 C175,96.5824966430664 96.5824966430664,175 0,175 C-96.5824966430664,175 -175,96.5824966430664 -175,0 C-175,-96.5824966430664 -96.5824966430664,-175 0,-175z"/></g></g><g transform="matrix(1,0,0,1,158.13800048828125,214.32899475097656)" opacity="0.5" style="mix-blend-mode: multiply; display: block;"><g opacity="1" transform="matrix(1,0,0,1,0,0)"><path class="secondary" fill="rgb(235,230,239)" fill-opacity="1" d=" M102.36199951171875,164.67100524902344 C107.50900268554688,164.67100524902344 112.60399627685547,164.44900512695312 117.63800048828125,164.01400756835938 C98.84600067138672,170.9080047607422 78.54399871826172,174.67100524902344 57.36199951171875,174.67100524902344 C-39.28799819946289,174.67100524902344 -117.63800048828125,96.32099914550781 -117.63800048828125,-0.32899999618530273 C-117.63800048828125,-91.83200073242188 -47.40999984741211,-166.9320068359375 42.08599853515625,-174.67100524902344 C-24.867000579833984,-150.10699462890625 -72.63800048828125,-85.7969970703125 -72.63800048828125,-10.329000473022461 C-72.63800048828125,86.32099914550781 5.711999893188477,164.67100524902344 102.36199951171875,164.67100524902344z"/></g></g><g mask="url(#__lottie_element_1556_1)" style="display: block;"><g transform="matrix(1,0,0,1,207.60299682617188,206.3780059814453)" opacity="1"><g opacity="1" transform="matrix(1,0,0,1,0,0)"><path class="quaternary" fill="rgb(44,165,141)" fill-opacity="1" d=" M-7.388999938964844,194.8780059814453 C-7.388999938964844,194.8780059814453 193.10299682617188,-5.613999843597412 193.10299682617188,-5.613999843597412 C193.10299682617188,-5.613999843597412 193.10299682617188,99.12200164794922 193.10299682617188,99.12200164794922 C193.10299682617188,99.12200164794922 130.89700317382812,185.1219940185547 130.89700317382812,185.1219940185547 C130.89700317382812,185.1219940185547 -7.388999938964844,194.8780059814453 -7.388999938964844,194.8780059814453z M-17.31599998474121,68.89600372314453 C-17.31599998474121,68.89600372314453 -104.08999633789062,155.6699981689453 -104.08999633789062,155.6699981689453 C-104.08999633789062,155.6699981689453 -168.60299682617188,112.12200164794922 -168.60299682617188,112.12200164794922 C-168.60299682617188,112.12200164794922 -193.10299682617188,-20.81399917602539 -193.10299682617188,-20.81399917602539 C-193.10299682617188,-20.81399917602539 -143.10299682617188,-103.87799835205078 -143.10299682617188,-103.87799835205078 C-143.10299682617188,-103.87799835205078 6.461999893188477,44.840999603271484 6.461999893188477,44.840999603271484 C6.461999893188477,44.840999603271484 -17.31599998474121,68.89600372314453 -17.31599998474121,68.89600372314453z M72.39399719238281,-20.81399917602539 C72.39399719238281,-20.81399917602539 159.37100219726562,-107.79000091552734 159.37100219726562,-107.79000091552734 C159.37100219726562,-107.79000091552734 169.89700317382812,-194.8780059814453 169.89700317382812,-194.8780059814453 C169.89700317382812,-194.8780059814453 -93.10299682617188,-188.3780059814453 -93.10299682617188,-188.3780059814453 C-93.10299682617188,-188.3780059814453 -98.2030029296875,-144.0780029296875 -98.2030029296875,-144.0780029296875 C-98.2030029296875,-144.0780029296875 48.974998474121094,2.947000026702881 48.974998474121094,2.947000026702881 C48.974998474121094,2.947000026702881 72.39399719238281,-20.81399917602539 72.39399719238281,-20.81399917602539z"/></g></g></g><g transform="matrix(1,0,0,1,157.63800048828125,215.32899475097656)" opacity="0.5" style="mix-blend-mode: multiply; display: block;"><g opacity="1" transform="matrix(1,0,0,1,0,0)"><path class="quaternary" fill="rgb(44,165,141)" fill-opacity="1" d=" M-25.284000396728516,-130.04299926757812 C-25.284000396728516,-130.04299926757812 -40.5890007019043,-145.36900329589844 -40.5890007019043,-145.36900329589844 C-16.601999282836914,-161.60000610351562 11.62600040435791,-172.03700256347656 42.08599853515625,-174.67100524902344 C16.215999603271484,-165.17999267578125 -6.790999889373779,-149.75399780273438 -25.284000396728516,-130.04299926757812z M-47.32400131225586,139.91900634765625 C-47.32400131225586,139.91900634765625 -21.10099983215332,113.69499969482422 -21.10099983215332,113.69499969482422 C-52.935001373291016,82.00399780273438 -72.63800048828125,38.138999938964844 -72.63800048828125,-10.329000473022461 C-72.63800048828125,-34.5369987487793 -67.7229995727539,-57.59700012207031 -58.83599853515625,-78.56500244140625 C-58.83599853515625,-78.56500244140625 -83.91899871826172,-103.62000274658203 -83.91899871826172,-103.62000274658203 C-105.12000274658203,-74.66999816894531 -117.63800048828125,-38.96099853515625 -117.63800048828125,-0.32899999618530273 C-117.63800048828125,57.064998626708984 -90.00800323486328,108.00700378417969 -47.32400131225586,139.91900634765625z M102.36199951171875,164.67100524902344 C90.36699676513672,164.67100524902344 78.65399932861328,163.46499633789062 67.33799743652344,161.16600036621094 C67.33799743652344,161.16600036621094 53.867000579833984,174.63699340820312 53.867000579833984,174.63699340820312 C55.02899932861328,174.66000366210938 56.194000244140625,174.67100524902344 57.36199951171875,174.67100524902344 C78.54399871826172,174.67100524902344 98.84600067138672,170.9080047607422 117.63800048828125,164.01400756835938 C112.60399627685547,164.44900512695312 107.50900268554688,164.67100524902344 102.36199951171875,164.67100524902344z"/></g></g><g transform="matrix(1,0,0,1,0,0)" opacity="1" style="display: block;"><g opacity="1" transform="matrix(1,0,0,1,215.73699951171875,212.1739959716797)"><g opacity="1" transform="matrix(1,0,0,1,0,0)"><path stroke-linecap="round" stroke-linejoin="round" fill-opacity="0" class="primary" stroke="rgb(18,19,49)" stroke-opacity="1" stroke-width="7" d=" M-2.1549999713897705,39.27899932861328 C-2.1549999713897705,39.27899932861328 -70.39099884033203,-28.923999786376953 -70.39099884033203,-28.923999786376953 C-70.39099884033203,-28.923999786376953 -140.98699951171875,-99.42400360107422 -140.98699951171875,-99.42400360107422 M39.8120002746582,-3.569000005722046 C39.8120002746582,-3.569000005722046 -97.53600311279297,-141.1739959716797 -97.53600311279297,-141.1739959716797 M-1.937999963760376,39.73899841308594 C-1.937999963760376,39.73899841308594 -104.94300079345703,142.65499877929688 -104.94300079345703,142.65499877929688 M40.400001525878906,-3.0989999771118164 C40.400001525878906,-3.0989999771118164 139.51800537109375,-101.80599975585938 139.51800537109375,-101.80599975585938"/></g></g><g opacity="1" transform="matrix(1,0,0,1,300.46099853515625,301.010009765625)"><g opacity="1" transform="matrix(1,0,0,1,0,0)"><path stroke-linecap="round" stroke-linejoin="round" fill-opacity="0" class="primary" stroke="rgb(18,19,49)" stroke-opacity="1" stroke-width="7" d=" M88.73100280761719,-88.76100158691406 C88.73100280761719,-88.76100158691406 -87.51100158691406,87.48100280761719 -87.51100158691406,87.48100280761719"/></g></g></g><g transform="matrix(1,0,0,1,215,215)" opacity="1" style="display: block;"><g opacity="1" transform="matrix(1,0,0,1,0,0)"><path stroke-linecap="round" stroke-linejoin="round" fill-opacity="0" class="primary" stroke-dasharray=" 46 46" stroke-dashoffset="117" stroke="rgb(18,19,49)" stroke-opacity="1" stroke-width="7" d=" M0,175 C96.6500015258789,175 175,96.6500015258789 175,0 C175,-96.6500015258789 96.6500015258789,-175 0,-175 C-96.6500015258789,-175 -175,-96.6500015258789 -175,0 C-175,96.6500015258789 -96.6500015258789,175 0,175z"/></g></g><g transform="matrix(1,0,0,1,215,215)" opacity="1" style="display: block;"><g opacity="1" transform="matrix(1,0,0,1,0,0)"><path class="tertiary" fill="rgb(242,76,0)" fill-opacity="1" d=" M0,95 C-35.89899826049805,45 -65,5.89900016784668 -65,-30 C-65,-65.89900207519531 -35.89899826049805,-95 0,-95 C35.89899826049805,-95 65,-65.89900207519531 65,-30 C65,5.89900016784668 35.89899826049805,45 0,95z"/></g><g opacity="1" transform="matrix(1,0,0,1,0,0)"><path class="secondary" fill="rgb(235,230,239)" fill-opacity="1" d=" M0,0 C16.569000244140625,0 30,-13.430999755859375 30,-30 C30,-46.569000244140625 16.569000244140625,-60 0,-60 C-16.569000244140625,-60 -30,-46.569000244140625 -30,-30 C-30,-13.430999755859375 -16.569000244140625,0 0,0z"/></g></g><g mask="url(#__lottie_element_1574_1)" style="mix-blend-mode: multiply; display: block;"><g transform="matrix(1,0,0,1,184.49000549316406,213.92800903320312)" opacity="0.5"><g opacity="1" transform="matrix(1,0,0,1,0,0)"><path class="tertiary" fill="rgb(242,76,0)" fill-opacity="1" d=" M30.510000228881836,129.32200622558594 C28.54599952697754,129.32200622558594 26.58099937438965,128.75100708007812 25.302000045776367,127.6050033569336 C24.197999954223633,126.61599731445312 23.097000122070312,125.62999725341797 22,124.64700317382812 C-50.80400085449219,59.43000030517578 -108.48999786376953,7.756999969482422 -108.48999786376953,-39.82899856567383 C-108.48999786376953,-89.25499725341797 -46.257999420166016,-226.82200622558594 30.510000228881836,-226.82200622558594 C30.510000228881836,-226.82200622558594 30.510000228881836,129.32200622558594 30.510000228881836,129.32200622558594z"/></g></g></g><g transform="matrix(1,0,0,1,215,215)" opacity="1" style="display: block;"><g opacity="1" transform="matrix(1,0,0,1,0,0)"><path stroke-linecap="butt" stroke-linejoin="round" fill-opacity="0" class="primary" stroke="rgb(18,19,49)" stroke-opacity="1" stroke-width="7" d=" M0,0 C16.569000244140625,0 30,-13.430999755859375 30,-30 C30,-46.569000244140625 16.569000244140625,-60 0,-60 C-16.569000244140625,-60 -30,-46.569000244140625 -30,-30 C-30,-13.430999755859375 -16.569000244140625,0 0,0z M0,95 C35.89899826049805,45 65,5.89900016784668 65,-30 C65,-65.89900207519531 35.89899826049805,-95 0,-95 C-35.89899826049805,-95 -65,-65.89900207519531 -65,-30 C-65,5.89900016784668 -35.89899826049805,45 0,95z"/></g></g></g></g></svg>