<svg xmlns="http://www.w3.org/2000/svg" xmlns:xlink="http://www.w3.org/1999/xlink" viewBox="0 0 430 430" width="430" height="430" preserveAspectRatio="xMidYMid meet" style="width: 100%; height: 100%; transform: translate3d(0px, 0px, 0px); content-visibility: visible;"><defs><clipPath id="__lottie_element_590"><rect width="430" height="430" x="0" y="0"/></clipPath><clipPath id="__lottie_element_592"><path d="M0,0 L430,0 L430,430 L0,430z"/></clipPath><clipPath id="__lottie_element_603"><path d="M0,0 L430,0 L430,430 L0,430z"/></clipPath><g id="__lottie_element_606"><g transform="matrix(1,0,0,1,0,0)" opacity="1" style="display: block;"><g opacity="1" transform="matrix(1,0,0,1,215,200.5)"><g opacity="1" transform="matrix(1,0,0,1,0,0)"><path fill="rgb(249,201,192)" fill-opacity="1" d=" M50,-82 C50,-83.65699768066406 51.34299850463867,-85 53,-85 C53,-85 125,-85 125,-85 C133.28399658203125,-85 140,-78.28399658203125 140,-70 C140,-70 140,82 140,82 C140,83.65699768066406 138.65699768066406,85 137,85 C137,85 -137,85 -137,85 C-138.65699768066406,85 -140,83.65699768066406 -140,82 C-140,82 -140,-70 -140,-70 C-140,-78.28399658203125 -133.28399658203125,-85 -125,-85 C-125,-85 -53,-85 -53,-85 C-51.34299850463867,-85 -50,-83.65699768066406 -50,-82 C-50,-82 -50,-80.5 -50,-80.5 C-50,-74.97699737548828 -45.52299880981445,-70.5 -40,-70.5 C-40,-70.5 40,-70.5 40,-70.5 C45.52299880981445,-70.5 50,-74.97699737548828 50,-80.5 C50,-80.5 50,-82 50,-82z"/></g></g></g></g><clipPath id="__lottie_element_613"><path fill="#ffffff" clip-rule="nonzero" d=" M-7.5,-84.75 C-51.68299865722656,-84.75 -87.5,-48.93299865722656 -87.5,-4.75 C-87.5,39.43299865722656 -51.68299865722656,75.25 -7.5,75.25 C36.68299865722656,75.25 72.5,39.43299865722656 72.5,-4.75 C72.5,-48.93299865722656 36.68299865722656,-84.75 -7.5,-84.75" fill-opacity="1"/></clipPath><g id="__lottie_element_618"><g clip-path="url(#__lottie_element_619)" transform="matrix(1,0,0,1,222.5,120.25)" opacity="1" style="display: block;"><path class="quinary" fill="rgb(8,168,138)" fill-opacity="1" d=" M42.3,83.75 C42.3,83.75 52.8,40.75 52.8,40.75 C52.8,40.75 18.8,17.75 18.8,17.75 C18.8,17.75 -12.2,40.75 -12.2,40.75 C-12.2,40.75 25.8,95.25 25.8,95.25 C25.8,95.25 42.3,83.75 42.3,83.75z M-2.7,-95.25 C-2.7,-95.25 -2.7,-60.25 -2.7,-60.25 C-2.7,-60.25 24.3,-44.75 24.3,-44.75 C24.3,-44.75 24.3,-18.25 24.3,-18.25 C24.3,-18.25 -19.7,-23.25 -19.7,-23.25 C-19.7,-23.25 -19.7,8.25 -19.7,8.25 C-19.7,8.25 -53.2,-6.75 -53.2,-6.75 C-53.2,-6.75 -53.2,-35.25 -53.2,-35.25 C-53.2,-35.25 -36.7,-92.75 -36.7,-92.75 C-36.7,-92.75 -2.7,-95.25 -2.7,-95.25z M145.3,-87.25 C145.3,-87.25 175.3,-79.25 175.3,-79.25 C175.3,-79.25 247.92,-60.21 247.92,-60.21 C247.92,-60.21 312.23,-78.22 312.23,-78.22 C312.23,-78.22 323.17,-22.39 323.17,-22.39 C323.17,-22.39 285.81,28.11 285.81,28.11 C285.81,28.11 260.51,6.26 260.51,6.26 C260.51,6.26 233.08,44.48 233.08,44.48 C233.08,44.48 217.3,8.25 217.3,8.25 C217.3,8.25 181.3,-2.25 181.3,-2.25 C181.3,-2.25 133.69,-30.53 133.69,-30.53 C133.69,-30.53 102.55,-18.03 102.55,-18.03 C102.55,-18.03 115.4,-43.47 115.4,-43.47 C115.4,-43.47 120.3,-76.75 120.3,-76.75 C120.3,-76.75 145.3,-87.25 145.3,-87.25z M135.8,-1.75 C135.8,-1.75 165.3,17.75 165.3,17.75 C165.3,17.75 186.8,21.25 186.8,21.25 C186.8,21.25 154.3,99.75 154.3,99.75 C154.3,99.75 132.69,47.47 132.69,47.47 C132.69,47.47 108.9,37.53 108.9,37.53 C108.9,37.53 105.3,5.25 105.3,5.25 C105.3,5.25 135.8,-1.75 135.8,-1.75z M311.74,84.41 C311.74,84.41 284.87,99.97 284.87,99.97 C284.87,99.97 254.11,80.52 254.11,80.52 C254.11,80.52 284.99,62.31 284.99,62.31 C284.99,62.31 311.74,84.41 311.74,84.41z M-387.7,83.75 C-387.7,83.75 -377.2,40.75 -377.2,40.75 C-377.2,40.75 -411.2,17.75 -411.2,17.75 C-411.2,17.75 -442.2,40.75 -442.2,40.75 C-442.2,40.75 -404.2,95.25 -404.2,95.25 C-404.2,95.25 -387.7,83.75 -387.7,83.75z M-432.7,-95.25 C-432.7,-95.25 -432.7,-60.25 -432.7,-60.25 C-432.7,-60.25 -405.7,-44.75 -405.7,-44.75 C-405.7,-44.75 -405.7,-18.25 -405.7,-18.25 C-405.7,-18.25 -449.7,-23.25 -449.7,-23.25 C-449.7,-23.25 -449.7,8.25 -449.7,8.25 C-449.7,8.25 -483.2,-6.75 -483.2,-6.75 C-483.2,-6.75 -483.2,-35.25 -483.2,-35.25 C-483.2,-35.25 -466.7,-92.75 -466.7,-92.75 C-466.7,-92.75 -432.7,-95.25 -432.7,-95.25z M-284.7,-87.25 C-284.7,-87.25 -254.7,-79.25 -254.7,-79.25 C-254.7,-79.25 -182.08,-60.21 -182.08,-60.21 C-182.08,-60.21 -117.77,-78.22 -117.77,-78.22 C-117.77,-78.22 -106.83,-22.39 -106.83,-22.39 C-106.83,-22.39 -144.19,28.11 -144.19,28.11 C-144.19,28.11 -169.49,6.26 -169.49,6.26 C-169.49,6.26 -196.92,44.48 -196.92,44.48 C-196.92,44.48 -212.7,8.25 -212.7,8.25 C-212.7,8.25 -248.7,-2.25 -248.7,-2.25 C-248.7,-2.25 -296.31,-30.53 -296.31,-30.53 C-296.31,-30.53 -327.45,-18.03 -327.45,-18.03 C-327.45,-18.03 -314.6,-43.47 -314.6,-43.47 C-314.6,-43.47 -309.7,-76.75 -309.7,-76.75 C-309.7,-76.75 -284.7,-87.25 -284.7,-87.25z M-294.2,-1.75 C-294.2,-1.75 -264.7,17.75 -264.7,17.75 C-264.7,17.75 -243.2,21.25 -243.2,21.25 C-243.2,21.25 -275.7,99.75 -275.7,99.75 C-275.7,99.75 -297.31,47.47 -297.31,47.47 C-297.31,47.47 -321.1,37.53 -321.1,37.53 C-321.1,37.53 -324.7,5.25 -324.7,5.25 C-324.7,5.25 -294.2,-1.75 -294.2,-1.75z M-118.26,84.41 C-118.26,84.41 -145.13,99.97 -145.13,99.97 C-145.13,99.97 -175.89,80.52 -175.89,80.52 C-175.89,80.52 -145.01,62.31 -145.01,62.31 C-145.01,62.31 -118.26,84.41 -118.26,84.41z"/><g opacity="1" transform="matrix(1,0,0,1,0,0)"><g opacity="1" transform="matrix(1,0,0,1,-0.2029999941587448,0)"/><g opacity="1" transform="matrix(1,0,0,1,-430.2030029296875,0)"/></g></g></g><clipPath id="__lottie_element_619"><path fill="#ffffff" clip-rule="nonzero" d=" M-7.5,-84.75 C-51.68299865722656,-84.75 -87.5,-48.93299865722656 -87.5,-4.75 C-87.5,39.43299865722656 -51.68299865722656,75.25 -7.5,75.25 C36.68299865722656,75.25 72.5,39.43299865722656 72.5,-4.75 C72.5,-48.93299865722656 36.68299865722656,-84.75 -7.5,-84.75" fill-opacity="1"/></clipPath><clipPath id="__lottie_element_631"><path fill="#ffffff" clip-rule="nonzero" d=" M-7.5,-84.75 C-51.68299865722656,-84.75 -87.5,-48.93299865722656 -87.5,-4.75 C-87.5,39.43299865722656 -51.68299865722656,75.25 -7.5,75.25 C36.68299865722656,75.25 72.5,39.43299865722656 72.5,-4.75 C72.5,-48.93299865722656 36.68299865722656,-84.75 -7.5,-84.75" fill-opacity="1"/></clipPath><mask id="__lottie_element_618_1" mask-type="alpha"><use xmlns:ns1="http://www.w3.org/1999/xlink" ns1:href="#__lottie_element_618"/></mask><mask id="__lottie_element_606_1" mask-type="alpha"><use xmlns:ns2="http://www.w3.org/1999/xlink" ns2:href="#__lottie_element_606"/></mask></defs><g clip-path="url(#__lottie_element_590)"><g clip-path="url(#__lottie_element_592)" transform="matrix(1,0,0,1,0,0)" opacity="1" style="display: block;"><g transform="matrix(1,0,0,1,0,0)" opacity="1" style="display: block;"><g opacity="1" transform="matrix(1,0,0,1,215,215)"><g opacity="1" transform="matrix(1,0,0,1,0,0)"><path class="senary" fill="rgb(58,51,71)" fill-opacity="1" d=" M135,-115 C135,-115 -135,-115 -135,-115 C-146.04600524902344,-115 -155,-106.0459976196289 -155,-95 C-155,-95 -155,95 -155,95 C-155,95 -65,95 -65,95 C-65,95 -65,115 -65,115 C-65,115 60,115 60,115 C60,115 60,95 60,95 C60,95 155,95 155,95 C155,95 155,-95 155,-95 C155,-106.0459976196289 146.04600524902344,-115 135,-115z"/></g></g><g opacity="1" transform="matrix(1,0,0,1,215,200.5)"><g opacity="1" transform="matrix(1,0,0,1,0,0)"><path class="secondary" fill="rgb(249,201,192)" fill-opacity="1" d=" M50,-82 C50,-83.65699768066406 51.34299850463867,-85 53,-85 C53,-85 125,-85 125,-85 C133.28399658203125,-85 140,-78.28399658203125 140,-70 C140,-70 140,82 140,82 C140,83.65699768066406 138.65699768066406,85 137,85 C137,85 -137,85 -137,85 C-138.65699768066406,85 -140,83.65699768066406 -140,82 C-140,82 -140,-70 -140,-70 C-140,-78.28399658203125 -133.28399658203125,-85 -125,-85 C-125,-85 -53,-85 -53,-85 C-51.34299850463867,-85 -50,-83.65699768066406 -50,-82 C-50,-82 -50,-80.5 -50,-80.5 C-50,-74.97699737548828 -45.52299880981445,-70.5 -40,-70.5 C-40,-70.5 40,-70.5 40,-70.5 C45.52299880981445,-70.5 50,-74.97699737548828 50,-80.5 C50,-80.5 50,-82 50,-82z"/></g></g></g><g transform="matrix(1,0,0,1,0,1)" opacity="1" style="display: block;"><g opacity="1" transform="matrix(1,0,0,1,215,332.5)"><g opacity="1" transform="matrix(1,0,0,1,0,0)"><path class="quaternary" fill="rgb(235,230,239)" fill-opacity="1" d=" M-58,-27.5 C-56.34299850463867,-27.5 -55,-26.156999588012695 -55,-24.5 C-55,-24.5 -55,-17.5 -55,-17.5 C-55,-11.97700023651123 -50.52299880981445,-7.5 -45,-7.5 C-45,-7.5 45,-7.5 45,-7.5 C50.52299880981445,-7.5 55,-11.97700023651123 55,-17.5 C55,-17.5 55,-24.5 55,-24.5 C55,-26.156999588012695 56.34299850463867,-27.5 58,-27.5 C58,-27.5 177,-27.5 177,-27.5 C178.65699768066406,-27.5 180,-26.156999588012695 180,-24.5 C180,-24.5 180,-2.5 180,-2.5 C180,14.069000244140625 166.56900024414062,27.5 150,27.5 C150,27.5 -150,27.5 -150,27.5 C-166.56900024414062,27.5 -180,14.069000244140625 -180,-2.5 C-180,-2.5 -180,-24.5 -180,-24.5 C-180,-26.156999588012695 -178.65699768066406,-27.5 -177,-27.5 C-177,-27.5 -58,-27.5 -58,-27.5z"/></g></g><g opacity="0.5" transform="matrix(1,0,0,1,214.14599609375,332.5)" style="mix-blend-mode: multiply;"><g opacity="1" transform="matrix(1,0,0,1,0,0)"><path class="quaternary" fill="rgb(235,230,239)" fill-opacity="1" d=" M-176.14599609375,-27.5 C-176.14599609375,-27.5 -129.14599609375,-27.5 -129.14599609375,-27.5 C-129.14599609375,-27.5 -129.14599609375,-22.5 -129.14599609375,-22.5 C-129.14599609375,-5.931000232696533 -115.71499633789062,7.5 -99.14600372314453,7.5 C-99.14600372314453,7.5 179.14599609375,7.5 179.14599609375,7.5 C175.0279998779297,19.152000427246094 163.91600036621094,27.5 150.85400390625,27.5 C150.85400390625,27.5 -149.14599609375,27.5 -149.14599609375,27.5 C-165.71499633789062,27.5 -179.14599609375,14.069000244140625 -179.14599609375,-2.5 C-179.14599609375,-2.5 -179.14599609375,-24.5 -179.14599609375,-24.5 C-179.14599609375,-26.156999588012695 -177.80299377441406,-27.5 -176.14599609375,-27.5z"/></g></g></g><g mask="url(#__lottie_element_606_1)" style="mix-blend-mode: multiply; display: block;"><g clip-path="url(#__lottie_element_603)" transform="matrix(1,0,0,1,0,0)" opacity="1"><g transform="matrix(1,0,0,1,-31.530000686645508,431.15399169921875)" opacity="0.4" style="display: block;"><g opacity="1" transform="matrix(1,0,0,1,0,0)"><path class="secondary" fill="rgb(249,201,192)" fill-opacity="1" d=" M-195.85000610351562,-160.23599243164062 C-195.85000610351562,-160.23599243164062 137.14999389648438,166.76400756835938 137.14999389648438,166.76400756835938 C137.14999389648438,166.76400756835938 219.23599243164062,166.76400756835938 219.23599243164062,166.76400756835938 C220.89300537109375,166.76400756835938 222.23599243164062,165.42100524902344 222.23599243164062,163.76400756835938 C222.23599243164062,163.76400756835938 222.23599243164062,148.71299743652344 222.23599243164062,148.71299743652344 C222.23599243164062,148.71299743652344 -68.21299743652344,-145.73599243164062 -68.21299743652344,-145.73599243164062 C-68.21299743652344,-145.73599243164062 -115.76399993896484,-145.73599243164062 -115.76399993896484,-145.73599243164062 C-121.28700256347656,-145.73599243164062 -125.76399993896484,-150.21299743652344 -125.76399993896484,-155.73599243164062 C-125.76399993896484,-155.73599243164062 -125.76399993896484,-157.23599243164062 -125.76399993896484,-157.23599243164062 C-125.76399993896484,-158.89300537109375 -127.10700225830078,-160.23599243164062 -128.76400756835938,-160.23599243164062 C-128.76400756835938,-160.23599243164062 -195.85000610351562,-160.23599243164062 -195.85000610351562,-160.23599243164062z M-137,85 C-137,85 -39.17300033569336,85 -39.17300033569336,85 C-39.17300033569336,85 -140,-15.82699966430664 -140,-15.82699966430664 C-140,-15.82699966430664 -140,82 -140,82 C-140,83.65699768066406 -138.65699768066406,85 -137,85z"/></g></g><g transform="matrix(1,0,0,1,215,200.5)" opacity="0.4" style="display: block;"><g opacity="1" transform="matrix(1,0,0,1,0,0)"><path class="secondary" fill="rgb(249,201,192)" fill-opacity="1" d=" M-195.85000610351562,-160.23599243164062 C-195.85000610351562,-160.23599243164062 137.14999389648438,166.76400756835938 137.14999389648438,166.76400756835938 C137.14999389648438,166.76400756835938 219.23599243164062,166.76400756835938 219.23599243164062,166.76400756835938 C220.89300537109375,166.76400756835938 222.23599243164062,165.42100524902344 222.23599243164062,163.76400756835938 C222.23599243164062,163.76400756835938 222.23599243164062,148.71299743652344 222.23599243164062,148.71299743652344 C222.23599243164062,148.71299743652344 -68.21299743652344,-145.73599243164062 -68.21299743652344,-145.73599243164062 C-68.21299743652344,-145.73599243164062 -115.76399993896484,-145.73599243164062 -115.76399993896484,-145.73599243164062 C-121.28700256347656,-145.73599243164062 -125.76399993896484,-150.21299743652344 -125.76399993896484,-155.73599243164062 C-125.76399993896484,-155.73599243164062 -125.76399993896484,-157.23599243164062 -125.76399993896484,-157.23599243164062 C-125.76399993896484,-158.89300537109375 -127.10700225830078,-160.23599243164062 -128.76400756835938,-160.23599243164062 C-128.76400756835938,-160.23599243164062 -195.85000610351562,-160.23599243164062 -195.85000610351562,-160.23599243164062z M7.25,228.75 C7.25,228.75 105.0770034790039,228.75 105.0770034790039,228.75 C105.0770034790039,228.75 -271.8370056152344,-147.99000549316406 -271.8370056152344,-147.99000549316406 C-271.8370056152344,-147.99000549316406 -271.8370056152344,-50.16299819946289 -271.8370056152344,-50.16299819946289 C-271.8370056152344,-48.50600051879883 5.5929999351501465,228.75 7.25,228.75z"/></g></g></g></g><g transform="matrix(1,0,0,1,0,0)" opacity="1" style="display: block;"><g opacity="1" transform="matrix(1,0,0,1,215,115)"><g opacity="1" transform="matrix(1,0,0,1,0,0)"><path class="tertiary" fill="rgb(75,179,253)" fill-opacity="1" d=" M0,80 C44.18299865722656,80 80,44.18299865722656 80,0 C80,-44.18299865722656 44.18299865722656,-80 0,-80 C-44.18299865722656,-80 -80,-44.18299865722656 -80,0 C-80,44.18299865722656 -44.18299865722656,80 0,80z"/></g></g><g opacity="0.5" transform="matrix(1,0,0,1,203.68800354003906,119.625)" style="mix-blend-mode: multiply;"><g opacity="1" transform="matrix(1,0,0,1,0,0)"><path class="tertiary" fill="rgb(75,179,253)" fill-opacity="1" d=" M31.312000274658203,60.375 C44.8129997253418,60.375 57.53300094604492,57.029998779296875 68.68800354003906,51.125 C54.152000427246094,66.08300018310547 33.81700134277344,75.375 11.312000274658203,75.375 C-32.87099838256836,75.375 -68.68800354003906,39.55799865722656 -68.68800354003906,-4.625 C-68.68800354003906,-35.30699920654297 -51.41600036621094,-61.95399856567383 -26.06399917602539,-75.375 C-40.066001892089844,-60.96699905395508 -48.6879997253418,-41.303001403808594 -48.6879997253418,-19.625 C-48.6879997253418,24.558000564575195 -12.871000289916992,60.375 31.312000274658203,60.375z"/></g></g></g><g clip-path="url(#__lottie_element_613)" transform="matrix(1,0,0,1,222.5,120.25)" opacity="1" style="display: block;"><path class="quinary" fill="rgb(8,168,138)" fill-opacity="1" d=" M42.3,83.75 C42.3,83.75 52.8,40.75 52.8,40.75 C52.8,40.75 18.8,17.75 18.8,17.75 C18.8,17.75 -12.2,40.75 -12.2,40.75 C-12.2,40.75 25.8,95.25 25.8,95.25 C25.8,95.25 42.3,83.75 42.3,83.75z M-2.7,-95.25 C-2.7,-95.25 -2.7,-60.25 -2.7,-60.25 C-2.7,-60.25 24.3,-44.75 24.3,-44.75 C24.3,-44.75 24.3,-18.25 24.3,-18.25 C24.3,-18.25 -19.7,-23.25 -19.7,-23.25 C-19.7,-23.25 -19.7,8.25 -19.7,8.25 C-19.7,8.25 -53.2,-6.75 -53.2,-6.75 C-53.2,-6.75 -53.2,-35.25 -53.2,-35.25 C-53.2,-35.25 -36.7,-92.75 -36.7,-92.75 C-36.7,-92.75 -2.7,-95.25 -2.7,-95.25z M145.3,-87.25 C145.3,-87.25 175.3,-79.25 175.3,-79.25 C175.3,-79.25 247.92,-60.21 247.92,-60.21 C247.92,-60.21 312.23,-78.22 312.23,-78.22 C312.23,-78.22 323.17,-22.39 323.17,-22.39 C323.17,-22.39 285.81,28.11 285.81,28.11 C285.81,28.11 260.51,6.26 260.51,6.26 C260.51,6.26 233.08,44.48 233.08,44.48 C233.08,44.48 217.3,8.25 217.3,8.25 C217.3,8.25 181.3,-2.25 181.3,-2.25 C181.3,-2.25 133.69,-30.53 133.69,-30.53 C133.69,-30.53 102.55,-18.03 102.55,-18.03 C102.55,-18.03 115.4,-43.47 115.4,-43.47 C115.4,-43.47 120.3,-76.75 120.3,-76.75 C120.3,-76.75 145.3,-87.25 145.3,-87.25z M135.8,-1.75 C135.8,-1.75 165.3,17.75 165.3,17.75 C165.3,17.75 186.8,21.25 186.8,21.25 C186.8,21.25 154.3,99.75 154.3,99.75 C154.3,99.75 132.69,47.47 132.69,47.47 C132.69,47.47 108.9,37.53 108.9,37.53 C108.9,37.53 105.3,5.25 105.3,5.25 C105.3,5.25 135.8,-1.75 135.8,-1.75z M311.74,84.41 C311.74,84.41 284.87,99.97 284.87,99.97 C284.87,99.97 254.11,80.52 254.11,80.52 C254.11,80.52 284.99,62.31 284.99,62.31 C284.99,62.31 311.74,84.41 311.74,84.41z M-387.7,83.75 C-387.7,83.75 -377.2,40.75 -377.2,40.75 C-377.2,40.75 -411.2,17.75 -411.2,17.75 C-411.2,17.75 -442.2,40.75 -442.2,40.75 C-442.2,40.75 -404.2,95.25 -404.2,95.25 C-404.2,95.25 -387.7,83.75 -387.7,83.75z M-432.7,-95.25 C-432.7,-95.25 -432.7,-60.25 -432.7,-60.25 C-432.7,-60.25 -405.7,-44.75 -405.7,-44.75 C-405.7,-44.75 -405.7,-18.25 -405.7,-18.25 C-405.7,-18.25 -449.7,-23.25 -449.7,-23.25 C-449.7,-23.25 -449.7,8.25 -449.7,8.25 C-449.7,8.25 -483.2,-6.75 -483.2,-6.75 C-483.2,-6.75 -483.2,-35.25 -483.2,-35.25 C-483.2,-35.25 -466.7,-92.75 -466.7,-92.75 C-466.7,-92.75 -432.7,-95.25 -432.7,-95.25z M-284.7,-87.25 C-284.7,-87.25 -254.7,-79.25 -254.7,-79.25 C-254.7,-79.25 -182.08,-60.21 -182.08,-60.21 C-182.08,-60.21 -117.77,-78.22 -117.77,-78.22 C-117.77,-78.22 -106.83,-22.39 -106.83,-22.39 C-106.83,-22.39 -144.19,28.11 -144.19,28.11 C-144.19,28.11 -169.49,6.26 -169.49,6.26 C-169.49,6.26 -196.92,44.48 -196.92,44.48 C-196.92,44.48 -212.7,8.25 -212.7,8.25 C-212.7,8.25 -248.7,-2.25 -248.7,-2.25 C-248.7,-2.25 -296.31,-30.53 -296.31,-30.53 C-296.31,-30.53 -327.45,-18.03 -327.45,-18.03 C-327.45,-18.03 -314.6,-43.47 -314.6,-43.47 C-314.6,-43.47 -309.7,-76.75 -309.7,-76.75 C-309.7,-76.75 -284.7,-87.25 -284.7,-87.25z M-294.2,-1.75 C-294.2,-1.75 -264.7,17.75 -264.7,17.75 C-264.7,17.75 -243.2,21.25 -243.2,21.25 C-243.2,21.25 -275.7,99.75 -275.7,99.75 C-275.7,99.75 -297.31,47.47 -297.31,47.47 C-297.31,47.47 -321.1,37.53 -321.1,37.53 C-321.1,37.53 -324.7,5.25 -324.7,5.25 C-324.7,5.25 -294.2,-1.75 -294.2,-1.75z M-118.26,84.41 C-118.26,84.41 -145.13,99.97 -145.13,99.97 C-145.13,99.97 -175.89,80.52 -175.89,80.52 C-175.89,80.52 -145.01,62.31 -145.01,62.31 C-145.01,62.31 -118.26,84.41 -118.26,84.41z"/><g opacity="1" transform="matrix(1,0,0,1,0,0)"><g opacity="1" transform="matrix(1,0,0,1,-0.2029999941587448,0)"/><g opacity="1" transform="matrix(1,0,0,1,-430.2030029296875,0)"/></g></g><g mask="url(#__lottie_element_618_1)" style="mix-blend-mode: multiply; display: block;"><g transform="matrix(1,0,0,1,0,0)" opacity="1"><g opacity="0.5" transform="matrix(1,0,0,1,203.68800354003906,119.625)"><g opacity="1" transform="matrix(1,0,0,1,0,0)"><path class="tertiary" fill="rgb(75,179,253)" fill-opacity="1" d=" M31.312000274658203,60.375 C44.8129997253418,60.375 57.53300094604492,57.029998779296875 68.68800354003906,51.125 C54.152000427246094,66.08300018310547 33.81700134277344,75.375 11.312000274658203,75.375 C-32.87099838256836,75.375 -68.68800354003906,39.55799865722656 -68.68800354003906,-4.625 C-68.68800354003906,-35.30699920654297 -51.41600036621094,-61.95399856567383 -26.06399917602539,-75.375 C-40.066001892089844,-60.96699905395508 -48.6879997253418,-41.303001403808594 -48.6879997253418,-19.625 C-48.6879997253418,24.558000564575195 -12.871000289916992,60.375 31.312000274658203,60.375z"/></g></g></g></g><g transform="matrix(1,0,0,1,215.01800537109375,243.80799865722656)" opacity="1" style="display: block;"><g opacity="1" transform="matrix(1,0,0,1,0,0)"><path stroke-linecap="round" stroke-linejoin="round" fill-opacity="0" class="primary" stroke="rgb(18,19,49)" stroke-opacity="1" stroke-width="7" d=" M-28.284000396728516,-3.8580000400543213 C-28.284000396728516,-3.8580000400543213 0,-32.141998291015625 0,-32.141998291015625 M28.284000396728516,-3.8580000400543213 C28.284000396728516,-3.8580000400543213 0,-32.141998291015625 0,-32.141998291015625 M0,-32.141998291015625 C0,-32.141998291015625 0,26.158000946044922 0,26.158000946044922"/></g></g><g transform="matrix(1,0,0,1,215,230)" opacity="1" style="display: block;"><g opacity="1" transform="matrix(1,0,0,1,0,0)"><path stroke-linecap="round" stroke-linejoin="round" fill-opacity="0" class="primary" stroke="rgb(18,19,49)" stroke-opacity="1" stroke-width="7" d=" M79.5,-130 C79.5,-130 135,-130 135,-130 C146.04600524902344,-130 155,-121.0459976196289 155,-110 C155,-110 155,75 155,75 M-155,75 C-155,75 -155,-110 -155,-110 C-155,-121.0459976196289 -146.04600524902344,-130 -135,-130 C-135,-130 -79.5,-130 -79.5,-130 M-180,75 C-180,75 -55,75 -55,75 C-55,75 -55,85 -55,85 C-55,90.52300262451172 -50.52299880981445,95 -45,95 C-45,95 45,95 45,95 C50.52299880981445,95 55,90.52300262451172 55,85 C55,85 55,75 55,75 C55,75 180,75 180,75 C180,75 180,100 180,100 C180,116.56900024414062 166.56900024414062,130 150,130 C150,130 -150,130 -150,130 C-166.56900024414062,130 -180,116.56900024414062 -180,100 C-180,100 -180,75 -180,75z"/></g></g><g transform="matrix(1,0,0,1,215,115)" opacity="1" style="display: block;"><g opacity="1" transform="matrix(1,0,0,1,0,0)"><path stroke-linecap="round" stroke-linejoin="round" fill-opacity="0" class="primary" stroke="rgb(18,19,49)" stroke-opacity="1" stroke-width="7" d=" M0,80 C44.18299865722656,80 80,44.18299865722656 80,0 C80,-44.18299865722656 44.18299865722656,-80 0,-80 C-44.18299865722656,-80 -80,-44.18299865722656 -80,0 C-80,44.18299865722656 -44.18299865722656,80 0,80z"/></g></g><g clip-path="url(#__lottie_element_631)" transform="matrix(1,0,0,1,222.5,120.25)" opacity="1" style="display: block;"><g opacity="1" transform="matrix(1,0,0,1,0,0)"><g opacity="1" transform="matrix(1,0,0,1,-0.2029999941587448,0)"><path stroke-linecap="round" stroke-linejoin="round" fill-opacity="0" class="primary" stroke="rgb(18,19,49)" stroke-opacity="1" stroke-width="7" d=" M42.5,83.75 C42.5,83.75 53,40.75 53,40.75 C53,40.75 19,17.75 19,17.75 C19,17.75 -12,40.75 -12,40.75 C-12,40.75 26,95.25 26,95.25 C26,95.25 42.5,83.75 42.5,83.75z M-2.5,-95.25 C-2.5,-95.25 -2.5,-60.25 -2.5,-60.25 C-2.5,-60.25 24.5,-44.75 24.5,-44.75 C24.5,-44.75 24.5,-18.25 24.5,-18.25 C24.5,-18.25 -19.5,-23.25 -19.5,-23.25 C-19.5,-23.25 -19.5,8.25 -19.5,8.25 C-19.5,8.25 -53,-6.75 -53,-6.75 C-53,-6.75 -53,-35.25 -53,-35.25 C-53,-35.25 -36.5,-92.75 -36.5,-92.75 C-36.5,-92.75 -2.5,-95.25 -2.5,-95.25z M145.5,-87.25 C145.5,-87.25 175.5,-79.25 175.5,-79.25 C175.5,-79.25 248.11900329589844,-60.207000732421875 248.11900329589844,-60.207000732421875 C248.11900329589844,-60.207000732421875 312.43499755859375,-78.21900177001953 312.43499755859375,-78.21900177001953 C312.43499755859375,-78.21900177001953 323.37200927734375,-22.391000747680664 323.37200927734375,-22.391000747680664 C323.37200927734375,-22.391000747680664 286.010986328125,28.106000900268555 286.010986328125,28.106000900268555 C286.010986328125,28.106000900268555 260.7130126953125,6.258999824523926 260.7130126953125,6.258999824523926 C260.7130126953125,6.258999824523926 233.28700256347656,44.48400115966797 233.28700256347656,44.48400115966797 C233.28700256347656,44.48400115966797 217.5,8.25 217.5,8.25 C217.5,8.25 181.5,-2.25 181.5,-2.25 C181.5,-2.25 133.89500427246094,-30.534000396728516 133.89500427246094,-30.534000396728516 C133.89500427246094,-30.534000396728516 102.75599670410156,-18.027000427246094 102.75599670410156,-18.027000427246094 C102.75599670410156,-18.027000427246094 115.6050033569336,-43.465999603271484 115.6050033569336,-43.465999603271484 C115.6050033569336,-43.465999603271484 120.5,-76.75 120.5,-76.75 C120.5,-76.75 145.5,-87.25 145.5,-87.25z M136,-1.75 C136,-1.75 165.5,17.75 165.5,17.75 C165.5,17.75 187,21.25 187,21.25 C187,21.25 154.5,99.75 154.5,99.75 C154.5,99.75 132.89500427246094,47.465999603271484 132.89500427246094,47.465999603271484 C132.89500427246094,47.465999603271484 109.1050033569336,37.534000396728516 109.1050033569336,37.534000396728516 C109.1050033569336,37.534000396728516 105.5,5.25 105.5,5.25 C105.5,5.25 136,-1.75 136,-1.75z M311.94500732421875,84.41100311279297 C311.94500732421875,84.41100311279297 285.07501220703125,99.96800231933594 285.07501220703125,99.96800231933594 C285.07501220703125,99.96800231933594 254.3159942626953,80.52200317382812 254.3159942626953,80.52200317382812 C254.3159942626953,80.52200317382812 285.197998046875,62.308998107910156 285.197998046875,62.308998107910156 C285.197998046875,62.308998107910156 311.94500732421875,84.41100311279297 311.94500732421875,84.41100311279297z"/></g><g opacity="1" transform="matrix(1,0,0,1,-430.2030029296875,0)"><path stroke-linecap="round" stroke-linejoin="round" fill-opacity="0" class="primary" stroke="rgb(18,19,49)" stroke-opacity="1" stroke-width="7" d=" M42.5,83.75 C42.5,83.75 53,40.75 53,40.75 C53,40.75 19,17.75 19,17.75 C19,17.75 -12,40.75 -12,40.75 C-12,40.75 26,95.25 26,95.25 C26,95.25 42.5,83.75 42.5,83.75z M-2.5,-95.25 C-2.5,-95.25 -2.5,-60.25 -2.5,-60.25 C-2.5,-60.25 24.5,-44.75 24.5,-44.75 C24.5,-44.75 24.5,-18.25 24.5,-18.25 C24.5,-18.25 -19.5,-23.25 -19.5,-23.25 C-19.5,-23.25 -19.5,8.25 -19.5,8.25 C-19.5,8.25 -53,-6.75 -53,-6.75 C-53,-6.75 -53,-35.25 -53,-35.25 C-53,-35.25 -36.5,-92.75 -36.5,-92.75 C-36.5,-92.75 -2.5,-95.25 -2.5,-95.25z M145.5,-87.25 C145.5,-87.25 175.5,-79.25 175.5,-79.25 C175.5,-79.25 248.11900329589844,-60.207000732421875 248.11900329589844,-60.207000732421875 C248.11900329589844,-60.207000732421875 312.43499755859375,-78.21900177001953 312.43499755859375,-78.21900177001953 C312.43499755859375,-78.21900177001953 323.37200927734375,-22.391000747680664 323.37200927734375,-22.391000747680664 C323.37200927734375,-22.391000747680664 286.010986328125,28.106000900268555 286.010986328125,28.106000900268555 C286.010986328125,28.106000900268555 260.7130126953125,6.258999824523926 260.7130126953125,6.258999824523926 C260.7130126953125,6.258999824523926 233.28700256347656,44.48400115966797 233.28700256347656,44.48400115966797 C233.28700256347656,44.48400115966797 217.5,8.25 217.5,8.25 C217.5,8.25 181.5,-2.25 181.5,-2.25 C181.5,-2.25 133.89500427246094,-30.534000396728516 133.89500427246094,-30.534000396728516 C133.89500427246094,-30.534000396728516 102.75599670410156,-18.027000427246094 102.75599670410156,-18.027000427246094 C102.75599670410156,-18.027000427246094 115.6050033569336,-43.465999603271484 115.6050033569336,-43.465999603271484 C115.6050033569336,-43.465999603271484 120.5,-76.75 120.5,-76.75 C120.5,-76.75 145.5,-87.25 145.5,-87.25z M136,-1.75 C136,-1.75 165.5,17.75 165.5,17.75 C165.5,17.75 187,21.25 187,21.25 C187,21.25 154.5,99.75 154.5,99.75 C154.5,99.75 132.89500427246094,47.465999603271484 132.89500427246094,47.465999603271484 C132.89500427246094,47.465999603271484 109.1050033569336,37.534000396728516 109.1050033569336,37.534000396728516 C109.1050033569336,37.534000396728516 105.5,5.25 105.5,5.25 C105.5,5.25 136,-1.75 136,-1.75z M311.94500732421875,84.41100311279297 C311.94500732421875,84.41100311279297 285.07501220703125,99.96800231933594 285.07501220703125,99.96800231933594 C285.07501220703125,99.96800231933594 254.3159942626953,80.52200317382812 254.3159942626953,80.52200317382812 C254.3159942626953,80.52200317382812 285.197998046875,62.308998107910156 285.197998046875,62.308998107910156 C285.197998046875,62.308998107910156 311.94500732421875,84.41100311279297 311.94500732421875,84.41100311279297z"/></g></g></g></g></g></svg>