<svg xmlns="http://www.w3.org/2000/svg" xmlns:xlink="http://www.w3.org/1999/xlink" viewBox="0 0 430 430" width="430" height="430" preserveAspectRatio="xMidYMid meet" style="width: 100%; height: 100%; transform: translate3d(0px, 0px, 0px); content-visibility: visible;"><defs><clipPath id="__lottie_element_2746"><rect width="430" height="430" x="0" y="0"/></clipPath><clipPath id="__lottie_element_2748"><path d="M0,0 L430,0 L430,430 L0,430z"/></clipPath><g id="__lottie_element_2758"><g transform="matrix(3.3726398944854736,0,0,3.3726398944854736,217.43699645996094,214.5570068359375)" opacity="1" style="display: block;"><path fill="rgb(255,0,0)" fill-opacity="1" d=" M50.040000915527344,0.75 C50.040000915527344,28.36400032043457 27.65399932861328,50.75 0.03999999910593033,50.75 C-27.573999404907227,50.75 -49.959999084472656,28.36400032043457 -49.959999084472656,0.75 C-49.959999084472656,-26.86400032043457 -27.573999404907227,-49.25 0.03999999910593033,-49.25 C27.65399932861328,-49.25 50.040000915527344,-26.86400032043457 50.040000915527344,0.75z"/><g opacity="1" transform="matrix(1,0,0,1,0,0)"><path stroke-linecap="round" stroke-linejoin="round" fill-opacity="0" stroke="rgb(19,20,50)" stroke-opacity="1" stroke-width="0" d=" M50.040000915527344,0.75 C50.040000915527344,28.36400032043457 27.65399932861328,50.75 0.03999999910593033,50.75 C-27.573999404907227,50.75 -49.959999084472656,28.36400032043457 -49.959999084472656,0.75 C-49.959999084472656,-26.86400032043457 -27.573999404907227,-49.25 0.03999999910593033,-49.25 C27.65399932861328,-49.25 50.040000915527344,-26.86400032043457 50.040000915527344,0.75z"/></g></g></g><g id="__lottie_element_2776"><g transform="matrix(5.531129837036133,0,0,5.531129837036133,185.193359375,167.6066131591797)" opacity="1" style="display: block;"><path fill="rgb(255,199,56)" fill-opacity="1" d=" M15.67300033569336,-9.74899959564209 C17.15399932861328,-7.986000061035156 18.04599952697754,-5.710000038146973 18.04599952697754,-3.2269999980926514 C18.04599952697754,-3.2269999980926514 18.04599952697754,-3.2269999980926514 18.04599952697754,-3.2269999980926514 C18.04599952697754,2.377000093460083 13.501999855041504,6.921000003814697 7.8979997634887695,6.921000003814697 C2.2939999103546143,6.921000003814697 -2.25,2.377000093460083 -2.25,-3.2269999980926514 C-2.25,-8.831000328063965 2.2929999828338623,-13.375 7.8979997634887695,-13.375 C11.019000053405762,-13.375 13.810999870300293,-11.965999603271484 15.67300033569336,-9.74899959564209"/><g opacity="1" transform="matrix(1,0,0,1,0,0)"/></g></g><filter id="__lottie_element_2782" filterUnits="objectBoundingBox" x="0%" y="0%" width="100%" height="100%"><feComponentTransfer in="SourceGraphic"><feFuncA type="table" tableValues="1.0 0.0"/></feComponentTransfer></filter><mask id="__lottie_element_2776_2" mask-type="alpha" maskUnits="userSpaceOnUse"><g filter="url(#__lottie_element_2782)"><rect width="430" height="430" x="0" y="0" fill="#ffffff" opacity="0"/><use xmlns:ns1="http://www.w3.org/1999/xlink" ns1:href="#__lottie_element_2776"/></g></mask><mask id="__lottie_element_2758_1" mask-type="alpha"><use xmlns:ns2="http://www.w3.org/1999/xlink" ns2:href="#__lottie_element_2758"/></mask></defs><g clip-path="url(#__lottie_element_2746)"><g clip-path="url(#__lottie_element_2748)" transform="matrix(1,0,0,1,0,0)" opacity="1" style="display: block;"><g transform="matrix(3.3726398944854736,0,0,3.3726398944854736,217.43699645996094,214.5570068359375)" opacity="1" style="display: block;"><g opacity="1" transform="matrix(1,0,0,1,0,0)"><path class="quaternary" fill="rgb(235,230,239)" fill-opacity="1" d=" M50.040000915527344,0.75 C50.040000915527344,28.36400032043457 27.65399932861328,50.75 0.03999999910593033,50.75 C-27.573999404907227,50.75 -49.959999084472656,28.36400032043457 -49.959999084472656,0.75 C-49.959999084472656,-26.86400032043457 -27.573999404907227,-49.25 0.03999999910593033,-49.25 C27.65399932861328,-49.25 50.040000915527344,-26.86400032043457 50.040000915527344,0.75z"/></g></g><g mask="url(#__lottie_element_2758_1)" style="display: block;"><g transform="matrix(5.531129837036133,0,0,5.531129837036133,164.4571533203125,164.133056640625)" opacity="1"><g opacity="1" transform="matrix(1,0,0,1,0,0)"><path class="tertiary" fill="rgb(75,179,253)" fill-opacity="1" d=" M6.5980000495910645,42.683998107910156 C-3.378999948501587,42.683998107910156 -12.553999900817871,42.683998107910156 -12.553999900817871,42.683998107910156 C-12.553999900817871,42.683998107910156 -12.467000007629395,29.768999099731445 -12.467000007629395,29.768999099731445 C-12.467000007629395,22.027000427246094 -6.190000057220459,15.75 1.5520000457763672,15.75 C1.5520000457763672,15.75 17.58300018310547,15.75 17.58300018310547,15.75 C25.325000762939453,15.75 31.601999282836914,22.027000427246094 31.601999282836914,29.768999099731445 C31.601999282836914,29.768999099731445 31.514999389648438,42.683998107910156 31.514999389648438,42.683998107910156 C31.514999389648438,42.683998107910156 31.514999389648438,42.683998107910156 31.514999389648438,42.683998107910156 C31.514999389648438,42.683998107910156 18.48699951171875,42.683998107910156 6.5980000495910645,42.683998107910156"/></g></g></g><g transform="matrix(5.531129837036133,0,0,5.531129837036133,164.4571533203125,164.133056640625)" opacity="1" style="display: block;"><g opacity="1" transform="matrix(1,0,0,1,0,0)"><path stroke-linecap="round" stroke-linejoin="round" fill-opacity="0" class="primary" stroke="rgb(18,19,49)" stroke-opacity="1" stroke-width="1.5" d=" M-12.532999992370605,30.56999969482422 C-12.532999992370605,30.56999969482422 -12.467000007629395,29.768999099731445 -12.467000007629395,29.768999099731445 C-12.467000007629395,22.027000427246094 -6.190000057220459,15.75 1.5520000457763672,15.75 C1.5520000457763672,15.75 17.58300018310547,15.75 17.58300018310547,15.75 C25.325000762939453,15.75 31.601999282836914,22.027000427246094 31.601999282836914,29.768999099731445 C31.601999282836914,29.768999099731445 31.535999298095703,30.56999969482422 31.535999298095703,30.56999969482422"/></g></g><g transform="matrix(1,0,0,1,135.72999572753906,301.5050048828125)" opacity="0.5" style="mix-blend-mode: multiply; display: block;"><g opacity="1" transform="matrix(1,0,0,1,0,0)"><path class="tertiary" fill="rgb(75,179,253)" fill-opacity="1" d=" M36.7400016784668,-49.82500076293945 C36.7400016784668,-49.82500076293945 40.95000076293945,-49.82500076293945 40.95000076293945,-49.82500076293945 C-1.4199999570846558,-35.084999084472656 -16.469999313354492,10.654999732971191 -21.31999969482422,48.32500076293945 C-28.30900001525879,42.96799850463867 -34.87200164794922,37.07699966430664 -40.95000076293945,30.704999923706055 C-40.95000076293945,30.704999923706055 -40.79999923706055,27.71500015258789 -40.79999923706055,27.71500015258789 C-40.797000885009766,7.151000022888184 -32.62699890136719,-12.569999694824219 -18.086000442504883,-27.111000061035156 C-3.5450000762939453,-41.652000427246094 16.176000595092773,-49.821998596191406 36.7400016784668,-49.82500076293945z"/></g></g><g transform="matrix(3.3726398944854736,0,0,3.3726398944854736,217.43699645996094,214.5570068359375)" opacity="1" style="display: block;"><g opacity="1" transform="matrix(1,0,0,1,0,0)"><path stroke-linecap="round" stroke-linejoin="round" fill-opacity="0" class="primary" stroke="rgb(18,19,49)" stroke-opacity="1" stroke-width="2.5" d=" M50.040000915527344,0.75 C50.040000915527344,28.36400032043457 27.65399932861328,50.75 0.03999999910593033,50.75 C-27.573999404907227,50.75 -49.959999084472656,28.36400032043457 -49.959999084472656,0.75 C-49.959999084472656,-26.86400032043457 -27.573999404907227,-49.25 0.03999999910593033,-49.25 C27.65399932861328,-49.25 50.040000915527344,-26.86400032043457 50.040000915527344,0.75z"/></g></g><g transform="matrix(5.531129837036133,0,0,5.531129837036133,173.6941375732422,182.10922241210938)" opacity="1" style="display: block;"><path class="secondary" fill="rgb(255,199,56)" fill-opacity="1" d=" M15.67300033569336,-9.74899959564209 C17.15399932861328,-7.986000061035156 18.04599952697754,-5.710000038146973 18.04599952697754,-3.2269999980926514 C18.04599952697754,-3.2269999980926514 18.04599952697754,-3.2269999980926514 18.04599952697754,-3.2269999980926514 C18.04599952697754,2.377000093460083 13.501999855041504,6.921000003814697 7.8979997634887695,6.921000003814697 C2.2939999103546143,6.921000003814697 -2.25,2.377000093460083 -2.25,-3.2269999980926514 C-2.25,-8.831000328063965 2.2929999828338623,-13.375 7.8979997634887695,-13.375 C11.019000053405762,-13.375 13.810999870300293,-11.965999603271484 15.67300033569336,-9.74899959564209"/><g opacity="1" transform="matrix(1,0,0,1,0,0)"/></g><g mask="url(#__lottie_element_2776_2)" style="display: block;"><g transform="matrix(5.531129837036133,0,0,5.531129837036133,173.6941375732422,182.10922241210938)" opacity="1"><path class="secondary" fill="rgb(255,199,56)" fill-opacity="1" d=" M15.67300033569336,-9.74899959564209 C17.15399932861328,-7.986000061035156 18.04599952697754,-5.710000038146973 18.04599952697754,-3.2269999980926514 C18.04599952697754,-3.2269999980926514 18.04599952697754,-3.2269999980926514 18.04599952697754,-3.2269999980926514 C18.04599952697754,2.377000093460083 13.501999855041504,6.921000003814697 7.8979997634887695,6.921000003814697 C2.2939999103546143,6.921000003814697 -2.25,2.377000093460083 -2.25,-3.2269999980926514 C-2.25,-8.831000328063965 2.2929999828338623,-13.375 7.8979997634887695,-13.375 C11.019000053405762,-13.375 13.810999870300293,-11.965999603271484 15.67300033569336,-9.74899959564209"/><path class="secondary" fill="rgb(255,199,56)" fill-opacity="0.5" d=" M15.67300033569336,-9.74899959564209 C17.15399932861328,-7.986000061035156 18.04599952697754,-5.710000038146973 18.04599952697754,-3.2269999980926514 C18.04599952697754,-3.2269999980926514 18.04599952697754,-3.2269999980926514 18.04599952697754,-3.2269999980926514 C18.04599952697754,2.377000093460083 13.501999855041504,6.921000003814697 7.8979997634887695,6.921000003814697 C2.2939999103546143,6.921000003814697 -2.25,2.377000093460083 -2.25,-3.2269999980926514 C-2.25,-8.831000328063965 2.2929999828338623,-13.375 7.8979997634887695,-13.375 C11.019000053405762,-13.375 13.810999870300293,-11.965999603271484 15.67300033569336,-9.74899959564209" style="mix-blend-mode: multiply;"/><g opacity="1" transform="matrix(1,0,0,1,0,0)"/></g></g><g transform="matrix(5.531129837036133,0,0,5.531129837036133,173.6941375732422,182.10922241210938)" opacity="1" style="display: block;"><g opacity="1" transform="matrix(1,0,0,1,0,0)"><path stroke-linecap="round" stroke-linejoin="round" fill-opacity="0" class="primary" stroke="rgb(18,19,49)" stroke-opacity="1" stroke-width="1.5" d=" M15.67300033569336,-9.74899959564209 C17.15399932861328,-7.986000061035156 18.04599952697754,-5.710000038146973 18.04599952697754,-3.2269999980926514 C18.04599952697754,-3.2269999980926514 18.04599952697754,-3.2269999980926514 18.04599952697754,-3.2269999980926514 C18.04599952697754,2.377000093460083 13.501999855041504,6.921000003814697 7.8979997634887695,6.921000003814697 C2.2939999103546143,6.921000003814697 -2.25,2.377000093460083 -2.25,-3.2269999980926514 C-2.25,-8.831000328063965 2.2929999828338623,-13.375 7.8979997634887695,-13.375 C11.019000053405762,-13.375 13.810999870300293,-11.965999603271484 15.67300033569336,-9.74899959564209"/></g></g></g></g></svg>