<svg xmlns="http://www.w3.org/2000/svg" xmlns:xlink="http://www.w3.org/1999/xlink" viewBox="0 0 430 430" width="430" height="430" preserveAspectRatio="xMidYMid meet" style="width: 100%; height: 100%; transform: translate3d(0px, 0px, 0px); content-visibility: visible;"><defs><clipPath id="__lottie_element_2457"><rect width="430" height="430" x="0" y="0"/></clipPath><clipPath id="__lottie_element_2459"><path d="M0,0 L430,0 L430,430 L0,430z"/></clipPath><g id="__lottie_element_2488"><g transform="matrix(1,0,0,1,215,219.9194793701172)" opacity="1" style="display: block;"><g opacity="1" transform="matrix(1,0,0,1,0,0)"><path fill="rgb(71,30,104)" fill-opacity="1" d=" M180.25,-81.75 C180.25,-81.75 57.25,43.5 57.25,43.5 C57.25,43.5 -57.5,42 -57.5,42 C-57.5,42 -172.75,-71.5 -172.75,-71.5 C-172.75,-71.5 -187.75,124 -187.75,124 C-187.75,124 102.75,128.5 102.75,128.5 C102.75,128.5 249.75,102 249.75,102 C249.75,102 180.25,-81.75 180.25,-81.75z"/></g></g></g><filter id="__lottie_element_2506" filterUnits="objectBoundingBox" x="0%" y="0%" width="100%" height="100%"><feComponentTransfer in="SourceGraphic"><feFuncA type="table" tableValues="1.0 0.0"/></feComponentTransfer></filter><mask id="__lottie_element_2488_2" mask-type="alpha" maskUnits="userSpaceOnUse"><g filter="url(#__lottie_element_2506)"><rect width="430" height="430" x="0" y="0" fill="#ffffff" opacity="0"/><use xmlns:ns1="http://www.w3.org/1999/xlink" ns1:href="#__lottie_element_2488"/></g></mask><g id="__lottie_element_2646"><g transform="matrix(1,0,0,1,-35,38.253570556640625)" opacity="1" style="display: none;"><path fill="rgb(255,0,0)" fill-opacity="1" d=" M409.07,335.28 C409.07,335.28 305,243.76 305,243.76 C274.85,217.03 225.9,217.03 195.75,243.76 C195.75,243.76 91.17,335.67 91.17,335.67"/><g opacity="1" transform="matrix(1,0,0,1,249.86099243164062,218.1739959716797)"><path stroke-linecap="round" stroke-linejoin="round" fill-opacity="0" class="primary" stroke="rgb(18,19,49)" stroke-opacity="1" stroke-width="10.5" d=" M159.21299743652344,117.10900115966797 C159.21299743652344,117.10900115966797 55.138999938964844,25.586000442504883 55.138999938964844,25.586000442504883 C24.993000030517578,-1.1430000066757202 -23.96299934387207,-1.1440000534057617 -54.11199951171875,25.582000732421875 C-54.11199951171875,25.582000732421875 -158.69000244140625,117.49299621582031 -158.69000244140625,117.49299621582031"/></g></g></g><filter id="__lottie_element_2649" filterUnits="objectBoundingBox" x="0%" y="0%" width="100%" height="100%"><feComponentTransfer in="SourceGraphic"><feFuncA type="table" tableValues="1.0 0.0"/></feComponentTransfer></filter><mask id="__lottie_element_2646_2" mask-type="alpha" maskUnits="userSpaceOnUse"><g filter="url(#__lottie_element_2649)"><rect width="430" height="430" x="0" y="0" fill="#ffffff" opacity="0"/><use xmlns:ns2="http://www.w3.org/1999/xlink" ns2:href="#__lottie_element_2646"/></g></mask><g id="__lottie_element_2662"><g transform="matrix(1,0,0,1,215,239.13954162597656)" opacity="1" style="display: none;"><g opacity="1" transform="matrix(1,0,0,1,0,0)"><path fill="rgb(71,30,104)" fill-opacity="1" d=" M180.25,-81.75 C180.25,-81.75 57.25,43.5 57.25,43.5 C57.25,43.5 -57.5,42 -57.5,42 C-57.5,42 -172.75,-71.5 -172.75,-71.5 C-172.75,-71.5 -187.75,124 -187.75,124 C-187.75,124 102.75,128.5 102.75,128.5 C102.75,128.5 249.75,102 249.75,102 C249.75,102 180.25,-81.75 180.25,-81.75z"/></g></g></g><filter id="__lottie_element_2665" filterUnits="objectBoundingBox" x="0%" y="0%" width="100%" height="100%"><feComponentTransfer in="SourceGraphic"><feFuncA type="table" tableValues="1.0 0.0"/></feComponentTransfer></filter><mask id="__lottie_element_2662_2" mask-type="alpha" maskUnits="userSpaceOnUse"><g filter="url(#__lottie_element_2665)"><rect width="430" height="430" x="0" y="0" fill="#ffffff" opacity="0"/><use xmlns:ns3="http://www.w3.org/1999/xlink" ns3:href="#__lottie_element_2662"/></g></mask><g id="__lottie_element_2705"><g transform="matrix(1,0,0,1,-35,15.87603759765625)" opacity="1" style="display: none;"><path fill="rgb(255,0,0)" fill-opacity="1" d=" M409.07,335.28 C409.07,335.28 305,243.76 305,243.76 C274.85,217.03 225.9,217.03 195.75,243.76 C195.75,243.76 91.17,335.67 91.17,335.67"/><g opacity="1" transform="matrix(1,0,0,1,249.86099243164062,218.1739959716797)"><path stroke-linecap="round" stroke-linejoin="round" fill-opacity="0" class="primary" stroke="rgb(18,19,49)" stroke-opacity="1" stroke-width="10.5" d=" M159.21299743652344,117.10900115966797 C159.21299743652344,117.10900115966797 55.138999938964844,25.586000442504883 55.138999938964844,25.586000442504883 C24.993000030517578,-1.1430000066757202 -23.96299934387207,-1.1440000534057617 -54.11199951171875,25.582000732421875 C-54.11199951171875,25.582000732421875 -158.69000244140625,117.49299621582031 -158.69000244140625,117.49299621582031"/></g></g></g><filter id="__lottie_element_2708" filterUnits="objectBoundingBox" x="0%" y="0%" width="100%" height="100%"><feComponentTransfer in="SourceGraphic"><feFuncA type="table" tableValues="1.0 0.0"/></feComponentTransfer></filter><mask id="__lottie_element_2705_2" mask-type="alpha" maskUnits="userSpaceOnUse"><g filter="url(#__lottie_element_2708)"><rect width="430" height="430" x="0" y="0" fill="#ffffff" opacity="0"/><use xmlns:ns4="http://www.w3.org/1999/xlink" ns4:href="#__lottie_element_2705"/></g></mask></defs><g clip-path="url(#__lottie_element_2457)"><g clip-path="url(#__lottie_element_2459)" transform="matrix(1,0,0,1,0,0)" opacity="1" style="display: block;"><g transform="matrix(1,0,0,1,214.30499267578125,108.46247863769531)" opacity="1" style="display: block;"><g opacity="1" transform="matrix(1,0,0,1,0,0)"><path class="secondary" fill="rgb(75,179,253)" fill-opacity="1" d=" M-160,83.56999969482422 C-160,83.56999969482422 -160,52.42900085449219 -160,52.42900085449219 C-160,52.42900085449219 -27.45400047302246,-72.66100311279297 -27.45400047302246,-72.66100311279297 C-12.041000366210938,-87.20700073242188 12.041000366210938,-87.20700073242188 27.45400047302246,-72.66100311279297 C27.45400047302246,-72.66100311279297 160,52.42900085449219 160,52.42900085449219 C160,52.42900085449219 160,83.56999969482422 160,83.56999969482422 C160,83.56999969482422 -160,83.56999969482422 -160,83.56999969482422z"/><path class="secondary" fill="rgb(75,179,253)" fill-opacity="0.5" d=" M-160,83.56999969482422 C-160,83.56999969482422 -160,52.42900085449219 -160,52.42900085449219 C-160,52.42900085449219 -27.45400047302246,-72.66100311279297 -27.45400047302246,-72.66100311279297 C-12.041000366210938,-87.20700073242188 12.041000366210938,-87.20700073242188 27.45400047302246,-72.66100311279297 C27.45400047302246,-72.66100311279297 160,52.42900085449219 160,52.42900085449219 C160,52.42900085449219 160,83.56999969482422 160,83.56999969482422 C160,83.56999969482422 -160,83.56999969482422 -160,83.56999969482422z" style="mix-blend-mode: multiply;"/></g></g><g transform="matrix(1,0,0,1,-35,15.533477783203125)" opacity="1" style="display: block;"><g opacity="1" transform="matrix(1,0,0,1,249.86099243164062,218.1739959716797)"><path stroke-linecap="round" stroke-linejoin="round" fill-opacity="0" class="primary" stroke="rgb(18,19,49)" stroke-opacity="1" stroke-width="10.5" d=" M-158.69000244140625,-74.08100128173828 C-158.69000244140625,-74.08100128173828 -142.73300170898438,-88.9209976196289 -142.73300170898438,-88.9209976196289 M141.06199645996094,-90.3759994506836 C141.06199645996094,-90.3759994506836 159.21299743652344,-73.67400360107422 159.21299743652344,-73.67400360107422"/></g><g opacity="1" transform="matrix(1,0,0,1,249.86099243164062,218.1739959716797)"><path stroke-linecap="round" stroke-linejoin="round" fill-opacity="0" class="primary" stroke="rgb(18,19,49)" stroke-opacity="1" stroke-width="10.5" d=" M-54.175960540771484,-171.65625 C-54.175960540771484,-171.65625 -26.1299991607666,-198.61700439453125 -26.1299991607666,-198.61700439453125 C-11.704999923706055,-212.1739959716797 11.720999717712402,-212.1739959716797 26.148000717163086,-198.61900329589844 C26.148000717163086,-198.61900329589844 54.60755157470703,-171.5005645751953 54.60755157470703,-171.5005645751953"/></g></g><g transform="matrix(1,0,0,1,214.30499267578125,258.3924560546875)" opacity="1" style="display: block;"><g opacity="1" transform="matrix(1,0,0,1,0,0)"><path class="secondary" fill="rgb(75,179,253)" fill-opacity="1" d=" M160,-97.5 C160,-97.5 -160,-97.5 -160,-97.5 C-160,-97.5 -160,97.5 -160,97.5 C-160,97.5 160,97.5 160,97.5 C160,97.5 160,-97.5 160,-97.5z"/><path class="secondary" fill="rgb(75,179,253)" fill-opacity="0.5" d=" M160,-97.5 C160,-97.5 -160,-97.5 -160,-97.5 C-160,-97.5 -160,97.5 -160,97.5 C-160,97.5 160,97.5 160,97.5 C160,97.5 160,-97.5 160,-97.5z" style="mix-blend-mode: multiply;"/></g></g><g transform="matrix(1,0,0,1,214.30499267578125,253.3894805908203)" opacity="1" style="display: block;"><g opacity="1" transform="matrix(1,0,0,1,0,0)"><path class="secondary" fill="rgb(75,179,253)" fill-opacity="1" d=" M-56.382999420166016,8.380999565124512 C-56.382999420166016,8.380999565124512 -159.5,98.99800109863281 -159.5,98.99800109863281 C-159.5,98.99800109863281 -160,-92.49700164794922 -160,-92.49700164794922 C-160,-92.49700164794922 -56.63399887084961,8.003000259399414 -56.63399887084961,8.003000259399414 C-56.63399887084961,8.003000259399414 -56.382999420166016,8.380999565124512 -56.382999420166016,8.380999565124512z M160,-92.49800109863281 C160,-92.49800109863281 159.75,97.74800109863281 159.75,97.74800109863281 C159.75,97.74800109863281 58.507999420166016,8.880999565124512 58.507999420166016,8.880999565124512 C58.507999420166016,8.880999565124512 58.632999420166016,8.251999855041504 58.632999420166016,8.251999855041504 C58.632999420166016,8.251999855041504 160,-92.49800109863281 160,-92.49800109863281z"/></g></g><g transform="matrix(1,0,0,1,214.30499267578125,300.7874755859375)" opacity="0.5" style="mix-blend-mode: multiply; display: block;"><g opacity="1" transform="matrix(1,0,0,1,0,0)"><path class="secondary" fill="rgb(75,179,253)" fill-opacity="1" d=" M75.8499984741211,-55.74599838256836 C75.8499984741211,-55.74599838256836 58.132999420166016,-38.029998779296875 58.132999420166016,-38.029998779296875 C58.132999420166016,-38.029998779296875 58.13399887084961,55.74599838256836 58.13399887084961,55.74599838256836 C58.13399887084961,55.74599838256836 160,55.74599838256836 160,55.74599838256836 C160,55.74599838256836 160,17.88599967956543 160,17.88599967956543 C160,17.88599967956543 75.8499984741211,-55.74599838256836 75.8499984741211,-55.74599838256836z M-74.8499984741211,-56.87099838256836 C-74.8499984741211,-56.87099838256836 -160,17.88599967956543 -160,17.88599967956543 C-160,17.88599967956543 -160,55.74599838256836 -160,55.74599838256836 C-160,55.74599838256836 -58.132999420166016,55.74599838256836 -58.132999420166016,55.74599838256836 C-58.132999420166016,55.74599838256836 -57.132999420166016,-39.154998779296875 -57.132999420166016,-39.154998779296875 C-57.132999420166016,-39.154998779296875 -74.8499984741211,-56.87099838256836 -74.8499984741211,-56.87099838256836z"/></g></g><g mask="url(#__lottie_element_2488_2)" style="display: block;"><g transform="matrix(1,0,0,1,214.30599975585938,172.95008850097656)" opacity="1"><g opacity="1" transform="matrix(1,0,0,1,0,0)"><path class="quinary" fill="rgb(235,230,239)" fill-opacity="1" d=" M-137,-110 C-137,-110 137,-110 137,-110 C138.65699768066406,-110 140,-108.65699768066406 140,-107 C140,-107 139.99856567382812,6.506386756896973 139.99856567382812,6.506386756896973 C139.99856567382812,6.506386756896973 58.419979095458984,89.35538482666016 58.419979095458984,89.35538482666016 C58.419979095458984,89.35538482666016 -51.604862213134766,94.5541763305664 -51.604862213134766,94.5541763305664 C-51.604862213134766,94.5541763305664 -139.8694305419922,7.097060680389404 -139.8694305419922,7.097060680389404 C-139.8694305419922,7.097060680389404 -140,-107 -140,-107 C-140,-108.65699768066406 -138.65699768066406,-110 -137,-110z"/></g><g opacity="1" transform="matrix(1,0,0,1,0,0)" style="mix-blend-mode: multiply;"><path class="quinary" fill="rgb(235,230,239)" fill-opacity="0.5" d=" M-136.99899291992188,-110 C-136.99899291992188,-110 -114.9990005493164,-110 -114.9990005493164,-110 C-114.9990005493164,-110 -115.0338363647461,-4.201234340667725 -115.0338363647461,-4.201234340667725 C-115.0338363647461,-4.201234340667725 -55.65283966064453,55.17976379394531 -55.65283966064453,55.17976379394531 C-21.386838912963867,35.0717658996582 21.31560707092285,35.0717658996582 55.581607818603516,55.17976379394531 C55.581607818603516,55.17976379394531 139.9651641845703,-29.20323371887207 139.9651641845703,-29.20323371887207 C139.9651641845703,-29.20323371887207 140.27500915527344,6.498386859893799 140.27500915527344,6.498386859893799 C140.27500915527344,6.498386859893799 58.419979095458984,89.35538482666016 58.419979095458984,89.35538482666016 C58.419979095458984,89.35538482666016 -51.604862213134766,94.5541763305664 -51.604862213134766,94.5541763305664 C-51.604862213134766,94.5541763305664 -139.97499084472656,6.525060653686523 -139.97499084472656,6.525060653686523 C-139.97499084472656,6.525060653686523 -140,-15.355999946594238 -140,-15.355999946594238 C-140,-15.355999946594238 -139.99899291992188,-15.354999542236328 -139.99899291992188,-15.354999542236328 C-139.99899291992188,-15.354999542236328 -139.99899291992188,-107 -139.99899291992188,-107 C-139.99899291992188,-108.65699768066406 -138.656005859375,-110 -136.99899291992188,-110z"/></g></g></g><g transform="matrix(1,0,0,1,0,7.5930938720703125)" opacity="1" style="display: block;"><g opacity="1" transform="matrix(1,0,0,1,215,215)"><path stroke-linecap="round" stroke-linejoin="round" fill-opacity="0" class="primary" stroke="rgb(18,19,49)" stroke-opacity="1" stroke-width="10.5" d=" M139.22300720214844,-44.44097137451172 C139.22300720214844,-44.44097137451172 139.2570037841797,-159.1719970703125 139.2570037841797,-159.1719970703125 C139.2570037841797,-159.1719970703125 -140.57000732421875,-159.1719970703125 -140.57000732421875,-159.1719970703125 C-140.57000732421875,-159.1719970703125 -140.57000732421875,-44.44097137451172 -140.57000732421875,-44.44097137451172"/></g></g><g transform="matrix(1,0,0,1,214.30499267578125,305.365478515625)" opacity="1" style="display: block;"><g opacity="1" transform="matrix(1,0,0,1,0,0)"><path class="secondary" fill="rgb(75,179,253)" fill-opacity="1" d=" M-55.972999572753906,-44.49599838256836 C-55.972999572753906,-44.49599838256836 -160,46.527000427246094 -160,46.527000427246094 C-160,46.527000427246094 -160,62.527000427246094 -160,62.527000427246094 C-160,64.18399810791016 -158.65699768066406,65.5270004272461 -157,65.5270004272461 C-157,65.5270004272461 157,65.5270004272461 157,65.5270004272461 C158.65699768066406,65.5270004272461 160,64.18399810791016 160,62.527000427246094 C160,62.527000427246094 160,46.527000427246094 160,46.527000427246094 C160,46.527000427246094 55.972999572753906,-44.49599838256836 55.972999572753906,-44.49599838256836 C23.926000595092773,-72.53700256347656 -23.926000595092773,-72.53700256347656 -55.972999572753906,-44.49599838256836z"/></g></g><g transform="matrix(1,0,0,1,-35,15.533477783203125)" opacity="1" style="display: block;"><g opacity="1" transform="matrix(1,0,0,1,250,250)"><path stroke-linecap="round" stroke-linejoin="round" fill-opacity="0" class="primary" stroke="rgb(18,19,49)" stroke-opacity="1" stroke-width="10.5" d=" M-142,-105.41899871826172 C-142,-105.41899871826172 -159.1719970703125,-105.41999816894531 -159.1719970703125,-105.41999816894531 C-159.1719970703125,-105.41999816894531 -159.1719970703125,105.41999816894531 -159.1719970703125,105.41999816894531 C-159.1719970703125,105.41999816894531 159.1719970703125,105.41999816894531 159.1719970703125,105.41999816894531 C159.1719970703125,105.41999816894531 159.1719970703125,-105.3949966430664 159.1719970703125,-105.3949966430664 C159.1719970703125,-105.3949966430664 140,-105.39600372314453 140,-105.39600372314453"/></g></g><g transform="matrix(1,0,0,1,215,265.5334777832031)" opacity="1" style="display: block;"><g opacity="1" transform="matrix(1,0,0,1,0,0)"><path stroke-linecap="round" stroke-linejoin="round" fill-opacity="0" class="primary" stroke="rgb(18,19,49)" stroke-opacity="1" stroke-width="10.5" d=" M-58.5,-4 C-58.5,-4 -158.5,-104.5 -158.5,-104.5 M58,-4 C58,-4 157.75,-104.5 157.75,-104.5"/></g></g><g transform="matrix(1,0,0,1,-35,15.533477783203125)" opacity="1" style="display: block;"><g opacity="1" transform="matrix(1,0,0,1,249.86099243164062,218.1739959716797)"><path stroke-linecap="round" stroke-linejoin="round" fill-opacity="0" class="primary" stroke="rgb(18,19,49)" stroke-opacity="1" stroke-width="10.5" d=" M159.21299743652344,117.10900115966797 C159.21299743652344,117.10900115966797 55.138999938964844,25.586000442504883 55.138999938964844,25.586000442504883 C24.993000030517578,-1.1430000066757202 -23.96299934387207,-1.1440000534057617 -54.11199951171875,25.582000732421875 C-54.11199951171875,25.582000732421875 -158.69000244140625,117.49299621582031 -158.69000244140625,117.49299621582031"/></g></g><g mask="url(#__lottie_element_2646_2)" style="display: none;"><g transform="matrix(1,0,0,1,215,231.8328094482422)" opacity="1"><g opacity="1" transform="matrix(1,0,0,1,0,0)"><path class="secondary" fill="rgb(75,179,253)" fill-opacity="1" d=" M123.68800354003906,30.999597549438477 C123.68800354003906,30.999597549438477 -127.17749786376953,30.999597549438477 -127.17749786376953,30.999597549438477"/><path stroke-linecap="butt" stroke-linejoin="miter" fill-opacity="0" stroke-miterlimit="4" class="primary" stroke="rgb(18,19,49)" stroke-opacity="1" stroke-width="10.5" d=" M123.68800354003906,30.999597549438477 C123.68800354003906,30.999597549438477 -127.17749786376953,30.999597549438477 -127.17749786376953,30.999597549438477"/></g><g opacity="1" transform="matrix(1,0,0,1,0,0)"><path class="secondary" fill="rgb(75,179,253)" fill-opacity="1" d="M0 0"/><path stroke-linecap="butt" stroke-linejoin="miter" fill-opacity="0" stroke-miterlimit="4" class="primary" stroke="rgb(18,19,49)" stroke-opacity="1" stroke-width="3" d="M0 0"/></g></g></g><g mask="url(#__lottie_element_2662_2)" style="display: none;"><g transform="matrix(1,0,0,1,215,239.25466918945312)" opacity="1"><g opacity="1" transform="matrix(1,0,0,1,0,0)"><path class="secondary" fill="rgb(75,179,253)" fill-opacity="1" d=" M124,11.829878807067871 C124,11.829878807067871 -127.5,11.829878807067871 -127.5,11.829878807067871"/><path stroke-linecap="butt" stroke-linejoin="miter" fill-opacity="0" stroke-miterlimit="4" class="primary" stroke="rgb(18,19,49)" stroke-opacity="1" stroke-width="10.5" d=" M124,11.829878807067871 C124,11.829878807067871 -127.5,11.829878807067871 -127.5,11.829878807067871"/></g><g opacity="1" transform="matrix(1,0,0,1,0,0)"><path class="secondary" fill="rgb(75,179,253)" fill-opacity="1" d="M0 0"/><path stroke-linecap="butt" stroke-linejoin="miter" fill-opacity="0" stroke-miterlimit="4" class="primary" stroke="rgb(18,19,49)" stroke-opacity="1" stroke-width="3" d="M0 0"/></g></g></g><g mask="url(#__lottie_element_2705_2)" style="display: none;"><g transform="matrix(1,0,0,1,215,256.99951171875)" opacity="1"><g opacity="1" transform="matrix(1,0,0,1,0,0)"><path class="secondary" fill="rgb(75,179,253)" fill-opacity="1" d=" M69.98799896240234,9.484543800354004 C69.98799896240234,9.484543800354004 -71.83793640136719,9.484543800354004 -71.83793640136719,9.484543800354004"/><path stroke-linecap="butt" stroke-linejoin="miter" fill-opacity="0" stroke-miterlimit="4" class="primary" stroke="rgb(18,19,49)" stroke-opacity="1" stroke-width="10.5" d=" M69.98799896240234,9.484543800354004 C69.98799896240234,9.484543800354004 -71.83793640136719,9.484543800354004 -71.83793640136719,9.484543800354004"/></g><g opacity="1" transform="matrix(1,0,0,1,0,0)"><path class="secondary" fill="rgb(75,179,253)" fill-opacity="1" d="M0 0"/><path stroke-linecap="butt" stroke-linejoin="miter" fill-opacity="0" stroke-miterlimit="4" class="primary" stroke="rgb(18,19,49)" stroke-opacity="1" stroke-width="3" d="M0 0"/></g></g></g><g transform="matrix(1,0,0,1,0,7.5930938720703125)" opacity="1" style="display: block;"><g opacity="1" transform="matrix(1,0,0,1,215,215)"><path stroke-linecap="round" stroke-linejoin="round" fill-opacity="0" class="primary" stroke="rgb(18,19,49)" stroke-opacity="1" stroke-width="10.5" d=" M139.22300720214844,-44.44097137451172 C139.22300720214844,-44.44097137451172 139.2570037841797,-159.1719970703125 139.2570037841797,-159.1719970703125 C139.2570037841797,-159.1719970703125 -140.57000732421875,-159.1719970703125 -140.57000732421875,-159.1719970703125 C-140.57000732421875,-159.1719970703125 -140.57000732421875,-44.44097137451172 -140.57000732421875,-44.44097137451172"/></g></g><g transform="matrix(0.9998477101325989,-0.017452405765652657,0.017452405765652657,0.9998477101325989,-3.1347808837890625,11.311386108398438)" opacity="1" style="display: block;"><g opacity="1" transform="matrix(1,0,0,1,210.16900634765625,139.9459991455078)"><g opacity="1" transform="matrix(1,0,0,1,0,0)"><path class="tertiary" fill="rgb(242,139,168)" fill-opacity="1" d=" M20.058000564575195,-47.93199920654297 C21.474000930786133,-49.59700012207031 24.13800048828125,-49.23699951171875 25.062000274658203,-47.25600051879883 C25.062000274658203,-47.25600051879883 58.30099868774414,24.024999618530273 58.30099868774414,24.024999618530273 C59.224998474121094,26.006000518798828 57.78799819946289,28.27899932861328 55.60200119018555,28.292999267578125 C55.60200119018555,28.292999267578125 8.652999877929688,28.60099983215332 8.652999877929688,28.60099983215332 C8.652999877929688,28.60099983215332 -16.993999481201172,40.02000045776367 -16.993999481201172,40.02000045776367 C-16.993999481201172,40.02000045776367 -34.2140007019043,48.04899978637695 -34.2140007019043,48.04899978637695 C-39.21900177001953,50.382999420166016 -45.16899871826172,48.21699905395508 -47.50299835205078,43.21200180053711 C-47.50299835205078,43.21200180053711 -57.645999908447266,21.461000442504883 -57.645999908447266,21.461000442504883 C-59.97999954223633,16.45599937438965 -57.81399917602539,10.505999565124512 -52.808998107910156,8.17199993133545 C-52.808998107910156,8.17199993133545 -11.119000434875488,-11.269000053405762 -11.119000434875488,-11.269000053405762 C-11.119000434875488,-11.269000053405762 20.058000564575195,-47.93199920654297 20.058000564575195,-47.93199920654297z"/></g></g><g opacity="1" transform="matrix(1,0,0,1,216.7570037841797,191.61099243164062)"><g opacity="1" transform="matrix(1,0,0,1,0,0)"><path class="quaternary" fill="rgb(58,51,71)" fill-opacity="1" d=" M-1.815000057220459,21.70400047302246 C-1.815000057220459,21.70400047302246 -23.58099937438965,-11.645999908447266 -23.58099937438965,-11.645999908447266 C-23.58099937438965,-11.645999908447266 2.065999984741211,-23.065000534057617 2.065999984741211,-23.065000534057617 C2.065999984741211,-23.065000534057617 23.093000411987305,9.152999877929688 23.093000411987305,9.152999877929688 C24.090999603271484,10.682000160217285 23.503000259399414,12.73900032043457 21.847999572753906,13.51099967956543 C21.847999572753906,13.51099967956543 1.965000033378601,22.783000946044922 1.965000033378601,22.783000946044922 C0.6119999885559082,23.413999557495117 -0.9990000128746033,22.95400047302246 -1.815000057220459,21.70400047302246z"/></g></g><g opacity="0.5" transform="matrix(1,0,0,1,211.11300659179688,194.46600341796875)" style="mix-blend-mode: multiply;"><g opacity="1" transform="matrix(1,0,0,1,0,0)"><path class="quaternary" fill="rgb(58,51,71)" fill-opacity="1" d=" M3.828000068664551,18.849000930786133 C3.828000068664551,18.849000930786133 -17.937999725341797,-14.50100040435791 -17.937999725341797,-14.50100040435791 C-17.937999725341797,-14.50100040435791 -5.113999843597412,-20.209999084472656 -5.113999843597412,-20.209999084472656 C-5.113999843597412,-20.209999084472656 17.937999725341797,15.112000465393066 17.937999725341797,15.112000465393066 C17.937999725341797,15.112000465393066 7.607999801635742,19.929000854492188 7.607999801635742,19.929000854492188 C6.255000114440918,20.559999465942383 4.644000053405762,20.099000930786133 3.828000068664551,18.849000930786133z"/></g></g><g opacity="0.5" transform="matrix(1,0,0,1,210.16900634765625,168.24000549316406)" style="mix-blend-mode: multiply;"><g opacity="1" transform="matrix(1,0,0,1,0,0)"><path class="tertiary" fill="rgb(242,139,168)" fill-opacity="1" d=" M-43.51499938964844,-3.3340001106262207 C-43.51499938964844,-3.3340001106262207 -51.584999084472656,-20.694000244140625 -51.584999084472656,-20.694000244140625 C-51.584999084472656,-20.694000244140625 -52.808998107910156,-20.12299919128418 -52.808998107910156,-20.12299919128418 C-57.81399917602539,-17.788999557495117 -59.97999954223633,-11.83899974822998 -57.645999908447266,-6.834000110626221 C-57.645999908447266,-6.834000110626221 -47.50299835205078,14.918000221252441 -47.50299835205078,14.918000221252441 C-45.16899871826172,19.92300033569336 -39.21900177001953,22.089000701904297 -34.2140007019043,19.7549991607666 C-34.2140007019043,19.7549991607666 -16.993999481201172,11.725000381469727 -16.993999481201172,11.725000381469727 C-16.993999481201172,11.725000381469727 8.652999877929688,0.3059999942779541 8.652999877929688,0.3059999942779541 C8.652999877929688,0.3059999942779541 55.60200119018555,-0.0020000000949949026 55.60200119018555,-0.0020000000949949026 C57.78799819946289,-0.01600000075995922 59.224998474121094,-2.2890000343322754 58.30099868774414,-4.269999980926514 C58.30099868774414,-4.269999980926514 54.18899917602539,-13.088000297546387 54.18899917602539,-13.088000297546387 C54.18899917602539,-13.088000297546387 2.5409998893737793,-12.746999740600586 2.5409998893737793,-12.746999740600586 C2.5409998893737793,-12.746999740600586 -11.430000305175781,-6.702000141143799 -11.430000305175781,-6.702000141143799 C-11.430000305175781,-6.702000141143799 -29.540000915527344,1.7690000534057617 -29.540000915527344,1.7690000534057617 C-34.80400085449219,4.230999946594238 -41.060001373291016,1.9459999799728394 -43.51499938964844,-3.3340001106262207z"/></g></g><g opacity="1" transform="matrix(1,0,0,1,260.91400146484375,124.10399627685547)"><g opacity="1" transform="matrix(0.9063078165054321,-0.4226182699203491,0.4226182699203491,0.9063078165054321,0,0)"><path class="senary" fill="rgb(255,199,56)" fill-opacity="1" d=" M-10,20 C1.0460000038146973,20 10,11.045999526977539 10,0 C10,-11.045999526977539 1.0460000038146973,-20 -10,-20 C-10,-20 -10,20 -10,20z"/></g></g><g opacity="0.5" transform="matrix(1,0,0,1,255.18099975585938,127.39199829101562)" style="mix-blend-mode: multiply;"><g opacity="1" transform="matrix(1,0,0,1,0,0)"><path class="senary" fill="rgb(255,199,56)" fill-opacity="1" d=" M11.781999588012695,14.045999526977539 C11.781999588012695,14.045999526977539 -3.6570000648498535,-19.06399917602539 -3.6570000648498535,-19.06399917602539 C-6.385000228881836,-19.020999908447266 -9.14900016784668,-18.416000366210938 -11.781999588012695,-17.187999725341797 C-11.781999588012695,-17.187999725341797 5.122000217437744,19.06399917602539 5.122000217437744,19.06399917602539 C7.755000114440918,17.836000442504883 9.994999885559082,16.107999801635742 11.781999588012695,14.045999526977539z"/></g></g><g opacity="1" transform="matrix(1,0,0,1,210.16900634765625,139.9459991455078)"><g opacity="1" transform="matrix(1,0,0,1,0,0)"><path stroke-linecap="round" stroke-linejoin="round" fill-opacity="0" class="primary" stroke="rgb(18,19,49)" stroke-opacity="1" stroke-width="10.5" d=" M20.058000564575195,-47.93199920654297 C21.474000930786133,-49.59700012207031 24.13800048828125,-49.23699951171875 25.062000274658203,-47.25600051879883 C25.062000274658203,-47.25600051879883 58.30099868774414,24.024999618530273 58.30099868774414,24.024999618530273 C59.224998474121094,26.006000518798828 57.78799819946289,28.27899932861328 55.60200119018555,28.292999267578125 C55.60200119018555,28.292999267578125 8.652999877929688,28.60099983215332 8.652999877929688,28.60099983215332 C8.652999877929688,28.60099983215332 -16.993999481201172,40.02000045776367 -16.993999481201172,40.02000045776367 C-16.993999481201172,40.02000045776367 -34.2140007019043,48.04899978637695 -34.2140007019043,48.04899978637695 C-39.21900177001953,50.382999420166016 -45.16899871826172,48.21699905395508 -47.50299835205078,43.21200180053711 C-47.50299835205078,43.21200180053711 -57.645999908447266,21.461000442504883 -57.645999908447266,21.461000442504883 C-59.97999954223633,16.45599937438965 -57.81399917602539,10.505999565124512 -52.808998107910156,8.17199993133545 C-52.808998107910156,8.17199993133545 -11.119000434875488,-11.269000053405762 -11.119000434875488,-11.269000053405762 C-11.119000434875488,-11.269000053405762 20.058000564575195,-47.93199920654297 20.058000564575195,-47.93199920654297z"/></g></g><g opacity="1" transform="matrix(1,0,0,1,216.7570037841797,191.61099243164062)"><g opacity="1" transform="matrix(1,0,0,1,0,0)"><path stroke-linecap="round" stroke-linejoin="round" fill-opacity="0" class="primary" stroke="rgb(18,19,49)" stroke-opacity="1" stroke-width="10.5" d=" M-1.815000057220459,21.70400047302246 C-1.815000057220459,21.70400047302246 -23.58099937438965,-11.645999908447266 -23.58099937438965,-11.645999908447266 C-23.58099937438965,-11.645999908447266 2.065999984741211,-23.065000534057617 2.065999984741211,-23.065000534057617 C2.065999984741211,-23.065000534057617 23.093000411987305,9.152999877929688 23.093000411987305,9.152999877929688 C24.090999603271484,10.682000160217285 23.503000259399414,12.73900032043457 21.847999572753906,13.51099967956543 C21.847999572753906,13.51099967956543 1.965000033378601,22.783000946044922 1.965000033378601,22.783000946044922 C0.6119999885559082,23.413999557495117 -0.9990000128746033,22.95400047302246 -1.815000057220459,21.70400047302246z"/></g></g><g opacity="1" transform="matrix(1,0,0,1,260.91400146484375,124.10399627685547)"><g opacity="1" transform="matrix(0.9063078165054321,-0.4226182699203491,0.4226182699203491,0.9063078165054321,0,0)"><path stroke-linecap="round" stroke-linejoin="round" fill-opacity="0" class="primary" stroke="rgb(18,19,49)" stroke-opacity="1" stroke-width="10.5" d=" M-10,20 C1.0460000038146973,20 10,11.045999526977539 10,0 C10,-11.045999526977539 1.0460000038146973,-20 -10,-20"/></g></g></g></g></g></svg>