<svg xmlns="http://www.w3.org/2000/svg" xmlns:xlink="http://www.w3.org/1999/xlink" viewBox="0 0 430 430" width="430" height="430" preserveAspectRatio="xMidYMid meet" style="width: 100%; height: 100%; transform: translate3d(0px, 0px, 0px); content-visibility: visible;"><defs><clipPath id="__lottie_element_7779"><rect width="430" height="430" x="0" y="0"/></clipPath><clipPath id="__lottie_element_7781"><path d="M0,0 L430,0 L430,430 L0,430z"/></clipPath></defs><g clip-path="url(#__lottie_element_7779)"><g clip-path="url(#__lottie_element_7781)" transform="matrix(1,0,0,1,0,0)" opacity="1" style="display: block;"><g transform="matrix(1,0,0,1,115,350.4729919433594)" opacity="1" style="display: block;"><g opacity="1" transform="matrix(1,0,0,1,0,0)"><path class="secondary" fill="rgb(75,179,253)" fill-opacity="1" d=" M-20,-30 C-44.85300064086914,-30 -65,-9.852999687194824 -65,15 C-65,15 -65,27 -65,27 C-65,28.656999588012695 -63.65700149536133,30 -62,30 C-62,30 62,30 62,30 C63.65700149536133,30 65,28.656999588012695 65,27 C65,27 65,15 65,15 C65,-9.852999687194824 44.85300064086914,-30 20,-30 C20,-30 -20,-30 -20,-30z"/><path class="secondary" fill="rgb(75,179,253)" fill-opacity="0.5" d=" M-20,-30 C-44.85300064086914,-30 -65,-9.852999687194824 -65,15 C-65,15 -65,27 -65,27 C-65,28.656999588012695 -63.65700149536133,30 -62,30 C-62,30 62,30 62,30 C63.65700149536133,30 65,28.656999588012695 65,27 C65,27 65,15 65,15 C65,-9.852999687194824 44.85300064086914,-30 20,-30 C20,-30 -20,-30 -20,-30z" style="mix-blend-mode: multiply;"/></g></g><g transform="matrix(1,0,0,1,115,307.5)" opacity="1" style="display: block;"><g opacity="1" transform="matrix(1,0,0,1,0,0)"><path stroke-linecap="butt" stroke-linejoin="round" fill-opacity="0" class="primary" stroke="rgb(18,19,49)" stroke-opacity="1" stroke-width="7" d=" M-20,12.5 C-20,12.5 20,12.5 20,12.5 C44.85300064086914,12.5 65,32.64699935913086 65,57.5 C65,57.5 65,72.5 65,72.5 C65,72.5 -65,72.5 -65,72.5 C-65,72.5 -65,57.5 -65,57.5 C-65,32.64699935913086 -44.85300064086914,12.5 -20,12.5z M30,-42.5 C30,-25.930999755859375 16.569000244140625,-12.5 0,-12.5 C-16.569000244140625,-12.5 -30,-25.930999755859375 -30,-42.5 C-30,-59.069000244140625 -16.569000244140625,-72.5 0,-72.5 C16.569000244140625,-72.5 30,-59.069000244140625 30,-42.5z"/><path class="tertiary" fill="rgb(255,199,56)" fill-opacity="1" d=" M30,-42.5 C30,-25.930999755859375 16.569000244140625,-12.5 0,-12.5 C-16.569000244140625,-12.5 -30,-25.930999755859375 -30,-42.5 C-30,-59.069000244140625 -16.569000244140625,-72.5 0,-72.5 C16.569000244140625,-72.5 30,-59.069000244140625 30,-42.5z"/><path class="tertiary" fill="rgb(255,199,56)" fill-opacity="0.5" d=" M30,-42.5 C30,-25.930999755859375 16.569000244140625,-12.5 0,-12.5 C-16.569000244140625,-12.5 -30,-25.930999755859375 -30,-42.5 C-30,-59.069000244140625 -16.569000244140625,-72.5 0,-72.5 C16.569000244140625,-72.5 30,-59.069000244140625 30,-42.5z" style="mix-blend-mode: multiply;"/><path stroke-linecap="butt" stroke-linejoin="round" fill-opacity="0" class="primary" stroke="rgb(18,19,49)" stroke-opacity="1" stroke-width="7" d=" M30,-42.5 C30,-25.930999755859375 16.569000244140625,-12.5 0,-12.5 C-16.569000244140625,-12.5 -30,-25.930999755859375 -30,-42.5 C-30,-59.069000244140625 -16.569000244140625,-72.5 0,-72.5 C16.569000244140625,-72.5 30,-59.069000244140625 30,-42.5z"/></g></g><g transform="matrix(1,0,0,1,315,350)" opacity="1" style="display: block;"><g opacity="1" transform="matrix(1,0,0,1,0,0)"><path class="secondary" fill="rgb(75,179,253)" fill-opacity="1" d=" M-20,-30 C-44.85300064086914,-30 -65,-9.852999687194824 -65,15 C-65,15 -65,27 -65,27 C-65,28.656999588012695 -63.65700149536133,30 -62,30 C-62,30 62,30 62,30 C63.65700149536133,30 65,28.656999588012695 65,27 C65,27 65,15 65,15 C65,-9.852999687194824 44.85300064086914,-30 20,-30 C20,-30 -20,-30 -20,-30z"/><path class="secondary" fill="rgb(75,179,253)" fill-opacity="0.5" d=" M-20,-30 C-44.85300064086914,-30 -65,-9.852999687194824 -65,15 C-65,15 -65,27 -65,27 C-65,28.656999588012695 -63.65700149536133,30 -62,30 C-62,30 62,30 62,30 C63.65700149536133,30 65,28.656999588012695 65,27 C65,27 65,15 65,15 C65,-9.852999687194824 44.85300064086914,-30 20,-30 C20,-30 -20,-30 -20,-30z" style="mix-blend-mode: multiply;"/></g></g><g transform="matrix(1,0,0,1,315,307.5)" opacity="1" style="display: block;"><g opacity="1" transform="matrix(1,0,0,1,0,0)"><path stroke-linecap="butt" stroke-linejoin="round" fill-opacity="0" class="primary" stroke="rgb(18,19,49)" stroke-opacity="1" stroke-width="7" d=" M-20,12.5 C-44.85300064086914,12.5 -65,32.64699935913086 -65,57.5 C-65,57.5 -65,72.5 -65,72.5 C-65,72.5 65,72.5 65,72.5 C65,72.5 65,57.5 65,57.5 C65,32.64699935913086 44.85300064086914,12.5 20,12.5 C20,12.5 -20,12.5 -20,12.5z M30,-42.5 C30,-25.930999755859375 16.569000244140625,-12.5 0,-12.5 C-16.569000244140625,-12.5 -30,-25.930999755859375 -30,-42.5 C-30,-59.069000244140625 -16.569000244140625,-72.5 0,-72.5 C16.569000244140625,-72.5 30,-59.069000244140625 30,-42.5z"/><path class="tertiary" fill="rgb(255,199,56)" fill-opacity="1" d=" M30,-42.5 C30,-25.930999755859375 16.569000244140625,-12.5 0,-12.5 C-16.569000244140625,-12.5 -30,-25.930999755859375 -30,-42.5 C-30,-59.069000244140625 -16.569000244140625,-72.5 0,-72.5 C16.569000244140625,-72.5 30,-59.069000244140625 30,-42.5z"/><path class="tertiary" fill="rgb(255,199,56)" fill-opacity="0.5" d=" M30,-42.5 C30,-25.930999755859375 16.569000244140625,-12.5 0,-12.5 C-16.569000244140625,-12.5 -30,-25.930999755859375 -30,-42.5 C-30,-59.069000244140625 -16.569000244140625,-72.5 0,-72.5 C16.569000244140625,-72.5 30,-59.069000244140625 30,-42.5z" style="mix-blend-mode: multiply;"/><path stroke-linecap="butt" stroke-linejoin="round" fill-opacity="0" class="primary" stroke="rgb(18,19,49)" stroke-opacity="1" stroke-width="7" d=" M30,-42.5 C30,-25.930999755859375 16.569000244140625,-12.5 0,-12.5 C-16.569000244140625,-12.5 -30,-25.930999755859375 -30,-42.5 C-30,-59.069000244140625 -16.569000244140625,-72.5 0,-72.5 C16.569000244140625,-72.5 30,-59.069000244140625 30,-42.5z"/></g></g><g transform="matrix(1,0,0,1,215,360)" opacity="1" style="display: block;"><g opacity="1" transform="matrix(1,0,0,1,0,0)"><path class="secondary" fill="rgb(75,179,253)" fill-opacity="1" d=" M-35,-40 C-65.3759994506836,-40 -90,-15.37600040435791 -90,15 C-90,15 -90,37 -90,37 C-90,38.65700149536133 -88.65699768066406,40 -87,40 C-87,40 87,40 87,40 C88.65699768066406,40 90,38.65700149536133 90,37 C90,37 90,15 90,15 C90,-15.37600040435791 65.3759994506836,-40 35,-40 C35,-40 -35,-40 -35,-40z"/></g></g><g transform="matrix(1,0,0,1,167.5,360)" opacity="0.3" style="mix-blend-mode: multiply; display: block;"><g opacity="1" transform="matrix(1,0,0,1,0,0)"><path class="secondary" fill="rgb(75,179,253)" fill-opacity="1" d=" M-42.5,15 C-42.5,-15.37600040435791 -17.875999450683594,-40 12.5,-40 C12.5,-40 42.5,-40 42.5,-40 C12.12399959564209,-40 -12.5,-15.37600040435791 -12.5,15 C-12.5,15 -12.5,40 -12.5,40 C-12.5,40 -39.5,40 -39.5,40 C-41.15700149536133,40 -42.5,38.65700149536133 -42.5,37 C-42.5,37 -42.5,15 -42.5,15z"/></g></g><g transform="matrix(1,0,0,1,215,250)" opacity="1" style="display: block;"><g opacity="1" transform="matrix(1,0,0,1,0,0)"><path class="tertiary" fill="rgb(255,199,56)" fill-opacity="1" d=" M0,45 C24.85300064086914,45 45,24.85300064086914 45,0 C45,-24.85300064086914 24.85300064086914,-45 0,-45 C-24.85300064086914,-45 -45,-24.85300064086914 -45,0 C-45,24.85300064086914 -24.85300064086914,45 0,45z"/></g></g><g transform="matrix(1,0,0,1,206.72299194335938,250.06500244140625)" opacity="0.3" style="mix-blend-mode: multiply; display: block;"><g opacity="1" transform="matrix(1,0,0,1,0,0)"><path class="tertiary" fill="rgb(255,199,56)" fill-opacity="1" d=" M33.277000427246094,34.935001373291016 C34.4370002746582,34.935001373291016 35.584999084472656,34.89099884033203 36.722999572753906,34.80500030517578 C28.969999313354492,41.137001037597656 19.06800079345703,44.935001373291016 8.277000427246094,44.935001373291016 C-16.576000213623047,44.935001373291016 -36.722999572753906,24.788000106811523 -36.722999572753906,-0.06499999761581421 C-36.722999572753906,-23.757999420166016 -18.41200065612793,-43.17499923706055 4.829999923706055,-44.935001373291016 C-5.2729997634887695,-36.68299865722656 -11.722999572753906,-24.12700080871582 -11.722999572753906,-10.0649995803833 C-11.722999572753906,14.788000106811523 8.423999786376953,34.935001373291016 33.277000427246094,34.935001373291016z"/></g></g><g transform="matrix(1,0,0,1,215,302.5)" opacity="1" style="display: block;"><g opacity="1" transform="matrix(1,0,0,1,0,0)"><path stroke-linecap="butt" stroke-linejoin="round" fill-opacity="0" class="primary" stroke="rgb(18,19,49)" stroke-opacity="1" stroke-width="7" d=" M-35,17.5 C-65.3759994506836,17.5 -90,42.124000549316406 -90,72.5 C-90,72.5 -90,97.5 -90,97.5 C-90,97.5 90,97.5 90,97.5 C90,97.5 90,72.5 90,72.5 C90,42.124000549316406 65.3759994506836,17.5 35,17.5 C35,17.5 -35,17.5 -35,17.5z M45,-52.5 C45,-27.64699935913086 24.85300064086914,-7.5 0,-7.5 C-24.85300064086914,-7.5 -45,-27.64699935913086 -45,-52.5 C-45,-77.35299682617188 -24.85300064086914,-97.5 0,-97.5 C24.85300064086914,-97.5 45,-77.35299682617188 45,-52.5z"/></g></g><g transform="matrix(1,0,0,1,215,106.2959976196289)" opacity="1" style="display: block;"><g opacity="1" transform="matrix(1,0,0,1,0,0)"><path class="quaternary" fill="rgb(235,230,239)" fill-opacity="1" d=" M-100,-57.86899948120117 C-100,-68.0459976196289 -91.0459976196289,-76.2959976196289 -80,-76.2959976196289 C-80,-76.2959976196289 80,-76.2959976196289 80,-76.2959976196289 C91.0459976196289,-76.2959976196289 100,-68.0459976196289 100,-57.86899948120117 C100,-57.86899948120117 100,15.83899974822998 100,15.83899974822998 C100,26.016000747680664 91.0459976196289,34.26599884033203 80,34.26599884033203 C80,34.26599884033203 23.33300018310547,34.26599884033203 23.33300018310547,34.26599884033203 C23.33300018310547,34.26599884033203 2.496000051498413,63.0629997253418 2.496000051498413,63.0629997253418 C1.309000015258789,64.7040023803711 -1.309000015258789,64.7040023803711 -2.496000051498413,63.0629997253418 C-2.496000051498413,63.0629997253418 -23.33300018310547,34.26599884033203 -23.33300018310547,34.26599884033203 C-23.33300018310547,34.26599884033203 -80,34.26599884033203 -80,34.26599884033203 C-91.0459976196289,34.26599884033203 -100,26.016000747680664 -100,15.83899974822998 C-100,15.83899974822998 -100,-57.86899948120117 -100,-57.86899948120117z"/></g></g><g transform="matrix(1,0,0,1,137.5,90)" opacity="0.5" style="mix-blend-mode: multiply; display: block;"><g opacity="1" transform="matrix(1,0,0,1,0,0)"><path class="quaternary" fill="rgb(235,230,239)" fill-opacity="1" d=" M-2.5,-60 C-13.545999526977539,-60 -22.5,-51.86600112915039 -22.5,-41.83300018310547 C-22.5,-41.83300018310547 -22.5,30.83300018310547 -22.5,30.83300018310547 C-22.5,40.86600112915039 -13.545999526977539,49 -2.5,49 C-2.5,49 22.5,49 22.5,49 C11.454000473022461,49 2.5,40.86600112915039 2.5,30.83300018310547 C2.5,30.83300018310547 2.5,-41.83300018310547 2.5,-41.83300018310547 C2.5,-51.86600112915039 11.454000473022461,-60 22.5,-60 C22.5,-60 -2.5,-60 -2.5,-60z"/></g></g><g transform="matrix(1,0,0,1,215,102.5)" opacity="1" style="display: block;"><g opacity="1" transform="matrix(1,0,0,1,0,-17.5)"><path stroke-linecap="round" stroke-linejoin="round" fill-opacity="0" class="primary" stroke="rgb(18,19,49)" stroke-opacity="1" stroke-width="7" d=" M0,-25 C0,-25 0,-6.6539998054504395 0,-6.6539998054504395 C0,-6.6539998054504395 0,10.890000343322754 0,10.890000343322754 C0,10.890000343322754 0,25 0,25 M0.23399999737739563,0 C0.23399999737739563,0 25,0 25,0 M-25,0 C-25,0 0.23399999737739563,0 0.23399999737739563,0"/></g><g opacity="1" transform="matrix(1,0,0,1,0,0)"><path stroke-linecap="round" stroke-linejoin="round" fill-opacity="0" class="primary" stroke="rgb(18,19,49)" stroke-opacity="1" stroke-width="7" d=" M-100,-52.5 C-100,-63.54600143432617 -91.0459976196289,-72.5 -80,-72.5 C-80,-72.5 80,-72.5 80,-72.5 C91.0459976196289,-72.5 100,-63.54600143432617 100,-52.5 C100,-52.5 100,17.5 100,17.5 C100,28.54599952697754 91.0459976196289,37.5 80,37.5 C80,37.5 23.33300018310547,37.5 23.33300018310547,37.5 C23.33300018310547,37.5 0,72.5 0,72.5 C0,72.5 -23.33300018310547,37.5 -23.33300018310547,37.5 C-23.33300018310547,37.5 -80,37.5 -80,37.5 C-91.0459976196289,37.5 -100,28.54599952697754 -100,17.5 C-100,17.5 -100,-52.5 -100,-52.5z"/></g></g></g></g></svg>