<svg xmlns="http://www.w3.org/2000/svg" xmlns:xlink="http://www.w3.org/1999/xlink" viewBox="0 0 430 430" width="430" height="430" preserveAspectRatio="xMidYMid meet" style="width: 100%; height: 100%; transform: translate3d(0px, 0px, 0px); content-visibility: visible;"><defs><clipPath id="__lottie_element_10096"><rect width="430" height="430" x="0" y="0"/></clipPath><clipPath id="__lottie_element_10098"><path d="M0,0 L430,0 L430,430 L0,430z"/></clipPath><g id="__lottie_element_10108"><g transform="matrix(1,0,0,1,342.4939880371094,341.5840148925781)" opacity="1" style="display: block;"><path fill="rgb(255,199,56)" fill-opacity="1" d=" M0,-40.029998779296875 C0,-40.029998779296875 13.005999565124512,-13.675999641418457 13.005999565124512,-13.675999641418457 C13.005999565124512,-13.675999641418457 42.09000015258789,-9.449999809265137 42.09000015258789,-9.449999809265137 C42.09000015258789,-9.449999809265137 21.045000076293945,11.064000129699707 21.045000076293945,11.064000129699707 C21.045000076293945,11.064000129699707 26.01300048828125,40.029998779296875 26.01300048828125,40.029998779296875 C26.01300048828125,40.029998779296875 0,26.354000091552734 0,26.354000091552734 C0,26.354000091552734 -26.01300048828125,40.029998779296875 -26.01300048828125,40.029998779296875 C-26.01300048828125,40.029998779296875 -21.045000076293945,11.064000129699707 -21.045000076293945,11.064000129699707 C-21.045000076293945,11.064000129699707 -42.09000015258789,-9.449999809265137 -42.09000015258789,-9.449999809265137 C-42.09000015258789,-9.449999809265137 -13.005999565124512,-13.675999641418457 -13.005999565124512,-13.675999641418457 C-13.005999565124512,-13.675999641418457 0,-40.029998779296875 0,-40.029998779296875z"/><g opacity="1" transform="matrix(1,0,0,1,0,0)"/></g></g><g id="__lottie_element_10117"><g transform="matrix(1,0,0,1,215,344.0889892578125)" opacity="1" style="display: block;"><path fill="rgb(255,199,56)" fill-opacity="1" d=" M0,-40.029998779296875 C0,-40.029998779296875 13.005999565124512,-13.675999641418457 13.005999565124512,-13.675999641418457 C13.005999565124512,-13.675999641418457 42.09000015258789,-9.449999809265137 42.09000015258789,-9.449999809265137 C42.09000015258789,-9.449999809265137 21.045000076293945,11.064000129699707 21.045000076293945,11.064000129699707 C21.045000076293945,11.064000129699707 26.01300048828125,40.029998779296875 26.01300048828125,40.029998779296875 C26.01300048828125,40.029998779296875 0,26.354000091552734 0,26.354000091552734 C0,26.354000091552734 -26.01300048828125,40.029998779296875 -26.01300048828125,40.029998779296875 C-26.01300048828125,40.029998779296875 -21.045000076293945,11.064000129699707 -21.045000076293945,11.064000129699707 C-21.045000076293945,11.064000129699707 -42.09000015258789,-9.449999809265137 -42.09000015258789,-9.449999809265137 C-42.09000015258789,-9.449999809265137 -13.005999565124512,-13.675999641418457 -13.005999565124512,-13.675999641418457 C-13.005999565124512,-13.675999641418457 0,-40.029998779296875 0,-40.029998779296875z"/><g opacity="1" transform="matrix(1,0,0,1,0,0)"/></g></g><g id="__lottie_element_10126"><g transform="matrix(1,0,0,1,90,340.7030029296875)" opacity="1" style="display: block;"><path fill="rgb(255,199,56)" fill-opacity="1" d=" M0,-40.029998779296875 C0,-40.029998779296875 13.005999565124512,-13.675999641418457 13.005999565124512,-13.675999641418457 C13.005999565124512,-13.675999641418457 42.09000015258789,-9.449999809265137 42.09000015258789,-9.449999809265137 C42.09000015258789,-9.449999809265137 21.045000076293945,11.064000129699707 21.045000076293945,11.064000129699707 C21.045000076293945,11.064000129699707 26.01300048828125,40.029998779296875 26.01300048828125,40.029998779296875 C26.01300048828125,40.029998779296875 0,26.354000091552734 0,26.354000091552734 C0,26.354000091552734 -26.01300048828125,40.029998779296875 -26.01300048828125,40.029998779296875 C-26.01300048828125,40.029998779296875 -21.045000076293945,11.064000129699707 -21.045000076293945,11.064000129699707 C-21.045000076293945,11.064000129699707 -42.09000015258789,-9.449999809265137 -42.09000015258789,-9.449999809265137 C-42.09000015258789,-9.449999809265137 -13.005999565124512,-13.675999641418457 -13.005999565124512,-13.675999641418457 C-13.005999565124512,-13.675999641418457 0,-40.029998779296875 0,-40.029998779296875z"/><g opacity="1" transform="matrix(1,0,0,1,0,0)"/></g></g><g id="__lottie_element_10144"><g transform="matrix(1,0,0,1,235,132.5)" opacity="1" style="display: block;"><path fill="rgb(249,201,192)" fill-opacity="1" d=" M-64,-16.023000717163086 C-64,-16.023000717163086 -61.2859992980957,-16.023000717163086 -61.2859992980957,-16.023000717163086 C-35.80799865722656,-16.023000717163086 -14.404999732971191,-35.18000030517578 -11.592000007629395,-60.50199890136719 C-11.592000007629395,-60.50199890136719 -6.730999946594238,-104.25499725341797 -6.730999946594238,-104.25499725341797 C-5.89300012588501,-111.79499816894531 0.4790000021457672,-117.5 8.0649995803833,-117.5 C27.249000549316406,-117.5 42.80099868774414,-101.94499969482422 42.80099868774414,-82.75800323486328 C42.80099868774414,-82.75800323486328 42.80099868774414,-26.704999923706055 42.80099868774414,-26.704999923706055 C42.80099868774414,-26.704999923706055 97.29399871826172,-26.704999923706055 97.29399871826172,-26.704999923706055 C113.5979995727539,-26.704999923706055 126.09500122070312,-12.218000411987305 123.70600128173828,3.9130001068115234 C123.70600128173828,3.9130001068115234 99.37699890136719,73.81800079345703 99.37699890136719,73.81800079345703 C97.43699645996094,86.91200256347656 85.76499938964844,104.44300079345703 72.52999877929688,104.44300079345703 C72.52999877929688,104.44300079345703 -27.2549991607666,104.44300079345703 -27.2549991607666,104.44300079345703 C-27.2549991607666,104.44300079345703 -64,89.60800170898438 -64,89.60800170898438"/><g opacity="1" transform="matrix(1,0,0,1,0,0)"/></g></g><filter id="__lottie_element_10156" filterUnits="objectBoundingBox" x="0%" y="0%" width="100%" height="100%"><feComponentTransfer in="SourceGraphic"><feFuncA type="table" tableValues="1.0 0.0"/></feComponentTransfer></filter><mask id="__lottie_element_10144_2" mask-type="alpha" maskUnits="userSpaceOnUse"><g filter="url(#__lottie_element_10156)"><rect width="430" height="430" x="0" y="0" fill="#ffffff" opacity="0"/><use xmlns:ns1="http://www.w3.org/1999/xlink" ns1:href="#__lottie_element_10144"/></g></mask><mask id="__lottie_element_10126_1" mask-type="alpha"><use xmlns:ns2="http://www.w3.org/1999/xlink" ns2:href="#__lottie_element_10126"/></mask><mask id="__lottie_element_10117_1" mask-type="alpha"><use xmlns:ns3="http://www.w3.org/1999/xlink" ns3:href="#__lottie_element_10117"/></mask><mask id="__lottie_element_10108_1" mask-type="alpha"><use xmlns:ns4="http://www.w3.org/1999/xlink" ns4:href="#__lottie_element_10108"/></mask></defs><g clip-path="url(#__lottie_element_10096)"><g clip-path="url(#__lottie_element_10098)" transform="matrix(1,0,0,1,0,0)" opacity="1" style="display: block;"><g transform="matrix(1,0,0,1,342.4939880371094,341.5840148925781)" opacity="1" style="display: block;"><path class="secondary" fill="rgb(255,199,56)" fill-opacity="1" d=" M0,-40.029998779296875 C0,-40.029998779296875 13.005999565124512,-13.675999641418457 13.005999565124512,-13.675999641418457 C13.005999565124512,-13.675999641418457 42.09000015258789,-9.449999809265137 42.09000015258789,-9.449999809265137 C42.09000015258789,-9.449999809265137 21.045000076293945,11.064000129699707 21.045000076293945,11.064000129699707 C21.045000076293945,11.064000129699707 26.01300048828125,40.029998779296875 26.01300048828125,40.029998779296875 C26.01300048828125,40.029998779296875 0,26.354000091552734 0,26.354000091552734 C0,26.354000091552734 -26.01300048828125,40.029998779296875 -26.01300048828125,40.029998779296875 C-26.01300048828125,40.029998779296875 -21.045000076293945,11.064000129699707 -21.045000076293945,11.064000129699707 C-21.045000076293945,11.064000129699707 -42.09000015258789,-9.449999809265137 -42.09000015258789,-9.449999809265137 C-42.09000015258789,-9.449999809265137 -13.005999565124512,-13.675999641418457 -13.005999565124512,-13.675999641418457 C-13.005999565124512,-13.675999641418457 0,-40.029998779296875 0,-40.029998779296875z"/><g opacity="1" transform="matrix(1,0,0,1,0,0)"/></g><g mask="url(#__lottie_element_10108_1)" style="mix-blend-mode: multiply; display: block;"><g transform="matrix(1,0,0,1,319.8080139160156,335.7969970703125)" opacity="0.5"><g opacity="1" transform="matrix(1,0,0,1,0,0)"><path class="secondary" fill="rgb(255,199,56)" fill-opacity="1" d=" M22.56100082397461,86.65299987792969 C22.56100082397461,86.65299987792969 -76.20999908447266,55.20100021362305 -76.20999908447266,55.20100021362305 C-76.20999908447266,55.20100021362305 -63.720001220703125,-52.04499816894531 -63.720001220703125,-52.04499816894531 C-63.720001220703125,-52.04499816894531 21.410999298095703,-83.4469985961914 21.410999298095703,-83.4469985961914 C21.99799919128418,-84.3740005493164 21.47100067138672,-42.83700180053711 22.444000244140625,-42.83599853515625 C22.444000244140625,-42.83599853515625 22.444000244140625,31.702999114990234 22.444000244140625,31.702999114990234 C22.444000244140625,31.702999114990234 22.44300079345703,31.70400047302246 22.44300079345703,31.70400047302246 C22.44300079345703,31.70400047302246 22.441999435424805,31.702999114990234 22.441999435424805,31.702999114990234 C22.441999435424805,31.702999114990234 22.423999786376953,88.87699890136719 22.56100082397461,86.65299987792969z"/></g></g></g><g transform="matrix(1,0,0,1,215,344.0889892578125)" opacity="1" style="display: block;"><path class="secondary" fill="rgb(255,199,56)" fill-opacity="1" d=" M0,-40.029998779296875 C0,-40.029998779296875 13.005999565124512,-13.675999641418457 13.005999565124512,-13.675999641418457 C13.005999565124512,-13.675999641418457 42.09000015258789,-9.449999809265137 42.09000015258789,-9.449999809265137 C42.09000015258789,-9.449999809265137 21.045000076293945,11.064000129699707 21.045000076293945,11.064000129699707 C21.045000076293945,11.064000129699707 26.01300048828125,40.029998779296875 26.01300048828125,40.029998779296875 C26.01300048828125,40.029998779296875 0,26.354000091552734 0,26.354000091552734 C0,26.354000091552734 -26.01300048828125,40.029998779296875 -26.01300048828125,40.029998779296875 C-26.01300048828125,40.029998779296875 -21.045000076293945,11.064000129699707 -21.045000076293945,11.064000129699707 C-21.045000076293945,11.064000129699707 -42.09000015258789,-9.449999809265137 -42.09000015258789,-9.449999809265137 C-42.09000015258789,-9.449999809265137 -13.005999565124512,-13.675999641418457 -13.005999565124512,-13.675999641418457 C-13.005999565124512,-13.675999641418457 0,-40.029998779296875 0,-40.029998779296875z"/><g opacity="1" transform="matrix(1,0,0,1,0,0)"/></g><g mask="url(#__lottie_element_10117_1)" style="mix-blend-mode: multiply; display: block;"><g transform="matrix(1,0,0,1,192.55799865722656,335.7969970703125)" opacity="0.5"><g opacity="1" transform="matrix(1,0,0,1,0,0)"><path class="secondary" fill="rgb(255,199,56)" fill-opacity="1" d=" M23.266000747680664,92.0770034790039 C21.200000762939453,92.98699951171875 -52.07600021362305,72.87699890136719 -51.93899917602539,70.65299987792969 C-51.93899917602539,70.65299987792969 -50.720001220703125,-68.04499816894531 -50.720001220703125,-68.04499816894531 C-50.720001220703125,-68.04499816894531 23.410999298095703,-89.9469985961914 23.410999298095703,-89.9469985961914 C23.99799919128418,-90.8740005493164 21.47100067138672,-42.83700180053711 22.444000244140625,-42.83599853515625 C22.444000244140625,-42.83599853515625 22.444000244140625,31.702999114990234 22.444000244140625,31.702999114990234 C22.444000244140625,31.702999114990234 22.44300079345703,31.70400047302246 22.44300079345703,31.70400047302246 C22.44300079345703,31.70400047302246 22.441999435424805,31.702999114990234 22.441999435424805,31.702999114990234 C22.441999435424805,31.702999114990234 23.266000747680664,92.0770034790039 23.266000747680664,92.0770034790039z"/></g></g></g><g transform="matrix(1,0,0,1,90,340.7030029296875)" opacity="1" style="display: block;"><path class="secondary" fill="rgb(255,199,56)" fill-opacity="1" d=" M0,-40.029998779296875 C0,-40.029998779296875 13.005999565124512,-13.675999641418457 13.005999565124512,-13.675999641418457 C13.005999565124512,-13.675999641418457 42.09000015258789,-9.449999809265137 42.09000015258789,-9.449999809265137 C42.09000015258789,-9.449999809265137 21.045000076293945,11.064000129699707 21.045000076293945,11.064000129699707 C21.045000076293945,11.064000129699707 26.01300048828125,40.029998779296875 26.01300048828125,40.029998779296875 C26.01300048828125,40.029998779296875 0,26.354000091552734 0,26.354000091552734 C0,26.354000091552734 -26.01300048828125,40.029998779296875 -26.01300048828125,40.029998779296875 C-26.01300048828125,40.029998779296875 -21.045000076293945,11.064000129699707 -21.045000076293945,11.064000129699707 C-21.045000076293945,11.064000129699707 -42.09000015258789,-9.449999809265137 -42.09000015258789,-9.449999809265137 C-42.09000015258789,-9.449999809265137 -13.005999565124512,-13.675999641418457 -13.005999565124512,-13.675999641418457 C-13.005999565124512,-13.675999641418457 0,-40.029998779296875 0,-40.029998779296875z"/><g opacity="1" transform="matrix(1,0,0,1,0,0)"/></g><g mask="url(#__lottie_element_10126_1)" style="mix-blend-mode: multiply; display: block;"><g transform="matrix(1,0,0,1,67.55799865722656,335.7969970703125)" opacity="0.5"><g opacity="1" transform="matrix(1,0,0,1,0,0)"><path class="secondary" fill="rgb(255,199,56)" fill-opacity="1" d=" M22.266000747680664,74.5770034790039 C20.200000762939453,75.48699951171875 -47.57600021362305,62.37699890136719 -47.43899917602539,60.15299987792969 C-47.43899917602539,60.15299987792969 -42.24599838256836,-14.484999656677246 -42.24599838256836,-14.484999656677246 C-43.66899871826172,-16.18600082397461 -22.308000564575195,-39.805999755859375 -20.14299964904785,-40.323001861572266 C-20.14299964904785,-40.323001861572266 21.910999298095703,-87.4469985961914 21.910999298095703,-87.4469985961914 C22.49799919128418,-88.3740005493164 21.47100067138672,-42.83700180053711 22.444000244140625,-42.83599853515625 C22.444000244140625,-42.83599853515625 22.444000244140625,31.702999114990234 22.444000244140625,31.702999114990234 C22.444000244140625,31.702999114990234 22.44300079345703,31.70400047302246 22.44300079345703,31.70400047302246 C22.44300079345703,31.70400047302246 22.441999435424805,31.702999114990234 22.441999435424805,31.702999114990234 C22.441999435424805,31.702999114990234 22.266000747680664,74.5770034790039 22.266000747680664,74.5770034790039z"/></g></g></g><g transform="matrix(1,0,0,1,342.4939880371094,341.5840148925781)" opacity="1" style="display: block;"><g opacity="1" transform="matrix(1,0,0,1,0,0)"><path stroke-linecap="round" stroke-linejoin="round" fill-opacity="0" class="primary" stroke="rgb(18,19,49)" stroke-opacity="1" stroke-width="7" d=" M0,-40.029998779296875 C0,-40.029998779296875 13.005999565124512,-13.675999641418457 13.005999565124512,-13.675999641418457 C13.005999565124512,-13.675999641418457 42.09000015258789,-9.449999809265137 42.09000015258789,-9.449999809265137 C42.09000015258789,-9.449999809265137 21.045000076293945,11.064000129699707 21.045000076293945,11.064000129699707 C21.045000076293945,11.064000129699707 26.01300048828125,40.029998779296875 26.01300048828125,40.029998779296875 C26.01300048828125,40.029998779296875 0,26.354000091552734 0,26.354000091552734 C0,26.354000091552734 -26.01300048828125,40.029998779296875 -26.01300048828125,40.029998779296875 C-26.01300048828125,40.029998779296875 -21.045000076293945,11.064000129699707 -21.045000076293945,11.064000129699707 C-21.045000076293945,11.064000129699707 -42.09000015258789,-9.449999809265137 -42.09000015258789,-9.449999809265137 C-42.09000015258789,-9.449999809265137 -13.005999565124512,-13.675999641418457 -13.005999565124512,-13.675999641418457 C-13.005999565124512,-13.675999641418457 0,-40.029998779296875 0,-40.029998779296875z"/></g></g><g transform="matrix(1,0,0,1,215,344.0889892578125)" opacity="1" style="display: block;"><g opacity="1" transform="matrix(1,0,0,1,0,0)"><path stroke-linecap="round" stroke-linejoin="round" fill-opacity="0" class="primary" stroke="rgb(18,19,49)" stroke-opacity="1" stroke-width="7" d=" M0,-40.029998779296875 C0,-40.029998779296875 13.005999565124512,-13.675999641418457 13.005999565124512,-13.675999641418457 C13.005999565124512,-13.675999641418457 42.09000015258789,-9.449999809265137 42.09000015258789,-9.449999809265137 C42.09000015258789,-9.449999809265137 21.045000076293945,11.064000129699707 21.045000076293945,11.064000129699707 C21.045000076293945,11.064000129699707 26.01300048828125,40.029998779296875 26.01300048828125,40.029998779296875 C26.01300048828125,40.029998779296875 0,26.354000091552734 0,26.354000091552734 C0,26.354000091552734 -26.01300048828125,40.029998779296875 -26.01300048828125,40.029998779296875 C-26.01300048828125,40.029998779296875 -21.045000076293945,11.064000129699707 -21.045000076293945,11.064000129699707 C-21.045000076293945,11.064000129699707 -42.09000015258789,-9.449999809265137 -42.09000015258789,-9.449999809265137 C-42.09000015258789,-9.449999809265137 -13.005999565124512,-13.675999641418457 -13.005999565124512,-13.675999641418457 C-13.005999565124512,-13.675999641418457 0,-40.029998779296875 0,-40.029998779296875z"/></g></g><g transform="matrix(1,0,0,1,90,340.7030029296875)" opacity="1" style="display: block;"><g opacity="1" transform="matrix(1,0,0,1,0,0)"><path stroke-linecap="round" stroke-linejoin="round" fill-opacity="0" class="primary" stroke="rgb(18,19,49)" stroke-opacity="1" stroke-width="7" d=" M0,-40.029998779296875 C0,-40.029998779296875 13.005999565124512,-13.675999641418457 13.005999565124512,-13.675999641418457 C13.005999565124512,-13.675999641418457 42.09000015258789,-9.449999809265137 42.09000015258789,-9.449999809265137 C42.09000015258789,-9.449999809265137 21.045000076293945,11.064000129699707 21.045000076293945,11.064000129699707 C21.045000076293945,11.064000129699707 26.01300048828125,40.029998779296875 26.01300048828125,40.029998779296875 C26.01300048828125,40.029998779296875 0,26.354000091552734 0,26.354000091552734 C0,26.354000091552734 -26.01300048828125,40.029998779296875 -26.01300048828125,40.029998779296875 C-26.01300048828125,40.029998779296875 -21.045000076293945,11.064000129699707 -21.045000076293945,11.064000129699707 C-21.045000076293945,11.064000129699707 -42.09000015258789,-9.449999809265137 -42.09000015258789,-9.449999809265137 C-42.09000015258789,-9.449999809265137 -13.005999565124512,-13.675999641418457 -13.005999565124512,-13.675999641418457 C-13.005999565124512,-13.675999641418457 0,-40.029998779296875 0,-40.029998779296875z"/></g></g><g transform="matrix(1,0,0,1,215,137.5)" opacity="1" style="display: block;"><path class="tertiary" fill="rgb(249,201,192)" fill-opacity="1" d=" M-64,-16.023000717163086 C-64,-16.023000717163086 -61.2859992980957,-16.023000717163086 -61.2859992980957,-16.023000717163086 C-35.80799865722656,-16.023000717163086 -14.404999732971191,-35.18000030517578 -11.592000007629395,-60.50199890136719 C-11.592000007629395,-60.50199890136719 -6.730999946594238,-104.25499725341797 -6.730999946594238,-104.25499725341797 C-5.89300012588501,-111.79499816894531 0.4790000021457672,-117.5 8.0649995803833,-117.5 C27.249000549316406,-117.5 42.80099868774414,-101.94499969482422 42.80099868774414,-82.75800323486328 C42.80099868774414,-82.75800323486328 42.80099868774414,-26.704999923706055 42.80099868774414,-26.704999923706055 C42.80099868774414,-26.704999923706055 97.29399871826172,-26.704999923706055 97.29399871826172,-26.704999923706055 C113.5979995727539,-26.704999923706055 126.09500122070312,-12.217000007629395 123.70600128173828,3.9140000343322754 C123.70600128173828,3.9140000343322754 110.25700378417969,94.70899963378906 110.25700378417969,94.70899963378906 C108.31700134277344,107.8030014038086 97.08000183105469,117.5 83.84500122070312,117.5 C83.84500122070312,117.5 -15.9399995803833,117.5 -15.9399995803833,117.5 C-15.9399995803833,117.5 -64,96.13600158691406 -64,96.13600158691406"/><g opacity="1" transform="matrix(1,0,0,1,0,0)"/></g><g mask="url(#__lottie_element_10144_2)" style="mix-blend-mode: multiply; display: block;"><g transform="matrix(1,0,0,1,215,137.5)" opacity="0.5"><path class="tertiary" fill="rgb(249,201,192)" fill-opacity="1" d=" M-64,-16.023000717163086 C-64,-16.023000717163086 -61.2859992980957,-16.023000717163086 -61.2859992980957,-16.023000717163086 C-35.80799865722656,-16.023000717163086 -14.404999732971191,-35.18000030517578 -11.592000007629395,-60.50199890136719 C-11.592000007629395,-60.50199890136719 -6.730999946594238,-104.25499725341797 -6.730999946594238,-104.25499725341797 C-5.89300012588501,-111.79499816894531 0.4790000021457672,-117.5 8.0649995803833,-117.5 C27.249000549316406,-117.5 42.80099868774414,-101.94499969482422 42.80099868774414,-82.75800323486328 C42.80099868774414,-82.75800323486328 42.80099868774414,-26.704999923706055 42.80099868774414,-26.704999923706055 C42.80099868774414,-26.704999923706055 97.29399871826172,-26.704999923706055 97.29399871826172,-26.704999923706055 C113.5979995727539,-26.704999923706055 126.09500122070312,-12.217000007629395 123.70600128173828,3.9140000343322754 C123.70600128173828,3.9140000343322754 110.25700378417969,94.70899963378906 110.25700378417969,94.70899963378906 C108.31700134277344,107.8030014038086 97.08000183105469,117.5 83.84500122070312,117.5 C83.84500122070312,117.5 -15.9399995803833,117.5 -15.9399995803833,117.5 C-15.9399995803833,117.5 -64,96.13600158691406 -64,96.13600158691406"/><g opacity="1" transform="matrix(1,0,0,1,0,0)"/></g></g><g transform="matrix(1,0,0,1,121,178)" opacity="1" style="display: block;"><g opacity="1" transform="matrix(1,0,0,1,0,0)"><path class="quaternary" fill="rgb(75,179,253)" fill-opacity="1" d=" M-27,-67 C-28.656999588012695,-67 -30,-65.65699768066406 -30,-64 C-30,-64 -30,64 -30,64 C-30,65.65699768066406 -28.656999588012695,67 -27,67 C-27,67 27,67 27,67 C28.656999588012695,67 30,65.65699768066406 30,64 C30,64 30,-64 30,-64 C30,-65.65699768066406 28.656999588012695,-67 27,-67 C27,-67 -27,-67 -27,-67z"/></g></g><g transform="matrix(1,0,0,1,121,178)" opacity="0.5" style="mix-blend-mode: multiply; display: block;"><g opacity="1" transform="matrix(1,0,0,1,0,0)"><path class="quaternary" fill="rgb(75,179,253)" fill-opacity="1" d=" M-27,-67 C-27,-67 -10,-67 -10,-67 C-10,-67 -10,52 -10,52 C-10,52 30,52 30,52 C30,52 30,64 30,64 C30,65.65699768066406 28.656999588012695,67 27,67 C27,67 -27,67 -27,67 C-28.656999588012695,67 -30,65.65699768066406 -30,64 C-30,64 -30,-64 -30,-64 C-30,-65.65699768066406 -28.656999588012695,-67 -27,-67z"/></g></g><g transform="matrix(1,0,0,1,215,137.5)" opacity="1" style="display: block;"><g opacity="1" transform="matrix(1,0,0,1,0,0)"><path stroke-linecap="butt" stroke-linejoin="round" fill-opacity="0" class="primary" stroke="rgb(18,19,49)" stroke-opacity="1" stroke-width="7" d=" M-64,-16.023000717163086 C-64,-16.023000717163086 -61.2859992980957,-16.023000717163086 -61.2859992980957,-16.023000717163086 C-35.80799865722656,-16.023000717163086 -14.404999732971191,-35.18000030517578 -11.592000007629395,-60.50199890136719 C-11.592000007629395,-60.50199890136719 -6.730999946594238,-104.25499725341797 -6.730999946594238,-104.25499725341797 C-5.89300012588501,-111.79499816894531 0.4790000021457672,-117.5 8.0649995803833,-117.5 C27.249000549316406,-117.5 42.80099868774414,-101.94499969482422 42.80099868774414,-82.75800323486328 C42.80099868774414,-82.75800323486328 42.80099868774414,-26.704999923706055 42.80099868774414,-26.704999923706055 C42.80099868774414,-26.704999923706055 97.29399871826172,-26.704999923706055 97.29399871826172,-26.704999923706055 C113.5979995727539,-26.704999923706055 126.09500122070312,-12.217000007629395 123.70600128173828,3.9140000343322754 C123.70600128173828,3.9140000343322754 110.25700378417969,94.70899963378906 110.25700378417969,94.70899963378906 C108.31700134277344,107.8030014038086 97.08000183105469,117.5 83.84500122070312,117.5 C83.84500122070312,117.5 -15.9399995803833,117.5 -15.9399995803833,117.5 C-15.9399995803833,117.5 -64,96.13600158691406 -64,96.13600158691406 M-64,-26.5 C-64,-26.5 -124,-26.5 -124,-26.5 C-124,-26.5 -124,107.5 -124,107.5 C-124,107.5 -64,107.5 -64,107.5 C-64,107.5 -64,-26.5 -64,-26.5z"/></g></g></g></g></svg>