<svg xmlns="http://www.w3.org/2000/svg" xmlns:xlink="http://www.w3.org/1999/xlink" viewBox="0 0 430 430" width="430" height="430" preserveAspectRatio="xMidYMid meet" style="width: 100%; height: 100%; transform: translate3d(0px, 0px, 0px); content-visibility: visible;"><defs><clipPath id="__lottie_element_12733"><rect width="430" height="430" x="0" y="0"/></clipPath><clipPath id="__lottie_element_12735"><path d="M0,0 L430,0 L430,430 L0,430z"/></clipPath></defs><g clip-path="url(#__lottie_element_12733)"><g clip-path="url(#__lottie_element_12735)" transform="matrix(1,0,0,1,0,0)" opacity="1" style="display: block;"><g transform="matrix(1,0,0,1,214.99900817871094,214.91099548339844)" opacity="1" style="display: block;"><g opacity="1" transform="matrix(1,0,0,1,0,0)"><path class="secondary" fill="rgb(44,165,141)" fill-opacity="1" d=" M1.3300000429153442,179.4459991455078 C0.5090000033378601,179.843994140625 -0.5090000033378601,179.843994140625 -1.3300000429153442,179.4459991455078 C-185.98800659179688,89.8949966430664 -169.5500030517578,-45.09600067138672 -169.1929931640625,-128.03399658203125 C-169.18699645996094,-129.5260009765625 -168.13600158691406,-130.7480010986328 -166.66200256347656,-130.97999572753906 C-114.47100067138672,-139.1840057373047 -11.914999961853027,-175.64100646972656 -0.9549999833106995,-179.5679931640625 C-0.29600000381469727,-179.8040008544922 0.29600000381469727,-179.8040008544922 0.9549999833106995,-179.5679931640625 C11.914999961853027,-175.64100646972656 114.47200012207031,-139.18299865722656 166.66299438476562,-130.97000122070312 C168.13699340820312,-130.73800659179688 169.18699645996094,-129.51600646972656 169.1929931640625,-128.0240020751953 C169.5500030517578,-45.09600067138672 185.98800659179688,89.8949966430664 1.3300000429153442,179.4459991455078z"/></g></g><g transform="matrix(1,0,0,1,130.14401245117188,214.91099548339844)" opacity="0.5" style="mix-blend-mode: multiply; display: block;"><g opacity="1" transform="matrix(1,0,0,1,0,0)"><path class="secondary" fill="rgb(44,165,141)" fill-opacity="1" d=" M83.95800018310547,-179.58799743652344 C75.27300262451172,-176.4759979248047 5.300000190734863,-151.58399963378906 -48.58399963378906,-138.0449981689453 C-60.78200149536133,-134.97999572753906 -72.15599822998047,-132.4969940185547 -81.80699920654297,-130.97999572753906 C-83.28099822998047,-130.7480010986328 -84.33200073242188,-129.5260009765625 -84.33799743652344,-128.03399658203125 C-84.36299896240234,-122.19000244140625 -84.46900177001953,-116.08799743652344 -84.5780029296875,-109.76100158691406 C-84.71399688720703,-101.86499786376953 -84.8550033569336,-93.61900329589844 -84.8550033569336,-85.09100341796875 C-84.85700225830078,-3.4609999656677246 -71.87899780273438,104.10700225830078 83.58300018310547,179.4739990234375 C83.97899627685547,179.65499877929688 84.41600036621094,179.7449951171875 84.8550033569336,179.7449951171875 C84.8550033569336,179.7449951171875 84.8550033569336,-179.7449951171875 84.8550033569336,-179.7449951171875 C84.56099700927734,-179.7449951171875 84.26599884033203,-179.69200134277344 83.95800018310547,-179.58799743652344z"/></g></g><g transform="matrix(1,0,0,1,219.55999755859375,215)" opacity="1" style="display: block;"><g opacity="1" transform="matrix(1,0,0,1,0,0)"><path class="tertiary" fill="rgb(235,230,239)" fill-opacity="1" d=" M-24.871999740600586,70 C-24.871999740600586,70 88.55999755859375,-43.43299865722656 88.55999755859375,-43.43299865722656 C88.55999755859375,-43.43299865722656 61.99300003051758,-70 61.99300003051758,-70 C61.99300003051758,-70 -24.871999740600586,16.865999221801758 -24.871999740600586,16.865999221801758 C-24.871999740600586,16.865999221801758 -61.99300003051758,-20.2549991607666 -61.99300003051758,-20.2549991607666 C-61.99300003051758,-20.2549991607666 -88.55999755859375,6.311999797821045 -88.55999755859375,6.311999797821045 C-88.55999755859375,6.311999797821045 -24.871999740600586,70 -24.871999740600586,70z"/></g><g opacity="1" transform="matrix(1,0,0,1,-56.5,25.5)" style="mix-blend-mode: multiply;"><path class="tertiary" fill="rgb(235,230,239)" fill-opacity="0.5" d=" M-31.857999801635742,-18.559999465942383 C-31.857999801635742,-18.559999465942383 31.82900047302246,45.12799835205078 31.82900047302246,45.12799835205078 C31.82900047302246,45.12799835205078 31.857999801635742,-8.03600025177002 31.857999801635742,-8.03600025177002 C31.857999801635742,-8.03600025177002 31.82900047302246,-8.006999969482422 31.82900047302246,-8.006999969482422 C31.82900047302246,-8.006999969482422 -5.290999889373779,-45.12799835205078 -5.290999889373779,-45.12799835205078 C-5.290999889373779,-45.12799835205078 -31.857999801635742,-18.559999465942383 -31.857999801635742,-18.559999465942383z"/></g></g><g transform="matrix(1,0,0,1,219.55999755859375,215)" opacity="1" style="display: block;"><path stroke-linecap="round" stroke-linejoin="round" fill-opacity="0" class="primary" stroke="rgb(18,19,49)" stroke-opacity="1" stroke-width="7" d=" M-24.871999740600586,70 C-24.871999740600586,70 88.55999755859375,-43.43299865722656 88.55999755859375,-43.43299865722656 C88.55999755859375,-43.43299865722656 61.99300003051758,-70 61.99300003051758,-70 C61.99300003051758,-70 -24.871999740600586,16.865999221801758 -24.871999740600586,16.865999221801758 C-24.871999740600586,16.865999221801758 -61.99300003051758,-20.2549991607666 -61.99300003051758,-20.2549991607666 C-61.99300003051758,-20.2549991607666 -88.55999755859375,6.311999797821045 -88.55999755859375,6.311999797821045 C-88.55999755859375,6.311999797821045 -24.871999740600586,70 -24.871999740600586,70z"/><g opacity="1" transform="matrix(1,0,0,1,0,0)"/></g><g transform="matrix(1,0,0,1,214.9980010986328,215)" opacity="1" style="display: block;"><g opacity="1" transform="matrix(1,0,0,1,0,0)"><path stroke-linecap="round" stroke-linejoin="round" fill-opacity="0" class="primary" stroke="rgb(18,19,49)" stroke-opacity="1" stroke-width="7" d=" M169.18699645996094,-130.67799377441406 C169.18699645996094,-47.79600143432617 187.9929962158203,89.5270004272461 0,180 C-187.9929962158203,89.5270004272461 -169.18699645996094,-47.79600143432617 -169.18699645996094,-130.68800354003906 C-114.96399688720703,-138.48500061035156 0,-180 0,-180 C0,-180 114.96399688720703,-138.48500061035156 169.18699645996094,-130.67799377441406z"/></g></g></g></g></svg>