<svg xmlns="http://www.w3.org/2000/svg" xmlns:xlink="http://www.w3.org/1999/xlink" viewBox="0 0 430 430" width="430" height="430" preserveAspectRatio="xMidYMid meet" style="width: 100%; height: 100%; transform: translate3d(0px, 0px, 0px); content-visibility: visible;"><defs><clipPath id="__lottie_element_2898"><rect width="430" height="430" x="0" y="0"/></clipPath><clipPath id="__lottie_element_2900"><path d="M0,0 L430,0 L430,430 L0,430z"/></clipPath></defs><g clip-path="url(#__lottie_element_2898)"><g clip-path="url(#__lottie_element_2900)" transform="matrix(1,0,0,1,0,0)" opacity="1" style="display: block;"><g transform="matrix(1,0,0,1,1.5,0)" opacity="1" style="display: block;"><g opacity="1" transform="matrix(1,0,0,1,334.75,334.75)"><g opacity="1" transform="matrix(0.7071067690849304,0.7071067690849304,-0.7071067690849304,0.7071067690849304,0,0)"><path stroke-linecap="butt" stroke-linejoin="miter" fill-opacity="0" stroke-miterlimit="4" class="primary" stroke="rgb(18,19,49)" stroke-opacity="1" stroke-width="7" d=" M56.922000885009766,0 C56.922000885009766,0 -56.922000885009766,0 -56.922000885009766,0"/></g></g><g opacity="1" transform="matrix(1,0,0,1,344.947998046875,344.94500732421875)"><g opacity="1" transform="matrix(1,0,0,1,0,0)"><path class="quaternary" fill="rgb(178,104,54)" fill-opacity="1" d=" M-37.12300109863281,-22.981000900268555 C-41.02799987792969,-19.076000213623047 -41.02799987792969,-12.744000434875488 -37.12300109863281,-8.83899974822998 C-37.12300109863281,-8.83899974822998 8.83899974822998,37.12300109863281 8.83899974822998,37.12300109863281 C12.744000434875488,41.02799987792969 19.076000213623047,41.02799987792969 22.981000900268555,37.12300109863281 C22.981000900268555,37.12300109863281 37.12300109863281,22.981000900268555 37.12300109863281,22.981000900268555 C41.02799987792969,19.076000213623047 41.02799987792969,12.744000434875488 37.12300109863281,8.83899974822998 C37.12300109863281,8.83899974822998 -8.83899974822998,-37.12300109863281 -8.83899974822998,-37.12300109863281 C-12.744000434875488,-41.02799987792969 -19.076000213623047,-41.02799987792969 -22.981000900268555,-37.12300109863281 C-22.981000900268555,-37.12300109863281 -37.12300109863281,-22.981000900268555 -37.12300109863281,-22.981000900268555z"/></g></g><g opacity="0.5" transform="matrix(1,0,0,1,339.947998046875,349.94500732421875)" style="mix-blend-mode: multiply;"><g opacity="1" transform="matrix(1,0,0,1,0,0)"><path class="quaternary" fill="rgb(178,104,54)" fill-opacity="1" d=" M-32.12300109863281,-13.83899974822998 C-32.12300109863281,-13.83899974822998 13.83899974822998,32.12300109863281 13.83899974822998,32.12300109863281 C17.743999481201172,36.02799987792969 24.076000213623047,36.02799987792969 27.981000900268555,32.12300109863281 C27.981000900268555,32.12300109863281 35.051998138427734,25.052000045776367 35.051998138427734,25.052000045776367 C35.051998138427734,25.052000045776367 -25.052000045776367,-35.051998138427734 -25.052000045776367,-35.051998138427734 C-25.052000045776367,-35.051998138427734 -32.12300109863281,-27.981000900268555 -32.12300109863281,-27.981000900268555 C-36.02799987792969,-24.076000213623047 -36.02799987792969,-17.743999481201172 -32.12300109863281,-13.83899974822998z"/></g></g><g opacity="1" transform="matrix(1,0,0,1,344.947998046875,344.94500732421875)"><g opacity="1" transform="matrix(1,0,0,1,0,0)"><path stroke-linecap="butt" stroke-linejoin="miter" fill-opacity="0" stroke-miterlimit="4" class="primary" stroke="rgb(18,19,49)" stroke-opacity="1" stroke-width="7" d=" M-37.12300109863281,-22.981000900268555 C-41.02799987792969,-19.076000213623047 -41.02799987792969,-12.744000434875488 -37.12300109863281,-8.83899974822998 C-37.12300109863281,-8.83899974822998 8.83899974822998,37.12300109863281 8.83899974822998,37.12300109863281 C12.744000434875488,41.02799987792969 19.076000213623047,41.02799987792969 22.981000900268555,37.12300109863281 C22.981000900268555,37.12300109863281 37.12300109863281,22.981000900268555 37.12300109863281,22.981000900268555 C41.02799987792969,19.076000213623047 41.02799987792969,12.744000434875488 37.12300109863281,8.83899974822998 C37.12300109863281,8.83899974822998 -8.83899974822998,-37.12300109863281 -8.83899974822998,-37.12300109863281 C-12.744000434875488,-41.02799987792969 -19.076000213623047,-41.02799987792969 -22.981000900268555,-37.12300109863281 C-22.981000900268555,-37.12300109863281 -37.12300109863281,-22.981000900268555 -37.12300109863281,-22.981000900268555z"/></g></g></g><g transform="matrix(1,0,0,1,1.5,0)" opacity="1" style="display: block;"><g opacity="1" transform="matrix(1,0,0,1,192.4969940185547,191.5)"><g opacity="1" transform="matrix(1,0,0,1,0,0)"><path class="tertiary" fill="rgb(75,179,253)" fill-opacity="1" d=" M0,-140 C77.31999969482422,-140 140,-77.31999969482422 140,0 C140,77.31999969482422 77.31999969482422,140 0,140 C-77.31999969482422,140 -140,77.31999969482422 -140,0 C-140,-77.31999969482422 -77.31999969482422,-140 0,-140z"/></g></g><g opacity="0.5" transform="matrix(1,0,0,1,177.13099670410156,206.86399841308594)" style="mix-blend-mode: multiply;"><g opacity="1" transform="matrix(1,0,0,1,0,0)"><path class="tertiary" fill="rgb(75,179,253)" fill-opacity="1" d=" M40.36600112915039,104.63700103759766 C74.03500366210938,104.63700103759766 105.02300262451172,93.16200256347656 129.63400268554688,73.90899658203125 C103.09400177001953,107.83200073242188 61.7760009765625,129.63600158691406 15.366000175476074,129.63600158691406 C-64.71499633789062,129.63600158691406 -129.63400268554688,64.71700286865234 -129.63400268554688,-15.36400032043457 C-129.63400268554688,-61.777000427246094 -107.8280029296875,-103.09600067138672 -73.9020004272461,-129.63600158691406 C-93.15699768066406,-105.02400207519531 -104.63400268554688,-74.03399658203125 -104.63400268554688,-40.362998962402344 C-104.63400268554688,39.71799850463867 -39.71500015258789,104.63700103759766 40.36600112915039,104.63700103759766z"/></g></g></g><g transform="matrix(1,0,0,1,193.9969940185547,191.5)" opacity="1" style="display: block;"><g opacity="1" transform="matrix(1,0,0,1,0,0)"><path class="secondary" fill="rgb(235,230,239)" fill-opacity="1" d=" M130,0 C130,71.7969970703125 71.7969970703125,130 0,130 C-71.7969970703125,130 -130,71.7969970703125 -130,0 C-130,-71.7969970703125 -71.7969970703125,-130 0,-130 C71.7969970703125,-130 130,-71.7969970703125 130,0z M145,0 C145,-80.08100128173828 80.08100128173828,-145 0,-145 C-80.08100128173828,-145 -145,-80.08100128173828 -145,0 C-145,80.08100128173828 -80.08100128173828,145 0,145 C80.08100128173828,145 145,80.08100128173828 145,0z"/></g></g><g transform="matrix(1,0,0,1,1.5,0)" opacity="1" style="display: block;"><g opacity="1" transform="matrix(1,0,0,1,192.4969940185547,191.5)"><g opacity="1" transform="matrix(1,0,0,1,0,0)"><path stroke-linecap="butt" stroke-linejoin="miter" fill-opacity="0" stroke-miterlimit="4" class="primary" stroke="rgb(18,19,49)" stroke-opacity="1" stroke-width="7" d=" M0,-145 C80.02549743652344,-145 145,-80.02549743652344 145,0 C145,80.02549743652344 80.02549743652344,145 0,145 C-80.02549743652344,145 -145,80.02549743652344 -145,0 C-145,-80.02549743652344 -80.02549743652344,-145 0,-145z"/></g></g></g><g transform="matrix(1,0,0,1,0,0)" opacity="1" style="display: block;"><g opacity="1" transform="matrix(1,0,0,1,205,195)"><g opacity="1" transform="matrix(1,0,0,1,0,0)"><path class="quinary" fill="rgb(58,51,71)" fill-opacity="1" d=" M-155,-55 C-166.04600524902344,-55 -175,-46.04600143432617 -175,-35 C-175,-35 -175,35 -175,35 C-175,46.04600143432617 -166.04600524902344,55 -155,55 C-155,55 155,55 155,55 C166.04600524902344,55 175,46.04600143432617 175,35 C175,35 175,-35 175,-35 C175,-46.04600143432617 166.04600524902344,-55 155,-55 C155,-55 -155,-55 -155,-55z"/></g></g><g opacity="0.5" transform="matrix(1,0,0,1,55,195)" style="mix-blend-mode: multiply;"><g opacity="1" transform="matrix(1,0,0,1,0,0)"><path class="quinary" fill="rgb(58,51,71)" fill-opacity="1" d=" M-25,-35 C-25,-46.04600143432617 -16.04599952697754,-55 -5,-55 C-5,-55 25,-55 25,-55 C13.954000473022461,-55 5,-46.04600143432617 5,-35 C5,-35 5,35 5,35 C5,46.04600143432617 13.954000473022461,55 25,55 C25,55 -5,55 -5,55 C-16.04599952697754,55 -25,46.04600143432617 -25,35 C-25,35 -25,-35 -25,-35z"/></g></g></g><g transform="matrix(1,0,0,1,0,0)" opacity="1" style="display: block;"><g opacity="1" transform="matrix(1,0,0,1,205,195)"><g opacity="1" transform="matrix(1,0,0,1,0,0)"><path stroke-linecap="round" stroke-linejoin="round" fill-opacity="0" class="primary" stroke="rgb(18,19,49)" stroke-opacity="1" stroke-width="7" d=" M-155,-55 C-166.04600524902344,-55 -175,-46.04600143432617 -175,-35 C-175,-35 -175,35 -175,35 C-175,46.04600143432617 -166.04600524902344,55 -155,55 C-155,55 155,55 155,55 C166.04600524902344,55 175,46.04600143432617 175,35 C175,35 175,-35 175,-35 C175,-46.04600143432617 166.04600524902344,-55 155,-55 C155,-55 -155,-55 -155,-55z"/></g></g></g><g transform="matrix(1,0,0,1,0,0)" opacity="1" style="display: block;"><g opacity="1" transform="matrix(1,0,0,1,117.5,195)"><g opacity="1" transform="matrix(1,0,0,1,0,0)"><path stroke-linecap="round" stroke-linejoin="round" fill-opacity="0" class="secondary" stroke="rgb(235,230,239)" stroke-opacity="1" stroke-width="7" d=" M27.5,-25 C27.5,-25 17.416000366210938,25 17.416000366210938,25 C17.416000366210938,25 0,-7.593999862670898 0,-7.593999862670898 C0,-7.593999862670898 -17.416000366210938,25 -17.416000366210938,25 C-17.416000366210938,25 -27.5,-25 -27.5,-25"/></g></g><g opacity="1" transform="matrix(1,0,0,1,197.5,195)"><g opacity="1" transform="matrix(1,0,0,1,0,0)"><path stroke-linecap="round" stroke-linejoin="round" fill-opacity="0" class="secondary" stroke="rgb(235,230,239)" stroke-opacity="1" stroke-width="7" d=" M27.5,-25 C27.5,-25 17.416000366210938,25 17.416000366210938,25 C17.416000366210938,25 0,-7.593999862670898 0,-7.593999862670898 C0,-7.593999862670898 -17.416000366210938,25 -17.416000366210938,25 C-17.416000366210938,25 -27.5,-25 -27.5,-25"/></g></g><g opacity="1" transform="matrix(1,0,0,1,277.5,195)"><g opacity="1" transform="matrix(1,0,0,1,0,0)"><path stroke-linecap="round" stroke-linejoin="round" fill-opacity="0" class="secondary" stroke="rgb(235,230,239)" stroke-opacity="1" stroke-width="7" d=" M27.5,-25 C27.5,-25 17.416000366210938,25 17.416000366210938,25 C17.416000366210938,25 0,-7.593999862670898 0,-7.593999862670898 C0,-7.593999862670898 -17.416000366210938,25 -17.416000366210938,25 C-17.416000366210938,25 -27.5,-25 -27.5,-25"/></g></g></g><g transform="matrix(1,0,0,1,0,0)" opacity="1" style="display: block;"><g opacity="1" transform="matrix(1,0,0,1,277.5,195)"><g opacity="1" transform="matrix(1,0,0,1,0,0)"><path stroke-linecap="round" stroke-linejoin="round" fill-opacity="0" class="secondary" stroke="rgb(235,230,239)" stroke-opacity="1" stroke-width="15" d=" M44.90599822998047,22.375 C44.90599822998047,22.375 45.06999969482422,22.371000289916992 45.06999969482422,22.371000289916992"/></g></g></g></g></g></svg>