<svg xmlns="http://www.w3.org/2000/svg" xmlns:xlink="http://www.w3.org/1999/xlink" viewBox="0 0 430 430" width="430" height="430" preserveAspectRatio="xMidYMid meet" style="width: 100%; height: 100%; transform: translate3d(0px, 0px, 0px); content-visibility: visible;"><defs><clipPath id="__lottie_element_3132"><rect width="430" height="430" x="0" y="0"/></clipPath><clipPath id="__lottie_element_3134"><path d="M0,0 L430,0 L430,430 L0,430z"/></clipPath></defs><g clip-path="url(#__lottie_element_3132)"><g clip-path="url(#__lottie_element_3134)" transform="matrix(1,0,0,1,0,0)" opacity="1" style="display: block;"><g transform="matrix(0.9999989867210388,0,0,0.9999989867210388,214.9980010986328,215.00299072265625)" opacity="1" style="display: block;"><g opacity="1" transform="matrix(1,0,0,1,0,0)"><path class="secondary" fill="rgb(235,230,239)" fill-opacity="1" d=" M159.1699981689453,-102.4000015258789 C159.1699981689453,-102.4000015258789 159.1699981689453,102.41999816894531 159.1699981689453,102.41999816894531 C159.1699981689453,104.08000183105469 157.8300018310547,105.41999816894531 156.1699981689453,105.41999816894531 C156.1699981689453,105.41999816894531 -156.1699981689453,105.41999816894531 -156.1699981689453,105.41999816894531 C-157.8300018310547,105.41999816894531 -159.1699981689453,104.08000183105469 -159.1699981689453,102.41999816894531 C-159.1699981689453,102.41999816894531 -159.1699981689453,-102.41999816894531 -159.1699981689453,-102.41999816894531 C-159.1699981689453,-103.25 -158.8300018310547,-104 -158.2899932861328,-104.54000091552734 C-157.75,-105.08999633789062 -157,-105.41999816894531 -156.1699981689453,-105.41999816894531 C-156.1699981689453,-105.41999816894531 -139.0399932861328,-105.41999816894531 -139.0399932861328,-105.41999816894531 C-139.0399932861328,-105.41999816894531 156.1699981689453,-105.4000015258789 156.1699981689453,-105.4000015258789 C157,-105.4000015258789 157.75,-105.06999969482422 158.2899932861328,-104.5199966430664 C158.8300018310547,-103.9800033569336 159.1699981689453,-103.2300033569336 159.1699981689453,-102.4000015258789z"/></g></g><g transform="matrix(0.9999989867210388,0,0,0.9999989867210388,-34.99874496459961,-36.00019836425781)" opacity="1" style="mix-blend-mode: multiply; display: block;"><g opacity="0.5" transform="matrix(1,0,0,1,146.1219940185547,298.37701416015625)"><path class="secondary" fill="rgb(235,230,239)" fill-opacity="1" d=" M54.64899826049805,-49.6609992980957 C54.64899826049805,-49.6609992980957 -55.00400161743164,37.07699966430664 -55.00400161743164,37.07699966430664 C-55.00400161743164,37.07699966430664 -54.909000396728516,23.256999969482422 -54.909000396728516,23.256999969482422 C-54.909000396728516,23.256999969482422 27.509000778198242,-47.494998931884766 27.509000778198242,-47.494998931884766 C29.069000244140625,-48.8489990234375 37.694000244140625,-54.24800109863281 46.4010009765625,-59.30400085449219 C44.45399856567383,-60.31100082397461 42.60100173950195,-61.65700149536133 39.659000396728516,-64.06300354003906 C23.54800033569336,-78.31900024414062 -28.750999450683594,-119.78199768066406 -54.375,-147.23699951171875 C-54.819000244140625,-149.6269989013672 -55.856998443603516,-153.21099853515625 -53.14899826049805,-152.8260040283203 C-13.628999710083008,-147.20199584960938 162.8939971923828,-139.28700256347656 250.55499267578125,-153.0749969482422 C254.56700134277344,-153.70599365234375 256.60101318359375,-156.1529998779297 258.0069885253906,-150.5240020751953 C241.88099670410156,-132.2530059814453 181.38800048828125,-72.20600128173828 177.64599609375,-69.13999938964844 C171.5800018310547,-64.16899871826172 170.5,-60.5620002746582 166.4409942626953,-57.65800094604492 C173.2030029296875,-53.92399978637695 173.66900634765625,-52.71200180053711 178.80499267578125,-48.04600143432617 C208.15899658203125,-21.378999710083008 254.84800720214844,23.82900047302246 262.593994140625,30.704999923706055 C262.593994140625,30.704999923706055 262.1659851074219,37.827999114990234 262.4360046386719,43.3120002746582 C240.52099609375,26.649999618530273 168.42599487304688,-39.176998138427734 153.71499633789062,-48.999000549316406 C138.66600036621094,-59.047000885009766 121.86799621582031,-59.71200180053711 107.4219970703125,-59.59700012207031 C83.09300231933594,-59.40399932861328 54.64899826049805,-49.6609992980957 54.64899826049805,-49.6609992980957z"/></g></g><g transform="matrix(0.9999989867210388,0,0,0.9999989867210388,214.9980010986328,215.00299072265625)" opacity="1" style="display: block;"><g opacity="1" transform="matrix(1,0,0,1,0,0)"><path stroke-linecap="round" stroke-linejoin="round" fill-opacity="0" class="primary" stroke="rgb(18,19,49)" stroke-opacity="1" stroke-width="10.5" d=" M159.1699981689453,-102.4000015258789 C159.1699981689453,-102.4000015258789 159.1699981689453,102.41999816894531 159.1699981689453,102.41999816894531 C159.1699981689453,104.08000183105469 157.8300018310547,105.41999816894531 156.1699981689453,105.41999816894531 C156.1699981689453,105.41999816894531 -156.1699981689453,105.41999816894531 -156.1699981689453,105.41999816894531 C-157.8300018310547,105.41999816894531 -159.1699981689453,104.08000183105469 -159.1699981689453,102.41999816894531 C-159.1699981689453,102.41999816894531 -159.1699981689453,-102.41999816894531 -159.1699981689453,-102.41999816894531 C-159.1699981689453,-103.25 -158.8300018310547,-104 -158.2899932861328,-104.54000091552734 C-157.75,-105.08999633789062 -157,-105.41999816894531 -156.1699981689453,-105.41999816894531 C-156.1699981689453,-105.41999816894531 -139.0399932861328,-105.41999816894531 -139.0399932861328,-105.41999816894531 C-139.0399932861328,-105.41999816894531 156.1699981689453,-105.4000015258789 156.1699981689453,-105.4000015258789 C157,-105.4000015258789 157.75,-105.06999969482422 158.2899932861328,-104.5199966430664 C158.8300018310547,-103.9800033569336 159.1699981689453,-103.2300033569336 159.1699981689453,-102.4000015258789z"/></g></g><g transform="matrix(3.700000047683716,0,0,3.700000047683716,214.8426055908203,181.3181915283203)" opacity="1" style="display: block;"><g opacity="1" transform="matrix(1,0,0,1,0,0)"><path stroke-linecap="round" stroke-linejoin="round" fill-opacity="0" class="primary" stroke="rgb(18,19,49)" stroke-opacity="1" stroke-width="3" d=" M-42.736000061035156,31.736000061035156 C-42.736000061035156,31.736000061035156 -28.466999053955078,19.847000122070312 -19.81399917602539,13.01099967956543 C-13.8149995803833,8.272000312805176 -7.361000061035156,6.10699987411499 0.2809999883174896,5.9039998054504395 C7.4730000495910645,5.7129998207092285 13.46399974822998,7.604000091552734 18.88800048828125,12.331000328063965 C27.788999557495117,20.08799934387207 43.119998931884766,33.582000732421875 43.119998931884766,33.582000732421875"/></g><g opacity="0" transform="matrix(1,0,0,1,0,0)"><path stroke-linecap="round" stroke-linejoin="round" fill-opacity="0" class="primary" stroke="rgb(18,19,49)" stroke-opacity="1" stroke-width="3" d=" M-41.60300064086914,-19.426000595092773 C-41.60300064086914,-19.426000595092773 -14.100000381469727,9.029000282287598 -14.100000381469727,9.029000282287598 M42.20500183105469,-19.426000595092773 C42.20500183105469,-19.426000595092773 14.506999969482422,9.13700008392334 14.506999969482422,9.13700008392334"/></g></g><g transform="matrix(0.9999989867210388,0,0,0.9999989867210388,-34.99773025512695,-35.99979019165039)" opacity="1" style="display: block;"><g opacity="1" transform="matrix(1,0,0,1,249.99600219726562,216.81500244140625)"><path class="tertiary" fill="rgb(75,179,253)" fill-opacity="1" d=" M158.2899932861328,-71.33300018310547 C158.2899932861328,-71.33300018310547 26.010000228881836,61.39699935913086 26.010000228881836,61.39699935913086 C20.110000610351562,67.2969970703125 12.720000267028809,70.78700256347656 5.059999942779541,71.86699676513672 C-6.050000190734863,73.43699645996094 -17.729999542236328,69.9469985961914 -26.270000457763672,61.39699935913086 C-26.270000457763672,61.39699935913086 -158.2899932861328,-71.35299682617188 -158.2899932861328,-71.35299682617188 C-158.2899932861328,-71.35299682617188 -156.1699981689453,-72.23300170898438 -156.1699981689453,-72.23300170898438 C-156.1699981689453,-72.23300170898438 -139.0399932861328,-72.23300170898438 -139.0399932861328,-72.23300170898438 C-139.0399932861328,-72.23300170898438 156.1699981689453,-72.21299743652344 156.1699981689453,-72.21299743652344 C157,-72.21299743652344 157.75,-71.88300323486328 158.2899932861328,-71.33300018310547z"/></g><g opacity="0.5" transform="matrix(1,0,0,1,173.38099670410156,216.81500244140625)" style="mix-blend-mode: multiply;"><path class="tertiary" fill="rgb(75,179,253)" fill-opacity="1" d=" M-81.67500305175781,-71.35299682617188 C-81.67500305175781,-71.35299682617188 50.345001220703125,61.39699935913086 50.345001220703125,61.39699935913086 C58.8849983215332,69.9469985961914 70.56500244140625,73.43699645996094 81.67500305175781,71.86699676513672 C81.67500305175781,71.86699676513672 -62.42499923706055,-72.23300170898438 -62.42499923706055,-72.23300170898438 C-62.42499923706055,-72.23300170898438 -79.55500030517578,-72.23300170898438 -79.55500030517578,-72.23300170898438 C-79.55500030517578,-72.23300170898438 -81.67500305175781,-71.35299682617188 -81.67500305175781,-71.35299682617188z"/></g><g opacity="1" transform="matrix(1,0,0,1,249.99600219726562,216.81500244140625)"><path stroke-linecap="round" stroke-linejoin="round" fill-opacity="0" class="primary" stroke="rgb(18,19,49)" stroke-opacity="1" stroke-width="10.5" d=" M158.2899932861328,-71.33300018310547 C158.2899932861328,-71.33300018310547 26.010000228881836,61.39699935913086 26.010000228881836,61.39699935913086 C20.110000610351562,67.2969970703125 12.720000267028809,70.78700256347656 5.059999942779541,71.86699676513672 C-6.050000190734863,73.43699645996094 -17.729999542236328,69.9469985961914 -26.270000457763672,61.39699935913086 C-26.270000457763672,61.39699935913086 -158.2899932861328,-71.35299682617188 -158.2899932861328,-71.35299682617188 C-158.2899932861328,-71.35299682617188 -156.1699981689453,-72.23300170898438 -156.1699981689453,-72.23300170898438 C-156.1699981689453,-72.23300170898438 -139.0399932861328,-72.23300170898438 -139.0399932861328,-72.23300170898438 C-139.0399932861328,-72.23300170898438 156.1699981689453,-72.21299743652344 156.1699981689453,-72.21299743652344 C157,-72.21299743652344 157.75,-71.88300323486328 158.2899932861328,-71.33300018310547z"/></g></g></g></g></svg>