<svg xmlns="http://www.w3.org/2000/svg" xmlns:xlink="http://www.w3.org/1999/xlink" viewBox="0 0 430 430" width="430" height="430" preserveAspectRatio="xMidYMid meet" style="width: 100%; height: 100%; transform: translate3d(0px, 0px, 0px); content-visibility: visible;"><defs><clipPath id="__lottie_element_4178"><rect width="430" height="430" x="0" y="0"/></clipPath><clipPath id="__lottie_element_4180"><path d="M0,0 L430,0 L430,430 L0,430z"/></clipPath><g id="__lottie_element_4197"><g transform="matrix(1,0,0,1,215,215)" opacity="1" style="display: block;"><g opacity="1" transform="matrix(1,0,0,1,59,24.25)"><path fill="rgb(255,0,0)" fill-opacity="1" d=" M101,-132.75 C101,-132.75 101,132.75 101,132.75 C101,132.75 -101,132.75 -101,132.75 C-101,132.75 -101,-132.75 -101,-132.75 C-101,-132.75 101,-132.75 101,-132.75z"/></g></g></g><g id="__lottie_element_4202"><g transform="matrix(1,0,0,1,215,215)" opacity="1" style="display: block;"><g opacity="1" transform="matrix(1,0,0,1,59,24.25)"><path fill="rgb(255,0,0)" fill-opacity="1" d=" M101,-133.218994140625 C101,-133.218994140625 101,135.75 101,135.75 C101,135.75 -101,135.75 -101,135.75 C-101,135.75 -101,-133.218994140625 -101,-133.218994140625 C-101,-133.218994140625 101,-133.218994140625 101,-133.218994140625z"/></g></g></g><g id="__lottie_element_4208"><g transform="matrix(1,0,0,1,215,215)" opacity="1" style="display: block;"><g opacity="1" transform="matrix(1,0,0,1,59,24.25)"><path fill="rgb(255,0,0)" fill-opacity="1" d=" M101,-133.18800354003906 C101,-133.18800354003906 101,135.81199645996094 101,135.81199645996094 C101,135.81199645996094 -101,135.81199645996094 -101,135.81199645996094 C-101,135.81199645996094 -101,-133.18800354003906 -101,-133.18800354003906 C-101,-133.18800354003906 101,-133.18800354003906 101,-133.18800354003906z"/></g></g></g><mask id="__lottie_element_4208_1" mask-type="alpha"><use xmlns:ns1="http://www.w3.org/1999/xlink" ns1:href="#__lottie_element_4208"/></mask><mask id="__lottie_element_4202_1" mask-type="alpha"><use xmlns:ns2="http://www.w3.org/1999/xlink" ns2:href="#__lottie_element_4202"/></mask><mask id="__lottie_element_4197_1" mask-type="alpha"><use xmlns:ns3="http://www.w3.org/1999/xlink" ns3:href="#__lottie_element_4197"/></mask></defs><g clip-path="url(#__lottie_element_4178)"><g clip-path="url(#__lottie_element_4180)" transform="matrix(1,0,0,1,0,0)" opacity="1" style="display: block;"><g transform="matrix(1,0,0,1,215,215)" opacity="1" style="display: block;"><g opacity="1" transform="matrix(1,0,0,1,0,0)"><path class="quinary" fill="rgb(235,230,239)" fill-opacity="1" d=" M137.7100067138672,-160.1199951171875 C137.7100067138672,-160.1199951171875 -137.7100067138672,-160.1199951171875 -137.7100067138672,-160.1199951171875 C-150.08700561523438,-160.1199951171875 -160.1199951171875,-150.08700561523438 -160.1199951171875,-137.7100067138672 C-160.1199951171875,-137.7100067138672 -160.1199951171875,137.7100067138672 -160.1199951171875,137.7100067138672 C-160.1199951171875,150.08700561523438 -150.08700561523438,160.1199951171875 -137.7100067138672,160.1199951171875 C-137.7100067138672,160.1199951171875 137.7100067138672,160.1199951171875 137.7100067138672,160.1199951171875 C150.08700561523438,160.1199951171875 160.1199951171875,150.08700561523438 160.1199951171875,137.7100067138672 C160.1199951171875,137.7100067138672 160.1199951171875,-137.7100067138672 160.1199951171875,-137.7100067138672 C160.1199951171875,-150.08700561523438 150.08700561523438,-160.1199951171875 137.7100067138672,-160.1199951171875z"/></g><g opacity="1" transform="matrix(1,0,0,1,0,-134.75)"><path class="septenary" fill="rgb(58,51,71)" fill-opacity="1" d=" M160.11000061035156,25.704999923706055 C160.11000061035156,25.704999923706055 160.11000061035156,-3.2950000762939453 160.11000061035156,-3.2950000762939453 C160.11000061035156,-3.2950000762939453 160.11000061035156,-3.2950000762939453 160.11000061035156,-3.2950000762939453 C160.11099243164062,-6.236999988555908 159.5330047607422,-9.149999618530273 158.40899658203125,-11.868000030517578 C157.28500366210938,-14.586000442504883 155.63499450683594,-17.055999755859375 153.55599975585938,-19.136999130249023 C151.4770050048828,-21.218000411987305 149.00799560546875,-22.868999481201172 146.29100036621094,-23.996000289916992 C143.57400512695312,-25.12299919128418 140.66200256347656,-25.70400047302246 137.72000122070312,-25.704999923706055 C137.72000122070312,-25.704999923706055 -137.7100067138672,-25.704999923706055 -137.7100067138672,-25.704999923706055 C-140.65199279785156,-25.704999923706055 -143.5659942626953,-25.125 -146.28399658203125,-23.999000549316406 C-149.0019989013672,-22.87299919128418 -151.47300720214844,-21.222000122070312 -153.55299377441406,-19.141000747680664 C-155.63299560546875,-17.059999465942383 -157.2830047607422,-14.58899974822998 -158.4080047607422,-11.869999885559082 C-159.5330047607422,-9.151000022888184 -160.11099243164062,-6.236999988555908 -160.11000061035156,-3.2950000762939453 C-160.11000061035156,-3.2950000762939453 -160.11000061035156,25.704999923706055 -160.11000061035156,25.704999923706055 C-160.11000061035156,25.704999923706055 160.11000061035156,25.704999923706055 160.11000061035156,25.704999923706055z"/></g><g opacity="1" transform="matrix(1,0,0,1,-72.06199645996094,-134.43800354003906)"><path stroke-linecap="round" stroke-linejoin="round" fill-opacity="0" class="secondary" stroke="rgb(44,165,141)" stroke-opacity="1" stroke-width="15" d=" M0.06499999761581421,0 C0.06499999761581421,0 -0.06499999761581421,0 -0.06499999761581421,0"/></g><g opacity="1" transform="matrix(1,0,0,1,-100.18800354003906,-134.43800354003906)"><path stroke-linecap="round" stroke-linejoin="round" fill-opacity="0" class="senary" stroke="rgb(255,199,56)" stroke-opacity="1" stroke-width="15" d=" M0.06499999761581421,0 C0.06499999761581421,0 -0.06499999761581421,0 -0.06499999761581421,0"/></g><g opacity="1" transform="matrix(1,0,0,1,-128.18800354003906,-134.43800354003906)"><path stroke-linecap="round" stroke-linejoin="round" fill-opacity="0" class="tertiary" stroke="rgb(242,76,0)" stroke-opacity="1" stroke-width="15" d=" M0.06499999761581421,0 C0.06499999761581421,0 -0.06499999761581421,0 -0.06499999761581421,0"/></g></g><g transform="matrix(1,0,0,1,1053.14404296875,330.3529968261719)" opacity="1" style="display: block;"><g opacity="1" transform="matrix(1,0,0,1,-939.364013671875,-89.66799926757812)"><path class="octonary" fill="rgb(75,179,253)" fill-opacity="1" d=" M58.900001525878906,-134.43499755859375 C58.900001525878906,-134.43499755859375 58.900001525878906,134.43499755859375 58.900001525878906,134.43499755859375 C58.900001525878906,134.43499755859375 -36.4900016784668,134.43499755859375 -36.4900016784668,134.43499755859375 C-48.869998931884766,134.43499755859375 -58.900001525878906,124.40499877929688 -58.900001525878906,112.0250015258789 C-58.900001525878906,112.0250015258789 -58.900001525878906,-134.43499755859375 -58.900001525878906,-134.43499755859375 C-58.900001525878906,-134.43499755859375 58.900001525878906,-134.43499755859375 58.900001525878906,-134.43499755859375z"/></g><g opacity="1" transform="matrix(1,0,0,1,-940.8499755859375,-161.4290008544922)"><path class="quinary" fill="rgb(235,230,239)" fill-opacity="1" d=" M33.98500061035156,0 C33.98500061035156,18.770000457763672 18.770000457763672,33.98500061035156 0,33.98500061035156 C-18.770000457763672,33.98500061035156 -33.98500061035156,18.770000457763672 -33.98500061035156,0 C-33.98500061035156,-18.770000457763672 -18.770000457763672,-33.98500061035156 0,-33.98500061035156 C18.770000457763672,-33.98500061035156 33.98500061035156,-18.770000457763672 33.98500061035156,0z"/><path stroke-linecap="round" stroke-linejoin="round" fill-opacity="0" class="primary" stroke="rgb(18,19,49)" stroke-opacity="1" stroke-width="7" d=" M33.98500061035156,0 C33.98500061035156,18.770000457763672 18.770000457763672,33.98500061035156 0,33.98500061035156 C-18.770000457763672,33.98500061035156 -33.98500061035156,18.770000457763672 -33.98500061035156,0 C-33.98500061035156,-18.770000457763672 -18.770000457763672,-33.98500061035156 0,-33.98500061035156 C18.770000457763672,-33.98500061035156 33.98500061035156,-18.770000457763672 33.98500061035156,0z"/></g><g opacity="1" transform="matrix(1,0,0,1,-940.8599853515625,-97.25399780273438)"><path stroke-linecap="round" stroke-linejoin="round" fill-opacity="0" class="primary" stroke="rgb(18,19,49)" stroke-opacity="1" stroke-width="7" d=" M-30.715999603271484,0 C-30.715999603271484,0 30.715999603271484,0 30.715999603271484,0"/></g><g opacity="1" transform="matrix(1,0,0,1,-930.3939819335938,-69.62100219726562)"><path stroke-linecap="round" stroke-linejoin="round" fill-opacity="0" class="primary" stroke="rgb(18,19,49)" stroke-opacity="1" stroke-width="7" d=" M-20.25,0 C-20.25,0 20.25,0 20.25,0"/></g><g opacity="1" transform="matrix(1,0,0,1,-971.1719970703125,-69.62100219726562)"><path stroke-linecap="round" stroke-linejoin="round" fill-opacity="0" class="primary" stroke="rgb(18,19,49)" stroke-opacity="1" stroke-width="10" d=" M-0.4050000011920929,0 C-0.4050000011920929,0 0.4050000011920929,0 0.4050000011920929,0"/></g><g opacity="1" transform="matrix(1,0,0,1,-940.8599853515625,-41.987998962402344)"><path stroke-linecap="round" stroke-linejoin="round" fill-opacity="0" class="primary" stroke="rgb(18,19,49)" stroke-opacity="1" stroke-width="7" d=" M-30.715999603271484,0 C-30.715999603271484,0 30.715999603271484,0 30.715999603271484,0"/></g><g opacity="1" transform="matrix(1,0,0,1,-940.8599853515625,-14.355999946594238)"><path stroke-linecap="round" stroke-linejoin="round" fill-opacity="0" class="primary" stroke="rgb(18,19,49)" stroke-opacity="1" stroke-width="7" d=" M-30.715999603271484,0 C-30.715999603271484,0 30.715999603271484,0 30.715999603271484,0"/></g></g><g transform="matrix(1,0,0,1,1053.14404296875,330.3529968261719)" opacity="1" style="display: block;"><g opacity="1" transform="matrix(1,0,0,1,-939.364013671875,-89.66799926757812)"><path stroke-linecap="round" stroke-linejoin="round" fill-opacity="0" class="primary" stroke="rgb(18,19,49)" stroke-opacity="1" stroke-width="7" d=" M58.900001525878906,-134.43499755859375 C58.900001525878906,-134.43499755859375 58.900001525878906,134.43499755859375 58.900001525878906,134.43499755859375 C58.900001525878906,134.43499755859375 58.900001525878906,-134.43499755859375 58.900001525878906,-134.43499755859375z"/></g></g><g mask="url(#__lottie_element_4202_1)" style="display: block;"><g transform="matrix(1,0,0,1,-34.50001525878906,243.00003051757812)" opacity="1"><g opacity="1" transform="matrix(1,0,0,1,0,0)"><g opacity="1" transform="matrix(1,0,0,1,308.8680114746094,234.49099731445312)"><path class="quaternary" fill="rgb(249,201,192)" fill-opacity="1" d=" M61.50600051879883,63.50600051879883 C61.50600051879883,63.50600051879883 -61.50600051879883,63.50600051879883 -61.50600051879883,63.50600051879883 C-62.611000061035156,63.50600051879883 -63.50600051879883,62.611000061035156 -63.50600051879883,61.50600051879883 C-63.50600051879883,61.50600051879883 -63.50600051879883,-61.50600051879883 -63.50600051879883,-61.50600051879883 C-63.50600051879883,-62.611000061035156 -62.611000061035156,-63.50600051879883 -61.50600051879883,-63.50600051879883 C-61.50600051879883,-63.50600051879883 61.50600051879883,-63.50600051879883 61.50600051879883,-63.50600051879883 C62.611000061035156,-63.50600051879883 63.50600051879883,-62.611000061035156 63.50600051879883,-61.50600051879883 C63.50600051879883,-61.50600051879883 63.50600051879883,61.50600051879883 63.50600051879883,61.50600051879883 C63.50600051879883,62.611000061035156 62.611000061035156,63.50600051879883 61.50600051879883,63.50600051879883z"/><path stroke-linecap="round" stroke-linejoin="round" fill-opacity="0" class="primary" stroke="rgb(18,19,49)" stroke-opacity="1" stroke-width="7" d=" M61.50600051879883,63.50600051879883 C61.50600051879883,63.50600051879883 -61.50600051879883,63.50600051879883 -61.50600051879883,63.50600051879883 C-62.611000061035156,63.50600051879883 -63.50600051879883,62.611000061035156 -63.50600051879883,61.50600051879883 C-63.50600051879883,61.50600051879883 -63.50600051879883,-61.50600051879883 -63.50600051879883,-61.50600051879883 C-63.50600051879883,-62.611000061035156 -62.611000061035156,-63.50600051879883 -61.50600051879883,-63.50600051879883 C-61.50600051879883,-63.50600051879883 61.50600051879883,-63.50600051879883 61.50600051879883,-63.50600051879883 C62.611000061035156,-63.50600051879883 63.50600051879883,-62.611000061035156 63.50600051879883,-61.50600051879883 C63.50600051879883,-61.50600051879883 63.50600051879883,61.50600051879883 63.50600051879883,61.50600051879883 C63.50600051879883,62.611000061035156 62.611000061035156,63.50600051879883 61.50600051879883,63.50600051879883z"/></g><g opacity="1" transform="matrix(1,0,0,1,296.4070129394531,254.7760009765625)"><path class="secondary" fill="rgb(44,165,141)" fill-opacity="1" d=" M-1.3669999837875366,-42.22200012207031 C-0.597000002861023,-43.55500030517578 1.3270000219345093,-43.55500030517578 2.0969998836517334,-42.22200012207031 C2.0969998836517334,-42.22200012207031 25.89699935913086,-1 25.89699935913086,-1 C25.89699935913086,-1 49.69599914550781,40.22200012207031 49.69599914550781,40.22200012207031 C50.465999603271484,41.55500030517578 49.50400161743164,43.22200012207031 47.9640007019043,43.22200012207031 C47.9640007019043,43.22200012207031 0.36500000953674316,43.22200012207031 0.36500000953674316,43.22200012207031 C0.36500000953674316,43.22200012207031 -48.96500015258789,43.22200012207031 -48.96500015258789,43.22200012207031 C-49.73500061035156,43.22200012207031 -50.21699905395508,42.388999938964844 -49.832000732421875,41.72200012207031 C-49.832000732421875,41.72200012207031 -25.166000366210938,-1 -25.166000366210938,-1 C-25.166000366210938,-1 -1.3669999837875366,-42.22200012207031 -1.3669999837875366,-42.22200012207031z"/><path stroke-linecap="round" stroke-linejoin="round" fill-opacity="0" class="primary" stroke="rgb(18,19,49)" stroke-opacity="1" stroke-width="7" d=" M-1.3669999837875366,-42.22200012207031 C-0.597000002861023,-43.55500030517578 1.3270000219345093,-43.55500030517578 2.0969998836517334,-42.22200012207031 C2.0969998836517334,-42.22200012207031 25.89699935913086,-1 25.89699935913086,-1 C25.89699935913086,-1 49.69599914550781,40.22200012207031 49.69599914550781,40.22200012207031 C50.465999603271484,41.55500030517578 49.50400161743164,43.22200012207031 47.9640007019043,43.22200012207031 C47.9640007019043,43.22200012207031 0.36500000953674316,43.22200012207031 0.36500000953674316,43.22200012207031 C0.36500000953674316,43.22200012207031 -48.96500015258789,43.22200012207031 -48.96500015258789,43.22200012207031 C-49.73500061035156,43.22200012207031 -50.21699905395508,42.388999938964844 -49.832000732421875,41.72200012207031 C-49.832000732421875,41.72200012207031 -25.166000366210938,-1 -25.166000366210938,-1 C-25.166000366210938,-1 -1.3669999837875366,-42.22200012207031 -1.3669999837875366,-42.22200012207031z"/></g><g opacity="1" transform="matrix(1,0,0,1,346.7879943847656,277.1759948730469)"><path class="secondary" fill="rgb(44,165,141)" fill-opacity="1" d=" M-1.3669999837875366,-19.820999145507812 C-0.597000002861023,-21.15399932861328 1.3270000219345093,-21.15399932861328 2.0969998836517334,-19.820999145507812 C2.0969998836517334,-19.820999145507812 12.96399974822998,-1 12.96399974822998,-1 C12.96399974822998,-1 24.695999145507812,19.320999145507812 24.695999145507812,19.320999145507812 C25.08099937438965,19.988000869750977 24.600000381469727,20.820999145507812 23.829999923706055,20.820999145507812 C23.829999923706055,20.820999145507812 0.36500000953674316,20.820999145507812 0.36500000953674316,20.820999145507812 C0.36500000953674316,20.820999145507812 -24.832000732421875,20.820999145507812 -24.832000732421875,20.820999145507812 C-24.832000732421875,20.820999145507812 -12.232999801635742,-1 -12.232999801635742,-1 C-12.232999801635742,-1 -1.3669999837875366,-19.820999145507812 -1.3669999837875366,-19.820999145507812z"/><path stroke-linecap="round" stroke-linejoin="round" fill-opacity="0" class="primary" stroke="rgb(18,19,49)" stroke-opacity="1" stroke-width="7" d=" M-1.3669999837875366,-19.820999145507812 C-0.597000002861023,-21.15399932861328 1.3270000219345093,-21.15399932861328 2.0969998836517334,-19.820999145507812 C2.0969998836517334,-19.820999145507812 12.96399974822998,-1 12.96399974822998,-1 C12.96399974822998,-1 24.695999145507812,19.320999145507812 24.695999145507812,19.320999145507812 C25.08099937438965,19.988000869750977 24.600000381469727,20.820999145507812 23.829999923706055,20.820999145507812 C23.829999923706055,20.820999145507812 0.36500000953674316,20.820999145507812 0.36500000953674316,20.820999145507812 C0.36500000953674316,20.820999145507812 -24.832000732421875,20.820999145507812 -24.832000732421875,20.820999145507812 C-24.832000732421875,20.820999145507812 -12.232999801635742,-1 -12.232999801635742,-1 C-12.232999801635742,-1 -1.3669999837875366,-19.820999145507812 -1.3669999837875366,-19.820999145507812z"/></g><g opacity="1" transform="matrix(1,0,0,1,337.9739990234375,206.14500427246094)"><path class="tertiary" fill="rgb(242,76,0)" fill-opacity="1" d=" M12.125,0 C12.125,-6.696000099182129 6.696000099182129,-12.125 0,-12.125 C-6.696000099182129,-12.125 -12.125,-6.696000099182129 -12.125,0 C-12.125,6.696000099182129 -6.696000099182129,12.125 0,12.125 C6.696000099182129,12.125 12.125,6.696000099182129 12.125,0z"/><path stroke-linecap="round" stroke-linejoin="round" fill-opacity="0" class="primary" stroke="rgb(18,19,49)" stroke-opacity="1" stroke-width="7" d=" M12.125,0 C12.125,-6.696000099182129 6.696000099182129,-12.125 0,-12.125 C-6.696000099182129,-12.125 -12.125,-6.696000099182129 -12.125,0 C-12.125,6.696000099182129 -6.696000099182129,12.125 0,12.125 C6.696000099182129,12.125 12.125,6.696000099182129 12.125,0z"/></g></g><g opacity="0.5" transform="matrix(1,0,0,1,322.4219970703125,281.593994140625)" style="mix-blend-mode: multiply;"><path class="secondary" fill="rgb(44,165,141)" fill-opacity="1" d=" M12.470000267028809,-6.010000228881836 C12.470000267028809,-6.010000228881836 12.130000114440918,-5.420000076293945 12.130000114440918,-5.420000076293945 C12.130000114440918,-5.420000076293945 -0.4699999988079071,16.399999618530273 -0.4699999988079071,16.399999618530273 C-0.4699999988079071,16.399999618530273 -12.470000267028809,16.399999618530273 -12.470000267028809,16.399999618530273 C-12.470000267028809,16.399999618530273 0.12999999523162842,-5.420000076293945 0.12999999523162842,-5.420000076293945 C0.12999999523162842,-5.420000076293945 6.46999979019165,-16.399999618530273 6.46999979019165,-16.399999618530273 C6.46999979019165,-16.399999618530273 12.470000267028809,-6.010000228881836 12.470000267028809,-6.010000228881836z"/></g></g></g><g mask="url(#__lottie_element_4208_1)" style="display: block;"><g transform="matrix(1,0,0,1,-35.00001525878906,-35)" opacity="1"><g opacity="1" transform="matrix(1,0,0,1,0,0)"><g opacity="1" transform="matrix(1,0,0,1,308.8680114746094,234.49099731445312)"><path class="quaternary" fill="rgb(249,201,192)" fill-opacity="1" d=" M61.50600051879883,63.50600051879883 C61.50600051879883,63.50600051879883 -61.50600051879883,63.50600051879883 -61.50600051879883,63.50600051879883 C-62.611000061035156,63.50600051879883 -63.50600051879883,62.611000061035156 -63.50600051879883,61.50600051879883 C-63.50600051879883,61.50600051879883 -63.50600051879883,-61.50600051879883 -63.50600051879883,-61.50600051879883 C-63.50600051879883,-62.611000061035156 -62.611000061035156,-63.50600051879883 -61.50600051879883,-63.50600051879883 C-61.50600051879883,-63.50600051879883 61.50600051879883,-63.50600051879883 61.50600051879883,-63.50600051879883 C62.611000061035156,-63.50600051879883 63.50600051879883,-62.611000061035156 63.50600051879883,-61.50600051879883 C63.50600051879883,-61.50600051879883 63.50600051879883,61.50600051879883 63.50600051879883,61.50600051879883 C63.50600051879883,62.611000061035156 62.611000061035156,63.50600051879883 61.50600051879883,63.50600051879883z"/><path stroke-linecap="round" stroke-linejoin="round" fill-opacity="0" class="primary" stroke="rgb(18,19,49)" stroke-opacity="1" stroke-width="7" d=" M61.50600051879883,63.50600051879883 C61.50600051879883,63.50600051879883 -61.50600051879883,63.50600051879883 -61.50600051879883,63.50600051879883 C-62.611000061035156,63.50600051879883 -63.50600051879883,62.611000061035156 -63.50600051879883,61.50600051879883 C-63.50600051879883,61.50600051879883 -63.50600051879883,-61.50600051879883 -63.50600051879883,-61.50600051879883 C-63.50600051879883,-62.611000061035156 -62.611000061035156,-63.50600051879883 -61.50600051879883,-63.50600051879883 C-61.50600051879883,-63.50600051879883 61.50600051879883,-63.50600051879883 61.50600051879883,-63.50600051879883 C62.611000061035156,-63.50600051879883 63.50600051879883,-62.611000061035156 63.50600051879883,-61.50600051879883 C63.50600051879883,-61.50600051879883 63.50600051879883,61.50600051879883 63.50600051879883,61.50600051879883 C63.50600051879883,62.611000061035156 62.611000061035156,63.50600051879883 61.50600051879883,63.50600051879883z"/></g><g opacity="1" transform="matrix(1,0,0,1,296.4070129394531,254.7760009765625)"><path class="secondary" fill="rgb(44,165,141)" fill-opacity="1" d=" M-1.3669999837875366,-42.22200012207031 C-0.597000002861023,-43.55500030517578 1.3270000219345093,-43.55500030517578 2.0969998836517334,-42.22200012207031 C2.0969998836517334,-42.22200012207031 25.89699935913086,-1 25.89699935913086,-1 C25.89699935913086,-1 49.69599914550781,40.22200012207031 49.69599914550781,40.22200012207031 C50.465999603271484,41.55500030517578 49.50400161743164,43.22200012207031 47.9640007019043,43.22200012207031 C47.9640007019043,43.22200012207031 0.36500000953674316,43.22200012207031 0.36500000953674316,43.22200012207031 C0.36500000953674316,43.22200012207031 -48.96500015258789,43.22200012207031 -48.96500015258789,43.22200012207031 C-49.73500061035156,43.22200012207031 -50.21699905395508,42.388999938964844 -49.832000732421875,41.72200012207031 C-49.832000732421875,41.72200012207031 -25.166000366210938,-1 -25.166000366210938,-1 C-25.166000366210938,-1 -1.3669999837875366,-42.22200012207031 -1.3669999837875366,-42.22200012207031z"/><path stroke-linecap="round" stroke-linejoin="round" fill-opacity="0" class="primary" stroke="rgb(18,19,49)" stroke-opacity="1" stroke-width="7" d=" M-1.3669999837875366,-42.22200012207031 C-0.597000002861023,-43.55500030517578 1.3270000219345093,-43.55500030517578 2.0969998836517334,-42.22200012207031 C2.0969998836517334,-42.22200012207031 25.89699935913086,-1 25.89699935913086,-1 C25.89699935913086,-1 49.69599914550781,40.22200012207031 49.69599914550781,40.22200012207031 C50.465999603271484,41.55500030517578 49.50400161743164,43.22200012207031 47.9640007019043,43.22200012207031 C47.9640007019043,43.22200012207031 0.36500000953674316,43.22200012207031 0.36500000953674316,43.22200012207031 C0.36500000953674316,43.22200012207031 -48.96500015258789,43.22200012207031 -48.96500015258789,43.22200012207031 C-49.73500061035156,43.22200012207031 -50.21699905395508,42.388999938964844 -49.832000732421875,41.72200012207031 C-49.832000732421875,41.72200012207031 -25.166000366210938,-1 -25.166000366210938,-1 C-25.166000366210938,-1 -1.3669999837875366,-42.22200012207031 -1.3669999837875366,-42.22200012207031z"/></g><g opacity="1" transform="matrix(1,0,0,1,346.7879943847656,277.1759948730469)"><path class="secondary" fill="rgb(44,165,141)" fill-opacity="1" d=" M-1.3669999837875366,-19.820999145507812 C-0.597000002861023,-21.15399932861328 1.3270000219345093,-21.15399932861328 2.0969998836517334,-19.820999145507812 C2.0969998836517334,-19.820999145507812 12.96399974822998,-1 12.96399974822998,-1 C12.96399974822998,-1 24.695999145507812,19.320999145507812 24.695999145507812,19.320999145507812 C25.08099937438965,19.988000869750977 24.600000381469727,20.820999145507812 23.829999923706055,20.820999145507812 C23.829999923706055,20.820999145507812 0.36500000953674316,20.820999145507812 0.36500000953674316,20.820999145507812 C0.36500000953674316,20.820999145507812 -24.832000732421875,20.820999145507812 -24.832000732421875,20.820999145507812 C-24.832000732421875,20.820999145507812 -12.232999801635742,-1 -12.232999801635742,-1 C-12.232999801635742,-1 -1.3669999837875366,-19.820999145507812 -1.3669999837875366,-19.820999145507812z"/><path stroke-linecap="round" stroke-linejoin="round" fill-opacity="0" class="primary" stroke="rgb(18,19,49)" stroke-opacity="1" stroke-width="7" d=" M-1.3669999837875366,-19.820999145507812 C-0.597000002861023,-21.15399932861328 1.3270000219345093,-21.15399932861328 2.0969998836517334,-19.820999145507812 C2.0969998836517334,-19.820999145507812 12.96399974822998,-1 12.96399974822998,-1 C12.96399974822998,-1 24.695999145507812,19.320999145507812 24.695999145507812,19.320999145507812 C25.08099937438965,19.988000869750977 24.600000381469727,20.820999145507812 23.829999923706055,20.820999145507812 C23.829999923706055,20.820999145507812 0.36500000953674316,20.820999145507812 0.36500000953674316,20.820999145507812 C0.36500000953674316,20.820999145507812 -24.832000732421875,20.820999145507812 -24.832000732421875,20.820999145507812 C-24.832000732421875,20.820999145507812 -12.232999801635742,-1 -12.232999801635742,-1 C-12.232999801635742,-1 -1.3669999837875366,-19.820999145507812 -1.3669999837875366,-19.820999145507812z"/></g><g opacity="1" transform="matrix(1,0,0,1,337.9739990234375,206.14500427246094)"><path class="tertiary" fill="rgb(242,76,0)" fill-opacity="1" d=" M12.125,0 C12.125,-6.696000099182129 6.696000099182129,-12.125 0,-12.125 C-6.696000099182129,-12.125 -12.125,-6.696000099182129 -12.125,0 C-12.125,6.696000099182129 -6.696000099182129,12.125 0,12.125 C6.696000099182129,12.125 12.125,6.696000099182129 12.125,0z"/><path stroke-linecap="round" stroke-linejoin="round" fill-opacity="0" class="primary" stroke="rgb(18,19,49)" stroke-opacity="1" stroke-width="7" d=" M12.125,0 C12.125,-6.696000099182129 6.696000099182129,-12.125 0,-12.125 C-6.696000099182129,-12.125 -12.125,-6.696000099182129 -12.125,0 C-12.125,6.696000099182129 -6.696000099182129,12.125 0,12.125 C6.696000099182129,12.125 12.125,6.696000099182129 12.125,0z"/></g></g><g opacity="0.5" transform="matrix(1,0,0,1,322.4219970703125,281.593994140625)" style="mix-blend-mode: multiply;"><path class="secondary" fill="rgb(44,165,141)" fill-opacity="1" d=" M12.470000267028809,-6.010000228881836 C12.470000267028809,-6.010000228881836 12.130000114440918,-5.420000076293945 12.130000114440918,-5.420000076293945 C12.130000114440918,-5.420000076293945 -0.4699999988079071,16.399999618530273 -0.4699999988079071,16.399999618530273 C-0.4699999988079071,16.399999618530273 -12.470000267028809,16.399999618530273 -12.470000267028809,16.399999618530273 C-12.470000267028809,16.399999618530273 0.12999999523162842,-5.420000076293945 0.12999999523162842,-5.420000076293945 C0.12999999523162842,-5.420000076293945 6.46999979019165,-16.399999618530273 6.46999979019165,-16.399999618530273 C6.46999979019165,-16.399999618530273 12.470000267028809,-6.010000228881836 12.470000267028809,-6.010000228881836z"/></g></g></g><g mask="url(#__lottie_element_4197_1)" style="display: block;"><g transform="matrix(1,0,0,1,-35.00001525878906,-35)" opacity="1"><g opacity="1" transform="matrix(1,0,0,1,0,278)"><g opacity="1" transform="matrix(1,0,0,1,0,0)"><g opacity="1" transform="matrix(1,0,0,1,294.40399169921875,321.99798583984375)"><path stroke-linecap="round" stroke-linejoin="round" fill-opacity="0" class="primary" stroke="rgb(18,19,49)" stroke-opacity="1" stroke-width="10" d=" M-0.05900000035762787,0 C-0.05900000035762787,0 0.05900000035762787,0 0.05900000035762787,0"/></g><g opacity="1" transform="matrix(1,0,0,1,245.42100524902344,321.99798583984375)"><path stroke-linecap="round" stroke-linejoin="round" fill-opacity="0" class="primary" stroke="rgb(18,19,49)" stroke-opacity="1" stroke-width="10" d=" M-0.05900000035762787,0 C-0.05900000035762787,0 0.05900000035762787,0 0.05900000035762787,0"/></g><g opacity="1" transform="matrix(1,0,0,1,269.9129943847656,321.99798583984375)"><path stroke-linecap="round" stroke-linejoin="round" fill-opacity="0" class="primary" stroke="rgb(18,19,49)" stroke-opacity="1" stroke-width="10" d=" M-0.05900000035762787,0 C-0.05900000035762787,0 0.05900000035762787,0 0.05900000035762787,0"/></g></g><g opacity="1" transform="matrix(1,0,0,1,308.8559875488281,350.9989929199219)"><path stroke-linecap="round" stroke-linejoin="round" fill-opacity="0" class="primary" stroke="rgb(18,19,49)" stroke-opacity="1" stroke-width="7" d=" M63.49399948120117,0 C63.49399948120117,0 -63.49399948120117,0 -63.49399948120117,0"/></g><g opacity="1" transform="matrix(1,0,0,1,277.1090087890625,378)"><path stroke-linecap="round" stroke-linejoin="round" fill-opacity="0" class="primary" stroke="rgb(18,19,49)" stroke-opacity="1" stroke-width="7" d=" M31.746999740600586,0 C31.746999740600586,0 -31.746999740600586,0 -31.746999740600586,0"/></g></g><g opacity="1" transform="matrix(1,0,0,1,0,0)"><g opacity="1" transform="matrix(1,0,0,1,0,0)"><g opacity="1" transform="matrix(1,0,0,1,294.40399169921875,321.99798583984375)"><path stroke-linecap="round" stroke-linejoin="round" fill-opacity="0" class="primary" stroke="rgb(18,19,49)" stroke-opacity="1" stroke-width="10" d=" M-0.05900000035762787,0 C-0.05900000035762787,0 0.05900000035762787,0 0.05900000035762787,0"/></g><g opacity="1" transform="matrix(1,0,0,1,245.42100524902344,321.99798583984375)"><path stroke-linecap="round" stroke-linejoin="round" fill-opacity="0" class="primary" stroke="rgb(18,19,49)" stroke-opacity="1" stroke-width="10" d=" M-0.05900000035762787,0 C-0.05900000035762787,0 0.05900000035762787,0 0.05900000035762787,0"/></g><g opacity="1" transform="matrix(1,0,0,1,269.9129943847656,321.99798583984375)"><path stroke-linecap="round" stroke-linejoin="round" fill-opacity="0" class="primary" stroke="rgb(18,19,49)" stroke-opacity="1" stroke-width="10" d=" M-0.05900000035762787,0 C-0.05900000035762787,0 0.05900000035762787,0 0.05900000035762787,0"/></g></g><g opacity="1" transform="matrix(1,0,0,1,308.8559875488281,350.9989929199219)"><path stroke-linecap="round" stroke-linejoin="round" fill-opacity="0" class="primary" stroke="rgb(18,19,49)" stroke-opacity="1" stroke-width="7" d=" M63.49399948120117,0 C63.49399948120117,0 -63.49399948120117,0 -63.49399948120117,0"/></g><g opacity="1" transform="matrix(1,0,0,1,277.1090087890625,378)"><path stroke-linecap="round" stroke-linejoin="round" fill-opacity="0" class="primary" stroke="rgb(18,19,49)" stroke-opacity="1" stroke-width="7" d=" M31.746999740600586,0 C31.746999740600586,0 -31.746999740600586,0 -31.746999740600586,0"/></g></g></g></g><g transform="matrix(1,0,0,1,215,215)" opacity="1" style="display: block;"><g opacity="1" transform="matrix(1,0,0,1,0,0)"><path stroke-linecap="round" stroke-linejoin="round" fill-opacity="0" class="primary" stroke="rgb(18,19,49)" stroke-opacity="1" stroke-width="7" d=" M137.7100067138672,-160.1199951171875 C137.7100067138672,-160.1199951171875 -137.7100067138672,-160.1199951171875 -137.7100067138672,-160.1199951171875 C-150.08700561523438,-160.1199951171875 -160.1199951171875,-150.08700561523438 -160.1199951171875,-137.7100067138672 C-160.1199951171875,-137.7100067138672 -160.1199951171875,137.7100067138672 -160.1199951171875,137.7100067138672 C-160.1199951171875,150.08700561523438 -150.08700561523438,160.1199951171875 -137.7100067138672,160.1199951171875 C-137.7100067138672,160.1199951171875 137.7100067138672,160.1199951171875 137.7100067138672,160.1199951171875 C150.08700561523438,160.1199951171875 160.1199951171875,150.08700561523438 160.1199951171875,137.7100067138672 C160.1199951171875,137.7100067138672 160.1199951171875,-137.7100067138672 160.1199951171875,-137.7100067138672 C160.1199951171875,-150.08700561523438 150.08700561523438,-160.1199951171875 137.7100067138672,-160.1199951171875z"/></g><g opacity="1" transform="matrix(1,0,0,1,0,-134.75)"><path stroke-linecap="round" stroke-linejoin="round" fill-opacity="0" class="primary" stroke="rgb(18,19,49)" stroke-opacity="1" stroke-width="7" d=" M160.11000061035156,25.704999923706055 C160.11000061035156,25.704999923706055 160.11000061035156,-3.2950000762939453 160.11000061035156,-3.2950000762939453 C160.11000061035156,-3.2950000762939453 160.11000061035156,-3.2950000762939453 160.11000061035156,-3.2950000762939453 C160.11099243164062,-6.236999988555908 159.5330047607422,-9.149999618530273 158.40899658203125,-11.868000030517578 C157.28500366210938,-14.586000442504883 155.63499450683594,-17.055999755859375 153.55599975585938,-19.136999130249023 C151.4770050048828,-21.218000411987305 149.00799560546875,-22.868999481201172 146.29100036621094,-23.996000289916992 C143.57400512695312,-25.12299919128418 140.66200256347656,-25.70400047302246 137.72000122070312,-25.704999923706055 C137.72000122070312,-25.704999923706055 -137.7100067138672,-25.704999923706055 -137.7100067138672,-25.704999923706055 C-140.65199279785156,-25.704999923706055 -143.5659942626953,-25.125 -146.28399658203125,-23.999000549316406 C-149.0019989013672,-22.87299919128418 -151.47300720214844,-21.222000122070312 -153.55299377441406,-19.141000747680664 C-155.63299560546875,-17.059999465942383 -157.2830047607422,-14.58899974822998 -158.4080047607422,-11.869999885559082 C-159.5330047607422,-9.151000022888184 -160.11099243164062,-6.236999988555908 -160.11000061035156,-3.2950000762939453 C-160.11000061035156,-3.2950000762939453 -160.11000061035156,25.704999923706055 -160.11000061035156,25.704999923706055 C-160.11000061035156,25.704999923706055 160.11000061035156,25.704999923706055 160.11000061035156,25.704999923706055z"/></g></g></g></g></svg>