<svg xmlns="http://www.w3.org/2000/svg" xmlns:xlink="http://www.w3.org/1999/xlink" viewBox="0 0 430 430" width="430" height="430" preserveAspectRatio="xMidYMid meet" style="width: 100%; height: 100%; transform: translate3d(0px, 0px, 0px); content-visibility: visible;"><defs><clipPath id="__lottie_element_2889"><rect width="430" height="430" x="0" y="0"/></clipPath><clipPath id="__lottie_element_2891"><path d="M0,0 L430,0 L430,430 L0,430z"/></clipPath><g id="__lottie_element_2910"><g transform="matrix(1,0,0,1,252.75,200.25)" opacity="1" style="display: block;"><g opacity="1" transform="matrix(1,0,0,1,0,0)"><path fill="rgb(75,179,253)" fill-opacity="1" d=" M-41.32400131225586,25 C-94.44100189208984,25 -137.5,68.05899810791016 -137.5,121.1760025024414 C-137.5,121.1760025024414 -137.5,150 -137.5,150 C-137.5,150 137.5,150 137.5,150 C137.5,150 137.5,121.1760025024414 137.5,121.1760025024414 C137.5,68.05899810791016 94.44100189208984,25 41.32400131225586,25 C41.32400131225586,25 -41.32400131225586,25 -41.32400131225586,25z"/></g></g></g><filter id="__lottie_element_2922" filterUnits="objectBoundingBox" x="0%" y="0%" width="100%" height="100%"><feComponentTransfer in="SourceGraphic"><feFuncA type="table" tableValues="1.0 0.0"/></feComponentTransfer></filter><mask id="__lottie_element_2910_2" mask-type="alpha" maskUnits="userSpaceOnUse"><g filter="url(#__lottie_element_2922)"><rect width="430" height="430" x="0" y="0" fill="#ffffff" opacity="0"/><use xmlns:ns1="http://www.w3.org/1999/xlink" ns1:href="#__lottie_element_2910"/></g></mask></defs><g clip-path="url(#__lottie_element_2889)"><g clip-path="url(#__lottie_element_2891)" transform="matrix(1,0,0,1,0,0)" opacity="1" style="display: block;"><g transform="matrix(0.9399999976158142,0,0,0.9399999976158142,289.75,207)" opacity="1" style="display: block;"><g opacity="1" transform="matrix(1,0,0,1,0,0)"><path class="secondary" fill="rgb(75,179,253)" fill-opacity="1" d=" M-33.902000427246094,20 C-82.83300018310547,20 -122.5,59.66699981689453 -122.5,108.5979995727539 C-122.5,108.5979995727539 -122.5,125 -122.5,125 C-122.5,125 122.5,125 122.5,125 C122.5,125 122.5,108.5979995727539 122.5,108.5979995727539 C122.5,59.66699981689453 82.83300018310547,20 33.902000427246094,20 C33.902000427246094,20 -33.902000427246094,20 -33.902000427246094,20z"/><path class="secondary" fill="rgb(75,179,253)" fill-opacity="0.5" d=" M-33.902000427246094,20 C-82.83300018310547,20 -122.5,59.66699981689453 -122.5,108.5979995727539 C-122.5,108.5979995727539 -122.5,125 -122.5,125 C-122.5,125 122.5,125 122.5,125 C122.5,125 122.5,108.5979995727539 122.5,108.5979995727539 C122.5,59.66699981689453 82.83300018310547,20 33.902000427246094,20 C33.902000427246094,20 -33.902000427246094,20 -33.902000427246094,20z" style="mix-blend-mode: multiply;"/></g><g opacity="1" transform="matrix(1,0,0,1,-3.5,-3)"><path class="tertiary" fill="rgb(255,199,56)" fill-opacity="1" d=" M62.5,-67.5 C62.5,-35.74399948120117 36.75600051879883,-10 5,-10 C-26.756000518798828,-10 -52.5,-35.74399948120117 -52.5,-67.5 C-52.5,-99.25599670410156 -26.756000518798828,-125 5,-125 C36.75600051879883,-125 62.5,-99.25599670410156 62.5,-67.5z"/><path class="tertiary" fill="rgb(255,199,56)" fill-opacity="0.5" d=" M62.5,-67.5 C62.5,-35.74399948120117 36.75600051879883,-10 5,-10 C-26.756000518798828,-10 -52.5,-35.74399948120117 -52.5,-67.5 C-52.5,-99.25599670410156 -26.756000518798828,-125 5,-125 C36.75600051879883,-125 62.5,-99.25599670410156 62.5,-67.5z" style="mix-blend-mode: multiply;"/></g></g><g transform="matrix(0.949999988079071,0,0,0.949999988079071,288.625,206.25)" opacity="1" style="display: block;"><g opacity="1" transform="matrix(1,0,0,1,0,0)"><path stroke-linecap="butt" stroke-linejoin="round" fill-opacity="0" class="primary" stroke="rgb(18,19,49)" stroke-opacity="1" stroke-width="7" d=" M-33.902000427246094,20 C-82.83300018310547,20 -122.5,59.66699981689453 -122.5,108.5979995727539 C-122.5,108.5979995727539 -122.5,125 -122.5,125 C-122.5,125 122.5,125 122.5,125 C122.5,125 122.5,108.5979995727539 122.5,108.5979995727539 C122.5,59.66699981689453 82.83300018310547,20 33.902000427246094,20 C33.902000427246094,20 -33.902000427246094,20 -33.902000427246094,20z"/></g><g opacity="1" transform="matrix(1,0,0,1,-3,-2)"><path stroke-linecap="butt" stroke-linejoin="round" fill-opacity="0" class="primary" stroke="rgb(18,19,49)" stroke-opacity="1" stroke-width="7" d=" M62.5,-67.5 C62.5,-35.74399948120117 36.75600051879883,-10 5,-10 C-26.756000518798828,-10 -52.5,-35.74399948120117 -52.5,-67.5 C-52.5,-99.25599670410156 -26.756000518798828,-125 5,-125 C36.75600051879883,-125 62.5,-99.25599670410156 62.5,-67.5z"/></g></g><g transform="matrix(0.949999988079071,0,0,0.949999988079071,135.625,206.25)" opacity="1" style="display: block;"><g opacity="1" transform="matrix(1,0,0,1,0,0)"><path class="secondary" fill="rgb(75,179,253)" fill-opacity="1" d=" M-33.902000427246094,20 C-82.83300018310547,20 -122.5,59.66699981689453 -122.5,108.5979995727539 C-122.5,108.5979995727539 -122.5,125 -122.5,125 C-122.5,125 122.5,125 122.5,125 C122.5,125 122.5,108.5979995727539 122.5,108.5979995727539 C122.5,59.66699981689453 82.83300018310547,20 33.902000427246094,20 C33.902000427246094,20 -33.902000427246094,20 -33.902000427246094,20z"/><path class="secondary" fill="rgb(75,179,253)" fill-opacity="0.5" d=" M-33.902000427246094,20 C-82.83300018310547,20 -122.5,59.66699981689453 -122.5,108.5979995727539 C-122.5,108.5979995727539 -122.5,125 -122.5,125 C-122.5,125 122.5,125 122.5,125 C122.5,125 122.5,108.5979995727539 122.5,108.5979995727539 C122.5,59.66699981689453 82.83300018310547,20 33.902000427246094,20 C33.902000427246094,20 -33.902000427246094,20 -33.902000427246094,20z" style="mix-blend-mode: multiply;"/><path stroke-linecap="butt" stroke-linejoin="round" fill-opacity="0" class="primary" stroke="rgb(18,19,49)" stroke-opacity="1" stroke-width="7" d=" M-33.902000427246094,20 C-82.83300018310547,20 -122.5,59.66699981689453 -122.5,108.5979995727539 C-122.5,108.5979995727539 -122.5,125 -122.5,125 C-122.5,125 122.5,125 122.5,125 C122.5,125 122.5,108.5979995727539 122.5,108.5979995727539 C122.5,59.66699981689453 82.83300018310547,20 33.902000427246094,20 C33.902000427246094,20 -33.902000427246094,20 -33.902000427246094,20z"/></g><g opacity="1" transform="matrix(1,0,0,1,-6,-2)"><path class="tertiary" fill="rgb(255,199,56)" fill-opacity="1" d=" M62.5,-67.5 C62.5,-35.74399948120117 36.75600051879883,-10 5,-10 C-26.756000518798828,-10 -52.5,-35.74399948120117 -52.5,-67.5 C-52.5,-99.25599670410156 -26.756000518798828,-125 5,-125 C36.75600051879883,-125 62.5,-99.25599670410156 62.5,-67.5z"/><path class="tertiary" fill="rgb(255,199,56)" fill-opacity="0.5" d=" M62.5,-67.5 C62.5,-35.74399948120117 36.75600051879883,-10 5,-10 C-26.756000518798828,-10 -52.5,-35.74399948120117 -52.5,-67.5 C-52.5,-99.25599670410156 -26.756000518798828,-125 5,-125 C36.75600051879883,-125 62.5,-99.25599670410156 62.5,-67.5z" style="mix-blend-mode: multiply;"/><path stroke-linecap="butt" stroke-linejoin="round" fill-opacity="0" class="primary" stroke="rgb(18,19,49)" stroke-opacity="1" stroke-width="7" d=" M62.5,-67.5 C62.5,-35.74399948120117 36.75600051879883,-10 5,-10 C-26.756000518798828,-10 -52.5,-35.74399948120117 -52.5,-67.5 C-52.5,-99.25599670410156 -26.756000518798828,-125 5,-125 C36.75600051879883,-125 62.5,-99.25599670410156 62.5,-67.5z"/></g></g><g transform="matrix(1,0,0,1,212.75,200.5)" opacity="1" style="display: block;"><g opacity="1" transform="matrix(1,0,0,1,0,0)"><path class="secondary" fill="rgb(75,179,253)" fill-opacity="1" d=" M-41.32400131225586,25 C-94.44100189208984,25 -137.5,68.05899810791016 -137.5,121.1760025024414 C-137.5,121.1760025024414 -137.5,141 -137.5,141 C-137.5,141 -137.625,145.625 -136.125,147.875 C-134.78500366210938,149.88600158691406 -130.25,150 -130.25,150 C-130.25,150 128.5,150 128.5,150 C128.5,150 134.25799560546875,150.7429962158203 136.5,148.75 C138.4929962158203,146.97799682617188 137.5,142 137.5,142 C137.5,142 137.5,121.1760025024414 137.5,121.1760025024414 C137.5,68.05899810791016 94.44100189208984,25 41.32400131225586,25 C41.32400131225586,25 -41.32400131225586,25 -41.32400131225586,25z"/></g></g><g mask="url(#__lottie_element_2910_2)" style="display: block;"><g transform="matrix(1,0,0,1,212.75,200.25)" opacity="1"><g opacity="1" transform="matrix(1,0,0,1,0,0)"><path class="secondary" fill="rgb(75,179,253)" fill-opacity="1" d=" M-41.32400131225586,25 C-94.44100189208984,25 -137.5,68.05899810791016 -137.5,121.1760025024414 C-137.5,121.1760025024414 -137.5,141 -137.5,141 C-137.5,141 -137.625,145.625 -136.125,147.875 C-134.78500366210938,149.88600158691406 -130.25,150 -130.25,150 C-130.25,150 128.5,150 128.5,150 C128.5,150 134.25799560546875,150.7429962158203 136.5,148.75 C138.4929962158203,146.97799682617188 137.5,142 137.5,142 C137.5,142 137.5,121.1760025024414 137.5,121.1760025024414 C137.5,68.05899810791016 94.44100189208984,25 41.32400131225586,25 C41.32400131225586,25 -41.32400131225586,25 -41.32400131225586,25z"/><path class="secondary" fill="rgb(75,179,253)" fill-opacity="0.5" d=" M-41.32400131225586,25 C-94.44100189208984,25 -137.5,68.05899810791016 -137.5,121.1760025024414 C-137.5,121.1760025024414 -137.5,141 -137.5,141 C-137.5,141 -137.625,145.625 -136.125,147.875 C-134.78500366210938,149.88600158691406 -130.25,150 -130.25,150 C-130.25,150 128.5,150 128.5,150 C128.5,150 134.25799560546875,150.7429962158203 136.5,148.75 C138.4929962158203,146.97799682617188 137.5,142 137.5,142 C137.5,142 137.5,121.1760025024414 137.5,121.1760025024414 C137.5,68.05899810791016 94.44100189208984,25 41.32400131225586,25 C41.32400131225586,25 -41.32400131225586,25 -41.32400131225586,25z" style="mix-blend-mode: multiply;"/></g></g></g><g transform="matrix(1,0,0,1,215,120)" opacity="1" style="display: block;"><g opacity="1" transform="matrix(1,0,0,1,0,0)"><path class="tertiary" fill="rgb(255,199,56)" fill-opacity="1" d=" M0,70 C38.65999984741211,70 70,38.65999984741211 70,0 C70,-38.65999984741211 38.65999984741211,-70 0,-70 C-38.65999984741211,-70 -70,-38.65999984741211 -70,0 C-70,38.65999984741211 -38.65999984741211,70 0,70z"/></g></g><g transform="matrix(1,0,0,1,199.0030059814453,120.60299682617188)" opacity="0.5" style="mix-blend-mode: multiply; display: block;"><g opacity="1" transform="matrix(1,0,0,1,0,0)"><path class="tertiary" fill="rgb(255,199,56)" fill-opacity="1" d=" M40.99700164794922,59.39699935913086 C45.441001892089844,59.39699935913086 49.78900146484375,58.983001708984375 54.00299835205078,58.191001892089844 C43.05799865722656,65.27999877929688 30.007999420166016,69.39700317382812 15.996999740600586,69.39700317382812 C-22.663000106811523,69.39700317382812 -54.00299835205078,38.05699920654297 -54.00299835205078,-0.6029999852180481 C-54.00299835205078,-34.819000244140625 -29.45400047302246,-63.30099868774414 2.992000102996826,-69.39700317382812 C-16.261999130249023,-56.92499923706055 -29.003000259399414,-35.25199890136719 -29.003000259399414,-10.602999687194824 C-29.003000259399414,28.05699920654297 2.3369998931884766,59.39699935913086 40.99700164794922,59.39699935913086z"/></g></g><g transform="matrix(1,0,0,1,212.5,200)" opacity="1" style="display: block;"><g opacity="1" transform="matrix(1,0,0,1,0,0)"><path stroke-linecap="butt" stroke-linejoin="round" fill-opacity="0" class="primary" stroke="rgb(18,19,49)" stroke-opacity="1" stroke-width="7" d=" M-41.32400131225586,25 C-94.44100189208984,25 -137.5,68.05899810791016 -137.5,121.1760025024414 C-137.5,121.1760025024414 -137.5,150 -137.5,150 C-137.5,150 137.5,150 137.5,150 C137.5,150 137.5,121.1760025024414 137.5,121.1760025024414 C137.5,68.05899810791016 94.44100189208984,25 41.32400131225586,25 C41.32400131225586,25 -41.32400131225586,25 -41.32400131225586,25z"/></g><g opacity="1" transform="matrix(1,0,0,1,0,0)"><path stroke-linecap="butt" stroke-linejoin="round" fill-opacity="0" class="primary" stroke="rgb(18,19,49)" stroke-opacity="1" stroke-width="7" d=" M72.5,-80 C72.5,-41.34000015258789 41.15999984741211,-10 2.5,-10 C-36.15999984741211,-10 -67.5,-41.34000015258789 -67.5,-80 C-67.5,-118.66000366210938 -36.15999984741211,-150 2.5,-150 C41.15999984741211,-150 72.5,-118.66000366210938 72.5,-80z"/></g></g></g></g></svg>