<svg xmlns="http://www.w3.org/2000/svg" xmlns:xlink="http://www.w3.org/1999/xlink" viewBox="0 0 430 430" width="430" height="430" preserveAspectRatio="xMidYMid meet" style="width: 100%; height: 100%; transform: translate3d(0px, 0px, 0px); content-visibility: visible;"><defs><clipPath id="__lottie_element_2054"><rect width="430" height="430" x="0" y="0"/></clipPath><clipPath id="__lottie_element_2056"><path d="M0,0 L430,0 L430,430 L0,430z"/></clipPath></defs><g clip-path="url(#__lottie_element_2054)"><g clip-path="url(#__lottie_element_2056)" transform="matrix(1,0,0,1,0,0)" opacity="1" style="display: block;"><g transform="matrix(1,0,0,1,0,0)" opacity="1" style="display: block;"><g opacity="1" transform="matrix(1,0,0,1,330,175)"><g opacity="1" transform="matrix(1,0,0,1,0,0)"><path class="quinary" fill="rgb(235,230,239)" fill-opacity="1" d=" M0,-85 C-46.944000244140625,-85 -85,-46.944000244140625 -85,0 C-85,0 -85,82 -85,82 C-85,83.65699768066406 -83.65699768066406,85 -82,85 C-82,85 0,85 0,85 C46.944000244140625,85 85,46.944000244140625 85,0 C85,-46.944000244140625 46.944000244140625,-85 0,-85z"/></g></g><g opacity="0.5" transform="matrix(1,0,0,1,323.14898681640625,181.8509979248047)" style="mix-blend-mode: multiply;"><g opacity="1" transform="matrix(1,0,0,1,0,0)"><path class="quinary" fill="rgb(235,230,239)" fill-opacity="1" d=" M-53.14899826049805,-31.85099983215332 C-53.14899826049805,-48.926998138427734 -48.112998962402344,-64.8290023803711 -39.44599914550781,-78.14900207519531 C-62.74399948120117,-62.98899841308594 -78.14900207519531,-36.71900177001953 -78.14900207519531,-6.85099983215332 C-78.14900207519531,-6.85099983215332 -78.14900207519531,75.14900207519531 -78.14900207519531,75.14900207519531 C-78.14900207519531,76.80599975585938 -76.80599975585938,78.14900207519531 -75.14900207519531,78.14900207519531 C-75.14900207519531,78.14900207519531 6.85099983215332,78.14900207519531 6.85099983215332,78.14900207519531 C36.71900177001953,78.14900207519531 62.98899841308594,62.74399948120117 78.14900207519531,39.44599914550781 C64.8290023803711,48.112998962402344 48.926998138427734,53.14899826049805 31.85099983215332,53.14899826049805 C31.85099983215332,53.14899826049805 -50.14899826049805,53.14899826049805 -50.14899826049805,53.14899826049805 C-51.805999755859375,53.14899826049805 -53.14899826049805,51.805999755859375 -53.14899826049805,50.14899826049805 C-53.14899826049805,50.14899826049805 -53.14899826049805,-31.85099983215332 -53.14899826049805,-31.85099983215332z"/></g></g></g><g transform="matrix(1,0,0,1,0,0)" opacity="1" style="display: block;"><g opacity="1" transform="matrix(1,0,0,1,125,236.8769989013672)"><g opacity="1" transform="matrix(1,0,0,1,0,0)"><path class="secondary" fill="rgb(58,51,71)" fill-opacity="1" d=" M-71.88600158691406,-50.12699890136719 C-71.88600158691406,-50.12699890136719 -81.18199920654297,60.87699890136719 -81.18199920654297,60.87699890136719 C-81.18199920654297,60.87699890136719 81.93199920654297,62.37699890136719 81.93199920654297,62.37699890136719 C81.93199920654297,62.37699890136719 71.63600158691406,-52.12699890136719 71.63600158691406,-52.12699890136719 C71.63600158691406,-52.12699890136719 0.25,-50.87699890136719 0.25,-50.87699890136719 C0.25,-50.87699890136719 -71.88600158691406,-50.12699890136719 -71.88600158691406,-50.12699890136719z"/></g></g><g opacity="0.5" transform="matrix(1,0,0,1,55.965999603271484,241.8769989013672)" style="mix-blend-mode: multiply;"><g opacity="1" transform="matrix(1,0,0,1,0,0)"><path class="secondary" fill="rgb(58,51,71)" fill-opacity="1" d=" M-2.8519999980926514,-55.12699890136719 C-2.8519999980926514,-55.12699890136719 -12.14799976348877,55.87699890136719 -12.14799976348877,55.87699890136719 C-12.14799976348877,55.87699890136719 2.8519999980926514,55.87699890136719 2.8519999980926514,55.87699890136719 C2.8519999980926514,55.87699890136719 12.14799976348877,-55.12699890136719 12.14799976348877,-55.12699890136719 C12.14799976348877,-55.12699890136719 -2.8519999980926514,-55.12699890136719 -2.8519999980926514,-55.12699890136719z"/></g></g></g><g transform="matrix(1,0,0,1,0,0)" opacity="1" style="display: block;"><g opacity="1" transform="matrix(1,0,0,1,125,325.18499755859375)"><g opacity="1" transform="matrix(1,0,0,1,0,0)"><path class="senary" fill="rgb(242,139,168)" fill-opacity="1" d=" M-36.66699981689453,-65.18499755859375 C-77.16799926757812,-65.18499755859375 -110,-32.35300064086914 -110,8.14799976348877 C-110,8.14799976348877 -110,30.229000091552734 -110,30.229000091552734 C-110,38.53300094604492 -103.75599670410156,45.50899887084961 -95.50299835205078,46.42599868774414 C-95.50299835205078,46.42599868774414 -79.66200256347656,48.18600082397461 -79.66200256347656,48.18600082397461 C-55.83100128173828,50.83399963378906 -33.33599853515625,65.18499755859375 -9.357999801635742,65.18499755859375 C-9.357999801635742,65.18499755859375 9.357999801635742,65.18499755859375 9.357999801635742,65.18499755859375 C33.33599853515625,65.18499755859375 55.83100128173828,50.83399963378906 79.66200256347656,48.18600082397461 C79.66200256347656,48.18600082397461 95.50299835205078,46.42599868774414 95.50299835205078,46.42599868774414 C103.75599670410156,45.50899887084961 110,38.53300094604492 110,30.229000091552734 C110,30.229000091552734 110,8.14799976348877 110,8.14799976348877 C110,-32.35300064086914 77.16799926757812,-65.18499755859375 36.66699981689453,-65.18499755859375 C36.66699981689453,-65.18499755859375 -36.66699981689453,-65.18499755859375 -36.66699981689453,-65.18499755859375z"/></g></g><g opacity="0.5" transform="matrix(1,0,0,1,64.16699981689453,316.3890075683594)" style="mix-blend-mode: multiply;"><g opacity="1" transform="matrix(1,0,0,1,0,0)"><path class="senary" fill="rgb(242,139,168)" fill-opacity="1" d=" M24.16699981689453,-56.388999938964844 C-16.333999633789062,-56.388999938964844 -49.16699981689453,-23.55699920654297 -49.16699981689453,16.944000244140625 C-49.16699981689453,16.944000244140625 -49.16699981689453,39.025001525878906 -49.16699981689453,39.025001525878906 C-49.16699981689453,47.32899856567383 -42.92300033569336,54.30500030517578 -34.66999816894531,55.22200012207031 C-34.66999816894531,55.22200012207031 -24.16699981689453,56.388999938964844 -24.16699981689453,56.388999938964844 C-24.16699981689453,56.388999938964844 -24.16699981689453,16.944000244140625 -24.16699981689453,16.944000244140625 C-24.16699981689453,-23.55699920654297 8.666000366210938,-56.388999938964844 49.16699981689453,-56.388999938964844 C49.16699981689453,-56.388999938964844 24.16699981689453,-56.388999938964844 24.16699981689453,-56.388999938964844z"/></g></g><g opacity="1" transform="matrix(1,0,0,1,125,270)"><g opacity="1" transform="matrix(1,0,0,1,0,0)"><path class="quaternary" fill="rgb(249,201,192)" fill-opacity="1" d=" M0,30 C16.569000244140625,30 30,16.569000244140625 30,0 C30,0 30,-30 30,-30 C30,-30 -30,-30 -30,-30 C-30,-30 -30,0 -30,0 C-30,16.569000244140625 -16.569000244140625,30 0,30z"/></g></g><g opacity="0.5" transform="matrix(1,0,0,1,125,258.0530090332031)" style="mix-blend-mode: multiply;"><g opacity="1" transform="matrix(1,0,0,1,0,0)"><path class="quaternary" fill="rgb(249,201,192)" fill-opacity="1" d=" M0,11.946999549865723 C-10.765000343322754,11.946999549865723 -20.94700050354004,9.45300006866455 -30,5.01200008392334 C-30,5.01200008392334 -30,-11.946999549865723 -30,-11.946999549865723 C-30,-11.946999549865723 30,-11.946999549865723 30,-11.946999549865723 C30,-11.946999549865723 30,5.01200008392334 30,5.01200008392334 C20.94700050354004,9.45300006866455 10.765000343322754,11.946999549865723 0,11.946999549865723z"/></g></g></g><g transform="matrix(1,0,0,1,0,0)" opacity="1" style="display: block;"><g opacity="1" transform="matrix(1,0,0,1,50.44200134277344,185)"><g opacity="1" transform="matrix(1,0,0,1,0,0)"><path class="tertiary" fill="rgb(75,179,253)" fill-opacity="1" d=" M-0.44200000166893005,-25 C-0.44200000166893005,-25 19.558000564575195,-25 19.558000564575195,-25 C19.558000564575195,-25 20.441999435424805,25 20.441999435424805,25 C20.441999435424805,25 -0.44200000166893005,25 -0.44200000166893005,25 C-11.48799991607666,25 -20.441999435424805,16.04599952697754 -20.441999435424805,5 C-20.441999435424805,5 -20.441999435424805,-5 -20.441999435424805,-5 C-20.441999435424805,-16.04599952697754 -11.48799991607666,-25 -0.44200000166893005,-25z"/></g></g><g opacity="0.5" transform="matrix(1,0,0,1,47.5,185)" style="mix-blend-mode: multiply;"><g opacity="1" transform="matrix(1,0,0,1,0,0)"><path class="tertiary" fill="rgb(75,179,253)" fill-opacity="1" d=" M17.5,-25 C17.5,-25 2.5,-25 2.5,-25 C-8.545999526977539,-25 -17.5,-16.04599952697754 -17.5,-5 C-17.5,-5 -17.5,5 -17.5,5 C-17.5,16.04599952697754 -8.545999526977539,25 2.5,25 C2.5,25 17.5,25 17.5,25 C6.453999996185303,25 -2.5,16.04599952697754 -2.5,5 C-2.5,5 -2.5,-5 -2.5,-5 C-2.5,-16.04599952697754 6.453999996185303,-25 17.5,-25z"/></g></g><g opacity="1" transform="matrix(1,0,0,1,199.5,185)"><g opacity="1" transform="matrix(1,0,0,1,0,0)"><path class="tertiary" fill="rgb(75,179,253)" fill-opacity="1" d=" M0.5,-25 C0.5,-25 -19.5,-25 -19.5,-25 C-19.5,-25 -20.5,25 -20.5,25 C-20.5,25 0.5,25 0.5,25 C11.545999526977539,25 20.5,16.04599952697754 20.5,5 C20.5,5 20.5,-5 20.5,-5 C20.5,-16.04599952697754 11.545999526977539,-25 0.5,-25z"/></g></g><g opacity="0.5" transform="matrix(1,0,0,1,184.75,185)" style="mix-blend-mode: multiply;"><g opacity="1" transform="matrix(1,0,0,1,0,0)"><path class="tertiary" fill="rgb(75,179,253)" fill-opacity="1" d=" M10.25,-25 C10.25,-25 -4.75,-25 -4.75,-25 C-4.75,-25 -10.25,25 -10.25,25 C-10.25,25 10.25,25 10.25,25 C10.25,25 10.25,-25 10.25,-25z"/></g></g><g opacity="1" transform="matrix(1,0,0,1,125,192.5)"><g opacity="1" transform="matrix(1,0,0,1,0,0)"><path class="quaternary" fill="rgb(249,201,192)" fill-opacity="1" d=" M0,62.5 C-30.375999450683594,62.5 -55,37.875999450683594 -55,7.5 C-55,7.5 -55,-52.5 -55,-52.5 C-55,-52.5 0,-62.5 0,-62.5 C0,-62.5 55,-52.5 55,-52.5 C55,-52.5 55,7.5 55,7.5 C55,37.875999450683594 30.375999450683594,62.5 0,62.5z"/></g></g><g opacity="1" transform="matrix(1,0,0,1,125,125)"><g opacity="1" transform="matrix(1,0,0,1,0,0)"><path class="secondary" fill="rgb(58,51,71)" fill-opacity="1" d=" M65,30 C65,30 65,35 65,35 C65,35 33.94900131225586,35 33.94900131225586,35 C32.941001892089844,35 32,34.49300003051758 31.44499969482422,33.652000427246094 C31.44499969482422,33.652000427246094 18.67099952697754,14.295000076293945 18.67099952697754,14.295000076293945 C17.485000610351562,12.498000144958496 14.848999977111816,12.498000144958496 13.663000106811523,14.295000076293945 C13.663000106811523,14.295000076293945 0.8889999985694885,33.652000427246094 0.8889999985694885,33.652000427246094 C0.33399999141693115,34.49300003051758 -0.6069999933242798,35 -1.6150000095367432,35 C-1.6150000095367432,35 -65,35 -65,35 C-65,35 -65,30 -65,30 C-65,-5.89900016784668 -35.89899826049805,-35 0,-35 C35.89899826049805,-35 65,-5.89900016784668 65,30z"/></g></g><g opacity="1" transform="matrix(1,0,0,1,97.5,125)" style="mix-blend-mode: multiply;"><g opacity="1" transform="matrix(1,0,0,1,0,0)"><path class="secondary" fill="rgb(58,51,71)" fill-opacity="1" d=" M37.5,-34.236000061035156 C34.2400016784668,-34.73899841308594 30.900999069213867,-35 27.5,-35 C-8.39900016784668,-35 -37.5,-5.89900016784668 -37.5,30 C-37.5,30 -37.5,35 -37.5,35 C-37.5,35 -17.5,35 -17.5,35 C-17.5,35 -17.5,30 -17.5,30 C-17.5,-2.497999906539917 6.348999977111816,-29.426000595092773 37.5,-34.236000061035156z"/></g></g></g><g transform="matrix(1,0,0,1,0,0)" opacity="1" style="display: block;"><g opacity="1" transform="matrix(1,0,0,1,305.0060119628906,150)"><g opacity="1" transform="matrix(1,0,0,1,0,0)"><path stroke-linecap="round" stroke-linejoin="round" fill-opacity="0" class="primary" stroke="rgb(18,19,49)" stroke-opacity="1" stroke-width="10" d=" M0.006000000052154064,0 C0.006000000052154064,0 -0.006000000052154064,0 -0.006000000052154064,0"/></g></g><g opacity="1" transform="matrix(1,0,0,1,355.0060119628906,200)"><g opacity="1" transform="matrix(1,0,0,1,0,0)"><path stroke-linecap="round" stroke-linejoin="round" fill-opacity="0" class="primary" stroke="rgb(18,19,49)" stroke-opacity="1" stroke-width="10" d=" M0.006000000052154064,0 C0.006000000052154064,0 -0.006000000052154064,0 -0.006000000052154064,0"/></g></g><g opacity="1" transform="matrix(1,0,0,1,330,175)"><g opacity="1" transform="matrix(1,0,0,1,0,0)"><path stroke-linecap="round" stroke-linejoin="round" fill-opacity="0" class="primary" stroke="rgb(18,19,49)" stroke-opacity="1" stroke-width="7" d=" M-25,25 C-25,25 25,-25 25,-25"/></g></g></g><g transform="matrix(1,0,0,1,0,0)" opacity="1" style="display: block;"><g opacity="1" transform="matrix(1,0,0,1,125,273.0530090332031)"><g opacity="1" transform="matrix(1,0,0,1,0,0)"><path stroke-linecap="round" stroke-linejoin="round" fill-opacity="0" class="primary" stroke="rgb(18,19,49)" stroke-opacity="1" stroke-width="7" d=" M-30,-26.94700050354004 C-30,-26.94700050354004 -30,-3.052999973297119 -30,-3.052999973297119 C-30,13.515999794006348 -16.569000244140625,26.94700050354004 0,26.94700050354004 C16.569000244140625,26.94700050354004 30,13.515999794006348 30,-3.052999973297119 C30,-3.052999973297119 30,-26.94700050354004 30,-26.94700050354004"/></g></g><g opacity="1" transform="matrix(1,0,0,1,125,325.18499755859375)"><g opacity="1" transform="matrix(1,0,0,1,0,0)"><path stroke-linecap="round" stroke-linejoin="round" fill-opacity="0" class="primary" stroke="rgb(18,19,49)" stroke-opacity="1" stroke-width="7" d=" M-30,-65.18499755859375 C-30,-65.18499755859375 -36.66699981689453,-65.18499755859375 -36.66699981689453,-65.18499755859375 C-77.16799926757812,-65.18499755859375 -110,-32.35300064086914 -110,8.14799976348877 C-110,8.14799976348877 -110,30.229000091552734 -110,30.229000091552734 C-110,38.53300094604492 -103.75599670410156,45.50899887084961 -95.50299835205078,46.42599868774414 C-95.50299835205078,46.42599868774414 -79.66200256347656,48.18600082397461 -79.66200256347656,48.18600082397461 C-55.83100128173828,50.83399963378906 -33.33599853515625,65.18499755859375 -9.357999801635742,65.18499755859375 C-9.357999801635742,65.18499755859375 9.357999801635742,65.18499755859375 9.357999801635742,65.18499755859375 C33.33599853515625,65.18499755859375 55.83100128173828,50.83399963378906 79.66200256347656,48.18600082397461 C79.66200256347656,48.18600082397461 95.50299835205078,46.42599868774414 95.50299835205078,46.42599868774414 C103.75599670410156,45.50899887084961 110,38.53300094604492 110,30.229000091552734 C110,30.229000091552734 110,8.14799976348877 110,8.14799976348877 C110,-32.35300064086914 77.16799926757812,-65.18499755859375 36.66699981689453,-65.18499755859375 C36.66699981689453,-65.18499755859375 30,-65.18499755859375 30,-65.18499755859375"/></g></g></g><g transform="matrix(1,0,0,1,0,0)" opacity="1" style="display: block;"><g opacity="1" transform="matrix(1,0,0,1,157.5,205)"><g opacity="1" transform="matrix(1,0,0,1,0,0)"><path stroke-linecap="round" stroke-linejoin="round" fill-opacity="0" class="primary" stroke="rgb(18,19,49)" stroke-opacity="1" stroke-width="7" d=" M-22.5,10 C-22.5,10 -4.7870001792907715,10 -4.7870001792907715,10 C-4.7870001792907715,10 22.5,-10 22.5,-10"/></g></g><g opacity="1" transform="matrix(1,0,0,1,125,125)"><g opacity="1" transform="matrix(1,0,0,1,0,0)"><path stroke-linecap="round" stroke-linejoin="round" fill-opacity="0" class="primary" stroke="rgb(18,19,49)" stroke-opacity="1" stroke-width="7" d=" M65,30 C65,30 65,35 65,35 C65,35 32.33399963378906,35 32.33399963378906,35 C32.33399963378906,35 16.16699981689453,10.5 16.16699981689453,10.5 C16.16699981689453,10.5 0,35 0,35 C0,35 -65,35 -65,35 C-65,35 -65,30 -65,30 C-65,-5.89900016784668 -35.89899826049805,-35 0,-35 C35.89899826049805,-35 65,-5.89900016784668 65,30z"/></g></g><g opacity="1" transform="matrix(1,0,0,1,125,207.5)"><g opacity="1" transform="matrix(1,0,0,1,0,0)"><path stroke-linecap="round" stroke-linejoin="round" fill-opacity="0" class="primary" stroke="rgb(18,19,49)" stroke-opacity="1" stroke-width="7" d=" M55,-47.5 C55,-47.5 55,-7.5 55,-7.5 C55,22.875999450683594 30.375999450683594,47.5 0,47.5 C-30.375999450683594,47.5 -55,22.875999450683594 -55,-7.5 C-55,-7.5 -55,-47.5 -55,-47.5"/></g></g><g opacity="1" transform="matrix(1,0,0,1,50.44200134277344,185)"><g opacity="1" transform="matrix(1,0,0,1,0,0)"><path stroke-linecap="round" stroke-linejoin="round" fill-opacity="0" class="primary" stroke="rgb(18,19,49)" stroke-opacity="1" stroke-width="7" d=" M20.441999435424805,25 C20.441999435424805,25 -0.44200000166893005,25 -0.44200000166893005,25 C-11.48799991607666,25 -20.441999435424805,16.04599952697754 -20.441999435424805,5 C-20.441999435424805,5 -20.441999435424805,-5 -20.441999435424805,-5 C-20.441999435424805,-16.04599952697754 -11.48799991607666,-25 -0.44200000166893005,-25 C-0.44200000166893005,-25 19.558000564575195,-25 19.558000564575195,-25"/></g></g><g opacity="1" transform="matrix(1,0,0,1,125,120)"><g opacity="1" transform="matrix(1,0,0,1,0,0)"><path stroke-linecap="round" stroke-linejoin="round" fill-opacity="0" class="primary" stroke="rgb(18,19,49)" stroke-opacity="1" stroke-width="7" d=" M-95,60 C-95,60 -95,35 -95,35 C-95,-17.466999053955078 -52.46699905395508,-60 0,-60 C52.46699905395508,-60 95,-17.466999053955078 95,35 C95,35 95,60 95,60"/></g></g><g opacity="1" transform="matrix(1,0,0,1,199.5,185)"><g opacity="1" transform="matrix(1,0,0,1,0,0)"><path stroke-linecap="round" stroke-linejoin="round" fill-opacity="0" class="primary" stroke="rgb(18,19,49)" stroke-opacity="1" stroke-width="7" d=" M-20.5,25 C-20.5,25 0.5,25 0.5,25 C11.545999526977539,25 20.5,16.04599952697754 20.5,5 C20.5,5 20.5,-5 20.5,-5 C20.5,-16.04599952697754 11.545999526977539,-25 0.5,-25 C0.5,-25 -19.5,-25 -19.5,-25"/></g></g></g><g transform="matrix(1,0,0,1,125,241.8769989013672)" opacity="1" style="display: block;"><g opacity="1" transform="matrix(1,0,0,1,0,0)"><path stroke-linecap="round" stroke-linejoin="round" fill-opacity="0" class="primary" stroke="rgb(18,19,49)" stroke-opacity="1" stroke-width="3" d=" M79.43199920654297,31.87700080871582 C79.43199920654297,31.87700080871582 73.63600158691406,-31.87700080871582 73.63600158691406,-31.87700080871582 M-79.43199920654297,31.87700080871582 C-79.43199920654297,31.87700080871582 -73.63600158691406,-31.87700080871582 -73.63600158691406,-31.87700080871582"/></g></g><g transform="matrix(1,0,0,1,330,175)" opacity="1" style="display: block;"><g opacity="1" transform="matrix(1,0,0,1,0,0)"><path stroke-linecap="round" stroke-linejoin="round" fill-opacity="0" class="primary" stroke="rgb(18,19,49)" stroke-opacity="1" stroke-width="7" d=" M0,-85 C-46.944000244140625,-85 -85,-46.944000244140625 -85,0 C-85,0 -85,85 -85,85 C-85,85 0,85 0,85 C46.944000244140625,85 85,46.944000244140625 85,0 C85,-46.944000244140625 46.944000244140625,-85 0,-85z"/></g></g></g></g></svg>