<svg xmlns="http://www.w3.org/2000/svg" xmlns:xlink="http://www.w3.org/1999/xlink" viewBox="0 0 430 430" width="430" height="430" preserveAspectRatio="xMidYMid meet" style="width: 100%; height: 100%; transform: translate3d(0px, 0px, 0px); content-visibility: visible;"><defs><clipPath id="__lottie_element_2690"><rect width="430" height="430" x="0" y="0"/></clipPath><clipPath id="__lottie_element_2692"><path d="M0,0 L430,0 L430,430 L0,430z"/></clipPath><clipPath id="__lottie_element_2697"><path d="M0,0 L430,0 L430,430 L0,430z"/></clipPath><g id="__lottie_element_2706"><g transform="matrix(1,0,0,1,0,0)" opacity="1" style="display: block;"><g opacity="1" transform="matrix(1,0,0,1,110.9000015258789,308.37701416015625)"><g opacity="1" transform="matrix(1,0,0,1,0,0)"><path fill="rgb(242,76,0)" fill-opacity="1" d=" M-30,66.2229995727539 C-30,66.2229995727539 -56.099998474121094,46.323001861572266 -56.099998474121094,46.323001861572266 C-61.400001525878906,42.323001861572266 -62.400001525878906,34.823001861572266 -58.400001525878906,29.523000717163086 C-58.400001525878906,29.523000717163086 11.100000381469727,-61.47700119018555 11.100000381469727,-61.47700119018555 C15.100000381469727,-66.7770004272461 22.600000381469727,-67.7770004272461 27.899999618530273,-63.777000427246094 C27.899999618530273,-63.777000427246094 42.099998474121094,-52.97700119018555 42.099998474121094,-52.97700119018555 C42.099998474121094,-52.97700119018555 56.099998474121094,-42.07699966430664 56.099998474121094,-42.07699966430664 C61.400001525878906,-38.07699966430664 62.400001525878906,-30.57699966430664 58.400001525878906,-25.277000427246094 C58.400001525878906,-25.277000427246094 44.20000076293945,-6.677000045776367 44.20000076293945,-6.677000045776367 C44.20000076293945,-6.677000045776367 -6.699999809265137,60.02299880981445 -6.699999809265137,60.02299880981445"/></g></g></g></g><g id="__lottie_element_2715"><g transform="matrix(1,0,0,1,0,0)" opacity="1" style="display: block;"><g opacity="1" transform="matrix(1,0,0,1,10.25,0)"><path fill="rgb(255,199,56)" fill-opacity="1" d=" M79.9,395.8 C88.35,395.8 95.2,388.95 95.2,380.5 C95.2,372.05 88.35,365.2 79.9,365.2 C71.45,365.2 64.6,372.05 64.6,380.5 C64.6,388.95 71.45,395.8 79.9,395.8z"/><g opacity="1" transform="matrix(1,0,0,1,79.9000015258789,380.5)"><g opacity="1" transform="matrix(1,0,0,1,0,0)"/></g></g></g></g><clipPath id="__lottie_element_2723"><path d="M0,0 L430,0 L430,430 L0,430z"/></clipPath><filter id="__lottie_element_2739" filterUnits="objectBoundingBox" x="0%" y="0%" width="100%" height="100%"><feComponentTransfer in="SourceGraphic"><feFuncA type="table" tableValues="1.0 0.0"/></feComponentTransfer></filter><mask id="__lottie_element_2715_2" mask-type="alpha" maskUnits="userSpaceOnUse"><g filter="url(#__lottie_element_2739)"><rect width="430" height="430" x="0" y="0" fill="#ffffff" opacity="0"/><use xmlns:ns1="http://www.w3.org/1999/xlink" ns1:href="#__lottie_element_2715"/></g></mask><filter id="__lottie_element_2740" filterUnits="objectBoundingBox" x="0%" y="0%" width="100%" height="100%"><feComponentTransfer in="SourceGraphic"><feFuncA type="table" tableValues="1.0 0.0"/></feComponentTransfer></filter><mask id="__lottie_element_2706_2" mask-type="alpha" maskUnits="userSpaceOnUse"><g filter="url(#__lottie_element_2740)"><rect width="430" height="430" x="0" y="0" fill="#ffffff" opacity="0"/><use xmlns:ns2="http://www.w3.org/1999/xlink" ns2:href="#__lottie_element_2706"/></g></mask></defs><g clip-path="url(#__lottie_element_2690)"><g clip-path="url(#__lottie_element_2692)" transform="matrix(1,0,0,1,0,0)" opacity="1" style="display: block;"><g clip-path="url(#__lottie_element_2697)" transform="matrix(1,0,0,1,0,0)" opacity="1" style="display: block;"><g transform="matrix(1,0,0,1,0,0)" opacity="1" style="display: block;"><g opacity="1" transform="matrix(1,0,0,1,95.9000015258789,308.37701416015625)"><g opacity="1" transform="matrix(1,0,0,1,0,0)"><path class="quinary" fill="rgb(242,76,0)" fill-opacity="1" d=" M-30,66.2229995727539 C-30,66.2229995727539 -56.099998474121094,46.323001861572266 -56.099998474121094,46.323001861572266 C-61.400001525878906,42.323001861572266 -62.400001525878906,34.823001861572266 -58.400001525878906,29.523000717163086 C-58.400001525878906,29.523000717163086 11.100000381469727,-61.47700119018555 11.100000381469727,-61.47700119018555 C15.100000381469727,-66.7770004272461 22.600000381469727,-67.7770004272461 27.899999618530273,-63.777000427246094 C27.899999618530273,-63.777000427246094 42.099998474121094,-52.97700119018555 42.099998474121094,-52.97700119018555 C42.099998474121094,-52.97700119018555 56.099998474121094,-42.07699966430664 56.099998474121094,-42.07699966430664 C61.400001525878906,-38.07699966430664 62.400001525878906,-30.57699966430664 58.400001525878906,-25.277000427246094 C58.400001525878906,-25.277000427246094 44.20000076293945,-6.677000045776367 44.20000076293945,-6.677000045776367 C44.20000076293945,-6.677000045776367 -6.699999809265137,60.02299880981445 -6.699999809265137,60.02299880981445"/></g></g></g><g mask="url(#__lottie_element_2706_2)" style="mix-blend-mode: multiply; display: block;"><g transform="matrix(1,0,0,1,0,0)" opacity="0.5"><g opacity="1" transform="matrix(1,0,0,1,95.9000015258789,308.37701416015625)"><g opacity="1" transform="matrix(1,0,0,1,0,0)"><path class="quinary" fill="rgb(242,76,0)" fill-opacity="1" d=" M-30,66.2229995727539 C-30,66.2229995727539 -56.099998474121094,46.323001861572266 -56.099998474121094,46.323001861572266 C-61.400001525878906,42.323001861572266 -62.400001525878906,34.823001861572266 -58.400001525878906,29.523000717163086 C-58.400001525878906,29.523000717163086 11.100000381469727,-61.47700119018555 11.100000381469727,-61.47700119018555 C15.100000381469727,-66.7770004272461 22.600000381469727,-67.7770004272461 27.899999618530273,-63.777000427246094 C27.899999618530273,-63.777000427246094 42.099998474121094,-52.97700119018555 42.099998474121094,-52.97700119018555 C42.099998474121094,-52.97700119018555 56.099998474121094,-42.07699966430664 56.099998474121094,-42.07699966430664 C61.400001525878906,-38.07699966430664 62.400001525878906,-30.57699966430664 58.400001525878906,-25.277000427246094 C58.400001525878906,-25.277000427246094 44.20000076293945,-6.677000045776367 44.20000076293945,-6.677000045776367 C44.20000076293945,-6.677000045776367 -6.699999809265137,60.02299880981445 -6.699999809265137,60.02299880981445"/></g></g></g></g><g transform="matrix(1,0,0,1,0,0)" opacity="1" style="display: block;"><path class="senary" fill="rgb(255,199,56)" fill-opacity="1" d=" M79.9,395.8 C88.35,395.8 95.2,388.95 95.2,380.5 C95.2,372.05 88.35,365.2 79.9,365.2 C71.45,365.2 64.6,372.05 64.6,380.5 C64.6,388.95 71.45,395.8 79.9,395.8z"/><g opacity="1" transform="matrix(1,0,0,1,79.9000015258789,380.5)"><g opacity="1" transform="matrix(1,0,0,1,0,0)"/></g></g><g mask="url(#__lottie_element_2715_2)" style="mix-blend-mode: multiply; display: block;"><g transform="matrix(1,0,0,1,0,0)" opacity="0.5"><path class="senary" fill="rgb(255,199,56)" fill-opacity="1" d=" M79.9,395.8 C88.35,395.8 95.2,388.95 95.2,380.5 C95.2,372.05 88.35,365.2 79.9,365.2 C71.45,365.2 64.6,372.05 64.6,380.5 C64.6,388.95 71.45,395.8 79.9,395.8z"/><g opacity="1" transform="matrix(1,0,0,1,79.9000015258789,380.5)"><g opacity="1" transform="matrix(1,0,0,1,0,0)"/></g></g></g><g transform="matrix(1,0,0,1,0,0)" opacity="1" style="display: block;"><g opacity="1" transform="matrix(1,0,0,1,95.9000015258789,308.37701416015625)"><g opacity="1" transform="matrix(1,0,0,1,0,0)"><path stroke-linecap="round" stroke-linejoin="round" fill-opacity="0" class="primary" stroke="rgb(18,19,49)" stroke-opacity="1" stroke-width="7" d=" M-30,66.2229995727539 C-30,66.2229995727539 -56.099998474121094,46.323001861572266 -56.099998474121094,46.323001861572266 C-61.400001525878906,42.323001861572266 -62.400001525878906,34.823001861572266 -58.400001525878906,29.523000717163086 C-58.400001525878906,29.523000717163086 11.100000381469727,-61.47700119018555 11.100000381469727,-61.47700119018555 C15.100000381469727,-66.7770004272461 22.600000381469727,-67.7770004272461 27.899999618530273,-63.777000427246094 C27.899999618530273,-63.777000427246094 42.099998474121094,-52.97700119018555 42.099998474121094,-52.97700119018555 C42.099998474121094,-52.97700119018555 56.099998474121094,-42.07699966430664 56.099998474121094,-42.07699966430664 C61.400001525878906,-38.07699966430664 62.400001525878906,-30.57699966430664 58.400001525878906,-25.277000427246094 C58.400001525878906,-25.277000427246094 44.20000076293945,-6.677000045776367 44.20000076293945,-6.677000045776367 C44.20000076293945,-6.677000045776367 -6.699999809265137,60.02299880981445 -6.699999809265137,60.02299880981445"/></g></g><g opacity="1" transform="matrix(1,0,0,1,168.60000610351562,264.5)"><g opacity="1" transform="matrix(1,0,0,1,0,0)"><path stroke-linecap="round" stroke-linejoin="round" fill-opacity="0" class="primary" stroke="rgb(18,19,49)" stroke-opacity="1" stroke-width="7" d=" M-28.399999618530273,37.20000076293945 C-28.399999618530273,37.20000076293945 28.399999618530273,-37.20000076293945 28.399999618530273,-37.20000076293945"/></g></g><g opacity="1" transform="matrix(1,0,0,1,79.9000015258789,380.5)"><g opacity="1" transform="matrix(1,0,0,1,0,0)"><path stroke-linecap="round" stroke-linejoin="round" fill-opacity="0" class="primary" stroke="rgb(18,19,49)" stroke-opacity="1" stroke-width="7" d=" M0,15.300000190734863 C8.449999809265137,15.300000190734863 15.300000190734863,8.449999809265137 15.300000190734863,0 C15.300000190734863,-8.449999809265137 8.449999809265137,-15.300000190734863 0,-15.300000190734863 C-8.449999809265137,-15.300000190734863 -15.300000190734863,-8.449999809265137 -15.300000190734863,0 C-15.300000190734863,8.449999809265137 -8.449999809265137,15.300000190734863 0,15.300000190734863z"/></g></g><g opacity="1" transform="matrix(1,0,0,1,112.19999694824219,289.04998779296875)"><g opacity="1" transform="matrix(1,0,0,1,0,0)"><path stroke-linecap="round" stroke-linejoin="round" fill-opacity="0" class="primary" stroke="rgb(18,19,49)" stroke-opacity="1" stroke-width="7" d=" M-25.700000762939453,33.650001525878906 C-25.700000762939453,33.650001525878906 25.700000762939453,-33.650001525878906 25.700000762939453,-33.650001525878906"/></g></g></g><g clip-path="url(#__lottie_element_2723)" transform="matrix(-0.9599999785423279,0,0,0.9599999785423279,493.2607727050781,8.5888032913208)" opacity="1" style="display: block;"><g transform="matrix(1,0,0,1,114.49993896484375,216.25)" opacity="1" style="display: block;"><g opacity="1" transform="matrix(1,0,0,1,0,0)"><path class="secondary" fill="rgb(75,179,253)" fill-opacity="1" d=" M105.85600280761719,-105.9540023803711 C105.5,-105.9540023803711 102.875,-105.93800354003906 101.24299621582031,-105.76100158691406 C97.02899932861328,-105.30400085449219 84.875,-102.125 75.50199890136719,-86.18699645996094 C75.50199890136719,-86.18699645996094 45.40800094604492,-37.95399856567383 45.40800094604492,-37.95399856567383 C45.40800094604492,-37.95399856567383 -10.984000205993652,-11.253000259399414 -10.984000205993652,-11.253000259399414 C-10.984000205993652,-11.253000259399414 -6.795000076293945,19.7549991607666 23.631999969482422,6.791999816894531 C23.631999969482422,6.791999816894531 65.1969985961914,-14.5 65.1969985961914,-14.5 C65.1969985961914,-14.5 114.46299743652344,-89.21199798583984 114.46299743652344,-89.21199798583984"/></g><g opacity="0.5" transform="matrix(1,0,0,1,0,0)" style="mix-blend-mode: multiply;"><path class="secondary" fill="rgb(75,179,253)" fill-opacity="1" d=" M105.85600280761719,-105.9540023803711 C105.5,-105.9540023803711 102.875,-105.93800354003906 101.24299621582031,-105.76100158691406 C97.02899932861328,-105.30400085449219 84.875,-102.125 75.50199890136719,-86.18699645996094 C75.50199890136719,-86.18699645996094 45.40800094604492,-37.95399856567383 45.40800094604492,-37.95399856567383 C45.40800094604492,-37.95399856567383 -10.984000205993652,-11.253000259399414 -10.984000205993652,-11.253000259399414 C-10.984000205993652,-11.253000259399414 -6.795000076293945,19.7549991607666 23.631999969482422,6.791999816894531 C23.631999969482422,6.791999816894531 65.1969985961914,-14.5 65.1969985961914,-14.5 C65.1969985961914,-14.5 114.46299743652344,-89.21199798583984 114.46299743652344,-89.21199798583984"/></g></g><g transform="matrix(1,0,0,1,114.49993896484375,216.25)" opacity="1" style="display: block;"><g opacity="1" transform="matrix(1,0,0,1,0,0)"><path stroke-linecap="round" stroke-linejoin="round" fill-opacity="0" class="primary" stroke="rgb(18,19,49)" stroke-opacity="1" stroke-width="7" d=" M105.85600280761719,-105.9540023803711 C105.5,-105.9540023803711 102.875,-105.93800354003906 101.24299621582031,-105.76100158691406 C97.02899932861328,-105.30400085449219 84.875,-102.125 75.50199890136719,-86.18699645996094 C75.50199890136719,-86.18699645996094 45.40800094604492,-37.95399856567383 45.40800094604492,-37.95399856567383 C45.40800094604492,-37.95399856567383 -10.984000205993652,-11.253000259399414 -10.984000205993652,-11.253000259399414 C-10.984000205993652,-11.253000259399414 -6.795000076293945,19.7549991607666 23.631999969482422,6.791999816894531 C23.631999969482422,6.791999816894531 65.1969985961914,-14.5 65.1969985961914,-14.5 C65.1969985961914,-14.5 114.46299743652344,-89.21199798583984 114.46299743652344,-89.21199798583984"/></g></g><g transform="matrix(1,0,0,1,104.38900756835938,214.54100036621094)" opacity="1" style="display: block;"><g opacity="1" transform="matrix(1,0,0,1,0,0)"><path class="quaternary" fill="rgb(58,51,71)" fill-opacity="1" d=" M87.28299713134766,6.630000114440918 C87.28299713134766,6.630000114440918 122.37100219726562,94.0009994506836 122.37100219726562,94.0009994506836 C122.37100219726562,94.0009994506836 178.03500366210938,147.8280029296875 178.03500366210938,147.8280029296875 C178.03500366210938,147.8280029296875 169.25,171.25 182.85699462890625,178.02699279785156 C191.14999389648438,169.96299743652344 215.1790008544922,145.3509979248047 221.4530029296875,139.25 C211.76699829101562,128.8040008544922 203.8489990234375,120.68199920654297 203.8489990234375,120.68199920654297 C203.8489990234375,120.68199920654297 156.1020050048828,72.28299713134766 156.1020050048828,72.28299713134766 C156.1020050048828,72.28299713134766 147.03399658203125,4.751999855041504 147.03399658203125,4.751999855041504"/></g><g opacity="0.5" transform="matrix(1,0,0,1,0,0)" style="mix-blend-mode: multiply;"><path class="quaternary" fill="rgb(58,51,71)" fill-opacity="1" d=" M87.28299713134766,6.630000114440918 C87.28299713134766,6.630000114440918 122.37100219726562,94.0009994506836 122.37100219726562,94.0009994506836 C122.37100219726562,94.0009994506836 178.03500366210938,147.8280029296875 178.03500366210938,147.8280029296875 C178.03500366210938,147.8280029296875 169.25,171.25 182.85699462890625,178.02699279785156 C191.14999389648438,169.96299743652344 215.1790008544922,145.3509979248047 221.4530029296875,139.25 C211.76699829101562,128.8040008544922 203.8489990234375,120.68199920654297 203.8489990234375,120.68199920654297 C203.8489990234375,120.68199920654297 156.1020050048828,72.28299713134766 156.1020050048828,72.28299713134766 C156.1020050048828,72.28299713134766 147.03399658203125,4.751999855041504 147.03399658203125,4.751999855041504"/></g></g><g transform="matrix(1,0,0,1,104.38900756835938,214.54100036621094)" opacity="1" style="display: block;"><g opacity="1" transform="matrix(1,0,0,1,0,0)"><path class="tertiary" fill="rgb(100,110,120)" fill-opacity="1" d=" M178.03500366210938,147.8280029296875 C178.03500366210938,147.8280029296875 169.25,171.25 182.85699462890625,178.02699279785156 C191.14999389648438,169.96299743652344 215.1790008544922,145.3509979248047 221.4530029296875,139.25 C211.76699829101562,128.8040008544922 203.8489990234375,120.68199920654297 203.8489990234375,120.68199920654297"/></g><g opacity="0.5" transform="matrix(1,0,0,1,0,0)" style="mix-blend-mode: multiply;"><path class="tertiary" fill="rgb(100,110,120)" fill-opacity="1" d=" M178.03500366210938,147.8280029296875 C178.03500366210938,147.8280029296875 169.25,171.25 182.85699462890625,178.02699279785156 C191.14999389648438,169.96299743652344 215.1790008544922,145.3509979248047 221.4530029296875,139.25 C211.76699829101562,128.8040008544922 203.8489990234375,120.68199920654297 203.8489990234375,120.68199920654297"/></g></g><g transform="matrix(1,0,0,1,104.38900756835938,214.54100036621094)" opacity="1" style="display: block;"><g opacity="1" transform="matrix(1,0,0,1,0,0)"><path stroke-linecap="round" stroke-linejoin="round" fill-opacity="0" class="primary" stroke="rgb(18,19,49)" stroke-opacity="1" stroke-width="7" d=" M87.28299713134766,6.630000114440918 C87.28299713134766,6.630000114440918 122.37100219726562,94.0009994506836 122.37100219726562,94.0009994506836 C122.37100219726562,94.0009994506836 178.03500366210938,147.8280029296875 178.03500366210938,147.8280029296875 C178.03500366210938,147.8280029296875 169.25,171.25 182.85699462890625,178.02699279785156 C191.14999389648438,169.96299743652344 215.1790008544922,145.3509979248047 221.4530029296875,139.25 C211.76699829101562,128.8040008544922 203.8489990234375,120.68199920654297 203.8489990234375,120.68199920654297 C203.8489990234375,120.68199920654297 156.1020050048828,72.28299713134766 156.1020050048828,72.28299713134766 C156.1020050048828,72.28299713134766 147.03399658203125,4.751999855041504 147.03399658203125,4.751999855041504"/></g></g><g transform="matrix(1,0,0,1,102.75,219)" opacity="1" style="display: block;"><path class="quaternary" fill="rgb(58,51,71)" fill-opacity="1" d=" M84.78299713134766,-0.6200000047683716 C84.78299713134766,-0.6200000047683716 53.87099838256836,82.0009994506836 53.87099838256836,82.0009994506836 C53.87099838256836,82.0009994506836 57.80400085449219,157.2469940185547 57.80400085449219,157.2469940185547 C57.80400085449219,157.2469940185547 32.625,167.75 40.43299865722656,182.85800170898438 C52,182.85800170898438 85.16000366210938,182.86700439453125 93.91200256347656,182.86700439453125 C94.25,168.625 94.23600006103516,157.28199768066406 94.23600006103516,157.28199768066406 C94.23600006103516,157.28199768066406 94.91400146484375,89.03299713134766 94.91400146484375,89.03299713134766 C94.91400146484375,89.03299713134766 149.26699829101562,0.0020000000949949026 149.26699829101562,0.0020000000949949026"/><g opacity="1" transform="matrix(1,0,0,1,0,0)"><path stroke-linecap="round" stroke-linejoin="round" fill-opacity="0" class="primary" stroke="rgb(18,19,49)" stroke-opacity="1" stroke-width="0" d=" M84.78299713134766,-0.6200000047683716 C84.78299713134766,-0.6200000047683716 53.87099838256836,82.0009994506836 53.87099838256836,82.0009994506836 C53.87099838256836,82.0009994506836 57.80400085449219,157.2469940185547 57.80400085449219,157.2469940185547 C57.80400085449219,157.2469940185547 32.625,167.75 40.43299865722656,182.85800170898438 C52,182.85800170898438 85.16000366210938,182.86700439453125 93.91200256347656,182.86700439453125 C94.25,168.625 94.23600006103516,157.28199768066406 94.23600006103516,157.28199768066406 C94.23600006103516,157.28199768066406 94.91400146484375,89.03299713134766 94.91400146484375,89.03299713134766 C94.91400146484375,89.03299713134766 149.26699829101562,0.0020000000949949026 149.26699829101562,0.0020000000949949026"/></g></g><g transform="matrix(1,0,0,1,102.75,219)" opacity="1" style="display: block;"><path class="tertiary" fill="rgb(100,110,120)" fill-opacity="1" d=" M57.80400085449219,157.2469940185547 C57.80400085449219,157.2469940185547 32.625,167.75 40.43299865722656,182.85800170898438 C52,182.85800170898438 85.16000366210938,182.86700439453125 93.91200256347656,182.86700439453125 C94.25,168.625 94.23600006103516,157.28199768066406 94.23600006103516,157.28199768066406"/><g opacity="1" transform="matrix(1,0,0,1,0,0)"><path stroke-linecap="round" stroke-linejoin="round" fill-opacity="0" class="primary" stroke="rgb(18,19,49)" stroke-opacity="1" stroke-width="0" d=" M57.80400085449219,157.2469940185547 C57.80400085449219,157.2469940185547 32.625,167.75 40.43299865722656,182.85800170898438 C52,182.85800170898438 85.16000366210938,182.86700439453125 93.91200256347656,182.86700439453125 C94.25,168.625 94.23600006103516,157.28199768066406 94.23600006103516,157.28199768066406"/></g></g><g transform="matrix(1,0,0,1,102.75000762939453,219)" opacity="1" style="display: block;"><g opacity="1" transform="matrix(1,0,0,1,0,0)"><path stroke-linecap="round" stroke-linejoin="round" fill-opacity="0" class="primary" stroke="rgb(18,19,49)" stroke-opacity="1" stroke-width="7" d=" M84.78299713134766,-0.6200000047683716 C84.78299713134766,-0.6200000047683716 53.87099838256836,82.0009994506836 53.87099838256836,82.0009994506836 C53.87099838256836,82.0009994506836 57.80400085449219,157.2469940185547 57.80400085449219,157.2469940185547 C57.80400085449219,157.2469940185547 32.625,167.75 40.43299865722656,182.85800170898438 C52,182.85800170898438 85.16000366210938,182.86700439453125 93.91200256347656,182.86700439453125 C94.25,168.625 94.23600006103516,157.28199768066406 94.23600006103516,157.28199768066406 C94.23600006103516,157.28199768066406 94.91400146484375,89.03299713134766 94.91400146484375,89.03299713134766 C94.91400146484375,89.03299713134766 149.26699829101562,0.0020000000949949026 149.26699829101562,0.0020000000949949026"/></g></g><g transform="matrix(1,0,0,1,-909,-307)" opacity="1" style="display: block;"><g opacity="1" transform="matrix(1,0,0,1,0,0)"><path class="secondary" fill="rgb(75,179,253)" fill-opacity="1" d=" M1129.031005859375,417.3699951171875 C1113.125,417.3699951171875 1097.031005859375,430.5 1097.031005859375,449.3599853515625 C1097.031005859375,449.3599853515625 1097.06103515625,525.8829956054688 1097.06103515625,525.8829956054688 C1097.06103515625,525.8829956054688 1160.906005859375,526.0700073242188 1160.906005859375,526.0700073242188 C1160.906005859375,526.0700073242188 1161.031005859375,449.3599853515625 1161.031005859375,449.3599853515625 C1161.031005859375,432.9490051269531 1146.5770263671875,417.9620056152344 1130.0150146484375,417.3869934082031 C1129.68798828125,417.3760070800781 1129.3599853515625,417.3699951171875 1129.031005859375,417.3699951171875z"/><path stroke-linecap="round" stroke-linejoin="round" fill-opacity="0" class="secondary" stroke="rgb(8,168,138)" stroke-opacity="1" stroke-width="0" d=" M1129.031005859375,417.3699951171875 C1113.125,417.3699951171875 1097.031005859375,430.5 1097.031005859375,449.3599853515625 C1097.031005859375,449.3599853515625 1097.06103515625,525.8829956054688 1097.06103515625,525.8829956054688 C1097.06103515625,525.8829956054688 1160.906005859375,526.0700073242188 1160.906005859375,526.0700073242188 C1160.906005859375,526.0700073242188 1161.031005859375,449.3599853515625 1161.031005859375,449.3599853515625 C1161.031005859375,432.9490051269531 1146.5770263671875,417.9620056152344 1130.0150146484375,417.3869934082031 C1129.68798828125,417.3760070800781 1129.3599853515625,417.3699951171875 1129.031005859375,417.3699951171875z"/></g></g><g transform="matrix(-1,0,0,1,237.4930419921875,182.39999389648438)" opacity="0.5" style="mix-blend-mode: multiply; display: block;"><g opacity="1" transform="matrix(1,0,0,1,0,0)"><path class="secondary" fill="rgb(75,179,253)" fill-opacity="1" d=" M11.387999534606934,-34.79999923706055 C11.387999534606934,-34.79999923706055 13.48799991607666,-30.799999237060547 13.48799991607666,-30.799999237060547 C15.48799991607666,-27 14.48799991607666,-22.299999237060547 11.088000297546387,-19.600000381469727 C11.088000297546387,-19.600000381469727 -2.812000036239624,-8.600000381469727 -2.812000036239624,-8.600000381469727 C-3.51200008392334,-8 -3.9119999408721924,-7.099999904632568 -3.9119999408721924,-6.199999809265137 C-3.9119999408721924,-6.199999809265137 -3.9170000553131104,36.67499923706055 -3.9170000553131104,36.67499923706055 C-3.9170000553131104,36.67499923706055 -14.517000198364258,36.67499923706055 -14.517000198364258,36.67499923706055 C-14.517000198364258,36.67499923706055 -14.51200008392334,0.699999988079071 -14.51200008392334,0.699999988079071 C-14.51200008392334,0.699999988079071 -14.51200008392334,-10.100000381469727 -14.51200008392334,-10.100000381469727 C-14.51200008392334,-10.100000381469727 -14.51200008392334,-14.300000190734863 -14.51200008392334,-14.300000190734863 C-14.51200008392334,-14.300000190734863 11.387999534606934,-34.79999923706055 11.387999534606934,-34.79999923706055z"/></g></g><g transform="matrix(1,0,0,1,-909,-307)" opacity="1" style="display: block;"><g opacity="1" transform="matrix(1,0,0,1,0,0)"><path stroke-linecap="round" stroke-linejoin="round" fill-opacity="0" class="primary" stroke="rgb(18,19,49)" stroke-opacity="1" stroke-width="7" d=" M1129.031005859375,417.3699951171875 C1113.125,417.3699951171875 1097.031005859375,430.5 1097.031005859375,449.3599853515625 C1097.031005859375,449.3599853515625 1097.031005859375,525.0700073242188 1097.031005859375,525.0700073242188 C1097.031005859375,525.0700073242188 1161.031005859375,525.0700073242188 1161.031005859375,525.0700073242188 C1161.031005859375,525.0700073242188 1161.031005859375,449.3599853515625 1161.031005859375,449.3599853515625 C1161.031005859375,432.9490051269531 1146.5770263671875,417.9620056152344 1130.0150146484375,417.3869934082031 C1129.68798828125,417.3760070800781 1129.3599853515625,417.3699951171875 1129.031005859375,417.3699951171875z"/></g></g></g><g transform="matrix(-0.9599999785423279,0,0,0.9599999785423279,383.3406982421875,216.42880249023438)" opacity="1" style="display: block;"><g opacity="1" transform="matrix(1,0,0,1,0,0)"><path class="secondary" fill="rgb(75,179,253)" fill-opacity="1" d=" M106.35600280761719,-105.9540023803711 C114.625,-105.625 121.875,-101.5 124.46900177001953,-99.125 C128.625,-95.625 135.75,-91.25 139.96099853515625,-87.56199645996094 C139.96099853515625,-87.56199645996094 175.5500030517578,-59.625999450683594 175.5500030517578,-59.625999450683594 C175.5500030517578,-59.625999450683594 193.07400512695312,-27.363000869750977 198.9320068359375,-16.148000717163086 C205.00399780273438,-4.623000144958496 204.8730010986328,11.720999717712402 180.39700317382812,16.395999908447266 C180.39700317382812,16.395999908447266 151.375,-38.37799835205078 151.375,-38.37799835205078 C151.375,-38.37799835205078 118.177001953125,-64.33699798583984 118.177001953125,-64.33699798583984"/></g></g><g transform="matrix(-0.9599999785423279,0,0,0.9599999785423279,383.3406982421875,216.42880249023438)" opacity="1" style="display: block;"><g opacity="1" transform="matrix(1,0,0,1,0,0)"><path stroke-linecap="round" stroke-linejoin="round" fill-opacity="0" class="primary" stroke="rgb(18,19,49)" stroke-opacity="1" stroke-width="7" d=" M106.35600280761719,-105.9540023803711 C114.625,-105.625 121.875,-101.5 124.46900177001953,-99.125 C128.625,-95.625 135.75,-91.25 139.96099853515625,-87.56199645996094 C139.96099853515625,-87.56199645996094 175.5500030517578,-59.625999450683594 175.5500030517578,-59.625999450683594 C175.5500030517578,-59.625999450683594 193.07400512695312,-27.363000869750977 198.9320068359375,-16.148000717163086 C205.00399780273438,-4.623000144958496 204.8730010986328,11.720999717712402 180.39700317382812,16.395999908447266 C180.39700317382812,16.395999908447266 151.375,-38.37799835205078 151.375,-38.37799835205078 C151.375,-38.37799835205078 118.177001953125,-64.33699798583984 118.177001953125,-64.33699798583984"/></g></g><g transform="matrix(1.0000030994415283,0,0,1.0000030994415283,0.00007573614129796624,0.00045389769366011024)" opacity="1" style="display: block;"><g opacity="1" transform="matrix(1,0,0,1,285.5570068359375,63)"><g opacity="1" transform="matrix(1,0,0,1,0,0)"><path class="septenary" fill="rgb(249,201,192)" fill-opacity="1" d=" M16.350000381469727,28.450000762939453 C16.350000381469727,28.450000762939453 -1.5499999523162842,28.450000762939453 -1.5499999523162842,28.450000762939453 C-13.149999618530273,28.450000762939453 -22.549999237060547,19.049999237060547 -22.649999618530273,7.449999809265137 C-22.649999618530273,7.449999809265137 -22.649999618530273,-7.349999904632568 -22.649999618530273,-7.349999904632568 C-22.649999618530273,-18.950000762939453 -13.149999618530273,-28.450000762939453 -1.5499999523162842,-28.450000762939453 C-1.5499999523162842,-28.450000762939453 1.5499999523162842,-28.450000762939453 1.5499999523162842,-28.450000762939453 C13.149999618530273,-28.450000762939453 22.649999618530273,-18.950000762939453 22.649999618530273,-7.349999904632568 C22.649999618530273,-7.349999904632568 22.649999618530273,22.149999618530273 22.649999618530273,22.149999618530273 C22.649999618530273,25.649999618530273 19.850000381469727,28.450000762939453 16.350000381469727,28.450000762939453z"/></g></g><g opacity="1" transform="matrix(1,0,0,1,285.0570068359375,51.70000076293945)"><g opacity="1" transform="matrix(1,0,0,1,0,0)"><path class="octonary" fill="rgb(178,104,54)" fill-opacity="1" d=" M-14.75,11.149999618530273 C-17.649999618530273,11.25 -20.149999618530273,13.050000190734863 -20.649999618530273,15.850000381469727 C-20.850000381469727,16.950000762939453 -21.450000762939453,17.149999618530273 -22.149999618530273,17.149999618530273 C-22.149999618530273,17.149999618530273 -22.149999618530273,3.8499999046325684 -22.149999618530273,3.8499999046325684 C-22.149999618530273,-7.650000095367432 -12.850000381469727,-17.049999237060547 -1.350000023841858,-17.149999618530273 C-0.05000000074505806,-17.149999618530273 1.149999976158142,-17.149999618530273 2.3499999046325684,-17.149999618530273 C11.550000190734863,-16.950000762939453 19.350000381469727,-10.949999809265137 22.149999618530273,-2.549999952316284 C22.049999237060547,-2.549999952316284 21.950000762939453,-2.549999952316284 21.850000381469727,-2.549999952316284 C19.149999618530273,-2.549999952316284 16.450000762939453,-2.549999952316284 13.75,-2.549999952316284 C11.25,-2.549999952316284 8.75,-2.549999952316284 6.25,-2.549999952316284 C1.9500000476837158,-2.549999952316284 -0.8500000238418579,0.05000000074505806 -1.25,4.150000095367432 C-1.649999976158142,8.850000381469727 -4.25,11.149999618530273 -9.149999618530273,11.149999618530273 C-11.050000190734863,11.149999618530273 -12.850000381469727,11.149999618530273 -14.75,11.149999618530273z"/></g></g></g><g transform="matrix(-0.9599999785423279,0,0,0.9599999785423279,386.8879089355469,215.7932891845703)" opacity="1" style="display: block;"><g opacity="1" transform="matrix(1,0,0,1,0,0)"><path stroke-linecap="round" stroke-linejoin="round" fill-opacity="0" class="primary" stroke="rgb(18,19,49)" stroke-opacity="1" stroke-width="7" d=" M89.875,-128.7570037841797 C89.875,-128.7570037841797 109.125,-128.7570037841797 109.125,-128.7570037841797 C120.1760025024414,-128.7570037841797 129.218994140625,-137.8000030517578 129.218994140625,-148.8509979248047 C129.218994140625,-148.8509979248047 129.218994140625,-166.4029998779297 129.218994140625,-166.4029998779297 C129.218994140625,-177.98199462890625 119.74500274658203,-187.45599365234375 108.16600036621094,-187.45599365234375 C108.16600036621094,-187.45599365234375 103.6500015258789,-187.45599365234375 103.6500015258789,-187.45599365234375 C92.07099914550781,-187.45599365234375 82.59700012207031,-177.98199462890625 82.59700012207031,-166.4029998779297 C82.59700012207031,-166.4029998779297 82.59700012207031,-136.03500366210938 82.59700012207031,-136.03500366210938 C82.59700012207031,-132.03199768066406 85.87200164794922,-128.7570037841797 89.875,-128.7570037841797z"/></g></g></g></g></g></svg>