<svg xmlns="http://www.w3.org/2000/svg" xmlns:xlink="http://www.w3.org/1999/xlink" viewBox="0 0 430 430" width="430" height="430" preserveAspectRatio="xMidYMid meet" style="width: 100%; height: 100%; transform: translate3d(0px, 0px, 0px); content-visibility: visible;"><defs><clipPath id="__lottie_element_12424"><rect width="430" height="430" x="0" y="0"/></clipPath><clipPath id="__lottie_element_12426"><path d="M0,0 L430,0 L430,430 L0,430z"/></clipPath><g id="__lottie_element_12442"><g transform="matrix(1,0,0,1,-35,-35)" opacity="1" style="display: block;"><g opacity="1" transform="matrix(1,0,0,1,155.18099975585938,288.3450012207031)"><path fill="rgb(255,0,0)" fill-opacity="1" d=" M12.119999885559082,15.119999885559082 C12.119999885559082,15.119999885559082 -12.119999885559082,15.119999885559082 -12.119999885559082,15.119999885559082 C-13.777000427246094,15.119999885559082 -15.119999885559082,13.777000427246094 -15.119999885559082,12.119999885559082 C-15.119999885559082,12.119999885559082 -15.119999885559082,-12.119999885559082 -15.119999885559082,-12.119999885559082 C-15.119999885559082,-13.777000427246094 -13.777000427246094,-15.119999885559082 -12.119999885559082,-15.119999885559082 C-12.119999885559082,-15.119999885559082 12.119999885559082,-15.119999885559082 12.119999885559082,-15.119999885559082 C13.777000427246094,-15.119999885559082 15.119999885559082,-13.777000427246094 15.119999885559082,-12.119999885559082 C15.119999885559082,-12.119999885559082 15.119999885559082,12.119999885559082 15.119999885559082,12.119999885559082 C15.119999885559082,13.777000427246094 13.777000427246094,15.119999885559082 12.119999885559082,15.119999885559082z"/></g><g opacity="1" transform="matrix(1,0,0,1,155.18099975585938,362.3330078125)"><path fill="rgb(255,0,0)" fill-opacity="1" d=" M12.119999885559082,15.119999885559082 C12.119999885559082,15.119999885559082 -12.119999885559082,15.119999885559082 -12.119999885559082,15.119999885559082 C-13.777000427246094,15.119999885559082 -15.119999885559082,13.777000427246094 -15.119999885559082,12.119999885559082 C-15.119999885559082,12.119999885559082 -15.119999885559082,-12.119999885559082 -15.119999885559082,-12.119999885559082 C-15.119999885559082,-13.777000427246094 -13.777000427246094,-15.119999885559082 -12.119999885559082,-15.119999885559082 C-12.119999885559082,-15.119999885559082 12.119999885559082,-15.119999885559082 12.119999885559082,-15.119999885559082 C13.777000427246094,-15.119999885559082 15.119999885559082,-13.777000427246094 15.119999885559082,-12.119999885559082 C15.119999885559082,-12.119999885559082 15.119999885559082,12.119999885559082 15.119999885559082,12.119999885559082 C15.119999885559082,13.777000427246094 13.777000427246094,15.119999885559082 12.119999885559082,15.119999885559082z"/></g></g></g><mask id="__lottie_element_12442_1" mask-type="alpha"><use xmlns:ns1="http://www.w3.org/1999/xlink" ns1:href="#__lottie_element_12442"/></mask></defs><g clip-path="url(#__lottie_element_12424)"><g clip-path="url(#__lottie_element_12426)" transform="matrix(1,0,0,1,0,0)" opacity="1" style="display: block;"><g transform="matrix(1,0,0,1,215,215)" opacity="1" style="display: block;"><g opacity="1" transform="matrix(1,0,0,1,0,0)"><path class="senary" fill="rgb(235,230,239)" fill-opacity="1" d=" M137.7100067138672,-160.1199951171875 C137.7100067138672,-160.1199951171875 -137.7100067138672,-160.1199951171875 -137.7100067138672,-160.1199951171875 C-150.08700561523438,-160.1199951171875 -160.1199951171875,-150.08700561523438 -160.1199951171875,-137.7100067138672 C-160.1199951171875,-137.7100067138672 -160.1199951171875,137.7100067138672 -160.1199951171875,137.7100067138672 C-160.1199951171875,150.08700561523438 -150.08700561523438,160.1199951171875 -137.7100067138672,160.1199951171875 C-137.7100067138672,160.1199951171875 137.7100067138672,160.1199951171875 137.7100067138672,160.1199951171875 C150.08700561523438,160.1199951171875 160.1199951171875,150.08700561523438 160.1199951171875,137.7100067138672 C160.1199951171875,137.7100067138672 160.1199951171875,-137.7100067138672 160.1199951171875,-137.7100067138672 C160.1199951171875,-150.08700561523438 150.08700561523438,-160.1199951171875 137.7100067138672,-160.1199951171875z"/></g><g opacity="1" transform="matrix(1,0,0,1,0,-134.75)"><path class="quinary" fill="rgb(58,51,71)" fill-opacity="1" d=" M160.11000061035156,25.704999923706055 C160.11000061035156,25.704999923706055 160.11000061035156,-3.2950000762939453 160.11000061035156,-3.2950000762939453 C160.11000061035156,-3.2950000762939453 160.11000061035156,-3.2950000762939453 160.11000061035156,-3.2950000762939453 C160.11099243164062,-6.236999988555908 159.5330047607422,-9.149999618530273 158.40899658203125,-11.868000030517578 C157.28500366210938,-14.586000442504883 155.63499450683594,-17.055999755859375 153.55599975585938,-19.136999130249023 C151.4770050048828,-21.218000411987305 149.00799560546875,-22.868999481201172 146.29100036621094,-23.996000289916992 C143.57400512695312,-25.12299919128418 140.66200256347656,-25.70400047302246 137.72000122070312,-25.704999923706055 C137.72000122070312,-25.704999923706055 -137.7100067138672,-25.704999923706055 -137.7100067138672,-25.704999923706055 C-140.65199279785156,-25.704999923706055 -143.5659942626953,-25.125 -146.28399658203125,-23.999000549316406 C-149.0019989013672,-22.87299919128418 -151.47300720214844,-21.222000122070312 -153.55299377441406,-19.141000747680664 C-155.63299560546875,-17.059999465942383 -157.2830047607422,-14.58899974822998 -158.4080047607422,-11.869999885559082 C-159.5330047607422,-9.151000022888184 -160.11099243164062,-6.236999988555908 -160.11000061035156,-3.2950000762939453 C-160.11000061035156,-3.2950000762939453 -160.11000061035156,25.704999923706055 -160.11000061035156,25.704999923706055 C-160.11000061035156,25.704999923706055 160.11000061035156,25.704999923706055 160.11000061035156,25.704999923706055z"/></g><g opacity="1" transform="matrix(1,0,0,1,-72.06199645996094,-134.43800354003906)"><path stroke-linecap="round" stroke-linejoin="round" fill-opacity="0" class="quaternary" stroke="rgb(44,165,141)" stroke-opacity="1" stroke-width="15" d=" M0.06499999761581421,0 C0.06499999761581421,0 -0.06499999761581421,0 -0.06499999761581421,0"/></g><g opacity="1" transform="matrix(1,0,0,1,-100.18800354003906,-134.43800354003906)"><path stroke-linecap="round" stroke-linejoin="round" fill-opacity="0" class="tertiary" stroke="rgb(255,199,56)" stroke-opacity="1" stroke-width="15" d=" M0.06499999761581421,0 C0.06499999761581421,0 -0.06499999761581421,0 -0.06499999761581421,0"/></g><g opacity="1" transform="matrix(1,0,0,1,-128.18800354003906,-134.43800354003906)"><path stroke-linecap="round" stroke-linejoin="round" fill-opacity="0" class="septenary" stroke="rgb(242,76,0)" stroke-opacity="1" stroke-width="15" d=" M0.06499999761581421,0 C0.06499999761581421,0 -0.06499999761581421,0 -0.06499999761581421,0"/></g></g><g transform="matrix(1,0,0,1,215,158.25)" opacity="1" style="display: block;"><g opacity="1" transform="matrix(1,0,0,1,0,0)"><path class="secondary" fill="rgb(75,179,253)" fill-opacity="1" d=" M-160.1199951171875,-52.25 C-160.1199951171875,-52.25 160.1199951171875,-52.25 160.1199951171875,-52.25 C160.1199951171875,-52.25 160.1199951171875,52.25 160.1199951171875,52.25 C160.1199951171875,52.25 -160.1199951171875,52.25 -160.1199951171875,52.25 C-160.1199951171875,52.25 -160.1199951171875,-52.25 -160.1199951171875,-52.25z"/></g></g><g transform="matrix(1,0,0,1,-35,-35)" opacity="1" style="display: block;"><g opacity="1" transform="matrix(1,0,0,1,155.18099975585938,288.3450012207031)"><path class="secondary" fill="rgb(75,179,253)" fill-opacity="1" d=" M12.119999885559082,15.119999885559082 C12.119999885559082,15.119999885559082 -12.119999885559082,15.119999885559082 -12.119999885559082,15.119999885559082 C-13.777000427246094,15.119999885559082 -15.119999885559082,13.777000427246094 -15.119999885559082,12.119999885559082 C-15.119999885559082,12.119999885559082 -15.119999885559082,-12.119999885559082 -15.119999885559082,-12.119999885559082 C-15.119999885559082,-13.777000427246094 -13.777000427246094,-15.119999885559082 -12.119999885559082,-15.119999885559082 C-12.119999885559082,-15.119999885559082 12.119999885559082,-15.119999885559082 12.119999885559082,-15.119999885559082 C13.777000427246094,-15.119999885559082 15.119999885559082,-13.777000427246094 15.119999885559082,-12.119999885559082 C15.119999885559082,-12.119999885559082 15.119999885559082,12.119999885559082 15.119999885559082,12.119999885559082 C15.119999885559082,13.777000427246094 13.777000427246094,15.119999885559082 12.119999885559082,15.119999885559082z"/><path class="secondary" fill="rgb(75,179,253)" fill-opacity="0.5" d=" M12.119999885559082,15.119999885559082 C12.119999885559082,15.119999885559082 -12.119999885559082,15.119999885559082 -12.119999885559082,15.119999885559082 C-13.777000427246094,15.119999885559082 -15.119999885559082,13.777000427246094 -15.119999885559082,12.119999885559082 C-15.119999885559082,12.119999885559082 -15.119999885559082,-12.119999885559082 -15.119999885559082,-12.119999885559082 C-15.119999885559082,-13.777000427246094 -13.777000427246094,-15.119999885559082 -12.119999885559082,-15.119999885559082 C-12.119999885559082,-15.119999885559082 12.119999885559082,-15.119999885559082 12.119999885559082,-15.119999885559082 C13.777000427246094,-15.119999885559082 15.119999885559082,-13.777000427246094 15.119999885559082,-12.119999885559082 C15.119999885559082,-12.119999885559082 15.119999885559082,12.119999885559082 15.119999885559082,12.119999885559082 C15.119999885559082,13.777000427246094 13.777000427246094,15.119999885559082 12.119999885559082,15.119999885559082z" style="mix-blend-mode: multiply;"/></g><g opacity="1" transform="matrix(1,0,0,1,155.18099975585938,362.3330078125)"><path class="secondary" fill="rgb(75,179,253)" fill-opacity="1" d=" M12.119999885559082,15.119999885559082 C12.119999885559082,15.119999885559082 -12.119999885559082,15.119999885559082 -12.119999885559082,15.119999885559082 C-13.777000427246094,15.119999885559082 -15.119999885559082,13.777000427246094 -15.119999885559082,12.119999885559082 C-15.119999885559082,12.119999885559082 -15.119999885559082,-12.119999885559082 -15.119999885559082,-12.119999885559082 C-15.119999885559082,-13.777000427246094 -13.777000427246094,-15.119999885559082 -12.119999885559082,-15.119999885559082 C-12.119999885559082,-15.119999885559082 12.119999885559082,-15.119999885559082 12.119999885559082,-15.119999885559082 C13.777000427246094,-15.119999885559082 15.119999885559082,-13.777000427246094 15.119999885559082,-12.119999885559082 C15.119999885559082,-12.119999885559082 15.119999885559082,12.119999885559082 15.119999885559082,12.119999885559082 C15.119999885559082,13.777000427246094 13.777000427246094,15.119999885559082 12.119999885559082,15.119999885559082z"/><path class="secondary" fill="rgb(75,179,253)" fill-opacity="0.5" d=" M12.119999885559082,15.119999885559082 C12.119999885559082,15.119999885559082 -12.119999885559082,15.119999885559082 -12.119999885559082,15.119999885559082 C-13.777000427246094,15.119999885559082 -15.119999885559082,13.777000427246094 -15.119999885559082,12.119999885559082 C-15.119999885559082,12.119999885559082 -15.119999885559082,-12.119999885559082 -15.119999885559082,-12.119999885559082 C-15.119999885559082,-13.777000427246094 -13.777000427246094,-15.119999885559082 -12.119999885559082,-15.119999885559082 C-12.119999885559082,-15.119999885559082 12.119999885559082,-15.119999885559082 12.119999885559082,-15.119999885559082 C13.777000427246094,-15.119999885559082 15.119999885559082,-13.777000427246094 15.119999885559082,-12.119999885559082 C15.119999885559082,-12.119999885559082 15.119999885559082,12.119999885559082 15.119999885559082,12.119999885559082 C15.119999885559082,13.777000427246094 13.777000427246094,15.119999885559082 12.119999885559082,15.119999885559082z" style="mix-blend-mode: multiply;"/></g></g><g mask="url(#__lottie_element_12442_1)" style="display: block;"><g transform="matrix(1,0,0,1,-24.938003540039062,-35)" opacity="1"><g opacity="1" transform="matrix(1,0,0,1,155.18099975585938,288.3450012207031)"><path class="secondary" fill="rgb(75,179,253)" fill-opacity="1" d=" M12.119999885559082,15.119999885559082 C12.119999885559082,15.119999885559082 -12.119999885559082,15.119999885559082 -12.119999885559082,15.119999885559082 C-13.777000427246094,15.119999885559082 -15.119999885559082,13.777000427246094 -15.119999885559082,12.119999885559082 C-15.119999885559082,12.119999885559082 -15.119999885559082,-12.119999885559082 -15.119999885559082,-12.119999885559082 C-15.119999885559082,-13.777000427246094 -13.777000427246094,-15.119999885559082 -12.119999885559082,-15.119999885559082 C-12.119999885559082,-15.119999885559082 12.119999885559082,-15.119999885559082 12.119999885559082,-15.119999885559082 C13.777000427246094,-15.119999885559082 15.119999885559082,-13.777000427246094 15.119999885559082,-12.119999885559082 C15.119999885559082,-12.119999885559082 15.119999885559082,12.119999885559082 15.119999885559082,12.119999885559082 C15.119999885559082,13.777000427246094 13.777000427246094,15.119999885559082 12.119999885559082,15.119999885559082z"/></g><g opacity="1" transform="matrix(1,0,0,1,155.18099975585938,362.3330078125)"><path class="secondary" fill="rgb(75,179,253)" fill-opacity="1" d=" M12.119999885559082,15.119999885559082 C12.119999885559082,15.119999885559082 -12.119999885559082,15.119999885559082 -12.119999885559082,15.119999885559082 C-13.777000427246094,15.119999885559082 -15.119999885559082,13.777000427246094 -15.119999885559082,12.119999885559082 C-15.119999885559082,12.119999885559082 -15.119999885559082,-12.119999885559082 -15.119999885559082,-12.119999885559082 C-15.119999885559082,-13.777000427246094 -13.777000427246094,-15.119999885559082 -12.119999885559082,-15.119999885559082 C-12.119999885559082,-15.119999885559082 12.119999885559082,-15.119999885559082 12.119999885559082,-15.119999885559082 C13.777000427246094,-15.119999885559082 15.119999885559082,-13.777000427246094 15.119999885559082,-12.119999885559082 C15.119999885559082,-12.119999885559082 15.119999885559082,12.119999885559082 15.119999885559082,12.119999885559082 C15.119999885559082,13.777000427246094 13.777000427246094,15.119999885559082 12.119999885559082,15.119999885559082z"/></g></g></g><g transform="matrix(1,0,0,1,-35,-35)" opacity="1" style="display: block;"><path stroke-linecap="round" stroke-linejoin="round" fill-opacity="0" class="primary" stroke="rgb(18,19,49)" stroke-opacity="1" stroke-width="7" d=" M167.3,303.47 C167.3,303.47 143.06,303.47 143.06,303.47 C141.4,303.47 140.06,302.12 140.06,300.47 C140.06,300.47 140.06,276.23 140.06,276.23 C140.06,274.57 141.4,273.23 143.06,273.23 C143.06,273.23 167.3,273.23 167.3,273.23 C168.96,273.23 170.3,274.57 170.3,276.23 C170.3,276.23 170.3,300.47 170.3,300.47 C170.3,302.12 168.96,303.47 167.3,303.47z M167.3,377.45 C167.3,377.45 143.06,377.45 143.06,377.45 C141.4,377.45 140.06,376.11 140.06,374.45 C140.06,374.45 140.06,350.21 140.06,350.21 C140.06,348.56 141.4,347.21 143.06,347.21 C143.06,347.21 167.3,347.21 167.3,347.21 C168.96,347.21 170.3,348.56 170.3,350.21 C170.3,350.21 170.3,374.45 170.3,374.45 C170.3,376.11 168.96,377.45 167.3,377.45z"/><g opacity="1" transform="matrix(1,0,0,1,155.18099975585938,288.3450012207031)"/><g opacity="1" transform="matrix(1,0,0,1,155.18099975585938,362.3330078125)"/></g><g transform="matrix(1,0,0,1,-35,-34.99998474121094)" opacity="1" style="display: block;"><g opacity="1" transform="matrix(1,0,0,1,221.66099548339844,288.3450012207031)"><path stroke-linecap="round" stroke-linejoin="round" fill-opacity="0" class="primary" stroke="rgb(18,19,49)" stroke-opacity="1" stroke-width="7" d=" M17.327999114990234,0 C17.327999114990234,0 -17.327999114990234,0 -17.327999114990234,0"/></g><g opacity="1" transform="matrix(1,0,0,1,312,288.3450012207031)"><path stroke-linecap="round" stroke-linejoin="round" fill-opacity="0" class="primary" stroke="rgb(18,19,49)" stroke-opacity="1" stroke-width="7" d=" M38,0 C38,0 -38,0 -38,0"/></g><g opacity="1" transform="matrix(1,0,0,1,277.1669921875,362.3320007324219)"><path stroke-linecap="round" stroke-linejoin="round" fill-opacity="0" class="primary" stroke="rgb(18,19,49)" stroke-opacity="1" stroke-width="7" d=" M72.83300018310547,0 C72.83300018310547,0 -72.83300018310547,0 -72.83300018310547,0"/></g><g opacity="1" transform="matrix(1,0,0,1,250,184.00100708007812)"><path stroke-linecap="round" stroke-linejoin="round" fill-opacity="0" class="primary" stroke="rgb(18,19,49)" stroke-opacity="1" stroke-width="7" d=" M109.93900299072266,0 C109.93900299072266,0 -109.93900299072266,0 -109.93900299072266,0"/></g><g opacity="1" transform="matrix(1,0,0,1,173.5540008544922,220.0019989013672)"><path stroke-linecap="round" stroke-linejoin="round" fill-opacity="0" class="primary" stroke="rgb(18,19,49)" stroke-opacity="1" stroke-width="7" d=" M33.49300003051758,0 C33.49300003051758,0 -33.49300003051758,0 -33.49300003051758,0"/></g></g><g transform="matrix(1,0,0,1,215,215)" opacity="1" style="display: block;"><path stroke-linecap="round" stroke-linejoin="round" fill-opacity="0" class="primary" stroke="rgb(18,19,49)" stroke-opacity="1" stroke-width="7" d=" M137.7100067138672,-160.1199951171875 C137.7100067138672,-160.1199951171875 -137.7100067138672,-160.1199951171875 -137.7100067138672,-160.1199951171875 C-150.08700561523438,-160.1199951171875 -160.1199951171875,-150.08700561523438 -160.1199951171875,-137.7100067138672 C-160.1199951171875,-137.7100067138672 -160.1199951171875,137.7100067138672 -160.1199951171875,137.7100067138672 C-160.1199951171875,150.08700561523438 -150.08700561523438,160.1199951171875 -137.7100067138672,160.1199951171875 C-137.7100067138672,160.1199951171875 137.7100067138672,160.1199951171875 137.7100067138672,160.1199951171875 C150.08700561523438,160.1199951171875 160.1199951171875,150.08700561523438 160.1199951171875,137.7100067138672 C160.1199951171875,137.7100067138672 160.1199951171875,-137.7100067138672 160.1199951171875,-137.7100067138672 C160.1199951171875,-150.08700561523438 150.08700561523438,-160.1199951171875 137.7100067138672,-160.1199951171875z M160.11,-109.05 C160.11,-109.05 160.11,-138.05 160.11,-138.05 C160.11,-138.05 160.11,-138.05 160.11,-138.05 C160.11,-140.99 159.53,-143.9 158.41,-146.62 C157.29,-149.34 155.63,-151.81 153.56,-153.89 C151.48,-155.97 149.01,-157.62 146.29,-158.75 C143.57,-159.87 140.66,-160.45 137.72,-160.45 C137.72,-160.45 -137.71,-160.45 -137.71,-160.45 C-140.65,-160.45 -143.57,-159.87 -146.28,-158.75 C-149,-157.62 -151.47,-155.97 -153.55,-153.89 C-155.63,-151.81 -157.28,-149.34 -158.41,-146.62 C-159.53,-143.9 -160.11,-140.99 -160.11,-138.05 C-160.11,-138.05 -160.11,-109.05 -160.11,-109.05 C-160.11,-109.05 160.11,-109.05 160.11,-109.05z"/><g opacity="1" transform="matrix(1,0,0,1,0,0)"/><g opacity="1" transform="matrix(1,0,0,1,0,-134.75)"/></g></g></g></svg>